G75*
G70*
%OFA0B0*%
%FSLAX24Y24*%
%IPPOS*%
%LPD*%
%AMOC8*
5,1,8,0,0,1.08239X$1,22.5*
%
%ADD10R,0.0946X0.0316*%
%ADD11OC8,0.0640*%
%ADD12C,0.0640*%
%ADD13C,0.1379*%
%ADD14OC8,0.0710*%
%ADD15C,0.0710*%
%ADD16C,0.0760*%
%ADD17C,0.0635*%
%ADD18OC8,0.1080*%
%ADD19C,0.0740*%
%ADD20OC8,0.0680*%
%ADD21R,0.0840X0.0840*%
%ADD22R,0.0630X0.0236*%
%ADD23C,0.0050*%
%ADD24C,0.0580*%
D10*
X005156Y007610D03*
X005156Y008110D03*
X005156Y008610D03*
X005156Y009110D03*
X007204Y009110D03*
X007204Y008610D03*
X007204Y008110D03*
X007204Y007610D03*
D11*
X003960Y000760D03*
X004960Y000760D03*
X009580Y003860D03*
X007680Y004360D03*
X006680Y004360D03*
X005680Y004360D03*
X005680Y005360D03*
X007680Y005360D03*
X008780Y005860D03*
X007680Y006360D03*
X008680Y007360D03*
X009680Y007360D03*
X008680Y008360D03*
X008680Y009360D03*
X009180Y009860D03*
X010180Y009860D03*
X005680Y010360D03*
X004680Y010360D03*
X030660Y004860D03*
X032660Y004860D03*
X032680Y005860D03*
X033680Y005860D03*
X036480Y006640D03*
X037930Y006830D03*
X038930Y006830D03*
X038430Y007330D03*
X037430Y007330D03*
X036480Y007640D03*
X035320Y007860D03*
X033680Y007860D03*
X032680Y007860D03*
X031680Y007860D03*
X033680Y008860D03*
X035320Y008860D03*
X035180Y009860D03*
X034180Y009860D03*
X033180Y006860D03*
X032180Y006860D03*
X032180Y003680D03*
X034180Y003680D03*
X032180Y002560D03*
X031180Y002560D03*
D12*
X031310Y001439D03*
X032097Y001439D03*
X029735Y001439D03*
X028948Y001439D03*
X028160Y001439D03*
X027373Y001439D03*
X026586Y001439D03*
X025798Y001439D03*
X025011Y001439D03*
X024223Y001439D03*
X023436Y001439D03*
X022649Y001439D03*
X021861Y001439D03*
X021074Y001439D03*
X020286Y001439D03*
X019499Y001439D03*
X018711Y001439D03*
X017924Y001439D03*
X017137Y001439D03*
X016349Y001439D03*
X015562Y001439D03*
X014774Y001439D03*
X013987Y001439D03*
X013200Y001439D03*
X012412Y001439D03*
X011625Y001439D03*
X010050Y001439D03*
X009263Y001439D03*
X008780Y003860D03*
X009580Y005860D03*
D13*
X001880Y001860D03*
X001880Y009960D03*
X037980Y009960D03*
X037980Y001860D03*
D14*
X021680Y005660D03*
X016680Y005360D03*
X011680Y005360D03*
X014180Y003860D03*
X019180Y003860D03*
D15*
X019180Y004860D03*
X016680Y006360D03*
X011680Y006360D03*
X014180Y004860D03*
X021680Y007060D03*
D16*
X020180Y007860D03*
X019180Y008860D03*
X016180Y007860D03*
X014980Y007660D03*
X014080Y008660D03*
X015180Y008860D03*
X010980Y007660D03*
X010080Y008660D03*
X017680Y010360D03*
X021680Y010360D03*
D17*
X004680Y003029D03*
X004680Y001691D03*
D18*
X002580Y004680D03*
X002580Y007240D03*
D19*
X035105Y005420D03*
X035105Y004420D03*
X035105Y003420D03*
D20*
X030180Y009860D03*
X029180Y009860D03*
X028180Y009860D03*
X027180Y009860D03*
X026180Y009860D03*
X025180Y009860D03*
X024180Y009860D03*
X024180Y010860D03*
X025180Y010860D03*
X026180Y010860D03*
X027180Y010860D03*
X028180Y010860D03*
X029180Y010860D03*
X030180Y010860D03*
X014380Y010860D03*
X013380Y010860D03*
X012380Y010860D03*
X011380Y010860D03*
X011380Y009860D03*
X012380Y009860D03*
X013380Y009860D03*
X014380Y009860D03*
D21*
X008475Y010691D03*
X006507Y006360D03*
X008082Y002029D03*
X033278Y002029D03*
X034853Y006360D03*
X032885Y010691D03*
D22*
G36*
X027375Y008769D02*
X027820Y009214D01*
X027987Y009047D01*
X027542Y008602D01*
X027375Y008769D01*
G37*
G36*
X027598Y008546D02*
X028043Y008991D01*
X028210Y008824D01*
X027765Y008379D01*
X027598Y008546D01*
G37*
G36*
X027821Y008324D02*
X028266Y008769D01*
X028433Y008602D01*
X027988Y008157D01*
X027821Y008324D01*
G37*
G36*
X028043Y008101D02*
X028488Y008546D01*
X028655Y008379D01*
X028210Y007934D01*
X028043Y008101D01*
G37*
G36*
X028266Y007878D02*
X028711Y008323D01*
X028878Y008156D01*
X028433Y007711D01*
X028266Y007878D01*
G37*
G36*
X028489Y007656D02*
X028934Y008101D01*
X029101Y007934D01*
X028656Y007489D01*
X028489Y007656D01*
G37*
G36*
X028711Y007433D02*
X029156Y007878D01*
X029323Y007711D01*
X028878Y007266D01*
X028711Y007433D01*
G37*
G36*
X028934Y007210D02*
X029379Y007655D01*
X029546Y007488D01*
X029101Y007043D01*
X028934Y007210D01*
G37*
G36*
X029157Y006988D02*
X029602Y007433D01*
X029769Y007266D01*
X029324Y006821D01*
X029157Y006988D01*
G37*
G36*
X029379Y006765D02*
X029824Y007210D01*
X029991Y007043D01*
X029546Y006598D01*
X029379Y006765D01*
G37*
G36*
X029602Y006542D02*
X030047Y006987D01*
X030214Y006820D01*
X029769Y006375D01*
X029602Y006542D01*
G37*
G36*
X029769Y005985D02*
X030214Y005540D01*
X030047Y005373D01*
X029602Y005818D01*
X029769Y005985D01*
G37*
G36*
X029546Y005762D02*
X029991Y005317D01*
X029824Y005150D01*
X029379Y005595D01*
X029546Y005762D01*
G37*
G36*
X029324Y005539D02*
X029769Y005094D01*
X029602Y004927D01*
X029157Y005372D01*
X029324Y005539D01*
G37*
G36*
X029101Y005317D02*
X029546Y004872D01*
X029379Y004705D01*
X028934Y005150D01*
X029101Y005317D01*
G37*
G36*
X028878Y005094D02*
X029323Y004649D01*
X029156Y004482D01*
X028711Y004927D01*
X028878Y005094D01*
G37*
G36*
X028656Y004871D02*
X029101Y004426D01*
X028934Y004259D01*
X028489Y004704D01*
X028656Y004871D01*
G37*
G36*
X028433Y004649D02*
X028878Y004204D01*
X028711Y004037D01*
X028266Y004482D01*
X028433Y004649D01*
G37*
G36*
X028210Y004426D02*
X028655Y003981D01*
X028488Y003814D01*
X028043Y004259D01*
X028210Y004426D01*
G37*
G36*
X027988Y004203D02*
X028433Y003758D01*
X028266Y003591D01*
X027821Y004036D01*
X027988Y004203D01*
G37*
G36*
X027765Y003981D02*
X028210Y003536D01*
X028043Y003369D01*
X027598Y003814D01*
X027765Y003981D01*
G37*
G36*
X026762Y003814D02*
X026317Y003369D01*
X026150Y003536D01*
X026595Y003981D01*
X026762Y003814D01*
G37*
G36*
X026539Y004036D02*
X026094Y003591D01*
X025927Y003758D01*
X026372Y004203D01*
X026539Y004036D01*
G37*
G36*
X026317Y004259D02*
X025872Y003814D01*
X025705Y003981D01*
X026150Y004426D01*
X026317Y004259D01*
G37*
G36*
X026094Y004482D02*
X025649Y004037D01*
X025482Y004204D01*
X025927Y004649D01*
X026094Y004482D01*
G37*
G36*
X025871Y004704D02*
X025426Y004259D01*
X025259Y004426D01*
X025704Y004871D01*
X025871Y004704D01*
G37*
G36*
X025649Y004927D02*
X025204Y004482D01*
X025037Y004649D01*
X025482Y005094D01*
X025649Y004927D01*
G37*
G36*
X025426Y005150D02*
X024981Y004705D01*
X024814Y004872D01*
X025259Y005317D01*
X025426Y005150D01*
G37*
G36*
X025203Y005372D02*
X024758Y004927D01*
X024591Y005094D01*
X025036Y005539D01*
X025203Y005372D01*
G37*
G36*
X024981Y005595D02*
X024536Y005150D01*
X024369Y005317D01*
X024814Y005762D01*
X024981Y005595D01*
G37*
G36*
X024758Y005818D02*
X024313Y005373D01*
X024146Y005540D01*
X024591Y005985D01*
X024758Y005818D01*
G37*
G36*
X024591Y006375D02*
X024146Y006820D01*
X024313Y006987D01*
X024758Y006542D01*
X024591Y006375D01*
G37*
G36*
X024814Y006598D02*
X024369Y007043D01*
X024536Y007210D01*
X024981Y006765D01*
X024814Y006598D01*
G37*
G36*
X025036Y006821D02*
X024591Y007266D01*
X024758Y007433D01*
X025203Y006988D01*
X025036Y006821D01*
G37*
G36*
X025259Y007043D02*
X024814Y007488D01*
X024981Y007655D01*
X025426Y007210D01*
X025259Y007043D01*
G37*
G36*
X025482Y007266D02*
X025037Y007711D01*
X025204Y007878D01*
X025649Y007433D01*
X025482Y007266D01*
G37*
G36*
X025704Y007489D02*
X025259Y007934D01*
X025426Y008101D01*
X025871Y007656D01*
X025704Y007489D01*
G37*
G36*
X025927Y007711D02*
X025482Y008156D01*
X025649Y008323D01*
X026094Y007878D01*
X025927Y007711D01*
G37*
G36*
X026150Y007934D02*
X025705Y008379D01*
X025872Y008546D01*
X026317Y008101D01*
X026150Y007934D01*
G37*
G36*
X026372Y008157D02*
X025927Y008602D01*
X026094Y008769D01*
X026539Y008324D01*
X026372Y008157D01*
G37*
G36*
X026595Y008379D02*
X026150Y008824D01*
X026317Y008991D01*
X026762Y008546D01*
X026595Y008379D01*
G37*
G36*
X026818Y008602D02*
X026373Y009047D01*
X026540Y009214D01*
X026985Y008769D01*
X026818Y008602D01*
G37*
G36*
X026985Y003591D02*
X026540Y003146D01*
X026373Y003313D01*
X026818Y003758D01*
X026985Y003591D01*
G37*
G36*
X027542Y003758D02*
X027987Y003313D01*
X027820Y003146D01*
X027375Y003591D01*
X027542Y003758D01*
G37*
D23*
X036112Y001068D02*
X036180Y001074D01*
X036248Y001068D01*
X036315Y001050D01*
X036377Y001021D01*
X036433Y000982D01*
X036482Y000933D01*
X036521Y000877D01*
X036550Y000815D01*
X036568Y000748D01*
X036574Y000680D01*
X036568Y000612D01*
X036550Y000545D01*
X036521Y000483D01*
X035839Y000483D01*
X035810Y000545D01*
X035792Y000612D01*
X035786Y000680D01*
X035792Y000748D01*
X035810Y000815D01*
X035839Y000877D01*
X035878Y000933D01*
X035927Y000982D01*
X035983Y001021D01*
X036045Y001050D01*
X036112Y001068D01*
X036102Y001065D02*
X036258Y001065D01*
X036383Y001017D02*
X035977Y001017D01*
X035913Y000968D02*
X036447Y000968D01*
X036491Y000920D02*
X035869Y000920D01*
X035836Y000871D02*
X036524Y000871D01*
X036546Y000823D02*
X035814Y000823D01*
X035799Y000774D02*
X036561Y000774D01*
X036570Y000726D02*
X035790Y000726D01*
X035787Y000677D02*
X036573Y000677D01*
X036569Y000629D02*
X035791Y000629D01*
X035801Y000580D02*
X036559Y000580D01*
X036544Y000532D02*
X035816Y000532D01*
X035839Y000483D02*
X035878Y000427D01*
X035927Y000378D01*
X035983Y000339D01*
X036045Y000310D01*
X036112Y000292D01*
X036180Y000286D01*
X036248Y000292D01*
X036315Y000310D01*
X036377Y000339D01*
X036433Y000378D01*
X036482Y000427D01*
X036521Y000483D01*
X036487Y000435D02*
X035873Y000435D01*
X035919Y000386D02*
X036441Y000386D01*
X036374Y000338D02*
X035986Y000338D01*
X036148Y000289D02*
X036212Y000289D01*
X003877Y010839D02*
X003815Y010810D01*
X003748Y010792D01*
X003680Y010786D01*
X003612Y010792D01*
X003545Y010810D01*
X003483Y010839D01*
X003427Y010878D01*
X003378Y010927D01*
X003339Y010983D01*
X003310Y011045D01*
X003292Y011112D01*
X003286Y011180D01*
X003292Y011248D01*
X003310Y011315D01*
X003339Y011377D01*
X003378Y011433D01*
X003427Y011482D01*
X003483Y011521D01*
X003545Y011550D01*
X003612Y011568D01*
X003680Y011574D01*
X003748Y011568D01*
X003815Y011550D01*
X003877Y011521D01*
X003933Y011482D01*
X003982Y011433D01*
X004021Y011377D01*
X004050Y011315D01*
X004068Y011248D01*
X004074Y011180D01*
X004068Y011112D01*
X004050Y011045D01*
X004021Y010983D01*
X003982Y010927D01*
X003933Y010878D01*
X003877Y010839D01*
X003910Y010862D02*
X003450Y010862D01*
X003395Y010911D02*
X003965Y010911D01*
X004004Y010959D02*
X003356Y010959D01*
X003328Y011008D02*
X004032Y011008D01*
X004053Y011056D02*
X003307Y011056D01*
X003294Y011105D02*
X004066Y011105D01*
X004071Y011153D02*
X003289Y011153D01*
X003288Y011202D02*
X004072Y011202D01*
X004067Y011250D02*
X003293Y011250D01*
X003306Y011299D02*
X004054Y011299D01*
X004035Y011347D02*
X003325Y011347D01*
X003352Y011396D02*
X004008Y011396D01*
X003971Y011444D02*
X003389Y011444D01*
X003443Y011493D02*
X003917Y011493D01*
X003834Y011541D02*
X003526Y011541D01*
X003538Y010814D02*
X003822Y010814D01*
D24*
X003700Y007900D03*
X010100Y006460D03*
X014100Y005980D03*
X015220Y005340D03*
X011860Y003900D03*
X010260Y002300D03*
X022900Y004860D03*
X023860Y006300D03*
X017180Y007860D03*
X035060Y001500D03*
M02*
