%
M48
M72
T01C0.0200
T02C0.0236
T03C0.0300
T04C0.0315
T05C0.0320
T06C0.0360
T07C0.0394
T08C0.0400
T09C0.0440
T10C0.1299
%
T01
X5780Y2620
X9860Y3260
X10980Y4360
X19700Y6140
X23700Y5500
X27860Y6940
X27700Y7420
X26420Y7420
X27540Y7900
X29940Y7660
X30260Y8140
X31140Y7100
X26680Y9500
X22440Y10620
X20180Y10140
X20820Y9500
X20020Y8860
X17780Y9340
T02
X26420Y4700
X27060Y4700
X27700Y4620
T03
X22900Y4860
X23860Y6300
X17180Y7860
X14100Y5980
X15220Y5340
X11860Y3900
X10260Y2300
X10100Y6460
X3700Y7900
X35060Y1500
T04
X4680Y1691
X4680Y3029
T05
X3960Y760
X4960Y760
X9263Y1439
X10050Y1439
X11625Y1439
X12412Y1439
X13200Y1439
X13987Y1439
X14774Y1439
X15562Y1439
X16349Y1439
X17137Y1439
X17924Y1439
X18711Y1439
X19499Y1439
X20286Y1439
X21074Y1439
X21861Y1439
X22649Y1439
X23436Y1439
X24223Y1439
X25011Y1439
X25798Y1439
X26586Y1439
X27373Y1439
X28160Y1439
X28948Y1439
X29735Y1439
X31310Y1439
X32097Y1439
X32180Y2560
X31180Y2560
X32180Y3680
X34180Y3680
X32660Y4860
X30660Y4860
X32680Y5860
X33680Y5860
X36480Y6640
X37930Y6830
X38930Y6830
X38430Y7330
X37430Y7330
X36480Y7640
X35320Y7860
X33680Y7860
X32680Y7860
X31680Y7860
X33680Y8860
X35320Y8860
X35180Y9860
X34180Y9860
X33180Y6860
X32180Y6860
X21680Y7060
X21680Y5660
X19180Y4860
X16680Y5360
X14180Y4860
X11680Y5360
X9580Y5860
X8780Y5860
X7680Y5360
X5680Y5360
X7680Y6360
X8680Y7360
X9680Y7360
X11680Y6360
X16680Y6360
X8680Y8360
X8680Y9360
X9180Y9860
X10180Y9860
X5680Y10360
X4680Y10360
X5680Y4360
X6680Y4360
X7680Y4360
X8780Y3860
X9580Y3860
X14180Y3860
X19180Y3860
T06
X14380Y9860
X13380Y9860
X12380Y9860
X11380Y9860
X11380Y10860
X12380Y10860
X13380Y10860
X14380Y10860
X24180Y10860
X25180Y10860
X26180Y10860
X27180Y10860
X28180Y10860
X29180Y10860
X30180Y10860
X30180Y9860
X29180Y9860
X28180Y9860
X27180Y9860
X26180Y9860
X25180Y9860
X24180Y9860
T07
X32885Y10691
X34853Y6360
X35105Y5420
X35105Y4420
X35105Y3420
X33278Y2029
X8082Y2029
X6507Y6360
X8475Y10691
T08
X2580Y7240
X2580Y4680
T09
X10980Y7660
X10080Y8660
X14080Y8660
X15180Y8860
X16180Y7860
X14980Y7660
X19180Y8860
X20180Y7860
X21680Y10360
X17680Y10360
T10
X1880Y9960
X1880Y1860
X37980Y1860
X37980Y9960
M30
