G75*
G70*
%OFA0B0*%
%FSLAX24Y24*%
%IPPOS*%
%LPD*%
%AMOC8*
5,1,8,0,0,1.08239X$1,22.5*
%
%ADD10C,0.0000*%
%ADD11OC8,0.0560*%
%ADD12C,0.0560*%
%ADD13OC8,0.0630*%
%ADD14C,0.0630*%
%ADD15C,0.0680*%
%ADD16C,0.0555*%
%ADD17OC8,0.1000*%
%ADD18C,0.0660*%
%ADD19OC8,0.0600*%
%ADD20R,0.0760X0.0760*%
%ADD21C,0.0394*%
%ADD22C,0.0300*%
%ADD23C,0.0400*%
%ADD24C,0.0500*%
%ADD25C,0.0200*%
%ADD26C,0.0400*%
%ADD27C,0.0160*%
%ADD28C,0.0436*%
D10*
X001680Y000180D02*
X038180Y000180D01*
X038256Y000182D01*
X038332Y000188D01*
X038407Y000197D01*
X038482Y000211D01*
X038556Y000228D01*
X038629Y000249D01*
X038701Y000273D01*
X038772Y000302D01*
X038841Y000333D01*
X038908Y000368D01*
X038973Y000407D01*
X039037Y000449D01*
X039098Y000494D01*
X039157Y000542D01*
X039213Y000593D01*
X039267Y000647D01*
X039318Y000703D01*
X039366Y000762D01*
X039411Y000823D01*
X039453Y000887D01*
X039492Y000952D01*
X039527Y001019D01*
X039558Y001088D01*
X039587Y001159D01*
X039611Y001231D01*
X039632Y001304D01*
X039649Y001378D01*
X039663Y001453D01*
X039672Y001528D01*
X039678Y001604D01*
X039680Y001680D01*
X039680Y010176D01*
X039678Y010252D01*
X039672Y010328D01*
X039663Y010403D01*
X039649Y010478D01*
X039632Y010552D01*
X039611Y010625D01*
X039587Y010697D01*
X039558Y010768D01*
X039527Y010837D01*
X039492Y010904D01*
X039453Y010969D01*
X039411Y011033D01*
X039366Y011094D01*
X039318Y011153D01*
X039267Y011209D01*
X039213Y011263D01*
X039157Y011314D01*
X039098Y011362D01*
X039037Y011407D01*
X038973Y011449D01*
X038908Y011488D01*
X038841Y011523D01*
X038772Y011554D01*
X038701Y011583D01*
X038629Y011607D01*
X038556Y011628D01*
X038482Y011645D01*
X038407Y011659D01*
X038332Y011668D01*
X038256Y011674D01*
X038180Y011676D01*
X001680Y011676D01*
X001604Y011674D01*
X001528Y011668D01*
X001453Y011659D01*
X001378Y011645D01*
X001304Y011628D01*
X001231Y011607D01*
X001159Y011583D01*
X001088Y011554D01*
X001019Y011523D01*
X000952Y011488D01*
X000887Y011449D01*
X000823Y011407D01*
X000762Y011362D01*
X000703Y011314D01*
X000647Y011263D01*
X000593Y011209D01*
X000542Y011153D01*
X000494Y011094D01*
X000449Y011033D01*
X000407Y010969D01*
X000368Y010904D01*
X000333Y010837D01*
X000302Y010768D01*
X000273Y010697D01*
X000249Y010625D01*
X000228Y010552D01*
X000211Y010478D01*
X000197Y010403D01*
X000188Y010328D01*
X000182Y010252D01*
X000180Y010176D01*
X000180Y001680D01*
X000182Y001604D01*
X000188Y001528D01*
X000197Y001453D01*
X000211Y001378D01*
X000228Y001304D01*
X000249Y001231D01*
X000273Y001159D01*
X000302Y001088D01*
X000333Y001019D01*
X000368Y000952D01*
X000407Y000887D01*
X000449Y000823D01*
X000494Y000762D01*
X000542Y000703D01*
X000593Y000647D01*
X000647Y000593D01*
X000703Y000542D01*
X000762Y000494D01*
X000823Y000449D01*
X000887Y000407D01*
X000952Y000368D01*
X001019Y000333D01*
X001088Y000302D01*
X001159Y000273D01*
X001231Y000249D01*
X001304Y000228D01*
X001378Y000211D01*
X001453Y000197D01*
X001528Y000188D01*
X001604Y000182D01*
X001680Y000180D01*
X001230Y001860D02*
X001232Y001910D01*
X001238Y001960D01*
X001248Y002010D01*
X001261Y002058D01*
X001278Y002106D01*
X001299Y002152D01*
X001323Y002196D01*
X001351Y002238D01*
X001382Y002278D01*
X001416Y002315D01*
X001453Y002350D01*
X001492Y002381D01*
X001533Y002410D01*
X001577Y002435D01*
X001623Y002457D01*
X001670Y002475D01*
X001718Y002489D01*
X001767Y002500D01*
X001817Y002507D01*
X001867Y002510D01*
X001918Y002509D01*
X001968Y002504D01*
X002018Y002495D01*
X002066Y002483D01*
X002114Y002466D01*
X002160Y002446D01*
X002205Y002423D01*
X002248Y002396D01*
X002288Y002366D01*
X002326Y002333D01*
X002361Y002297D01*
X002394Y002258D01*
X002423Y002217D01*
X002449Y002174D01*
X002472Y002129D01*
X002491Y002082D01*
X002506Y002034D01*
X002518Y001985D01*
X002526Y001935D01*
X002530Y001885D01*
X002530Y001835D01*
X002526Y001785D01*
X002518Y001735D01*
X002506Y001686D01*
X002491Y001638D01*
X002472Y001591D01*
X002449Y001546D01*
X002423Y001503D01*
X002394Y001462D01*
X002361Y001423D01*
X002326Y001387D01*
X002288Y001354D01*
X002248Y001324D01*
X002205Y001297D01*
X002160Y001274D01*
X002114Y001254D01*
X002066Y001237D01*
X002018Y001225D01*
X001968Y001216D01*
X001918Y001211D01*
X001867Y001210D01*
X001817Y001213D01*
X001767Y001220D01*
X001718Y001231D01*
X001670Y001245D01*
X001623Y001263D01*
X001577Y001285D01*
X001533Y001310D01*
X001492Y001339D01*
X001453Y001370D01*
X001416Y001405D01*
X001382Y001442D01*
X001351Y001482D01*
X001323Y001524D01*
X001299Y001568D01*
X001278Y001614D01*
X001261Y001662D01*
X001248Y001710D01*
X001238Y001760D01*
X001232Y001810D01*
X001230Y001860D01*
X001230Y009960D02*
X001232Y010010D01*
X001238Y010060D01*
X001248Y010110D01*
X001261Y010158D01*
X001278Y010206D01*
X001299Y010252D01*
X001323Y010296D01*
X001351Y010338D01*
X001382Y010378D01*
X001416Y010415D01*
X001453Y010450D01*
X001492Y010481D01*
X001533Y010510D01*
X001577Y010535D01*
X001623Y010557D01*
X001670Y010575D01*
X001718Y010589D01*
X001767Y010600D01*
X001817Y010607D01*
X001867Y010610D01*
X001918Y010609D01*
X001968Y010604D01*
X002018Y010595D01*
X002066Y010583D01*
X002114Y010566D01*
X002160Y010546D01*
X002205Y010523D01*
X002248Y010496D01*
X002288Y010466D01*
X002326Y010433D01*
X002361Y010397D01*
X002394Y010358D01*
X002423Y010317D01*
X002449Y010274D01*
X002472Y010229D01*
X002491Y010182D01*
X002506Y010134D01*
X002518Y010085D01*
X002526Y010035D01*
X002530Y009985D01*
X002530Y009935D01*
X002526Y009885D01*
X002518Y009835D01*
X002506Y009786D01*
X002491Y009738D01*
X002472Y009691D01*
X002449Y009646D01*
X002423Y009603D01*
X002394Y009562D01*
X002361Y009523D01*
X002326Y009487D01*
X002288Y009454D01*
X002248Y009424D01*
X002205Y009397D01*
X002160Y009374D01*
X002114Y009354D01*
X002066Y009337D01*
X002018Y009325D01*
X001968Y009316D01*
X001918Y009311D01*
X001867Y009310D01*
X001817Y009313D01*
X001767Y009320D01*
X001718Y009331D01*
X001670Y009345D01*
X001623Y009363D01*
X001577Y009385D01*
X001533Y009410D01*
X001492Y009439D01*
X001453Y009470D01*
X001416Y009505D01*
X001382Y009542D01*
X001351Y009582D01*
X001323Y009624D01*
X001299Y009668D01*
X001278Y009714D01*
X001261Y009762D01*
X001248Y009810D01*
X001238Y009860D01*
X001232Y009910D01*
X001230Y009960D01*
X037330Y009960D02*
X037332Y010010D01*
X037338Y010060D01*
X037348Y010110D01*
X037361Y010158D01*
X037378Y010206D01*
X037399Y010252D01*
X037423Y010296D01*
X037451Y010338D01*
X037482Y010378D01*
X037516Y010415D01*
X037553Y010450D01*
X037592Y010481D01*
X037633Y010510D01*
X037677Y010535D01*
X037723Y010557D01*
X037770Y010575D01*
X037818Y010589D01*
X037867Y010600D01*
X037917Y010607D01*
X037967Y010610D01*
X038018Y010609D01*
X038068Y010604D01*
X038118Y010595D01*
X038166Y010583D01*
X038214Y010566D01*
X038260Y010546D01*
X038305Y010523D01*
X038348Y010496D01*
X038388Y010466D01*
X038426Y010433D01*
X038461Y010397D01*
X038494Y010358D01*
X038523Y010317D01*
X038549Y010274D01*
X038572Y010229D01*
X038591Y010182D01*
X038606Y010134D01*
X038618Y010085D01*
X038626Y010035D01*
X038630Y009985D01*
X038630Y009935D01*
X038626Y009885D01*
X038618Y009835D01*
X038606Y009786D01*
X038591Y009738D01*
X038572Y009691D01*
X038549Y009646D01*
X038523Y009603D01*
X038494Y009562D01*
X038461Y009523D01*
X038426Y009487D01*
X038388Y009454D01*
X038348Y009424D01*
X038305Y009397D01*
X038260Y009374D01*
X038214Y009354D01*
X038166Y009337D01*
X038118Y009325D01*
X038068Y009316D01*
X038018Y009311D01*
X037967Y009310D01*
X037917Y009313D01*
X037867Y009320D01*
X037818Y009331D01*
X037770Y009345D01*
X037723Y009363D01*
X037677Y009385D01*
X037633Y009410D01*
X037592Y009439D01*
X037553Y009470D01*
X037516Y009505D01*
X037482Y009542D01*
X037451Y009582D01*
X037423Y009624D01*
X037399Y009668D01*
X037378Y009714D01*
X037361Y009762D01*
X037348Y009810D01*
X037338Y009860D01*
X037332Y009910D01*
X037330Y009960D01*
X037330Y001860D02*
X037332Y001910D01*
X037338Y001960D01*
X037348Y002010D01*
X037361Y002058D01*
X037378Y002106D01*
X037399Y002152D01*
X037423Y002196D01*
X037451Y002238D01*
X037482Y002278D01*
X037516Y002315D01*
X037553Y002350D01*
X037592Y002381D01*
X037633Y002410D01*
X037677Y002435D01*
X037723Y002457D01*
X037770Y002475D01*
X037818Y002489D01*
X037867Y002500D01*
X037917Y002507D01*
X037967Y002510D01*
X038018Y002509D01*
X038068Y002504D01*
X038118Y002495D01*
X038166Y002483D01*
X038214Y002466D01*
X038260Y002446D01*
X038305Y002423D01*
X038348Y002396D01*
X038388Y002366D01*
X038426Y002333D01*
X038461Y002297D01*
X038494Y002258D01*
X038523Y002217D01*
X038549Y002174D01*
X038572Y002129D01*
X038591Y002082D01*
X038606Y002034D01*
X038618Y001985D01*
X038626Y001935D01*
X038630Y001885D01*
X038630Y001835D01*
X038626Y001785D01*
X038618Y001735D01*
X038606Y001686D01*
X038591Y001638D01*
X038572Y001591D01*
X038549Y001546D01*
X038523Y001503D01*
X038494Y001462D01*
X038461Y001423D01*
X038426Y001387D01*
X038388Y001354D01*
X038348Y001324D01*
X038305Y001297D01*
X038260Y001274D01*
X038214Y001254D01*
X038166Y001237D01*
X038118Y001225D01*
X038068Y001216D01*
X038018Y001211D01*
X037967Y001210D01*
X037917Y001213D01*
X037867Y001220D01*
X037818Y001231D01*
X037770Y001245D01*
X037723Y001263D01*
X037677Y001285D01*
X037633Y001310D01*
X037592Y001339D01*
X037553Y001370D01*
X037516Y001405D01*
X037482Y001442D01*
X037451Y001482D01*
X037423Y001524D01*
X037399Y001568D01*
X037378Y001614D01*
X037361Y001662D01*
X037348Y001710D01*
X037338Y001760D01*
X037332Y001810D01*
X037330Y001860D01*
D11*
X032180Y002560D03*
X031180Y002560D03*
X032180Y003680D03*
X034180Y003680D03*
X032660Y004860D03*
X030660Y004860D03*
X032680Y005860D03*
X033680Y005860D03*
X036480Y006640D03*
X037930Y006830D03*
X038930Y006830D03*
X038430Y007330D03*
X037430Y007330D03*
X036480Y007640D03*
X035320Y007860D03*
X033680Y007860D03*
X032680Y007860D03*
X031680Y007860D03*
X033680Y008860D03*
X035320Y008860D03*
X035180Y009860D03*
X034180Y009860D03*
X033180Y006860D03*
X032180Y006860D03*
X010180Y009860D03*
X009180Y009860D03*
X008680Y009360D03*
X008680Y008360D03*
X008680Y007360D03*
X009680Y007360D03*
X007680Y006360D03*
X008780Y005860D03*
X007680Y005360D03*
X005680Y005360D03*
X005680Y004360D03*
X006680Y004360D03*
X007680Y004360D03*
X009580Y003860D03*
X004960Y000760D03*
X003960Y000760D03*
X004680Y010360D03*
X005680Y010360D03*
D12*
X009580Y005860D03*
X008780Y003860D03*
X009263Y001439D03*
X010050Y001439D03*
X011625Y001439D03*
X012412Y001439D03*
X013200Y001439D03*
X013987Y001439D03*
X014774Y001439D03*
X015562Y001439D03*
X016349Y001439D03*
X017137Y001439D03*
X017924Y001439D03*
X018711Y001439D03*
X019499Y001439D03*
X020286Y001439D03*
X021074Y001439D03*
X021861Y001439D03*
X022649Y001439D03*
X023436Y001439D03*
X024223Y001439D03*
X025011Y001439D03*
X025798Y001439D03*
X026586Y001439D03*
X027373Y001439D03*
X028160Y001439D03*
X028948Y001439D03*
X029735Y001439D03*
X031310Y001439D03*
X032097Y001439D03*
D13*
X019180Y003860D03*
X016680Y005360D03*
X011680Y005360D03*
X014180Y003860D03*
X021680Y005660D03*
D14*
X019180Y004860D03*
X016680Y006360D03*
X011680Y006360D03*
X014180Y004860D03*
X021680Y007060D03*
D15*
X020180Y007860D03*
X019180Y008860D03*
X016180Y007860D03*
X014980Y007660D03*
X014080Y008660D03*
X015180Y008860D03*
X010980Y007660D03*
X010080Y008660D03*
X017680Y010360D03*
X021680Y010360D03*
D16*
X004680Y003029D03*
X004680Y001691D03*
D17*
X002580Y004680D03*
X002580Y007240D03*
D18*
X035105Y005420D03*
X035105Y004420D03*
X035105Y003420D03*
D19*
X030180Y009860D03*
X029180Y009860D03*
X028180Y009860D03*
X027180Y009860D03*
X026180Y009860D03*
X025180Y009860D03*
X024180Y009860D03*
X024180Y010860D03*
X025180Y010860D03*
X026180Y010860D03*
X027180Y010860D03*
X028180Y010860D03*
X029180Y010860D03*
X030180Y010860D03*
X014380Y010860D03*
X013380Y010860D03*
X012380Y010860D03*
X011380Y010860D03*
X011380Y009860D03*
X012380Y009860D03*
X013380Y009860D03*
X014380Y009860D03*
D20*
X008475Y010691D03*
X006507Y006360D03*
X008082Y002029D03*
X033278Y002029D03*
X034853Y006360D03*
X032885Y010691D03*
D21*
X003680Y011180D03*
X036180Y000680D03*
D22*
X035060Y001500D02*
X034360Y000800D01*
X031120Y000800D01*
X030680Y001240D01*
X030680Y001980D01*
X030880Y002180D01*
X031260Y002560D01*
X031180Y002560D01*
X031180Y004280D01*
X030660Y004800D01*
X030660Y004860D01*
X030100Y005420D01*
X028740Y005420D01*
X028660Y005420D01*
X028740Y005420D01*
X028660Y005420D01*
X028740Y005420D01*
X028660Y005420D01*
X025780Y005420D01*
X022820Y002460D01*
X022260Y002460D01*
X010420Y002460D01*
X010260Y002300D01*
X010100Y002780D02*
X009620Y002780D01*
X009300Y003100D01*
X009300Y003580D01*
X009580Y003860D01*
X009580Y005060D01*
X008780Y005860D01*
X008680Y005960D01*
X008680Y007360D01*
X009580Y007260D02*
X009580Y005860D01*
X010100Y006460D02*
X010260Y006300D01*
X010260Y004380D01*
X010740Y003900D01*
X011860Y003900D01*
X011900Y003860D01*
X014180Y003860D01*
X019180Y003860D01*
X019700Y002940D02*
X021040Y004280D01*
X021780Y004280D01*
X021680Y004380D01*
X021680Y005660D01*
X022740Y006490D02*
X023700Y005530D01*
X023700Y005500D01*
X022900Y004860D02*
X022320Y004280D01*
X021780Y004280D01*
X019180Y004860D02*
X019180Y004900D01*
X018580Y005500D01*
X018580Y008860D01*
X018580Y009460D01*
X017680Y010360D01*
X018560Y011000D02*
X016040Y011000D01*
X015900Y010860D01*
X014380Y010860D01*
X013380Y010860D01*
X012380Y010860D01*
X011380Y010860D01*
X014380Y009860D02*
X014380Y009660D01*
X015180Y008860D01*
X016180Y008860D01*
X017180Y007860D01*
X017180Y006860D01*
X016680Y006360D01*
X014980Y006060D02*
X014180Y005260D01*
X014180Y004860D01*
X015220Y005340D02*
X015240Y005360D01*
X016680Y005360D01*
X014980Y006060D02*
X014980Y007660D01*
X015980Y007660D01*
X016180Y007860D01*
X014080Y008660D02*
X013080Y007660D01*
X012580Y007660D01*
X011680Y007660D01*
X011680Y006360D01*
X012300Y005980D02*
X011680Y005360D01*
X012300Y005980D02*
X014100Y005980D01*
X009680Y007360D02*
X009680Y008680D01*
X009500Y008860D01*
X009280Y008860D01*
X009080Y008860D01*
X009680Y008680D02*
X010060Y008680D01*
X010080Y008660D01*
X008640Y008360D02*
X008100Y007820D01*
X008100Y006860D01*
X008210Y006780D01*
X008210Y004890D01*
X007680Y004360D01*
X007680Y003240D01*
X007300Y002860D01*
X007300Y002220D01*
X007300Y001340D01*
X007640Y001000D01*
X007860Y001000D01*
X008180Y001000D01*
X008800Y001000D01*
X008820Y001020D01*
X008844Y001020D01*
X009263Y001439D01*
X010050Y001439D01*
X006260Y002380D02*
X005940Y002060D01*
X005460Y002060D01*
X005300Y002220D01*
X005220Y002300D01*
X004420Y002300D01*
X004020Y001900D01*
X004020Y000820D01*
X003960Y000760D01*
X006260Y002380D02*
X006260Y003740D01*
X005680Y004320D01*
X005680Y004360D01*
X002800Y007240D01*
X002580Y007240D01*
X003700Y007900D02*
X004660Y008860D01*
X005620Y008860D01*
X008340Y008860D01*
X005620Y008860D02*
X005620Y010300D01*
X005680Y010360D01*
X010980Y007660D02*
X011680Y007660D01*
X018580Y008860D02*
X019180Y008860D01*
X020980Y008580D02*
X018560Y011000D01*
X021680Y010360D02*
X021680Y007060D01*
X021270Y006490D02*
X020980Y006780D01*
X020980Y008580D01*
X023380Y009980D02*
X023780Y010360D01*
X023380Y009980D02*
X023380Y006780D01*
X023860Y006300D01*
X022740Y006490D02*
X021300Y006490D01*
X021270Y006490D01*
X029680Y009360D02*
X029940Y009100D01*
X030420Y009100D01*
X030580Y008940D01*
X030820Y008700D01*
X030820Y008300D01*
X030820Y007900D01*
X030660Y007740D01*
X030360Y007440D01*
X030360Y006720D01*
X031220Y005860D01*
X032680Y005860D01*
X033180Y006860D02*
X033180Y007360D01*
X032680Y007860D01*
X032660Y008860D02*
X033680Y008860D01*
X032660Y008860D02*
X030660Y010860D01*
X030180Y010860D01*
X029680Y010360D02*
X029180Y010860D01*
X037100Y004420D02*
X038420Y005740D01*
X037100Y004420D02*
X035105Y004420D01*
X019700Y002940D02*
X010260Y002940D01*
X010100Y002780D01*
D23*
X009580Y007260D02*
X009680Y007360D01*
D24*
X010100Y006460D03*
X014100Y005980D03*
X015220Y005340D03*
X011860Y003900D03*
X010260Y002300D03*
X022900Y004860D03*
X023860Y006300D03*
X017180Y007860D03*
X003700Y007900D03*
X035060Y001500D03*
D25*
X038420Y005740D02*
X038420Y007320D01*
X038430Y007330D01*
X029680Y009360D02*
X029680Y010360D01*
X026680Y010140D02*
X026680Y009500D01*
X026680Y010140D02*
X026460Y010360D01*
X023780Y010360D01*
X017680Y010360D02*
X013840Y010360D01*
X013380Y009900D01*
X009080Y008860D02*
X008340Y008860D01*
D26*
X017780Y009340D03*
X020020Y008860D03*
X020820Y009500D03*
X020180Y010140D03*
X022440Y010620D03*
X026680Y009500D03*
X030260Y008140D03*
X029940Y007660D03*
X031140Y007100D03*
X027860Y006940D03*
X027700Y007420D03*
X026420Y007420D03*
X027540Y007900D03*
X023700Y005500D03*
X019700Y006140D03*
X010980Y004360D03*
X009860Y003260D03*
X005780Y002620D03*
D27*
X003720Y004680D01*
X002580Y004680D01*
X001900Y004638D02*
X000360Y004638D01*
X000360Y004797D02*
X001900Y004797D01*
X001900Y004955D02*
X000360Y004955D01*
X000360Y005114D02*
X002051Y005114D01*
X002210Y005272D02*
X000360Y005272D01*
X000360Y005431D02*
X005220Y005431D01*
X005220Y005551D02*
X005220Y005169D01*
X005489Y004900D01*
X005772Y004900D01*
X005852Y004820D01*
X005680Y004820D01*
X005680Y004360D01*
X005680Y004360D01*
X006140Y004360D01*
X006140Y004532D01*
X006220Y004452D01*
X006220Y004169D01*
X006489Y003900D01*
X006871Y003900D01*
X007140Y004169D01*
X007140Y004551D01*
X006871Y004820D01*
X006588Y004820D01*
X006140Y005268D01*
X006140Y005551D01*
X005871Y005820D01*
X005489Y005820D01*
X005220Y005551D01*
X005259Y005589D02*
X000360Y005589D01*
X000360Y005748D02*
X005417Y005748D01*
X005943Y005748D02*
X007417Y005748D01*
X007489Y005820D02*
X007220Y005551D01*
X007220Y005169D01*
X007489Y004900D01*
X007753Y004900D01*
X007673Y004820D01*
X007489Y004820D01*
X007220Y004551D01*
X007220Y004169D01*
X007350Y004039D01*
X007350Y003377D01*
X007020Y003047D01*
X006970Y002926D01*
X006970Y001274D01*
X007020Y001153D01*
X007113Y001060D01*
X007453Y000720D01*
X007574Y000670D01*
X008866Y000670D01*
X008987Y000720D01*
X008990Y000723D01*
X009031Y000740D01*
X009269Y000979D01*
X009354Y000979D01*
X009523Y001049D01*
X009583Y001109D01*
X009730Y001109D01*
X009790Y001049D01*
X009959Y000979D01*
X010142Y000979D01*
X010311Y001049D01*
X010440Y001178D01*
X010510Y001347D01*
X010510Y001530D01*
X010440Y001699D01*
X010311Y001829D01*
X010211Y001870D01*
X010346Y001870D01*
X010504Y001935D01*
X010625Y002056D01*
X010655Y002130D01*
X022886Y002130D01*
X023007Y002180D01*
X025917Y005090D01*
X026321Y005090D01*
X026194Y005038D01*
X026082Y004926D01*
X026022Y004779D01*
X026022Y004670D01*
X024003Y002651D01*
X023963Y002555D01*
X023963Y001829D01*
X023963Y001829D01*
X023833Y001699D01*
X023830Y001690D01*
X023826Y001699D01*
X023696Y001829D01*
X023527Y001899D01*
X023344Y001899D01*
X023175Y001829D01*
X023046Y001699D01*
X023042Y001690D01*
X023038Y001699D01*
X022909Y001829D01*
X022740Y001899D01*
X022557Y001899D01*
X022388Y001829D01*
X022259Y001699D01*
X022255Y001690D01*
X022251Y001699D01*
X022122Y001829D01*
X021953Y001899D01*
X021770Y001899D01*
X021601Y001829D01*
X021471Y001699D01*
X021467Y001690D01*
X021464Y001699D01*
X021334Y001829D01*
X021165Y001899D01*
X020982Y001899D01*
X020813Y001829D01*
X020684Y001699D01*
X020680Y001690D01*
X020676Y001699D01*
X020547Y001829D01*
X020378Y001899D01*
X020195Y001899D01*
X020026Y001829D01*
X019896Y001699D01*
X019893Y001690D01*
X019889Y001699D01*
X019759Y001829D01*
X019590Y001899D01*
X019407Y001899D01*
X019238Y001829D01*
X019109Y001699D01*
X019105Y001690D01*
X019101Y001699D01*
X018972Y001829D01*
X018803Y001899D01*
X018620Y001899D01*
X018451Y001829D01*
X018322Y001699D01*
X018318Y001690D01*
X018314Y001699D01*
X018185Y001829D01*
X018016Y001899D01*
X017833Y001899D01*
X017664Y001829D01*
X017534Y001699D01*
X017530Y001690D01*
X017527Y001699D01*
X017397Y001829D01*
X017228Y001899D01*
X017045Y001899D01*
X016876Y001829D01*
X016747Y001699D01*
X016743Y001690D01*
X016739Y001699D01*
X016610Y001829D01*
X016441Y001899D01*
X016258Y001899D01*
X016089Y001829D01*
X015959Y001699D01*
X015956Y001690D01*
X015952Y001699D01*
X015822Y001829D01*
X015653Y001899D01*
X015470Y001899D01*
X015301Y001829D01*
X015172Y001699D01*
X015168Y001690D01*
X015164Y001699D01*
X015035Y001829D01*
X014866Y001899D01*
X014683Y001899D01*
X014514Y001829D01*
X014385Y001699D01*
X014381Y001690D01*
X014377Y001699D01*
X014248Y001829D01*
X014079Y001899D01*
X013896Y001899D01*
X013727Y001829D01*
X013597Y001699D01*
X013593Y001690D01*
X013590Y001699D01*
X013460Y001829D01*
X013291Y001899D01*
X013108Y001899D01*
X012939Y001829D01*
X012810Y001699D01*
X012806Y001690D01*
X012802Y001699D01*
X012673Y001829D01*
X012504Y001899D01*
X012321Y001899D01*
X012152Y001829D01*
X012022Y001699D01*
X012019Y001690D01*
X012015Y001699D01*
X011885Y001829D01*
X011716Y001899D01*
X011533Y001899D01*
X011364Y001829D01*
X011235Y001699D01*
X011165Y001530D01*
X011165Y001347D01*
X011235Y001178D01*
X011364Y001049D01*
X011533Y000979D01*
X011716Y000979D01*
X011885Y001049D01*
X012015Y001178D01*
X012019Y001187D01*
X012022Y001178D01*
X012152Y001049D01*
X012321Y000979D01*
X012504Y000979D01*
X012673Y001049D01*
X012802Y001178D01*
X012806Y001187D01*
X012810Y001178D01*
X012939Y001049D01*
X013108Y000979D01*
X013291Y000979D01*
X013460Y001049D01*
X013590Y001178D01*
X013593Y001187D01*
X013597Y001178D01*
X013727Y001049D01*
X013896Y000979D01*
X014079Y000979D01*
X014248Y001049D01*
X014377Y001178D01*
X014381Y001187D01*
X014385Y001178D01*
X014514Y001049D01*
X014683Y000979D01*
X014866Y000979D01*
X015035Y001049D01*
X015164Y001178D01*
X015168Y001187D01*
X015172Y001178D01*
X015301Y001049D01*
X015470Y000979D01*
X015653Y000979D01*
X015822Y001049D01*
X015952Y001178D01*
X015956Y001187D01*
X015959Y001178D01*
X016089Y001049D01*
X016258Y000979D01*
X016441Y000979D01*
X016610Y001049D01*
X016739Y001178D01*
X016743Y001187D01*
X016747Y001178D01*
X016876Y001049D01*
X017045Y000979D01*
X017228Y000979D01*
X017397Y001049D01*
X017527Y001178D01*
X017530Y001187D01*
X017534Y001178D01*
X017664Y001049D01*
X017833Y000979D01*
X018016Y000979D01*
X018185Y001049D01*
X018314Y001178D01*
X018318Y001187D01*
X018322Y001178D01*
X018451Y001049D01*
X018620Y000979D01*
X018803Y000979D01*
X018972Y001049D01*
X019101Y001178D01*
X019105Y001187D01*
X019109Y001178D01*
X019238Y001049D01*
X019407Y000979D01*
X019590Y000979D01*
X019759Y001049D01*
X019889Y001178D01*
X019893Y001187D01*
X019896Y001178D01*
X020026Y001049D01*
X020195Y000979D01*
X020378Y000979D01*
X020547Y001049D01*
X020676Y001178D01*
X020680Y001187D01*
X020684Y001178D01*
X020813Y001049D01*
X020982Y000979D01*
X021165Y000979D01*
X021334Y001049D01*
X021464Y001178D01*
X021467Y001187D01*
X021471Y001178D01*
X021601Y001049D01*
X021770Y000979D01*
X021953Y000979D01*
X022122Y001049D01*
X022251Y001178D01*
X022255Y001187D01*
X022259Y001178D01*
X022388Y001049D01*
X022557Y000979D01*
X022740Y000979D01*
X022909Y001049D01*
X023038Y001178D01*
X023042Y001187D01*
X023046Y001178D01*
X023175Y001049D01*
X023344Y000979D01*
X023527Y000979D01*
X023696Y001049D01*
X023826Y001178D01*
X023830Y001187D01*
X023833Y001178D01*
X023963Y001049D01*
X024132Y000979D01*
X024315Y000979D01*
X024484Y001049D01*
X024613Y001178D01*
X024617Y001187D01*
X024621Y001178D01*
X024750Y001049D01*
X024919Y000979D01*
X025102Y000979D01*
X025271Y001049D01*
X025401Y001178D01*
X025404Y001187D01*
X025408Y001178D01*
X025538Y001049D01*
X025707Y000979D01*
X025890Y000979D01*
X026059Y001049D01*
X026188Y001178D01*
X026192Y001187D01*
X026196Y001178D01*
X026325Y001049D01*
X026494Y000979D01*
X026677Y000979D01*
X026846Y001049D01*
X026975Y001178D01*
X026979Y001187D01*
X026983Y001178D01*
X027112Y001049D01*
X027281Y000979D01*
X027464Y000979D01*
X027633Y001049D01*
X027763Y001178D01*
X027767Y001187D01*
X027770Y001178D01*
X027900Y001049D01*
X028069Y000979D01*
X028252Y000979D01*
X028421Y001049D01*
X028550Y001178D01*
X028554Y001187D01*
X028558Y001178D01*
X028687Y001049D01*
X028856Y000979D01*
X029039Y000979D01*
X029208Y001049D01*
X029338Y001178D01*
X029341Y001187D01*
X029345Y001178D01*
X029475Y001049D01*
X029644Y000979D01*
X029827Y000979D01*
X029996Y001049D01*
X030125Y001178D01*
X030195Y001347D01*
X030195Y001530D01*
X030125Y001699D01*
X029996Y001829D01*
X029827Y001899D01*
X029644Y001899D01*
X029475Y001829D01*
X029345Y001699D01*
X029341Y001690D01*
X029338Y001699D01*
X029208Y001829D01*
X029039Y001899D01*
X028856Y001899D01*
X028687Y001829D01*
X028558Y001699D01*
X028554Y001690D01*
X028550Y001699D01*
X028421Y001829D01*
X028252Y001899D01*
X028069Y001899D01*
X027900Y001829D01*
X027770Y001699D01*
X027767Y001690D01*
X027763Y001699D01*
X027633Y001829D01*
X027464Y001899D01*
X027281Y001899D01*
X027112Y001829D01*
X026983Y001699D01*
X026979Y001690D01*
X026975Y001699D01*
X026846Y001829D01*
X026677Y001899D01*
X026494Y001899D01*
X026325Y001829D01*
X026196Y001699D01*
X026192Y001690D01*
X026188Y001699D01*
X026059Y001829D01*
X026058Y001829D01*
X026058Y002534D01*
X027678Y004222D01*
X027779Y004222D01*
X027926Y004282D01*
X028038Y004394D01*
X028098Y004541D01*
X028098Y004699D01*
X028038Y004846D01*
X027926Y004958D01*
X027779Y005018D01*
X027621Y005018D01*
X027474Y004958D01*
X027411Y004894D01*
X027398Y004926D01*
X027286Y005038D01*
X027159Y005090D01*
X029963Y005090D01*
X030200Y004853D01*
X030200Y004669D01*
X030469Y004400D01*
X030593Y004400D01*
X030850Y004143D01*
X030850Y002881D01*
X030720Y002751D01*
X030720Y002487D01*
X030693Y002460D01*
X030493Y002260D01*
X030400Y002167D01*
X030350Y002046D01*
X030350Y001174D01*
X030400Y001053D01*
X030933Y000520D01*
X031054Y000470D01*
X034426Y000470D01*
X034547Y000520D01*
X034640Y000613D01*
X035097Y001070D01*
X035146Y001070D01*
X035304Y001135D01*
X035425Y001256D01*
X035490Y001414D01*
X035490Y001586D01*
X035425Y001744D01*
X035304Y001865D01*
X035146Y001930D01*
X034974Y001930D01*
X034816Y001865D01*
X034695Y001744D01*
X034630Y001586D01*
X034630Y001537D01*
X034223Y001130D01*
X032439Y001130D01*
X032487Y001178D01*
X032557Y001347D01*
X032557Y001530D01*
X032487Y001699D01*
X032358Y001829D01*
X032189Y001899D01*
X032006Y001899D01*
X031837Y001829D01*
X031707Y001699D01*
X031704Y001690D01*
X031700Y001699D01*
X031570Y001829D01*
X031401Y001899D01*
X031218Y001899D01*
X031049Y001829D01*
X031010Y001789D01*
X031010Y001843D01*
X031160Y001993D01*
X031267Y002100D01*
X031371Y002100D01*
X031640Y002369D01*
X031640Y002751D01*
X031510Y002881D01*
X031510Y004346D01*
X031460Y004467D01*
X031367Y004560D01*
X031120Y004807D01*
X031120Y005051D01*
X030851Y005320D01*
X030667Y005320D01*
X030287Y005700D01*
X030166Y005750D01*
X025714Y005750D01*
X025593Y005700D01*
X025500Y005607D01*
X022683Y002790D01*
X010354Y002790D01*
X010233Y002740D01*
X010223Y002730D01*
X010174Y002730D01*
X010016Y002665D01*
X009895Y002544D01*
X009830Y002386D01*
X009830Y002214D01*
X009895Y002056D01*
X010016Y001935D01*
X010105Y001899D01*
X009959Y001899D01*
X009790Y001829D01*
X009730Y001769D01*
X009583Y001769D01*
X009523Y001829D01*
X009354Y001899D01*
X009171Y001899D01*
X009002Y001829D01*
X008873Y001699D01*
X008803Y001530D01*
X008803Y001445D01*
X008687Y001330D01*
X007777Y001330D01*
X007637Y001469D01*
X008536Y001469D01*
X008642Y001575D01*
X008642Y002484D01*
X008536Y002589D01*
X007630Y002589D01*
X007630Y002723D01*
X007960Y003053D01*
X008010Y003174D01*
X008010Y004039D01*
X008140Y004169D01*
X008140Y004353D01*
X008490Y004703D01*
X008540Y004824D01*
X008540Y005449D01*
X008589Y005400D01*
X008780Y005400D01*
X008971Y005400D01*
X009184Y005614D01*
X009190Y005599D01*
X009319Y005470D01*
X009488Y005400D01*
X009671Y005400D01*
X009841Y005470D01*
X009930Y005559D01*
X009930Y004314D01*
X009980Y004193D01*
X010553Y003620D01*
X010602Y003600D01*
X010032Y003600D01*
X009989Y003618D01*
X010040Y003669D01*
X010040Y003860D01*
X010040Y004051D01*
X009771Y004320D01*
X009580Y004320D01*
X009580Y003860D01*
X009580Y003860D01*
X010040Y003860D01*
X009580Y003860D01*
X009580Y003860D01*
X009580Y004320D01*
X009389Y004320D01*
X009176Y004106D01*
X009170Y004121D01*
X009041Y004250D01*
X008871Y004320D01*
X008688Y004320D01*
X008519Y004250D01*
X008390Y004121D01*
X008320Y003951D01*
X008320Y003768D01*
X008390Y003599D01*
X008519Y003470D01*
X008688Y003400D01*
X008871Y003400D01*
X009041Y003470D01*
X009170Y003599D01*
X009176Y003614D01*
X009389Y003400D01*
X009507Y003400D01*
X009480Y003336D01*
X009480Y003184D01*
X009538Y003045D01*
X009645Y002938D01*
X009784Y002880D01*
X009936Y002880D01*
X010075Y002938D01*
X010182Y003045D01*
X010197Y003080D01*
X019512Y003080D01*
X019607Y003120D01*
X019680Y003193D01*
X019920Y003433D01*
X019960Y003528D01*
X019960Y005232D01*
X019920Y005327D01*
X019847Y005400D01*
X019320Y005928D01*
X019320Y007792D01*
X019840Y008313D01*
X020008Y008480D01*
X020096Y008480D01*
X020235Y008538D01*
X020342Y008645D01*
X020373Y008720D01*
X020650Y008443D01*
X020650Y008084D01*
X020621Y008155D01*
X020475Y008301D01*
X020283Y008380D01*
X020077Y008380D01*
X019885Y008301D01*
X019739Y008155D01*
X019660Y007963D01*
X019660Y007757D01*
X019739Y007565D01*
X019885Y007419D01*
X020077Y007340D01*
X020283Y007340D01*
X020475Y007419D01*
X020621Y007565D01*
X020650Y007636D01*
X020650Y006714D01*
X020700Y006593D01*
X020873Y006420D01*
X019957Y006420D01*
X019915Y006462D01*
X019776Y006520D01*
X019624Y006520D01*
X019485Y006462D01*
X019378Y006355D01*
X019320Y006216D01*
X019320Y006064D01*
X019378Y005925D01*
X019485Y005818D01*
X019624Y005760D01*
X019776Y005760D01*
X019915Y005818D01*
X019997Y005900D01*
X021220Y005900D01*
X021185Y005865D01*
X021185Y005660D01*
X021680Y005660D01*
X022175Y005660D01*
X022175Y005865D01*
X022140Y005900D01*
X022212Y005900D01*
X022600Y005513D01*
X022760Y005353D01*
X023240Y004873D01*
X023313Y004800D01*
X023408Y004760D01*
X024072Y004760D01*
X024167Y004800D01*
X024487Y005120D01*
X026408Y007040D01*
X026496Y007040D01*
X026635Y007098D01*
X026742Y007205D01*
X026767Y007265D01*
X027240Y006793D01*
X027313Y006720D01*
X027408Y006680D01*
X027583Y006680D01*
X027645Y006618D01*
X027784Y006560D01*
X027936Y006560D01*
X028075Y006618D01*
X028182Y006725D01*
X028240Y006864D01*
X028240Y007016D01*
X028182Y007155D01*
X028075Y007262D01*
X028050Y007273D01*
X028080Y007344D01*
X028080Y007496D01*
X028022Y007635D01*
X027915Y007742D01*
X027890Y007753D01*
X027920Y007824D01*
X027920Y007976D01*
X027862Y008115D01*
X027755Y008222D01*
X027616Y008280D01*
X027528Y008280D01*
X027440Y008368D01*
X027440Y009441D01*
X027441Y009442D01*
X027461Y009398D01*
X027480Y009353D01*
X027482Y009351D01*
X027483Y009348D01*
X027518Y009314D01*
X027553Y009280D01*
X027555Y009278D01*
X029438Y007474D01*
X029473Y007440D01*
X029475Y007438D01*
X029477Y007436D01*
X029523Y007419D01*
X029568Y007400D01*
X029571Y007400D01*
X029574Y007399D01*
X029623Y007400D01*
X029663Y007400D01*
X029725Y007338D01*
X029864Y007280D01*
X030016Y007280D01*
X030155Y007338D01*
X030262Y007445D01*
X030320Y007584D01*
X030320Y007736D01*
X030310Y007760D01*
X030336Y007760D01*
X030475Y007818D01*
X030582Y007925D01*
X030640Y008064D01*
X030640Y008216D01*
X030582Y008355D01*
X030475Y008462D01*
X030336Y008520D01*
X030184Y008520D01*
X030045Y008462D01*
X029983Y008400D01*
X029888Y008400D01*
X028643Y009644D01*
X028660Y009661D01*
X028660Y010012D01*
X028700Y009972D01*
X028700Y009661D01*
X028981Y009380D01*
X029379Y009380D01*
X029660Y009661D01*
X029660Y010059D01*
X029379Y010340D01*
X029068Y010340D01*
X029028Y010380D01*
X029170Y010380D01*
X029170Y010850D01*
X028700Y010850D01*
X028700Y010661D01*
X028660Y010661D01*
X028660Y011059D01*
X028379Y011340D01*
X027981Y011340D01*
X027904Y011263D01*
X027672Y011496D01*
X037347Y011496D01*
X037140Y011415D01*
X036748Y011103D01*
X036466Y010689D01*
X036319Y010210D01*
X036319Y009710D01*
X035640Y009710D01*
X035640Y009669D02*
X035371Y009400D01*
X034989Y009400D01*
X034720Y009669D01*
X034720Y010051D01*
X034989Y010320D01*
X035371Y010320D01*
X035640Y010051D01*
X035640Y009669D01*
X035522Y009552D02*
X036368Y009552D01*
X036319Y009710D02*
X036466Y009231D01*
X036748Y008817D01*
X036748Y008817D01*
X036748Y008817D01*
X037140Y008505D01*
X037606Y008322D01*
X038106Y008285D01*
X038594Y008396D01*
X038594Y008396D01*
X039027Y008647D01*
X039368Y009014D01*
X039500Y009288D01*
X039500Y002532D01*
X039368Y002806D01*
X039368Y002806D01*
X039027Y003173D01*
X038594Y003424D01*
X038594Y003424D01*
X038106Y003535D01*
X038106Y003535D01*
X037606Y003498D01*
X037140Y003315D01*
X036748Y003003D01*
X036466Y002589D01*
X036319Y002110D01*
X036319Y001610D01*
X036466Y001131D01*
X036525Y001046D01*
X036501Y001062D01*
X036477Y001087D01*
X036466Y001087D01*
X036464Y001088D01*
X036461Y001098D01*
X036430Y001112D01*
X036401Y001132D01*
X036391Y001130D01*
X036389Y001131D01*
X036384Y001140D01*
X036351Y001149D01*
X036320Y001164D01*
X036310Y001160D01*
X036308Y001161D01*
X036301Y001169D01*
X036267Y001172D01*
X036234Y001180D01*
X036225Y001175D01*
X036222Y001175D01*
X036214Y001182D01*
X036180Y001179D01*
X036146Y001182D01*
X036138Y001175D01*
X036135Y001175D01*
X036126Y001180D01*
X036093Y001172D01*
X036059Y001169D01*
X036052Y001161D01*
X036050Y001160D01*
X036040Y001164D01*
X036009Y001149D01*
X035976Y001140D01*
X035971Y001131D01*
X035969Y001130D01*
X035959Y001132D01*
X035930Y001112D01*
X035899Y001098D01*
X035896Y001088D01*
X035894Y001087D01*
X035883Y001087D01*
X035859Y001062D01*
X035831Y001043D01*
X035829Y001032D01*
X035828Y001031D01*
X035817Y001029D01*
X035798Y001001D01*
X035773Y000977D01*
X035773Y000966D01*
X035772Y000964D01*
X035762Y000961D01*
X035748Y000930D01*
X035728Y000901D01*
X035730Y000891D01*
X035729Y000889D01*
X035720Y000884D01*
X035711Y000851D01*
X035696Y000820D01*
X035700Y000810D01*
X035699Y000808D01*
X035691Y000801D01*
X035688Y000767D01*
X035680Y000734D01*
X035685Y000725D01*
X035685Y000722D01*
X035678Y000714D01*
X035681Y000680D01*
X035678Y000646D01*
X035685Y000638D01*
X035685Y000635D01*
X035680Y000626D01*
X035688Y000593D01*
X035691Y000559D01*
X035699Y000552D01*
X035700Y000550D01*
X035696Y000540D01*
X035711Y000509D01*
X035720Y000476D01*
X035729Y000471D01*
X035730Y000469D01*
X035728Y000459D01*
X035748Y000430D01*
X035762Y000399D01*
X035772Y000396D01*
X035773Y000394D01*
X035773Y000383D01*
X035797Y000360D01*
X005211Y000360D01*
X005420Y000569D01*
X005420Y000951D01*
X005151Y001220D01*
X004769Y001220D01*
X004500Y000951D01*
X004500Y000569D01*
X004709Y000360D01*
X004211Y000360D01*
X004420Y000569D01*
X004420Y000760D01*
X004420Y000951D01*
X004151Y001220D01*
X003960Y001220D01*
X003960Y000760D01*
X003960Y000760D01*
X004420Y000760D01*
X003960Y000760D01*
X003960Y000760D01*
X003960Y000760D01*
X003500Y000760D01*
X003500Y000951D01*
X003769Y001220D01*
X003960Y001220D01*
X003960Y000760D01*
X003500Y000760D01*
X003500Y000569D01*
X003709Y000360D01*
X002604Y000360D01*
X002927Y000547D01*
X002927Y000547D01*
X003268Y000914D01*
X003485Y001365D01*
X003560Y001860D01*
X003485Y002355D01*
X003268Y002806D01*
X002927Y003173D01*
X002494Y003424D01*
X002006Y003535D01*
X002006Y003535D01*
X001506Y003498D01*
X001040Y003315D01*
X000648Y003003D01*
X000366Y002589D01*
X000360Y002568D01*
X000360Y009252D01*
X000366Y009231D01*
X000648Y008817D01*
X000648Y008817D01*
X000648Y008817D01*
X001040Y008505D01*
X001506Y008322D01*
X001506Y008322D01*
X002006Y008285D01*
X002494Y008396D01*
X002927Y008647D01*
X003268Y009014D01*
X003485Y009465D01*
X003560Y009960D01*
X003485Y010455D01*
X003485Y010455D01*
X003284Y010872D01*
X003298Y010859D01*
X003317Y010831D01*
X003328Y010829D01*
X003329Y010828D01*
X003331Y010817D01*
X003359Y010798D01*
X003383Y010773D01*
X003394Y010773D01*
X003396Y010772D01*
X003399Y010762D01*
X003430Y010748D01*
X003459Y010728D01*
X003469Y010730D01*
X003471Y010729D01*
X003476Y010720D01*
X003509Y010711D01*
X003540Y010696D01*
X003550Y010700D01*
X003552Y010699D01*
X003559Y010691D01*
X003593Y010688D01*
X003626Y010680D01*
X003635Y010685D01*
X003638Y010685D01*
X003646Y010678D01*
X003680Y010681D01*
X003714Y010678D01*
X003722Y010685D01*
X003725Y010685D01*
X003734Y010680D01*
X003767Y010688D01*
X003801Y010691D01*
X003808Y010699D01*
X003810Y010700D01*
X003820Y010696D01*
X003851Y010711D01*
X003884Y010720D01*
X003889Y010729D01*
X003891Y010730D01*
X003901Y010728D01*
X003930Y010748D01*
X003961Y010762D01*
X003964Y010772D01*
X003966Y010773D01*
X003977Y010773D01*
X004001Y010798D01*
X004029Y010817D01*
X004031Y010828D01*
X004032Y010829D01*
X004043Y010831D01*
X004062Y010859D01*
X004087Y010883D01*
X004087Y010894D01*
X004088Y010896D01*
X004098Y010899D01*
X004112Y010930D01*
X004132Y010959D01*
X004130Y010969D01*
X004131Y010971D01*
X004140Y010976D01*
X004149Y011009D01*
X004164Y011040D01*
X004160Y011050D01*
X004161Y011052D01*
X004169Y011059D01*
X004172Y011093D01*
X004180Y011126D01*
X004175Y011135D01*
X004175Y011138D01*
X004182Y011146D01*
X004179Y011180D01*
X004182Y011214D01*
X004175Y011222D01*
X004175Y011225D01*
X004180Y011234D01*
X004172Y011267D01*
X004169Y011301D01*
X004161Y011308D01*
X004160Y011310D01*
X004164Y011320D01*
X004149Y011351D01*
X004140Y011384D01*
X004131Y011389D01*
X004130Y011391D01*
X004132Y011401D01*
X004112Y011430D01*
X004098Y011461D01*
X004088Y011464D01*
X004087Y011466D01*
X004087Y011477D01*
X004067Y011496D01*
X021168Y011496D01*
X020192Y010520D01*
X020104Y010520D01*
X019965Y010462D01*
X019858Y010355D01*
X019803Y010223D01*
X018747Y011280D01*
X018626Y011330D01*
X015974Y011330D01*
X015853Y011280D01*
X015763Y011190D01*
X014729Y011190D01*
X014579Y011340D01*
X014181Y011340D01*
X014031Y011190D01*
X013729Y011190D01*
X013579Y011340D01*
X013181Y011340D01*
X013031Y011190D01*
X012729Y011190D01*
X012579Y011340D01*
X012181Y011340D01*
X012031Y011190D01*
X011729Y011190D01*
X011579Y011340D01*
X011181Y011340D01*
X010900Y011059D01*
X010900Y010661D01*
X009035Y010661D01*
X009035Y010503D02*
X011059Y010503D01*
X011181Y010380D02*
X010900Y010661D01*
X010900Y010820D02*
X009035Y010820D01*
X009035Y010978D02*
X010900Y010978D01*
X010978Y011137D02*
X009035Y011137D01*
X009035Y011145D02*
X008930Y011251D01*
X008021Y011251D01*
X007915Y011145D01*
X007915Y010236D01*
X008021Y010131D01*
X008800Y010131D01*
X008720Y010051D01*
X008720Y009820D01*
X008489Y009820D01*
X008220Y009551D01*
X008220Y009190D01*
X005950Y009190D01*
X005950Y009979D01*
X006140Y010169D01*
X006140Y010551D01*
X005871Y010820D01*
X007915Y010820D01*
X007915Y010978D02*
X004141Y010978D01*
X004175Y011137D02*
X007915Y011137D01*
X009035Y011145D02*
X009035Y010320D01*
X009371Y010320D01*
X009640Y010051D01*
X009640Y009669D01*
X009371Y009400D01*
X009140Y009400D01*
X009140Y009190D01*
X009566Y009190D01*
X009687Y009140D01*
X009756Y009071D01*
X009785Y009101D01*
X009977Y009180D01*
X010183Y009180D01*
X010375Y009101D01*
X010521Y008955D01*
X010600Y008763D01*
X010600Y008557D01*
X010521Y008365D01*
X010375Y008219D01*
X010183Y008140D01*
X010010Y008140D01*
X010010Y007681D01*
X010140Y007551D01*
X010140Y007169D01*
X009910Y006939D01*
X009910Y006847D01*
X010014Y006890D01*
X010186Y006890D01*
X010344Y006825D01*
X010465Y006704D01*
X010530Y006546D01*
X010530Y006497D01*
X010540Y006487D01*
X010590Y006366D01*
X010590Y004517D01*
X010621Y004486D01*
X010658Y004575D01*
X010765Y004682D01*
X010904Y004740D01*
X011056Y004740D01*
X011195Y004682D01*
X011257Y004620D01*
X013744Y004620D01*
X013685Y004762D01*
X013685Y004958D01*
X013760Y005140D01*
X013850Y005230D01*
X013850Y005326D01*
X013900Y005447D01*
X014007Y005553D01*
X013856Y005615D01*
X013822Y005650D01*
X012437Y005650D01*
X012175Y005388D01*
X012175Y005155D01*
X011885Y004865D01*
X011475Y004865D01*
X011185Y005155D01*
X011185Y005565D01*
X011475Y005855D01*
X011708Y005855D01*
X011718Y005865D01*
X011582Y005865D01*
X011400Y005940D01*
X011260Y006080D01*
X011185Y006262D01*
X011185Y006458D01*
X011260Y006640D01*
X011350Y006730D01*
X011350Y007295D01*
X011275Y007219D01*
X011083Y007140D01*
X010877Y007140D01*
X010685Y007219D01*
X010539Y007365D01*
X010460Y007557D01*
X010460Y007763D01*
X010539Y007955D01*
X010685Y008101D01*
X010877Y008180D01*
X011083Y008180D01*
X011275Y008101D01*
X011385Y007990D01*
X012943Y007990D01*
X013560Y008607D01*
X013560Y008763D01*
X013639Y008955D01*
X013785Y009101D01*
X013977Y009180D01*
X014183Y009180D01*
X014375Y009101D01*
X014521Y008955D01*
X014600Y008763D01*
X014600Y008557D01*
X014521Y008365D01*
X014375Y008219D01*
X014183Y008140D01*
X014027Y008140D01*
X013267Y007380D01*
X013146Y007330D01*
X012010Y007330D01*
X012010Y006730D01*
X012100Y006640D01*
X012175Y006458D01*
X012175Y006285D01*
X012234Y006310D01*
X013822Y006310D01*
X013856Y006345D01*
X014014Y006410D01*
X014186Y006410D01*
X014344Y006345D01*
X014465Y006224D01*
X014527Y006073D01*
X014650Y006197D01*
X014650Y007255D01*
X014539Y007365D01*
X014460Y007557D01*
X014460Y007763D01*
X014539Y007955D01*
X014685Y008101D01*
X014877Y008180D01*
X015083Y008180D01*
X015275Y008101D01*
X015385Y007990D01*
X015671Y007990D01*
X015739Y008155D01*
X015885Y008301D01*
X016077Y008380D01*
X016193Y008380D01*
X016043Y008530D01*
X015585Y008530D01*
X015475Y008419D01*
X015283Y008340D01*
X015077Y008340D01*
X014885Y008419D01*
X014739Y008565D01*
X014660Y008757D01*
X014660Y008913D01*
X014193Y009380D01*
X014181Y009380D01*
X013900Y009661D01*
X013900Y010024D01*
X013860Y009984D01*
X013860Y009661D01*
X013579Y009380D01*
X013181Y009380D01*
X012900Y009661D01*
X012900Y010059D01*
X013181Y010340D01*
X013424Y010340D01*
X013464Y010380D01*
X013181Y010380D01*
X013031Y010530D01*
X012729Y010530D01*
X012579Y010380D01*
X012181Y010380D01*
X012031Y010530D01*
X011729Y010530D01*
X011579Y010380D01*
X011181Y010380D01*
X011181Y010340D02*
X010900Y010059D01*
X010900Y009661D01*
X011181Y009380D01*
X011579Y009380D01*
X011860Y009661D01*
X011860Y010059D01*
X011579Y010340D01*
X011181Y010340D01*
X011701Y010503D02*
X012059Y010503D01*
X012181Y010340D02*
X011900Y010059D01*
X011900Y009661D01*
X012181Y009380D01*
X012579Y009380D01*
X012860Y009661D01*
X012860Y010059D01*
X012579Y010340D01*
X012181Y010340D01*
X012701Y010503D02*
X013059Y010503D01*
X013428Y010344D02*
X009035Y010344D01*
X009505Y010186D02*
X009855Y010186D01*
X009989Y010320D02*
X009720Y010051D01*
X009720Y009860D01*
X010180Y009860D01*
X010640Y009860D01*
X010640Y010051D01*
X010371Y010320D01*
X010180Y010320D01*
X010180Y009860D01*
X010180Y009860D01*
X010180Y009860D01*
X010640Y009860D01*
X010640Y009669D01*
X010371Y009400D01*
X010180Y009400D01*
X010180Y009860D01*
X010180Y009860D01*
X010180Y009860D01*
X010180Y010320D01*
X009989Y010320D01*
X010180Y010186D02*
X010180Y010186D01*
X010180Y010027D02*
X010180Y010027D01*
X010180Y009869D02*
X010180Y009869D01*
X010180Y009860D02*
X009720Y009860D01*
X009720Y009669D01*
X009989Y009400D01*
X010180Y009400D01*
X010180Y009860D01*
X010180Y009710D02*
X010180Y009710D01*
X010180Y009552D02*
X010180Y009552D01*
X010522Y009552D02*
X011010Y009552D01*
X010900Y009710D02*
X010640Y009710D01*
X010640Y009869D02*
X010900Y009869D01*
X010900Y010027D02*
X010640Y010027D01*
X010505Y010186D02*
X011027Y010186D01*
X011733Y010186D02*
X012027Y010186D01*
X011900Y010027D02*
X011860Y010027D01*
X011860Y009869D02*
X011900Y009869D01*
X011900Y009710D02*
X011860Y009710D01*
X011750Y009552D02*
X012010Y009552D01*
X012168Y009393D02*
X011592Y009393D01*
X011168Y009393D02*
X009140Y009393D01*
X009522Y009552D02*
X009838Y009552D01*
X009720Y009710D02*
X009640Y009710D01*
X009640Y009869D02*
X009720Y009869D01*
X009720Y010027D02*
X009640Y010027D01*
X008720Y010027D02*
X005998Y010027D01*
X005950Y009869D02*
X008720Y009869D01*
X008380Y009710D02*
X005950Y009710D01*
X005950Y009552D02*
X008221Y009552D01*
X008220Y009393D02*
X005950Y009393D01*
X005290Y009393D02*
X003451Y009393D01*
X003485Y009465D02*
X003485Y009465D01*
X003498Y009552D02*
X005290Y009552D01*
X005290Y009710D02*
X003522Y009710D01*
X003546Y009869D02*
X005290Y009869D01*
X005290Y010027D02*
X004998Y010027D01*
X004871Y009900D02*
X004489Y009900D01*
X004220Y010169D01*
X004220Y010551D01*
X004489Y010820D01*
X004029Y010820D01*
X004489Y010820D02*
X004871Y010820D01*
X005489Y010820D01*
X005220Y010551D01*
X005220Y010169D01*
X005290Y010099D01*
X005290Y009190D01*
X004594Y009190D01*
X004473Y009140D01*
X003663Y008330D01*
X003614Y008330D01*
X003456Y008265D01*
X003335Y008144D01*
X003270Y007986D01*
X003270Y007814D01*
X003335Y007656D01*
X003456Y007535D01*
X003614Y007470D01*
X003786Y007470D01*
X003944Y007535D01*
X004065Y007656D01*
X004130Y007814D01*
X004130Y007863D01*
X004797Y008530D01*
X008220Y008530D01*
X008220Y008407D01*
X007820Y008007D01*
X007770Y007886D01*
X007770Y006899D01*
X007764Y006873D01*
X007770Y006834D01*
X007770Y006820D01*
X007489Y006820D01*
X007220Y006551D01*
X007220Y006169D01*
X007489Y005900D01*
X007871Y005900D01*
X007880Y005909D01*
X007880Y005811D01*
X007871Y005820D01*
X007489Y005820D01*
X007483Y005906D02*
X007067Y005906D01*
X007067Y005905D02*
X007067Y006815D01*
X006961Y006920D01*
X006052Y006920D01*
X005947Y006815D01*
X005947Y005905D01*
X006052Y005800D01*
X006961Y005800D01*
X007067Y005905D01*
X007067Y006065D02*
X007325Y006065D01*
X007220Y006223D02*
X007067Y006223D01*
X007067Y006382D02*
X007220Y006382D01*
X007220Y006540D02*
X007067Y006540D01*
X007067Y006699D02*
X007368Y006699D01*
X007024Y006857D02*
X007766Y006857D01*
X007770Y007016D02*
X003260Y007016D01*
X003260Y006958D02*
X003260Y007220D01*
X002600Y007220D01*
X002600Y007260D01*
X002560Y007260D01*
X002560Y007920D01*
X002298Y007920D01*
X001900Y007521D01*
X001900Y007260D01*
X002560Y007260D01*
X002560Y007220D01*
X001900Y007220D01*
X001900Y006958D01*
X002298Y006560D01*
X002560Y006560D01*
X002560Y007220D01*
X002600Y007220D01*
X002600Y006560D01*
X002862Y006560D01*
X003260Y006958D01*
X003159Y006857D02*
X005989Y006857D01*
X005947Y006699D02*
X003001Y006699D01*
X002600Y006699D02*
X002560Y006699D01*
X002560Y006857D02*
X002600Y006857D01*
X002159Y006699D02*
X000360Y006699D01*
X000360Y006857D02*
X002001Y006857D01*
X001900Y007016D02*
X000360Y007016D01*
X000360Y007174D02*
X001900Y007174D01*
X001900Y007333D02*
X000360Y007333D01*
X000360Y007491D02*
X001900Y007491D01*
X002028Y007650D02*
X000360Y007650D01*
X000360Y007808D02*
X002187Y007808D01*
X002560Y007808D02*
X002600Y007808D01*
X002600Y007920D02*
X002600Y007260D01*
X003260Y007260D01*
X003260Y007521D01*
X002862Y007920D01*
X002600Y007920D01*
X002973Y007808D02*
X003273Y007808D01*
X003342Y007650D02*
X003132Y007650D01*
X003260Y007491D02*
X003564Y007491D01*
X003836Y007491D02*
X007770Y007491D01*
X007770Y007650D02*
X004058Y007650D01*
X004127Y007808D02*
X007770Y007808D01*
X007804Y007967D02*
X004233Y007967D01*
X004392Y008125D02*
X007938Y008125D01*
X008097Y008284D02*
X004550Y008284D01*
X004709Y008442D02*
X008220Y008442D01*
X008640Y008360D02*
X008680Y008360D01*
X009140Y008284D02*
X009350Y008284D01*
X009350Y008125D02*
X009096Y008125D01*
X009140Y008169D02*
X009140Y008530D01*
X009350Y008530D01*
X009350Y007681D01*
X009220Y007551D01*
X009220Y007384D01*
X009200Y007336D01*
X009200Y007184D01*
X009250Y007064D01*
X009250Y006181D01*
X009190Y006121D01*
X009184Y006106D01*
X008971Y006320D01*
X008780Y006320D01*
X008780Y005860D01*
X008780Y005860D01*
X008780Y005400D01*
X008780Y005860D01*
X008780Y005860D01*
X008780Y006320D01*
X008589Y006320D01*
X008540Y006271D01*
X008540Y006741D01*
X008546Y006767D01*
X008540Y006806D01*
X008540Y006846D01*
X008530Y006870D01*
X008526Y006896D01*
X008523Y006900D01*
X008680Y006900D01*
X008871Y006900D01*
X009140Y007169D01*
X009140Y007360D01*
X009140Y007551D01*
X008871Y007820D01*
X008680Y007820D01*
X008680Y007360D01*
X009140Y007360D01*
X008680Y007360D01*
X008680Y007360D01*
X008680Y007360D01*
X008680Y006900D01*
X008680Y007360D01*
X008680Y007360D01*
X008680Y007820D01*
X008567Y007820D01*
X008647Y007900D01*
X008871Y007900D01*
X009140Y008169D01*
X008937Y007967D02*
X009350Y007967D01*
X009350Y007808D02*
X008882Y007808D01*
X008680Y007808D02*
X008680Y007808D01*
X008680Y007650D02*
X008680Y007650D01*
X008680Y007491D02*
X008680Y007491D01*
X009041Y007650D02*
X009319Y007650D01*
X009220Y007491D02*
X009140Y007491D01*
X009140Y007333D02*
X009200Y007333D01*
X009204Y007174D02*
X009140Y007174D01*
X009250Y007016D02*
X008986Y007016D01*
X008680Y007016D02*
X008680Y007016D01*
X008680Y007174D02*
X008680Y007174D01*
X008680Y007333D02*
X008680Y007333D01*
X007770Y007333D02*
X003260Y007333D01*
X003260Y007174D02*
X007770Y007174D01*
X008535Y006857D02*
X009250Y006857D01*
X009250Y006699D02*
X008540Y006699D01*
X008540Y006540D02*
X009250Y006540D01*
X009250Y006382D02*
X008540Y006382D01*
X008780Y006223D02*
X008780Y006223D01*
X008780Y006065D02*
X008780Y006065D01*
X009067Y006223D02*
X009250Y006223D01*
X008780Y005906D02*
X008780Y005906D01*
X008780Y005748D02*
X008780Y005748D01*
X008780Y005589D02*
X008780Y005589D01*
X009160Y005589D02*
X009200Y005589D01*
X009001Y005431D02*
X009415Y005431D01*
X009745Y005431D02*
X009930Y005431D01*
X009930Y005272D02*
X008540Y005272D01*
X008540Y005114D02*
X009930Y005114D01*
X009930Y004955D02*
X008540Y004955D01*
X008528Y004797D02*
X009930Y004797D01*
X009930Y004638D02*
X008425Y004638D01*
X008266Y004480D02*
X009930Y004480D01*
X009930Y004321D02*
X008140Y004321D01*
X008133Y004163D02*
X008432Y004163D01*
X009128Y004163D02*
X009232Y004163D01*
X009580Y004163D02*
X009580Y004163D01*
X009928Y004163D02*
X010011Y004163D01*
X010040Y004004D02*
X010169Y004004D01*
X010040Y003846D02*
X010328Y003846D01*
X010486Y003687D02*
X010040Y003687D01*
X009580Y004004D02*
X009580Y004004D01*
X010980Y004360D02*
X016580Y004360D01*
X016600Y004360D01*
X017780Y005540D01*
X017780Y005660D01*
X017780Y009340D01*
X019620Y008460D02*
X020020Y008860D01*
X020298Y008601D02*
X020493Y008601D01*
X020650Y008442D02*
X019970Y008442D01*
X019620Y008460D02*
X019060Y007900D01*
X019060Y007800D01*
X019060Y005820D01*
X019700Y005180D01*
X019700Y003580D01*
X019460Y003340D01*
X009940Y003340D01*
X009860Y003260D01*
X009494Y003370D02*
X008010Y003370D01*
X008010Y003212D02*
X009480Y003212D01*
X009534Y003053D02*
X007960Y003053D01*
X007801Y002895D02*
X009749Y002895D01*
X009971Y002895D02*
X022788Y002895D01*
X022946Y003053D02*
X010186Y003053D01*
X010229Y002736D02*
X007643Y002736D01*
X006970Y002736D02*
X006143Y002736D01*
X006160Y002696D02*
X006102Y002835D01*
X005995Y002942D01*
X005856Y003000D01*
X005768Y003000D01*
X003940Y004828D01*
X003867Y004901D01*
X003771Y004940D01*
X003260Y004940D01*
X003260Y004962D01*
X002862Y005360D01*
X002298Y005360D01*
X001900Y004962D01*
X001900Y004399D01*
X002298Y004000D01*
X002862Y004000D01*
X003260Y004399D01*
X003260Y004420D01*
X003612Y004420D01*
X004558Y003474D01*
X004421Y003417D01*
X004292Y003288D01*
X004223Y003120D01*
X004223Y002938D01*
X004292Y002770D01*
X004421Y002641D01*
X004589Y002572D01*
X004771Y002572D01*
X004939Y002641D01*
X005068Y002770D01*
X005125Y002908D01*
X005400Y002632D01*
X005400Y002544D01*
X005458Y002405D01*
X005565Y002298D01*
X005704Y002240D01*
X005856Y002240D01*
X005995Y002298D01*
X006102Y002405D01*
X006160Y002544D01*
X006160Y002696D01*
X006160Y002578D02*
X006970Y002578D01*
X006970Y002419D02*
X006108Y002419D01*
X005905Y002261D02*
X006970Y002261D01*
X006970Y002102D02*
X004882Y002102D01*
X004939Y002079D02*
X004771Y002148D01*
X004589Y002148D01*
X004421Y002079D01*
X004292Y001950D01*
X004223Y001782D01*
X004223Y001600D01*
X004292Y001432D01*
X004421Y001303D01*
X004589Y001233D01*
X004771Y001233D01*
X004939Y001303D01*
X005068Y001432D01*
X005137Y001600D01*
X005137Y001782D01*
X005068Y001950D01*
X004939Y002079D01*
X005070Y001944D02*
X006970Y001944D01*
X006970Y001785D02*
X005136Y001785D01*
X005137Y001627D02*
X006970Y001627D01*
X006970Y001468D02*
X005083Y001468D01*
X004946Y001310D02*
X006970Y001310D01*
X007022Y001151D02*
X005220Y001151D01*
X005378Y000993D02*
X007181Y000993D01*
X007339Y000834D02*
X005420Y000834D01*
X005420Y000676D02*
X007561Y000676D01*
X008879Y000676D02*
X030778Y000676D01*
X030941Y000517D02*
X005368Y000517D01*
X004552Y000517D02*
X004368Y000517D01*
X004420Y000676D02*
X004500Y000676D01*
X004500Y000834D02*
X004420Y000834D01*
X004378Y000993D02*
X004542Y000993D01*
X004700Y001151D02*
X004220Y001151D01*
X003960Y001151D02*
X003960Y001151D01*
X003960Y000993D02*
X003960Y000993D01*
X003960Y000834D02*
X003960Y000834D01*
X003542Y000993D02*
X003306Y000993D01*
X003268Y000914D02*
X003268Y000914D01*
X003194Y000834D02*
X003500Y000834D01*
X003500Y000676D02*
X003047Y000676D01*
X002876Y000517D02*
X003552Y000517D01*
X003700Y001151D02*
X003382Y001151D01*
X003459Y001310D02*
X004414Y001310D01*
X004277Y001468D02*
X003501Y001468D01*
X003485Y001365D02*
X003485Y001365D01*
X003525Y001627D02*
X004223Y001627D01*
X004224Y001785D02*
X003549Y001785D01*
X003547Y001944D02*
X004290Y001944D01*
X004478Y002102D02*
X003524Y002102D01*
X003500Y002261D02*
X005655Y002261D01*
X005452Y002419D02*
X003455Y002419D01*
X003378Y002578D02*
X004575Y002578D01*
X004785Y002578D02*
X005400Y002578D01*
X005296Y002736D02*
X005034Y002736D01*
X005119Y002895D02*
X005138Y002895D01*
X005715Y003053D02*
X007026Y003053D01*
X006970Y002895D02*
X006043Y002895D01*
X005556Y003212D02*
X007185Y003212D01*
X007343Y003370D02*
X005398Y003370D01*
X005239Y003529D02*
X007350Y003529D01*
X007350Y003687D02*
X005081Y003687D01*
X004922Y003846D02*
X007350Y003846D01*
X007350Y004004D02*
X006975Y004004D01*
X006385Y004004D02*
X005975Y004004D01*
X005871Y003900D02*
X006140Y004169D01*
X006140Y004360D01*
X005680Y004360D01*
X005680Y004360D01*
X005680Y004360D01*
X005220Y004360D01*
X005220Y004551D01*
X005489Y004820D01*
X005680Y004820D01*
X005680Y004360D01*
X005680Y003900D01*
X005871Y003900D01*
X005680Y003900D02*
X005680Y004360D01*
X005680Y004360D01*
X005220Y004360D01*
X005220Y004169D01*
X005489Y003900D01*
X005680Y003900D01*
X005680Y004004D02*
X005680Y004004D01*
X005385Y004004D02*
X004764Y004004D01*
X004187Y003846D02*
X000360Y003846D01*
X000360Y004004D02*
X002295Y004004D01*
X002136Y004163D02*
X000360Y004163D01*
X000360Y004321D02*
X001978Y004321D01*
X001900Y004480D02*
X000360Y004480D01*
X000360Y003687D02*
X004345Y003687D01*
X004504Y003529D02*
X002035Y003529D01*
X001915Y003529D02*
X000360Y003529D01*
X000360Y003370D02*
X001180Y003370D01*
X001040Y003315D02*
X001040Y003315D01*
X000910Y003212D02*
X000360Y003212D01*
X000360Y003053D02*
X000712Y003053D01*
X000648Y003003D02*
X000648Y003003D01*
X000648Y003003D01*
X000575Y002895D02*
X000360Y002895D01*
X000360Y002736D02*
X000467Y002736D01*
X000366Y002589D02*
X000366Y002589D01*
X000363Y002578D02*
X000360Y002578D01*
X002494Y003424D02*
X002494Y003424D01*
X002587Y003370D02*
X004374Y003370D01*
X004260Y003212D02*
X002862Y003212D01*
X003039Y003053D02*
X004223Y003053D01*
X004241Y002895D02*
X003186Y002895D01*
X003268Y002806D02*
X003268Y002806D01*
X003302Y002736D02*
X004326Y002736D01*
X001506Y003498D02*
X001506Y003498D01*
X002865Y004004D02*
X004028Y004004D01*
X003870Y004163D02*
X003024Y004163D01*
X003182Y004321D02*
X003711Y004321D01*
X004288Y004480D02*
X005220Y004480D01*
X005220Y004321D02*
X004447Y004321D01*
X004605Y004163D02*
X005227Y004163D01*
X005680Y004163D02*
X005680Y004163D01*
X005680Y004321D02*
X005680Y004321D01*
X005680Y004480D02*
X005680Y004480D01*
X006140Y004480D02*
X006193Y004480D01*
X006220Y004321D02*
X006140Y004321D01*
X006133Y004163D02*
X006227Y004163D01*
X006680Y004360D02*
X005680Y005360D01*
X006140Y005431D02*
X007220Y005431D01*
X007220Y005272D02*
X006140Y005272D01*
X006294Y005114D02*
X007276Y005114D01*
X007434Y004955D02*
X006453Y004955D01*
X006894Y004797D02*
X007466Y004797D01*
X007307Y004638D02*
X007053Y004638D01*
X007140Y004480D02*
X007220Y004480D01*
X007220Y004321D02*
X007140Y004321D01*
X007133Y004163D02*
X007227Y004163D01*
X008010Y004004D02*
X008342Y004004D01*
X008320Y003846D02*
X008010Y003846D01*
X008010Y003687D02*
X008354Y003687D01*
X008461Y003529D02*
X008010Y003529D01*
X009099Y003529D02*
X009261Y003529D01*
X009929Y002578D02*
X008548Y002578D01*
X008642Y002419D02*
X009844Y002419D01*
X009830Y002261D02*
X008642Y002261D01*
X008642Y002102D02*
X009877Y002102D01*
X010008Y001944D02*
X008642Y001944D01*
X008642Y001785D02*
X008958Y001785D01*
X008843Y001627D02*
X008642Y001627D01*
X008803Y001468D02*
X007639Y001468D01*
X009387Y000993D02*
X009925Y000993D01*
X010175Y000993D02*
X011500Y000993D01*
X011750Y000993D02*
X012287Y000993D01*
X012537Y000993D02*
X013075Y000993D01*
X013324Y000993D02*
X013862Y000993D01*
X014112Y000993D02*
X014650Y000993D01*
X014899Y000993D02*
X015437Y000993D01*
X015687Y000993D02*
X016224Y000993D01*
X016474Y000993D02*
X017012Y000993D01*
X017261Y000993D02*
X017799Y000993D01*
X018049Y000993D02*
X018587Y000993D01*
X018836Y000993D02*
X019374Y000993D01*
X019624Y000993D02*
X020162Y000993D01*
X020411Y000993D02*
X020949Y000993D01*
X021198Y000993D02*
X021736Y000993D01*
X021986Y000993D02*
X022524Y000993D01*
X022773Y000993D02*
X023311Y000993D01*
X023561Y000993D02*
X024099Y000993D01*
X024348Y000993D02*
X024886Y000993D01*
X025136Y000993D02*
X025673Y000993D01*
X025923Y000993D02*
X026461Y000993D01*
X026710Y000993D02*
X027248Y000993D01*
X027498Y000993D02*
X028036Y000993D01*
X028285Y000993D02*
X028823Y000993D01*
X029073Y000993D02*
X029610Y000993D01*
X029860Y000993D02*
X030461Y000993D01*
X030360Y001151D02*
X030098Y001151D01*
X030179Y001310D02*
X030350Y001310D01*
X030350Y001468D02*
X030195Y001468D01*
X030155Y001627D02*
X030350Y001627D01*
X030350Y001785D02*
X030039Y001785D01*
X030350Y001944D02*
X026058Y001944D01*
X026058Y002102D02*
X030373Y002102D01*
X030494Y002261D02*
X026058Y002261D01*
X026058Y002419D02*
X030652Y002419D01*
X030720Y002578D02*
X026100Y002578D01*
X025798Y002638D02*
X027700Y004620D01*
X028073Y004480D02*
X030390Y004480D01*
X030672Y004321D02*
X027964Y004321D01*
X027621Y004163D02*
X030831Y004163D01*
X030850Y004004D02*
X027469Y004004D01*
X027317Y003846D02*
X030850Y003846D01*
X030850Y003687D02*
X027165Y003687D01*
X027013Y003529D02*
X030850Y003529D01*
X030850Y003370D02*
X026861Y003370D01*
X026709Y003212D02*
X030850Y003212D01*
X030850Y003053D02*
X026557Y003053D01*
X026405Y002895D02*
X030850Y002895D01*
X030720Y002736D02*
X026252Y002736D01*
X025798Y002638D02*
X025798Y001439D01*
X025011Y001439D02*
X024980Y001439D01*
X024980Y002620D01*
X027060Y004700D01*
X026420Y004700D02*
X024223Y002503D01*
X024223Y001439D01*
X023919Y001785D02*
X023740Y001785D01*
X023963Y001944D02*
X010512Y001944D01*
X010643Y002102D02*
X023963Y002102D01*
X023963Y002261D02*
X023087Y002261D01*
X023246Y002419D02*
X023963Y002419D01*
X023973Y002578D02*
X023404Y002578D01*
X023563Y002736D02*
X024088Y002736D01*
X024247Y002895D02*
X023721Y002895D01*
X023880Y003053D02*
X024405Y003053D01*
X024564Y003212D02*
X024038Y003212D01*
X024197Y003370D02*
X024722Y003370D01*
X024881Y003529D02*
X024355Y003529D01*
X024514Y003687D02*
X025039Y003687D01*
X025198Y003846D02*
X024672Y003846D01*
X024831Y004004D02*
X025356Y004004D01*
X025515Y004163D02*
X024989Y004163D01*
X025148Y004321D02*
X025673Y004321D01*
X025832Y004480D02*
X025306Y004480D01*
X025465Y004638D02*
X025990Y004638D01*
X026029Y004797D02*
X025623Y004797D01*
X025782Y004955D02*
X026112Y004955D01*
X025165Y005272D02*
X024640Y005272D01*
X024798Y005431D02*
X025324Y005431D01*
X025482Y005589D02*
X024957Y005589D01*
X025115Y005748D02*
X025708Y005748D01*
X025274Y005906D02*
X032220Y005906D01*
X032220Y005860D02*
X032680Y005860D01*
X032680Y005400D01*
X032871Y005400D01*
X032951Y005481D01*
X032993Y005440D01*
X033320Y005113D01*
X033393Y005040D01*
X033488Y005000D01*
X034392Y005000D01*
X034487Y005040D01*
X034608Y005160D01*
X034661Y005160D01*
X034673Y005131D01*
X034816Y004988D01*
X034986Y004917D01*
X034986Y004917D01*
X034909Y004893D01*
X034838Y004856D01*
X034773Y004809D01*
X034716Y004752D01*
X034669Y004687D01*
X034633Y004616D01*
X034608Y004539D01*
X034595Y004460D01*
X034595Y004438D01*
X035087Y004438D01*
X035087Y004402D01*
X034595Y004402D01*
X034595Y004380D01*
X034608Y004301D01*
X034633Y004224D01*
X034669Y004153D01*
X034716Y004088D01*
X034773Y004031D01*
X034838Y003984D01*
X034909Y003947D01*
X034986Y003923D01*
X034816Y003852D01*
X034673Y003709D01*
X034640Y003630D01*
X034640Y003680D01*
X034640Y003871D01*
X034371Y004140D01*
X034180Y004140D01*
X034180Y003680D01*
X034180Y003680D01*
X034640Y003680D01*
X034180Y003680D01*
X034180Y003680D01*
X034180Y003220D01*
X034371Y003220D01*
X034595Y003445D01*
X034595Y003319D01*
X034673Y003131D01*
X034816Y002988D01*
X035004Y002910D01*
X035207Y002910D01*
X035394Y002988D01*
X035538Y003131D01*
X035615Y003319D01*
X035615Y003521D01*
X035538Y003709D01*
X035394Y003852D01*
X035225Y003923D01*
X035301Y003947D01*
X035372Y003984D01*
X035437Y004031D01*
X035494Y004088D01*
X035541Y004153D01*
X035578Y004224D01*
X035603Y004301D01*
X035615Y004380D01*
X035615Y004402D01*
X035124Y004402D01*
X035124Y004438D01*
X035615Y004438D01*
X035615Y004460D01*
X035603Y004539D01*
X035578Y004616D01*
X035541Y004687D01*
X035494Y004752D01*
X035437Y004809D01*
X035372Y004856D01*
X035301Y004893D01*
X035225Y004917D01*
X035225Y004917D01*
X035394Y004988D01*
X035538Y005131D01*
X035615Y005319D01*
X035615Y005521D01*
X035538Y005709D01*
X035394Y005852D01*
X035370Y005862D01*
X035413Y005905D01*
X035413Y006539D01*
X035640Y006313D01*
X036040Y005913D01*
X036113Y005840D01*
X036208Y005800D01*
X037212Y005800D01*
X037307Y005840D01*
X037838Y006370D01*
X038121Y006370D01*
X038390Y006639D01*
X038390Y006870D01*
X038430Y006870D01*
X038470Y006870D01*
X038470Y006639D01*
X038739Y006370D01*
X039121Y006370D01*
X039390Y006639D01*
X039390Y007021D01*
X039121Y007290D01*
X038890Y007290D01*
X038890Y007330D01*
X038890Y007521D01*
X038621Y007790D01*
X038430Y007790D01*
X038430Y007330D01*
X038430Y007330D01*
X038890Y007330D01*
X038430Y007330D01*
X038430Y007330D01*
X038430Y007330D01*
X037970Y007330D01*
X037970Y007521D01*
X038239Y007790D01*
X038430Y007790D01*
X038430Y007330D01*
X038430Y006870D01*
X038430Y007330D01*
X038430Y007330D01*
X037970Y007330D01*
X037970Y007290D01*
X037890Y007290D01*
X037890Y007521D01*
X037621Y007790D01*
X037239Y007790D01*
X036970Y007521D01*
X036970Y007139D01*
X037239Y006870D01*
X037470Y006870D01*
X037470Y006738D01*
X037052Y006320D01*
X036811Y006320D01*
X036940Y006449D01*
X036940Y006831D01*
X036671Y007100D01*
X036388Y007100D01*
X036308Y007180D01*
X036671Y007180D01*
X036940Y007449D01*
X036940Y007831D01*
X036671Y008100D01*
X036289Y008100D01*
X036200Y008011D01*
X036200Y008192D01*
X036160Y008287D01*
X036087Y008360D01*
X035847Y008600D01*
X035752Y008640D01*
X035751Y008640D01*
X035780Y008669D01*
X035780Y009051D01*
X035511Y009320D01*
X035129Y009320D01*
X034860Y009051D01*
X034860Y008669D01*
X034889Y008640D01*
X034111Y008640D01*
X034140Y008669D01*
X034140Y009051D01*
X033871Y009320D01*
X033489Y009320D01*
X033359Y009190D01*
X032797Y009190D01*
X030847Y011140D01*
X030726Y011190D01*
X030529Y011190D01*
X030379Y011340D01*
X029981Y011340D01*
X029700Y011059D01*
X029700Y010661D01*
X029660Y010661D01*
X029660Y010850D01*
X029190Y010850D01*
X029190Y010870D01*
X029170Y010870D01*
X029170Y011340D01*
X028981Y011340D01*
X028700Y011059D01*
X028700Y010870D01*
X029170Y010870D01*
X029170Y010850D01*
X029190Y010850D01*
X029190Y010380D01*
X029379Y010380D01*
X029660Y010661D01*
X029700Y010661D02*
X029981Y010380D01*
X030379Y010380D01*
X030526Y010527D01*
X032380Y008673D01*
X032413Y008640D01*
X032288Y008640D01*
X032193Y008600D01*
X032033Y008440D01*
X031960Y008367D01*
X031920Y008272D01*
X031920Y008271D01*
X031871Y008320D01*
X031489Y008320D01*
X031480Y008311D01*
X031480Y008912D01*
X031440Y009007D01*
X030887Y009560D01*
X030660Y009788D01*
X030660Y010059D01*
X030379Y010340D01*
X029981Y010340D01*
X029700Y010059D01*
X029700Y009661D01*
X029981Y009380D01*
X030332Y009380D01*
X030520Y009193D01*
X030520Y009193D01*
X030960Y008752D01*
X030960Y007848D01*
X030520Y007407D01*
X030480Y007312D01*
X030480Y006888D01*
X030520Y006793D01*
X031080Y006233D01*
X031153Y006160D01*
X031248Y006120D01*
X032289Y006120D01*
X032220Y006051D01*
X032220Y005860D01*
X032220Y005669D01*
X032489Y005400D01*
X032680Y005400D01*
X032680Y005860D01*
X032680Y005860D01*
X032680Y005860D01*
X032220Y005860D01*
X032220Y005748D02*
X030172Y005748D01*
X030398Y005589D02*
X032300Y005589D01*
X032680Y005589D02*
X032680Y005589D01*
X032680Y005748D02*
X032680Y005748D01*
X033140Y005660D02*
X033540Y005260D01*
X034340Y005260D01*
X034500Y005420D01*
X035105Y005420D01*
X035615Y005431D02*
X039500Y005431D01*
X039500Y005272D02*
X035596Y005272D01*
X035520Y005114D02*
X039500Y005114D01*
X039500Y004955D02*
X035315Y004955D01*
X035450Y004797D02*
X039500Y004797D01*
X039500Y004638D02*
X035566Y004638D01*
X035612Y004480D02*
X039500Y004480D01*
X039500Y004321D02*
X035606Y004321D01*
X035546Y004163D02*
X039500Y004163D01*
X039500Y004004D02*
X035400Y004004D01*
X035401Y003846D02*
X039500Y003846D01*
X039500Y003687D02*
X035547Y003687D01*
X035612Y003529D02*
X038015Y003529D01*
X038135Y003529D02*
X039500Y003529D01*
X039500Y003370D02*
X038687Y003370D01*
X038962Y003212D02*
X039500Y003212D01*
X039500Y003053D02*
X039139Y003053D01*
X039027Y003173D02*
X039027Y003173D01*
X039286Y002895D02*
X039500Y002895D01*
X039500Y002736D02*
X039402Y002736D01*
X039478Y002578D02*
X039500Y002578D01*
X037280Y003370D02*
X035615Y003370D01*
X035571Y003212D02*
X037010Y003212D01*
X036812Y003053D02*
X035459Y003053D01*
X034751Y003053D02*
X031510Y003053D01*
X031510Y002895D02*
X031864Y002895D01*
X031989Y003020D02*
X031720Y002751D01*
X031720Y002369D01*
X031989Y002100D01*
X032371Y002100D01*
X032640Y002369D01*
X032640Y002751D01*
X032371Y003020D01*
X031989Y003020D01*
X032496Y002895D02*
X036675Y002895D01*
X036748Y003003D02*
X036748Y003003D01*
X036567Y002736D02*
X032640Y002736D01*
X032640Y002578D02*
X032812Y002578D01*
X032824Y002589D02*
X032718Y002484D01*
X032718Y001575D01*
X032824Y001469D01*
X033733Y001469D01*
X033838Y001575D01*
X033838Y002484D01*
X033733Y002589D01*
X032824Y002589D01*
X032718Y002419D02*
X032640Y002419D01*
X032718Y002261D02*
X032531Y002261D01*
X032373Y002102D02*
X032718Y002102D01*
X032718Y001944D02*
X031110Y001944D01*
X031373Y002102D02*
X031987Y002102D01*
X031829Y002261D02*
X031531Y002261D01*
X031640Y002419D02*
X031720Y002419D01*
X031720Y002578D02*
X031640Y002578D01*
X031640Y002736D02*
X031720Y002736D01*
X031510Y003212D02*
X034640Y003212D01*
X034595Y003370D02*
X034521Y003370D01*
X034180Y003370D02*
X034180Y003370D01*
X034180Y003220D02*
X034180Y003680D01*
X034180Y003680D01*
X034180Y003680D01*
X033720Y003680D01*
X033720Y003871D01*
X033989Y004140D01*
X034180Y004140D01*
X034180Y003680D01*
X033720Y003680D01*
X033720Y003489D01*
X033989Y003220D01*
X034180Y003220D01*
X033839Y003370D02*
X032521Y003370D01*
X032640Y003489D02*
X032371Y003220D01*
X031989Y003220D01*
X031720Y003489D01*
X031720Y003871D01*
X031989Y004140D01*
X032371Y004140D01*
X032640Y003871D01*
X032640Y003489D01*
X032640Y003529D02*
X033720Y003529D01*
X034180Y003529D02*
X034180Y003529D01*
X034180Y003687D02*
X034180Y003687D01*
X034180Y003846D02*
X034180Y003846D01*
X034180Y004004D02*
X034180Y004004D01*
X034507Y004004D02*
X034810Y004004D01*
X034809Y003846D02*
X034640Y003846D01*
X034640Y003687D02*
X034664Y003687D01*
X034986Y003923D02*
X034986Y003923D01*
X035225Y003923D02*
X035225Y003923D01*
X034664Y004163D02*
X031510Y004163D01*
X031510Y004321D02*
X034605Y004321D01*
X034598Y004480D02*
X032930Y004480D01*
X032851Y004400D02*
X033120Y004669D01*
X033120Y004860D01*
X033120Y005051D01*
X032851Y005320D01*
X032660Y005320D01*
X032660Y004860D01*
X033120Y004860D01*
X032660Y004860D01*
X032660Y004860D01*
X032660Y004860D01*
X032660Y004400D01*
X032851Y004400D01*
X032660Y004400D02*
X032660Y004860D01*
X032660Y004860D01*
X032660Y004860D01*
X032200Y004860D01*
X032200Y005051D01*
X032469Y005320D01*
X032660Y005320D01*
X032660Y004860D01*
X032200Y004860D01*
X032200Y004669D01*
X032469Y004400D01*
X032660Y004400D01*
X032660Y004480D02*
X032660Y004480D01*
X032390Y004480D02*
X031447Y004480D01*
X031289Y004638D02*
X032231Y004638D01*
X032200Y004797D02*
X031130Y004797D01*
X031120Y004955D02*
X032200Y004955D01*
X032660Y004955D02*
X032660Y004955D01*
X032660Y004797D02*
X032660Y004797D01*
X032660Y004638D02*
X032660Y004638D01*
X033089Y004638D02*
X034644Y004638D01*
X034760Y004797D02*
X033120Y004797D01*
X033120Y004955D02*
X034895Y004955D01*
X034690Y005114D02*
X034561Y005114D01*
X034232Y005520D02*
X033991Y005520D01*
X034140Y005669D01*
X034140Y006051D01*
X033871Y006320D01*
X033489Y006320D01*
X033365Y006196D01*
X033360Y006207D01*
X033287Y006280D01*
X033168Y006400D01*
X033180Y006400D01*
X033371Y006400D01*
X033640Y006669D01*
X033640Y006860D01*
X033640Y007051D01*
X033371Y007320D01*
X033180Y007320D01*
X033180Y006860D01*
X033180Y006860D01*
X033640Y006860D01*
X033180Y006860D01*
X033180Y006860D01*
X033180Y006860D01*
X032720Y006860D01*
X032720Y007051D01*
X032989Y007320D01*
X033180Y007320D01*
X033180Y006860D01*
X033180Y006400D01*
X033180Y006860D01*
X033180Y006860D01*
X032720Y006860D01*
X032720Y006669D01*
X032749Y006640D01*
X032611Y006640D01*
X032640Y006669D01*
X032640Y007051D01*
X032371Y007320D01*
X032288Y007320D01*
X032400Y007433D01*
X032417Y007473D01*
X032489Y007400D01*
X032680Y007400D01*
X032871Y007400D01*
X033140Y007669D01*
X033140Y007860D01*
X033140Y008051D01*
X033071Y008120D01*
X033289Y008120D01*
X033220Y008051D01*
X033220Y007669D01*
X033489Y007400D01*
X033871Y007400D01*
X034140Y007669D01*
X034140Y008051D01*
X034071Y008120D01*
X034929Y008120D01*
X034860Y008051D01*
X034860Y007669D01*
X035060Y007469D01*
X035060Y006948D01*
X035072Y006920D01*
X034399Y006920D01*
X034293Y006815D01*
X034293Y005905D01*
X034399Y005800D01*
X034764Y005800D01*
X034673Y005709D01*
X034661Y005680D01*
X034448Y005680D01*
X034353Y005640D01*
X034280Y005567D01*
X034232Y005520D01*
X034301Y005589D02*
X034060Y005589D01*
X034140Y005748D02*
X034711Y005748D01*
X034293Y005906D02*
X034140Y005906D01*
X034126Y006065D02*
X034293Y006065D01*
X034293Y006223D02*
X033967Y006223D01*
X034293Y006382D02*
X033186Y006382D01*
X033345Y006223D02*
X033393Y006223D01*
X033140Y006060D02*
X032820Y006380D01*
X031300Y006380D01*
X030740Y006940D01*
X030740Y007260D01*
X031220Y007740D01*
X031220Y008860D01*
X030740Y009340D01*
X030220Y009860D01*
X030180Y009860D01*
X030660Y009869D02*
X031185Y009869D01*
X031026Y010027D02*
X030660Y010027D01*
X030533Y010186D02*
X030868Y010186D01*
X030709Y010344D02*
X029064Y010344D01*
X029170Y010503D02*
X029190Y010503D01*
X029190Y010661D02*
X029170Y010661D01*
X029501Y010503D02*
X029859Y010503D01*
X030501Y010503D02*
X030551Y010503D01*
X031326Y010661D02*
X032325Y010661D01*
X032325Y010503D02*
X031484Y010503D01*
X031643Y010344D02*
X032325Y010344D01*
X032325Y010236D02*
X032430Y010131D01*
X033339Y010131D01*
X033445Y010236D01*
X033445Y011145D01*
X033339Y011251D01*
X032430Y011251D01*
X032325Y011145D01*
X032325Y010236D01*
X032375Y010186D02*
X031801Y010186D01*
X031960Y010027D02*
X033720Y010027D01*
X033720Y010051D02*
X033720Y009669D01*
X033989Y009400D01*
X034371Y009400D01*
X034640Y009669D01*
X034640Y010051D01*
X034371Y010320D01*
X033989Y010320D01*
X033720Y010051D01*
X033720Y009869D02*
X032118Y009869D01*
X032277Y009710D02*
X033720Y009710D01*
X033838Y009552D02*
X032435Y009552D01*
X032594Y009393D02*
X036416Y009393D01*
X036465Y009235D02*
X035596Y009235D01*
X035754Y009076D02*
X036572Y009076D01*
X036466Y009231D02*
X036466Y009231D01*
X036680Y008918D02*
X035780Y008918D01*
X035780Y008759D02*
X036822Y008759D01*
X037020Y008601D02*
X035847Y008601D01*
X036006Y008442D02*
X037301Y008442D01*
X037140Y008505D02*
X037140Y008505D01*
X036162Y008284D02*
X039500Y008284D01*
X039500Y008125D02*
X036200Y008125D01*
X035940Y008140D02*
X035940Y007180D01*
X036480Y006640D01*
X036940Y006699D02*
X037431Y006699D01*
X037470Y006857D02*
X036913Y006857D01*
X036755Y007016D02*
X037094Y007016D01*
X036970Y007174D02*
X036314Y007174D01*
X036823Y007333D02*
X036970Y007333D01*
X036970Y007491D02*
X036940Y007491D01*
X036940Y007650D02*
X037099Y007650D01*
X036940Y007808D02*
X039500Y007808D01*
X039500Y007650D02*
X038761Y007650D01*
X038890Y007491D02*
X039500Y007491D01*
X039500Y007333D02*
X038890Y007333D01*
X039236Y007174D02*
X039500Y007174D01*
X039500Y007016D02*
X039390Y007016D01*
X039390Y006857D02*
X039500Y006857D01*
X039500Y006699D02*
X039390Y006699D01*
X039291Y006540D02*
X039500Y006540D01*
X039500Y006382D02*
X039132Y006382D01*
X039500Y006223D02*
X037691Y006223D01*
X037532Y006065D02*
X039500Y006065D01*
X039500Y005906D02*
X037374Y005906D01*
X037160Y006060D02*
X037930Y006830D01*
X038390Y006857D02*
X038470Y006857D01*
X038470Y006699D02*
X038390Y006699D01*
X038291Y006540D02*
X038569Y006540D01*
X038728Y006382D02*
X038132Y006382D01*
X037272Y006540D02*
X036940Y006540D01*
X036872Y006382D02*
X037114Y006382D01*
X037160Y006060D02*
X036260Y006060D01*
X035860Y006460D01*
X035540Y006780D01*
X035380Y006940D01*
X035320Y007000D01*
X035320Y007860D01*
X034860Y007808D02*
X034140Y007808D01*
X034120Y007650D02*
X034880Y007650D01*
X035038Y007491D02*
X033962Y007491D01*
X033398Y007491D02*
X032962Y007491D01*
X033120Y007650D02*
X033240Y007650D01*
X033220Y007808D02*
X033140Y007808D01*
X033140Y007860D02*
X032680Y007860D01*
X033140Y007860D01*
X033140Y007967D02*
X033220Y007967D01*
X032680Y007860D02*
X032680Y007860D01*
X032680Y007400D01*
X032680Y007860D01*
X032680Y007860D01*
X032680Y007808D02*
X032680Y007808D01*
X032680Y007650D02*
X032680Y007650D01*
X032680Y007491D02*
X032680Y007491D01*
X032180Y007580D02*
X031940Y007340D01*
X031380Y007340D01*
X031140Y007100D01*
X030480Y007174D02*
X028163Y007174D01*
X028240Y007016D02*
X030480Y007016D01*
X030493Y006857D02*
X028237Y006857D01*
X028156Y006699D02*
X030614Y006699D01*
X030772Y006540D02*
X025908Y006540D01*
X026066Y006699D02*
X027364Y006699D01*
X027175Y006857D02*
X026225Y006857D01*
X026383Y007016D02*
X027017Y007016D01*
X026858Y007174D02*
X026711Y007174D01*
X026420Y007420D02*
X024340Y005340D01*
X024020Y005020D01*
X023460Y005020D01*
X022980Y005500D01*
X022820Y005660D01*
X022320Y006160D01*
X022100Y006160D01*
X022320Y006160D01*
X022100Y006160D01*
X020980Y006160D01*
X019720Y006160D01*
X019700Y006140D01*
X019323Y006223D02*
X019320Y006223D01*
X019320Y006065D02*
X019320Y006065D01*
X019342Y005906D02*
X019397Y005906D01*
X019500Y005748D02*
X021185Y005748D01*
X021185Y005660D02*
X021185Y005455D01*
X021475Y005165D01*
X021680Y005165D01*
X021885Y005165D01*
X022175Y005455D01*
X022175Y005660D01*
X021680Y005660D01*
X021680Y005660D01*
X021680Y005165D01*
X021680Y005660D01*
X021680Y005660D01*
X021680Y005660D01*
X021185Y005660D01*
X021185Y005589D02*
X019659Y005589D01*
X019817Y005431D02*
X021209Y005431D01*
X021368Y005272D02*
X019943Y005272D01*
X019960Y005114D02*
X022999Y005114D01*
X022840Y005272D02*
X021992Y005272D01*
X022151Y005431D02*
X022682Y005431D01*
X022523Y005589D02*
X022175Y005589D01*
X022175Y005748D02*
X022365Y005748D01*
X021680Y005589D02*
X021680Y005589D01*
X021680Y005431D02*
X021680Y005431D01*
X021680Y005272D02*
X021680Y005272D01*
X023157Y004955D02*
X019960Y004955D01*
X019960Y004797D02*
X023320Y004797D01*
X024160Y004797D02*
X024690Y004797D01*
X024848Y004955D02*
X024323Y004955D01*
X024481Y005114D02*
X025007Y005114D01*
X024120Y005487D02*
X024080Y005448D01*
X024080Y005576D01*
X024022Y005715D01*
X023915Y005822D01*
X023846Y005851D01*
X022927Y006770D01*
X022806Y006820D01*
X022116Y006820D01*
X022175Y006962D01*
X022175Y007158D01*
X022100Y007340D01*
X022010Y007430D01*
X022010Y009955D01*
X022121Y010065D01*
X022200Y010257D01*
X022200Y010323D01*
X022225Y010298D01*
X022364Y010240D01*
X022516Y010240D01*
X022655Y010298D01*
X022762Y010405D01*
X022820Y010544D01*
X022820Y010696D01*
X022762Y010835D01*
X022655Y010942D01*
X022516Y011000D01*
X022408Y011000D01*
X022320Y011087D01*
X022248Y011160D01*
X023801Y011160D01*
X023700Y011059D01*
X023700Y010661D01*
X022820Y010661D01*
X022803Y010503D02*
X023859Y010503D01*
X023981Y010380D02*
X023700Y010661D01*
X023700Y010820D02*
X022769Y010820D01*
X022569Y010978D02*
X023700Y010978D01*
X023778Y011137D02*
X022271Y011137D01*
X022100Y010940D02*
X021460Y010940D01*
X020820Y010300D01*
X020820Y009500D01*
X022010Y009552D02*
X023810Y009552D01*
X023700Y009661D02*
X023981Y009380D01*
X024379Y009380D01*
X024660Y009661D01*
X024660Y010059D01*
X024379Y010340D01*
X023981Y010340D01*
X023700Y010059D01*
X023700Y009661D01*
X023700Y009710D02*
X022010Y009710D01*
X022010Y009869D02*
X023700Y009869D01*
X023700Y010027D02*
X022082Y010027D01*
X022171Y010186D02*
X023827Y010186D01*
X023981Y010380D02*
X024379Y010380D01*
X024660Y010661D01*
X024700Y010661D01*
X024981Y010380D01*
X025379Y010380D01*
X025660Y010661D01*
X025700Y010661D01*
X025981Y010380D01*
X026379Y010380D01*
X026446Y010447D01*
X026680Y010213D01*
X026680Y010213D01*
X026753Y010140D01*
X026773Y010131D01*
X026700Y010059D01*
X026700Y009661D01*
X026920Y009441D01*
X026920Y008248D01*
X026440Y008728D01*
X026440Y009441D01*
X026660Y009661D01*
X026660Y010059D01*
X026379Y010340D01*
X025981Y010340D01*
X025700Y010059D01*
X025700Y009661D01*
X025920Y009441D01*
X025920Y008848D01*
X025440Y009328D01*
X025440Y009441D01*
X025660Y009661D01*
X025660Y010059D01*
X025379Y010340D01*
X024981Y010340D01*
X024700Y010059D01*
X024700Y009661D01*
X024920Y009441D01*
X024920Y009168D01*
X024960Y009073D01*
X026265Y007767D01*
X026205Y007742D01*
X026098Y007635D01*
X026040Y007496D01*
X026040Y007408D01*
X024120Y005487D01*
X024074Y005589D02*
X024221Y005589D01*
X024380Y005748D02*
X023990Y005748D01*
X023791Y005906D02*
X024538Y005906D01*
X024697Y006065D02*
X023632Y006065D01*
X023474Y006223D02*
X024855Y006223D01*
X025014Y006382D02*
X023315Y006382D01*
X023157Y006540D02*
X025172Y006540D01*
X025331Y006699D02*
X022998Y006699D01*
X022132Y006857D02*
X025489Y006857D01*
X025648Y007016D02*
X022175Y007016D01*
X022169Y007174D02*
X025806Y007174D01*
X025965Y007333D02*
X022103Y007333D01*
X022010Y007491D02*
X026040Y007491D01*
X026112Y007650D02*
X022010Y007650D01*
X022010Y007808D02*
X026224Y007808D01*
X026066Y007967D02*
X022010Y007967D01*
X022010Y008125D02*
X025907Y008125D01*
X025749Y008284D02*
X022010Y008284D01*
X022010Y008442D02*
X025590Y008442D01*
X025432Y008601D02*
X022010Y008601D01*
X022010Y008759D02*
X025273Y008759D01*
X025115Y008918D02*
X022010Y008918D01*
X022010Y009076D02*
X024958Y009076D01*
X024920Y009235D02*
X022010Y009235D01*
X022010Y009393D02*
X023968Y009393D01*
X024392Y009393D02*
X024920Y009393D01*
X024810Y009552D02*
X024550Y009552D01*
X024660Y009710D02*
X024700Y009710D01*
X024700Y009869D02*
X024660Y009869D01*
X024660Y010027D02*
X024700Y010027D01*
X024827Y010186D02*
X024533Y010186D01*
X024501Y010503D02*
X024859Y010503D01*
X024700Y010661D02*
X024700Y011059D01*
X024801Y011160D01*
X024559Y011160D01*
X024660Y011059D01*
X024660Y010661D01*
X024660Y010820D02*
X024700Y010820D01*
X024700Y010978D02*
X024660Y010978D01*
X024582Y011137D02*
X024778Y011137D01*
X025559Y011160D02*
X025801Y011160D01*
X025700Y011059D01*
X025700Y010661D01*
X025660Y010661D02*
X025660Y011059D01*
X025559Y011160D01*
X025582Y011137D02*
X025778Y011137D01*
X025700Y010978D02*
X025660Y010978D01*
X025660Y010820D02*
X025700Y010820D01*
X026180Y010860D02*
X026400Y010860D01*
X026900Y010360D01*
X027460Y010360D01*
X027700Y010140D01*
X027700Y009500D01*
X029620Y007660D01*
X029940Y007660D01*
X030320Y007650D02*
X030762Y007650D01*
X030920Y007808D02*
X030452Y007808D01*
X030599Y007967D02*
X030960Y007967D01*
X030960Y008125D02*
X030640Y008125D01*
X030612Y008284D02*
X030960Y008284D01*
X030960Y008442D02*
X030495Y008442D01*
X030025Y008442D02*
X029846Y008442D01*
X029687Y008601D02*
X030960Y008601D01*
X030953Y008759D02*
X029529Y008759D01*
X029370Y008918D02*
X030795Y008918D01*
X030636Y009076D02*
X029212Y009076D01*
X029053Y009235D02*
X030478Y009235D01*
X029968Y009393D02*
X029392Y009393D01*
X029550Y009552D02*
X029810Y009552D01*
X029700Y009710D02*
X029660Y009710D01*
X029180Y009860D02*
X028680Y010360D01*
X027960Y010360D01*
X027700Y010620D01*
X027700Y011100D01*
X027380Y011420D01*
X021460Y011420D01*
X020180Y010140D01*
X019853Y010344D02*
X019683Y010344D01*
X019524Y010503D02*
X020062Y010503D01*
X020333Y010661D02*
X019366Y010661D01*
X019207Y010820D02*
X020492Y010820D01*
X020650Y010978D02*
X019049Y010978D01*
X018890Y011137D02*
X020809Y011137D01*
X020967Y011295D02*
X018710Y011295D01*
X021126Y011454D02*
X004101Y011454D01*
X004169Y011295D02*
X011136Y011295D01*
X011624Y011295D02*
X012136Y011295D01*
X012624Y011295D02*
X013136Y011295D01*
X013624Y011295D02*
X014136Y011295D01*
X014624Y011295D02*
X015890Y011295D01*
X013027Y010186D02*
X012733Y010186D01*
X012860Y010027D02*
X012900Y010027D01*
X012900Y009869D02*
X012860Y009869D01*
X013380Y009860D02*
X013380Y009900D01*
X013860Y009869D02*
X013900Y009869D01*
X013900Y009710D02*
X013860Y009710D01*
X013750Y009552D02*
X014010Y009552D01*
X014168Y009393D02*
X013592Y009393D01*
X013168Y009393D02*
X012592Y009393D01*
X012750Y009552D02*
X013010Y009552D01*
X012900Y009710D02*
X012860Y009710D01*
X014339Y009235D02*
X009140Y009235D01*
X009751Y009076D02*
X009761Y009076D01*
X010399Y009076D02*
X013761Y009076D01*
X013624Y008918D02*
X010536Y008918D01*
X010600Y008759D02*
X013560Y008759D01*
X013554Y008601D02*
X010600Y008601D01*
X010553Y008442D02*
X013395Y008442D01*
X013237Y008284D02*
X010439Y008284D01*
X010744Y008125D02*
X010010Y008125D01*
X010010Y007967D02*
X010551Y007967D01*
X010478Y007808D02*
X010010Y007808D01*
X010041Y007650D02*
X010460Y007650D01*
X010487Y007491D02*
X010140Y007491D01*
X010140Y007333D02*
X010572Y007333D01*
X010794Y007174D02*
X010140Y007174D01*
X009986Y007016D02*
X011350Y007016D01*
X011350Y007174D02*
X011166Y007174D01*
X012010Y007174D02*
X014650Y007174D01*
X014650Y007016D02*
X012010Y007016D01*
X012010Y006857D02*
X014650Y006857D01*
X014650Y006699D02*
X012041Y006699D01*
X012141Y006540D02*
X014650Y006540D01*
X014650Y006382D02*
X014254Y006382D01*
X014465Y006223D02*
X014650Y006223D01*
X013946Y006382D02*
X012175Y006382D01*
X011275Y006065D02*
X010590Y006065D01*
X010590Y006223D02*
X011201Y006223D01*
X011185Y006382D02*
X010583Y006382D01*
X010530Y006540D02*
X011219Y006540D01*
X011319Y006699D02*
X010467Y006699D01*
X010265Y006857D02*
X011350Y006857D01*
X009935Y006857D02*
X009910Y006857D01*
X010590Y005906D02*
X011482Y005906D01*
X011368Y005748D02*
X010590Y005748D01*
X010590Y005589D02*
X011209Y005589D01*
X011185Y005431D02*
X010590Y005431D01*
X010590Y005272D02*
X011185Y005272D01*
X011226Y005114D02*
X010590Y005114D01*
X010590Y004955D02*
X011385Y004955D01*
X011239Y004638D02*
X013736Y004638D01*
X013685Y004797D02*
X010590Y004797D01*
X010590Y004638D02*
X010721Y004638D01*
X011975Y004955D02*
X013685Y004955D01*
X013749Y005114D02*
X012134Y005114D01*
X012175Y005272D02*
X013850Y005272D01*
X013893Y005431D02*
X012217Y005431D01*
X012376Y005589D02*
X013920Y005589D01*
X008780Y005431D02*
X008780Y005431D01*
X008559Y005431D02*
X008540Y005431D01*
X007259Y005589D02*
X006101Y005589D01*
X005947Y005906D02*
X000360Y005906D01*
X000360Y006065D02*
X005947Y006065D01*
X005947Y006223D02*
X000360Y006223D01*
X000360Y006382D02*
X005947Y006382D01*
X005947Y006540D02*
X000360Y006540D01*
X002560Y007016D02*
X002600Y007016D01*
X002600Y007174D02*
X002560Y007174D01*
X002560Y007333D02*
X002600Y007333D01*
X002600Y007491D02*
X002560Y007491D01*
X002560Y007650D02*
X002600Y007650D01*
X003270Y007967D02*
X000360Y007967D01*
X000360Y008125D02*
X003328Y008125D01*
X003502Y008284D02*
X000360Y008284D01*
X000360Y008442D02*
X001201Y008442D01*
X001040Y008505D02*
X001040Y008505D01*
X000920Y008601D02*
X000360Y008601D01*
X000360Y008759D02*
X000722Y008759D01*
X000580Y008918D02*
X000360Y008918D01*
X000360Y009076D02*
X000472Y009076D01*
X000366Y009231D02*
X000366Y009231D01*
X000365Y009235D02*
X000360Y009235D01*
X002573Y008442D02*
X003775Y008442D01*
X003934Y008601D02*
X002848Y008601D01*
X002927Y008647D02*
X002927Y008647D01*
X002927Y008647D01*
X003032Y008759D02*
X004092Y008759D01*
X004251Y008918D02*
X003179Y008918D01*
X003268Y009014D02*
X003268Y009014D01*
X003298Y009076D02*
X004409Y009076D01*
X005290Y009235D02*
X003374Y009235D01*
X004871Y009900D02*
X005140Y010169D01*
X005140Y010551D01*
X004871Y010820D01*
X005489Y010820D02*
X005871Y010820D01*
X006029Y010661D02*
X007915Y010661D01*
X007915Y010503D02*
X006140Y010503D01*
X006140Y010344D02*
X007915Y010344D01*
X007966Y010186D02*
X006140Y010186D01*
X005220Y010186D02*
X005140Y010186D01*
X005140Y010344D02*
X005220Y010344D01*
X005220Y010503D02*
X005140Y010503D01*
X005029Y010661D02*
X005331Y010661D01*
X004331Y010661D02*
X003386Y010661D01*
X003463Y010503D02*
X004220Y010503D01*
X004220Y010344D02*
X003502Y010344D01*
X003526Y010186D02*
X004220Y010186D01*
X004362Y010027D02*
X003550Y010027D01*
X003331Y010820D02*
X003310Y010820D01*
X005950Y009235D02*
X008220Y009235D01*
X009140Y008442D02*
X009350Y008442D01*
X011216Y008125D02*
X013078Y008125D01*
X013853Y007967D02*
X014551Y007967D01*
X014744Y008125D02*
X014012Y008125D01*
X014439Y008284D02*
X015868Y008284D01*
X015727Y008125D02*
X015216Y008125D01*
X015497Y008442D02*
X016131Y008442D01*
X014863Y008442D02*
X014553Y008442D01*
X014600Y008601D02*
X014725Y008601D01*
X014660Y008759D02*
X014600Y008759D01*
X014656Y008918D02*
X014536Y008918D01*
X014497Y009076D02*
X014399Y009076D01*
X014478Y007808D02*
X013695Y007808D01*
X013536Y007650D02*
X014460Y007650D01*
X014487Y007491D02*
X013378Y007491D01*
X013152Y007333D02*
X014572Y007333D01*
X019320Y007333D02*
X020650Y007333D01*
X020650Y007174D02*
X019320Y007174D01*
X019320Y007016D02*
X020650Y007016D01*
X020650Y006857D02*
X019320Y006857D01*
X019320Y006699D02*
X020657Y006699D01*
X020753Y006540D02*
X019320Y006540D01*
X019320Y006382D02*
X019404Y006382D01*
X019320Y007491D02*
X019814Y007491D01*
X019704Y007650D02*
X019320Y007650D01*
X019336Y007808D02*
X019660Y007808D01*
X019661Y007967D02*
X019494Y007967D01*
X019653Y008125D02*
X019727Y008125D01*
X019811Y008284D02*
X019868Y008284D01*
X019840Y008313D02*
X019840Y008313D01*
X020492Y008284D02*
X020650Y008284D01*
X020633Y008125D02*
X020650Y008125D01*
X020650Y007491D02*
X020546Y007491D01*
X025432Y006065D02*
X032234Y006065D01*
X033140Y006060D02*
X033140Y005660D01*
X032993Y005440D02*
X032993Y005440D01*
X033002Y005431D02*
X032901Y005431D01*
X032898Y005272D02*
X033160Y005272D01*
X033057Y005114D02*
X033319Y005114D01*
X032660Y005114D02*
X032660Y005114D01*
X032660Y005272D02*
X032660Y005272D01*
X032680Y005431D02*
X032680Y005431D01*
X032459Y005431D02*
X030556Y005431D01*
X030898Y005272D02*
X032421Y005272D01*
X032263Y005114D02*
X031057Y005114D01*
X030098Y004955D02*
X027928Y004955D01*
X028058Y004797D02*
X030200Y004797D01*
X030231Y004638D02*
X028098Y004638D01*
X027472Y004955D02*
X027368Y004955D01*
X024531Y004638D02*
X019960Y004638D01*
X019960Y004480D02*
X024373Y004480D01*
X024214Y004321D02*
X019960Y004321D01*
X019960Y004163D02*
X024056Y004163D01*
X023897Y004004D02*
X019960Y004004D01*
X019960Y003846D02*
X023739Y003846D01*
X023580Y003687D02*
X019960Y003687D01*
X019960Y003529D02*
X023422Y003529D01*
X023263Y003370D02*
X019858Y003370D01*
X019699Y003212D02*
X023105Y003212D01*
X023132Y001785D02*
X022953Y001785D01*
X022344Y001785D02*
X022165Y001785D01*
X021557Y001785D02*
X021378Y001785D01*
X020769Y001785D02*
X020591Y001785D01*
X019982Y001785D02*
X019803Y001785D01*
X019195Y001785D02*
X019016Y001785D01*
X018407Y001785D02*
X018228Y001785D01*
X017620Y001785D02*
X017441Y001785D01*
X016832Y001785D02*
X016654Y001785D01*
X016045Y001785D02*
X015866Y001785D01*
X015258Y001785D02*
X015079Y001785D01*
X014470Y001785D02*
X014291Y001785D01*
X013683Y001785D02*
X013504Y001785D01*
X012895Y001785D02*
X012717Y001785D01*
X012108Y001785D02*
X011929Y001785D01*
X011321Y001785D02*
X010354Y001785D01*
X009746Y001785D02*
X009567Y001785D01*
X010470Y001627D02*
X011205Y001627D01*
X011165Y001468D02*
X010510Y001468D01*
X010494Y001310D02*
X011181Y001310D01*
X011262Y001151D02*
X010413Y001151D01*
X009125Y000834D02*
X030619Y000834D01*
X029372Y001151D02*
X029311Y001151D01*
X028585Y001151D02*
X028523Y001151D01*
X027797Y001151D02*
X027736Y001151D01*
X027010Y001151D02*
X026948Y001151D01*
X026223Y001151D02*
X026161Y001151D01*
X025435Y001151D02*
X025374Y001151D01*
X024648Y001151D02*
X024586Y001151D01*
X023860Y001151D02*
X023799Y001151D01*
X023073Y001151D02*
X023011Y001151D01*
X022286Y001151D02*
X022224Y001151D01*
X021498Y001151D02*
X021437Y001151D01*
X020711Y001151D02*
X020649Y001151D01*
X019923Y001151D02*
X019862Y001151D01*
X019136Y001151D02*
X019074Y001151D01*
X018349Y001151D02*
X018287Y001151D01*
X017561Y001151D02*
X017500Y001151D01*
X016774Y001151D02*
X016712Y001151D01*
X015986Y001151D02*
X015925Y001151D01*
X015199Y001151D02*
X015137Y001151D01*
X014412Y001151D02*
X014350Y001151D01*
X013624Y001151D02*
X013563Y001151D01*
X012837Y001151D02*
X012775Y001151D01*
X012049Y001151D02*
X011988Y001151D01*
X005680Y004638D02*
X005680Y004638D01*
X005680Y004797D02*
X005680Y004797D01*
X005466Y004797D02*
X003971Y004797D01*
X004130Y004638D02*
X005307Y004638D01*
X005434Y004955D02*
X003260Y004955D01*
X003109Y005114D02*
X005276Y005114D01*
X005220Y005272D02*
X002950Y005272D01*
X007877Y005906D02*
X007880Y005906D01*
X002006Y008285D02*
X002006Y008285D01*
X002494Y008396D02*
X002494Y008396D01*
X022100Y010940D02*
X022420Y010620D01*
X022440Y010620D01*
X022701Y010344D02*
X026548Y010344D01*
X026533Y010186D02*
X026707Y010186D01*
X026700Y010027D02*
X026660Y010027D01*
X026660Y009869D02*
X026700Y009869D01*
X026180Y009860D02*
X026180Y008620D01*
X027380Y007420D01*
X027700Y007420D01*
X028075Y007333D02*
X029738Y007333D01*
X030142Y007333D02*
X030489Y007333D01*
X030603Y007491D02*
X030281Y007491D01*
X029421Y007491D02*
X028080Y007491D01*
X028008Y007650D02*
X029255Y007650D01*
X029090Y007808D02*
X027913Y007808D01*
X027540Y007900D02*
X027180Y008260D01*
X027180Y009860D01*
X026810Y009552D02*
X026550Y009552D01*
X026660Y009710D02*
X026700Y009710D01*
X026920Y009393D02*
X026440Y009393D01*
X025920Y009393D02*
X025440Y009393D01*
X025550Y009552D02*
X025810Y009552D01*
X025700Y009710D02*
X025660Y009710D01*
X025180Y009860D02*
X025180Y009220D01*
X027460Y006940D01*
X027860Y006940D01*
X025749Y006382D02*
X030931Y006382D01*
X031089Y006223D02*
X025591Y006223D01*
X027920Y007967D02*
X028924Y007967D01*
X028759Y008125D02*
X027852Y008125D01*
X027524Y008284D02*
X028594Y008284D01*
X028428Y008442D02*
X027440Y008442D01*
X027440Y008601D02*
X028263Y008601D01*
X028097Y008759D02*
X027440Y008759D01*
X026920Y008759D02*
X026440Y008759D01*
X026567Y008601D02*
X026920Y008601D01*
X026920Y008442D02*
X026726Y008442D01*
X026884Y008284D02*
X026920Y008284D01*
X026920Y008918D02*
X026440Y008918D01*
X026440Y009076D02*
X026920Y009076D01*
X026920Y009235D02*
X026440Y009235D01*
X025920Y009235D02*
X025533Y009235D01*
X025692Y009076D02*
X025920Y009076D01*
X025920Y008918D02*
X025850Y008918D01*
X027440Y008918D02*
X027932Y008918D01*
X027767Y009076D02*
X027440Y009076D01*
X027440Y009235D02*
X027601Y009235D01*
X027463Y009393D02*
X027440Y009393D01*
X028180Y009740D02*
X029780Y008140D01*
X030260Y008140D01*
X031480Y008442D02*
X032034Y008442D01*
X032193Y008601D02*
X031480Y008601D01*
X031480Y008759D02*
X032294Y008759D01*
X032136Y008918D02*
X031478Y008918D01*
X031372Y009076D02*
X031977Y009076D01*
X031819Y009235D02*
X031213Y009235D01*
X031055Y009393D02*
X031660Y009393D01*
X031502Y009552D02*
X030896Y009552D01*
X030887Y009560D02*
X030887Y009560D01*
X030738Y009710D02*
X031343Y009710D01*
X032752Y009235D02*
X033404Y009235D01*
X033956Y009235D02*
X035044Y009235D01*
X034886Y009076D02*
X034114Y009076D01*
X034140Y008918D02*
X034860Y008918D01*
X034860Y008759D02*
X034140Y008759D01*
X034900Y008380D02*
X035700Y008380D01*
X035940Y008140D01*
X036804Y007967D02*
X039500Y007967D01*
X038430Y007650D02*
X038430Y007650D01*
X038430Y007491D02*
X038430Y007491D01*
X038099Y007650D02*
X037761Y007650D01*
X037890Y007491D02*
X037970Y007491D01*
X037970Y007333D02*
X037890Y007333D01*
X038430Y007333D02*
X038430Y007333D01*
X038430Y007174D02*
X038430Y007174D01*
X038430Y007016D02*
X038430Y007016D01*
X035729Y006223D02*
X035413Y006223D01*
X035413Y006065D02*
X035888Y006065D01*
X036046Y005906D02*
X035413Y005906D01*
X035499Y005748D02*
X039500Y005748D01*
X039500Y005589D02*
X035587Y005589D01*
X035571Y006382D02*
X035413Y006382D01*
X034293Y006540D02*
X033511Y006540D01*
X033640Y006699D02*
X034293Y006699D01*
X034336Y006857D02*
X033640Y006857D01*
X033180Y006857D02*
X033180Y006857D01*
X033180Y006699D02*
X033180Y006699D01*
X033180Y006540D02*
X033180Y006540D01*
X032720Y006699D02*
X032640Y006699D01*
X032640Y006857D02*
X032720Y006857D01*
X032720Y007016D02*
X032640Y007016D01*
X032516Y007174D02*
X032844Y007174D01*
X033180Y007174D02*
X033180Y007174D01*
X033180Y007016D02*
X033180Y007016D01*
X033516Y007174D02*
X035060Y007174D01*
X035060Y007016D02*
X033640Y007016D01*
X032300Y007333D02*
X035060Y007333D01*
X034860Y007967D02*
X034140Y007967D01*
X034900Y008380D02*
X032340Y008380D01*
X032180Y008220D01*
X032180Y007580D01*
X031925Y008284D02*
X031907Y008284D01*
X028968Y009393D02*
X028895Y009393D01*
X028810Y009552D02*
X028736Y009552D01*
X028700Y009710D02*
X028660Y009710D01*
X028180Y009740D02*
X028180Y009820D01*
X028180Y009860D01*
X028660Y009869D02*
X028700Y009869D01*
X029533Y010186D02*
X029827Y010186D01*
X029700Y010027D02*
X029660Y010027D01*
X029660Y009869D02*
X029700Y009869D01*
X028748Y010613D02*
X028732Y010620D01*
X028619Y010620D01*
X028660Y010661D01*
X028700Y010661D02*
X028748Y010613D01*
X028700Y010820D02*
X028660Y010820D01*
X028660Y010978D02*
X028700Y010978D01*
X028778Y011137D02*
X028582Y011137D01*
X028424Y011295D02*
X028936Y011295D01*
X029170Y011295D02*
X029190Y011295D01*
X029190Y011340D02*
X029190Y010870D01*
X029660Y010870D01*
X029660Y011059D01*
X029379Y011340D01*
X029190Y011340D01*
X029424Y011295D02*
X029936Y011295D01*
X030424Y011295D02*
X036990Y011295D01*
X037140Y011415D02*
X037140Y011415D01*
X037238Y011454D02*
X027714Y011454D01*
X027873Y011295D02*
X027936Y011295D01*
X029170Y011137D02*
X029190Y011137D01*
X029190Y010978D02*
X029170Y010978D01*
X029170Y010820D02*
X029190Y010820D01*
X029660Y010820D02*
X029700Y010820D01*
X029700Y010978D02*
X029660Y010978D01*
X029582Y011137D02*
X029778Y011137D01*
X030850Y011137D02*
X032325Y011137D01*
X032325Y010978D02*
X031009Y010978D01*
X031167Y010820D02*
X032325Y010820D01*
X033445Y010820D02*
X036555Y010820D01*
X036663Y010978D02*
X033445Y010978D01*
X033445Y011137D02*
X036791Y011137D01*
X036748Y011103D02*
X036748Y011103D01*
X036466Y010689D02*
X036466Y010689D01*
X036458Y010661D02*
X033445Y010661D01*
X033445Y010503D02*
X036409Y010503D01*
X036360Y010344D02*
X033445Y010344D01*
X033394Y010186D02*
X033855Y010186D01*
X034505Y010186D02*
X034855Y010186D01*
X034720Y010027D02*
X034640Y010027D01*
X034640Y009869D02*
X034720Y009869D01*
X034720Y009710D02*
X034640Y009710D01*
X034522Y009552D02*
X034838Y009552D01*
X035640Y009869D02*
X036319Y009869D01*
X036319Y010027D02*
X035640Y010027D01*
X035505Y010186D02*
X036319Y010186D01*
X039474Y009235D02*
X039500Y009235D01*
X039500Y009076D02*
X039398Y009076D01*
X039368Y009014D02*
X039368Y009014D01*
X039279Y008918D02*
X039500Y008918D01*
X039500Y008759D02*
X039132Y008759D01*
X038948Y008601D02*
X039500Y008601D01*
X039500Y008442D02*
X038673Y008442D01*
X025827Y010186D02*
X025533Y010186D01*
X025660Y010027D02*
X025700Y010027D01*
X025700Y009869D02*
X025660Y009869D01*
X025501Y010503D02*
X025859Y010503D01*
X031510Y004004D02*
X031853Y004004D01*
X031720Y003846D02*
X031510Y003846D01*
X031510Y003687D02*
X031720Y003687D01*
X031720Y003529D02*
X031510Y003529D01*
X031510Y003370D02*
X031839Y003370D01*
X032640Y003687D02*
X033720Y003687D01*
X033720Y003846D02*
X032640Y003846D01*
X032507Y004004D02*
X033853Y004004D01*
X037606Y003498D02*
X037606Y003498D01*
X036463Y002578D02*
X033745Y002578D01*
X033838Y002419D02*
X036414Y002419D01*
X036365Y002261D02*
X033838Y002261D01*
X033838Y002102D02*
X036319Y002102D01*
X036319Y002110D02*
X036319Y002110D01*
X036319Y001944D02*
X033838Y001944D01*
X033838Y001785D02*
X034737Y001785D01*
X035383Y001785D02*
X036319Y001785D01*
X036319Y001627D02*
X035473Y001627D01*
X035490Y001468D02*
X036362Y001468D01*
X036411Y001310D02*
X035447Y001310D01*
X035319Y001151D02*
X036014Y001151D01*
X035789Y000993D02*
X035019Y000993D01*
X034861Y000834D02*
X035703Y000834D01*
X035681Y000676D02*
X034702Y000676D01*
X034539Y000517D02*
X035707Y000517D01*
X036346Y001151D02*
X036460Y001151D01*
X036466Y001131D02*
X036466Y001131D01*
X034647Y001627D02*
X033838Y001627D01*
X034403Y001310D02*
X032542Y001310D01*
X032557Y001468D02*
X034561Y001468D01*
X034244Y001151D02*
X032460Y001151D01*
X032517Y001627D02*
X032718Y001627D01*
X032718Y001785D02*
X032402Y001785D01*
X031793Y001785D02*
X031614Y001785D01*
X029431Y001785D02*
X029252Y001785D01*
X028643Y001785D02*
X028465Y001785D01*
X027856Y001785D02*
X027677Y001785D01*
X027069Y001785D02*
X026890Y001785D01*
X026281Y001785D02*
X026102Y001785D01*
D28*
X027700Y004620D03*
X027060Y004700D03*
X026420Y004700D03*
M02*
