G75*
G70*
%OFA0B0*%
%FSLAX24Y24*%
%IPPOS*%
%LPD*%
%AMOC8*
5,1,8,0,0,1.08239X$1,22.5*
%
%ADD10C,0.0060*%
%ADD11C,0.0050*%
%ADD12C,0.0100*%
%ADD13C,0.0240*%
%ADD14C,0.0080*%
%ADD15R,0.0200X0.1000*%
%ADD16R,0.0750X0.0300*%
%ADD17C,0.0120*%
%ADD18C,0.0040*%
D10*
X003460Y000760D02*
X003462Y000804D01*
X003468Y000848D01*
X003478Y000891D01*
X003491Y000933D01*
X003508Y000974D01*
X003529Y001013D01*
X003553Y001050D01*
X003580Y001085D01*
X003610Y001117D01*
X003643Y001147D01*
X003679Y001173D01*
X003716Y001197D01*
X003756Y001216D01*
X003797Y001233D01*
X003840Y001245D01*
X003883Y001254D01*
X003927Y001259D01*
X003971Y001260D01*
X004015Y001257D01*
X004059Y001250D01*
X004102Y001239D01*
X004144Y001225D01*
X004184Y001207D01*
X004223Y001185D01*
X004259Y001161D01*
X004293Y001133D01*
X004325Y001102D01*
X004354Y001068D01*
X004380Y001032D01*
X004402Y000994D01*
X004421Y000954D01*
X004436Y000912D01*
X004448Y000870D01*
X004456Y000826D01*
X004460Y000782D01*
X004460Y000738D01*
X004456Y000694D01*
X004448Y000650D01*
X004436Y000608D01*
X004421Y000566D01*
X004402Y000526D01*
X004380Y000488D01*
X004354Y000452D01*
X004325Y000418D01*
X004293Y000387D01*
X004259Y000359D01*
X004223Y000335D01*
X004184Y000313D01*
X004144Y000295D01*
X004102Y000281D01*
X004059Y000270D01*
X004015Y000263D01*
X003971Y000260D01*
X003927Y000261D01*
X003883Y000266D01*
X003840Y000275D01*
X003797Y000287D01*
X003756Y000304D01*
X003716Y000323D01*
X003679Y000347D01*
X003643Y000373D01*
X003610Y000403D01*
X003580Y000435D01*
X003553Y000470D01*
X003529Y000507D01*
X003508Y000546D01*
X003491Y000587D01*
X003478Y000629D01*
X003468Y000672D01*
X003462Y000716D01*
X003460Y000760D01*
X000530Y001860D02*
X000532Y001933D01*
X000538Y002006D01*
X000548Y002078D01*
X000562Y002150D01*
X000579Y002221D01*
X000601Y002291D01*
X000626Y002360D01*
X000655Y002427D01*
X000687Y002492D01*
X000723Y002556D01*
X000763Y002618D01*
X000805Y002677D01*
X000851Y002734D01*
X000900Y002788D01*
X000952Y002840D01*
X001006Y002889D01*
X001063Y002935D01*
X001122Y002977D01*
X001184Y003017D01*
X001248Y003053D01*
X001313Y003085D01*
X001380Y003114D01*
X001449Y003139D01*
X001519Y003161D01*
X001590Y003178D01*
X001662Y003192D01*
X001734Y003202D01*
X001807Y003208D01*
X001880Y003210D01*
X001953Y003208D01*
X002026Y003202D01*
X002098Y003192D01*
X002170Y003178D01*
X002241Y003161D01*
X002311Y003139D01*
X002380Y003114D01*
X002447Y003085D01*
X002512Y003053D01*
X002576Y003017D01*
X002638Y002977D01*
X002697Y002935D01*
X002754Y002889D01*
X002808Y002840D01*
X002860Y002788D01*
X002909Y002734D01*
X002955Y002677D01*
X002997Y002618D01*
X003037Y002556D01*
X003073Y002492D01*
X003105Y002427D01*
X003134Y002360D01*
X003159Y002291D01*
X003181Y002221D01*
X003198Y002150D01*
X003212Y002078D01*
X003222Y002006D01*
X003228Y001933D01*
X003230Y001860D01*
X003228Y001787D01*
X003222Y001714D01*
X003212Y001642D01*
X003198Y001570D01*
X003181Y001499D01*
X003159Y001429D01*
X003134Y001360D01*
X003105Y001293D01*
X003073Y001228D01*
X003037Y001164D01*
X002997Y001102D01*
X002955Y001043D01*
X002909Y000986D01*
X002860Y000932D01*
X002808Y000880D01*
X002754Y000831D01*
X002697Y000785D01*
X002638Y000743D01*
X002576Y000703D01*
X002512Y000667D01*
X002447Y000635D01*
X002380Y000606D01*
X002311Y000581D01*
X002241Y000559D01*
X002170Y000542D01*
X002098Y000528D01*
X002026Y000518D01*
X001953Y000512D01*
X001880Y000510D01*
X001807Y000512D01*
X001734Y000518D01*
X001662Y000528D01*
X001590Y000542D01*
X001519Y000559D01*
X001449Y000581D01*
X001380Y000606D01*
X001313Y000635D01*
X001248Y000667D01*
X001184Y000703D01*
X001122Y000743D01*
X001063Y000785D01*
X001006Y000831D01*
X000952Y000880D01*
X000900Y000932D01*
X000851Y000986D01*
X000805Y001043D01*
X000763Y001102D01*
X000723Y001164D01*
X000687Y001228D01*
X000655Y001293D01*
X000626Y001360D01*
X000601Y001429D01*
X000579Y001499D01*
X000562Y001570D01*
X000548Y001642D01*
X000538Y001714D01*
X000532Y001787D01*
X000530Y001860D01*
X003971Y001887D02*
X003986Y001889D01*
X004001Y001893D01*
X004015Y001900D01*
X004027Y001910D01*
X004037Y001922D01*
X004044Y001936D01*
X004048Y001951D01*
X004050Y001966D01*
X004050Y002754D01*
X004052Y002770D01*
X004057Y002786D01*
X004065Y002800D01*
X004076Y002813D01*
X004089Y002822D01*
X004105Y002829D01*
X004121Y002833D01*
X004137Y002833D01*
X004153Y002829D01*
X004169Y002822D01*
X004182Y002813D01*
X004193Y002800D01*
X004201Y002786D01*
X004206Y002770D01*
X004208Y002754D01*
X004208Y002124D01*
X004207Y002124D02*
X004209Y002108D01*
X004214Y002092D01*
X004222Y002078D01*
X004233Y002065D01*
X004246Y002056D01*
X004262Y002049D01*
X004278Y002045D01*
X004294Y002045D01*
X004310Y002049D01*
X004326Y002056D01*
X004339Y002065D01*
X004350Y002078D01*
X004358Y002092D01*
X004363Y002108D01*
X004365Y002124D01*
X004365Y002517D01*
X004367Y002533D01*
X004372Y002549D01*
X004380Y002563D01*
X004391Y002576D01*
X004404Y002585D01*
X004420Y002592D01*
X004436Y002596D01*
X004452Y002596D01*
X004468Y002592D01*
X004484Y002585D01*
X004497Y002576D01*
X004508Y002563D01*
X004516Y002549D01*
X004521Y002533D01*
X004523Y002517D01*
X004523Y002281D01*
X004522Y002281D02*
X004524Y002265D01*
X004529Y002249D01*
X004537Y002235D01*
X004548Y002222D01*
X004561Y002213D01*
X004577Y002206D01*
X004593Y002202D01*
X004609Y002202D01*
X004625Y002206D01*
X004641Y002213D01*
X004654Y002222D01*
X004665Y002235D01*
X004673Y002249D01*
X004678Y002265D01*
X004680Y002281D01*
X004680Y002439D01*
X004682Y002455D01*
X004687Y002471D01*
X004695Y002485D01*
X004706Y002498D01*
X004719Y002507D01*
X004735Y002514D01*
X004751Y002518D01*
X004767Y002518D01*
X004783Y002514D01*
X004799Y002507D01*
X004812Y002498D01*
X004823Y002485D01*
X004831Y002471D01*
X004836Y002455D01*
X004838Y002439D01*
X004837Y002439D02*
X004837Y002203D01*
X004839Y002187D01*
X004844Y002171D01*
X004852Y002157D01*
X004863Y002144D01*
X004876Y002135D01*
X004892Y002128D01*
X004908Y002124D01*
X004924Y002124D01*
X004940Y002128D01*
X004956Y002135D01*
X004969Y002144D01*
X004980Y002157D01*
X004988Y002171D01*
X004993Y002187D01*
X004995Y002203D01*
X004995Y002596D01*
X004997Y002612D01*
X005002Y002628D01*
X005010Y002642D01*
X005021Y002655D01*
X005034Y002664D01*
X005050Y002671D01*
X005066Y002675D01*
X005082Y002675D01*
X005098Y002671D01*
X005114Y002664D01*
X005127Y002655D01*
X005138Y002642D01*
X005146Y002628D01*
X005151Y002612D01*
X005153Y002596D01*
X005152Y002596D02*
X005152Y002045D01*
X005154Y002029D01*
X005159Y002013D01*
X005167Y001999D01*
X005178Y001986D01*
X005191Y001977D01*
X005207Y001970D01*
X005223Y001966D01*
X005239Y001966D01*
X005255Y001970D01*
X005271Y001977D01*
X005284Y001986D01*
X005295Y001999D01*
X005303Y002013D01*
X005308Y002029D01*
X005310Y002045D01*
X005310Y002754D01*
X005312Y002769D01*
X005316Y002784D01*
X005323Y002798D01*
X005333Y002810D01*
X005345Y002820D01*
X005359Y002827D01*
X005374Y002831D01*
X005389Y002833D01*
X006900Y002423D02*
X006900Y008329D01*
X004932Y008329D01*
X004932Y008328D02*
X004893Y008330D01*
X004855Y008336D01*
X004818Y008345D01*
X004781Y008358D01*
X004746Y008375D01*
X004713Y008394D01*
X004682Y008417D01*
X004653Y008443D01*
X004627Y008472D01*
X004604Y008503D01*
X004585Y008536D01*
X004568Y008571D01*
X004555Y008608D01*
X004546Y008645D01*
X004540Y008683D01*
X004538Y008722D01*
X004538Y009069D01*
X004538Y009070D02*
X004537Y009108D01*
X004540Y009147D01*
X004547Y009185D01*
X004557Y009222D01*
X004571Y009258D01*
X004588Y009293D01*
X004608Y009326D01*
X004631Y009357D01*
X004657Y009386D01*
X004685Y009412D01*
X004716Y009436D01*
X004748Y009456D01*
X004783Y009474D01*
X004818Y009488D01*
X004855Y009499D01*
X004893Y009506D01*
X004932Y009510D01*
X006900Y009510D01*
X006900Y010297D01*
X009263Y010297D01*
X009263Y010888D01*
X009656Y010888D02*
X009656Y010297D01*
X009263Y010297D01*
X009656Y010297D02*
X010050Y010297D01*
X010050Y010888D01*
X010050Y010297D02*
X031310Y010297D01*
X031310Y010888D01*
X031704Y010888D02*
X031704Y010297D01*
X031310Y010297D01*
X031704Y010297D02*
X032097Y010297D01*
X032097Y010888D01*
X032097Y010297D02*
X034460Y010297D01*
X034460Y002423D01*
X033082Y002423D01*
X032097Y002423D01*
X032097Y002029D01*
X031310Y002029D02*
X031310Y002423D01*
X031113Y002423D01*
X030129Y002423D01*
X029735Y002423D01*
X029735Y002029D01*
X028948Y002029D02*
X028948Y002423D01*
X028160Y002423D01*
X028160Y002029D01*
X027373Y002029D02*
X027373Y002423D01*
X027176Y002423D01*
X026586Y002423D01*
X026586Y002029D01*
X025798Y002029D02*
X025798Y002423D01*
X025208Y002423D01*
X025011Y002423D01*
X025011Y002029D01*
X024223Y002029D02*
X024223Y002423D01*
X023436Y002423D01*
X023436Y002029D01*
X022649Y002029D02*
X022649Y002423D01*
X022255Y002423D01*
X021861Y002423D01*
X021861Y002029D01*
X021074Y002029D02*
X021074Y002423D01*
X020286Y002423D01*
X020286Y002029D01*
X019499Y002029D02*
X019499Y002423D01*
X019302Y002423D01*
X018711Y002423D01*
X018711Y002029D01*
X017924Y002029D02*
X017924Y002423D01*
X017334Y002423D01*
X017137Y002423D01*
X017137Y002029D01*
X016349Y002029D02*
X016349Y002423D01*
X015562Y002423D01*
X015562Y002029D01*
X014774Y002029D02*
X014774Y002423D01*
X014381Y002423D01*
X013987Y002423D01*
X013987Y002029D01*
X013200Y002029D02*
X013200Y002423D01*
X012412Y002423D01*
X012412Y002029D01*
X011625Y002029D02*
X011625Y002423D01*
X011428Y002423D01*
X010444Y002423D01*
X010050Y002423D01*
X010050Y002029D01*
X009263Y002029D02*
X009263Y002423D01*
X008475Y002423D01*
X006900Y002423D01*
X009263Y002423D02*
X009460Y002423D01*
X010050Y002423D01*
X011625Y002423D02*
X012412Y002423D01*
X013200Y002423D02*
X013397Y002423D01*
X013987Y002423D01*
X014774Y002423D02*
X015365Y002423D01*
X015562Y002423D01*
X016349Y002423D02*
X017137Y002423D01*
X017924Y002423D02*
X018318Y002423D01*
X018711Y002423D01*
X019499Y002423D02*
X020286Y002423D01*
X021074Y002423D02*
X021271Y002423D01*
X021861Y002423D01*
X022649Y002423D02*
X023239Y002423D01*
X023436Y002423D01*
X024223Y002423D02*
X025011Y002423D01*
X025798Y002423D02*
X026192Y002423D01*
X026586Y002423D01*
X027373Y002423D02*
X028160Y002423D01*
X028948Y002423D02*
X029145Y002423D01*
X029735Y002423D01*
X031310Y002423D02*
X032097Y002423D01*
X031680Y002560D02*
X031682Y002604D01*
X031688Y002648D01*
X031698Y002691D01*
X031711Y002733D01*
X031728Y002774D01*
X031749Y002813D01*
X031773Y002850D01*
X031800Y002885D01*
X031830Y002917D01*
X031863Y002947D01*
X031899Y002973D01*
X031936Y002997D01*
X031976Y003016D01*
X032017Y003033D01*
X032060Y003045D01*
X032103Y003054D01*
X032147Y003059D01*
X032191Y003060D01*
X032235Y003057D01*
X032279Y003050D01*
X032322Y003039D01*
X032364Y003025D01*
X032404Y003007D01*
X032443Y002985D01*
X032479Y002961D01*
X032513Y002933D01*
X032545Y002902D01*
X032574Y002868D01*
X032600Y002832D01*
X032622Y002794D01*
X032641Y002754D01*
X032656Y002712D01*
X032668Y002670D01*
X032676Y002626D01*
X032680Y002582D01*
X032680Y002538D01*
X032676Y002494D01*
X032668Y002450D01*
X032656Y002408D01*
X032641Y002366D01*
X032622Y002326D01*
X032600Y002288D01*
X032574Y002252D01*
X032545Y002218D01*
X032513Y002187D01*
X032479Y002159D01*
X032443Y002135D01*
X032404Y002113D01*
X032364Y002095D01*
X032322Y002081D01*
X032279Y002070D01*
X032235Y002063D01*
X032191Y002060D01*
X032147Y002061D01*
X032103Y002066D01*
X032060Y002075D01*
X032017Y002087D01*
X031976Y002104D01*
X031936Y002123D01*
X031899Y002147D01*
X031863Y002173D01*
X031830Y002203D01*
X031800Y002235D01*
X031773Y002270D01*
X031749Y002307D01*
X031728Y002346D01*
X031711Y002387D01*
X031698Y002429D01*
X031688Y002472D01*
X031682Y002516D01*
X031680Y002560D01*
X031830Y003180D02*
X034530Y003180D01*
X034547Y003182D01*
X034564Y003186D01*
X034580Y003193D01*
X034594Y003203D01*
X034607Y003216D01*
X034617Y003230D01*
X034624Y003246D01*
X034628Y003263D01*
X034630Y003280D01*
X034630Y004080D01*
X034628Y004097D01*
X034624Y004114D01*
X034617Y004130D01*
X034607Y004144D01*
X034594Y004157D01*
X034580Y004167D01*
X034564Y004174D01*
X034547Y004178D01*
X034530Y004180D01*
X031830Y004180D01*
X031813Y004178D01*
X031796Y004174D01*
X031780Y004167D01*
X031766Y004157D01*
X031753Y004144D01*
X031743Y004130D01*
X031736Y004114D01*
X031732Y004097D01*
X031730Y004080D01*
X031730Y003280D01*
X031732Y003263D01*
X031736Y003246D01*
X031743Y003230D01*
X031753Y003216D01*
X031766Y003203D01*
X031780Y003193D01*
X031796Y003186D01*
X031813Y003182D01*
X031830Y003180D01*
X032491Y003407D02*
X008869Y003407D01*
X008180Y003860D02*
X008182Y003923D01*
X008188Y003985D01*
X008198Y004047D01*
X008211Y004109D01*
X008229Y004169D01*
X008250Y004228D01*
X008275Y004286D01*
X008304Y004342D01*
X008336Y004396D01*
X008371Y004448D01*
X008409Y004497D01*
X008451Y004545D01*
X008495Y004589D01*
X008543Y004631D01*
X008592Y004669D01*
X008644Y004704D01*
X008698Y004736D01*
X008754Y004765D01*
X008812Y004790D01*
X008871Y004811D01*
X008931Y004829D01*
X008993Y004842D01*
X009055Y004852D01*
X009117Y004858D01*
X009180Y004860D01*
X009243Y004858D01*
X009305Y004852D01*
X009367Y004842D01*
X009429Y004829D01*
X009489Y004811D01*
X009548Y004790D01*
X009606Y004765D01*
X009662Y004736D01*
X009716Y004704D01*
X009768Y004669D01*
X009817Y004631D01*
X009865Y004589D01*
X009909Y004545D01*
X009951Y004497D01*
X009989Y004448D01*
X010024Y004396D01*
X010056Y004342D01*
X010085Y004286D01*
X010110Y004228D01*
X010131Y004169D01*
X010149Y004109D01*
X010162Y004047D01*
X010172Y003985D01*
X010178Y003923D01*
X010180Y003860D01*
X010178Y003797D01*
X010172Y003735D01*
X010162Y003673D01*
X010149Y003611D01*
X010131Y003551D01*
X010110Y003492D01*
X010085Y003434D01*
X010056Y003378D01*
X010024Y003324D01*
X009989Y003272D01*
X009951Y003223D01*
X009909Y003175D01*
X009865Y003131D01*
X009817Y003089D01*
X009768Y003051D01*
X009716Y003016D01*
X009662Y002984D01*
X009606Y002955D01*
X009548Y002930D01*
X009489Y002909D01*
X009429Y002891D01*
X009367Y002878D01*
X009305Y002868D01*
X009243Y002862D01*
X009180Y002860D01*
X009117Y002862D01*
X009055Y002868D01*
X008993Y002878D01*
X008931Y002891D01*
X008871Y002909D01*
X008812Y002930D01*
X008754Y002955D01*
X008698Y002984D01*
X008644Y003016D01*
X008592Y003051D01*
X008543Y003089D01*
X008495Y003131D01*
X008451Y003175D01*
X008409Y003223D01*
X008371Y003272D01*
X008336Y003324D01*
X008304Y003378D01*
X008275Y003434D01*
X008250Y003492D01*
X008229Y003551D01*
X008211Y003611D01*
X008198Y003673D01*
X008188Y003735D01*
X008182Y003797D01*
X008180Y003860D01*
X007885Y004391D02*
X007885Y008329D01*
X008180Y008360D02*
X008182Y008404D01*
X008188Y008448D01*
X008198Y008491D01*
X008211Y008533D01*
X008228Y008574D01*
X008249Y008613D01*
X008273Y008650D01*
X008300Y008685D01*
X008330Y008717D01*
X008363Y008747D01*
X008399Y008773D01*
X008436Y008797D01*
X008476Y008816D01*
X008517Y008833D01*
X008560Y008845D01*
X008603Y008854D01*
X008647Y008859D01*
X008691Y008860D01*
X008735Y008857D01*
X008779Y008850D01*
X008822Y008839D01*
X008864Y008825D01*
X008904Y008807D01*
X008943Y008785D01*
X008979Y008761D01*
X009013Y008733D01*
X009045Y008702D01*
X009074Y008668D01*
X009100Y008632D01*
X009122Y008594D01*
X009141Y008554D01*
X009156Y008512D01*
X009168Y008470D01*
X009176Y008426D01*
X009180Y008382D01*
X009180Y008338D01*
X009176Y008294D01*
X009168Y008250D01*
X009156Y008208D01*
X009141Y008166D01*
X009122Y008126D01*
X009100Y008088D01*
X009074Y008052D01*
X009045Y008018D01*
X009013Y007987D01*
X008979Y007959D01*
X008943Y007935D01*
X008904Y007913D01*
X008864Y007895D01*
X008822Y007881D01*
X008779Y007870D01*
X008735Y007863D01*
X008691Y007860D01*
X008647Y007861D01*
X008603Y007866D01*
X008560Y007875D01*
X008517Y007887D01*
X008476Y007904D01*
X008436Y007923D01*
X008399Y007947D01*
X008363Y007973D01*
X008330Y008003D01*
X008300Y008035D01*
X008273Y008070D01*
X008249Y008107D01*
X008228Y008146D01*
X008211Y008187D01*
X008198Y008229D01*
X008188Y008272D01*
X008182Y008316D01*
X008180Y008360D01*
X007885Y008329D02*
X007887Y008391D01*
X007893Y008452D01*
X007902Y008513D01*
X007916Y008574D01*
X007933Y008633D01*
X007954Y008691D01*
X007979Y008748D01*
X008007Y008803D01*
X008038Y008856D01*
X008073Y008907D01*
X008111Y008956D01*
X008152Y009003D01*
X008195Y009046D01*
X008242Y009087D01*
X008291Y009125D01*
X008342Y009160D01*
X008395Y009191D01*
X008450Y009219D01*
X008507Y009244D01*
X008565Y009265D01*
X008624Y009282D01*
X008685Y009296D01*
X008746Y009305D01*
X008807Y009311D01*
X008869Y009313D01*
X032491Y009313D01*
X033180Y008860D02*
X033182Y008904D01*
X033188Y008948D01*
X033198Y008991D01*
X033211Y009033D01*
X033228Y009074D01*
X033249Y009113D01*
X033273Y009150D01*
X033300Y009185D01*
X033330Y009217D01*
X033363Y009247D01*
X033399Y009273D01*
X033436Y009297D01*
X033476Y009316D01*
X033517Y009333D01*
X033560Y009345D01*
X033603Y009354D01*
X033647Y009359D01*
X033691Y009360D01*
X033735Y009357D01*
X033779Y009350D01*
X033822Y009339D01*
X033864Y009325D01*
X033904Y009307D01*
X033943Y009285D01*
X033979Y009261D01*
X034013Y009233D01*
X034045Y009202D01*
X034074Y009168D01*
X034100Y009132D01*
X034122Y009094D01*
X034141Y009054D01*
X034156Y009012D01*
X034168Y008970D01*
X034176Y008926D01*
X034180Y008882D01*
X034180Y008838D01*
X034176Y008794D01*
X034168Y008750D01*
X034156Y008708D01*
X034141Y008666D01*
X034122Y008626D01*
X034100Y008588D01*
X034074Y008552D01*
X034045Y008518D01*
X034013Y008487D01*
X033979Y008459D01*
X033943Y008435D01*
X033904Y008413D01*
X033864Y008395D01*
X033822Y008381D01*
X033779Y008370D01*
X033735Y008363D01*
X033691Y008360D01*
X033647Y008361D01*
X033603Y008366D01*
X033560Y008375D01*
X033517Y008387D01*
X033476Y008404D01*
X033436Y008423D01*
X033399Y008447D01*
X033363Y008473D01*
X033330Y008503D01*
X033300Y008535D01*
X033273Y008570D01*
X033249Y008607D01*
X033228Y008646D01*
X033211Y008687D01*
X033198Y008729D01*
X033188Y008772D01*
X033182Y008816D01*
X033180Y008860D01*
X033475Y008329D02*
X033475Y004391D01*
X033110Y004460D02*
X033110Y005260D01*
X033108Y005277D01*
X033104Y005294D01*
X033097Y005310D01*
X033087Y005324D01*
X033074Y005337D01*
X033060Y005347D01*
X033044Y005354D01*
X033027Y005358D01*
X033010Y005360D01*
X030310Y005360D01*
X030293Y005358D01*
X030276Y005354D01*
X030260Y005347D01*
X030246Y005337D01*
X030233Y005324D01*
X030223Y005310D01*
X030216Y005294D01*
X030212Y005277D01*
X030210Y005260D01*
X030210Y004460D01*
X030212Y004443D01*
X030216Y004426D01*
X030223Y004410D01*
X030233Y004396D01*
X030246Y004383D01*
X030260Y004373D01*
X030276Y004366D01*
X030293Y004362D01*
X030310Y004360D01*
X033010Y004360D01*
X033027Y004362D01*
X033044Y004366D01*
X033060Y004373D01*
X033074Y004383D01*
X033087Y004396D01*
X033097Y004410D01*
X033104Y004426D01*
X033108Y004443D01*
X033110Y004460D01*
X033475Y004391D02*
X033473Y004329D01*
X033467Y004268D01*
X033458Y004207D01*
X033444Y004146D01*
X033427Y004087D01*
X033406Y004029D01*
X033381Y003972D01*
X033353Y003917D01*
X033322Y003864D01*
X033287Y003813D01*
X033249Y003764D01*
X033208Y003717D01*
X033165Y003674D01*
X033118Y003633D01*
X033069Y003595D01*
X033018Y003560D01*
X032965Y003529D01*
X032910Y003501D01*
X032853Y003476D01*
X032795Y003455D01*
X032736Y003438D01*
X032675Y003424D01*
X032614Y003415D01*
X032553Y003409D01*
X032491Y003407D01*
X032580Y003680D02*
X033060Y003680D01*
X033310Y003680D02*
X033780Y003680D01*
X032260Y004860D02*
X031790Y004860D01*
X031540Y004860D02*
X031060Y004860D01*
X033180Y005860D02*
X033182Y005904D01*
X033188Y005948D01*
X033198Y005991D01*
X033211Y006033D01*
X033228Y006074D01*
X033249Y006113D01*
X033273Y006150D01*
X033300Y006185D01*
X033330Y006217D01*
X033363Y006247D01*
X033399Y006273D01*
X033436Y006297D01*
X033476Y006316D01*
X033517Y006333D01*
X033560Y006345D01*
X033603Y006354D01*
X033647Y006359D01*
X033691Y006360D01*
X033735Y006357D01*
X033779Y006350D01*
X033822Y006339D01*
X033864Y006325D01*
X033904Y006307D01*
X033943Y006285D01*
X033979Y006261D01*
X034013Y006233D01*
X034045Y006202D01*
X034074Y006168D01*
X034100Y006132D01*
X034122Y006094D01*
X034141Y006054D01*
X034156Y006012D01*
X034168Y005970D01*
X034176Y005926D01*
X034180Y005882D01*
X034180Y005838D01*
X034176Y005794D01*
X034168Y005750D01*
X034156Y005708D01*
X034141Y005666D01*
X034122Y005626D01*
X034100Y005588D01*
X034074Y005552D01*
X034045Y005518D01*
X034013Y005487D01*
X033979Y005459D01*
X033943Y005435D01*
X033904Y005413D01*
X033864Y005395D01*
X033822Y005381D01*
X033779Y005370D01*
X033735Y005363D01*
X033691Y005360D01*
X033647Y005361D01*
X033603Y005366D01*
X033560Y005375D01*
X033517Y005387D01*
X033476Y005404D01*
X033436Y005423D01*
X033399Y005447D01*
X033363Y005473D01*
X033330Y005503D01*
X033300Y005535D01*
X033273Y005570D01*
X033249Y005607D01*
X033228Y005646D01*
X033211Y005687D01*
X033198Y005729D01*
X033188Y005772D01*
X033182Y005816D01*
X033180Y005860D01*
X031680Y006860D02*
X031682Y006904D01*
X031688Y006948D01*
X031698Y006991D01*
X031711Y007033D01*
X031728Y007074D01*
X031749Y007113D01*
X031773Y007150D01*
X031800Y007185D01*
X031830Y007217D01*
X031863Y007247D01*
X031899Y007273D01*
X031936Y007297D01*
X031976Y007316D01*
X032017Y007333D01*
X032060Y007345D01*
X032103Y007354D01*
X032147Y007359D01*
X032191Y007360D01*
X032235Y007357D01*
X032279Y007350D01*
X032322Y007339D01*
X032364Y007325D01*
X032404Y007307D01*
X032443Y007285D01*
X032479Y007261D01*
X032513Y007233D01*
X032545Y007202D01*
X032574Y007168D01*
X032600Y007132D01*
X032622Y007094D01*
X032641Y007054D01*
X032656Y007012D01*
X032668Y006970D01*
X032676Y006926D01*
X032680Y006882D01*
X032680Y006838D01*
X032676Y006794D01*
X032668Y006750D01*
X032656Y006708D01*
X032641Y006666D01*
X032622Y006626D01*
X032600Y006588D01*
X032574Y006552D01*
X032545Y006518D01*
X032513Y006487D01*
X032479Y006459D01*
X032443Y006435D01*
X032404Y006413D01*
X032364Y006395D01*
X032322Y006381D01*
X032279Y006370D01*
X032235Y006363D01*
X032191Y006360D01*
X032147Y006361D01*
X032103Y006366D01*
X032060Y006375D01*
X032017Y006387D01*
X031976Y006404D01*
X031936Y006423D01*
X031899Y006447D01*
X031863Y006473D01*
X031830Y006503D01*
X031800Y006535D01*
X031773Y006570D01*
X031749Y006607D01*
X031728Y006646D01*
X031711Y006687D01*
X031698Y006729D01*
X031688Y006772D01*
X031682Y006816D01*
X031680Y006860D01*
X032180Y007860D02*
X032182Y007904D01*
X032188Y007948D01*
X032198Y007991D01*
X032211Y008033D01*
X032228Y008074D01*
X032249Y008113D01*
X032273Y008150D01*
X032300Y008185D01*
X032330Y008217D01*
X032363Y008247D01*
X032399Y008273D01*
X032436Y008297D01*
X032476Y008316D01*
X032517Y008333D01*
X032560Y008345D01*
X032603Y008354D01*
X032647Y008359D01*
X032691Y008360D01*
X032735Y008357D01*
X032779Y008350D01*
X032822Y008339D01*
X032864Y008325D01*
X032904Y008307D01*
X032943Y008285D01*
X032979Y008261D01*
X033013Y008233D01*
X033045Y008202D01*
X033074Y008168D01*
X033100Y008132D01*
X033122Y008094D01*
X033141Y008054D01*
X033156Y008012D01*
X033168Y007970D01*
X033176Y007926D01*
X033180Y007882D01*
X033180Y007838D01*
X033176Y007794D01*
X033168Y007750D01*
X033156Y007708D01*
X033141Y007666D01*
X033122Y007626D01*
X033100Y007588D01*
X033074Y007552D01*
X033045Y007518D01*
X033013Y007487D01*
X032979Y007459D01*
X032943Y007435D01*
X032904Y007413D01*
X032864Y007395D01*
X032822Y007381D01*
X032779Y007370D01*
X032735Y007363D01*
X032691Y007360D01*
X032647Y007361D01*
X032603Y007366D01*
X032560Y007375D01*
X032517Y007387D01*
X032476Y007404D01*
X032436Y007423D01*
X032399Y007447D01*
X032363Y007473D01*
X032330Y007503D01*
X032300Y007535D01*
X032273Y007570D01*
X032249Y007607D01*
X032228Y007646D01*
X032211Y007687D01*
X032198Y007729D01*
X032188Y007772D01*
X032182Y007816D01*
X032180Y007860D01*
X033475Y008329D02*
X033473Y008391D01*
X033467Y008452D01*
X033458Y008513D01*
X033444Y008574D01*
X033427Y008633D01*
X033406Y008691D01*
X033381Y008748D01*
X033353Y008803D01*
X033322Y008856D01*
X033287Y008907D01*
X033249Y008956D01*
X033208Y009003D01*
X033165Y009046D01*
X033118Y009087D01*
X033069Y009125D01*
X033018Y009160D01*
X032965Y009191D01*
X032910Y009219D01*
X032853Y009244D01*
X032795Y009265D01*
X032736Y009282D01*
X032675Y009296D01*
X032614Y009305D01*
X032553Y009311D01*
X032491Y009313D01*
X034680Y009860D02*
X034682Y009904D01*
X034688Y009948D01*
X034698Y009991D01*
X034711Y010033D01*
X034728Y010074D01*
X034749Y010113D01*
X034773Y010150D01*
X034800Y010185D01*
X034830Y010217D01*
X034863Y010247D01*
X034899Y010273D01*
X034936Y010297D01*
X034976Y010316D01*
X035017Y010333D01*
X035060Y010345D01*
X035103Y010354D01*
X035147Y010359D01*
X035191Y010360D01*
X035235Y010357D01*
X035279Y010350D01*
X035322Y010339D01*
X035364Y010325D01*
X035404Y010307D01*
X035443Y010285D01*
X035479Y010261D01*
X035513Y010233D01*
X035545Y010202D01*
X035574Y010168D01*
X035600Y010132D01*
X035622Y010094D01*
X035641Y010054D01*
X035656Y010012D01*
X035668Y009970D01*
X035676Y009926D01*
X035680Y009882D01*
X035680Y009838D01*
X035676Y009794D01*
X035668Y009750D01*
X035656Y009708D01*
X035641Y009666D01*
X035622Y009626D01*
X035600Y009588D01*
X035574Y009552D01*
X035545Y009518D01*
X035513Y009487D01*
X035479Y009459D01*
X035443Y009435D01*
X035404Y009413D01*
X035364Y009395D01*
X035322Y009381D01*
X035279Y009370D01*
X035235Y009363D01*
X035191Y009360D01*
X035147Y009361D01*
X035103Y009366D01*
X035060Y009375D01*
X035017Y009387D01*
X034976Y009404D01*
X034936Y009423D01*
X034899Y009447D01*
X034863Y009473D01*
X034830Y009503D01*
X034800Y009535D01*
X034773Y009570D01*
X034749Y009607D01*
X034728Y009646D01*
X034711Y009687D01*
X034698Y009729D01*
X034688Y009772D01*
X034682Y009816D01*
X034680Y009860D01*
X036630Y009960D02*
X036632Y010033D01*
X036638Y010106D01*
X036648Y010178D01*
X036662Y010250D01*
X036679Y010321D01*
X036701Y010391D01*
X036726Y010460D01*
X036755Y010527D01*
X036787Y010592D01*
X036823Y010656D01*
X036863Y010718D01*
X036905Y010777D01*
X036951Y010834D01*
X037000Y010888D01*
X037052Y010940D01*
X037106Y010989D01*
X037163Y011035D01*
X037222Y011077D01*
X037284Y011117D01*
X037348Y011153D01*
X037413Y011185D01*
X037480Y011214D01*
X037549Y011239D01*
X037619Y011261D01*
X037690Y011278D01*
X037762Y011292D01*
X037834Y011302D01*
X037907Y011308D01*
X037980Y011310D01*
X038053Y011308D01*
X038126Y011302D01*
X038198Y011292D01*
X038270Y011278D01*
X038341Y011261D01*
X038411Y011239D01*
X038480Y011214D01*
X038547Y011185D01*
X038612Y011153D01*
X038676Y011117D01*
X038738Y011077D01*
X038797Y011035D01*
X038854Y010989D01*
X038908Y010940D01*
X038960Y010888D01*
X039009Y010834D01*
X039055Y010777D01*
X039097Y010718D01*
X039137Y010656D01*
X039173Y010592D01*
X039205Y010527D01*
X039234Y010460D01*
X039259Y010391D01*
X039281Y010321D01*
X039298Y010250D01*
X039312Y010178D01*
X039322Y010106D01*
X039328Y010033D01*
X039330Y009960D01*
X039328Y009887D01*
X039322Y009814D01*
X039312Y009742D01*
X039298Y009670D01*
X039281Y009599D01*
X039259Y009529D01*
X039234Y009460D01*
X039205Y009393D01*
X039173Y009328D01*
X039137Y009264D01*
X039097Y009202D01*
X039055Y009143D01*
X039009Y009086D01*
X038960Y009032D01*
X038908Y008980D01*
X038854Y008931D01*
X038797Y008885D01*
X038738Y008843D01*
X038676Y008803D01*
X038612Y008767D01*
X038547Y008735D01*
X038480Y008706D01*
X038411Y008681D01*
X038341Y008659D01*
X038270Y008642D01*
X038198Y008628D01*
X038126Y008618D01*
X038053Y008612D01*
X037980Y008610D01*
X037907Y008612D01*
X037834Y008618D01*
X037762Y008628D01*
X037690Y008642D01*
X037619Y008659D01*
X037549Y008681D01*
X037480Y008706D01*
X037413Y008735D01*
X037348Y008767D01*
X037284Y008803D01*
X037222Y008843D01*
X037163Y008885D01*
X037106Y008931D01*
X037052Y008980D01*
X037000Y009032D01*
X036951Y009086D01*
X036905Y009143D01*
X036863Y009202D01*
X036823Y009264D01*
X036787Y009328D01*
X036755Y009393D01*
X036726Y009460D01*
X036701Y009529D01*
X036679Y009599D01*
X036662Y009670D01*
X036648Y009742D01*
X036638Y009814D01*
X036632Y009887D01*
X036630Y009960D01*
X034820Y007860D02*
X034822Y007904D01*
X034828Y007948D01*
X034838Y007991D01*
X034851Y008033D01*
X034868Y008074D01*
X034889Y008113D01*
X034913Y008150D01*
X034940Y008185D01*
X034970Y008217D01*
X035003Y008247D01*
X035039Y008273D01*
X035076Y008297D01*
X035116Y008316D01*
X035157Y008333D01*
X035200Y008345D01*
X035243Y008354D01*
X035287Y008359D01*
X035331Y008360D01*
X035375Y008357D01*
X035419Y008350D01*
X035462Y008339D01*
X035504Y008325D01*
X035544Y008307D01*
X035583Y008285D01*
X035619Y008261D01*
X035653Y008233D01*
X035685Y008202D01*
X035714Y008168D01*
X035740Y008132D01*
X035762Y008094D01*
X035781Y008054D01*
X035796Y008012D01*
X035808Y007970D01*
X035816Y007926D01*
X035820Y007882D01*
X035820Y007838D01*
X035816Y007794D01*
X035808Y007750D01*
X035796Y007708D01*
X035781Y007666D01*
X035762Y007626D01*
X035740Y007588D01*
X035714Y007552D01*
X035685Y007518D01*
X035653Y007487D01*
X035619Y007459D01*
X035583Y007435D01*
X035544Y007413D01*
X035504Y007395D01*
X035462Y007381D01*
X035419Y007370D01*
X035375Y007363D01*
X035331Y007360D01*
X035287Y007361D01*
X035243Y007366D01*
X035200Y007375D01*
X035157Y007387D01*
X035116Y007404D01*
X035076Y007423D01*
X035039Y007447D01*
X035003Y007473D01*
X034970Y007503D01*
X034940Y007535D01*
X034913Y007570D01*
X034889Y007607D01*
X034868Y007646D01*
X034851Y007687D01*
X034838Y007729D01*
X034828Y007772D01*
X034822Y007816D01*
X034820Y007860D01*
X035980Y007640D02*
X035982Y007684D01*
X035988Y007728D01*
X035998Y007771D01*
X036011Y007813D01*
X036028Y007854D01*
X036049Y007893D01*
X036073Y007930D01*
X036100Y007965D01*
X036130Y007997D01*
X036163Y008027D01*
X036199Y008053D01*
X036236Y008077D01*
X036276Y008096D01*
X036317Y008113D01*
X036360Y008125D01*
X036403Y008134D01*
X036447Y008139D01*
X036491Y008140D01*
X036535Y008137D01*
X036579Y008130D01*
X036622Y008119D01*
X036664Y008105D01*
X036704Y008087D01*
X036743Y008065D01*
X036779Y008041D01*
X036813Y008013D01*
X036845Y007982D01*
X036874Y007948D01*
X036900Y007912D01*
X036922Y007874D01*
X036941Y007834D01*
X036956Y007792D01*
X036968Y007750D01*
X036976Y007706D01*
X036980Y007662D01*
X036980Y007618D01*
X036976Y007574D01*
X036968Y007530D01*
X036956Y007488D01*
X036941Y007446D01*
X036922Y007406D01*
X036900Y007368D01*
X036874Y007332D01*
X036845Y007298D01*
X036813Y007267D01*
X036779Y007239D01*
X036743Y007215D01*
X036704Y007193D01*
X036664Y007175D01*
X036622Y007161D01*
X036579Y007150D01*
X036535Y007143D01*
X036491Y007140D01*
X036447Y007141D01*
X036403Y007146D01*
X036360Y007155D01*
X036317Y007167D01*
X036276Y007184D01*
X036236Y007203D01*
X036199Y007227D01*
X036163Y007253D01*
X036130Y007283D01*
X036100Y007315D01*
X036073Y007350D01*
X036049Y007387D01*
X036028Y007426D01*
X036011Y007467D01*
X035998Y007509D01*
X035988Y007552D01*
X035982Y007596D01*
X035980Y007640D01*
X037180Y007080D02*
X037182Y007143D01*
X037188Y007205D01*
X037198Y007267D01*
X037211Y007329D01*
X037229Y007389D01*
X037250Y007448D01*
X037275Y007506D01*
X037304Y007562D01*
X037336Y007616D01*
X037371Y007668D01*
X037409Y007717D01*
X037451Y007765D01*
X037495Y007809D01*
X037543Y007851D01*
X037592Y007889D01*
X037644Y007924D01*
X037698Y007956D01*
X037754Y007985D01*
X037812Y008010D01*
X037871Y008031D01*
X037931Y008049D01*
X037993Y008062D01*
X038055Y008072D01*
X038117Y008078D01*
X038180Y008080D01*
X038243Y008078D01*
X038305Y008072D01*
X038367Y008062D01*
X038429Y008049D01*
X038489Y008031D01*
X038548Y008010D01*
X038606Y007985D01*
X038662Y007956D01*
X038716Y007924D01*
X038768Y007889D01*
X038817Y007851D01*
X038865Y007809D01*
X038909Y007765D01*
X038951Y007717D01*
X038989Y007668D01*
X039024Y007616D01*
X039056Y007562D01*
X039085Y007506D01*
X039110Y007448D01*
X039131Y007389D01*
X039149Y007329D01*
X039162Y007267D01*
X039172Y007205D01*
X039178Y007143D01*
X039180Y007080D01*
X039178Y007017D01*
X039172Y006955D01*
X039162Y006893D01*
X039149Y006831D01*
X039131Y006771D01*
X039110Y006712D01*
X039085Y006654D01*
X039056Y006598D01*
X039024Y006544D01*
X038989Y006492D01*
X038951Y006443D01*
X038909Y006395D01*
X038865Y006351D01*
X038817Y006309D01*
X038768Y006271D01*
X038716Y006236D01*
X038662Y006204D01*
X038606Y006175D01*
X038548Y006150D01*
X038489Y006129D01*
X038429Y006111D01*
X038367Y006098D01*
X038305Y006088D01*
X038243Y006082D01*
X038180Y006080D01*
X038117Y006082D01*
X038055Y006088D01*
X037993Y006098D01*
X037931Y006111D01*
X037871Y006129D01*
X037812Y006150D01*
X037754Y006175D01*
X037698Y006204D01*
X037644Y006236D01*
X037592Y006271D01*
X037543Y006309D01*
X037495Y006351D01*
X037451Y006395D01*
X037409Y006443D01*
X037371Y006492D01*
X037336Y006544D01*
X037304Y006598D01*
X037275Y006654D01*
X037250Y006712D01*
X037229Y006771D01*
X037211Y006831D01*
X037198Y006893D01*
X037188Y006955D01*
X037182Y007017D01*
X037180Y007080D01*
X022280Y007560D02*
X021980Y007560D01*
X022130Y007710D02*
X022130Y007410D01*
X018980Y007360D02*
X018980Y008360D01*
X017380Y008360D01*
X017380Y007360D01*
X018980Y007360D01*
X018180Y007610D02*
X018180Y007860D01*
X018180Y008110D01*
X018180Y007860D02*
X017780Y008110D01*
X017780Y007610D01*
X018180Y007860D01*
X017580Y007860D01*
X018180Y007860D02*
X018430Y007860D01*
X017980Y008360D02*
X017980Y009360D01*
X016380Y009360D01*
X016380Y008360D01*
X017980Y008360D01*
X017180Y008610D02*
X017180Y008860D01*
X017180Y009110D01*
X017180Y008860D02*
X016780Y009110D01*
X016780Y008610D01*
X017180Y008860D01*
X016580Y008860D01*
X017180Y008860D02*
X017430Y008860D01*
X018880Y009860D02*
X020480Y009860D01*
X020480Y010860D01*
X018880Y010860D01*
X018880Y009860D01*
X019280Y010110D02*
X019680Y010360D01*
X019680Y010610D01*
X019680Y010360D02*
X019280Y010610D01*
X019280Y010110D01*
X019680Y010110D02*
X019680Y010360D01*
X019080Y010360D01*
X019680Y010360D02*
X019930Y010360D01*
X012880Y009160D02*
X012880Y008160D01*
X011280Y008160D01*
X011280Y009160D01*
X012880Y009160D01*
X012080Y008910D02*
X012080Y008660D01*
X012080Y008410D01*
X012080Y008660D02*
X011680Y008410D01*
X011680Y008910D01*
X012080Y008660D01*
X011480Y008660D01*
X012080Y008660D02*
X012330Y008660D01*
X012180Y008160D02*
X012180Y007160D01*
X013780Y007160D01*
X013780Y008160D01*
X012180Y008160D01*
X012580Y007910D02*
X012980Y007660D01*
X012980Y007910D01*
X012580Y007910D02*
X012580Y007410D01*
X012980Y007660D01*
X012980Y007410D01*
X012980Y007660D02*
X012380Y007660D01*
X012980Y007660D02*
X013230Y007660D01*
X011680Y007060D02*
X011680Y006760D01*
X011530Y006910D02*
X011830Y006910D01*
X010130Y006960D02*
X010130Y007760D01*
X010128Y007777D01*
X010124Y007794D01*
X010117Y007810D01*
X010107Y007824D01*
X010094Y007837D01*
X010080Y007847D01*
X010064Y007854D01*
X010047Y007858D01*
X010030Y007860D01*
X008330Y007860D01*
X008313Y007858D01*
X008296Y007854D01*
X008280Y007847D01*
X008266Y007837D01*
X008253Y007824D01*
X008243Y007810D01*
X008236Y007794D01*
X008232Y007777D01*
X008230Y007760D01*
X008230Y006960D01*
X008232Y006943D01*
X008236Y006926D01*
X008243Y006910D01*
X008253Y006896D01*
X008266Y006883D01*
X008280Y006873D01*
X008296Y006866D01*
X008313Y006862D01*
X008330Y006860D01*
X010030Y006860D01*
X010047Y006862D01*
X010064Y006866D01*
X010080Y006873D01*
X010094Y006883D01*
X010107Y006896D01*
X010117Y006910D01*
X010124Y006926D01*
X010128Y006943D01*
X010130Y006960D01*
X009330Y007360D02*
X009280Y007360D01*
X009080Y007360D02*
X009030Y007360D01*
X006900Y008329D02*
X006900Y009510D01*
X004180Y010360D02*
X004182Y010404D01*
X004188Y010448D01*
X004198Y010491D01*
X004211Y010533D01*
X004228Y010574D01*
X004249Y010613D01*
X004273Y010650D01*
X004300Y010685D01*
X004330Y010717D01*
X004363Y010747D01*
X004399Y010773D01*
X004436Y010797D01*
X004476Y010816D01*
X004517Y010833D01*
X004560Y010845D01*
X004603Y010854D01*
X004647Y010859D01*
X004691Y010860D01*
X004735Y010857D01*
X004779Y010850D01*
X004822Y010839D01*
X004864Y010825D01*
X004904Y010807D01*
X004943Y010785D01*
X004979Y010761D01*
X005013Y010733D01*
X005045Y010702D01*
X005074Y010668D01*
X005100Y010632D01*
X005122Y010594D01*
X005141Y010554D01*
X005156Y010512D01*
X005168Y010470D01*
X005176Y010426D01*
X005180Y010382D01*
X005180Y010338D01*
X005176Y010294D01*
X005168Y010250D01*
X005156Y010208D01*
X005141Y010166D01*
X005122Y010126D01*
X005100Y010088D01*
X005074Y010052D01*
X005045Y010018D01*
X005013Y009987D01*
X004979Y009959D01*
X004943Y009935D01*
X004904Y009913D01*
X004864Y009895D01*
X004822Y009881D01*
X004779Y009870D01*
X004735Y009863D01*
X004691Y009860D01*
X004647Y009861D01*
X004603Y009866D01*
X004560Y009875D01*
X004517Y009887D01*
X004476Y009904D01*
X004436Y009923D01*
X004399Y009947D01*
X004363Y009973D01*
X004330Y010003D01*
X004300Y010035D01*
X004273Y010070D01*
X004249Y010107D01*
X004228Y010146D01*
X004211Y010187D01*
X004198Y010229D01*
X004188Y010272D01*
X004182Y010316D01*
X004180Y010360D01*
X000530Y009960D02*
X000532Y010033D01*
X000538Y010106D01*
X000548Y010178D01*
X000562Y010250D01*
X000579Y010321D01*
X000601Y010391D01*
X000626Y010460D01*
X000655Y010527D01*
X000687Y010592D01*
X000723Y010656D01*
X000763Y010718D01*
X000805Y010777D01*
X000851Y010834D01*
X000900Y010888D01*
X000952Y010940D01*
X001006Y010989D01*
X001063Y011035D01*
X001122Y011077D01*
X001184Y011117D01*
X001248Y011153D01*
X001313Y011185D01*
X001380Y011214D01*
X001449Y011239D01*
X001519Y011261D01*
X001590Y011278D01*
X001662Y011292D01*
X001734Y011302D01*
X001807Y011308D01*
X001880Y011310D01*
X001953Y011308D01*
X002026Y011302D01*
X002098Y011292D01*
X002170Y011278D01*
X002241Y011261D01*
X002311Y011239D01*
X002380Y011214D01*
X002447Y011185D01*
X002512Y011153D01*
X002576Y011117D01*
X002638Y011077D01*
X002697Y011035D01*
X002754Y010989D01*
X002808Y010940D01*
X002860Y010888D01*
X002909Y010834D01*
X002955Y010777D01*
X002997Y010718D01*
X003037Y010656D01*
X003073Y010592D01*
X003105Y010527D01*
X003134Y010460D01*
X003159Y010391D01*
X003181Y010321D01*
X003198Y010250D01*
X003212Y010178D01*
X003222Y010106D01*
X003228Y010033D01*
X003230Y009960D01*
X003228Y009887D01*
X003222Y009814D01*
X003212Y009742D01*
X003198Y009670D01*
X003181Y009599D01*
X003159Y009529D01*
X003134Y009460D01*
X003105Y009393D01*
X003073Y009328D01*
X003037Y009264D01*
X002997Y009202D01*
X002955Y009143D01*
X002909Y009086D01*
X002860Y009032D01*
X002808Y008980D01*
X002754Y008931D01*
X002697Y008885D01*
X002638Y008843D01*
X002576Y008803D01*
X002512Y008767D01*
X002447Y008735D01*
X002380Y008706D01*
X002311Y008681D01*
X002241Y008659D01*
X002170Y008642D01*
X002098Y008628D01*
X002026Y008618D01*
X001953Y008612D01*
X001880Y008610D01*
X001807Y008612D01*
X001734Y008618D01*
X001662Y008628D01*
X001590Y008642D01*
X001519Y008659D01*
X001449Y008681D01*
X001380Y008706D01*
X001313Y008735D01*
X001248Y008767D01*
X001184Y008803D01*
X001122Y008843D01*
X001063Y008885D01*
X001006Y008931D01*
X000952Y008980D01*
X000900Y009032D01*
X000851Y009086D01*
X000805Y009143D01*
X000763Y009202D01*
X000723Y009264D01*
X000687Y009328D01*
X000655Y009393D01*
X000626Y009460D01*
X000601Y009529D01*
X000579Y009599D01*
X000562Y009670D01*
X000548Y009742D01*
X000538Y009814D01*
X000532Y009887D01*
X000530Y009960D01*
X009680Y009860D02*
X009682Y009904D01*
X009688Y009948D01*
X009698Y009991D01*
X009711Y010033D01*
X009728Y010074D01*
X009749Y010113D01*
X009773Y010150D01*
X009800Y010185D01*
X009830Y010217D01*
X009863Y010247D01*
X009899Y010273D01*
X009936Y010297D01*
X009976Y010316D01*
X010017Y010333D01*
X010060Y010345D01*
X010103Y010354D01*
X010147Y010359D01*
X010191Y010360D01*
X010235Y010357D01*
X010279Y010350D01*
X010322Y010339D01*
X010364Y010325D01*
X010404Y010307D01*
X010443Y010285D01*
X010479Y010261D01*
X010513Y010233D01*
X010545Y010202D01*
X010574Y010168D01*
X010600Y010132D01*
X010622Y010094D01*
X010641Y010054D01*
X010656Y010012D01*
X010668Y009970D01*
X010676Y009926D01*
X010680Y009882D01*
X010680Y009838D01*
X010676Y009794D01*
X010668Y009750D01*
X010656Y009708D01*
X010641Y009666D01*
X010622Y009626D01*
X010600Y009588D01*
X010574Y009552D01*
X010545Y009518D01*
X010513Y009487D01*
X010479Y009459D01*
X010443Y009435D01*
X010404Y009413D01*
X010364Y009395D01*
X010322Y009381D01*
X010279Y009370D01*
X010235Y009363D01*
X010191Y009360D01*
X010147Y009361D01*
X010103Y009366D01*
X010060Y009375D01*
X010017Y009387D01*
X009976Y009404D01*
X009936Y009423D01*
X009899Y009447D01*
X009863Y009473D01*
X009830Y009503D01*
X009800Y009535D01*
X009773Y009570D01*
X009749Y009607D01*
X009728Y009646D01*
X009711Y009687D01*
X009698Y009729D01*
X009688Y009772D01*
X009682Y009816D01*
X009680Y009860D01*
X016680Y007060D02*
X016680Y006760D01*
X016530Y006910D02*
X016830Y006910D01*
X015330Y005860D02*
X015332Y005933D01*
X015338Y006006D01*
X015348Y006078D01*
X015362Y006150D01*
X015379Y006221D01*
X015401Y006291D01*
X015426Y006360D01*
X015455Y006427D01*
X015487Y006492D01*
X015523Y006556D01*
X015563Y006618D01*
X015605Y006677D01*
X015651Y006734D01*
X015700Y006788D01*
X015752Y006840D01*
X015806Y006889D01*
X015863Y006935D01*
X015922Y006977D01*
X015984Y007017D01*
X016048Y007053D01*
X016113Y007085D01*
X016180Y007114D01*
X016249Y007139D01*
X016319Y007161D01*
X016390Y007178D01*
X016462Y007192D01*
X016534Y007202D01*
X016607Y007208D01*
X016680Y007210D01*
X016753Y007208D01*
X016826Y007202D01*
X016898Y007192D01*
X016970Y007178D01*
X017041Y007161D01*
X017111Y007139D01*
X017180Y007114D01*
X017247Y007085D01*
X017312Y007053D01*
X017376Y007017D01*
X017438Y006977D01*
X017497Y006935D01*
X017554Y006889D01*
X017608Y006840D01*
X017660Y006788D01*
X017709Y006734D01*
X017755Y006677D01*
X017797Y006618D01*
X017837Y006556D01*
X017873Y006492D01*
X017905Y006427D01*
X017934Y006360D01*
X017959Y006291D01*
X017981Y006221D01*
X017998Y006150D01*
X018012Y006078D01*
X018022Y006006D01*
X018028Y005933D01*
X018030Y005860D01*
X018028Y005787D01*
X018022Y005714D01*
X018012Y005642D01*
X017998Y005570D01*
X017981Y005499D01*
X017959Y005429D01*
X017934Y005360D01*
X017905Y005293D01*
X017873Y005228D01*
X017837Y005164D01*
X017797Y005102D01*
X017755Y005043D01*
X017709Y004986D01*
X017660Y004932D01*
X017608Y004880D01*
X017554Y004831D01*
X017497Y004785D01*
X017438Y004743D01*
X017376Y004703D01*
X017312Y004667D01*
X017247Y004635D01*
X017180Y004606D01*
X017111Y004581D01*
X017041Y004559D01*
X016970Y004542D01*
X016898Y004528D01*
X016826Y004518D01*
X016753Y004512D01*
X016680Y004510D01*
X016607Y004512D01*
X016534Y004518D01*
X016462Y004528D01*
X016390Y004542D01*
X016319Y004559D01*
X016249Y004581D01*
X016180Y004606D01*
X016113Y004635D01*
X016048Y004667D01*
X015984Y004703D01*
X015922Y004743D01*
X015863Y004785D01*
X015806Y004831D01*
X015752Y004880D01*
X015700Y004932D01*
X015651Y004986D01*
X015605Y005043D01*
X015563Y005102D01*
X015523Y005164D01*
X015487Y005228D01*
X015455Y005293D01*
X015426Y005360D01*
X015401Y005429D01*
X015379Y005499D01*
X015362Y005570D01*
X015348Y005642D01*
X015338Y005714D01*
X015332Y005787D01*
X015330Y005860D01*
X014180Y005560D02*
X014180Y005260D01*
X014030Y005410D02*
X014330Y005410D01*
X010330Y005860D02*
X010332Y005933D01*
X010338Y006006D01*
X010348Y006078D01*
X010362Y006150D01*
X010379Y006221D01*
X010401Y006291D01*
X010426Y006360D01*
X010455Y006427D01*
X010487Y006492D01*
X010523Y006556D01*
X010563Y006618D01*
X010605Y006677D01*
X010651Y006734D01*
X010700Y006788D01*
X010752Y006840D01*
X010806Y006889D01*
X010863Y006935D01*
X010922Y006977D01*
X010984Y007017D01*
X011048Y007053D01*
X011113Y007085D01*
X011180Y007114D01*
X011249Y007139D01*
X011319Y007161D01*
X011390Y007178D01*
X011462Y007192D01*
X011534Y007202D01*
X011607Y007208D01*
X011680Y007210D01*
X011753Y007208D01*
X011826Y007202D01*
X011898Y007192D01*
X011970Y007178D01*
X012041Y007161D01*
X012111Y007139D01*
X012180Y007114D01*
X012247Y007085D01*
X012312Y007053D01*
X012376Y007017D01*
X012438Y006977D01*
X012497Y006935D01*
X012554Y006889D01*
X012608Y006840D01*
X012660Y006788D01*
X012709Y006734D01*
X012755Y006677D01*
X012797Y006618D01*
X012837Y006556D01*
X012873Y006492D01*
X012905Y006427D01*
X012934Y006360D01*
X012959Y006291D01*
X012981Y006221D01*
X012998Y006150D01*
X013012Y006078D01*
X013022Y006006D01*
X013028Y005933D01*
X013030Y005860D01*
X013028Y005787D01*
X013022Y005714D01*
X013012Y005642D01*
X012998Y005570D01*
X012981Y005499D01*
X012959Y005429D01*
X012934Y005360D01*
X012905Y005293D01*
X012873Y005228D01*
X012837Y005164D01*
X012797Y005102D01*
X012755Y005043D01*
X012709Y004986D01*
X012660Y004932D01*
X012608Y004880D01*
X012554Y004831D01*
X012497Y004785D01*
X012438Y004743D01*
X012376Y004703D01*
X012312Y004667D01*
X012247Y004635D01*
X012180Y004606D01*
X012111Y004581D01*
X012041Y004559D01*
X011970Y004542D01*
X011898Y004528D01*
X011826Y004518D01*
X011753Y004512D01*
X011680Y004510D01*
X011607Y004512D01*
X011534Y004518D01*
X011462Y004528D01*
X011390Y004542D01*
X011319Y004559D01*
X011249Y004581D01*
X011180Y004606D01*
X011113Y004635D01*
X011048Y004667D01*
X010984Y004703D01*
X010922Y004743D01*
X010863Y004785D01*
X010806Y004831D01*
X010752Y004880D01*
X010700Y004932D01*
X010651Y004986D01*
X010605Y005043D01*
X010563Y005102D01*
X010523Y005164D01*
X010487Y005228D01*
X010455Y005293D01*
X010426Y005360D01*
X010401Y005429D01*
X010379Y005499D01*
X010362Y005570D01*
X010348Y005642D01*
X010338Y005714D01*
X010332Y005787D01*
X010330Y005860D01*
X008180Y005860D02*
X008182Y005923D01*
X008188Y005985D01*
X008198Y006047D01*
X008211Y006109D01*
X008229Y006169D01*
X008250Y006228D01*
X008275Y006286D01*
X008304Y006342D01*
X008336Y006396D01*
X008371Y006448D01*
X008409Y006497D01*
X008451Y006545D01*
X008495Y006589D01*
X008543Y006631D01*
X008592Y006669D01*
X008644Y006704D01*
X008698Y006736D01*
X008754Y006765D01*
X008812Y006790D01*
X008871Y006811D01*
X008931Y006829D01*
X008993Y006842D01*
X009055Y006852D01*
X009117Y006858D01*
X009180Y006860D01*
X009243Y006858D01*
X009305Y006852D01*
X009367Y006842D01*
X009429Y006829D01*
X009489Y006811D01*
X009548Y006790D01*
X009606Y006765D01*
X009662Y006736D01*
X009716Y006704D01*
X009768Y006669D01*
X009817Y006631D01*
X009865Y006589D01*
X009909Y006545D01*
X009951Y006497D01*
X009989Y006448D01*
X010024Y006396D01*
X010056Y006342D01*
X010085Y006286D01*
X010110Y006228D01*
X010131Y006169D01*
X010149Y006109D01*
X010162Y006047D01*
X010172Y005985D01*
X010178Y005923D01*
X010180Y005860D01*
X010178Y005797D01*
X010172Y005735D01*
X010162Y005673D01*
X010149Y005611D01*
X010131Y005551D01*
X010110Y005492D01*
X010085Y005434D01*
X010056Y005378D01*
X010024Y005324D01*
X009989Y005272D01*
X009951Y005223D01*
X009909Y005175D01*
X009865Y005131D01*
X009817Y005089D01*
X009768Y005051D01*
X009716Y005016D01*
X009662Y004984D01*
X009606Y004955D01*
X009548Y004930D01*
X009489Y004909D01*
X009429Y004891D01*
X009367Y004878D01*
X009305Y004868D01*
X009243Y004862D01*
X009180Y004860D01*
X009117Y004862D01*
X009055Y004868D01*
X008993Y004878D01*
X008931Y004891D01*
X008871Y004909D01*
X008812Y004930D01*
X008754Y004955D01*
X008698Y004984D01*
X008644Y005016D01*
X008592Y005051D01*
X008543Y005089D01*
X008495Y005131D01*
X008451Y005175D01*
X008409Y005223D01*
X008371Y005272D01*
X008336Y005324D01*
X008304Y005378D01*
X008275Y005434D01*
X008250Y005492D01*
X008229Y005551D01*
X008211Y005611D01*
X008198Y005673D01*
X008188Y005735D01*
X008182Y005797D01*
X008180Y005860D01*
X007180Y005360D02*
X007182Y005404D01*
X007188Y005448D01*
X007198Y005491D01*
X007211Y005533D01*
X007228Y005574D01*
X007249Y005613D01*
X007273Y005650D01*
X007300Y005685D01*
X007330Y005717D01*
X007363Y005747D01*
X007399Y005773D01*
X007436Y005797D01*
X007476Y005816D01*
X007517Y005833D01*
X007560Y005845D01*
X007603Y005854D01*
X007647Y005859D01*
X007691Y005860D01*
X007735Y005857D01*
X007779Y005850D01*
X007822Y005839D01*
X007864Y005825D01*
X007904Y005807D01*
X007943Y005785D01*
X007979Y005761D01*
X008013Y005733D01*
X008045Y005702D01*
X008074Y005668D01*
X008100Y005632D01*
X008122Y005594D01*
X008141Y005554D01*
X008156Y005512D01*
X008168Y005470D01*
X008176Y005426D01*
X008180Y005382D01*
X008180Y005338D01*
X008176Y005294D01*
X008168Y005250D01*
X008156Y005208D01*
X008141Y005166D01*
X008122Y005126D01*
X008100Y005088D01*
X008074Y005052D01*
X008045Y005018D01*
X008013Y004987D01*
X007979Y004959D01*
X007943Y004935D01*
X007904Y004913D01*
X007864Y004895D01*
X007822Y004881D01*
X007779Y004870D01*
X007735Y004863D01*
X007691Y004860D01*
X007647Y004861D01*
X007603Y004866D01*
X007560Y004875D01*
X007517Y004887D01*
X007476Y004904D01*
X007436Y004923D01*
X007399Y004947D01*
X007363Y004973D01*
X007330Y005003D01*
X007300Y005035D01*
X007273Y005070D01*
X007249Y005107D01*
X007228Y005146D01*
X007211Y005187D01*
X007198Y005229D01*
X007188Y005272D01*
X007182Y005316D01*
X007180Y005360D01*
X006180Y005710D02*
X006180Y004010D01*
X006178Y003993D01*
X006174Y003976D01*
X006167Y003960D01*
X006157Y003946D01*
X006144Y003933D01*
X006130Y003923D01*
X006114Y003916D01*
X006097Y003912D01*
X006080Y003910D01*
X005280Y003910D01*
X005263Y003912D01*
X005246Y003916D01*
X005230Y003923D01*
X005216Y003933D01*
X005203Y003946D01*
X005193Y003960D01*
X005186Y003976D01*
X005182Y003993D01*
X005180Y004010D01*
X005180Y005710D01*
X005182Y005727D01*
X005186Y005744D01*
X005193Y005760D01*
X005203Y005774D01*
X005216Y005787D01*
X005230Y005797D01*
X005246Y005804D01*
X005263Y005808D01*
X005280Y005810D01*
X006080Y005810D01*
X006097Y005808D01*
X006114Y005804D01*
X006130Y005797D01*
X006144Y005787D01*
X006157Y005774D01*
X006167Y005760D01*
X006174Y005744D01*
X006178Y005727D01*
X006180Y005710D01*
X005680Y005010D02*
X005680Y004960D01*
X005680Y004760D02*
X005680Y004710D01*
X006180Y004360D02*
X006182Y004404D01*
X006188Y004448D01*
X006198Y004491D01*
X006211Y004533D01*
X006228Y004574D01*
X006249Y004613D01*
X006273Y004650D01*
X006300Y004685D01*
X006330Y004717D01*
X006363Y004747D01*
X006399Y004773D01*
X006436Y004797D01*
X006476Y004816D01*
X006517Y004833D01*
X006560Y004845D01*
X006603Y004854D01*
X006647Y004859D01*
X006691Y004860D01*
X006735Y004857D01*
X006779Y004850D01*
X006822Y004839D01*
X006864Y004825D01*
X006904Y004807D01*
X006943Y004785D01*
X006979Y004761D01*
X007013Y004733D01*
X007045Y004702D01*
X007074Y004668D01*
X007100Y004632D01*
X007122Y004594D01*
X007141Y004554D01*
X007156Y004512D01*
X007168Y004470D01*
X007176Y004426D01*
X007180Y004382D01*
X007180Y004338D01*
X007176Y004294D01*
X007168Y004250D01*
X007156Y004208D01*
X007141Y004166D01*
X007122Y004126D01*
X007100Y004088D01*
X007074Y004052D01*
X007045Y004018D01*
X007013Y003987D01*
X006979Y003959D01*
X006943Y003935D01*
X006904Y003913D01*
X006864Y003895D01*
X006822Y003881D01*
X006779Y003870D01*
X006735Y003863D01*
X006691Y003860D01*
X006647Y003861D01*
X006603Y003866D01*
X006560Y003875D01*
X006517Y003887D01*
X006476Y003904D01*
X006436Y003923D01*
X006399Y003947D01*
X006363Y003973D01*
X006330Y004003D01*
X006300Y004035D01*
X006273Y004070D01*
X006249Y004107D01*
X006228Y004146D01*
X006211Y004187D01*
X006198Y004229D01*
X006188Y004272D01*
X006182Y004316D01*
X006180Y004360D01*
X003280Y004680D02*
X003282Y004724D01*
X003288Y004768D01*
X003298Y004811D01*
X003311Y004853D01*
X003328Y004894D01*
X003349Y004933D01*
X003373Y004970D01*
X003400Y005005D01*
X003430Y005037D01*
X003463Y005067D01*
X003499Y005093D01*
X003536Y005117D01*
X003576Y005136D01*
X003617Y005153D01*
X003660Y005165D01*
X003703Y005174D01*
X003747Y005179D01*
X003791Y005180D01*
X003835Y005177D01*
X003879Y005170D01*
X003922Y005159D01*
X003964Y005145D01*
X004004Y005127D01*
X004043Y005105D01*
X004079Y005081D01*
X004113Y005053D01*
X004145Y005022D01*
X004174Y004988D01*
X004200Y004952D01*
X004222Y004914D01*
X004241Y004874D01*
X004256Y004832D01*
X004268Y004790D01*
X004276Y004746D01*
X004280Y004702D01*
X004280Y004658D01*
X004276Y004614D01*
X004268Y004570D01*
X004256Y004528D01*
X004241Y004486D01*
X004222Y004446D01*
X004200Y004408D01*
X004174Y004372D01*
X004145Y004338D01*
X004113Y004307D01*
X004079Y004279D01*
X004043Y004255D01*
X004004Y004233D01*
X003964Y004215D01*
X003922Y004201D01*
X003879Y004190D01*
X003835Y004183D01*
X003791Y004180D01*
X003747Y004181D01*
X003703Y004186D01*
X003660Y004195D01*
X003617Y004207D01*
X003576Y004224D01*
X003536Y004243D01*
X003499Y004267D01*
X003463Y004293D01*
X003430Y004323D01*
X003400Y004355D01*
X003373Y004390D01*
X003349Y004427D01*
X003328Y004466D01*
X003311Y004507D01*
X003298Y004549D01*
X003288Y004592D01*
X003282Y004636D01*
X003280Y004680D01*
X002127Y005960D02*
X002129Y006002D01*
X002135Y006044D01*
X002145Y006086D01*
X002158Y006126D01*
X002176Y006165D01*
X002197Y006202D01*
X002221Y006236D01*
X002249Y006269D01*
X002279Y006299D01*
X002312Y006325D01*
X002347Y006349D01*
X002385Y006369D01*
X002424Y006385D01*
X002464Y006398D01*
X002506Y006407D01*
X002548Y006412D01*
X002591Y006413D01*
X002633Y006410D01*
X002675Y006403D01*
X002716Y006392D01*
X002756Y006377D01*
X002794Y006359D01*
X002831Y006337D01*
X002865Y006312D01*
X002897Y006284D01*
X002925Y006253D01*
X002951Y006219D01*
X002974Y006183D01*
X002993Y006146D01*
X003009Y006106D01*
X003021Y006065D01*
X003029Y006024D01*
X003033Y005981D01*
X003033Y005939D01*
X003029Y005896D01*
X003021Y005855D01*
X003009Y005814D01*
X002993Y005774D01*
X002974Y005737D01*
X002951Y005701D01*
X002925Y005667D01*
X002897Y005636D01*
X002865Y005608D01*
X002831Y005583D01*
X002794Y005561D01*
X002756Y005543D01*
X002716Y005528D01*
X002675Y005517D01*
X002633Y005510D01*
X002591Y005507D01*
X002548Y005508D01*
X002506Y005513D01*
X002464Y005522D01*
X002424Y005535D01*
X002385Y005551D01*
X002347Y005571D01*
X002312Y005595D01*
X002279Y005621D01*
X002249Y005651D01*
X002221Y005684D01*
X002197Y005718D01*
X002176Y005755D01*
X002158Y005794D01*
X002145Y005834D01*
X002135Y005876D01*
X002129Y005918D01*
X002127Y005960D01*
X000218Y005960D02*
X000221Y006076D01*
X000229Y006192D01*
X000244Y006307D01*
X000263Y006421D01*
X000289Y006534D01*
X000320Y006646D01*
X000356Y006756D01*
X000398Y006864D01*
X000445Y006970D01*
X000497Y007073D01*
X000554Y007174D01*
X000616Y007272D01*
X000683Y007367D01*
X000754Y007458D01*
X000830Y007546D01*
X000910Y007630D01*
X000994Y007710D01*
X001082Y007786D01*
X001173Y007857D01*
X001268Y007924D01*
X001366Y007986D01*
X001467Y008043D01*
X001570Y008095D01*
X001676Y008142D01*
X001784Y008184D01*
X001894Y008220D01*
X002006Y008251D01*
X002119Y008277D01*
X002233Y008296D01*
X002348Y008311D01*
X002464Y008319D01*
X002580Y008322D01*
X002696Y008319D01*
X002812Y008311D01*
X002927Y008296D01*
X003041Y008277D01*
X003154Y008251D01*
X003266Y008220D01*
X003376Y008184D01*
X003484Y008142D01*
X003590Y008095D01*
X003693Y008043D01*
X003794Y007986D01*
X003892Y007924D01*
X003987Y007857D01*
X004078Y007786D01*
X004166Y007710D01*
X004250Y007630D01*
X004330Y007546D01*
X004406Y007458D01*
X004477Y007367D01*
X004544Y007272D01*
X004606Y007174D01*
X004663Y007073D01*
X004715Y006970D01*
X004762Y006864D01*
X004804Y006756D01*
X004840Y006646D01*
X004871Y006534D01*
X004897Y006421D01*
X004916Y006307D01*
X004931Y006192D01*
X004939Y006076D01*
X004942Y005960D01*
X004939Y005844D01*
X004931Y005728D01*
X004916Y005613D01*
X004897Y005499D01*
X004871Y005386D01*
X004840Y005274D01*
X004804Y005164D01*
X004762Y005056D01*
X004715Y004950D01*
X004663Y004847D01*
X004606Y004746D01*
X004544Y004648D01*
X004477Y004553D01*
X004406Y004462D01*
X004330Y004374D01*
X004250Y004290D01*
X004166Y004210D01*
X004078Y004134D01*
X003987Y004063D01*
X003892Y003996D01*
X003794Y003934D01*
X003693Y003877D01*
X003590Y003825D01*
X003484Y003778D01*
X003376Y003736D01*
X003266Y003700D01*
X003154Y003669D01*
X003041Y003643D01*
X002927Y003624D01*
X002812Y003609D01*
X002696Y003601D01*
X002580Y003598D01*
X002464Y003601D01*
X002348Y003609D01*
X002233Y003624D01*
X002119Y003643D01*
X002006Y003669D01*
X001894Y003700D01*
X001784Y003736D01*
X001676Y003778D01*
X001570Y003825D01*
X001467Y003877D01*
X001366Y003934D01*
X001268Y003996D01*
X001173Y004063D01*
X001082Y004134D01*
X000994Y004210D01*
X000910Y004290D01*
X000830Y004374D01*
X000754Y004462D01*
X000683Y004553D01*
X000616Y004648D01*
X000554Y004746D01*
X000497Y004847D01*
X000445Y004950D01*
X000398Y005056D01*
X000356Y005164D01*
X000320Y005274D01*
X000289Y005386D01*
X000263Y005499D01*
X000244Y005613D01*
X000229Y005728D01*
X000221Y005844D01*
X000218Y005960D01*
X008680Y004560D02*
X008880Y004560D01*
X008780Y004460D02*
X008780Y004660D01*
X007885Y004391D02*
X007887Y004329D01*
X007893Y004268D01*
X007902Y004207D01*
X007916Y004146D01*
X007933Y004087D01*
X007954Y004029D01*
X007979Y003972D01*
X008007Y003917D01*
X008038Y003864D01*
X008073Y003813D01*
X008111Y003764D01*
X008152Y003717D01*
X008195Y003674D01*
X008242Y003633D01*
X008291Y003595D01*
X008342Y003560D01*
X008395Y003529D01*
X008450Y003501D01*
X008507Y003476D01*
X008565Y003455D01*
X008624Y003438D01*
X008685Y003424D01*
X008746Y003415D01*
X008807Y003409D01*
X008869Y003407D01*
X012830Y004360D02*
X012832Y004433D01*
X012838Y004506D01*
X012848Y004578D01*
X012862Y004650D01*
X012879Y004721D01*
X012901Y004791D01*
X012926Y004860D01*
X012955Y004927D01*
X012987Y004992D01*
X013023Y005056D01*
X013063Y005118D01*
X013105Y005177D01*
X013151Y005234D01*
X013200Y005288D01*
X013252Y005340D01*
X013306Y005389D01*
X013363Y005435D01*
X013422Y005477D01*
X013484Y005517D01*
X013548Y005553D01*
X013613Y005585D01*
X013680Y005614D01*
X013749Y005639D01*
X013819Y005661D01*
X013890Y005678D01*
X013962Y005692D01*
X014034Y005702D01*
X014107Y005708D01*
X014180Y005710D01*
X014253Y005708D01*
X014326Y005702D01*
X014398Y005692D01*
X014470Y005678D01*
X014541Y005661D01*
X014611Y005639D01*
X014680Y005614D01*
X014747Y005585D01*
X014812Y005553D01*
X014876Y005517D01*
X014938Y005477D01*
X014997Y005435D01*
X015054Y005389D01*
X015108Y005340D01*
X015160Y005288D01*
X015209Y005234D01*
X015255Y005177D01*
X015297Y005118D01*
X015337Y005056D01*
X015373Y004992D01*
X015405Y004927D01*
X015434Y004860D01*
X015459Y004791D01*
X015481Y004721D01*
X015498Y004650D01*
X015512Y004578D01*
X015522Y004506D01*
X015528Y004433D01*
X015530Y004360D01*
X015528Y004287D01*
X015522Y004214D01*
X015512Y004142D01*
X015498Y004070D01*
X015481Y003999D01*
X015459Y003929D01*
X015434Y003860D01*
X015405Y003793D01*
X015373Y003728D01*
X015337Y003664D01*
X015297Y003602D01*
X015255Y003543D01*
X015209Y003486D01*
X015160Y003432D01*
X015108Y003380D01*
X015054Y003331D01*
X014997Y003285D01*
X014938Y003243D01*
X014876Y003203D01*
X014812Y003167D01*
X014747Y003135D01*
X014680Y003106D01*
X014611Y003081D01*
X014541Y003059D01*
X014470Y003042D01*
X014398Y003028D01*
X014326Y003018D01*
X014253Y003012D01*
X014180Y003010D01*
X014107Y003012D01*
X014034Y003018D01*
X013962Y003028D01*
X013890Y003042D01*
X013819Y003059D01*
X013749Y003081D01*
X013680Y003106D01*
X013613Y003135D01*
X013548Y003167D01*
X013484Y003203D01*
X013422Y003243D01*
X013363Y003285D01*
X013306Y003331D01*
X013252Y003380D01*
X013200Y003432D01*
X013151Y003486D01*
X013105Y003543D01*
X013063Y003602D01*
X013023Y003664D01*
X012987Y003728D01*
X012955Y003793D01*
X012926Y003860D01*
X012901Y003929D01*
X012879Y003999D01*
X012862Y004070D01*
X012848Y004142D01*
X012838Y004214D01*
X012832Y004287D01*
X012830Y004360D01*
X009680Y005160D02*
X009480Y005160D01*
X009580Y005260D02*
X009580Y005060D01*
X019030Y005410D02*
X019330Y005410D01*
X019180Y005560D02*
X019180Y005260D01*
X017830Y004360D02*
X017832Y004433D01*
X017838Y004506D01*
X017848Y004578D01*
X017862Y004650D01*
X017879Y004721D01*
X017901Y004791D01*
X017926Y004860D01*
X017955Y004927D01*
X017987Y004992D01*
X018023Y005056D01*
X018063Y005118D01*
X018105Y005177D01*
X018151Y005234D01*
X018200Y005288D01*
X018252Y005340D01*
X018306Y005389D01*
X018363Y005435D01*
X018422Y005477D01*
X018484Y005517D01*
X018548Y005553D01*
X018613Y005585D01*
X018680Y005614D01*
X018749Y005639D01*
X018819Y005661D01*
X018890Y005678D01*
X018962Y005692D01*
X019034Y005702D01*
X019107Y005708D01*
X019180Y005710D01*
X019253Y005708D01*
X019326Y005702D01*
X019398Y005692D01*
X019470Y005678D01*
X019541Y005661D01*
X019611Y005639D01*
X019680Y005614D01*
X019747Y005585D01*
X019812Y005553D01*
X019876Y005517D01*
X019938Y005477D01*
X019997Y005435D01*
X020054Y005389D01*
X020108Y005340D01*
X020160Y005288D01*
X020209Y005234D01*
X020255Y005177D01*
X020297Y005118D01*
X020337Y005056D01*
X020373Y004992D01*
X020405Y004927D01*
X020434Y004860D01*
X020459Y004791D01*
X020481Y004721D01*
X020498Y004650D01*
X020512Y004578D01*
X020522Y004506D01*
X020528Y004433D01*
X020530Y004360D01*
X020528Y004287D01*
X020522Y004214D01*
X020512Y004142D01*
X020498Y004070D01*
X020481Y003999D01*
X020459Y003929D01*
X020434Y003860D01*
X020405Y003793D01*
X020373Y003728D01*
X020337Y003664D01*
X020297Y003602D01*
X020255Y003543D01*
X020209Y003486D01*
X020160Y003432D01*
X020108Y003380D01*
X020054Y003331D01*
X019997Y003285D01*
X019938Y003243D01*
X019876Y003203D01*
X019812Y003167D01*
X019747Y003135D01*
X019680Y003106D01*
X019611Y003081D01*
X019541Y003059D01*
X019470Y003042D01*
X019398Y003028D01*
X019326Y003018D01*
X019253Y003012D01*
X019180Y003010D01*
X019107Y003012D01*
X019034Y003018D01*
X018962Y003028D01*
X018890Y003042D01*
X018819Y003059D01*
X018749Y003081D01*
X018680Y003106D01*
X018613Y003135D01*
X018548Y003167D01*
X018484Y003203D01*
X018422Y003243D01*
X018363Y003285D01*
X018306Y003331D01*
X018252Y003380D01*
X018200Y003432D01*
X018151Y003486D01*
X018105Y003543D01*
X018063Y003602D01*
X018023Y003664D01*
X017987Y003728D01*
X017955Y003793D01*
X017926Y003860D01*
X017901Y003929D01*
X017879Y003999D01*
X017862Y004070D01*
X017848Y004142D01*
X017838Y004214D01*
X017832Y004287D01*
X017830Y004360D01*
X020080Y006360D02*
X020082Y006440D01*
X020088Y006519D01*
X020098Y006598D01*
X020112Y006677D01*
X020129Y006755D01*
X020151Y006832D01*
X020176Y006907D01*
X020206Y006981D01*
X020238Y007054D01*
X020275Y007125D01*
X020315Y007194D01*
X020358Y007261D01*
X020405Y007326D01*
X020454Y007388D01*
X020507Y007448D01*
X020563Y007505D01*
X020621Y007560D01*
X020682Y007611D01*
X020746Y007659D01*
X020812Y007704D01*
X020880Y007746D01*
X020950Y007784D01*
X021022Y007818D01*
X021095Y007849D01*
X021170Y007877D01*
X021247Y007900D01*
X021324Y007920D01*
X021402Y007936D01*
X021481Y007948D01*
X021560Y007956D01*
X021640Y007960D01*
X021720Y007960D01*
X021800Y007956D01*
X021879Y007948D01*
X021958Y007936D01*
X022036Y007920D01*
X022113Y007900D01*
X022190Y007877D01*
X022265Y007849D01*
X022338Y007818D01*
X022410Y007784D01*
X022480Y007746D01*
X022548Y007704D01*
X022614Y007659D01*
X022678Y007611D01*
X022739Y007560D01*
X022797Y007505D01*
X022853Y007448D01*
X022906Y007388D01*
X022955Y007326D01*
X023002Y007261D01*
X023045Y007194D01*
X023085Y007125D01*
X023122Y007054D01*
X023154Y006981D01*
X023184Y006907D01*
X023209Y006832D01*
X023231Y006755D01*
X023248Y006677D01*
X023262Y006598D01*
X023272Y006519D01*
X023278Y006440D01*
X023280Y006360D01*
X023278Y006280D01*
X023272Y006201D01*
X023262Y006122D01*
X023248Y006043D01*
X023231Y005965D01*
X023209Y005888D01*
X023184Y005813D01*
X023154Y005739D01*
X023122Y005666D01*
X023085Y005595D01*
X023045Y005526D01*
X023002Y005459D01*
X022955Y005394D01*
X022906Y005332D01*
X022853Y005272D01*
X022797Y005215D01*
X022739Y005160D01*
X022678Y005109D01*
X022614Y005061D01*
X022548Y005016D01*
X022480Y004974D01*
X022410Y004936D01*
X022338Y004902D01*
X022265Y004871D01*
X022190Y004843D01*
X022113Y004820D01*
X022036Y004800D01*
X021958Y004784D01*
X021879Y004772D01*
X021800Y004764D01*
X021720Y004760D01*
X021640Y004760D01*
X021560Y004764D01*
X021481Y004772D01*
X021402Y004784D01*
X021324Y004800D01*
X021247Y004820D01*
X021170Y004843D01*
X021095Y004871D01*
X021022Y004902D01*
X020950Y004936D01*
X020880Y004974D01*
X020812Y005016D01*
X020746Y005061D01*
X020682Y005109D01*
X020621Y005160D01*
X020563Y005215D01*
X020507Y005272D01*
X020454Y005332D01*
X020405Y005394D01*
X020358Y005459D01*
X020315Y005526D01*
X020275Y005595D01*
X020238Y005666D01*
X020206Y005739D01*
X020176Y005813D01*
X020151Y005888D01*
X020129Y005965D01*
X020112Y006043D01*
X020098Y006122D01*
X020088Y006201D01*
X020082Y006280D01*
X020080Y006360D01*
X036630Y001860D02*
X036632Y001933D01*
X036638Y002006D01*
X036648Y002078D01*
X036662Y002150D01*
X036679Y002221D01*
X036701Y002291D01*
X036726Y002360D01*
X036755Y002427D01*
X036787Y002492D01*
X036823Y002556D01*
X036863Y002618D01*
X036905Y002677D01*
X036951Y002734D01*
X037000Y002788D01*
X037052Y002840D01*
X037106Y002889D01*
X037163Y002935D01*
X037222Y002977D01*
X037284Y003017D01*
X037348Y003053D01*
X037413Y003085D01*
X037480Y003114D01*
X037549Y003139D01*
X037619Y003161D01*
X037690Y003178D01*
X037762Y003192D01*
X037834Y003202D01*
X037907Y003208D01*
X037980Y003210D01*
X038053Y003208D01*
X038126Y003202D01*
X038198Y003192D01*
X038270Y003178D01*
X038341Y003161D01*
X038411Y003139D01*
X038480Y003114D01*
X038547Y003085D01*
X038612Y003053D01*
X038676Y003017D01*
X038738Y002977D01*
X038797Y002935D01*
X038854Y002889D01*
X038908Y002840D01*
X038960Y002788D01*
X039009Y002734D01*
X039055Y002677D01*
X039097Y002618D01*
X039137Y002556D01*
X039173Y002492D01*
X039205Y002427D01*
X039234Y002360D01*
X039259Y002291D01*
X039281Y002221D01*
X039298Y002150D01*
X039312Y002078D01*
X039322Y002006D01*
X039328Y001933D01*
X039330Y001860D01*
X039328Y001787D01*
X039322Y001714D01*
X039312Y001642D01*
X039298Y001570D01*
X039281Y001499D01*
X039259Y001429D01*
X039234Y001360D01*
X039205Y001293D01*
X039173Y001228D01*
X039137Y001164D01*
X039097Y001102D01*
X039055Y001043D01*
X039009Y000986D01*
X038960Y000932D01*
X038908Y000880D01*
X038854Y000831D01*
X038797Y000785D01*
X038738Y000743D01*
X038676Y000703D01*
X038612Y000667D01*
X038547Y000635D01*
X038480Y000606D01*
X038411Y000581D01*
X038341Y000559D01*
X038270Y000542D01*
X038198Y000528D01*
X038126Y000518D01*
X038053Y000512D01*
X037980Y000510D01*
X037907Y000512D01*
X037834Y000518D01*
X037762Y000528D01*
X037690Y000542D01*
X037619Y000559D01*
X037549Y000581D01*
X037480Y000606D01*
X037413Y000635D01*
X037348Y000667D01*
X037284Y000703D01*
X037222Y000743D01*
X037163Y000785D01*
X037106Y000831D01*
X037052Y000880D01*
X037000Y000932D01*
X036951Y000986D01*
X036905Y001043D01*
X036863Y001102D01*
X036823Y001164D01*
X036787Y001228D01*
X036755Y001293D01*
X036726Y001360D01*
X036701Y001429D01*
X036679Y001499D01*
X036662Y001570D01*
X036648Y001642D01*
X036638Y001714D01*
X036632Y001787D01*
X036630Y001860D01*
D11*
X034176Y002630D02*
X034101Y002555D01*
X033951Y002555D01*
X033876Y002630D01*
X034176Y002930D01*
X034176Y002630D01*
X033876Y002630D02*
X033876Y002930D01*
X033951Y003005D01*
X034101Y003005D01*
X034176Y002930D01*
X033566Y003005D02*
X033566Y002555D01*
X033716Y002555D02*
X033415Y002555D01*
X033255Y002630D02*
X033180Y002555D01*
X033030Y002555D01*
X032955Y002630D01*
X032955Y002930D01*
X033030Y003005D01*
X033180Y003005D01*
X033255Y002930D01*
X033415Y002855D02*
X033566Y003005D01*
X035267Y003085D02*
X035417Y003085D01*
X035342Y003085D02*
X035342Y002635D01*
X035267Y002635D02*
X035417Y002635D01*
X035574Y002635D02*
X035574Y003085D01*
X035799Y003085D01*
X035874Y003010D01*
X035874Y002860D01*
X035799Y002785D01*
X035574Y002785D01*
X035724Y002785D02*
X035874Y002635D01*
X036035Y002635D02*
X036335Y002635D01*
X036185Y002635D02*
X036185Y003085D01*
X036035Y002935D01*
X036168Y003420D02*
X035605Y003420D01*
X036168Y003420D02*
X036168Y003814D01*
X036680Y003814D01*
X036680Y004420D01*
X035605Y004420D01*
X036680Y004420D02*
X036680Y005026D01*
X036168Y005026D01*
X036168Y005420D01*
X035605Y005420D01*
X036535Y005575D02*
X036760Y005575D01*
X036835Y005650D01*
X036835Y005950D01*
X036760Y006025D01*
X036535Y006025D01*
X036535Y005575D01*
X036680Y005420D02*
X039416Y005420D01*
X039416Y003420D01*
X036680Y003420D01*
X036680Y003436D02*
X036680Y003633D01*
X038353Y003633D01*
X036680Y003633D02*
X036680Y003814D01*
X038353Y003633D02*
X038408Y003635D01*
X038463Y003641D01*
X038517Y003650D01*
X038570Y003663D01*
X038622Y003680D01*
X038673Y003701D01*
X038722Y003725D01*
X038770Y003753D01*
X038816Y003783D01*
X038859Y003817D01*
X038900Y003854D01*
X038938Y003893D01*
X038973Y003935D01*
X039005Y003980D01*
X039035Y004027D01*
X039060Y004075D01*
X039083Y004125D01*
X039101Y004177D01*
X039117Y004230D01*
X039128Y004283D01*
X039136Y004338D01*
X039140Y004393D01*
X039140Y004447D01*
X039136Y004502D01*
X039128Y004557D01*
X039117Y004610D01*
X039101Y004663D01*
X039083Y004715D01*
X039060Y004765D01*
X039035Y004814D01*
X039005Y004860D01*
X038973Y004905D01*
X038938Y004947D01*
X038900Y004986D01*
X038859Y005023D01*
X038816Y005057D01*
X038770Y005087D01*
X038722Y005115D01*
X038673Y005139D01*
X038622Y005160D01*
X038570Y005177D01*
X038517Y005190D01*
X038463Y005199D01*
X038408Y005205D01*
X038353Y005207D01*
X036680Y005207D01*
X036680Y005404D01*
X036995Y005650D02*
X037070Y005575D01*
X037221Y005575D01*
X037296Y005650D01*
X037296Y005725D01*
X037221Y005800D01*
X036995Y005800D01*
X036995Y005650D01*
X036995Y005800D02*
X037146Y005950D01*
X037296Y006025D01*
X036266Y006200D02*
X035965Y005900D01*
X035965Y005825D01*
X035805Y005825D02*
X035655Y005975D01*
X035730Y005975D02*
X035505Y005975D01*
X035505Y005825D02*
X035505Y006275D01*
X035730Y006275D01*
X035805Y006200D01*
X035805Y006050D01*
X035730Y005975D01*
X035965Y006275D02*
X036266Y006275D01*
X036266Y006200D01*
X035571Y006865D02*
X035420Y006865D01*
X035345Y006940D01*
X035345Y007015D01*
X035420Y007090D01*
X035571Y007090D01*
X035646Y007015D01*
X035646Y006940D01*
X035571Y006865D01*
X035185Y006865D02*
X035035Y007015D01*
X035110Y007015D02*
X034885Y007015D01*
X035110Y007015D02*
X035185Y007090D01*
X035185Y007240D01*
X035110Y007315D01*
X034885Y007315D01*
X034885Y006865D01*
X035345Y007165D02*
X035420Y007090D01*
X035345Y007165D02*
X035345Y007240D01*
X035420Y007315D01*
X035571Y007315D01*
X035646Y007240D01*
X035646Y007165D01*
X035571Y007090D01*
X031985Y005920D02*
X031910Y005995D01*
X031760Y005995D01*
X031685Y005920D01*
X031985Y005920D02*
X031985Y005845D01*
X031685Y005545D01*
X031985Y005545D01*
X031524Y005545D02*
X031224Y005545D01*
X031374Y005545D02*
X031374Y005995D01*
X031224Y005845D01*
X031064Y005770D02*
X030989Y005695D01*
X030764Y005695D01*
X030914Y005695D02*
X031064Y005545D01*
X030764Y005545D02*
X030764Y005995D01*
X030989Y005995D01*
X031064Y005920D01*
X031064Y005770D01*
X031025Y006125D02*
X031326Y006125D01*
X031176Y006125D02*
X031176Y006575D01*
X031025Y006425D01*
X030865Y006500D02*
X030865Y006350D01*
X030790Y006275D01*
X030565Y006275D01*
X030565Y006125D02*
X030565Y006575D01*
X030790Y006575D01*
X030865Y006500D01*
X031486Y006500D02*
X031561Y006575D01*
X031711Y006575D01*
X031786Y006500D01*
X031486Y006200D01*
X031561Y006125D01*
X031711Y006125D01*
X031786Y006200D01*
X031786Y006500D01*
X031486Y006500D02*
X031486Y006200D01*
X030865Y006125D02*
X030715Y006275D01*
X036680Y005207D02*
X036680Y005026D01*
X031256Y003735D02*
X030956Y003735D01*
X031106Y003735D02*
X031106Y004185D01*
X030956Y004035D01*
X030646Y004185D02*
X030495Y004035D01*
X030335Y004110D02*
X030260Y004185D01*
X030110Y004185D01*
X030035Y004110D01*
X030035Y003810D01*
X030110Y003735D01*
X030260Y003735D01*
X030335Y003810D01*
X030495Y003735D02*
X030796Y003735D01*
X030646Y003735D02*
X030646Y004185D01*
X030685Y003275D02*
X030535Y003200D01*
X030385Y003050D01*
X030610Y003050D01*
X030685Y002975D01*
X030685Y002900D01*
X030610Y002825D01*
X030460Y002825D01*
X030385Y002900D01*
X030385Y003050D01*
X030224Y003050D02*
X030224Y003200D01*
X030149Y003275D01*
X029924Y003275D01*
X029924Y002825D01*
X030074Y002975D02*
X030224Y002825D01*
X030149Y002975D02*
X029924Y002975D01*
X030149Y002975D02*
X030224Y003050D01*
X022006Y004280D02*
X021931Y004205D01*
X021780Y004205D01*
X021705Y004280D01*
X021705Y004430D01*
X021931Y004430D01*
X022006Y004355D01*
X022006Y004280D01*
X021856Y004580D02*
X021705Y004430D01*
X021856Y004580D02*
X022006Y004655D01*
X021545Y004580D02*
X021470Y004655D01*
X021320Y004655D01*
X021245Y004580D01*
X021245Y004280D01*
X021320Y004205D01*
X021470Y004205D01*
X021545Y004280D01*
X018746Y002975D02*
X018445Y002975D01*
X018445Y002750D01*
X018596Y002825D01*
X018671Y002825D01*
X018746Y002750D01*
X018746Y002600D01*
X018671Y002525D01*
X018520Y002525D01*
X018445Y002600D01*
X018285Y002600D02*
X018210Y002525D01*
X018060Y002525D01*
X017985Y002600D01*
X017985Y002900D01*
X018060Y002975D01*
X018210Y002975D01*
X018285Y002900D01*
X016931Y003945D02*
X016931Y004395D01*
X016705Y004170D01*
X017006Y004170D01*
X016545Y004320D02*
X016470Y004395D01*
X016320Y004395D01*
X016245Y004320D01*
X016245Y004020D01*
X016320Y003945D01*
X016470Y003945D01*
X016545Y004020D01*
X013786Y002940D02*
X013711Y003015D01*
X013560Y003015D01*
X013485Y002940D01*
X013325Y002940D02*
X013250Y003015D01*
X013100Y003015D01*
X013025Y002940D01*
X013025Y002640D01*
X013100Y002565D01*
X013250Y002565D01*
X013325Y002640D01*
X013485Y002640D02*
X013560Y002565D01*
X013711Y002565D01*
X013786Y002640D01*
X013786Y002715D01*
X013711Y002790D01*
X013636Y002790D01*
X013711Y002790D02*
X013786Y002865D01*
X013786Y002940D01*
X010505Y004680D02*
X010430Y004605D01*
X010280Y004605D01*
X010205Y004680D01*
X010044Y004680D02*
X009969Y004605D01*
X009819Y004605D01*
X009744Y004680D01*
X009744Y004980D01*
X009819Y005055D01*
X009969Y005055D01*
X010044Y004980D01*
X010205Y004980D02*
X010205Y004905D01*
X010280Y004830D01*
X010505Y004830D01*
X010505Y004680D02*
X010505Y004980D01*
X010430Y005055D01*
X010280Y005055D01*
X010205Y004980D01*
X006755Y005144D02*
X006305Y005144D01*
X006305Y005369D01*
X006380Y005444D01*
X006530Y005444D01*
X006605Y005369D01*
X006605Y005144D01*
X006605Y005294D02*
X006755Y005444D01*
X006755Y005605D02*
X006755Y005905D01*
X006755Y005755D02*
X006305Y005755D01*
X006455Y005605D01*
X005775Y005980D02*
X005700Y005905D01*
X005400Y005905D01*
X005325Y005980D01*
X005325Y006130D01*
X005400Y006205D01*
X005475Y006365D02*
X005325Y006516D01*
X005775Y006516D01*
X005775Y006666D02*
X005775Y006365D01*
X005700Y006205D02*
X005775Y006130D01*
X005775Y005980D01*
X006944Y007160D02*
X007019Y007085D01*
X007169Y007085D01*
X007244Y007160D01*
X007405Y007160D02*
X007405Y007235D01*
X007480Y007310D01*
X007630Y007310D01*
X007705Y007235D01*
X007705Y007160D01*
X007630Y007085D01*
X007480Y007085D01*
X007405Y007160D01*
X007480Y007310D02*
X007405Y007385D01*
X007405Y007460D01*
X007480Y007535D01*
X007630Y007535D01*
X007705Y007460D01*
X007705Y007385D01*
X007630Y007310D01*
X007244Y007460D02*
X007169Y007535D01*
X007019Y007535D01*
X006944Y007460D01*
X006944Y007160D01*
X013004Y006640D02*
X013004Y006340D01*
X013079Y006265D01*
X013229Y006265D01*
X013304Y006340D01*
X013465Y006265D02*
X013765Y006565D01*
X013765Y006640D01*
X013690Y006715D01*
X013540Y006715D01*
X013465Y006640D01*
X013304Y006640D02*
X013229Y006715D01*
X013079Y006715D01*
X013004Y006640D01*
X013864Y006815D02*
X014089Y006815D01*
X014164Y006890D01*
X014164Y007190D01*
X014089Y007265D01*
X013864Y007265D01*
X013864Y006815D01*
X014325Y006815D02*
X014625Y007115D01*
X014625Y007190D01*
X014550Y007265D01*
X014400Y007265D01*
X014325Y007190D01*
X014325Y006815D02*
X014625Y006815D01*
X013765Y006265D02*
X013465Y006265D01*
X017684Y006815D02*
X017909Y006815D01*
X017984Y006890D01*
X017984Y007190D01*
X017909Y007265D01*
X017684Y007265D01*
X017684Y006815D01*
X018145Y006890D02*
X018220Y006815D01*
X018370Y006815D01*
X018445Y006890D01*
X018445Y006965D01*
X018370Y007040D01*
X018295Y007040D01*
X018370Y007040D02*
X018445Y007115D01*
X018445Y007190D01*
X018370Y007265D01*
X018220Y007265D01*
X018145Y007190D01*
X015185Y007975D02*
X014885Y007975D01*
X015035Y007975D02*
X015035Y008425D01*
X014885Y008275D01*
X014724Y008350D02*
X014649Y008425D01*
X014424Y008425D01*
X014424Y007975D01*
X014649Y007975D01*
X014724Y008050D01*
X014724Y008350D01*
X016524Y009495D02*
X016749Y009495D01*
X016824Y009570D01*
X016824Y009870D01*
X016749Y009945D01*
X016524Y009945D01*
X016524Y009495D01*
X016985Y009720D02*
X017285Y009720D01*
X017210Y009945D02*
X016985Y009720D01*
X017210Y009495D02*
X017210Y009945D01*
X018084Y009845D02*
X018309Y009845D01*
X018384Y009770D01*
X018384Y009470D01*
X018309Y009395D01*
X018084Y009395D01*
X018084Y009845D01*
X018545Y009845D02*
X018545Y009620D01*
X018695Y009695D01*
X018770Y009695D01*
X018845Y009620D01*
X018845Y009470D01*
X018770Y009395D01*
X018620Y009395D01*
X018545Y009470D01*
X018545Y009845D02*
X018845Y009845D01*
X010825Y010730D02*
X010525Y010730D01*
X010750Y010955D01*
X010750Y010505D01*
X010364Y010505D02*
X010214Y010655D01*
X010289Y010655D02*
X010064Y010655D01*
X010064Y010505D02*
X010064Y010955D01*
X010289Y010955D01*
X010364Y010880D01*
X010364Y010730D01*
X010289Y010655D01*
X007746Y009480D02*
X007671Y009555D01*
X007520Y009555D01*
X007445Y009480D01*
X007285Y009480D02*
X007285Y009330D01*
X007210Y009255D01*
X006985Y009255D01*
X006985Y009105D02*
X006985Y009555D01*
X007210Y009555D01*
X007285Y009480D01*
X007445Y009105D02*
X007746Y009405D01*
X007746Y009480D01*
X007285Y009105D02*
X007135Y009255D01*
X007445Y009105D02*
X007746Y009105D01*
X004446Y009440D02*
X004371Y009365D01*
X004220Y009365D01*
X004145Y009440D01*
X004145Y009590D02*
X004296Y009665D01*
X004371Y009665D01*
X004446Y009590D01*
X004446Y009440D01*
X004145Y009590D02*
X004145Y009815D01*
X004446Y009815D01*
X003985Y009740D02*
X003985Y009590D01*
X003910Y009515D01*
X003685Y009515D01*
X003835Y009515D02*
X003985Y009365D01*
X003685Y009365D02*
X003685Y009815D01*
X003910Y009815D01*
X003985Y009740D01*
X000785Y004364D02*
X000785Y004064D01*
X000785Y004214D02*
X000335Y004214D01*
X000485Y004064D01*
X000410Y003904D02*
X000335Y003904D01*
X000335Y003604D01*
X000410Y003904D02*
X000710Y003604D01*
X000785Y003604D01*
X000785Y003904D01*
X000710Y003444D02*
X000785Y003369D01*
X000785Y003143D01*
X000335Y003143D01*
X000335Y003369D01*
X000410Y003444D01*
X000485Y003444D01*
X000560Y003369D01*
X000560Y003143D01*
X000560Y003369D02*
X000635Y003444D01*
X000710Y003444D01*
X005705Y002095D02*
X005930Y002095D01*
X006005Y002020D01*
X006005Y001870D01*
X005930Y001795D01*
X005705Y001795D01*
X006165Y001720D02*
X006240Y001645D01*
X006391Y001645D01*
X006466Y001720D01*
X006626Y001645D02*
X006926Y001645D01*
X006776Y001645D02*
X006776Y002095D01*
X006626Y001945D01*
X006466Y002020D02*
X006391Y002095D01*
X006240Y002095D01*
X006165Y002020D01*
X006165Y001720D01*
X005705Y001645D02*
X005705Y002095D01*
X006285Y002585D02*
X006285Y002810D01*
X006360Y002885D01*
X006510Y002885D01*
X006585Y002810D01*
X006585Y002585D01*
X006735Y002585D02*
X006285Y002585D01*
X006585Y002735D02*
X006735Y002885D01*
X006660Y003045D02*
X006735Y003120D01*
X006735Y003271D01*
X006660Y003346D01*
X006585Y003346D01*
X006510Y003271D01*
X006510Y003196D01*
X006510Y003271D02*
X006435Y003346D01*
X006360Y003346D01*
X006285Y003271D01*
X006285Y003120D01*
X006360Y003045D01*
X007525Y003100D02*
X007525Y002800D01*
X007600Y002725D01*
X007750Y002725D01*
X007825Y002800D01*
X007985Y002800D02*
X007985Y002725D01*
X007985Y002800D02*
X008286Y003100D01*
X008286Y003175D01*
X007985Y003175D01*
X007825Y003100D02*
X007750Y003175D01*
X007600Y003175D01*
X007525Y003100D01*
X006416Y000995D02*
X006416Y000545D01*
X006266Y000545D02*
X006566Y000545D01*
X006106Y000545D02*
X005805Y000545D01*
X005956Y000545D02*
X005956Y000995D01*
X005805Y000845D01*
X005645Y000920D02*
X005645Y000770D01*
X005570Y000695D01*
X005345Y000695D01*
X005345Y000545D02*
X005345Y000995D01*
X005570Y000995D01*
X005645Y000920D01*
X006266Y000845D02*
X006416Y000995D01*
X005645Y000545D02*
X005495Y000695D01*
X031144Y008345D02*
X031144Y008795D01*
X031369Y008795D01*
X031444Y008720D01*
X031444Y008570D01*
X031369Y008495D01*
X031144Y008495D01*
X031294Y008495D02*
X031444Y008345D01*
X031604Y008345D02*
X031904Y008345D01*
X031754Y008345D02*
X031754Y008795D01*
X031604Y008645D01*
X032065Y008570D02*
X032365Y008570D01*
X032290Y008795D02*
X032065Y008570D01*
X032290Y008345D02*
X032290Y008795D01*
X032285Y009405D02*
X032285Y009855D01*
X032510Y009855D01*
X032585Y009780D01*
X032585Y009630D01*
X032510Y009555D01*
X032285Y009555D01*
X032435Y009555D02*
X032585Y009405D01*
X032745Y009405D02*
X033046Y009405D01*
X032896Y009405D02*
X032896Y009855D01*
X032745Y009705D01*
X033206Y009780D02*
X033281Y009855D01*
X033431Y009855D01*
X033506Y009780D01*
X033506Y009705D01*
X033431Y009630D01*
X033506Y009555D01*
X033506Y009480D01*
X033431Y009405D01*
X033281Y009405D01*
X033206Y009480D01*
X033356Y009630D02*
X033431Y009630D01*
X034444Y010525D02*
X034444Y010975D01*
X034669Y010975D01*
X034744Y010900D01*
X034744Y010750D01*
X034669Y010675D01*
X034444Y010675D01*
X034594Y010675D02*
X034744Y010525D01*
X034905Y010600D02*
X034980Y010525D01*
X035130Y010525D01*
X035205Y010600D01*
X035205Y010900D01*
X035130Y010975D01*
X034980Y010975D01*
X034905Y010900D01*
X034905Y010825D01*
X034980Y010750D01*
X035205Y010750D01*
D12*
X036680Y007580D02*
X037023Y007580D01*
X036680Y007580D02*
X036680Y007080D01*
X036680Y006580D01*
X037023Y006580D01*
X039180Y006330D02*
X039137Y006276D01*
X039091Y006224D01*
X039042Y006175D01*
X038990Y006128D01*
X038936Y006085D01*
X038880Y006044D01*
X038821Y006007D01*
X038761Y005973D01*
X038698Y005943D01*
X038635Y005916D01*
X038569Y005892D01*
X038503Y005872D01*
X038435Y005856D01*
X038367Y005844D01*
X038298Y005836D01*
X038229Y005831D01*
X038159Y005830D01*
X038090Y005833D01*
X038021Y005840D01*
X037953Y005851D01*
X037885Y005865D01*
X037818Y005884D01*
X037752Y005906D01*
X037687Y005931D01*
X037624Y005960D01*
X037563Y005993D01*
X037504Y006029D01*
X037447Y006068D01*
X037391Y006110D01*
X037339Y006155D01*
X037289Y006203D01*
X037242Y006254D01*
X037197Y006308D01*
X037156Y006363D01*
X037118Y006421D01*
X037083Y006481D01*
X037051Y006543D01*
X037023Y006606D01*
X036999Y006671D01*
X036978Y006737D01*
X036961Y006805D01*
X036947Y006873D01*
X036938Y006942D01*
X036932Y007011D01*
X036930Y007080D01*
X036932Y007149D01*
X036938Y007218D01*
X036947Y007287D01*
X036961Y007355D01*
X036978Y007423D01*
X036999Y007489D01*
X037023Y007554D01*
X037051Y007617D01*
X037083Y007679D01*
X037118Y007739D01*
X037156Y007797D01*
X037197Y007852D01*
X037242Y007906D01*
X037289Y007957D01*
X037339Y008005D01*
X037391Y008050D01*
X037447Y008092D01*
X037504Y008131D01*
X037563Y008167D01*
X037624Y008200D01*
X037687Y008229D01*
X037752Y008254D01*
X037818Y008276D01*
X037885Y008295D01*
X037953Y008309D01*
X038021Y008320D01*
X038090Y008327D01*
X038159Y008330D01*
X038229Y008329D01*
X038298Y008324D01*
X038367Y008316D01*
X038435Y008304D01*
X038503Y008288D01*
X038569Y008268D01*
X038635Y008244D01*
X038698Y008217D01*
X038761Y008187D01*
X038821Y008153D01*
X038880Y008116D01*
X038936Y008075D01*
X038990Y008032D01*
X039042Y007985D01*
X039091Y007936D01*
X039137Y007884D01*
X039180Y007830D01*
X009280Y007660D02*
X009280Y007360D01*
X009280Y007060D01*
X009080Y007060D02*
X009080Y007360D01*
X009080Y007660D01*
X005980Y004960D02*
X005680Y004960D01*
X005380Y004960D01*
X005380Y004760D02*
X005680Y004760D01*
X005980Y004760D01*
X004030Y004680D02*
X003530Y004680D01*
X003780Y004930D02*
X003780Y004430D01*
D13*
X007080Y004360D02*
X007280Y004360D01*
X007680Y005760D02*
X007680Y005960D01*
X008680Y008760D02*
X008680Y008960D01*
X009580Y009860D02*
X009780Y009860D01*
X005280Y010360D02*
X005080Y010360D01*
X031580Y002560D02*
X031780Y002560D01*
X033080Y005860D02*
X033280Y005860D01*
X032780Y006860D02*
X032580Y006860D01*
X032280Y007860D02*
X032080Y007860D01*
X033680Y008260D02*
X033680Y008460D01*
X035320Y008460D02*
X035320Y008260D01*
X036480Y007240D02*
X036480Y007040D01*
X034780Y009860D02*
X034580Y009860D01*
X004560Y000760D02*
X004360Y000760D01*
D14*
X003834Y001651D02*
X003834Y003069D01*
X003867Y003120D01*
X003904Y003169D01*
X003944Y003215D01*
X003987Y003259D01*
X004032Y003301D01*
X004080Y003339D01*
X004130Y003375D01*
X004182Y003407D01*
X004236Y003436D01*
X004292Y003461D01*
X004349Y003483D01*
X004408Y003502D01*
X004467Y003517D01*
X004527Y003528D01*
X004588Y003536D01*
X004649Y003540D01*
X004711Y003540D01*
X004772Y003536D01*
X004833Y003528D01*
X004893Y003517D01*
X004952Y003502D01*
X005011Y003483D01*
X005068Y003461D01*
X005124Y003436D01*
X005178Y003407D01*
X005230Y003375D01*
X005280Y003339D01*
X005328Y003301D01*
X005373Y003259D01*
X005416Y003215D01*
X005456Y003169D01*
X005493Y003120D01*
X005526Y003069D01*
X005526Y001651D01*
X005493Y001600D01*
X005456Y001551D01*
X005416Y001505D01*
X005373Y001461D01*
X005328Y001419D01*
X005280Y001381D01*
X005230Y001345D01*
X005178Y001313D01*
X005124Y001284D01*
X005068Y001259D01*
X005011Y001237D01*
X004952Y001218D01*
X004893Y001203D01*
X004833Y001192D01*
X004772Y001184D01*
X004711Y001180D01*
X004649Y001180D01*
X004588Y001184D01*
X004527Y001192D01*
X004467Y001203D01*
X004408Y001218D01*
X004349Y001237D01*
X004292Y001259D01*
X004236Y001284D01*
X004182Y001313D01*
X004130Y001345D01*
X004080Y001381D01*
X004032Y001419D01*
X003987Y001461D01*
X003944Y001505D01*
X003904Y001551D01*
X003867Y001600D01*
X003834Y001651D01*
X001191Y001860D02*
X001193Y001912D01*
X001199Y001964D01*
X001209Y002015D01*
X001222Y002065D01*
X001240Y002115D01*
X001261Y002162D01*
X001285Y002208D01*
X001314Y002252D01*
X001345Y002294D01*
X001379Y002333D01*
X001416Y002370D01*
X001456Y002403D01*
X001499Y002434D01*
X001543Y002461D01*
X001589Y002485D01*
X001638Y002505D01*
X001687Y002521D01*
X001738Y002534D01*
X001789Y002543D01*
X001841Y002548D01*
X001893Y002549D01*
X001945Y002546D01*
X001997Y002539D01*
X002048Y002528D01*
X002098Y002514D01*
X002147Y002495D01*
X002194Y002473D01*
X002239Y002448D01*
X002283Y002419D01*
X002324Y002387D01*
X002363Y002352D01*
X002398Y002314D01*
X002431Y002273D01*
X002461Y002231D01*
X002487Y002186D01*
X002510Y002139D01*
X002529Y002090D01*
X002545Y002040D01*
X002557Y001990D01*
X002565Y001938D01*
X002569Y001886D01*
X002569Y001834D01*
X002565Y001782D01*
X002557Y001730D01*
X002545Y001680D01*
X002529Y001630D01*
X002510Y001581D01*
X002487Y001534D01*
X002461Y001489D01*
X002431Y001447D01*
X002398Y001406D01*
X002363Y001368D01*
X002324Y001333D01*
X002283Y001301D01*
X002239Y001272D01*
X002194Y001247D01*
X002147Y001225D01*
X002098Y001206D01*
X002048Y001192D01*
X001997Y001181D01*
X001945Y001174D01*
X001893Y001171D01*
X001841Y001172D01*
X001789Y001177D01*
X001738Y001186D01*
X001687Y001199D01*
X001638Y001215D01*
X001589Y001235D01*
X001543Y001259D01*
X001499Y001286D01*
X001456Y001317D01*
X001416Y001350D01*
X001379Y001387D01*
X001345Y001426D01*
X001314Y001468D01*
X001285Y001512D01*
X001261Y001558D01*
X001240Y001605D01*
X001222Y001655D01*
X001209Y001705D01*
X001199Y001756D01*
X001193Y001808D01*
X001191Y001860D01*
X001191Y009960D02*
X001193Y010012D01*
X001199Y010064D01*
X001209Y010115D01*
X001222Y010165D01*
X001240Y010215D01*
X001261Y010262D01*
X001285Y010308D01*
X001314Y010352D01*
X001345Y010394D01*
X001379Y010433D01*
X001416Y010470D01*
X001456Y010503D01*
X001499Y010534D01*
X001543Y010561D01*
X001589Y010585D01*
X001638Y010605D01*
X001687Y010621D01*
X001738Y010634D01*
X001789Y010643D01*
X001841Y010648D01*
X001893Y010649D01*
X001945Y010646D01*
X001997Y010639D01*
X002048Y010628D01*
X002098Y010614D01*
X002147Y010595D01*
X002194Y010573D01*
X002239Y010548D01*
X002283Y010519D01*
X002324Y010487D01*
X002363Y010452D01*
X002398Y010414D01*
X002431Y010373D01*
X002461Y010331D01*
X002487Y010286D01*
X002510Y010239D01*
X002529Y010190D01*
X002545Y010140D01*
X002557Y010090D01*
X002565Y010038D01*
X002569Y009986D01*
X002569Y009934D01*
X002565Y009882D01*
X002557Y009830D01*
X002545Y009780D01*
X002529Y009730D01*
X002510Y009681D01*
X002487Y009634D01*
X002461Y009589D01*
X002431Y009547D01*
X002398Y009506D01*
X002363Y009468D01*
X002324Y009433D01*
X002283Y009401D01*
X002239Y009372D01*
X002194Y009347D01*
X002147Y009325D01*
X002098Y009306D01*
X002048Y009292D01*
X001997Y009281D01*
X001945Y009274D01*
X001893Y009271D01*
X001841Y009272D01*
X001789Y009277D01*
X001738Y009286D01*
X001687Y009299D01*
X001638Y009315D01*
X001589Y009335D01*
X001543Y009359D01*
X001499Y009386D01*
X001456Y009417D01*
X001416Y009450D01*
X001379Y009487D01*
X001345Y009526D01*
X001314Y009568D01*
X001285Y009612D01*
X001261Y009658D01*
X001240Y009705D01*
X001222Y009755D01*
X001209Y009805D01*
X001199Y009856D01*
X001193Y009908D01*
X001191Y009960D01*
X037291Y009960D02*
X037293Y010012D01*
X037299Y010064D01*
X037309Y010115D01*
X037322Y010165D01*
X037340Y010215D01*
X037361Y010262D01*
X037385Y010308D01*
X037414Y010352D01*
X037445Y010394D01*
X037479Y010433D01*
X037516Y010470D01*
X037556Y010503D01*
X037599Y010534D01*
X037643Y010561D01*
X037689Y010585D01*
X037738Y010605D01*
X037787Y010621D01*
X037838Y010634D01*
X037889Y010643D01*
X037941Y010648D01*
X037993Y010649D01*
X038045Y010646D01*
X038097Y010639D01*
X038148Y010628D01*
X038198Y010614D01*
X038247Y010595D01*
X038294Y010573D01*
X038339Y010548D01*
X038383Y010519D01*
X038424Y010487D01*
X038463Y010452D01*
X038498Y010414D01*
X038531Y010373D01*
X038561Y010331D01*
X038587Y010286D01*
X038610Y010239D01*
X038629Y010190D01*
X038645Y010140D01*
X038657Y010090D01*
X038665Y010038D01*
X038669Y009986D01*
X038669Y009934D01*
X038665Y009882D01*
X038657Y009830D01*
X038645Y009780D01*
X038629Y009730D01*
X038610Y009681D01*
X038587Y009634D01*
X038561Y009589D01*
X038531Y009547D01*
X038498Y009506D01*
X038463Y009468D01*
X038424Y009433D01*
X038383Y009401D01*
X038339Y009372D01*
X038294Y009347D01*
X038247Y009325D01*
X038198Y009306D01*
X038148Y009292D01*
X038097Y009281D01*
X038045Y009274D01*
X037993Y009271D01*
X037941Y009272D01*
X037889Y009277D01*
X037838Y009286D01*
X037787Y009299D01*
X037738Y009315D01*
X037689Y009335D01*
X037643Y009359D01*
X037599Y009386D01*
X037556Y009417D01*
X037516Y009450D01*
X037479Y009487D01*
X037445Y009526D01*
X037414Y009568D01*
X037385Y009612D01*
X037361Y009658D01*
X037340Y009705D01*
X037322Y009755D01*
X037309Y009805D01*
X037299Y009856D01*
X037293Y009908D01*
X037291Y009960D01*
X039180Y007830D02*
X039180Y006330D01*
X037291Y001860D02*
X037293Y001912D01*
X037299Y001964D01*
X037309Y002015D01*
X037322Y002065D01*
X037340Y002115D01*
X037361Y002162D01*
X037385Y002208D01*
X037414Y002252D01*
X037445Y002294D01*
X037479Y002333D01*
X037516Y002370D01*
X037556Y002403D01*
X037599Y002434D01*
X037643Y002461D01*
X037689Y002485D01*
X037738Y002505D01*
X037787Y002521D01*
X037838Y002534D01*
X037889Y002543D01*
X037941Y002548D01*
X037993Y002549D01*
X038045Y002546D01*
X038097Y002539D01*
X038148Y002528D01*
X038198Y002514D01*
X038247Y002495D01*
X038294Y002473D01*
X038339Y002448D01*
X038383Y002419D01*
X038424Y002387D01*
X038463Y002352D01*
X038498Y002314D01*
X038531Y002273D01*
X038561Y002231D01*
X038587Y002186D01*
X038610Y002139D01*
X038629Y002090D01*
X038645Y002040D01*
X038657Y001990D01*
X038665Y001938D01*
X038669Y001886D01*
X038669Y001834D01*
X038665Y001782D01*
X038657Y001730D01*
X038645Y001680D01*
X038629Y001630D01*
X038610Y001581D01*
X038587Y001534D01*
X038561Y001489D01*
X038531Y001447D01*
X038498Y001406D01*
X038463Y001368D01*
X038424Y001333D01*
X038383Y001301D01*
X038339Y001272D01*
X038294Y001247D01*
X038247Y001225D01*
X038198Y001206D01*
X038148Y001192D01*
X038097Y001181D01*
X038045Y001174D01*
X037993Y001171D01*
X037941Y001172D01*
X037889Y001177D01*
X037838Y001186D01*
X037787Y001199D01*
X037738Y001215D01*
X037689Y001235D01*
X037643Y001259D01*
X037599Y001286D01*
X037556Y001317D01*
X037516Y001350D01*
X037479Y001387D01*
X037445Y001426D01*
X037414Y001468D01*
X037385Y001512D01*
X037361Y001558D01*
X037340Y001605D01*
X037322Y001655D01*
X037309Y001705D01*
X037299Y001756D01*
X037293Y001808D01*
X037291Y001860D01*
D15*
X018730Y007860D03*
X017730Y008860D03*
X013530Y007660D03*
X012630Y008660D03*
X020230Y010360D03*
D16*
X020855Y010360D03*
X018505Y010360D03*
X018355Y008860D03*
X016005Y008860D03*
X013255Y008660D03*
X010905Y008660D03*
X011805Y007660D03*
X014155Y007660D03*
X017005Y007860D03*
X019355Y007860D03*
D17*
X031540Y005110D02*
X031540Y004860D01*
X031540Y004610D01*
X031790Y004610D02*
X031790Y004860D01*
X031790Y005110D01*
X033060Y003930D02*
X033060Y003680D01*
X033060Y003430D01*
X033310Y003430D02*
X033310Y003680D01*
X033310Y003930D01*
D18*
X032893Y001498D02*
X032893Y001037D01*
X032740Y001037D02*
X033047Y001037D01*
X032740Y001344D02*
X032893Y001498D01*
X022402Y008200D02*
X022095Y008200D01*
X022249Y008200D02*
X022249Y008660D01*
X022095Y008507D01*
X021942Y008584D02*
X021865Y008660D01*
X021635Y008660D01*
X021635Y008200D01*
X021865Y008200D01*
X021942Y008277D01*
X021942Y008584D01*
X021481Y008660D02*
X021175Y008660D01*
X021175Y008200D01*
X021021Y008353D02*
X021021Y008660D01*
X020714Y008660D02*
X020714Y008353D01*
X020868Y008200D01*
X021021Y008353D01*
X021175Y008430D02*
X021328Y008430D01*
X008456Y001421D02*
X008379Y001498D01*
X008226Y001498D01*
X008149Y001421D01*
X008149Y001114D01*
X008456Y001421D01*
X008456Y001114D01*
X008379Y001037D01*
X008226Y001037D01*
X008149Y001114D01*
X007996Y001114D02*
X007919Y001037D01*
X007765Y001037D01*
X007689Y001114D01*
X007842Y001268D02*
X007919Y001268D01*
X007996Y001191D01*
X007996Y001114D01*
X007919Y001268D02*
X007996Y001344D01*
X007996Y001421D01*
X007919Y001498D01*
X007765Y001498D01*
X007689Y001421D01*
M02*
