G75*
G70*
%OFA0B0*%
%FSLAX24Y24*%
%IPPOS*%
%LPD*%
%AMOC8*
5,1,8,0,0,1.08239X$1,22.5*
%
%ADD10R,0.0866X0.0236*%
%ADD11OC8,0.0560*%
%ADD12C,0.0560*%
%ADD13OC8,0.0630*%
%ADD14C,0.0630*%
%ADD15C,0.0680*%
%ADD16C,0.0555*%
%ADD17OC8,0.1000*%
%ADD18C,0.0660*%
%ADD19OC8,0.0600*%
%ADD20R,0.0760X0.0760*%
%ADD21R,0.0591X0.0197*%
%ADD22R,0.0197X0.0591*%
%ADD23C,0.0394*%
%ADD24C,0.0160*%
%ADD25C,0.0300*%
%ADD26C,0.0500*%
%ADD27C,0.0250*%
%ADD28C,0.0200*%
%ADD29C,0.0400*%
%ADD30C,0.0436*%
%ADD31C,0.0120*%
D10*
X005156Y007610D03*
X005156Y008110D03*
X005156Y008610D03*
X005156Y009110D03*
X007204Y009110D03*
X007204Y008610D03*
X007204Y008110D03*
X007204Y007610D03*
D11*
X008680Y007360D03*
X009680Y007360D03*
X007680Y006360D03*
X008780Y005860D03*
X007680Y005360D03*
X005680Y005360D03*
X005680Y004360D03*
X006680Y004360D03*
X007680Y004360D03*
X009580Y003860D03*
X004960Y000760D03*
X003960Y000760D03*
X008680Y008360D03*
X008680Y009360D03*
X009180Y009860D03*
X010180Y009860D03*
X005680Y010360D03*
X004680Y010360D03*
X030660Y004860D03*
X032660Y004860D03*
X032680Y005860D03*
X033680Y005860D03*
X036480Y006640D03*
X037930Y006830D03*
X038930Y006830D03*
X038430Y007330D03*
X037430Y007330D03*
X036480Y007640D03*
X035320Y007860D03*
X033680Y007860D03*
X032680Y007860D03*
X031680Y007860D03*
X033680Y008860D03*
X035320Y008860D03*
X035180Y009860D03*
X034180Y009860D03*
X033180Y006860D03*
X032180Y006860D03*
X032180Y003680D03*
X034180Y003680D03*
X032180Y002560D03*
X031180Y002560D03*
D12*
X031310Y001439D03*
X032097Y001439D03*
X029735Y001439D03*
X028948Y001439D03*
X028160Y001439D03*
X027373Y001439D03*
X026586Y001439D03*
X025798Y001439D03*
X025011Y001439D03*
X024223Y001439D03*
X023436Y001439D03*
X022649Y001439D03*
X021861Y001439D03*
X021074Y001439D03*
X020286Y001439D03*
X019499Y001439D03*
X018711Y001439D03*
X017924Y001439D03*
X017137Y001439D03*
X016349Y001439D03*
X015562Y001439D03*
X014774Y001439D03*
X013987Y001439D03*
X013200Y001439D03*
X012412Y001439D03*
X011625Y001439D03*
X010050Y001439D03*
X009263Y001439D03*
X008780Y003860D03*
X009580Y005860D03*
D13*
X011680Y005360D03*
X016680Y005360D03*
X014180Y003860D03*
X019180Y003860D03*
X021680Y005660D03*
D14*
X019180Y004860D03*
X016680Y006360D03*
X011680Y006360D03*
X014180Y004860D03*
X021680Y007060D03*
D15*
X020180Y007860D03*
X019180Y008860D03*
X016180Y007860D03*
X014980Y007660D03*
X014080Y008660D03*
X015180Y008860D03*
X010980Y007660D03*
X010080Y008660D03*
X017680Y010360D03*
X021680Y010360D03*
D16*
X004680Y003029D03*
X004680Y001691D03*
D17*
X002580Y004680D03*
X002580Y007240D03*
D18*
X035105Y005420D03*
X035105Y004420D03*
X035105Y003420D03*
D19*
X030180Y009860D03*
X029180Y009860D03*
X028180Y009860D03*
X027180Y009860D03*
X026180Y009860D03*
X025180Y009860D03*
X024180Y009860D03*
X024180Y010860D03*
X025180Y010860D03*
X026180Y010860D03*
X027180Y010860D03*
X028180Y010860D03*
X029180Y010860D03*
X030180Y010860D03*
X014380Y010860D03*
X013380Y010860D03*
X012380Y010860D03*
X011380Y010860D03*
X011380Y009860D03*
X012380Y009860D03*
X013380Y009860D03*
X014380Y009860D03*
D20*
X008475Y010691D03*
X006507Y006360D03*
X008082Y002029D03*
X033278Y002029D03*
X034853Y006360D03*
X032885Y010691D03*
D21*
G36*
X027404Y008769D02*
X027820Y009185D01*
X027958Y009047D01*
X027542Y008631D01*
X027404Y008769D01*
G37*
G36*
X027627Y008546D02*
X028043Y008962D01*
X028181Y008824D01*
X027765Y008408D01*
X027627Y008546D01*
G37*
G36*
X027850Y008324D02*
X028266Y008740D01*
X028404Y008602D01*
X027988Y008186D01*
X027850Y008324D01*
G37*
G36*
X028072Y008101D02*
X028488Y008517D01*
X028626Y008379D01*
X028210Y007963D01*
X028072Y008101D01*
G37*
G36*
X028295Y007878D02*
X028711Y008294D01*
X028849Y008156D01*
X028433Y007740D01*
X028295Y007878D01*
G37*
G36*
X028518Y007656D02*
X028934Y008072D01*
X029072Y007934D01*
X028656Y007518D01*
X028518Y007656D01*
G37*
G36*
X028740Y007433D02*
X029156Y007849D01*
X029294Y007711D01*
X028878Y007295D01*
X028740Y007433D01*
G37*
G36*
X028963Y007210D02*
X029379Y007626D01*
X029517Y007488D01*
X029101Y007072D01*
X028963Y007210D01*
G37*
G36*
X029186Y006988D02*
X029602Y007404D01*
X029740Y007266D01*
X029324Y006850D01*
X029186Y006988D01*
G37*
G36*
X029408Y006765D02*
X029824Y007181D01*
X029962Y007043D01*
X029546Y006627D01*
X029408Y006765D01*
G37*
G36*
X029631Y006542D02*
X030047Y006958D01*
X030185Y006820D01*
X029769Y006404D01*
X029631Y006542D01*
G37*
G36*
X024620Y005094D02*
X025036Y005510D01*
X025174Y005372D01*
X024758Y004956D01*
X024620Y005094D01*
G37*
G36*
X024843Y004872D02*
X025259Y005288D01*
X025397Y005150D01*
X024981Y004734D01*
X024843Y004872D01*
G37*
G36*
X025066Y004649D02*
X025482Y005065D01*
X025620Y004927D01*
X025204Y004511D01*
X025066Y004649D01*
G37*
G36*
X025288Y004426D02*
X025704Y004842D01*
X025842Y004704D01*
X025426Y004288D01*
X025288Y004426D01*
G37*
G36*
X025511Y004204D02*
X025927Y004620D01*
X026065Y004482D01*
X025649Y004066D01*
X025511Y004204D01*
G37*
G36*
X025734Y003981D02*
X026150Y004397D01*
X026288Y004259D01*
X025872Y003843D01*
X025734Y003981D01*
G37*
G36*
X025956Y003758D02*
X026372Y004174D01*
X026510Y004036D01*
X026094Y003620D01*
X025956Y003758D01*
G37*
G36*
X026179Y003536D02*
X026595Y003952D01*
X026733Y003814D01*
X026317Y003398D01*
X026179Y003536D01*
G37*
G36*
X026402Y003313D02*
X026818Y003729D01*
X026956Y003591D01*
X026540Y003175D01*
X026402Y003313D01*
G37*
G36*
X024398Y005317D02*
X024814Y005733D01*
X024952Y005595D01*
X024536Y005179D01*
X024398Y005317D01*
G37*
G36*
X024175Y005540D02*
X024591Y005956D01*
X024729Y005818D01*
X024313Y005402D01*
X024175Y005540D01*
G37*
D22*
G36*
X024175Y006820D02*
X024313Y006958D01*
X024729Y006542D01*
X024591Y006404D01*
X024175Y006820D01*
G37*
G36*
X024398Y007043D02*
X024536Y007181D01*
X024952Y006765D01*
X024814Y006627D01*
X024398Y007043D01*
G37*
G36*
X024620Y007266D02*
X024758Y007404D01*
X025174Y006988D01*
X025036Y006850D01*
X024620Y007266D01*
G37*
G36*
X024843Y007488D02*
X024981Y007626D01*
X025397Y007210D01*
X025259Y007072D01*
X024843Y007488D01*
G37*
G36*
X025066Y007711D02*
X025204Y007849D01*
X025620Y007433D01*
X025482Y007295D01*
X025066Y007711D01*
G37*
G36*
X025288Y007934D02*
X025426Y008072D01*
X025842Y007656D01*
X025704Y007518D01*
X025288Y007934D01*
G37*
G36*
X025511Y008156D02*
X025649Y008294D01*
X026065Y007878D01*
X025927Y007740D01*
X025511Y008156D01*
G37*
G36*
X025734Y008379D02*
X025872Y008517D01*
X026288Y008101D01*
X026150Y007963D01*
X025734Y008379D01*
G37*
G36*
X025956Y008602D02*
X026094Y008740D01*
X026510Y008324D01*
X026372Y008186D01*
X025956Y008602D01*
G37*
G36*
X026179Y008824D02*
X026317Y008962D01*
X026733Y008546D01*
X026595Y008408D01*
X026179Y008824D01*
G37*
G36*
X026402Y009047D02*
X026540Y009185D01*
X026956Y008769D01*
X026818Y008631D01*
X026402Y009047D01*
G37*
G36*
X029631Y005818D02*
X029769Y005956D01*
X030185Y005540D01*
X030047Y005402D01*
X029631Y005818D01*
G37*
G36*
X029408Y005595D02*
X029546Y005733D01*
X029962Y005317D01*
X029824Y005179D01*
X029408Y005595D01*
G37*
G36*
X029186Y005372D02*
X029324Y005510D01*
X029740Y005094D01*
X029602Y004956D01*
X029186Y005372D01*
G37*
G36*
X028963Y005150D02*
X029101Y005288D01*
X029517Y004872D01*
X029379Y004734D01*
X028963Y005150D01*
G37*
G36*
X028740Y004927D02*
X028878Y005065D01*
X029294Y004649D01*
X029156Y004511D01*
X028740Y004927D01*
G37*
G36*
X028518Y004704D02*
X028656Y004842D01*
X029072Y004426D01*
X028934Y004288D01*
X028518Y004704D01*
G37*
G36*
X028295Y004482D02*
X028433Y004620D01*
X028849Y004204D01*
X028711Y004066D01*
X028295Y004482D01*
G37*
G36*
X028072Y004259D02*
X028210Y004397D01*
X028626Y003981D01*
X028488Y003843D01*
X028072Y004259D01*
G37*
G36*
X027850Y004036D02*
X027988Y004174D01*
X028404Y003758D01*
X028266Y003620D01*
X027850Y004036D01*
G37*
G36*
X027627Y003814D02*
X027765Y003952D01*
X028181Y003536D01*
X028043Y003398D01*
X027627Y003814D01*
G37*
G36*
X027404Y003591D02*
X027542Y003729D01*
X027958Y003313D01*
X027820Y003175D01*
X027404Y003591D01*
G37*
D23*
X036180Y000680D03*
X003680Y011180D03*
D24*
X002927Y000547D02*
X002604Y000360D01*
X003709Y000360D01*
X003500Y000569D01*
X003500Y000760D01*
X003960Y000760D01*
X003960Y000760D01*
X003960Y001220D01*
X004151Y001220D01*
X004420Y000951D01*
X004420Y000760D01*
X003960Y000760D01*
X003960Y000760D01*
X003960Y000760D01*
X003960Y001220D01*
X003769Y001220D01*
X003500Y000951D01*
X003500Y000760D01*
X003960Y000760D01*
X004420Y000760D01*
X004420Y000569D01*
X004211Y000360D01*
X004709Y000360D01*
X004500Y000569D01*
X004500Y000852D01*
X004460Y000893D01*
X004420Y000988D01*
X004420Y001304D01*
X004292Y001432D01*
X004223Y001600D01*
X004223Y001782D01*
X004292Y001950D01*
X004421Y002079D01*
X004589Y002148D01*
X004771Y002148D01*
X004939Y002079D01*
X005068Y001950D01*
X005137Y001782D01*
X005137Y001600D01*
X005068Y001432D01*
X004940Y001304D01*
X004940Y001220D01*
X005151Y001220D01*
X005351Y001020D01*
X006253Y001020D01*
X004701Y002572D01*
X004589Y002572D01*
X004421Y002641D01*
X004292Y002770D01*
X004223Y002938D01*
X004223Y003071D01*
X003513Y003780D01*
X003420Y003873D01*
X003370Y003994D01*
X003370Y007622D01*
X003335Y007656D01*
X003270Y007814D01*
X003270Y007986D01*
X003335Y008144D01*
X003456Y008265D01*
X003614Y008330D01*
X003786Y008330D01*
X003920Y008274D01*
X003920Y009912D01*
X003960Y010007D01*
X004033Y010080D01*
X004220Y010268D01*
X004220Y010551D01*
X004489Y010820D01*
X004029Y010820D01*
X004029Y010817D02*
X004031Y010828D01*
X004032Y010829D01*
X004043Y010831D01*
X004062Y010859D01*
X004087Y010883D01*
X004087Y010894D01*
X004088Y010896D01*
X004098Y010899D01*
X004112Y010930D01*
X004132Y010959D01*
X004130Y010969D01*
X004131Y010971D01*
X004140Y010976D01*
X004149Y011009D01*
X004164Y011040D01*
X004160Y011050D01*
X004161Y011052D01*
X004169Y011059D01*
X004172Y011093D01*
X004180Y011126D01*
X004175Y011135D01*
X004175Y011138D01*
X004182Y011146D01*
X004179Y011180D01*
X004182Y011214D01*
X004175Y011222D01*
X004175Y011225D01*
X004180Y011234D01*
X004172Y011267D01*
X004169Y011301D01*
X004161Y011308D01*
X004160Y011310D01*
X004164Y011320D01*
X004149Y011351D01*
X004140Y011384D01*
X004131Y011389D01*
X004130Y011391D01*
X004132Y011401D01*
X004112Y011430D01*
X004098Y011461D01*
X004088Y011464D01*
X004087Y011466D01*
X004087Y011477D01*
X004067Y011496D01*
X022948Y011496D01*
X022452Y011000D01*
X022364Y011000D01*
X022225Y010942D01*
X022118Y010835D01*
X022066Y010710D01*
X021975Y010801D01*
X021783Y010880D01*
X021627Y010880D01*
X021117Y011390D01*
X020996Y011440D01*
X016864Y011440D01*
X016743Y011390D01*
X016043Y010690D01*
X014860Y010690D01*
X014860Y011059D01*
X014579Y011340D01*
X014181Y011340D01*
X013900Y011059D01*
X013900Y010661D01*
X013860Y010661D01*
X013860Y011059D01*
X013579Y011340D01*
X013181Y011340D01*
X012900Y011059D01*
X012900Y010661D01*
X012860Y010661D01*
X012860Y011059D01*
X012579Y011340D01*
X012181Y011340D01*
X011900Y011059D01*
X011900Y010661D01*
X011860Y010661D01*
X011579Y010380D01*
X011181Y010380D01*
X010900Y010661D01*
X009035Y010661D01*
X009035Y010503D02*
X009455Y010503D01*
X009460Y010507D02*
X009272Y010320D01*
X009035Y010320D01*
X009035Y011145D01*
X008930Y011251D01*
X008021Y011251D01*
X007915Y011145D01*
X007915Y010236D01*
X008021Y010131D01*
X008800Y010131D01*
X008789Y010120D01*
X007448Y010120D01*
X006487Y011080D01*
X006392Y011120D01*
X005408Y011120D01*
X005313Y011080D01*
X005240Y011007D01*
X005000Y010767D01*
X004977Y010713D01*
X004871Y010820D01*
X005052Y010820D01*
X004871Y010820D02*
X004489Y010820D01*
X004141Y010978D02*
X005210Y010978D01*
X005460Y010860D02*
X006340Y010860D01*
X007340Y009860D01*
X008680Y009860D01*
X008680Y009360D01*
X009140Y009393D02*
X010480Y009393D01*
X010371Y009400D02*
X010480Y009509D01*
X010480Y008995D01*
X010375Y009101D01*
X010183Y009180D01*
X009977Y009180D01*
X009785Y009101D01*
X009639Y008955D01*
X009560Y008763D01*
X009560Y008557D01*
X009639Y008365D01*
X009785Y008219D01*
X009977Y008140D01*
X010072Y008140D01*
X010060Y008127D01*
X010020Y008032D01*
X010020Y007671D01*
X009871Y007820D01*
X009489Y007820D01*
X009220Y007551D01*
X009220Y007169D01*
X009279Y007110D01*
X009081Y007110D01*
X009140Y007169D01*
X009140Y007360D01*
X009140Y007551D01*
X008871Y007820D01*
X008680Y007820D01*
X008680Y007360D01*
X008680Y007360D01*
X009140Y007360D01*
X008680Y007360D01*
X008680Y007360D01*
X008680Y007820D01*
X008489Y007820D01*
X008239Y007569D01*
X008007Y007800D01*
X007912Y007840D01*
X007779Y007840D01*
X007759Y007860D01*
X007781Y007881D01*
X007804Y007922D01*
X007817Y007968D01*
X007817Y008110D01*
X007817Y008252D01*
X007804Y008298D01*
X007781Y008339D01*
X007759Y008360D01*
X007817Y008417D01*
X007817Y008803D01*
X007769Y008850D01*
X007822Y008850D01*
X008220Y008452D01*
X008220Y008169D01*
X008489Y007900D01*
X008871Y007900D01*
X009140Y008169D01*
X009140Y008551D01*
X008871Y008820D01*
X008588Y008820D01*
X008508Y008900D01*
X008871Y008900D01*
X009140Y009169D01*
X009140Y009400D01*
X009371Y009400D01*
X009640Y009669D01*
X009640Y009952D01*
X009720Y010032D01*
X009720Y009860D01*
X010180Y009860D01*
X010180Y009400D01*
X010371Y009400D01*
X010180Y009400D02*
X010180Y009860D01*
X010180Y009860D01*
X010180Y009860D01*
X009720Y009860D01*
X009720Y009669D01*
X009989Y009400D01*
X010180Y009400D01*
X010180Y009552D02*
X010180Y009552D01*
X010180Y009710D02*
X010180Y009710D01*
X009838Y009552D02*
X009522Y009552D01*
X009640Y009710D02*
X009720Y009710D01*
X009180Y009860D02*
X009680Y010360D01*
X010520Y010360D01*
X010740Y010140D01*
X010740Y008440D01*
X010380Y008080D01*
X010280Y007980D01*
X010280Y007680D01*
X010280Y007580D01*
X010280Y007180D01*
X010580Y006880D01*
X010580Y006140D01*
X009800Y005360D01*
X007680Y005360D01*
X007220Y005431D02*
X006140Y005431D01*
X006140Y005551D02*
X006040Y005651D01*
X006040Y005812D01*
X006052Y005800D01*
X006961Y005800D01*
X007067Y005905D01*
X007067Y006680D01*
X007272Y006680D01*
X007311Y006641D01*
X007220Y006551D01*
X007220Y006169D01*
X007489Y005900D01*
X007871Y005900D01*
X008140Y006169D01*
X008140Y006513D01*
X008153Y006500D01*
X008274Y006450D01*
X009643Y006450D01*
X009670Y006423D01*
X009670Y006374D01*
X009697Y006309D01*
X009671Y006320D01*
X009488Y006320D01*
X009319Y006250D01*
X009190Y006121D01*
X009184Y006106D01*
X008971Y006320D01*
X008780Y006320D01*
X008780Y005860D01*
X008780Y005860D01*
X008780Y005860D01*
X008320Y005860D01*
X008320Y006051D01*
X008589Y006320D01*
X008780Y006320D01*
X008780Y005860D01*
X008320Y005860D01*
X008320Y005669D01*
X008369Y005620D01*
X008071Y005620D01*
X007871Y005820D01*
X007489Y005820D01*
X007220Y005551D01*
X007220Y005169D01*
X007489Y004900D01*
X007753Y004900D01*
X007673Y004820D01*
X007489Y004820D01*
X007399Y004729D01*
X007367Y004760D01*
X007047Y005080D01*
X006952Y005120D01*
X006091Y005120D01*
X006140Y005169D01*
X006140Y005551D01*
X006101Y005589D02*
X007259Y005589D01*
X007417Y005748D02*
X006040Y005748D01*
X007067Y005906D02*
X007483Y005906D01*
X007877Y005906D02*
X008320Y005906D01*
X008320Y005748D02*
X007943Y005748D01*
X008035Y006065D02*
X008334Y006065D01*
X008493Y006223D02*
X008140Y006223D01*
X008140Y006382D02*
X009670Y006382D01*
X009293Y006223D02*
X009067Y006223D01*
X008780Y006223D02*
X008780Y006223D01*
X008780Y006065D02*
X008780Y006065D01*
X008780Y005906D02*
X008780Y005906D01*
X007680Y006360D02*
X007680Y006640D01*
X007380Y006940D01*
X006900Y006940D01*
X006580Y007260D01*
X006580Y008700D01*
X006670Y008610D01*
X007204Y008610D01*
X007817Y008601D02*
X008072Y008601D01*
X008220Y008442D02*
X007817Y008442D01*
X007808Y008284D02*
X008220Y008284D01*
X008264Y008125D02*
X007817Y008125D01*
X007817Y008110D02*
X007204Y008110D01*
X007204Y008110D01*
X007817Y008110D01*
X007930Y008110D02*
X007204Y008110D01*
X007816Y007967D02*
X008423Y007967D01*
X008937Y007967D02*
X010020Y007967D01*
X010059Y008125D02*
X009096Y008125D01*
X009140Y008284D02*
X009721Y008284D01*
X009607Y008442D02*
X009140Y008442D01*
X009090Y008601D02*
X009560Y008601D01*
X009560Y008759D02*
X008931Y008759D01*
X008888Y008918D02*
X009624Y008918D01*
X009761Y009076D02*
X009047Y009076D01*
X009140Y009235D02*
X010480Y009235D01*
X010480Y009076D02*
X010399Y009076D01*
X011860Y009776D02*
X011900Y009736D01*
X011900Y010059D01*
X012181Y010340D01*
X012464Y010340D01*
X012504Y010380D01*
X012181Y010380D01*
X011900Y010661D01*
X011860Y010661D02*
X011860Y011059D01*
X011579Y011340D01*
X011181Y011340D01*
X010900Y011059D01*
X010900Y010661D01*
X010745Y010503D02*
X011059Y010503D01*
X011181Y010340D02*
X011000Y010159D01*
X011000Y010192D01*
X010960Y010287D01*
X010887Y010360D01*
X010667Y010580D01*
X010572Y010620D01*
X009628Y010620D01*
X009533Y010580D01*
X009460Y010507D01*
X009296Y010344D02*
X009035Y010344D01*
X009715Y010027D02*
X009720Y010027D01*
X009720Y009869D02*
X009640Y009869D01*
X009180Y009860D02*
X008680Y009860D01*
X007966Y010186D02*
X007382Y010186D01*
X007224Y010344D02*
X007915Y010344D01*
X007915Y010503D02*
X007065Y010503D01*
X006907Y010661D02*
X007915Y010661D01*
X007915Y010820D02*
X006748Y010820D01*
X006590Y010978D02*
X007915Y010978D01*
X007915Y011137D02*
X004175Y011137D01*
X004169Y011295D02*
X011136Y011295D01*
X010978Y011137D02*
X009035Y011137D01*
X009035Y010978D02*
X010900Y010978D01*
X010900Y010820D02*
X009035Y010820D01*
X010904Y010344D02*
X012468Y010344D01*
X012059Y010503D02*
X011701Y010503D01*
X011579Y010340D02*
X011181Y010340D01*
X011579Y010340D02*
X011860Y010059D01*
X011860Y009776D01*
X011860Y009869D02*
X011900Y009869D01*
X011900Y010027D02*
X011860Y010027D01*
X011733Y010186D02*
X012027Y010186D01*
X011027Y010186D02*
X011000Y010186D01*
X012839Y010640D02*
X012860Y010661D01*
X012839Y010640D02*
X012921Y010640D01*
X012900Y010661D01*
X012900Y010820D02*
X012860Y010820D01*
X012860Y010978D02*
X012900Y010978D01*
X012978Y011137D02*
X012782Y011137D01*
X012624Y011295D02*
X013136Y011295D01*
X013624Y011295D02*
X014136Y011295D01*
X014624Y011295D02*
X016648Y011295D01*
X016490Y011137D02*
X014782Y011137D01*
X014860Y010978D02*
X016331Y010978D01*
X016173Y010820D02*
X014860Y010820D01*
X013978Y011137D02*
X013782Y011137D01*
X013860Y010978D02*
X013900Y010978D01*
X013900Y010820D02*
X013860Y010820D01*
X013860Y010661D02*
X013839Y010640D01*
X013921Y010640D01*
X013900Y010661D01*
X011978Y011137D02*
X011782Y011137D01*
X011860Y010978D02*
X011900Y010978D01*
X011900Y010820D02*
X011860Y010820D01*
X011624Y011295D02*
X012136Y011295D01*
X006100Y010140D02*
X006100Y009180D01*
X006580Y008700D01*
X006260Y008540D02*
X006260Y007260D01*
X005780Y006780D01*
X005780Y005460D01*
X005680Y005360D01*
X006140Y005272D02*
X007220Y005272D01*
X007276Y005114D02*
X006967Y005114D01*
X007173Y004955D02*
X007434Y004955D01*
X007466Y004797D02*
X007331Y004797D01*
X007220Y004540D02*
X006900Y004860D01*
X005300Y004860D01*
X004500Y005660D01*
X004500Y006780D01*
X004820Y007100D01*
X005620Y007100D01*
X005940Y007420D01*
X005940Y007900D01*
X005730Y008110D01*
X005156Y008110D01*
X005690Y009110D02*
X006260Y008540D01*
X005156Y008610D02*
X004750Y008610D01*
X004500Y008860D01*
X004500Y009420D01*
X005220Y010140D01*
X005220Y010620D01*
X005460Y010860D01*
X004331Y010661D02*
X003386Y010661D01*
X003430Y010748D02*
X003459Y010728D01*
X003469Y010730D01*
X003471Y010729D01*
X003476Y010720D01*
X003509Y010711D01*
X003540Y010696D01*
X003550Y010700D01*
X003552Y010699D01*
X003559Y010691D01*
X003593Y010688D01*
X003626Y010680D01*
X003635Y010685D01*
X003638Y010685D01*
X003646Y010678D01*
X003680Y010681D01*
X003714Y010678D01*
X003722Y010685D01*
X003725Y010685D01*
X003734Y010680D01*
X003767Y010688D01*
X003801Y010691D01*
X003808Y010699D01*
X003810Y010700D01*
X003820Y010696D01*
X003851Y010711D01*
X003884Y010720D01*
X003889Y010729D01*
X003891Y010730D01*
X003901Y010728D01*
X003930Y010748D01*
X003961Y010762D01*
X003964Y010772D01*
X003966Y010773D01*
X003977Y010773D01*
X004001Y010798D01*
X004029Y010817D01*
X003430Y010748D02*
X003399Y010762D01*
X003396Y010772D01*
X003394Y010773D01*
X003383Y010773D01*
X003359Y010798D01*
X003331Y010817D01*
X003329Y010828D01*
X003328Y010829D01*
X003317Y010831D01*
X003298Y010859D01*
X003284Y010872D01*
X003485Y010455D01*
X003485Y010455D01*
X003560Y009960D01*
X003485Y009465D01*
X003485Y009465D01*
X003268Y009014D01*
X003268Y009014D01*
X002927Y008647D01*
X002927Y008647D01*
X002494Y008396D01*
X002494Y008396D01*
X002006Y008285D01*
X002006Y008285D01*
X001506Y008322D01*
X001506Y008322D01*
X001040Y008505D01*
X001040Y008505D01*
X000648Y008817D01*
X000648Y008817D01*
X000648Y008817D01*
X000366Y009231D01*
X000366Y009231D01*
X000360Y009252D01*
X000360Y002568D01*
X000366Y002589D01*
X000366Y002589D01*
X000648Y003003D01*
X000648Y003003D01*
X001040Y003315D01*
X001040Y003315D01*
X001506Y003498D01*
X001506Y003498D01*
X002006Y003535D01*
X002006Y003535D01*
X002494Y003424D01*
X002494Y003424D01*
X002927Y003173D01*
X002927Y003173D01*
X003268Y002806D01*
X003268Y002806D01*
X003485Y002355D01*
X003485Y002355D01*
X003560Y001860D01*
X003485Y001365D01*
X003485Y001365D01*
X003268Y000914D01*
X003268Y000914D01*
X002927Y000547D01*
X002927Y000547D01*
X002876Y000517D02*
X003552Y000517D01*
X003500Y000676D02*
X003047Y000676D01*
X003194Y000834D02*
X003500Y000834D01*
X003542Y000993D02*
X003306Y000993D01*
X003382Y001151D02*
X003700Y001151D01*
X003960Y001151D02*
X003960Y001151D01*
X003960Y000993D02*
X003960Y000993D01*
X003960Y000834D02*
X003960Y000834D01*
X004378Y000993D02*
X004420Y000993D01*
X004420Y001151D02*
X004220Y001151D01*
X004680Y001040D02*
X004960Y000760D01*
X010160Y000760D01*
X010260Y000860D01*
X010580Y001180D01*
X010580Y001980D01*
X010740Y002140D01*
X010740Y003580D01*
X012340Y005180D01*
X012340Y006300D01*
X013700Y007660D01*
X013720Y007680D01*
X014080Y007680D01*
X014280Y007880D01*
X014660Y008260D01*
X014780Y008260D01*
X015140Y008260D01*
X015420Y008260D01*
X015980Y008820D01*
X018220Y008820D01*
X018900Y009500D01*
X020820Y009500D01*
X021140Y008860D02*
X021620Y009340D01*
X024340Y009340D01*
X024680Y009680D01*
X024680Y010360D01*
X024180Y010860D01*
X024660Y011420D02*
X025180Y010900D01*
X025180Y010860D01*
X025660Y010820D02*
X025700Y010820D01*
X025700Y010978D02*
X025660Y010978D01*
X025660Y011059D02*
X025379Y011340D01*
X025108Y011340D01*
X024952Y011496D01*
X037347Y011496D01*
X037140Y011415D01*
X036748Y011103D01*
X036466Y010689D01*
X036319Y010210D01*
X036319Y009710D01*
X035698Y009710D01*
X035640Y009768D02*
X035640Y010051D01*
X035371Y010320D01*
X034989Y010320D01*
X034720Y010051D01*
X034720Y009669D01*
X034989Y009400D01*
X035272Y009400D01*
X035352Y009320D01*
X035129Y009320D01*
X034929Y009120D01*
X034788Y009120D01*
X034439Y009469D01*
X034640Y009669D01*
X034640Y010051D01*
X034371Y010320D01*
X033989Y010320D01*
X033789Y010120D01*
X031308Y010120D01*
X031213Y010080D01*
X031140Y010007D01*
X030572Y009440D01*
X030439Y009440D01*
X030660Y009661D01*
X030660Y010059D01*
X030379Y010340D01*
X029981Y010340D01*
X029700Y010059D01*
X029700Y009661D01*
X029921Y009440D01*
X029439Y009440D01*
X029660Y009661D01*
X029660Y010059D01*
X029379Y010340D01*
X028981Y010340D01*
X028960Y010319D01*
X028960Y010401D01*
X028981Y010380D01*
X029170Y010380D01*
X029170Y010850D01*
X028700Y010850D01*
X028700Y010748D01*
X028660Y010788D01*
X028660Y011059D01*
X028379Y011340D01*
X027981Y011340D01*
X027700Y011059D01*
X027700Y010828D01*
X027660Y010868D01*
X027660Y011059D01*
X027379Y011340D01*
X026981Y011340D01*
X026700Y011059D01*
X026700Y010661D01*
X026660Y010661D01*
X026379Y010380D01*
X025981Y010380D01*
X025700Y010661D01*
X025660Y010661D01*
X025660Y011059D01*
X025700Y011059D02*
X025700Y010661D01*
X025660Y010661D02*
X025379Y010380D01*
X024981Y010380D01*
X024933Y010428D01*
X024940Y010412D01*
X024940Y010299D01*
X024981Y010340D01*
X025379Y010340D01*
X025660Y010059D01*
X025660Y009661D01*
X025379Y009380D01*
X024981Y009380D01*
X024864Y009497D01*
X024648Y009280D01*
X025728Y009280D01*
X025824Y009240D01*
X026081Y008983D01*
X026242Y009144D01*
X026248Y009144D01*
X026256Y009158D01*
X026343Y009244D01*
X026679Y008908D01*
X026679Y008908D01*
X027015Y008572D01*
X026973Y008531D01*
X027035Y008469D01*
X027070Y008433D01*
X027071Y008432D01*
X027072Y008431D01*
X027091Y008384D01*
X027110Y008337D01*
X027110Y008336D01*
X027110Y008335D01*
X027110Y008284D01*
X027634Y008284D01*
X027616Y008280D02*
X027464Y008280D01*
X027325Y008222D01*
X027218Y008115D01*
X027160Y007976D01*
X027160Y007824D01*
X027218Y007685D01*
X027325Y007578D01*
X027350Y007567D01*
X027320Y007496D01*
X027320Y007344D01*
X027378Y007205D01*
X027485Y007098D01*
X027510Y007087D01*
X027480Y007016D01*
X027480Y006864D01*
X027538Y006725D01*
X027645Y006618D01*
X027784Y006560D01*
X027872Y006560D01*
X027880Y006553D01*
X027953Y006480D01*
X028048Y006440D01*
X029088Y006440D01*
X029184Y006480D01*
X029257Y006553D01*
X029311Y006607D01*
X029450Y006467D01*
X029694Y006223D01*
X029286Y006223D01*
X029189Y006320D02*
X029093Y006360D01*
X027582Y006360D01*
X027110Y006832D01*
X027110Y008284D01*
X027130Y008408D02*
X027130Y008457D01*
X026679Y008908D01*
X027015Y008572D01*
X027101Y008658D01*
X027125Y008700D01*
X027137Y008745D01*
X027137Y008793D01*
X027125Y008838D01*
X027101Y008880D01*
X026876Y009105D01*
X026679Y008908D01*
X026679Y008908D01*
X026679Y008908D01*
X026876Y009105D01*
X026650Y009331D01*
X026609Y009354D01*
X026563Y009367D01*
X026516Y009367D01*
X026470Y009354D01*
X026429Y009331D01*
X026343Y009244D01*
X026679Y008908D01*
X026688Y008918D02*
X026688Y008918D01*
X026670Y008918D02*
X026670Y008918D01*
X026511Y009076D02*
X026511Y009076D01*
X026353Y009235D02*
X026353Y009235D01*
X026333Y009235D02*
X025829Y009235D01*
X025981Y009380D02*
X026379Y009380D01*
X026660Y009661D01*
X026660Y010059D01*
X026379Y010340D01*
X025981Y010340D01*
X025700Y010059D01*
X025700Y009661D01*
X025981Y009380D01*
X025968Y009393D02*
X025392Y009393D01*
X025550Y009552D02*
X025810Y009552D01*
X025700Y009710D02*
X025660Y009710D01*
X025660Y009869D02*
X025700Y009869D01*
X025700Y010027D02*
X025660Y010027D01*
X025533Y010186D02*
X025827Y010186D01*
X026533Y010186D02*
X026827Y010186D01*
X026700Y010059D02*
X026700Y009661D01*
X026981Y009380D01*
X027379Y009380D01*
X027496Y009497D01*
X027553Y009440D01*
X027686Y009307D01*
X027223Y008844D01*
X027223Y008694D01*
X027445Y008472D01*
X027445Y008472D01*
X027652Y008265D01*
X027616Y008280D01*
X027228Y008125D02*
X027110Y008125D01*
X027110Y007967D02*
X027160Y007967D01*
X027540Y007900D02*
X027860Y007900D01*
X028420Y007330D01*
X028785Y007330D01*
X029017Y007572D01*
X028795Y007795D02*
X029140Y008140D01*
X029620Y008140D01*
X030260Y008140D01*
X030660Y008140D01*
X031220Y007580D01*
X031460Y007340D01*
X033060Y007340D01*
X033580Y007860D01*
X033680Y007860D01*
X033220Y007868D02*
X033140Y007788D01*
X033140Y007860D01*
X033140Y008051D01*
X032871Y008320D01*
X032680Y008320D01*
X032680Y007860D01*
X032680Y007860D01*
X033140Y007860D01*
X032680Y007860D01*
X032680Y007860D01*
X032680Y007860D01*
X032220Y007860D01*
X032220Y008051D01*
X032489Y008320D01*
X032680Y008320D01*
X032680Y007860D01*
X032220Y007860D01*
X032220Y007669D01*
X032289Y007600D01*
X032071Y007600D01*
X032140Y007669D01*
X032140Y008051D01*
X031871Y008320D01*
X031648Y008320D01*
X031334Y008634D01*
X031347Y008640D01*
X031808Y009100D01*
X033269Y009100D01*
X033220Y009051D01*
X033220Y008669D01*
X033489Y008400D01*
X033871Y008400D01*
X033902Y008431D01*
X034250Y008083D01*
X034250Y007514D01*
X034300Y007393D01*
X034393Y007300D01*
X034773Y006920D01*
X034399Y006920D01*
X034293Y006815D01*
X034293Y005905D01*
X034399Y005800D01*
X034764Y005800D01*
X034673Y005709D01*
X034595Y005521D01*
X034595Y005319D01*
X034673Y005131D01*
X034816Y004988D01*
X034986Y004917D01*
X034986Y004917D01*
X034909Y004893D01*
X034838Y004856D01*
X034773Y004809D01*
X034716Y004752D01*
X034669Y004687D01*
X034633Y004616D01*
X034608Y004539D01*
X034595Y004460D01*
X034595Y004438D01*
X035087Y004438D01*
X035087Y004402D01*
X034595Y004402D01*
X034595Y004380D01*
X034608Y004301D01*
X034633Y004224D01*
X034669Y004153D01*
X034716Y004088D01*
X034773Y004031D01*
X034838Y003984D01*
X034909Y003947D01*
X034986Y003923D01*
X034816Y003852D01*
X034673Y003709D01*
X034640Y003630D01*
X034640Y003680D01*
X034640Y003871D01*
X034371Y004140D01*
X034180Y004140D01*
X034180Y003680D01*
X034180Y003680D01*
X034640Y003680D01*
X034180Y003680D01*
X034180Y003680D01*
X034180Y003680D01*
X033720Y003680D01*
X033720Y003871D01*
X033989Y004140D01*
X034180Y004140D01*
X034180Y003680D01*
X033720Y003680D01*
X033720Y003489D01*
X033799Y003410D01*
X032561Y003410D01*
X032640Y003489D01*
X032640Y003871D01*
X032371Y004140D01*
X031989Y004140D01*
X031720Y003871D01*
X031720Y003489D01*
X031850Y003359D01*
X031850Y002881D01*
X031720Y002751D01*
X031720Y002369D01*
X031989Y002100D01*
X032371Y002100D01*
X032640Y002369D01*
X032640Y002750D01*
X034846Y002750D01*
X034967Y002800D01*
X035060Y002893D01*
X035077Y002910D01*
X035207Y002910D01*
X035394Y002988D01*
X035530Y003124D01*
X035530Y002437D01*
X035023Y001930D01*
X034974Y001930D01*
X034816Y001865D01*
X034695Y001744D01*
X034630Y001586D01*
X034630Y001414D01*
X034695Y001256D01*
X034816Y001135D01*
X034974Y001070D01*
X035146Y001070D01*
X035304Y001135D01*
X035425Y001256D01*
X035490Y001414D01*
X035490Y001463D01*
X036140Y002113D01*
X036190Y002234D01*
X036190Y006279D01*
X036289Y006180D01*
X036671Y006180D01*
X036940Y006449D01*
X036940Y006831D01*
X036931Y006840D01*
X037252Y006840D01*
X037324Y006870D01*
X037470Y006870D01*
X037470Y006639D01*
X037739Y006370D01*
X038121Y006370D01*
X038390Y006639D01*
X038390Y006870D01*
X038430Y006870D01*
X038470Y006870D01*
X038470Y006639D01*
X038739Y006370D01*
X039121Y006370D01*
X039390Y006639D01*
X039390Y007021D01*
X039190Y007221D01*
X039190Y007602D01*
X039150Y007697D01*
X039047Y007800D01*
X038647Y008200D01*
X038552Y008240D01*
X036768Y008240D01*
X036673Y008200D01*
X036572Y008100D01*
X036289Y008100D01*
X036120Y007931D01*
X036120Y009232D01*
X036080Y009327D01*
X035640Y009768D01*
X035640Y009869D02*
X036319Y009869D01*
X036319Y010027D02*
X035640Y010027D01*
X035505Y010186D02*
X036319Y010186D01*
X036360Y010344D02*
X033445Y010344D01*
X033445Y010236D02*
X033445Y011145D01*
X033339Y011251D01*
X032430Y011251D01*
X032325Y011145D01*
X032325Y010236D01*
X032430Y010131D01*
X033339Y010131D01*
X033445Y010236D01*
X033394Y010186D02*
X033855Y010186D01*
X034505Y010186D02*
X034855Y010186D01*
X034720Y010027D02*
X034640Y010027D01*
X034640Y009869D02*
X034720Y009869D01*
X035180Y009860D02*
X035860Y009180D01*
X035860Y008380D01*
X035860Y008300D01*
X035860Y007500D01*
X036260Y007100D01*
X037200Y007100D01*
X037430Y007330D01*
X037890Y007333D02*
X037970Y007333D01*
X037970Y007330D02*
X038430Y007330D01*
X038430Y006870D01*
X038430Y007330D01*
X038430Y007330D01*
X038430Y007330D01*
X037970Y007330D01*
X037970Y007521D01*
X038169Y007720D01*
X037691Y007720D01*
X037890Y007521D01*
X037890Y007290D01*
X037970Y007290D01*
X037970Y007330D01*
X038430Y007174D02*
X038430Y007174D01*
X038430Y007016D02*
X038430Y007016D01*
X038390Y006857D02*
X038470Y006857D01*
X038470Y006699D02*
X038390Y006699D01*
X038291Y006540D02*
X038569Y006540D01*
X038728Y006382D02*
X038132Y006382D01*
X037728Y006382D02*
X036872Y006382D01*
X036714Y006223D02*
X039500Y006223D01*
X039500Y006065D02*
X036190Y006065D01*
X036190Y006223D02*
X036246Y006223D01*
X036190Y005906D02*
X039500Y005906D01*
X039500Y005748D02*
X036190Y005748D01*
X036190Y005589D02*
X039500Y005589D01*
X039500Y005431D02*
X036190Y005431D01*
X036190Y005272D02*
X039500Y005272D01*
X039500Y005114D02*
X036190Y005114D01*
X036190Y004955D02*
X039500Y004955D01*
X039500Y004797D02*
X036190Y004797D01*
X036190Y004638D02*
X039500Y004638D01*
X039500Y004480D02*
X036190Y004480D01*
X036190Y004321D02*
X039500Y004321D01*
X039500Y004163D02*
X036190Y004163D01*
X036190Y004004D02*
X039500Y004004D01*
X039500Y003846D02*
X036190Y003846D01*
X036190Y003687D02*
X039500Y003687D01*
X039500Y003529D02*
X038135Y003529D01*
X038106Y003535D02*
X038106Y003535D01*
X038594Y003424D01*
X038594Y003424D01*
X039027Y003173D01*
X039027Y003173D01*
X039368Y002806D01*
X039368Y002806D01*
X039500Y002532D01*
X039500Y009288D01*
X039368Y009014D01*
X039368Y009014D01*
X039027Y008647D01*
X039027Y008647D01*
X039027Y008647D01*
X038594Y008396D01*
X038594Y008396D01*
X038106Y008285D01*
X038106Y008285D01*
X037606Y008322D01*
X037606Y008322D01*
X037140Y008505D01*
X037140Y008505D01*
X036748Y008817D01*
X036748Y008817D01*
X036748Y008817D01*
X036466Y009231D01*
X036466Y009231D01*
X036319Y009710D01*
X036368Y009552D02*
X035856Y009552D01*
X036015Y009393D02*
X036416Y009393D01*
X036465Y009235D02*
X036119Y009235D01*
X036120Y009076D02*
X036572Y009076D01*
X036680Y008918D02*
X036120Y008918D01*
X036120Y008759D02*
X036822Y008759D01*
X037020Y008601D02*
X036120Y008601D01*
X036120Y008442D02*
X037301Y008442D01*
X036597Y008125D02*
X036120Y008125D01*
X036120Y007967D02*
X036156Y007967D01*
X036120Y008284D02*
X039500Y008284D01*
X039500Y008125D02*
X038723Y008125D01*
X038881Y007967D02*
X039500Y007967D01*
X039500Y007808D02*
X039040Y007808D01*
X039170Y007650D02*
X039500Y007650D01*
X039500Y007491D02*
X039190Y007491D01*
X038930Y007550D02*
X038900Y007580D01*
X038500Y007980D01*
X036820Y007980D01*
X036480Y007640D01*
X037761Y007650D02*
X038099Y007650D01*
X037970Y007491D02*
X037890Y007491D01*
X038930Y007550D02*
X038930Y006830D01*
X039390Y006857D02*
X039500Y006857D01*
X039500Y006699D02*
X039390Y006699D01*
X039291Y006540D02*
X039500Y006540D01*
X039500Y006382D02*
X039132Y006382D01*
X037569Y006540D02*
X036940Y006540D01*
X036940Y006699D02*
X037470Y006699D01*
X037470Y006857D02*
X037293Y006857D01*
X039190Y007333D02*
X039500Y007333D01*
X039500Y007174D02*
X039236Y007174D01*
X039390Y007016D02*
X039500Y007016D01*
X039500Y008442D02*
X038673Y008442D01*
X038948Y008601D02*
X039500Y008601D01*
X039500Y008759D02*
X039132Y008759D01*
X039279Y008918D02*
X039500Y008918D01*
X039500Y009076D02*
X039398Y009076D01*
X039474Y009235D02*
X039500Y009235D01*
X036409Y010503D02*
X033445Y010503D01*
X033445Y010661D02*
X036458Y010661D01*
X036466Y010689D02*
X036466Y010689D01*
X036555Y010820D02*
X033445Y010820D01*
X033445Y010978D02*
X036663Y010978D01*
X036748Y011103D02*
X036748Y011103D01*
X036748Y011103D01*
X036791Y011137D02*
X033445Y011137D01*
X032325Y011137D02*
X030582Y011137D01*
X030660Y011059D02*
X030379Y011340D01*
X029981Y011340D01*
X029700Y011059D01*
X029700Y010661D01*
X029660Y010661D01*
X029660Y010850D01*
X029190Y010850D01*
X029190Y010870D01*
X029170Y010870D01*
X029170Y011340D01*
X028981Y011340D01*
X028700Y011059D01*
X028700Y010870D01*
X029170Y010870D01*
X029170Y010850D01*
X029190Y010850D01*
X029190Y010380D01*
X029379Y010380D01*
X029660Y010661D01*
X029700Y010661D02*
X029981Y010380D01*
X030379Y010380D01*
X030660Y010661D01*
X032325Y010661D01*
X032325Y010503D02*
X030501Y010503D01*
X030660Y010661D02*
X030660Y011059D01*
X030660Y010978D02*
X032325Y010978D01*
X032325Y010820D02*
X030660Y010820D01*
X029778Y011137D02*
X029582Y011137D01*
X029660Y011059D02*
X029379Y011340D01*
X029190Y011340D01*
X029190Y010870D01*
X029660Y010870D01*
X029660Y011059D01*
X029660Y010978D02*
X029700Y010978D01*
X029700Y010820D02*
X029660Y010820D01*
X029190Y010820D02*
X029170Y010820D01*
X029170Y010978D02*
X029190Y010978D01*
X029190Y011137D02*
X029170Y011137D01*
X028778Y011137D02*
X028582Y011137D01*
X028660Y010978D02*
X028700Y010978D01*
X028700Y010820D02*
X028660Y010820D01*
X028220Y010860D02*
X028700Y010380D01*
X028700Y009580D01*
X028700Y009540D01*
X029060Y009180D01*
X030680Y009180D01*
X031360Y009860D01*
X034180Y009860D01*
X034640Y009710D02*
X034720Y009710D01*
X034838Y009552D02*
X034522Y009552D01*
X034515Y009393D02*
X035279Y009393D01*
X035044Y009235D02*
X034673Y009235D01*
X034680Y008860D02*
X034180Y009360D01*
X031700Y009360D01*
X031200Y008860D01*
X028500Y008860D01*
X027700Y009660D01*
X027700Y010460D01*
X027300Y010860D01*
X027180Y010860D01*
X027660Y010978D02*
X027700Y010978D01*
X027778Y011137D02*
X027582Y011137D01*
X027424Y011295D02*
X027936Y011295D01*
X028424Y011295D02*
X028936Y011295D01*
X029170Y011295D02*
X029190Y011295D01*
X029424Y011295D02*
X029936Y011295D01*
X030424Y011295D02*
X036990Y011295D01*
X037140Y011415D02*
X037140Y011415D01*
X037238Y011454D02*
X024994Y011454D01*
X024660Y011420D02*
X023240Y011420D01*
X022440Y010620D01*
X022111Y010820D02*
X021929Y010820D01*
X022311Y010978D02*
X021529Y010978D01*
X021370Y011137D02*
X022589Y011137D01*
X022747Y011295D02*
X021212Y011295D01*
X022906Y011454D02*
X004101Y011454D01*
X003331Y010820D02*
X003310Y010820D01*
X003463Y010503D02*
X004220Y010503D01*
X004220Y010344D02*
X003502Y010344D01*
X003526Y010186D02*
X004138Y010186D01*
X003979Y010027D02*
X003550Y010027D01*
X003546Y009869D02*
X003920Y009869D01*
X004180Y009860D02*
X004180Y007580D01*
X004180Y004860D01*
X006100Y002940D01*
X009540Y002940D01*
X009860Y003260D01*
X009507Y003400D02*
X009480Y003336D01*
X009480Y003248D01*
X009432Y003200D01*
X006208Y003200D01*
X005508Y003900D01*
X005680Y003900D01*
X005871Y003900D01*
X006140Y004169D01*
X006140Y004360D01*
X006140Y004551D01*
X006091Y004600D01*
X006269Y004600D01*
X006220Y004551D01*
X006220Y004169D01*
X006489Y003900D01*
X006871Y003900D01*
X006966Y003995D01*
X007000Y003913D01*
X007313Y003600D01*
X007408Y003560D01*
X008429Y003560D01*
X008519Y003470D01*
X008688Y003400D01*
X008871Y003400D01*
X009041Y003470D01*
X009170Y003599D01*
X009176Y003614D01*
X009389Y003400D01*
X009507Y003400D01*
X009494Y003370D02*
X006038Y003370D01*
X006196Y003212D02*
X009444Y003212D01*
X009261Y003529D02*
X009099Y003529D01*
X008461Y003529D02*
X005879Y003529D01*
X005721Y003687D02*
X007225Y003687D01*
X007067Y003846D02*
X005562Y003846D01*
X005680Y003900D02*
X005680Y004360D01*
X006140Y004360D01*
X005680Y004360D01*
X005680Y004360D01*
X005680Y003900D01*
X005680Y004004D02*
X005680Y004004D01*
X005975Y004004D02*
X006385Y004004D01*
X006227Y004163D02*
X006133Y004163D01*
X006140Y004321D02*
X006220Y004321D01*
X006220Y004480D02*
X006140Y004480D01*
X005680Y004360D02*
X005680Y004360D01*
X005680Y004360D01*
X005220Y004360D01*
X005220Y004551D01*
X005269Y004600D01*
X005248Y004600D01*
X005153Y004640D01*
X005080Y004713D01*
X004440Y005352D01*
X004440Y004968D01*
X005220Y004188D01*
X005220Y004360D01*
X005680Y004360D01*
X005680Y004321D02*
X005680Y004321D01*
X005680Y004163D02*
X005680Y004163D01*
X005220Y004321D02*
X005087Y004321D01*
X005220Y004480D02*
X004928Y004480D01*
X004770Y004638D02*
X005156Y004638D01*
X004996Y004797D02*
X004611Y004797D01*
X004453Y004955D02*
X004837Y004955D01*
X004679Y005114D02*
X004440Y005114D01*
X004440Y005272D02*
X004520Y005272D01*
X003370Y005272D02*
X002950Y005272D01*
X002862Y005360D02*
X002298Y005360D01*
X001900Y004962D01*
X001900Y004399D01*
X002298Y004000D01*
X002862Y004000D01*
X003260Y004399D01*
X003260Y004962D01*
X002862Y005360D01*
X003370Y005431D02*
X000360Y005431D01*
X000360Y005272D02*
X002210Y005272D01*
X002051Y005114D02*
X000360Y005114D01*
X000360Y004955D02*
X001900Y004955D01*
X001900Y004797D02*
X000360Y004797D01*
X000360Y004638D02*
X001900Y004638D01*
X001900Y004480D02*
X000360Y004480D01*
X000360Y004321D02*
X001978Y004321D01*
X002136Y004163D02*
X000360Y004163D01*
X000360Y004004D02*
X002295Y004004D01*
X002865Y004004D02*
X003370Y004004D01*
X003448Y003846D02*
X000360Y003846D01*
X000360Y003687D02*
X003606Y003687D01*
X003765Y003529D02*
X002035Y003529D01*
X001915Y003529D02*
X000360Y003529D01*
X000360Y003370D02*
X001180Y003370D01*
X000910Y003212D02*
X000360Y003212D01*
X000360Y003053D02*
X000712Y003053D01*
X000575Y002895D02*
X000360Y002895D01*
X000360Y002736D02*
X000467Y002736D01*
X000363Y002578D02*
X000360Y002578D01*
X002587Y003370D02*
X003923Y003370D01*
X004082Y003212D02*
X002862Y003212D01*
X003039Y003053D02*
X004223Y003053D01*
X004241Y002895D02*
X003186Y002895D01*
X003302Y002736D02*
X004326Y002736D01*
X004575Y002578D02*
X003378Y002578D01*
X003455Y002419D02*
X004854Y002419D01*
X005013Y002261D02*
X003500Y002261D01*
X003524Y002102D02*
X004478Y002102D01*
X004290Y001944D02*
X003547Y001944D01*
X003549Y001785D02*
X004224Y001785D01*
X004680Y001691D02*
X004680Y001040D01*
X004500Y000834D02*
X004420Y000834D01*
X004420Y000676D02*
X004500Y000676D01*
X004552Y000517D02*
X004368Y000517D01*
X005211Y000360D02*
X005351Y000500D01*
X010212Y000500D01*
X010307Y000540D01*
X010480Y000713D01*
X010727Y000960D01*
X010730Y000962D01*
X010730Y000954D01*
X010780Y000833D01*
X010873Y000740D01*
X011093Y000520D01*
X011214Y000470D01*
X030746Y000470D01*
X030867Y000520D01*
X030960Y000613D01*
X031325Y000979D01*
X031401Y000979D01*
X031570Y001049D01*
X031630Y001109D01*
X031777Y001109D01*
X031837Y001049D01*
X032006Y000979D01*
X032189Y000979D01*
X032358Y001049D01*
X032487Y001178D01*
X032557Y001347D01*
X032557Y001530D01*
X032487Y001699D01*
X032358Y001829D01*
X032189Y001899D01*
X032006Y001899D01*
X031837Y001829D01*
X031777Y001769D01*
X031630Y001769D01*
X031570Y001829D01*
X031401Y001899D01*
X031218Y001899D01*
X031049Y001829D01*
X030920Y001699D01*
X030850Y001530D01*
X030850Y001437D01*
X030543Y001130D01*
X030077Y001130D01*
X030125Y001178D01*
X030195Y001347D01*
X030195Y001530D01*
X030190Y001542D01*
X030276Y001628D01*
X030315Y001723D01*
X030315Y004554D01*
X030469Y004400D01*
X030851Y004400D01*
X031120Y004669D01*
X031120Y005051D01*
X030851Y005320D01*
X030469Y005320D01*
X030339Y005189D01*
X030327Y005200D01*
X030215Y005313D01*
X030244Y005343D01*
X029908Y005679D01*
X029572Y006015D01*
X029533Y005976D01*
X029189Y006320D01*
X029536Y006382D02*
X027560Y006382D01*
X027401Y006540D02*
X027892Y006540D01*
X028100Y006700D02*
X029036Y006700D01*
X029463Y007127D01*
X029276Y006940D01*
X028911Y007020D02*
X028340Y007020D01*
X027940Y007420D01*
X027700Y007420D01*
X027325Y007333D02*
X027110Y007333D01*
X027110Y007174D02*
X027409Y007174D01*
X027480Y007016D02*
X027110Y007016D01*
X027130Y006981D02*
X027130Y006950D01*
X027110Y006857D02*
X027483Y006857D01*
X027564Y006699D02*
X027243Y006699D01*
X026850Y006724D02*
X027474Y006100D01*
X027560Y006100D01*
X029030Y006100D01*
X029042Y006100D01*
X029685Y005456D01*
X029704Y005456D01*
X030180Y004980D01*
X030280Y004880D01*
X030640Y004880D01*
X030660Y004860D01*
X031089Y004638D02*
X032231Y004638D01*
X032200Y004669D02*
X032469Y004400D01*
X032660Y004400D01*
X032851Y004400D01*
X033120Y004669D01*
X033120Y004860D01*
X033120Y005051D01*
X032851Y005320D01*
X032660Y005320D01*
X032660Y004860D01*
X033120Y004860D01*
X032660Y004860D01*
X032660Y004860D01*
X032660Y004860D01*
X032660Y004400D01*
X032660Y004860D01*
X032660Y004860D01*
X032660Y004860D01*
X032200Y004860D01*
X032200Y005051D01*
X032469Y005320D01*
X032660Y005320D01*
X032660Y004860D01*
X032200Y004860D01*
X032200Y004669D01*
X032200Y004797D02*
X031120Y004797D01*
X031120Y004955D02*
X032200Y004955D01*
X032660Y004955D02*
X032660Y004955D01*
X032660Y004797D02*
X032660Y004797D01*
X032660Y004638D02*
X032660Y004638D01*
X032660Y004480D02*
X032660Y004480D01*
X032930Y004480D02*
X034598Y004480D01*
X034605Y004321D02*
X030315Y004321D01*
X030315Y004163D02*
X034664Y004163D01*
X034810Y004004D02*
X034507Y004004D01*
X034640Y003846D02*
X034809Y003846D01*
X034986Y003923D02*
X034986Y003923D01*
X034664Y003687D02*
X034640Y003687D01*
X034180Y003687D02*
X034180Y003687D01*
X034180Y003846D02*
X034180Y003846D01*
X034180Y004004D02*
X034180Y004004D01*
X033853Y004004D02*
X032507Y004004D01*
X032640Y003846D02*
X033720Y003846D01*
X033720Y003687D02*
X032640Y003687D01*
X032640Y003529D02*
X033720Y003529D01*
X035459Y003053D02*
X035530Y003053D01*
X035530Y002895D02*
X035061Y002895D01*
X035530Y002736D02*
X032640Y002736D01*
X032640Y002578D02*
X032812Y002578D01*
X032824Y002589D02*
X032718Y002484D01*
X032718Y001575D01*
X032824Y001469D01*
X033733Y001469D01*
X033838Y001575D01*
X033838Y002484D01*
X033733Y002589D01*
X032824Y002589D01*
X032718Y002419D02*
X032640Y002419D01*
X032718Y002261D02*
X032531Y002261D01*
X032373Y002102D02*
X032718Y002102D01*
X032718Y001944D02*
X030315Y001944D01*
X030315Y002102D02*
X030987Y002102D01*
X030989Y002100D02*
X031371Y002100D01*
X031640Y002369D01*
X031640Y002751D01*
X031371Y003020D01*
X030989Y003020D01*
X030720Y002751D01*
X030720Y002369D01*
X030989Y002100D01*
X031373Y002102D02*
X031987Y002102D01*
X031829Y002261D02*
X031531Y002261D01*
X031640Y002419D02*
X031720Y002419D01*
X031720Y002578D02*
X031640Y002578D01*
X031640Y002736D02*
X031720Y002736D01*
X031850Y002895D02*
X031496Y002895D01*
X031850Y003053D02*
X030315Y003053D01*
X030315Y002895D02*
X030864Y002895D01*
X030720Y002736D02*
X030315Y002736D01*
X030315Y002578D02*
X030720Y002578D01*
X030720Y002419D02*
X030315Y002419D01*
X030315Y002261D02*
X030829Y002261D01*
X029780Y002380D02*
X029780Y004151D01*
X029780Y004471D01*
X029240Y005011D01*
X029463Y005233D02*
X030055Y004641D01*
X030055Y004321D01*
X030055Y001775D01*
X029735Y001455D01*
X029735Y001439D01*
X030195Y001468D02*
X030850Y001468D01*
X030890Y001627D02*
X030274Y001627D01*
X030315Y001785D02*
X031006Y001785D01*
X031614Y001785D02*
X031793Y001785D01*
X032402Y001785D02*
X032718Y001785D01*
X032718Y001627D02*
X032517Y001627D01*
X032557Y001468D02*
X034630Y001468D01*
X034647Y001627D02*
X033838Y001627D01*
X033838Y001785D02*
X034737Y001785D01*
X035037Y001944D02*
X033838Y001944D01*
X033838Y002102D02*
X035195Y002102D01*
X035354Y002261D02*
X033838Y002261D01*
X033838Y002419D02*
X035512Y002419D01*
X035530Y002578D02*
X033745Y002578D01*
X031850Y003212D02*
X030315Y003212D01*
X030315Y003370D02*
X031839Y003370D01*
X031720Y003529D02*
X030315Y003529D01*
X030315Y003687D02*
X031720Y003687D01*
X031720Y003846D02*
X030315Y003846D01*
X030315Y004004D02*
X031853Y004004D01*
X032390Y004480D02*
X030930Y004480D01*
X030390Y004480D02*
X030315Y004480D01*
X029460Y004345D02*
X029017Y004788D01*
X028559Y005002D02*
X028358Y004801D01*
X028197Y004640D01*
X028150Y004687D01*
X028076Y004760D01*
X028072Y004762D01*
X028038Y004846D01*
X027926Y004958D01*
X027779Y005018D01*
X027621Y005018D01*
X027474Y004958D01*
X027411Y004894D01*
X027398Y004926D01*
X027286Y005038D01*
X027139Y005098D01*
X026981Y005098D01*
X026834Y005038D01*
X026740Y004943D01*
X026646Y005038D01*
X026499Y005098D01*
X026341Y005098D01*
X026194Y005038D01*
X026082Y004926D01*
X026022Y004780D01*
X026002Y004801D01*
X026002Y004801D01*
X025801Y005002D01*
X025578Y005225D01*
X025334Y005469D01*
X025334Y005469D01*
X025133Y005670D01*
X024888Y005915D01*
X024666Y006137D01*
X024516Y006137D01*
X024043Y005664D01*
X024022Y005715D01*
X023915Y005822D01*
X023776Y005880D01*
X023624Y005880D01*
X023485Y005822D01*
X023378Y005715D01*
X023320Y005576D01*
X023320Y005424D01*
X023378Y005285D01*
X023485Y005178D01*
X023624Y005120D01*
X023712Y005120D01*
X024192Y004640D01*
X022248Y004640D01*
X022967Y005360D01*
X023040Y005433D01*
X023080Y005528D01*
X023080Y005792D01*
X024013Y006726D01*
X024516Y006223D01*
X023511Y006223D01*
X023669Y006382D02*
X024358Y006382D01*
X024516Y006223D02*
X024666Y006223D01*
X026983Y006223D01*
X026825Y006382D02*
X024824Y006382D01*
X024888Y006445D02*
X024666Y006223D01*
X024738Y006065D02*
X027142Y006065D01*
X027300Y005906D02*
X024897Y005906D01*
X024888Y005915D02*
X024888Y005915D01*
X025055Y005748D02*
X029026Y005748D01*
X028934Y005840D02*
X029166Y005608D01*
X029026Y005469D01*
X028804Y005246D01*
X028559Y005002D01*
X028559Y005002D01*
X028512Y004955D02*
X027928Y004955D01*
X028058Y004797D02*
X028354Y004797D01*
X028358Y004801D02*
X028358Y004801D01*
X028795Y004565D02*
X029140Y004220D01*
X029140Y003580D01*
X029140Y003340D01*
X027380Y001580D01*
X027380Y001446D01*
X027373Y001439D01*
X026906Y001826D02*
X026586Y001506D01*
X026586Y001439D01*
X026906Y001826D02*
X028820Y003740D01*
X028820Y004095D01*
X028572Y004343D01*
X028349Y004120D02*
X027929Y004540D01*
X027780Y004540D01*
X027700Y004620D01*
X027380Y004300D02*
X027140Y004540D01*
X027140Y004620D01*
X027060Y004700D01*
X026430Y004700D02*
X027170Y003960D01*
X027580Y003960D01*
X027618Y003960D01*
X027904Y003675D01*
X027681Y003452D02*
X027553Y003580D01*
X027780Y003340D01*
X026580Y002140D01*
X023860Y002140D01*
X023436Y001716D01*
X023436Y001439D01*
X022649Y001439D02*
X022649Y001729D01*
X023380Y002460D01*
X025687Y002460D01*
X026679Y003452D01*
X026456Y003675D02*
X025562Y002780D01*
X022900Y002780D01*
X021861Y001741D01*
X021861Y001439D01*
X021074Y001439D02*
X021074Y001834D01*
X022340Y003100D01*
X022735Y003100D01*
X025436Y003100D01*
X026233Y003897D01*
X026011Y004120D02*
X025311Y003420D01*
X021940Y003420D01*
X020286Y001766D01*
X020286Y001439D01*
X019499Y001439D02*
X019499Y001859D01*
X021380Y003740D01*
X021780Y003740D01*
X025185Y003740D01*
X025788Y004343D01*
X025565Y004565D02*
X025060Y004060D01*
X020980Y004060D01*
X018711Y001791D01*
X018711Y001439D01*
X017924Y001439D02*
X017924Y001644D01*
X020660Y004380D01*
X024935Y004380D01*
X025343Y004788D01*
X025120Y005000D02*
X024820Y004700D01*
X024500Y004700D01*
X023700Y005500D01*
X023326Y005589D02*
X023080Y005589D01*
X023080Y005748D02*
X023410Y005748D01*
X023194Y005906D02*
X024285Y005906D01*
X024127Y005748D02*
X023990Y005748D01*
X024452Y005682D02*
X024452Y005679D01*
X025133Y005670D02*
X025133Y005670D01*
X025214Y005589D02*
X029146Y005589D01*
X029026Y005469D02*
X029026Y005469D01*
X028988Y005431D02*
X025372Y005431D01*
X025531Y005272D02*
X028829Y005272D01*
X028671Y005114D02*
X025689Y005114D01*
X025801Y005002D02*
X025801Y005002D01*
X025848Y004955D02*
X026112Y004955D01*
X026029Y004797D02*
X026006Y004797D01*
X026420Y004700D02*
X026430Y004700D01*
X026728Y004955D02*
X026752Y004955D01*
X027368Y004955D02*
X027472Y004955D01*
X027380Y004300D02*
X027460Y004220D01*
X027804Y004220D01*
X028127Y003897D01*
X029460Y004345D02*
X029460Y002940D01*
X028160Y001640D01*
X028160Y001439D01*
X028948Y001439D02*
X028948Y001548D01*
X029780Y002380D01*
X030179Y001310D02*
X030723Y001310D01*
X030564Y001151D02*
X030098Y001151D01*
X031181Y000834D02*
X035703Y000834D01*
X035696Y000820D02*
X035711Y000851D01*
X035720Y000884D01*
X035729Y000889D01*
X035730Y000891D01*
X035728Y000901D01*
X035748Y000930D01*
X035762Y000961D01*
X035772Y000964D01*
X035773Y000966D01*
X035773Y000977D01*
X035798Y001001D01*
X035817Y001029D01*
X035828Y001031D01*
X035829Y001032D01*
X035831Y001043D01*
X035859Y001062D01*
X035883Y001087D01*
X035894Y001087D01*
X035896Y001088D01*
X035899Y001098D01*
X035930Y001112D01*
X035959Y001132D01*
X035969Y001130D01*
X035971Y001131D01*
X035976Y001140D01*
X036009Y001149D01*
X036040Y001164D01*
X036050Y001160D01*
X036052Y001161D01*
X036059Y001169D01*
X036093Y001172D01*
X036126Y001180D01*
X036135Y001175D01*
X036138Y001175D01*
X036146Y001182D01*
X036180Y001179D01*
X036214Y001182D01*
X036222Y001175D01*
X036225Y001175D01*
X036234Y001180D01*
X036267Y001172D01*
X036301Y001169D01*
X036308Y001161D01*
X036310Y001160D01*
X036320Y001164D01*
X036351Y001149D01*
X036384Y001140D01*
X036389Y001131D01*
X036391Y001130D01*
X036401Y001132D01*
X036430Y001112D01*
X036461Y001098D01*
X036464Y001088D01*
X036466Y001087D01*
X036477Y001087D01*
X036501Y001062D01*
X036525Y001046D01*
X036466Y001131D01*
X036466Y001131D01*
X036319Y001610D01*
X036319Y002110D01*
X036466Y002589D01*
X036466Y002589D01*
X036748Y003003D01*
X036748Y003003D01*
X037140Y003315D01*
X037140Y003315D01*
X037606Y003498D01*
X037606Y003498D01*
X038106Y003535D01*
X038015Y003529D02*
X036190Y003529D01*
X036190Y003370D02*
X037280Y003370D01*
X037010Y003212D02*
X036190Y003212D01*
X036190Y003053D02*
X036812Y003053D01*
X036675Y002895D02*
X036190Y002895D01*
X036190Y002736D02*
X036567Y002736D01*
X036463Y002578D02*
X036190Y002578D01*
X036190Y002419D02*
X036414Y002419D01*
X036365Y002261D02*
X036190Y002261D01*
X036129Y002102D02*
X036319Y002102D01*
X036319Y001944D02*
X035970Y001944D01*
X035812Y001785D02*
X036319Y001785D01*
X036319Y001627D02*
X035653Y001627D01*
X035495Y001468D02*
X036362Y001468D01*
X036411Y001310D02*
X035447Y001310D01*
X035319Y001151D02*
X036014Y001151D01*
X035789Y000993D02*
X032222Y000993D01*
X031973Y000993D02*
X031435Y000993D01*
X031022Y000676D02*
X035681Y000676D01*
X035681Y000680D02*
X035678Y000646D01*
X035685Y000638D01*
X035685Y000635D01*
X035680Y000626D01*
X035688Y000593D01*
X035691Y000559D01*
X035699Y000552D01*
X035700Y000550D01*
X035696Y000540D01*
X035711Y000509D01*
X035720Y000476D01*
X035729Y000471D01*
X035730Y000469D01*
X035728Y000459D01*
X035748Y000430D01*
X035762Y000399D01*
X035772Y000396D01*
X035773Y000394D01*
X035773Y000383D01*
X035797Y000360D01*
X005211Y000360D01*
X005220Y001151D02*
X006122Y001151D01*
X005964Y001310D02*
X004946Y001310D01*
X005083Y001468D02*
X005805Y001468D01*
X005647Y001627D02*
X005137Y001627D01*
X005136Y001785D02*
X005488Y001785D01*
X005330Y001944D02*
X005070Y001944D01*
X005171Y002102D02*
X004882Y002102D01*
X004223Y001627D02*
X003525Y001627D01*
X003501Y001468D02*
X004277Y001468D01*
X004414Y001310D02*
X003459Y001310D01*
X005780Y002620D02*
X009940Y002620D01*
X010260Y002940D01*
X010260Y003740D01*
X010880Y004360D01*
X010980Y004360D01*
X010618Y004480D02*
X008266Y004480D01*
X008140Y004353D02*
X008477Y004690D01*
X010784Y004690D01*
X010765Y004682D01*
X010658Y004575D01*
X010609Y004456D01*
X010040Y003888D01*
X010040Y004051D01*
X009771Y004320D01*
X009580Y004320D01*
X009580Y003860D01*
X009580Y003860D01*
X009580Y004320D01*
X009389Y004320D01*
X009176Y004106D01*
X009170Y004121D01*
X009041Y004250D01*
X008871Y004320D01*
X008688Y004320D01*
X008519Y004250D01*
X008390Y004121D01*
X008373Y004080D01*
X008051Y004080D01*
X008140Y004169D01*
X008140Y004353D01*
X008140Y004321D02*
X010473Y004321D01*
X010315Y004163D02*
X009928Y004163D01*
X009580Y004163D02*
X009580Y004163D01*
X009232Y004163D02*
X009128Y004163D01*
X008432Y004163D02*
X008133Y004163D01*
X007460Y003820D02*
X007220Y004060D01*
X007220Y004540D01*
X008425Y004638D02*
X010721Y004638D01*
X011660Y005340D02*
X011680Y005360D01*
X011700Y005340D02*
X011660Y005340D01*
X012660Y005020D02*
X012660Y002474D01*
X011625Y001439D01*
X012412Y001439D02*
X012980Y002006D01*
X012980Y004860D01*
X012980Y005980D01*
X013540Y006540D01*
X015440Y006540D01*
X016160Y007260D01*
X017140Y007260D01*
X017540Y007260D01*
X020660Y007260D01*
X022100Y008700D01*
X025551Y008700D01*
X026011Y008240D01*
X026233Y008463D02*
X025676Y009020D01*
X021780Y009020D01*
X021140Y008380D01*
X019700Y008380D01*
X019540Y008220D01*
X018740Y008220D01*
X018500Y008460D01*
X016000Y008460D01*
X015580Y008040D01*
X015580Y007480D01*
X015580Y007460D01*
X014980Y006860D01*
X013380Y006860D01*
X012660Y006140D01*
X012660Y005020D01*
X015060Y003980D02*
X015700Y004620D01*
X015700Y006320D01*
X016320Y006940D01*
X016980Y006940D01*
X017300Y006940D01*
X020820Y006940D01*
X022260Y008380D01*
X025425Y008380D01*
X025788Y008017D01*
X025565Y007795D02*
X025300Y008060D01*
X023540Y008060D01*
X021940Y006460D01*
X020980Y006460D01*
X020820Y006620D01*
X017780Y006620D01*
X017020Y005860D01*
X016980Y005860D01*
X016500Y005860D01*
X016420Y005860D01*
X016080Y005520D01*
X016060Y005500D01*
X016060Y004380D01*
X014100Y002420D01*
X013987Y002307D01*
X013987Y001439D01*
X013460Y001699D02*
X013200Y001439D01*
X013460Y001699D02*
X013460Y002400D01*
X015060Y003980D01*
X016349Y002629D02*
X018420Y004700D01*
X018420Y004860D01*
X018980Y005420D01*
X019620Y005420D01*
X019940Y005100D01*
X021860Y005100D01*
X022420Y005660D01*
X022420Y005980D01*
X023860Y007420D01*
X024604Y007420D01*
X024897Y007127D01*
X024696Y006904D02*
X024675Y006904D01*
X024438Y007140D01*
X024430Y007140D01*
X024060Y007140D01*
X024050Y007130D01*
X022820Y005900D01*
X022820Y005580D01*
X022020Y004780D01*
X020100Y004780D01*
X019700Y004380D01*
X019700Y004360D01*
X018900Y004360D01*
X018880Y004360D01*
X017137Y002617D01*
X017137Y001439D01*
X016349Y001439D02*
X016349Y002629D01*
X015562Y002482D02*
X018820Y005740D01*
X020900Y005740D01*
X020930Y005740D01*
X021350Y006160D01*
X022100Y006160D01*
X022120Y006160D01*
X023700Y007740D01*
X024729Y007740D01*
X025120Y007349D01*
X025343Y007572D02*
X025655Y007260D01*
X026100Y007260D01*
X026260Y007420D01*
X026420Y007420D01*
X027110Y007491D02*
X027320Y007491D01*
X027253Y007650D02*
X027110Y007650D01*
X027110Y007808D02*
X027167Y007808D01*
X028572Y008017D02*
X029095Y008540D01*
X030740Y008540D01*
X031060Y008540D01*
X031680Y007920D01*
X031680Y007860D01*
X032140Y007808D02*
X032220Y007808D01*
X032240Y007650D02*
X032120Y007650D01*
X032140Y007967D02*
X032220Y007967D01*
X032295Y008125D02*
X032065Y008125D01*
X031907Y008284D02*
X032453Y008284D01*
X032680Y008284D02*
X032680Y008284D01*
X032680Y008125D02*
X032680Y008125D01*
X032680Y007967D02*
X032680Y007967D01*
X033065Y008125D02*
X033295Y008125D01*
X033220Y008051D02*
X033220Y007868D01*
X033160Y007808D02*
X033140Y007808D01*
X033140Y007967D02*
X033220Y007967D01*
X033220Y008051D02*
X033489Y008320D01*
X033871Y008320D01*
X034140Y008051D01*
X034140Y007669D01*
X033871Y007400D01*
X033489Y007400D01*
X033489Y007401D01*
X033389Y007301D01*
X033640Y007051D01*
X033640Y006860D01*
X033180Y006860D01*
X033180Y006860D01*
X033640Y006860D01*
X033640Y006669D01*
X033469Y006499D01*
X033648Y006320D01*
X033871Y006320D01*
X034140Y006051D01*
X034140Y005669D01*
X033871Y005400D01*
X033489Y005400D01*
X033220Y005669D01*
X033220Y006012D01*
X033112Y006120D01*
X033071Y006120D01*
X033140Y006051D01*
X033140Y005860D01*
X032680Y005860D01*
X032680Y005860D01*
X033140Y005860D01*
X033140Y005669D01*
X032871Y005400D01*
X032680Y005400D01*
X032680Y005860D01*
X032680Y005860D01*
X032680Y005860D01*
X032220Y005860D01*
X032220Y006051D01*
X032289Y006120D01*
X030158Y006120D01*
X030062Y006160D01*
X029921Y006300D01*
X029844Y006223D01*
X029999Y006223D01*
X029844Y006223D02*
X029694Y006223D01*
X029700Y006125D02*
X029658Y006101D01*
X029572Y006015D01*
X029908Y005679D01*
X029908Y005679D01*
X030105Y005876D01*
X029880Y006101D01*
X029838Y006125D01*
X029793Y006137D01*
X029745Y006137D01*
X029700Y006125D01*
X029622Y006065D02*
X029445Y006065D01*
X029681Y005906D02*
X029681Y005906D01*
X029840Y005748D02*
X029840Y005748D01*
X029908Y005679D02*
X029908Y005679D01*
X029908Y005679D01*
X030105Y005876D01*
X030331Y005650D01*
X030354Y005609D01*
X030367Y005563D01*
X030367Y005516D01*
X030354Y005470D01*
X030331Y005429D01*
X030244Y005343D01*
X029908Y005679D01*
X029977Y005748D02*
X029977Y005748D01*
X029998Y005589D02*
X029998Y005589D01*
X030233Y005748D02*
X032220Y005748D01*
X032220Y005669D02*
X032489Y005400D01*
X032680Y005400D01*
X032680Y005860D01*
X032220Y005860D01*
X032220Y005669D01*
X032300Y005589D02*
X030360Y005589D01*
X030331Y005431D02*
X032459Y005431D01*
X032421Y005272D02*
X030898Y005272D01*
X031057Y005114D02*
X032263Y005114D01*
X032660Y005114D02*
X032660Y005114D01*
X032660Y005272D02*
X032660Y005272D01*
X032680Y005431D02*
X032680Y005431D01*
X032901Y005431D02*
X033459Y005431D01*
X032898Y005272D02*
X034614Y005272D01*
X034595Y005431D02*
X033901Y005431D01*
X034060Y005589D02*
X034623Y005589D01*
X034711Y005748D02*
X034140Y005748D01*
X034140Y005906D02*
X034293Y005906D01*
X034293Y006065D02*
X034126Y006065D01*
X033967Y006223D02*
X034293Y006223D01*
X034293Y006382D02*
X033586Y006382D01*
X033220Y006380D02*
X031540Y006380D01*
X030209Y006380D01*
X029908Y006681D01*
X029685Y006904D02*
X029962Y007180D01*
X030340Y007180D01*
X030580Y006940D01*
X030820Y006700D01*
X031780Y006700D01*
X031940Y006860D01*
X032180Y006860D01*
X032640Y006857D02*
X032720Y006857D01*
X032720Y006860D02*
X032720Y006669D01*
X032749Y006640D01*
X032611Y006640D01*
X032640Y006669D01*
X032640Y007051D01*
X032611Y007080D01*
X032749Y007080D01*
X032720Y007051D01*
X032720Y006860D01*
X033180Y006860D01*
X033180Y006860D01*
X032720Y006860D01*
X032720Y006699D02*
X032640Y006699D01*
X032640Y007016D02*
X032720Y007016D01*
X033420Y007333D02*
X034361Y007333D01*
X034393Y007300D02*
X034393Y007300D01*
X034519Y007174D02*
X033516Y007174D01*
X033640Y007016D02*
X034678Y007016D01*
X034336Y006857D02*
X033640Y006857D01*
X033640Y006699D02*
X034293Y006699D01*
X034293Y006540D02*
X033511Y006540D01*
X033220Y006380D02*
X033680Y005920D01*
X033680Y005860D01*
X033220Y005906D02*
X033140Y005906D01*
X033140Y005748D02*
X033220Y005748D01*
X033300Y005589D02*
X033060Y005589D01*
X032680Y005589D02*
X032680Y005589D01*
X032680Y005748D02*
X032680Y005748D01*
X032220Y005906D02*
X030075Y005906D01*
X029916Y006065D02*
X032234Y006065D01*
X033126Y006065D02*
X033168Y006065D01*
X030422Y005272D02*
X030256Y005272D01*
X030157Y005431D02*
X030157Y005431D01*
X028934Y005840D02*
X027422Y005840D01*
X027327Y005880D01*
X026630Y006577D01*
X026590Y006672D01*
X026590Y007079D01*
X026496Y007040D01*
X026344Y007040D01*
X026276Y007068D01*
X026247Y007040D01*
X026152Y007000D01*
X025603Y007000D01*
X025507Y007040D01*
X025495Y007052D01*
X025334Y006891D01*
X025334Y006891D01*
X025133Y006690D01*
X025133Y006690D01*
X024888Y006445D01*
X024888Y006445D01*
X024983Y006540D02*
X026666Y006540D01*
X026590Y006699D02*
X025141Y006699D01*
X025300Y006857D02*
X026590Y006857D01*
X026850Y006724D02*
X026850Y008285D01*
X026456Y008685D01*
X026828Y008759D02*
X026828Y008759D01*
X026987Y008601D02*
X026987Y008601D01*
X027043Y008601D02*
X027317Y008601D01*
X027223Y008759D02*
X027137Y008759D01*
X027063Y008918D02*
X027297Y008918D01*
X027455Y009076D02*
X026905Y009076D01*
X026847Y009076D02*
X026847Y009076D01*
X026746Y009235D02*
X027614Y009235D01*
X027599Y009393D02*
X027392Y009393D01*
X026968Y009393D02*
X026392Y009393D01*
X026550Y009552D02*
X026810Y009552D01*
X026680Y009500D02*
X026679Y009499D01*
X026660Y009710D02*
X026700Y009710D01*
X026700Y009869D02*
X026660Y009869D01*
X026660Y010027D02*
X026700Y010027D01*
X026700Y010059D02*
X026981Y010340D01*
X027379Y010340D01*
X027440Y010279D01*
X027440Y010352D01*
X027396Y010397D01*
X027379Y010380D01*
X026981Y010380D01*
X026700Y010661D01*
X026660Y010661D02*
X026660Y011059D01*
X026379Y011340D01*
X025981Y011340D01*
X025700Y011059D01*
X025778Y011137D02*
X025582Y011137D01*
X025424Y011295D02*
X025936Y011295D01*
X026424Y011295D02*
X026936Y011295D01*
X026778Y011137D02*
X026582Y011137D01*
X026660Y010978D02*
X026700Y010978D01*
X026700Y010820D02*
X026660Y010820D01*
X026501Y010503D02*
X026859Y010503D01*
X027440Y010344D02*
X024940Y010344D01*
X025501Y010503D02*
X025859Y010503D01*
X028180Y010860D02*
X028220Y010860D01*
X029170Y010661D02*
X029190Y010661D01*
X029190Y010503D02*
X029170Y010503D01*
X028960Y010344D02*
X032325Y010344D01*
X032375Y010186D02*
X030533Y010186D01*
X030660Y010027D02*
X031159Y010027D01*
X031140Y010007D02*
X031140Y010007D01*
X031001Y009869D02*
X030660Y009869D01*
X030660Y009710D02*
X030842Y009710D01*
X030684Y009552D02*
X030550Y009552D01*
X029810Y009552D02*
X029550Y009552D01*
X029660Y009710D02*
X029700Y009710D01*
X029700Y009869D02*
X029660Y009869D01*
X029660Y010027D02*
X029700Y010027D01*
X029827Y010186D02*
X029533Y010186D01*
X029501Y010503D02*
X029859Y010503D01*
X031784Y009076D02*
X033246Y009076D01*
X033220Y008918D02*
X031625Y008918D01*
X031467Y008759D02*
X033220Y008759D01*
X033289Y008601D02*
X031367Y008601D01*
X031526Y008442D02*
X033447Y008442D01*
X033453Y008284D02*
X032907Y008284D01*
X033907Y008284D02*
X034050Y008284D01*
X034065Y008125D02*
X034208Y008125D01*
X034250Y007967D02*
X034140Y007967D01*
X034140Y007808D02*
X034250Y007808D01*
X034250Y007650D02*
X034120Y007650D01*
X034260Y007491D02*
X033962Y007491D01*
X031140Y007100D02*
X030580Y007660D01*
X029940Y007660D01*
X029240Y007349D02*
X028911Y007020D01*
X028100Y006700D02*
X027860Y006940D01*
X026590Y007016D02*
X026189Y007016D01*
X025565Y007016D02*
X025458Y007016D01*
X024452Y006681D02*
X024452Y006668D01*
X024199Y006540D02*
X023828Y006540D01*
X023986Y006699D02*
X024041Y006699D01*
X024444Y006065D02*
X023352Y006065D01*
X023320Y005431D02*
X023038Y005431D01*
X022967Y005360D02*
X022967Y005360D01*
X022880Y005272D02*
X023391Y005272D01*
X023719Y005114D02*
X022721Y005114D01*
X022563Y004955D02*
X023877Y004955D01*
X024036Y004797D02*
X022404Y004797D01*
X025120Y005000D02*
X025120Y005011D01*
X029244Y006540D02*
X029377Y006540D01*
X033057Y005114D02*
X034690Y005114D01*
X034895Y004955D02*
X033120Y004955D01*
X033120Y004797D02*
X034760Y004797D01*
X034644Y004638D02*
X033089Y004638D01*
X038687Y003370D02*
X039500Y003370D01*
X039500Y003212D02*
X038962Y003212D01*
X039139Y003053D02*
X039500Y003053D01*
X039500Y002895D02*
X039286Y002895D01*
X039402Y002736D02*
X039500Y002736D01*
X039500Y002578D02*
X039478Y002578D01*
X036460Y001151D02*
X036346Y001151D01*
X035696Y000820D02*
X035700Y000810D01*
X035699Y000808D01*
X035691Y000801D01*
X035688Y000767D01*
X035680Y000734D01*
X035685Y000725D01*
X035685Y000722D01*
X035678Y000714D01*
X035681Y000680D01*
X035707Y000517D02*
X030859Y000517D01*
X032460Y001151D02*
X034801Y001151D01*
X034673Y001310D02*
X032542Y001310D01*
X019700Y006140D02*
X018500Y006140D01*
X018420Y006060D01*
X014774Y002414D01*
X014774Y001439D01*
X015562Y001439D02*
X015562Y002482D01*
X010780Y000834D02*
X010602Y000834D01*
X010727Y000960D02*
X010727Y000960D01*
X010480Y000713D02*
X010480Y000713D01*
X010443Y000676D02*
X010938Y000676D01*
X011101Y000517D02*
X010253Y000517D01*
X008740Y003820D02*
X007460Y003820D01*
X008740Y003820D02*
X008780Y003860D01*
X009580Y004004D02*
X009580Y004004D01*
X010040Y004004D02*
X010156Y004004D01*
X003370Y004163D02*
X003024Y004163D01*
X003182Y004321D02*
X003370Y004321D01*
X003370Y004480D02*
X003260Y004480D01*
X003260Y004638D02*
X003370Y004638D01*
X003370Y004797D02*
X003260Y004797D01*
X003260Y004955D02*
X003370Y004955D01*
X003370Y005114D02*
X003109Y005114D01*
X003370Y005589D02*
X000360Y005589D01*
X000360Y005748D02*
X003370Y005748D01*
X003370Y005906D02*
X000360Y005906D01*
X000360Y006065D02*
X003370Y006065D01*
X003370Y006223D02*
X000360Y006223D01*
X000360Y006382D02*
X003370Y006382D01*
X003370Y006540D02*
X000360Y006540D01*
X000360Y006699D02*
X002159Y006699D01*
X002298Y006560D02*
X001900Y006958D01*
X001900Y007220D01*
X002560Y007220D01*
X002560Y007260D01*
X002560Y007920D01*
X002298Y007920D01*
X001900Y007521D01*
X001900Y007260D01*
X002560Y007260D01*
X002600Y007260D01*
X002600Y007920D01*
X002862Y007920D01*
X003260Y007521D01*
X003260Y007260D01*
X002600Y007260D01*
X002600Y007220D01*
X003260Y007220D01*
X003260Y006958D01*
X002862Y006560D01*
X002600Y006560D01*
X002600Y007220D01*
X002560Y007220D01*
X002560Y006560D01*
X002298Y006560D01*
X002560Y006699D02*
X002600Y006699D01*
X002600Y006857D02*
X002560Y006857D01*
X003001Y006699D02*
X003370Y006699D01*
X003370Y006857D02*
X003159Y006857D01*
X003260Y007016D02*
X003370Y007016D01*
X003370Y007174D02*
X003260Y007174D01*
X003260Y007333D02*
X003370Y007333D01*
X003370Y007491D02*
X003260Y007491D01*
X003342Y007650D02*
X003132Y007650D01*
X003273Y007808D02*
X002973Y007808D01*
X002600Y007808D02*
X002560Y007808D01*
X002560Y007650D02*
X002600Y007650D01*
X002600Y007491D02*
X002560Y007491D01*
X002028Y007650D02*
X000360Y007650D01*
X000360Y007808D02*
X002187Y007808D01*
X001900Y007491D02*
X000360Y007491D01*
X000360Y007333D02*
X001900Y007333D01*
X001900Y007174D02*
X000360Y007174D01*
X000360Y007016D02*
X001900Y007016D01*
X002001Y006857D02*
X000360Y006857D01*
X002560Y007016D02*
X002600Y007016D01*
X002600Y007174D02*
X002560Y007174D01*
X002560Y007333D02*
X002600Y007333D01*
X004180Y007580D02*
X004210Y007610D01*
X005156Y007610D01*
X005126Y007580D01*
X004180Y007580D01*
X003270Y007967D02*
X000360Y007967D01*
X000360Y008125D02*
X003328Y008125D01*
X003502Y008284D02*
X000360Y008284D01*
X000360Y008442D02*
X001201Y008442D01*
X000920Y008601D02*
X000360Y008601D01*
X000360Y008759D02*
X000722Y008759D01*
X000580Y008918D02*
X000360Y008918D01*
X000360Y009076D02*
X000472Y009076D01*
X000365Y009235D02*
X000360Y009235D01*
X002573Y008442D02*
X003920Y008442D01*
X003920Y008601D02*
X002848Y008601D01*
X003032Y008759D02*
X003920Y008759D01*
X003920Y008918D02*
X003179Y008918D01*
X003298Y009076D02*
X003920Y009076D01*
X003920Y009235D02*
X003374Y009235D01*
X003451Y009393D02*
X003920Y009393D01*
X003920Y009552D02*
X003498Y009552D01*
X003522Y009710D02*
X003920Y009710D01*
X004180Y009860D02*
X004680Y010360D01*
X005680Y010360D02*
X005880Y010360D01*
X006100Y010140D01*
X005690Y009110D02*
X005156Y009110D01*
X007204Y009110D02*
X007930Y009110D01*
X008680Y008360D01*
X007913Y008759D02*
X007817Y008759D01*
X007989Y007808D02*
X008478Y007808D01*
X008680Y007808D02*
X008680Y007808D01*
X008680Y007650D02*
X008680Y007650D01*
X008680Y007491D02*
X008680Y007491D01*
X008319Y007650D02*
X008158Y007650D01*
X007860Y007580D02*
X008180Y007260D01*
X008180Y006940D01*
X009140Y007174D02*
X009220Y007174D01*
X009220Y007333D02*
X009140Y007333D01*
X009140Y007491D02*
X009220Y007491D01*
X009319Y007650D02*
X009041Y007650D01*
X008882Y007808D02*
X009478Y007808D01*
X009882Y007808D02*
X010020Y007808D01*
X007860Y007580D02*
X007220Y007580D01*
X007204Y007596D01*
X007204Y007610D01*
X007220Y006540D02*
X007067Y006540D01*
X007067Y006382D02*
X007220Y006382D01*
X007220Y006223D02*
X007067Y006223D01*
X007067Y006065D02*
X007325Y006065D01*
X003920Y008284D02*
X003898Y008284D01*
X017780Y009340D02*
X018260Y009340D01*
X019060Y010140D01*
X020180Y010140D01*
X020020Y008860D02*
X021140Y008860D01*
X024761Y009393D02*
X024968Y009393D01*
X025988Y009076D02*
X026175Y009076D01*
X027061Y008442D02*
X027475Y008442D01*
X034680Y008860D02*
X035320Y008860D01*
X035220Y009820D02*
X035180Y009860D01*
D25*
X033940Y008860D02*
X033680Y008860D01*
X033940Y008860D02*
X034580Y008220D01*
X034580Y007900D01*
X034580Y007580D01*
X035060Y007100D01*
X035380Y007100D01*
X035540Y006940D01*
X035860Y006620D01*
X035860Y002300D01*
X035060Y001500D01*
X032097Y001439D02*
X031310Y001439D01*
X031310Y001430D01*
X030680Y000800D01*
X011280Y000800D01*
X011060Y001020D01*
X011060Y001820D01*
X011700Y002460D01*
X011860Y002620D01*
X011860Y003900D01*
X011380Y005020D02*
X008340Y005020D01*
X007680Y004360D01*
X005680Y004320D02*
X005680Y004360D01*
X004680Y003080D02*
X003700Y004060D01*
X003700Y007900D01*
X007930Y008110D02*
X008680Y007360D01*
X008760Y007360D01*
X009460Y008060D01*
X009460Y009140D01*
X010180Y009860D01*
X014920Y010360D02*
X016180Y010360D01*
X016930Y011110D01*
X020930Y011110D01*
X021680Y010360D01*
X021400Y009720D02*
X020500Y010620D01*
X018900Y010620D01*
X018100Y009820D01*
X021400Y009720D02*
X024020Y009720D01*
X024180Y009860D01*
X020180Y007860D02*
X017180Y007860D01*
X014740Y005340D02*
X014100Y005980D01*
X014740Y005340D02*
X015220Y005340D01*
X011700Y005340D02*
X011380Y005020D01*
X010100Y006460D02*
X009780Y006780D01*
X008340Y006780D01*
X008180Y006940D01*
X004680Y003080D02*
X004680Y003029D01*
X004711Y003029D01*
X006560Y001180D01*
X007620Y001180D01*
X022900Y004860D02*
X023220Y005180D01*
X023220Y005660D01*
X023860Y006300D01*
X030089Y005860D02*
X032680Y005860D01*
X032660Y005840D01*
X032660Y004860D01*
X034130Y004860D01*
X034210Y004780D01*
X034210Y004480D01*
X034270Y004420D01*
X035105Y004420D01*
X034210Y004480D02*
X034210Y003710D01*
X034180Y003680D01*
X034780Y003080D02*
X035105Y003405D01*
X035105Y003420D01*
X034780Y003080D02*
X032280Y003080D01*
X032180Y003180D01*
X032180Y002560D01*
X032180Y003180D02*
X032180Y003680D01*
X034210Y004780D02*
X034210Y005020D01*
X034210Y006220D01*
X033570Y006860D01*
X033540Y006860D01*
X033180Y006860D01*
X032780Y005860D02*
X032680Y005860D01*
D26*
X023860Y006300D03*
X022900Y004860D03*
X015220Y005340D03*
X014100Y005980D03*
X010100Y006460D03*
X003700Y007900D03*
X011860Y003900D03*
X010260Y002300D03*
X017180Y007860D03*
X035060Y001500D03*
D27*
X010260Y002300D02*
X009140Y002300D01*
X008740Y001900D01*
X008740Y001500D01*
X008420Y001180D01*
X007620Y001180D01*
X006740Y003260D02*
X005680Y004320D01*
X006740Y003260D02*
X008980Y003260D01*
X009580Y003860D01*
D28*
X026660Y008927D02*
X026679Y008908D01*
X027130Y008408D02*
X027130Y006981D01*
X027130Y006950D02*
X027700Y006380D01*
X027720Y006380D01*
X029200Y006380D01*
X029207Y006380D01*
X029908Y005679D01*
X030089Y005860D01*
X018100Y009820D02*
X015260Y009820D01*
X014800Y009360D01*
X013900Y009360D01*
X011880Y009360D01*
X011380Y009860D01*
X012380Y009860D02*
X012880Y010360D01*
X014920Y010360D01*
D29*
X017780Y009340D03*
X020020Y008860D03*
X020820Y009500D03*
X020180Y010140D03*
X022440Y010620D03*
X026680Y009500D03*
X030260Y008140D03*
X029940Y007660D03*
X031140Y007100D03*
X027860Y006940D03*
X027700Y007420D03*
X026420Y007420D03*
X027540Y007900D03*
X023700Y005500D03*
X019700Y006140D03*
X010980Y004360D03*
X009860Y003260D03*
X005780Y002620D03*
D30*
X026420Y004700D03*
X027060Y004700D03*
X027700Y004620D03*
D31*
X015140Y008260D02*
X014780Y008260D01*
M02*
