G75*
G70*
%OFA0B0*%
%FSLAX24Y24*%
%IPPOS*%
%LPD*%
%AMOC8*
5,1,8,0,0,1.08239X$1,22.5*
%
%ADD10C,0.0060*%
%ADD11C,0.0080*%
%ADD12C,0.0050*%
%ADD13R,0.0167X0.0128*%
%ADD14R,0.0138X0.0138*%
%ADD15C,0.0010*%
%ADD16C,0.0100*%
%ADD17R,0.0040X0.0003*%
%ADD18R,0.0059X0.0003*%
%ADD19R,0.0069X0.0003*%
%ADD20R,0.0102X0.0003*%
%ADD21R,0.0218X0.0003*%
%ADD22R,0.0086X0.0003*%
%ADD23R,0.0132X0.0003*%
%ADD24R,0.0135X0.0003*%
%ADD25R,0.0129X0.0003*%
%ADD26R,0.0125X0.0003*%
%ADD27R,0.0244X0.0003*%
%ADD28R,0.0099X0.0003*%
%ADD29R,0.0145X0.0003*%
%ADD30R,0.0257X0.0003*%
%ADD31R,0.0112X0.0003*%
%ADD32R,0.0165X0.0003*%
%ADD33R,0.0264X0.0003*%
%ADD34R,0.0122X0.0003*%
%ADD35R,0.0178X0.0003*%
%ADD36R,0.0274X0.0003*%
%ADD37R,0.0129X0.0003*%
%ADD38R,0.0129X0.0003*%
%ADD39R,0.0135X0.0003*%
%ADD40R,0.0188X0.0003*%
%ADD41R,0.0277X0.0003*%
%ADD42R,0.0198X0.0003*%
%ADD43R,0.0284X0.0003*%
%ADD44R,0.0142X0.0003*%
%ADD45R,0.0208X0.0003*%
%ADD46R,0.0287X0.0003*%
%ADD47R,0.0145X0.0003*%
%ADD48R,0.0214X0.0003*%
%ADD49R,0.0290X0.0003*%
%ADD50R,0.0152X0.0003*%
%ADD51R,0.0224X0.0003*%
%ADD52R,0.0294X0.0003*%
%ADD53R,0.0158X0.0003*%
%ADD54R,0.0231X0.0003*%
%ADD55R,0.0297X0.0003*%
%ADD56R,0.0290X0.0003*%
%ADD57R,0.0234X0.0003*%
%ADD58R,0.0300X0.0003*%
%ADD59R,0.0294X0.0003*%
%ADD60R,0.0241X0.0003*%
%ADD61R,0.0300X0.0003*%
%ADD62R,0.0294X0.0003*%
%ADD63R,0.0244X0.0003*%
%ADD64R,0.0304X0.0003*%
%ADD65R,0.0297X0.0003*%
%ADD66R,0.0251X0.0003*%
%ADD67R,0.0254X0.0003*%
%ADD68R,0.0307X0.0003*%
%ADD69R,0.0307X0.0003*%
%ADD70R,0.0300X0.0003*%
%ADD71R,0.0261X0.0003*%
%ADD72R,0.0310X0.0003*%
%ADD73R,0.0300X0.0003*%
%ADD74R,0.0267X0.0003*%
%ADD75R,0.0274X0.0003*%
%ADD76R,0.0310X0.0003*%
%ADD77R,0.0314X0.0003*%
%ADD78R,0.0139X0.0003*%
%ADD79R,0.0135X0.0003*%
%ADD80R,0.0129X0.0003*%
%ADD81R,0.0132X0.0003*%
%ADD82R,0.0125X0.0003*%
%ADD83R,0.0122X0.0003*%
%ADD84R,0.0314X0.0003*%
%ADD85R,0.0132X0.0003*%
%ADD86R,0.0132X0.0003*%
%ADD87R,0.0125X0.0003*%
%ADD88R,0.0125X0.0003*%
%ADD89R,0.0158X0.0003*%
%ADD90R,0.0149X0.0003*%
%ADD91R,0.0145X0.0003*%
%ADD92R,0.0139X0.0003*%
%ADD93R,0.0142X0.0003*%
%ADD94R,0.0271X0.0003*%
%ADD95R,0.0297X0.0003*%
%ADD96R,0.0264X0.0003*%
%ADD97R,0.0251X0.0003*%
%ADD98R,0.0244X0.0003*%
%ADD99R,0.0155X0.0003*%
%ADD100R,0.0228X0.0003*%
%ADD101R,0.0221X0.0003*%
%ADD102R,0.0142X0.0003*%
%ADD103R,0.0198X0.0003*%
%ADD104R,0.0188X0.0003*%
%ADD105R,0.0181X0.0003*%
%ADD106R,0.0116X0.0003*%
%ADD107R,0.0168X0.0003*%
%ADD108R,0.0106X0.0003*%
%ADD109R,0.0096X0.0003*%
%ADD110R,0.0145X0.0003*%
%ADD111R,0.0083X0.0003*%
%ADD112R,0.0119X0.0003*%
%ADD113R,0.0066X0.0003*%
%ADD114R,0.0092X0.0003*%
%ADD115R,0.0053X0.0003*%
%ADD116R,0.0281X0.0003*%
%ADD117R,0.0277X0.0003*%
%ADD118R,0.0267X0.0003*%
%ADD119R,0.0261X0.0003*%
%ADD120R,0.0215X0.0003*%
%ADD121R,0.0175X0.0003*%
%ADD122R,0.0046X0.0003*%
%ADD123R,0.0056X0.0003*%
%ADD124R,0.0073X0.0003*%
%ADD125R,0.0076X0.0003*%
%ADD126R,0.0096X0.0003*%
%ADD127R,0.0069X0.0003*%
%ADD128R,0.0248X0.0003*%
%ADD129R,0.0115X0.0003*%
%ADD130R,0.0089X0.0003*%
%ADD131R,0.0106X0.0003*%
%ADD132R,0.0102X0.0003*%
%ADD133R,0.0248X0.0003*%
%ADD134R,0.0195X0.0003*%
%ADD135R,0.0106X0.0003*%
%ADD136R,0.0162X0.0003*%
%ADD137R,0.0152X0.0003*%
%ADD138R,0.0172X0.0003*%
%ADD139R,0.0172X0.0003*%
%ADD140R,0.0089X0.0003*%
%ADD141R,0.0178X0.0003*%
%ADD142R,0.0185X0.0003*%
%ADD143R,0.0165X0.0003*%
%ADD144R,0.0089X0.0003*%
%ADD145R,0.0089X0.0003*%
%ADD146R,0.0106X0.0003*%
%ADD147R,0.0188X0.0003*%
%ADD148R,0.0092X0.0003*%
%ADD149R,0.0182X0.0003*%
%ADD150R,0.0168X0.0003*%
%ADD151R,0.0026X0.0003*%
%ADD152R,0.0201X0.0003*%
%ADD153R,0.0102X0.0003*%
%ADD154R,0.0116X0.0003*%
%ADD155R,0.0007X0.0003*%
%ADD156R,0.0205X0.0003*%
%ADD157R,0.0122X0.0003*%
%ADD158R,0.0020X0.0003*%
%ADD159R,0.0092X0.0003*%
%ADD160R,0.0007X0.0003*%
%ADD161R,0.0109X0.0003*%
%ADD162R,0.0119X0.0003*%
%ADD163R,0.0053X0.0003*%
%ADD164R,0.0162X0.0003*%
%ADD165R,0.0119X0.0003*%
%ADD166R,0.0109X0.0003*%
%ADD167R,0.0112X0.0003*%
%ADD168R,0.0155X0.0003*%
%ADD169R,0.0099X0.0003*%
%ADD170R,0.0115X0.0003*%
%ADD171R,0.0119X0.0003*%
%ADD172R,0.0102X0.0003*%
%ADD173R,0.0112X0.0003*%
%ADD174R,0.0023X0.0003*%
%ADD175R,0.0023X0.0003*%
%ADD176R,0.0026X0.0003*%
%ADD177R,0.0030X0.0003*%
%ADD178R,0.0030X0.0003*%
%ADD179R,0.0033X0.0003*%
%ADD180R,0.0036X0.0003*%
%ADD181R,0.0036X0.0003*%
%ADD182R,0.0043X0.0003*%
%ADD183R,0.0043X0.0003*%
%ADD184R,0.0053X0.0003*%
%ADD185R,0.0046X0.0003*%
%ADD186R,0.0063X0.0003*%
%ADD187R,0.0073X0.0003*%
%ADD188R,0.0079X0.0003*%
%ADD189R,0.0056X0.0003*%
%ADD190R,0.0086X0.0003*%
%ADD191R,0.0109X0.0003*%
%ADD192R,0.0271X0.0003*%
%ADD193R,0.0109X0.0003*%
%ADD194R,0.0271X0.0003*%
%ADD195R,0.0271X0.0003*%
%ADD196R,0.0059X0.0003*%
%ADD197R,0.0099X0.0003*%
%ADD198R,0.0050X0.0003*%
%ADD199R,0.0096X0.0003*%
%ADD200R,0.0046X0.0003*%
%ADD201R,0.0099X0.0003*%
%ADD202R,0.0043X0.0003*%
%ADD203R,0.0049X0.0003*%
%ADD204R,0.0175X0.0003*%
%ADD205R,0.0036X0.0003*%
%ADD206R,0.0033X0.0003*%
%ADD207R,0.0168X0.0003*%
%ADD208R,0.0172X0.0003*%
%ADD209R,0.0135X0.0003*%
%ADD210R,0.0208X0.0003*%
%ADD211R,0.0148X0.0003*%
%ADD212R,0.0030X0.0003*%
%ADD213R,0.0195X0.0003*%
%ADD214R,0.0195X0.0003*%
%ADD215R,0.0149X0.0003*%
%ADD216R,0.0079X0.0003*%
%ADD217R,0.0069X0.0003*%
%ADD218R,0.0033X0.0003*%
%ADD219R,0.0023X0.0003*%
%ADD220R,0.0023X0.0003*%
%ADD221R,0.0033X0.0003*%
%ADD222R,0.0043X0.0003*%
%ADD223R,0.0049X0.0003*%
%ADD224R,0.0059X0.0003*%
%ADD225R,0.0063X0.0003*%
%ADD226R,0.0066X0.0003*%
%ADD227R,0.0083X0.0003*%
%ADD228R,0.0086X0.0003*%
%ADD229R,0.0399X0.0003*%
%ADD230R,0.0409X0.0003*%
%ADD231R,0.0413X0.0003*%
%ADD232R,0.0413X0.0003*%
%ADD233R,0.0158X0.0003*%
%ADD234R,0.0172X0.0003*%
D10*
X000687Y001880D02*
X000689Y001953D01*
X000695Y002026D01*
X000705Y002098D01*
X000719Y002170D01*
X000736Y002241D01*
X000758Y002311D01*
X000783Y002380D01*
X000812Y002447D01*
X000844Y002512D01*
X000880Y002576D01*
X000920Y002638D01*
X000962Y002697D01*
X001008Y002754D01*
X001057Y002808D01*
X001109Y002860D01*
X001163Y002909D01*
X001220Y002955D01*
X001279Y002997D01*
X001341Y003037D01*
X001405Y003073D01*
X001470Y003105D01*
X001537Y003134D01*
X001606Y003159D01*
X001676Y003181D01*
X001747Y003198D01*
X001819Y003212D01*
X001891Y003222D01*
X001964Y003228D01*
X002037Y003230D01*
X002110Y003228D01*
X002183Y003222D01*
X002255Y003212D01*
X002327Y003198D01*
X002398Y003181D01*
X002468Y003159D01*
X002537Y003134D01*
X002604Y003105D01*
X002669Y003073D01*
X002733Y003037D01*
X002795Y002997D01*
X002854Y002955D01*
X002911Y002909D01*
X002965Y002860D01*
X003017Y002808D01*
X003066Y002754D01*
X003112Y002697D01*
X003154Y002638D01*
X003194Y002576D01*
X003230Y002512D01*
X003262Y002447D01*
X003291Y002380D01*
X003316Y002311D01*
X003338Y002241D01*
X003355Y002170D01*
X003369Y002098D01*
X003379Y002026D01*
X003385Y001953D01*
X003387Y001880D01*
X003385Y001807D01*
X003379Y001734D01*
X003369Y001662D01*
X003355Y001590D01*
X003338Y001519D01*
X003316Y001449D01*
X003291Y001380D01*
X003262Y001313D01*
X003230Y001248D01*
X003194Y001184D01*
X003154Y001122D01*
X003112Y001063D01*
X003066Y001006D01*
X003017Y000952D01*
X002965Y000900D01*
X002911Y000851D01*
X002854Y000805D01*
X002795Y000763D01*
X002733Y000723D01*
X002669Y000687D01*
X002604Y000655D01*
X002537Y000626D01*
X002468Y000601D01*
X002398Y000579D01*
X002327Y000562D01*
X002255Y000548D01*
X002183Y000538D01*
X002110Y000532D01*
X002037Y000530D01*
X001964Y000532D01*
X001891Y000538D01*
X001819Y000548D01*
X001747Y000562D01*
X001676Y000579D01*
X001606Y000601D01*
X001537Y000626D01*
X001470Y000655D01*
X001405Y000687D01*
X001341Y000723D01*
X001279Y000763D01*
X001220Y000805D01*
X001163Y000851D01*
X001109Y000900D01*
X001057Y000952D01*
X001008Y001006D01*
X000962Y001063D01*
X000920Y001122D01*
X000880Y001184D01*
X000844Y001248D01*
X000812Y001313D01*
X000783Y001380D01*
X000758Y001449D01*
X000736Y001519D01*
X000719Y001590D01*
X000705Y001662D01*
X000695Y001734D01*
X000689Y001807D01*
X000687Y001880D01*
X006994Y003550D02*
X007427Y003157D01*
X007821Y003157D01*
X008254Y003157D02*
X008648Y003157D01*
X009081Y003550D01*
X009081Y005243D01*
X008254Y005243D01*
X007821Y005243D02*
X006994Y005243D01*
X006994Y003550D01*
X008235Y003235D02*
X008295Y003250D01*
X008354Y003268D01*
X008412Y003291D01*
X008469Y003317D01*
X008523Y003346D01*
X008576Y003379D01*
X008627Y003415D01*
X008675Y003454D01*
X008721Y003496D01*
X008763Y003541D01*
X008804Y003588D01*
X008840Y003638D01*
X008874Y003690D01*
X008905Y003744D01*
X008932Y003800D01*
X008955Y003858D01*
X008975Y003917D01*
X008991Y003977D01*
X009003Y004037D01*
X009012Y004099D01*
X009016Y004161D01*
X009017Y004223D01*
X009014Y004285D01*
X009006Y004347D01*
X008995Y004408D01*
X008981Y004468D01*
X008962Y004527D01*
X008940Y004585D01*
X008914Y004642D01*
X008885Y004696D01*
X008852Y004749D01*
X008816Y004800D01*
X008777Y004848D01*
X008735Y004894D01*
X008690Y004937D01*
X008643Y004977D01*
X008593Y005014D01*
X008541Y005048D01*
X008487Y005078D01*
X008431Y005105D01*
X008373Y005129D01*
X008314Y005149D01*
X008254Y005165D01*
X008077Y005730D02*
X005597Y005730D01*
X005597Y008170D01*
X008077Y008170D01*
X008077Y005730D01*
X011824Y007063D02*
X011826Y007089D01*
X011832Y007115D01*
X011841Y007140D01*
X011854Y007163D01*
X011870Y007184D01*
X011889Y007202D01*
X011911Y007218D01*
X011934Y007230D01*
X011959Y007238D01*
X011985Y007243D01*
X012012Y007244D01*
X012038Y007241D01*
X012063Y007234D01*
X012088Y007224D01*
X012110Y007210D01*
X012131Y007193D01*
X012148Y007174D01*
X012163Y007152D01*
X012174Y007128D01*
X012182Y007102D01*
X012186Y007076D01*
X012186Y007050D01*
X012182Y007024D01*
X012174Y006998D01*
X012163Y006974D01*
X012148Y006952D01*
X012131Y006933D01*
X012110Y006916D01*
X012088Y006902D01*
X012063Y006892D01*
X012038Y006885D01*
X012012Y006882D01*
X011985Y006883D01*
X011959Y006888D01*
X011934Y006896D01*
X011911Y006908D01*
X011889Y006924D01*
X011870Y006942D01*
X011854Y006963D01*
X011841Y006986D01*
X011832Y007011D01*
X011826Y007037D01*
X011824Y007063D01*
X012389Y007447D02*
X010086Y007447D01*
X010086Y003353D01*
X012389Y003353D01*
X012389Y007447D01*
X006947Y008670D02*
X005528Y008670D01*
X000687Y009980D02*
X000689Y010053D01*
X000695Y010126D01*
X000705Y010198D01*
X000719Y010270D01*
X000736Y010341D01*
X000758Y010411D01*
X000783Y010480D01*
X000812Y010547D01*
X000844Y010612D01*
X000880Y010676D01*
X000920Y010738D01*
X000962Y010797D01*
X001008Y010854D01*
X001057Y010908D01*
X001109Y010960D01*
X001163Y011009D01*
X001220Y011055D01*
X001279Y011097D01*
X001341Y011137D01*
X001405Y011173D01*
X001470Y011205D01*
X001537Y011234D01*
X001606Y011259D01*
X001676Y011281D01*
X001747Y011298D01*
X001819Y011312D01*
X001891Y011322D01*
X001964Y011328D01*
X002037Y011330D01*
X002110Y011328D01*
X002183Y011322D01*
X002255Y011312D01*
X002327Y011298D01*
X002398Y011281D01*
X002468Y011259D01*
X002537Y011234D01*
X002604Y011205D01*
X002669Y011173D01*
X002733Y011137D01*
X002795Y011097D01*
X002854Y011055D01*
X002911Y011009D01*
X002965Y010960D01*
X003017Y010908D01*
X003066Y010854D01*
X003112Y010797D01*
X003154Y010738D01*
X003194Y010676D01*
X003230Y010612D01*
X003262Y010547D01*
X003291Y010480D01*
X003316Y010411D01*
X003338Y010341D01*
X003355Y010270D01*
X003369Y010198D01*
X003379Y010126D01*
X003385Y010053D01*
X003387Y009980D01*
X003385Y009907D01*
X003379Y009834D01*
X003369Y009762D01*
X003355Y009690D01*
X003338Y009619D01*
X003316Y009549D01*
X003291Y009480D01*
X003262Y009413D01*
X003230Y009348D01*
X003194Y009284D01*
X003154Y009222D01*
X003112Y009163D01*
X003066Y009106D01*
X003017Y009052D01*
X002965Y009000D01*
X002911Y008951D01*
X002854Y008905D01*
X002795Y008863D01*
X002733Y008823D01*
X002669Y008787D01*
X002604Y008755D01*
X002537Y008726D01*
X002468Y008701D01*
X002398Y008679D01*
X002327Y008662D01*
X002255Y008648D01*
X002183Y008638D01*
X002110Y008632D01*
X002037Y008630D01*
X001964Y008632D01*
X001891Y008638D01*
X001819Y008648D01*
X001747Y008662D01*
X001676Y008679D01*
X001606Y008701D01*
X001537Y008726D01*
X001470Y008755D01*
X001405Y008787D01*
X001341Y008823D01*
X001279Y008863D01*
X001220Y008905D01*
X001163Y008951D01*
X001109Y009000D01*
X001057Y009052D01*
X001008Y009106D01*
X000962Y009163D01*
X000920Y009222D01*
X000880Y009284D01*
X000844Y009348D01*
X000812Y009413D01*
X000783Y009480D01*
X000758Y009549D01*
X000736Y009619D01*
X000719Y009690D01*
X000705Y009762D01*
X000695Y009834D01*
X000689Y009907D01*
X000687Y009980D01*
X005528Y010530D02*
X006947Y010530D01*
X013532Y009113D02*
X015784Y009113D01*
X015784Y003287D01*
X013532Y003287D01*
X013532Y009113D01*
X015656Y010091D02*
X018019Y010091D01*
X018019Y010328D01*
X017979Y010367D01*
X018587Y010530D02*
X018737Y010380D01*
X019437Y010380D01*
X019587Y010530D01*
X019737Y010380D01*
X020437Y010380D01*
X020587Y010530D01*
X020737Y010380D01*
X021437Y010380D01*
X021587Y010530D01*
X021587Y011230D01*
X021437Y011380D01*
X020737Y011380D01*
X020587Y011230D01*
X020437Y011380D01*
X019737Y011380D01*
X019587Y011230D01*
X019437Y011380D01*
X018737Y011380D01*
X018587Y011230D01*
X018587Y010530D01*
X017979Y011233D02*
X018019Y011272D01*
X018019Y011509D01*
X015656Y011509D01*
X015656Y011272D01*
X015696Y011233D01*
X015696Y010367D02*
X015656Y010328D01*
X015656Y010091D01*
X021087Y009800D02*
X021087Y009100D01*
X021237Y008950D01*
X021087Y008800D01*
X021087Y008100D01*
X021237Y007950D01*
X021087Y007800D01*
X021087Y007100D01*
X021237Y006950D01*
X021087Y006800D01*
X021087Y006100D01*
X021237Y005950D01*
X021937Y005950D01*
X022087Y006100D01*
X022087Y006800D01*
X021937Y006950D01*
X022087Y007100D01*
X022087Y007800D01*
X021937Y007950D01*
X022087Y008100D01*
X022087Y008800D01*
X021937Y008950D01*
X022087Y009100D01*
X022087Y009800D01*
X021937Y009950D01*
X021237Y009950D01*
X021087Y009800D01*
X022337Y009900D02*
X022337Y010600D01*
X022487Y010750D01*
X023187Y010750D01*
X023337Y010600D01*
X023337Y009900D01*
X023187Y009750D01*
X023337Y009600D01*
X023337Y008900D01*
X023187Y008750D01*
X023337Y008600D01*
X023337Y007900D01*
X023187Y007750D01*
X023337Y007600D01*
X023337Y006900D01*
X023187Y006750D01*
X022487Y006750D01*
X022337Y006900D01*
X022337Y007600D01*
X022487Y007750D01*
X022337Y007900D01*
X022337Y008600D01*
X022487Y008750D01*
X022337Y008900D01*
X022337Y009600D01*
X022487Y009750D01*
X022337Y009900D01*
X031727Y009890D02*
X031727Y010110D01*
X031727Y009890D02*
X032047Y009890D01*
X031727Y010790D02*
X031727Y011010D01*
X032047Y011010D01*
X036787Y009980D02*
X036789Y010053D01*
X036795Y010126D01*
X036805Y010198D01*
X036819Y010270D01*
X036836Y010341D01*
X036858Y010411D01*
X036883Y010480D01*
X036912Y010547D01*
X036944Y010612D01*
X036980Y010676D01*
X037020Y010738D01*
X037062Y010797D01*
X037108Y010854D01*
X037157Y010908D01*
X037209Y010960D01*
X037263Y011009D01*
X037320Y011055D01*
X037379Y011097D01*
X037441Y011137D01*
X037505Y011173D01*
X037570Y011205D01*
X037637Y011234D01*
X037706Y011259D01*
X037776Y011281D01*
X037847Y011298D01*
X037919Y011312D01*
X037991Y011322D01*
X038064Y011328D01*
X038137Y011330D01*
X038210Y011328D01*
X038283Y011322D01*
X038355Y011312D01*
X038427Y011298D01*
X038498Y011281D01*
X038568Y011259D01*
X038637Y011234D01*
X038704Y011205D01*
X038769Y011173D01*
X038833Y011137D01*
X038895Y011097D01*
X038954Y011055D01*
X039011Y011009D01*
X039065Y010960D01*
X039117Y010908D01*
X039166Y010854D01*
X039212Y010797D01*
X039254Y010738D01*
X039294Y010676D01*
X039330Y010612D01*
X039362Y010547D01*
X039391Y010480D01*
X039416Y010411D01*
X039438Y010341D01*
X039455Y010270D01*
X039469Y010198D01*
X039479Y010126D01*
X039485Y010053D01*
X039487Y009980D01*
X039485Y009907D01*
X039479Y009834D01*
X039469Y009762D01*
X039455Y009690D01*
X039438Y009619D01*
X039416Y009549D01*
X039391Y009480D01*
X039362Y009413D01*
X039330Y009348D01*
X039294Y009284D01*
X039254Y009222D01*
X039212Y009163D01*
X039166Y009106D01*
X039117Y009052D01*
X039065Y009000D01*
X039011Y008951D01*
X038954Y008905D01*
X038895Y008863D01*
X038833Y008823D01*
X038769Y008787D01*
X038704Y008755D01*
X038637Y008726D01*
X038568Y008701D01*
X038498Y008679D01*
X038427Y008662D01*
X038355Y008648D01*
X038283Y008638D01*
X038210Y008632D01*
X038137Y008630D01*
X038064Y008632D01*
X037991Y008638D01*
X037919Y008648D01*
X037847Y008662D01*
X037776Y008679D01*
X037706Y008701D01*
X037637Y008726D01*
X037570Y008755D01*
X037505Y008787D01*
X037441Y008823D01*
X037379Y008863D01*
X037320Y008905D01*
X037263Y008951D01*
X037209Y009000D01*
X037157Y009052D01*
X037108Y009106D01*
X037062Y009163D01*
X037020Y009222D01*
X036980Y009284D01*
X036944Y009348D01*
X036912Y009413D01*
X036883Y009480D01*
X036858Y009549D01*
X036836Y009619D01*
X036819Y009690D01*
X036805Y009762D01*
X036795Y009834D01*
X036789Y009907D01*
X036787Y009980D01*
X036437Y008900D02*
X035737Y008900D01*
X035587Y008750D01*
X035437Y008900D01*
X034737Y008900D01*
X034587Y008750D01*
X034437Y008900D01*
X033737Y008900D01*
X033587Y008750D01*
X033587Y008050D01*
X033737Y007900D01*
X034437Y007900D01*
X034587Y008050D01*
X034737Y007900D01*
X035437Y007900D01*
X035587Y008050D01*
X035737Y007900D01*
X036437Y007900D01*
X036587Y008050D01*
X036587Y008750D01*
X036437Y008900D01*
X036908Y007160D02*
X036908Y005740D01*
X038767Y005740D02*
X038767Y007160D01*
X035187Y002700D02*
X034487Y002700D01*
X034337Y002550D01*
X034187Y002700D01*
X033487Y002700D01*
X033337Y002550D01*
X033187Y002700D01*
X032487Y002700D01*
X032337Y002550D01*
X032337Y000850D01*
X032487Y000700D01*
X033187Y000700D01*
X033337Y000850D01*
X033487Y000700D01*
X034187Y000700D01*
X034337Y000850D01*
X034487Y000700D01*
X035187Y000700D01*
X035337Y000850D01*
X035337Y002550D01*
X035187Y002700D01*
X036787Y001880D02*
X036789Y001953D01*
X036795Y002026D01*
X036805Y002098D01*
X036819Y002170D01*
X036836Y002241D01*
X036858Y002311D01*
X036883Y002380D01*
X036912Y002447D01*
X036944Y002512D01*
X036980Y002576D01*
X037020Y002638D01*
X037062Y002697D01*
X037108Y002754D01*
X037157Y002808D01*
X037209Y002860D01*
X037263Y002909D01*
X037320Y002955D01*
X037379Y002997D01*
X037441Y003037D01*
X037505Y003073D01*
X037570Y003105D01*
X037637Y003134D01*
X037706Y003159D01*
X037776Y003181D01*
X037847Y003198D01*
X037919Y003212D01*
X037991Y003222D01*
X038064Y003228D01*
X038137Y003230D01*
X038210Y003228D01*
X038283Y003222D01*
X038355Y003212D01*
X038427Y003198D01*
X038498Y003181D01*
X038568Y003159D01*
X038637Y003134D01*
X038704Y003105D01*
X038769Y003073D01*
X038833Y003037D01*
X038895Y002997D01*
X038954Y002955D01*
X039011Y002909D01*
X039065Y002860D01*
X039117Y002808D01*
X039166Y002754D01*
X039212Y002697D01*
X039254Y002638D01*
X039294Y002576D01*
X039330Y002512D01*
X039362Y002447D01*
X039391Y002380D01*
X039416Y002311D01*
X039438Y002241D01*
X039455Y002170D01*
X039469Y002098D01*
X039479Y002026D01*
X039485Y001953D01*
X039487Y001880D01*
X039485Y001807D01*
X039479Y001734D01*
X039469Y001662D01*
X039455Y001590D01*
X039438Y001519D01*
X039416Y001449D01*
X039391Y001380D01*
X039362Y001313D01*
X039330Y001248D01*
X039294Y001184D01*
X039254Y001122D01*
X039212Y001063D01*
X039166Y001006D01*
X039117Y000952D01*
X039065Y000900D01*
X039011Y000851D01*
X038954Y000805D01*
X038895Y000763D01*
X038833Y000723D01*
X038769Y000687D01*
X038704Y000655D01*
X038637Y000626D01*
X038568Y000601D01*
X038498Y000579D01*
X038427Y000562D01*
X038355Y000548D01*
X038283Y000538D01*
X038210Y000532D01*
X038137Y000530D01*
X038064Y000532D01*
X037991Y000538D01*
X037919Y000548D01*
X037847Y000562D01*
X037776Y000579D01*
X037706Y000601D01*
X037637Y000626D01*
X037570Y000655D01*
X037505Y000687D01*
X037441Y000723D01*
X037379Y000763D01*
X037320Y000805D01*
X037263Y000851D01*
X037209Y000900D01*
X037157Y000952D01*
X037108Y001006D01*
X037062Y001063D01*
X037020Y001122D01*
X036980Y001184D01*
X036944Y001248D01*
X036912Y001313D01*
X036883Y001380D01*
X036858Y001449D01*
X036836Y001519D01*
X036819Y001590D01*
X036805Y001662D01*
X036795Y001734D01*
X036789Y001807D01*
X036787Y001880D01*
X027119Y001772D02*
X027079Y001733D01*
X027119Y001772D02*
X027119Y002009D01*
X024756Y002009D01*
X024756Y001772D01*
X024796Y001733D01*
X024796Y000867D02*
X024756Y000828D01*
X024756Y000591D01*
X027119Y000591D01*
X027119Y000828D01*
X027079Y000867D01*
X007841Y003235D02*
X007781Y003249D01*
X007723Y003266D01*
X007665Y003287D01*
X007609Y003312D01*
X007554Y003339D01*
X007502Y003371D01*
X007451Y003405D01*
X007403Y003443D01*
X007357Y003483D01*
X007313Y003526D01*
X007273Y003572D01*
X007235Y003620D01*
X007201Y003671D01*
X007169Y003723D01*
X007141Y003778D01*
X007116Y003834D01*
X007095Y003891D01*
X007078Y003950D01*
X007064Y004010D01*
X007054Y004070D01*
X007048Y004131D01*
X007045Y004192D01*
X007046Y004253D01*
X007051Y004314D01*
X007060Y004375D01*
X007073Y004435D01*
X007089Y004494D01*
X007109Y004552D01*
X007133Y004608D01*
X007160Y004663D01*
X007190Y004716D01*
X007223Y004767D01*
X007260Y004816D01*
X007300Y004863D01*
X007342Y004907D01*
X007387Y004948D01*
X007435Y004987D01*
X007485Y005022D01*
X007537Y005055D01*
X007591Y005084D01*
X007646Y005109D01*
X007704Y005131D01*
X007762Y005150D01*
X007821Y005165D01*
D11*
X006577Y001350D02*
X003997Y001350D01*
X003997Y002650D01*
X006577Y002650D01*
X006577Y001350D01*
X001368Y001880D02*
X001370Y001931D01*
X001376Y001982D01*
X001386Y002032D01*
X001399Y002082D01*
X001417Y002130D01*
X001437Y002177D01*
X001462Y002222D01*
X001490Y002265D01*
X001521Y002306D01*
X001555Y002344D01*
X001592Y002379D01*
X001631Y002412D01*
X001673Y002442D01*
X001717Y002468D01*
X001763Y002490D01*
X001811Y002510D01*
X001860Y002525D01*
X001910Y002537D01*
X001960Y002545D01*
X002011Y002549D01*
X002063Y002549D01*
X002114Y002545D01*
X002164Y002537D01*
X002214Y002525D01*
X002263Y002510D01*
X002311Y002490D01*
X002357Y002468D01*
X002401Y002442D01*
X002443Y002412D01*
X002482Y002379D01*
X002519Y002344D01*
X002553Y002306D01*
X002584Y002265D01*
X002612Y002222D01*
X002637Y002177D01*
X002657Y002130D01*
X002675Y002082D01*
X002688Y002032D01*
X002698Y001982D01*
X002704Y001931D01*
X002706Y001880D01*
X002704Y001829D01*
X002698Y001778D01*
X002688Y001728D01*
X002675Y001678D01*
X002657Y001630D01*
X002637Y001583D01*
X002612Y001538D01*
X002584Y001495D01*
X002553Y001454D01*
X002519Y001416D01*
X002482Y001381D01*
X002443Y001348D01*
X002401Y001318D01*
X002357Y001292D01*
X002311Y001270D01*
X002263Y001250D01*
X002214Y001235D01*
X002164Y001223D01*
X002114Y001215D01*
X002063Y001211D01*
X002011Y001211D01*
X001960Y001215D01*
X001910Y001223D01*
X001860Y001235D01*
X001811Y001250D01*
X001763Y001270D01*
X001717Y001292D01*
X001673Y001318D01*
X001631Y001348D01*
X001592Y001381D01*
X001555Y001416D01*
X001521Y001454D01*
X001490Y001495D01*
X001462Y001538D01*
X001437Y001583D01*
X001417Y001630D01*
X001399Y001678D01*
X001386Y001728D01*
X001376Y001778D01*
X001370Y001829D01*
X001368Y001880D01*
X018067Y002205D02*
X018067Y002400D01*
X018077Y002420D02*
X018106Y002422D01*
X018134Y002427D01*
X018161Y002437D01*
X018187Y002449D01*
X018211Y002465D01*
X018233Y002484D01*
X018252Y002506D01*
X018268Y002530D01*
X018280Y002556D01*
X018290Y002583D01*
X018295Y002611D01*
X018297Y002640D01*
X018295Y002669D01*
X018290Y002697D01*
X018280Y002724D01*
X018268Y002750D01*
X018252Y002774D01*
X018233Y002796D01*
X018211Y002815D01*
X018187Y002831D01*
X018161Y002843D01*
X018134Y002853D01*
X018106Y002858D01*
X018077Y002860D01*
X018067Y002880D02*
X018067Y003075D01*
X018069Y003098D01*
X018074Y003121D01*
X018083Y003143D01*
X018096Y003163D01*
X018111Y003181D01*
X018129Y003196D01*
X018149Y003209D01*
X018171Y003218D01*
X018194Y003223D01*
X018217Y003225D01*
X021557Y003225D01*
X021580Y003223D01*
X021603Y003218D01*
X021625Y003209D01*
X021645Y003196D01*
X021663Y003181D01*
X021678Y003163D01*
X021691Y003143D01*
X021700Y003121D01*
X021705Y003098D01*
X021707Y003075D01*
X021707Y002205D01*
X021705Y002182D01*
X021700Y002159D01*
X021691Y002137D01*
X021678Y002117D01*
X021663Y002099D01*
X021645Y002084D01*
X021625Y002071D01*
X021603Y002062D01*
X021580Y002057D01*
X021557Y002055D01*
X018217Y002055D01*
X018194Y002057D01*
X018171Y002062D01*
X018149Y002071D01*
X018129Y002084D01*
X018111Y002099D01*
X018096Y002117D01*
X018083Y002137D01*
X018074Y002159D01*
X018069Y002182D01*
X018067Y002205D01*
X025776Y005589D02*
X028226Y003139D01*
X028449Y003139D01*
X030899Y005589D01*
X030899Y005811D01*
X028449Y008261D01*
X028226Y008261D01*
X025776Y005811D01*
X025776Y005589D01*
X020237Y007102D02*
X020237Y007498D01*
X020039Y007300D01*
X020237Y007102D01*
X017238Y007102D02*
X017040Y007300D01*
X017238Y007498D01*
X018539Y008799D02*
X018737Y008997D01*
X018935Y008799D01*
X011887Y009100D02*
X011387Y009100D01*
X011387Y009700D02*
X011887Y009700D01*
X006570Y010310D02*
X006572Y010325D01*
X006578Y010338D01*
X006587Y010350D01*
X006598Y010359D01*
X006612Y010365D01*
X006627Y010367D01*
X006642Y010365D01*
X006655Y010359D01*
X006667Y010350D01*
X006676Y010339D01*
X006682Y010325D01*
X006684Y010310D01*
X006682Y010295D01*
X006676Y010282D01*
X006667Y010270D01*
X006656Y010261D01*
X006642Y010255D01*
X006627Y010253D01*
X006612Y010255D01*
X006599Y010261D01*
X006587Y010270D01*
X006578Y010281D01*
X006572Y010295D01*
X006570Y010310D01*
X001368Y009980D02*
X001370Y010031D01*
X001376Y010082D01*
X001386Y010132D01*
X001399Y010182D01*
X001417Y010230D01*
X001437Y010277D01*
X001462Y010322D01*
X001490Y010365D01*
X001521Y010406D01*
X001555Y010444D01*
X001592Y010479D01*
X001631Y010512D01*
X001673Y010542D01*
X001717Y010568D01*
X001763Y010590D01*
X001811Y010610D01*
X001860Y010625D01*
X001910Y010637D01*
X001960Y010645D01*
X002011Y010649D01*
X002063Y010649D01*
X002114Y010645D01*
X002164Y010637D01*
X002214Y010625D01*
X002263Y010610D01*
X002311Y010590D01*
X002357Y010568D01*
X002401Y010542D01*
X002443Y010512D01*
X002482Y010479D01*
X002519Y010444D01*
X002553Y010406D01*
X002584Y010365D01*
X002612Y010322D01*
X002637Y010277D01*
X002657Y010230D01*
X002675Y010182D01*
X002688Y010132D01*
X002698Y010082D01*
X002704Y010031D01*
X002706Y009980D01*
X002704Y009929D01*
X002698Y009878D01*
X002688Y009828D01*
X002675Y009778D01*
X002657Y009730D01*
X002637Y009683D01*
X002612Y009638D01*
X002584Y009595D01*
X002553Y009554D01*
X002519Y009516D01*
X002482Y009481D01*
X002443Y009448D01*
X002401Y009418D01*
X002357Y009392D01*
X002311Y009370D01*
X002263Y009350D01*
X002214Y009335D01*
X002164Y009323D01*
X002114Y009315D01*
X002063Y009311D01*
X002011Y009311D01*
X001960Y009315D01*
X001910Y009323D01*
X001860Y009335D01*
X001811Y009350D01*
X001763Y009370D01*
X001717Y009392D01*
X001673Y009418D01*
X001631Y009448D01*
X001592Y009481D01*
X001555Y009516D01*
X001521Y009554D01*
X001490Y009595D01*
X001462Y009638D01*
X001437Y009683D01*
X001417Y009730D01*
X001399Y009778D01*
X001386Y009828D01*
X001376Y009878D01*
X001370Y009929D01*
X001368Y009980D01*
X018539Y005801D02*
X018737Y005603D01*
X018935Y005801D01*
X033513Y006050D02*
X035162Y006050D01*
X035087Y007450D02*
X035035Y007492D01*
X034981Y007531D01*
X034924Y007566D01*
X034866Y007599D01*
X034806Y007627D01*
X034744Y007653D01*
X034681Y007675D01*
X034616Y007693D01*
X034551Y007707D01*
X034485Y007717D01*
X034419Y007724D01*
X034352Y007727D01*
X034285Y007726D01*
X034219Y007721D01*
X034153Y007712D01*
X034087Y007700D01*
X034026Y007684D01*
X033966Y007666D01*
X033908Y007644D01*
X033850Y007619D01*
X033794Y007591D01*
X033739Y007560D01*
X033687Y007526D01*
X033636Y007489D01*
X033587Y007450D01*
X034087Y007700D02*
X034149Y007712D01*
X034211Y007720D01*
X034274Y007725D01*
X034337Y007727D01*
X034400Y007725D01*
X034463Y007720D01*
X034525Y007712D01*
X034587Y007700D01*
X038490Y006060D02*
X038492Y006075D01*
X038498Y006088D01*
X038507Y006100D01*
X038518Y006109D01*
X038532Y006115D01*
X038547Y006117D01*
X038562Y006115D01*
X038575Y006109D01*
X038587Y006100D01*
X038596Y006089D01*
X038602Y006075D01*
X038604Y006060D01*
X038602Y006045D01*
X038596Y006032D01*
X038587Y006020D01*
X038576Y006011D01*
X038562Y006005D01*
X038547Y006003D01*
X038532Y006005D01*
X038519Y006011D01*
X038507Y006020D01*
X038498Y006031D01*
X038492Y006045D01*
X038490Y006060D01*
X037468Y009980D02*
X037470Y010031D01*
X037476Y010082D01*
X037486Y010132D01*
X037499Y010182D01*
X037517Y010230D01*
X037537Y010277D01*
X037562Y010322D01*
X037590Y010365D01*
X037621Y010406D01*
X037655Y010444D01*
X037692Y010479D01*
X037731Y010512D01*
X037773Y010542D01*
X037817Y010568D01*
X037863Y010590D01*
X037911Y010610D01*
X037960Y010625D01*
X038010Y010637D01*
X038060Y010645D01*
X038111Y010649D01*
X038163Y010649D01*
X038214Y010645D01*
X038264Y010637D01*
X038314Y010625D01*
X038363Y010610D01*
X038411Y010590D01*
X038457Y010568D01*
X038501Y010542D01*
X038543Y010512D01*
X038582Y010479D01*
X038619Y010444D01*
X038653Y010406D01*
X038684Y010365D01*
X038712Y010322D01*
X038737Y010277D01*
X038757Y010230D01*
X038775Y010182D01*
X038788Y010132D01*
X038798Y010082D01*
X038804Y010031D01*
X038806Y009980D01*
X038804Y009929D01*
X038798Y009878D01*
X038788Y009828D01*
X038775Y009778D01*
X038757Y009730D01*
X038737Y009683D01*
X038712Y009638D01*
X038684Y009595D01*
X038653Y009554D01*
X038619Y009516D01*
X038582Y009481D01*
X038543Y009448D01*
X038501Y009418D01*
X038457Y009392D01*
X038411Y009370D01*
X038363Y009350D01*
X038314Y009335D01*
X038264Y009323D01*
X038214Y009315D01*
X038163Y009311D01*
X038111Y009311D01*
X038060Y009315D01*
X038010Y009323D01*
X037960Y009335D01*
X037911Y009350D01*
X037863Y009370D01*
X037817Y009392D01*
X037773Y009418D01*
X037731Y009448D01*
X037692Y009481D01*
X037655Y009516D01*
X037621Y009554D01*
X037590Y009595D01*
X037562Y009638D01*
X037537Y009683D01*
X037517Y009730D01*
X037499Y009778D01*
X037486Y009828D01*
X037476Y009878D01*
X037470Y009929D01*
X037468Y009980D01*
X037468Y001880D02*
X037470Y001931D01*
X037476Y001982D01*
X037486Y002032D01*
X037499Y002082D01*
X037517Y002130D01*
X037537Y002177D01*
X037562Y002222D01*
X037590Y002265D01*
X037621Y002306D01*
X037655Y002344D01*
X037692Y002379D01*
X037731Y002412D01*
X037773Y002442D01*
X037817Y002468D01*
X037863Y002490D01*
X037911Y002510D01*
X037960Y002525D01*
X038010Y002537D01*
X038060Y002545D01*
X038111Y002549D01*
X038163Y002549D01*
X038214Y002545D01*
X038264Y002537D01*
X038314Y002525D01*
X038363Y002510D01*
X038411Y002490D01*
X038457Y002468D01*
X038501Y002442D01*
X038543Y002412D01*
X038582Y002379D01*
X038619Y002344D01*
X038653Y002306D01*
X038684Y002265D01*
X038712Y002222D01*
X038737Y002177D01*
X038757Y002130D01*
X038775Y002082D01*
X038788Y002032D01*
X038798Y001982D01*
X038804Y001931D01*
X038806Y001880D01*
X038804Y001829D01*
X038798Y001778D01*
X038788Y001728D01*
X038775Y001678D01*
X038757Y001630D01*
X038737Y001583D01*
X038712Y001538D01*
X038684Y001495D01*
X038653Y001454D01*
X038619Y001416D01*
X038582Y001381D01*
X038543Y001348D01*
X038501Y001318D01*
X038457Y001292D01*
X038411Y001270D01*
X038363Y001250D01*
X038314Y001235D01*
X038264Y001223D01*
X038214Y001215D01*
X038163Y001211D01*
X038111Y001211D01*
X038060Y001215D01*
X038010Y001223D01*
X037960Y001235D01*
X037911Y001250D01*
X037863Y001270D01*
X037817Y001292D01*
X037773Y001318D01*
X037731Y001348D01*
X037692Y001381D01*
X037655Y001416D01*
X037621Y001454D01*
X037590Y001495D01*
X037562Y001538D01*
X037537Y001583D01*
X037517Y001630D01*
X037499Y001678D01*
X037486Y001728D01*
X037476Y001778D01*
X037470Y001829D01*
X037468Y001880D01*
D12*
X036512Y001975D02*
X036362Y001975D01*
X036437Y001975D02*
X036437Y002425D01*
X036512Y002425D02*
X036362Y002425D01*
X036206Y002350D02*
X036130Y002425D01*
X035980Y002425D01*
X035905Y002350D01*
X035980Y002200D02*
X035905Y002125D01*
X035905Y002050D01*
X035980Y001975D01*
X036130Y001975D01*
X036206Y002050D01*
X036130Y002200D02*
X035980Y002200D01*
X036130Y002200D02*
X036206Y002275D01*
X036206Y002350D01*
X035745Y002425D02*
X035520Y002425D01*
X035445Y002350D01*
X035445Y002200D01*
X035520Y002125D01*
X035745Y002125D01*
X035745Y001975D02*
X035745Y002425D01*
X035987Y001825D02*
X035912Y001750D01*
X035912Y001600D01*
X035987Y001525D01*
X036212Y001525D01*
X036212Y001375D02*
X036212Y001825D01*
X035987Y001825D01*
X035752Y001600D02*
X035602Y001750D01*
X035452Y001825D01*
X035527Y001600D02*
X035752Y001600D01*
X035752Y001450D01*
X035677Y001375D01*
X035527Y001375D01*
X035452Y001450D01*
X035452Y001525D01*
X035527Y001600D01*
X035362Y000775D02*
X035362Y000325D01*
X035512Y000325D02*
X035212Y000325D01*
X035512Y000625D02*
X035362Y000775D01*
X032312Y000775D02*
X032312Y000550D01*
X032162Y000625D01*
X032087Y000625D01*
X032012Y000550D01*
X032012Y000400D01*
X032087Y000325D01*
X032237Y000325D01*
X032312Y000400D01*
X031362Y000375D02*
X031362Y000825D01*
X031137Y000825D01*
X031062Y000750D01*
X031062Y000600D01*
X031137Y000525D01*
X031362Y000525D01*
X031212Y000525D02*
X031062Y000375D01*
X030902Y000375D02*
X030602Y000375D01*
X030752Y000375D02*
X030752Y000825D01*
X030902Y000675D01*
X030442Y000600D02*
X030442Y000825D01*
X030141Y000825D01*
X030216Y000675D02*
X030141Y000600D01*
X030141Y000450D01*
X030216Y000375D01*
X030367Y000375D01*
X030442Y000450D01*
X030442Y000600D02*
X030292Y000675D01*
X030216Y000675D01*
X028933Y000750D02*
X028933Y000450D01*
X028858Y000375D01*
X028708Y000375D01*
X028633Y000450D01*
X028473Y000450D02*
X028398Y000375D01*
X028248Y000375D01*
X028173Y000450D01*
X028173Y000525D01*
X028248Y000600D01*
X028323Y000600D01*
X028248Y000600D02*
X028173Y000675D01*
X028173Y000750D01*
X028248Y000825D01*
X028398Y000825D01*
X028473Y000750D01*
X028633Y000750D02*
X028708Y000825D01*
X028858Y000825D01*
X028933Y000750D01*
X026487Y001300D02*
X026187Y001300D01*
X026187Y001800D01*
X026037Y001700D02*
X025837Y001700D01*
X025837Y000900D01*
X026037Y000900D01*
X026037Y001700D01*
X025687Y001800D02*
X025687Y001300D01*
X025387Y001300D01*
X025687Y001300D02*
X025687Y000800D01*
X026187Y000800D02*
X026187Y001300D01*
X024208Y001325D02*
X024058Y001175D01*
X024058Y000950D01*
X023748Y000950D02*
X023448Y000950D01*
X023598Y000950D02*
X023598Y001400D01*
X023748Y001250D01*
X023908Y001325D02*
X023908Y001400D01*
X023908Y001325D02*
X024058Y001175D01*
X024208Y001325D02*
X024208Y001400D01*
X025438Y002625D02*
X025362Y002700D01*
X025362Y002850D01*
X025438Y002925D01*
X025438Y003085D02*
X025362Y003160D01*
X025362Y003311D01*
X025438Y003386D01*
X025588Y003386D01*
X025663Y003311D01*
X025663Y003236D01*
X025588Y003085D01*
X025813Y003085D01*
X025813Y003386D01*
X025738Y002925D02*
X025813Y002850D01*
X025813Y002700D01*
X025738Y002625D01*
X025438Y002625D01*
X022787Y003250D02*
X022712Y003175D01*
X022562Y003175D01*
X022487Y003250D01*
X022487Y003625D01*
X022327Y003625D02*
X022327Y003400D01*
X022177Y003475D01*
X022102Y003475D01*
X022027Y003400D01*
X022027Y003250D01*
X022102Y003175D01*
X022252Y003175D01*
X022327Y003250D01*
X022787Y003250D02*
X022787Y003625D01*
X022327Y003625D02*
X022027Y003625D01*
X022248Y003875D02*
X022398Y003875D01*
X022473Y003950D01*
X022173Y004250D01*
X022173Y003950D01*
X022248Y003875D01*
X022473Y003950D02*
X022473Y004250D01*
X022398Y004325D01*
X022248Y004325D01*
X022173Y004250D01*
X022783Y004325D02*
X022783Y003875D01*
X022933Y003875D02*
X022633Y003875D01*
X023093Y003950D02*
X023168Y003875D01*
X023319Y003875D01*
X023394Y003950D01*
X023394Y004250D01*
X023319Y004325D01*
X023168Y004325D01*
X023093Y004250D01*
X022933Y004175D02*
X022783Y004325D01*
X022033Y005375D02*
X022033Y005825D01*
X021808Y005825D01*
X021733Y005750D01*
X021733Y005600D01*
X021808Y005525D01*
X022033Y005525D01*
X021573Y005375D02*
X021273Y005675D01*
X021273Y005750D01*
X021348Y005825D01*
X021498Y005825D01*
X021573Y005750D01*
X020973Y005900D02*
X020898Y005825D01*
X020823Y005825D01*
X020748Y005900D01*
X020748Y006050D01*
X020673Y006125D01*
X020598Y006125D01*
X020523Y006050D01*
X020523Y005900D01*
X020598Y005825D01*
X020973Y005900D02*
X020973Y006050D01*
X020898Y006125D01*
X020973Y006285D02*
X020523Y006285D01*
X020523Y006586D01*
X020523Y006746D02*
X020973Y006746D01*
X020973Y006971D01*
X020898Y007046D01*
X020748Y007046D01*
X020673Y006971D01*
X020673Y006746D01*
X020673Y006896D02*
X020523Y007046D01*
X020523Y007206D02*
X020523Y007356D01*
X020523Y007281D02*
X020973Y007281D01*
X020973Y007206D02*
X020973Y007356D01*
X020823Y007513D02*
X020523Y007513D01*
X020748Y007513D02*
X020748Y007813D01*
X020823Y007813D02*
X020523Y007813D01*
X020823Y007813D02*
X020973Y007663D01*
X020823Y007513D01*
X020973Y007973D02*
X020523Y007973D01*
X020523Y008274D01*
X020523Y008434D02*
X020523Y008734D01*
X020523Y008584D02*
X020973Y008584D01*
X020823Y008434D01*
X023462Y008382D02*
X023462Y008082D01*
X023763Y008382D01*
X023838Y008382D01*
X023913Y008307D01*
X023913Y008157D01*
X023838Y008082D01*
X023913Y007925D02*
X023913Y007775D01*
X023913Y007850D02*
X023462Y007850D01*
X023462Y007775D02*
X023462Y007925D01*
X024991Y007525D02*
X025292Y007525D01*
X025142Y007525D02*
X025142Y007975D01*
X025292Y007825D01*
X025602Y007975D02*
X025752Y007825D01*
X025912Y007900D02*
X025987Y007975D01*
X026137Y007975D01*
X026212Y007900D01*
X026212Y007600D01*
X026137Y007525D01*
X025987Y007525D01*
X025912Y007600D01*
X025752Y007525D02*
X025452Y007525D01*
X025602Y007525D02*
X025602Y007975D01*
X023913Y008617D02*
X023838Y008542D01*
X023538Y008542D01*
X023462Y008617D01*
X023462Y008768D01*
X023538Y008843D01*
X023838Y008843D02*
X023913Y008768D01*
X023913Y008617D01*
X021013Y009279D02*
X021013Y009429D01*
X020938Y009504D01*
X020638Y009504D02*
X020562Y009429D01*
X020562Y009279D01*
X020638Y009204D01*
X020938Y009204D01*
X021013Y009279D01*
X020938Y009665D02*
X020863Y009665D01*
X020788Y009740D01*
X020788Y009890D01*
X020713Y009965D01*
X020638Y009965D01*
X020562Y009890D01*
X020562Y009740D01*
X020638Y009665D01*
X020713Y009665D01*
X020788Y009740D01*
X020938Y009665D02*
X021013Y009740D01*
X021013Y009890D01*
X020938Y009965D01*
X020863Y009965D01*
X020788Y009890D01*
X021962Y010025D02*
X022262Y010025D01*
X022112Y010025D02*
X022112Y010475D01*
X022262Y010325D01*
X022598Y011045D02*
X022748Y011045D01*
X022823Y011120D01*
X022523Y011420D01*
X022523Y011120D01*
X022598Y011045D01*
X022823Y011120D02*
X022823Y011420D01*
X022748Y011495D01*
X022598Y011495D01*
X022523Y011420D01*
X023133Y011495D02*
X023133Y011045D01*
X023283Y011045D02*
X022983Y011045D01*
X023443Y011270D02*
X023518Y011195D01*
X023744Y011195D01*
X023443Y011270D02*
X023443Y011420D01*
X023518Y011495D01*
X023744Y011495D01*
X023744Y011045D01*
X023283Y011345D02*
X023133Y011495D01*
X021962Y011405D02*
X021812Y011555D01*
X021812Y011105D01*
X021962Y011105D02*
X021662Y011105D01*
X018562Y011180D02*
X018487Y011105D01*
X018337Y011105D01*
X018262Y011180D01*
X018262Y011255D01*
X018337Y011330D01*
X018412Y011330D01*
X018337Y011330D02*
X018262Y011405D01*
X018262Y011480D01*
X018337Y011555D01*
X018487Y011555D01*
X018562Y011480D01*
X017087Y011300D02*
X017087Y010800D01*
X017387Y010800D01*
X017087Y010800D02*
X017087Y010300D01*
X016937Y010400D02*
X016737Y010400D01*
X016737Y011200D01*
X016937Y011200D01*
X016937Y010400D01*
X016587Y010300D02*
X016587Y010800D01*
X016287Y010800D01*
X016587Y010800D02*
X016587Y011300D01*
X013163Y010171D02*
X013088Y010246D01*
X012788Y009946D01*
X012712Y010021D01*
X012712Y010171D01*
X012788Y010246D01*
X013088Y010246D01*
X013163Y010171D02*
X013163Y010021D01*
X013088Y009946D01*
X012788Y009946D01*
X012712Y009786D02*
X012712Y009485D01*
X012712Y009636D02*
X013163Y009636D01*
X013013Y009485D01*
X013088Y009325D02*
X012938Y009325D01*
X012863Y009250D01*
X012863Y009025D01*
X012712Y009025D02*
X013163Y009025D01*
X013163Y009250D01*
X013088Y009325D01*
X012863Y009175D02*
X012712Y009325D01*
X012300Y008882D02*
X012075Y008882D01*
X012000Y008807D01*
X012000Y008506D01*
X012075Y008431D01*
X012300Y008431D01*
X012300Y008882D01*
X011840Y008732D02*
X011690Y008882D01*
X011690Y008431D01*
X011840Y008431D02*
X011540Y008431D01*
X012038Y008025D02*
X012189Y007950D01*
X012339Y007800D01*
X012113Y007800D01*
X012038Y007725D01*
X012038Y007650D01*
X012113Y007575D01*
X012264Y007575D01*
X012339Y007650D01*
X012339Y007800D01*
X012499Y007650D02*
X012499Y008025D01*
X012799Y008025D02*
X012799Y007650D01*
X012724Y007575D01*
X012574Y007575D01*
X012499Y007650D01*
X016012Y006486D02*
X016012Y006185D01*
X016238Y006025D02*
X016163Y005950D01*
X016163Y005725D01*
X016012Y005725D02*
X016463Y005725D01*
X016463Y005950D01*
X016388Y006025D01*
X016238Y006025D01*
X016313Y006185D02*
X016463Y006336D01*
X016012Y006336D01*
X016798Y006150D02*
X017010Y005938D01*
X017010Y006362D01*
X017063Y006415D01*
X017169Y006415D01*
X017275Y006309D01*
X017275Y006203D01*
X017442Y006143D02*
X017176Y005878D01*
X017176Y005771D01*
X017282Y005665D01*
X017389Y005665D01*
X017654Y005931D01*
X020748Y006285D02*
X020748Y006436D01*
X020973Y006586D02*
X020973Y006285D01*
X022373Y006400D02*
X022673Y006400D01*
X022448Y006625D01*
X022448Y006175D01*
X023133Y006175D02*
X023133Y006625D01*
X022908Y006625D01*
X022833Y006550D01*
X022833Y006400D01*
X022908Y006325D01*
X023133Y006325D01*
X021573Y005375D02*
X021273Y005375D01*
X013362Y003125D02*
X013362Y002675D01*
X013062Y002675D01*
X012902Y002675D02*
X012677Y002675D01*
X012602Y002750D01*
X012602Y003050D01*
X012677Y003125D01*
X012902Y003125D01*
X012902Y002675D01*
X012442Y002675D02*
X012141Y002975D01*
X012141Y003050D01*
X012216Y003125D01*
X012367Y003125D01*
X012442Y003050D01*
X011762Y003125D02*
X011537Y003125D01*
X011462Y003050D01*
X011462Y002900D01*
X011537Y002825D01*
X011762Y002825D01*
X011612Y002825D02*
X011462Y002675D01*
X011302Y002675D02*
X011002Y003125D01*
X011302Y003125D02*
X011002Y002675D01*
X011762Y002675D02*
X011762Y003125D01*
X012141Y002675D02*
X012442Y002675D01*
X012292Y000825D02*
X012292Y000375D01*
X012442Y000375D02*
X012141Y000375D01*
X011712Y000375D02*
X011712Y000825D01*
X011862Y000825D02*
X011562Y000825D01*
X011402Y000825D02*
X011102Y000375D01*
X011402Y000375D02*
X011102Y000825D01*
X012292Y000825D02*
X012442Y000675D01*
X012602Y000750D02*
X012677Y000825D01*
X012902Y000825D01*
X012902Y000375D01*
X012677Y000375D01*
X012602Y000450D01*
X012602Y000750D01*
X013362Y000825D02*
X013362Y000375D01*
X013062Y000375D01*
X004977Y003740D02*
X004977Y006300D01*
X004977Y008070D01*
X000447Y008070D01*
X000447Y006300D01*
X000447Y003740D01*
X004977Y003740D01*
X005198Y003925D02*
X005198Y004225D01*
X005273Y004300D01*
X005423Y004300D01*
X005498Y004225D01*
X005498Y004150D01*
X005423Y004075D01*
X005198Y004075D01*
X005198Y003925D02*
X005273Y003850D01*
X005423Y003850D01*
X005498Y003925D01*
X005658Y003925D02*
X005658Y004300D01*
X005958Y004300D02*
X005958Y003925D01*
X005883Y003850D01*
X005733Y003850D01*
X005658Y003925D01*
X005696Y004775D02*
X005847Y004775D01*
X005922Y004850D01*
X005922Y004925D01*
X005847Y005000D01*
X005696Y005000D01*
X005621Y004925D01*
X005621Y004850D01*
X005696Y004775D01*
X006082Y004775D02*
X006382Y004775D01*
X006232Y004775D02*
X006232Y005225D01*
X006382Y005075D01*
X006542Y005150D02*
X006617Y005225D01*
X006767Y005225D01*
X006842Y005150D01*
X006842Y004850D01*
X006767Y004775D01*
X006617Y004775D01*
X006542Y004850D01*
X005922Y005075D02*
X005922Y005150D01*
X005847Y005225D01*
X005696Y005225D01*
X005621Y005150D01*
X005621Y005075D01*
X005696Y005000D01*
X005847Y005000D02*
X005922Y005075D01*
X001162Y008250D02*
X001087Y008175D01*
X001012Y008175D01*
X000937Y008250D01*
X000937Y008625D01*
X001012Y008625D02*
X000862Y008625D01*
X000702Y008475D02*
X000552Y008625D01*
X000552Y008175D01*
X000702Y008175D02*
X000402Y008175D01*
X007982Y008325D02*
X008282Y008325D01*
X008132Y008325D02*
X008132Y008775D01*
X008282Y008625D01*
X008742Y008775D02*
X008742Y008325D01*
X008442Y008325D01*
X009973Y009225D02*
X010273Y009225D01*
X010123Y009225D02*
X010123Y009675D01*
X010273Y009525D01*
X010433Y009675D02*
X010733Y009675D01*
X010733Y009225D01*
X010733Y009450D02*
X010583Y009450D01*
X009172Y009920D02*
X012203Y009920D01*
X012203Y011480D01*
X009172Y011480D01*
X009172Y009920D01*
X008958Y009960D02*
X008733Y009960D01*
X008658Y009885D01*
X008658Y009735D01*
X008733Y009660D01*
X008958Y009660D01*
X008498Y009735D02*
X008348Y009810D01*
X008273Y009810D01*
X008198Y009735D01*
X008198Y009585D01*
X008273Y009510D01*
X008423Y009510D01*
X008498Y009585D01*
X008498Y009735D02*
X008498Y009960D01*
X008198Y009960D01*
X008958Y009960D02*
X008958Y009510D01*
X007533Y010900D02*
X007458Y010825D01*
X007308Y010825D01*
X007233Y010900D01*
X007233Y011275D01*
X007073Y011200D02*
X007073Y011125D01*
X006998Y011050D01*
X006848Y011050D01*
X006773Y010975D01*
X006773Y010900D01*
X006848Y010825D01*
X006998Y010825D01*
X007073Y010900D01*
X007073Y010975D01*
X006998Y011050D01*
X006848Y011050D02*
X006773Y011125D01*
X006773Y011200D01*
X006848Y011275D01*
X006998Y011275D01*
X007073Y011200D01*
X007533Y011275D02*
X007533Y010900D01*
X015848Y009925D02*
X015848Y009850D01*
X016148Y009550D01*
X015848Y009550D01*
X016308Y009925D02*
X016458Y009775D01*
X016458Y009550D01*
X016458Y009775D02*
X016608Y009925D01*
X016608Y010000D01*
X016308Y010000D02*
X016308Y009925D01*
X016148Y009925D02*
X016073Y010000D01*
X015923Y010000D01*
X015848Y009925D01*
X016698Y009075D02*
X016848Y009075D01*
X016923Y009000D01*
X016923Y008925D01*
X016848Y008850D01*
X016623Y008850D01*
X016623Y008700D02*
X016623Y009000D01*
X016698Y009075D01*
X017083Y009000D02*
X017158Y009075D01*
X017308Y009075D01*
X017383Y009000D01*
X017383Y008700D01*
X017308Y008625D01*
X017158Y008625D01*
X017083Y008700D01*
X016923Y008700D02*
X016848Y008625D01*
X016698Y008625D01*
X016623Y008700D01*
X030158Y007910D02*
X030158Y007804D01*
X030264Y007698D01*
X030370Y007698D01*
X030483Y007585D02*
X030749Y007850D01*
X030583Y007910D02*
X030583Y008016D01*
X030476Y008122D01*
X030370Y008122D01*
X030317Y008069D01*
X030317Y007963D01*
X030211Y007963D01*
X030158Y007910D01*
X030317Y007963D02*
X030370Y007910D01*
X030696Y007372D02*
X030961Y007638D01*
X030483Y007585D02*
X030483Y007478D01*
X030590Y007372D01*
X030696Y007372D01*
X031623Y007375D02*
X031698Y007450D01*
X031923Y007450D01*
X031923Y007300D01*
X031848Y007225D01*
X031698Y007225D01*
X031623Y007300D01*
X031623Y007375D01*
X031773Y007600D02*
X031923Y007450D01*
X031773Y007600D02*
X031623Y007675D01*
X032083Y007600D02*
X032158Y007675D01*
X032308Y007675D01*
X032383Y007600D01*
X032383Y007300D01*
X032308Y007225D01*
X032158Y007225D01*
X032083Y007300D01*
X032752Y007225D02*
X033052Y007225D01*
X032752Y007525D01*
X032752Y007600D01*
X032827Y007675D01*
X032977Y007675D01*
X033052Y007600D01*
X033212Y007600D02*
X033287Y007675D01*
X033437Y007675D01*
X033512Y007600D01*
X033512Y007300D01*
X033437Y007225D01*
X033287Y007225D01*
X033212Y007300D01*
X035223Y007375D02*
X035523Y007375D01*
X035373Y007375D02*
X035373Y007825D01*
X035523Y007675D01*
X035683Y007825D02*
X035683Y007450D01*
X035758Y007375D01*
X035908Y007375D01*
X035983Y007450D01*
X035983Y007825D01*
X036562Y007925D02*
X036862Y007925D01*
X036712Y007925D02*
X036712Y008375D01*
X036862Y008225D01*
X038852Y007825D02*
X038852Y007750D01*
X039152Y007450D01*
X039152Y007375D01*
X039312Y007450D02*
X039312Y007825D01*
X039152Y007825D02*
X038852Y007825D01*
X039612Y007825D02*
X039612Y007450D01*
X039537Y007375D01*
X039387Y007375D01*
X039312Y007450D01*
X036483Y009025D02*
X036483Y009475D01*
X036258Y009475D01*
X036183Y009400D01*
X036183Y009250D01*
X036258Y009175D01*
X036483Y009175D01*
X036023Y009100D02*
X035948Y009025D01*
X035798Y009025D01*
X035723Y009100D01*
X035723Y009175D01*
X035798Y009250D01*
X035873Y009250D01*
X035798Y009250D02*
X035723Y009325D01*
X035723Y009400D01*
X035798Y009475D01*
X035948Y009475D01*
X036023Y009400D01*
X033862Y009300D02*
X033787Y009375D01*
X033637Y009375D01*
X033562Y009300D01*
X033562Y009225D01*
X033637Y009150D01*
X033562Y009075D01*
X033562Y009000D01*
X033637Y008925D01*
X033787Y008925D01*
X033862Y009000D01*
X033712Y009150D02*
X033637Y009150D01*
X033537Y009750D02*
X033612Y009825D01*
X033612Y010125D01*
X033537Y010200D01*
X033387Y010200D01*
X033312Y010125D01*
X033312Y009825D01*
X033387Y009750D01*
X033537Y009750D01*
X033462Y009900D02*
X033312Y009750D01*
X033152Y009750D02*
X032852Y009750D01*
X033002Y009750D02*
X033002Y010200D01*
X033152Y010050D01*
X035012Y010275D02*
X035463Y010275D01*
X035463Y010500D01*
X035388Y010575D01*
X035238Y010575D01*
X035163Y010500D01*
X035163Y010275D01*
X035163Y010425D02*
X035012Y010575D01*
X035012Y010735D02*
X035012Y011036D01*
X035012Y010886D02*
X035463Y010886D01*
X035313Y010735D01*
X035238Y011196D02*
X035238Y011496D01*
X035463Y011421D02*
X035012Y011421D01*
X035238Y011196D02*
X035463Y011421D01*
X033083Y005675D02*
X032858Y005675D01*
X032783Y005600D01*
X032783Y005450D01*
X032858Y005375D01*
X033083Y005375D01*
X032933Y005375D02*
X032783Y005225D01*
X032623Y005300D02*
X032548Y005225D01*
X032398Y005225D01*
X032323Y005300D01*
X032323Y005375D01*
X032398Y005450D01*
X032623Y005450D01*
X032623Y005300D01*
X032623Y005450D02*
X032473Y005600D01*
X032323Y005675D01*
X033083Y005675D02*
X033083Y005225D01*
X033133Y004375D02*
X032908Y004375D01*
X032833Y004300D01*
X032833Y004150D01*
X032908Y004075D01*
X033133Y004075D01*
X032983Y004075D02*
X032833Y003925D01*
X032673Y004000D02*
X032598Y003925D01*
X032448Y003925D01*
X032373Y004000D01*
X032373Y004300D01*
X032448Y004375D01*
X032598Y004375D01*
X032673Y004300D01*
X032673Y004225D01*
X032598Y004150D01*
X032373Y004150D01*
X033133Y003925D02*
X033133Y004375D01*
X035423Y003500D02*
X035498Y003575D01*
X035648Y003575D01*
X035723Y003500D01*
X035883Y003500D02*
X035883Y003350D01*
X035958Y003275D01*
X036183Y003275D01*
X036033Y003275D02*
X035883Y003125D01*
X035723Y003125D02*
X035423Y003425D01*
X035423Y003500D01*
X035883Y003500D02*
X035958Y003575D01*
X036183Y003575D01*
X036183Y003125D01*
X035723Y003125D02*
X035423Y003125D01*
X036141Y003850D02*
X036216Y003775D01*
X036367Y003775D01*
X036442Y003850D01*
X036442Y004000D01*
X036216Y004000D01*
X036141Y003925D01*
X036141Y003850D01*
X036292Y004150D02*
X036442Y004000D01*
X036292Y004150D02*
X036141Y004225D01*
X036752Y004225D02*
X036752Y003775D01*
X036902Y003775D02*
X036602Y003775D01*
X037062Y003850D02*
X037137Y003775D01*
X037287Y003775D01*
X037362Y003850D01*
X037362Y004150D01*
X037287Y004225D01*
X037137Y004225D01*
X037062Y004150D01*
X036902Y004075D02*
X036752Y004225D01*
X037708Y004351D02*
X037708Y004036D01*
X037710Y004017D01*
X037715Y003998D01*
X037723Y003981D01*
X037734Y003965D01*
X037748Y003951D01*
X037763Y003940D01*
X037781Y003932D01*
X037800Y003927D01*
X037819Y003925D01*
X037819Y003924D02*
X038856Y003924D01*
X038856Y003925D02*
X038875Y003927D01*
X038894Y003932D01*
X038911Y003940D01*
X038927Y003951D01*
X038941Y003965D01*
X038952Y003980D01*
X038960Y003998D01*
X038965Y004017D01*
X038967Y004036D01*
X038967Y004388D01*
X038965Y004405D01*
X038960Y004422D01*
X038952Y004437D01*
X038941Y004450D01*
X038928Y004461D01*
X038913Y004469D01*
X038896Y004474D01*
X038879Y004476D01*
X037832Y004476D01*
X037832Y004475D02*
X037813Y004473D01*
X037794Y004469D01*
X037776Y004461D01*
X037759Y004451D01*
X037744Y004439D01*
X037732Y004424D01*
X037722Y004407D01*
X037714Y004389D01*
X037710Y004370D01*
X037708Y004351D01*
X037826Y004239D02*
X037826Y004161D01*
X037828Y004141D01*
X037833Y004121D01*
X037842Y004102D01*
X037854Y004085D01*
X037868Y004071D01*
X037885Y004059D01*
X037904Y004050D01*
X037924Y004045D01*
X037944Y004043D01*
X038731Y004043D01*
X038749Y004041D01*
X038766Y004042D01*
X038783Y004046D01*
X038799Y004053D01*
X038814Y004063D01*
X038826Y004075D01*
X038836Y004089D01*
X038844Y004105D01*
X038849Y004121D01*
X038849Y004239D01*
X038851Y004257D01*
X038850Y004274D01*
X038846Y004291D01*
X038839Y004307D01*
X038829Y004322D01*
X038817Y004334D01*
X038803Y004344D01*
X038787Y004352D01*
X038771Y004357D01*
X037944Y004357D01*
X037923Y004355D01*
X037904Y004350D01*
X037885Y004341D01*
X037868Y004329D01*
X037854Y004315D01*
X037842Y004298D01*
X037833Y004279D01*
X037828Y004260D01*
X037826Y004239D01*
X038857Y004834D02*
X038932Y004759D01*
X039083Y004759D01*
X039158Y004834D01*
X039007Y004984D02*
X038932Y004984D01*
X038857Y004909D01*
X038857Y004834D01*
X038932Y004984D02*
X038857Y005059D01*
X038857Y005134D01*
X038932Y005209D01*
X039083Y005209D01*
X039158Y005134D01*
X039318Y005134D02*
X039318Y005209D01*
X039318Y005134D02*
X039468Y004984D01*
X039468Y004759D01*
X039468Y004984D02*
X039618Y005134D01*
X039618Y005209D01*
X031083Y003325D02*
X031083Y002875D01*
X031083Y003025D02*
X030858Y003025D01*
X030783Y003100D01*
X030783Y003250D01*
X030858Y003325D01*
X031083Y003325D01*
X030623Y003325D02*
X030323Y003325D01*
X030323Y003250D01*
X030623Y002950D01*
X030623Y002875D01*
X030783Y002875D02*
X030933Y003025D01*
X032012Y000775D02*
X032312Y000775D01*
D13*
X012266Y000979D03*
X012266Y001521D03*
X012266Y001979D03*
X012266Y002521D03*
D14*
X012419Y002250D03*
X012419Y001250D03*
D15*
X034013Y007735D02*
X034033Y007668D01*
X033975Y007648D01*
X033919Y007625D01*
X033864Y007598D01*
X033810Y007568D01*
X033759Y007534D01*
X033710Y007498D01*
X033663Y007459D01*
X033618Y007417D01*
X033577Y007372D01*
X033537Y007325D01*
X033501Y007276D01*
X033468Y007225D01*
X033438Y007171D01*
X033411Y007116D01*
X033388Y007060D01*
X033368Y007002D01*
X033352Y006943D01*
X033339Y006883D01*
X033329Y006823D01*
X033324Y006762D01*
X033322Y006701D01*
X033324Y006639D01*
X033329Y006578D01*
X033338Y006518D01*
X033351Y006458D01*
X033368Y006399D01*
X033387Y006341D01*
X033411Y006285D01*
X033438Y006230D01*
X033467Y006176D01*
X033501Y006125D01*
X033537Y006076D01*
X033482Y006033D01*
X033482Y006032D01*
X033443Y006085D01*
X033408Y006140D01*
X033376Y006197D01*
X033347Y006256D01*
X033322Y006316D01*
X033301Y006378D01*
X033283Y006441D01*
X033270Y006505D01*
X033260Y006570D01*
X033254Y006635D01*
X033252Y006700D01*
X033254Y006766D01*
X033260Y006831D01*
X033270Y006896D01*
X033284Y006960D01*
X033301Y007023D01*
X033322Y007085D01*
X033347Y007145D01*
X033376Y007204D01*
X033408Y007261D01*
X033444Y007316D01*
X033482Y007369D01*
X033524Y007419D01*
X033569Y007466D01*
X033617Y007511D01*
X033667Y007553D01*
X033720Y007592D01*
X033774Y007628D01*
X033831Y007660D01*
X033890Y007689D01*
X033951Y007714D01*
X034012Y007735D01*
X034015Y007727D01*
X033954Y007705D01*
X033894Y007680D01*
X033836Y007652D01*
X033779Y007620D01*
X033725Y007585D01*
X033672Y007546D01*
X033623Y007505D01*
X033575Y007460D01*
X033531Y007413D01*
X033489Y007363D01*
X033451Y007311D01*
X033416Y007256D01*
X033384Y007200D01*
X033356Y007141D01*
X033331Y007081D01*
X033310Y007020D01*
X033292Y006958D01*
X033279Y006894D01*
X033269Y006830D01*
X033263Y006765D01*
X033261Y006701D01*
X033263Y006636D01*
X033269Y006571D01*
X033278Y006507D01*
X033292Y006443D01*
X033309Y006381D01*
X033330Y006320D01*
X033355Y006260D01*
X033384Y006201D01*
X033415Y006145D01*
X033451Y006090D01*
X033489Y006038D01*
X033496Y006043D01*
X033458Y006095D01*
X033423Y006149D01*
X033392Y006205D01*
X033363Y006263D01*
X033339Y006323D01*
X033318Y006384D01*
X033301Y006446D01*
X033287Y006509D01*
X033278Y006572D01*
X033272Y006636D01*
X033270Y006701D01*
X033272Y006765D01*
X033278Y006829D01*
X033288Y006892D01*
X033301Y006955D01*
X033318Y007017D01*
X033339Y007078D01*
X033364Y007138D01*
X033392Y007195D01*
X033424Y007252D01*
X033458Y007306D01*
X033497Y007357D01*
X033538Y007407D01*
X033582Y007454D01*
X033629Y007498D01*
X033678Y007539D01*
X033730Y007577D01*
X033784Y007612D01*
X033840Y007644D01*
X033897Y007672D01*
X033957Y007697D01*
X034018Y007718D01*
X034020Y007709D01*
X033960Y007689D01*
X033901Y007664D01*
X033844Y007636D01*
X033788Y007605D01*
X033735Y007570D01*
X033683Y007532D01*
X033635Y007491D01*
X033588Y007447D01*
X033544Y007401D01*
X033504Y007352D01*
X033466Y007300D01*
X033431Y007247D01*
X033400Y007191D01*
X033372Y007134D01*
X033348Y007075D01*
X033327Y007015D01*
X033310Y006953D01*
X033296Y006891D01*
X033287Y006828D01*
X033281Y006764D01*
X033279Y006701D01*
X033281Y006637D01*
X033287Y006573D01*
X033296Y006510D01*
X033310Y006448D01*
X033327Y006386D01*
X033347Y006326D01*
X033372Y006267D01*
X033399Y006210D01*
X033431Y006154D01*
X033465Y006100D01*
X033503Y006049D01*
X033510Y006055D01*
X033473Y006106D01*
X033438Y006159D01*
X033407Y006214D01*
X033380Y006271D01*
X033356Y006329D01*
X033335Y006389D01*
X033318Y006450D01*
X033305Y006512D01*
X033296Y006574D01*
X033290Y006637D01*
X033288Y006701D01*
X033290Y006764D01*
X033296Y006827D01*
X033305Y006889D01*
X033318Y006951D01*
X033335Y007012D01*
X033356Y007072D01*
X033380Y007130D01*
X033408Y007187D01*
X033439Y007242D01*
X033473Y007295D01*
X033511Y007346D01*
X033551Y007395D01*
X033594Y007441D01*
X033640Y007484D01*
X033689Y007525D01*
X033740Y007562D01*
X033793Y007597D01*
X033848Y007628D01*
X033905Y007656D01*
X033963Y007680D01*
X034023Y007701D01*
X034026Y007692D01*
X033966Y007672D01*
X033908Y007648D01*
X033852Y007620D01*
X033798Y007589D01*
X033745Y007555D01*
X033695Y007518D01*
X033646Y007478D01*
X033601Y007435D01*
X033558Y007389D01*
X033518Y007341D01*
X033481Y007290D01*
X033447Y007238D01*
X033416Y007183D01*
X033388Y007127D01*
X033365Y007069D01*
X033344Y007009D01*
X033327Y006949D01*
X033314Y006888D01*
X033305Y006826D01*
X033299Y006763D01*
X033297Y006701D01*
X033299Y006638D01*
X033304Y006575D01*
X033314Y006513D01*
X033327Y006452D01*
X033344Y006392D01*
X033364Y006332D01*
X033388Y006274D01*
X033415Y006218D01*
X033446Y006163D01*
X033480Y006111D01*
X033517Y006060D01*
X033524Y006066D01*
X033487Y006116D01*
X033454Y006168D01*
X033423Y006222D01*
X033396Y006278D01*
X033373Y006336D01*
X033352Y006394D01*
X033336Y006454D01*
X033323Y006515D01*
X033313Y006577D01*
X033308Y006638D01*
X033306Y006701D01*
X033308Y006763D01*
X033314Y006825D01*
X033323Y006886D01*
X033336Y006947D01*
X033353Y007007D01*
X033373Y007065D01*
X033397Y007123D01*
X033424Y007179D01*
X033454Y007233D01*
X033488Y007285D01*
X033525Y007335D01*
X033565Y007383D01*
X033607Y007428D01*
X033652Y007471D01*
X033700Y007511D01*
X033750Y007548D01*
X033802Y007581D01*
X033856Y007612D01*
X033912Y007639D01*
X033970Y007663D01*
X034028Y007684D01*
X034031Y007675D01*
X033973Y007655D01*
X033916Y007631D01*
X033861Y007604D01*
X033807Y007574D01*
X033755Y007540D01*
X033706Y007504D01*
X033658Y007464D01*
X033614Y007422D01*
X033571Y007377D01*
X033532Y007330D01*
X033495Y007280D01*
X033462Y007228D01*
X033432Y007175D01*
X033405Y007119D01*
X033381Y007062D01*
X033361Y007004D01*
X033345Y006945D01*
X033332Y006884D01*
X033322Y006823D01*
X033317Y006762D01*
X033315Y006701D01*
X033317Y006639D01*
X033322Y006578D01*
X033332Y006517D01*
X033344Y006456D01*
X033361Y006397D01*
X033381Y006339D01*
X033404Y006282D01*
X033431Y006226D01*
X033462Y006173D01*
X033495Y006121D01*
X033531Y006071D01*
X035192Y006033D02*
X035137Y006076D01*
X035173Y006125D01*
X035207Y006176D01*
X035236Y006230D01*
X035263Y006285D01*
X035287Y006341D01*
X035306Y006399D01*
X035323Y006458D01*
X035336Y006518D01*
X035345Y006578D01*
X035350Y006639D01*
X035352Y006701D01*
X035350Y006762D01*
X035345Y006823D01*
X035335Y006883D01*
X035322Y006943D01*
X035306Y007002D01*
X035286Y007060D01*
X035263Y007116D01*
X035236Y007171D01*
X035206Y007225D01*
X035173Y007276D01*
X035137Y007325D01*
X035097Y007372D01*
X035055Y007417D01*
X035011Y007459D01*
X034964Y007498D01*
X034915Y007534D01*
X034863Y007568D01*
X034810Y007598D01*
X034755Y007625D01*
X034699Y007648D01*
X034641Y007668D01*
X034661Y007735D01*
X034662Y007735D01*
X034723Y007714D01*
X034784Y007689D01*
X034843Y007660D01*
X034900Y007628D01*
X034954Y007592D01*
X035007Y007553D01*
X035057Y007511D01*
X035105Y007466D01*
X035150Y007419D01*
X035192Y007369D01*
X035230Y007316D01*
X035266Y007261D01*
X035298Y007204D01*
X035327Y007145D01*
X035352Y007085D01*
X035373Y007023D01*
X035390Y006960D01*
X035404Y006896D01*
X035414Y006831D01*
X035420Y006766D01*
X035422Y006701D01*
X035420Y006635D01*
X035414Y006570D01*
X035404Y006505D01*
X035391Y006441D01*
X035373Y006378D01*
X035352Y006316D01*
X035327Y006256D01*
X035298Y006197D01*
X035266Y006140D01*
X035231Y006085D01*
X035192Y006032D01*
X035185Y006038D01*
X035224Y006090D01*
X035259Y006145D01*
X035290Y006201D01*
X035319Y006260D01*
X035344Y006320D01*
X035365Y006381D01*
X035382Y006443D01*
X035396Y006507D01*
X035405Y006571D01*
X035411Y006636D01*
X035413Y006701D01*
X035411Y006765D01*
X035405Y006830D01*
X035395Y006894D01*
X035382Y006958D01*
X035364Y007020D01*
X035343Y007081D01*
X035318Y007141D01*
X035290Y007200D01*
X035258Y007256D01*
X035223Y007311D01*
X035184Y007363D01*
X035143Y007413D01*
X035099Y007460D01*
X035051Y007505D01*
X035002Y007546D01*
X034949Y007585D01*
X034895Y007620D01*
X034838Y007652D01*
X034780Y007680D01*
X034720Y007705D01*
X034659Y007727D01*
X034656Y007718D01*
X034717Y007697D01*
X034777Y007672D01*
X034834Y007644D01*
X034890Y007612D01*
X034944Y007577D01*
X034996Y007539D01*
X035045Y007498D01*
X035092Y007454D01*
X035136Y007407D01*
X035177Y007357D01*
X035216Y007306D01*
X035250Y007252D01*
X035282Y007195D01*
X035310Y007138D01*
X035335Y007078D01*
X035356Y007017D01*
X035373Y006955D01*
X035386Y006892D01*
X035396Y006829D01*
X035402Y006765D01*
X035404Y006701D01*
X035402Y006636D01*
X035396Y006572D01*
X035387Y006509D01*
X035373Y006446D01*
X035356Y006384D01*
X035335Y006323D01*
X035311Y006263D01*
X035282Y006205D01*
X035251Y006149D01*
X035216Y006095D01*
X035178Y006043D01*
X035171Y006049D01*
X035209Y006100D01*
X035243Y006154D01*
X035275Y006210D01*
X035302Y006267D01*
X035327Y006326D01*
X035347Y006386D01*
X035365Y006448D01*
X035378Y006510D01*
X035387Y006573D01*
X035393Y006637D01*
X035395Y006701D01*
X035393Y006764D01*
X035387Y006828D01*
X035378Y006891D01*
X035364Y006953D01*
X035347Y007015D01*
X035326Y007075D01*
X035302Y007134D01*
X035274Y007191D01*
X035243Y007247D01*
X035208Y007300D01*
X035170Y007352D01*
X035130Y007401D01*
X035086Y007447D01*
X035039Y007491D01*
X034991Y007532D01*
X034939Y007570D01*
X034886Y007605D01*
X034830Y007636D01*
X034773Y007664D01*
X034714Y007689D01*
X034654Y007709D01*
X034651Y007701D01*
X034711Y007680D01*
X034769Y007656D01*
X034826Y007628D01*
X034881Y007597D01*
X034934Y007562D01*
X034985Y007525D01*
X035034Y007484D01*
X035080Y007441D01*
X035123Y007395D01*
X035163Y007346D01*
X035201Y007295D01*
X035235Y007242D01*
X035266Y007187D01*
X035294Y007130D01*
X035318Y007072D01*
X035339Y007012D01*
X035356Y006951D01*
X035369Y006889D01*
X035378Y006827D01*
X035384Y006764D01*
X035386Y006701D01*
X035384Y006637D01*
X035378Y006574D01*
X035369Y006512D01*
X035356Y006450D01*
X035339Y006389D01*
X035318Y006329D01*
X035294Y006271D01*
X035267Y006214D01*
X035236Y006159D01*
X035201Y006106D01*
X035164Y006055D01*
X035157Y006060D01*
X035194Y006111D01*
X035228Y006163D01*
X035259Y006218D01*
X035286Y006274D01*
X035310Y006332D01*
X035330Y006392D01*
X035347Y006452D01*
X035360Y006513D01*
X035370Y006575D01*
X035375Y006638D01*
X035377Y006701D01*
X035375Y006763D01*
X035369Y006826D01*
X035360Y006888D01*
X035347Y006949D01*
X035330Y007009D01*
X035309Y007069D01*
X035286Y007127D01*
X035258Y007183D01*
X035227Y007238D01*
X035193Y007290D01*
X035156Y007341D01*
X035116Y007389D01*
X035073Y007435D01*
X035028Y007478D01*
X034979Y007518D01*
X034929Y007555D01*
X034876Y007589D01*
X034822Y007620D01*
X034765Y007648D01*
X034708Y007672D01*
X034648Y007692D01*
X034646Y007684D01*
X034704Y007663D01*
X034762Y007639D01*
X034818Y007612D01*
X034872Y007581D01*
X034924Y007548D01*
X034974Y007511D01*
X035022Y007471D01*
X035067Y007428D01*
X035109Y007383D01*
X035149Y007335D01*
X035186Y007285D01*
X035220Y007233D01*
X035250Y007179D01*
X035277Y007123D01*
X035301Y007065D01*
X035321Y007007D01*
X035338Y006947D01*
X035351Y006886D01*
X035360Y006825D01*
X035366Y006763D01*
X035368Y006701D01*
X035366Y006638D01*
X035361Y006577D01*
X035351Y006515D01*
X035338Y006454D01*
X035322Y006394D01*
X035301Y006336D01*
X035278Y006278D01*
X035251Y006222D01*
X035220Y006168D01*
X035187Y006116D01*
X035150Y006066D01*
X035143Y006071D01*
X035179Y006121D01*
X035213Y006173D01*
X035243Y006226D01*
X035270Y006282D01*
X035293Y006339D01*
X035313Y006397D01*
X035330Y006456D01*
X035342Y006517D01*
X035352Y006578D01*
X035357Y006639D01*
X035359Y006701D01*
X035357Y006762D01*
X035352Y006824D01*
X035342Y006884D01*
X035329Y006945D01*
X035313Y007004D01*
X035293Y007062D01*
X035269Y007119D01*
X035242Y007175D01*
X035212Y007228D01*
X035178Y007280D01*
X035142Y007330D01*
X035103Y007377D01*
X035060Y007422D01*
X035016Y007464D01*
X034968Y007504D01*
X034919Y007540D01*
X034867Y007574D01*
X034813Y007604D01*
X034758Y007631D01*
X034701Y007655D01*
X034643Y007675D01*
D16*
X028226Y003473D02*
X028228Y003493D01*
X028233Y003513D01*
X028243Y003531D01*
X028255Y003548D01*
X028270Y003562D01*
X028288Y003572D01*
X028307Y003580D01*
X028327Y003584D01*
X028347Y003584D01*
X028367Y003580D01*
X028386Y003572D01*
X028404Y003562D01*
X028419Y003548D01*
X028431Y003531D01*
X028441Y003513D01*
X028446Y003493D01*
X028448Y003473D01*
X028446Y003453D01*
X028441Y003433D01*
X028431Y003415D01*
X028419Y003398D01*
X028404Y003384D01*
X028386Y003374D01*
X028367Y003366D01*
X028347Y003362D01*
X028327Y003362D01*
X028307Y003366D01*
X028288Y003374D01*
X028270Y003384D01*
X028255Y003398D01*
X028243Y003415D01*
X028233Y003433D01*
X028228Y003453D01*
X028226Y003473D01*
D17*
X025113Y008230D03*
X024463Y008669D03*
X026014Y009068D03*
X026994Y009124D03*
X027417Y009081D03*
X027440Y008985D03*
X026753Y008794D03*
D18*
X026876Y008844D03*
X027443Y009009D03*
X026410Y009124D03*
X025638Y009124D03*
X024183Y008230D03*
D19*
X025115Y008233D03*
D20*
X024184Y008233D03*
X025577Y008867D03*
X025795Y008867D03*
X025937Y009018D03*
X025765Y009045D03*
X026115Y008936D03*
X026125Y008893D03*
X026128Y008880D03*
X026349Y008867D03*
X026567Y008867D03*
X026775Y008909D03*
X026762Y008975D03*
X026758Y008992D03*
X026537Y009045D03*
X026316Y009045D03*
X027181Y009157D03*
D21*
X027668Y008824D03*
X025457Y008236D03*
D22*
X025113Y008236D03*
X026998Y009117D03*
D23*
X027004Y009108D03*
X027585Y009220D03*
X027664Y008837D03*
X024968Y008322D03*
X024968Y008319D03*
X024968Y008312D03*
X024968Y008246D03*
X024968Y008243D03*
X024968Y008240D03*
X024968Y008236D03*
X024255Y008306D03*
D24*
X024788Y008306D03*
X024788Y008309D03*
X024788Y008312D03*
X024788Y008319D03*
X024788Y008322D03*
X024788Y008325D03*
X024788Y008329D03*
X024788Y008335D03*
X024788Y008339D03*
X024788Y008342D03*
X024788Y008349D03*
X024788Y008352D03*
X024788Y008355D03*
X024788Y008362D03*
X024788Y008365D03*
X024788Y008368D03*
X024788Y008375D03*
X024788Y008378D03*
X024788Y008381D03*
X024788Y008388D03*
X024788Y008391D03*
X024788Y008395D03*
X024788Y008401D03*
X024788Y008405D03*
X024788Y008408D03*
X024788Y008411D03*
X024788Y008418D03*
X024788Y008421D03*
X024788Y008424D03*
X024788Y008431D03*
X024788Y008434D03*
X024788Y008438D03*
X024788Y008444D03*
X024788Y008448D03*
X024788Y008451D03*
X024788Y008457D03*
X024788Y008461D03*
X024788Y008464D03*
X024788Y008471D03*
X024788Y008474D03*
X024788Y008477D03*
X024788Y008484D03*
X024788Y008487D03*
X024788Y008490D03*
X024788Y008494D03*
X024788Y008500D03*
X024788Y008504D03*
X024788Y008507D03*
X024788Y008514D03*
X024788Y008517D03*
X024788Y008520D03*
X024788Y008527D03*
X024788Y008530D03*
X024788Y008533D03*
X024788Y008540D03*
X024788Y008543D03*
X024788Y008546D03*
X024788Y008553D03*
X024788Y008556D03*
X024788Y008560D03*
X024788Y008566D03*
X024788Y008570D03*
X024788Y008573D03*
X024788Y008576D03*
X024788Y008583D03*
X024788Y008586D03*
X024788Y008589D03*
X024788Y008596D03*
X024788Y008599D03*
X024788Y008603D03*
X024788Y008609D03*
X024788Y008613D03*
X024788Y008616D03*
X024788Y008622D03*
X024788Y008626D03*
X024788Y008629D03*
X024788Y008636D03*
X024788Y008639D03*
X024788Y008642D03*
X024788Y008649D03*
X024788Y008652D03*
X024788Y008655D03*
X024788Y008659D03*
X024788Y008692D03*
X024788Y008695D03*
X024788Y008698D03*
X024788Y008705D03*
X024788Y008708D03*
X024788Y008711D03*
X024788Y008718D03*
X024788Y008721D03*
X024788Y008725D03*
X024788Y008731D03*
X024788Y008735D03*
X024788Y008738D03*
X024788Y008741D03*
X024788Y008748D03*
X024788Y008751D03*
X024788Y008754D03*
X024607Y008589D03*
X024607Y008586D03*
X025316Y008586D03*
X025316Y008583D03*
X025316Y008589D03*
X025316Y008596D03*
X025316Y008599D03*
X025316Y008603D03*
X025316Y008609D03*
X025316Y008613D03*
X025316Y008616D03*
X025316Y008622D03*
X025316Y008626D03*
X025316Y008629D03*
X025316Y008636D03*
X025316Y008639D03*
X025316Y008642D03*
X025320Y008649D03*
X025320Y008652D03*
X025316Y008576D03*
X025316Y008573D03*
X025316Y008570D03*
X025316Y008566D03*
X025316Y008560D03*
X025316Y008556D03*
X025316Y008553D03*
X025316Y008546D03*
X025316Y008543D03*
X025316Y008540D03*
X025316Y008533D03*
X025316Y008530D03*
X025316Y008527D03*
X025316Y008520D03*
X025316Y008517D03*
X025316Y008514D03*
X025316Y008507D03*
X025316Y008504D03*
X025316Y008500D03*
X025316Y008494D03*
X025316Y008490D03*
X025316Y008487D03*
X025316Y008484D03*
X025316Y008477D03*
X025316Y008474D03*
X025316Y008471D03*
X025316Y008464D03*
X025316Y008461D03*
X025316Y008457D03*
X025316Y008451D03*
X025316Y008448D03*
X025316Y008444D03*
X025316Y008438D03*
X025316Y008434D03*
X025316Y008431D03*
X025316Y008424D03*
X025316Y008421D03*
X025316Y008418D03*
X025316Y008411D03*
X025316Y008408D03*
X025316Y008405D03*
X025316Y008401D03*
X025316Y008395D03*
X025316Y008391D03*
X025316Y008388D03*
X025316Y008381D03*
X025316Y008378D03*
X025316Y008375D03*
X025316Y008368D03*
X025316Y008365D03*
X025316Y008362D03*
X025498Y008362D03*
X025498Y008365D03*
X025498Y008368D03*
X025498Y008375D03*
X025498Y008378D03*
X025498Y008381D03*
X025498Y008388D03*
X025498Y008391D03*
X025498Y008395D03*
X025498Y008401D03*
X025498Y008405D03*
X025498Y008408D03*
X025498Y008411D03*
X025498Y008418D03*
X025498Y008421D03*
X025498Y008424D03*
X025498Y008431D03*
X025498Y008434D03*
X025498Y008438D03*
X025498Y008444D03*
X025498Y008448D03*
X025498Y008451D03*
X025498Y008457D03*
X025498Y008461D03*
X025498Y008464D03*
X025498Y008471D03*
X025498Y008474D03*
X025498Y008477D03*
X025498Y008484D03*
X025498Y008487D03*
X025498Y008490D03*
X025498Y008494D03*
X025498Y008500D03*
X025498Y008504D03*
X025498Y008507D03*
X025498Y008514D03*
X025498Y008517D03*
X025498Y008520D03*
X025498Y008527D03*
X025498Y008530D03*
X025498Y008533D03*
X025498Y008540D03*
X025498Y008543D03*
X025498Y008546D03*
X025498Y008553D03*
X025498Y008556D03*
X025498Y008560D03*
X025498Y008566D03*
X025498Y008570D03*
X025498Y008573D03*
X025498Y008576D03*
X025498Y008583D03*
X025498Y008586D03*
X025498Y008589D03*
X025498Y008596D03*
X025498Y008599D03*
X025498Y008603D03*
X025498Y008609D03*
X025498Y008613D03*
X025498Y008616D03*
X025498Y008622D03*
X025498Y008626D03*
X025498Y008629D03*
X025498Y008636D03*
X025498Y008639D03*
X025498Y008642D03*
X025498Y008649D03*
X025498Y008652D03*
X025498Y008655D03*
X025498Y008659D03*
X025498Y008665D03*
X025498Y008355D03*
X025498Y008352D03*
X025498Y008349D03*
X025498Y008342D03*
X025498Y008339D03*
X025498Y008335D03*
X025498Y008329D03*
X025498Y008325D03*
X025138Y008309D03*
X025115Y008253D03*
X024788Y008253D03*
X024788Y008256D03*
X024788Y008259D03*
X024788Y008266D03*
X024788Y008269D03*
X024788Y008273D03*
X024788Y008279D03*
X024788Y008283D03*
X024788Y008286D03*
X024788Y008292D03*
X024788Y008296D03*
X024788Y008299D03*
X024788Y008246D03*
X024788Y008243D03*
X024788Y008240D03*
X024788Y008236D03*
X026966Y008807D03*
X026128Y009104D03*
D25*
X026082Y009051D03*
X026412Y009117D03*
X027171Y009259D03*
X026993Y008844D03*
X024966Y008659D03*
X024966Y008655D03*
X024966Y008652D03*
X024966Y008649D03*
X024966Y008642D03*
X024966Y008639D03*
X024966Y008636D03*
X024966Y008629D03*
X024966Y008626D03*
X024966Y008622D03*
X024966Y008616D03*
X024966Y008613D03*
X024966Y008609D03*
X024966Y008603D03*
X024966Y008599D03*
X024966Y008596D03*
X024966Y008589D03*
X024966Y008586D03*
X024966Y008583D03*
X024966Y008576D03*
X024966Y008573D03*
X024966Y008570D03*
X024966Y008566D03*
X024966Y008560D03*
X024966Y008556D03*
X024966Y008553D03*
X024966Y008546D03*
X024966Y008543D03*
X024966Y008540D03*
X024966Y008533D03*
X024966Y008530D03*
X024966Y008527D03*
X024966Y008520D03*
X024966Y008517D03*
X024966Y008514D03*
X024966Y008507D03*
X024966Y008504D03*
X024966Y008500D03*
X024966Y008494D03*
X024966Y008490D03*
X024966Y008487D03*
X024966Y008484D03*
X024966Y008477D03*
X024966Y008474D03*
X024966Y008471D03*
X024966Y008464D03*
X024966Y008461D03*
X024966Y008457D03*
X024966Y008451D03*
X024966Y008448D03*
X024966Y008444D03*
X024966Y008438D03*
X024966Y008434D03*
X024966Y008431D03*
X024966Y008424D03*
X024966Y008421D03*
X024966Y008418D03*
X024966Y008411D03*
X024966Y008408D03*
X024966Y008405D03*
X024966Y008401D03*
X024966Y008395D03*
X024966Y008391D03*
X024966Y008388D03*
X024966Y008381D03*
X024966Y008378D03*
X024966Y008375D03*
X024966Y008368D03*
X024966Y008365D03*
X024966Y008362D03*
X024966Y008355D03*
X024966Y008352D03*
X024966Y008349D03*
X024966Y008342D03*
X024966Y008339D03*
X024966Y008335D03*
X024966Y008329D03*
X024966Y008325D03*
X024966Y008266D03*
X024966Y008259D03*
X024966Y008256D03*
X024966Y008253D03*
X024610Y008253D03*
X024610Y008256D03*
X024610Y008259D03*
X024610Y008266D03*
X024610Y008269D03*
X024610Y008273D03*
X024610Y008279D03*
X024610Y008283D03*
X024610Y008286D03*
X024610Y008292D03*
X024610Y008296D03*
X024610Y008299D03*
X024610Y008306D03*
X024610Y008309D03*
X024610Y008312D03*
X024610Y008319D03*
X024610Y008322D03*
X024610Y008325D03*
X024610Y008329D03*
X024610Y008335D03*
X024610Y008339D03*
X024610Y008342D03*
X024610Y008349D03*
X024610Y008352D03*
X024610Y008355D03*
X024610Y008362D03*
X024610Y008365D03*
X024610Y008368D03*
X024610Y008375D03*
X024610Y008378D03*
X024610Y008381D03*
X024610Y008388D03*
X024610Y008391D03*
X024610Y008395D03*
X024610Y008401D03*
X024610Y008405D03*
X024610Y008408D03*
X024610Y008411D03*
X024610Y008418D03*
X024610Y008421D03*
X024610Y008424D03*
X024610Y008431D03*
X024610Y008434D03*
X024610Y008438D03*
X024610Y008444D03*
X024610Y008448D03*
X024610Y008451D03*
X024610Y008457D03*
X024610Y008461D03*
X024610Y008464D03*
X024610Y008471D03*
X024610Y008474D03*
X024610Y008477D03*
X024610Y008484D03*
X024610Y008487D03*
X024610Y008490D03*
X024610Y008494D03*
X024610Y008500D03*
X024610Y008504D03*
X024610Y008507D03*
X024610Y008514D03*
X024610Y008517D03*
X024610Y008520D03*
X024610Y008527D03*
X024610Y008530D03*
X024610Y008533D03*
X024610Y008540D03*
X024610Y008543D03*
X024610Y008546D03*
X024610Y008553D03*
X024610Y008556D03*
X024610Y008560D03*
X024610Y008566D03*
X024610Y008570D03*
X024610Y008629D03*
X024610Y008636D03*
X024610Y008639D03*
X024610Y008642D03*
X024438Y008576D03*
X024438Y008573D03*
X024438Y008570D03*
X024438Y008566D03*
X024438Y008560D03*
X024438Y008556D03*
X024438Y008553D03*
X024438Y008546D03*
X024438Y008543D03*
X024438Y008540D03*
X024438Y008533D03*
X024438Y008530D03*
X024438Y008527D03*
X024438Y008520D03*
X024438Y008517D03*
X024438Y008514D03*
X024438Y008507D03*
X024438Y008504D03*
X024438Y008500D03*
X024438Y008494D03*
X024438Y008490D03*
X024438Y008487D03*
X024438Y008484D03*
X024438Y008477D03*
X024438Y008474D03*
X024438Y008471D03*
X024438Y008464D03*
X024438Y008461D03*
X024438Y008457D03*
X024438Y008451D03*
X024438Y008448D03*
X024438Y008444D03*
X024438Y008438D03*
X024438Y008434D03*
X024438Y008431D03*
X024438Y008424D03*
X024438Y008421D03*
X024438Y008418D03*
X024438Y008411D03*
X024438Y008408D03*
X024438Y008405D03*
X024438Y008401D03*
X024438Y008395D03*
X024438Y008391D03*
X024438Y008388D03*
X024438Y008381D03*
X024438Y008378D03*
X024438Y008375D03*
X024438Y008368D03*
X024438Y008365D03*
X024438Y008362D03*
X024438Y008355D03*
X024438Y008352D03*
X024438Y008349D03*
X024438Y008342D03*
X024438Y008339D03*
X024438Y008335D03*
X024438Y008329D03*
X024438Y008325D03*
X024438Y008322D03*
X024438Y008319D03*
X024438Y008312D03*
X024438Y008309D03*
X024438Y008306D03*
X024438Y008299D03*
X024438Y008296D03*
X024438Y008292D03*
X024438Y008286D03*
X024438Y008283D03*
X024438Y008279D03*
X024438Y008273D03*
X024438Y008269D03*
X024438Y008266D03*
X024438Y008259D03*
X024438Y008256D03*
X024438Y008253D03*
X024438Y008246D03*
X024438Y008243D03*
X024438Y008240D03*
X024438Y008236D03*
X024610Y008236D03*
X024610Y008240D03*
X024610Y008243D03*
X024610Y008246D03*
X024267Y008349D03*
X024267Y008352D03*
X024267Y008355D03*
X024267Y008362D03*
X024267Y008365D03*
X024267Y008368D03*
X024267Y008375D03*
X024267Y008378D03*
X024267Y008381D03*
X024267Y008388D03*
X024267Y008391D03*
X024267Y008395D03*
X024267Y008401D03*
X024267Y008405D03*
X024267Y008408D03*
X024267Y008411D03*
X024267Y008418D03*
X024267Y008421D03*
X024267Y008424D03*
X024267Y008431D03*
X024267Y008434D03*
X024267Y008438D03*
X024267Y008444D03*
X024267Y008448D03*
X024267Y008451D03*
X024267Y008457D03*
X024267Y008461D03*
X024267Y008464D03*
X024267Y008471D03*
X024267Y008474D03*
X024267Y008477D03*
X024267Y008484D03*
X024267Y008487D03*
X024267Y008490D03*
X024267Y008494D03*
X024267Y008500D03*
X024267Y008504D03*
X024267Y008507D03*
X024267Y008514D03*
X024267Y008517D03*
X024267Y008520D03*
X024267Y008527D03*
X024267Y008530D03*
X024267Y008533D03*
X024267Y008540D03*
X024108Y008306D03*
D26*
X024107Y008309D03*
X024104Y008319D03*
X024100Y008329D03*
X024100Y008335D03*
X024100Y008339D03*
X024100Y008342D03*
X024100Y008349D03*
X024100Y008352D03*
X024100Y008355D03*
X024186Y008236D03*
X024265Y008325D03*
X024265Y008329D03*
X024265Y008335D03*
X024265Y008339D03*
X024265Y008342D03*
X024265Y008543D03*
X024265Y008546D03*
X024265Y008553D03*
X024265Y008556D03*
X024265Y008560D03*
X024259Y008589D03*
X024107Y008589D03*
X024104Y008583D03*
X024100Y008573D03*
X024100Y008570D03*
X024100Y008566D03*
X024100Y008560D03*
X024100Y008556D03*
X024100Y008553D03*
X025945Y009091D03*
X026084Y009048D03*
X026126Y009108D03*
X026968Y008804D03*
X027585Y009216D03*
D27*
X025443Y008240D03*
D28*
X025113Y008240D03*
X025701Y008794D03*
X025585Y008857D03*
X025579Y008863D03*
X025935Y009015D03*
X025938Y009108D03*
X025754Y009061D03*
X025750Y009065D03*
X025549Y009061D03*
X026321Y009061D03*
X026522Y009065D03*
X026526Y009061D03*
X026562Y008857D03*
X026473Y008794D03*
X026357Y008857D03*
X026354Y008860D03*
X026351Y008863D03*
D29*
X026800Y008857D03*
X027664Y008834D03*
X024463Y008636D03*
X024186Y008240D03*
D30*
X024186Y008286D03*
X024183Y008609D03*
X025437Y008243D03*
D31*
X025113Y008243D03*
X025556Y008913D03*
X025552Y008916D03*
X025552Y008919D03*
X025546Y008946D03*
X025542Y008966D03*
X025539Y008995D03*
X025539Y008999D03*
X025539Y009002D03*
X025539Y009009D03*
X025539Y009012D03*
X025780Y009015D03*
X025783Y009009D03*
X025787Y008999D03*
X025787Y008995D03*
X025790Y008989D03*
X025790Y008985D03*
X025793Y008972D03*
X025800Y008919D03*
X025800Y008916D03*
X025800Y008913D03*
X025800Y008906D03*
X025800Y008903D03*
X026090Y009035D03*
X026123Y009111D03*
X026311Y009012D03*
X026311Y009009D03*
X026311Y009002D03*
X026311Y008999D03*
X026311Y008995D03*
X026315Y008966D03*
X026321Y008933D03*
X026321Y008929D03*
X026324Y008919D03*
X026324Y008916D03*
X026328Y008913D03*
X026569Y008952D03*
X026572Y008919D03*
X026572Y008916D03*
X026572Y008913D03*
X026572Y008906D03*
X026572Y008903D03*
X026562Y008985D03*
X026562Y008989D03*
X026559Y008995D03*
X026559Y008999D03*
X026555Y009009D03*
X026777Y008847D03*
X027001Y008857D03*
X027209Y008801D03*
X027242Y008844D03*
X027641Y008943D03*
X027644Y008929D03*
X027648Y008916D03*
X027648Y008913D03*
X027654Y008886D03*
X027658Y008873D03*
X027658Y008870D03*
X027635Y008972D03*
X027631Y008985D03*
X027628Y008999D03*
X027628Y009002D03*
X027608Y009084D03*
X027598Y009131D03*
X027595Y009144D03*
X027588Y009174D03*
X027585Y009187D03*
X027166Y009243D03*
D32*
X027008Y009091D03*
X026414Y009111D03*
X026133Y009094D03*
X025641Y009111D03*
X026744Y008830D03*
X026470Y008804D03*
X027199Y008814D03*
X025697Y008804D03*
X024186Y008243D03*
D33*
X024183Y008603D03*
X025433Y008246D03*
D34*
X025115Y008246D03*
D35*
X024186Y008246D03*
X025697Y008807D03*
X026130Y009078D03*
X026470Y008807D03*
X026958Y008824D03*
X027202Y008830D03*
D36*
X025428Y008249D03*
X024184Y008302D03*
D37*
X024099Y008358D03*
X024099Y008372D03*
X024099Y008385D03*
X024099Y008398D03*
X024099Y008414D03*
X024099Y008428D03*
X024099Y008441D03*
X024099Y008454D03*
X024099Y008467D03*
X024099Y008480D03*
X024099Y008497D03*
X024099Y008510D03*
X024099Y008523D03*
X024099Y008537D03*
X024099Y008550D03*
X025141Y008550D03*
X025141Y008563D03*
X025141Y008579D03*
X025141Y008593D03*
X025141Y008606D03*
X025141Y008619D03*
X025141Y008632D03*
X025141Y008645D03*
X025141Y008662D03*
X025141Y008537D03*
X025141Y008523D03*
X025141Y008510D03*
X025141Y008497D03*
X025141Y008480D03*
X025141Y008467D03*
X025141Y008454D03*
X025141Y008441D03*
X025141Y008428D03*
X025141Y008414D03*
X025141Y008398D03*
X025141Y008385D03*
X025141Y008372D03*
X025141Y008358D03*
X025141Y008345D03*
X025141Y008332D03*
X025115Y008249D03*
X026791Y008867D03*
D38*
X026745Y008810D03*
X026471Y008797D03*
X025699Y008797D03*
X024966Y008662D03*
X024966Y008645D03*
X024966Y008632D03*
X024966Y008619D03*
X024966Y008606D03*
X024966Y008593D03*
X024966Y008579D03*
X024966Y008563D03*
X024966Y008550D03*
X024966Y008537D03*
X024966Y008523D03*
X024966Y008510D03*
X024966Y008497D03*
X024966Y008480D03*
X024966Y008467D03*
X024966Y008454D03*
X024966Y008441D03*
X024966Y008428D03*
X024966Y008414D03*
X024966Y008398D03*
X024966Y008385D03*
X024966Y008372D03*
X024966Y008358D03*
X024966Y008345D03*
X024966Y008332D03*
X024966Y008263D03*
X024966Y008249D03*
X024610Y008249D03*
X024610Y008263D03*
X024610Y008276D03*
X024610Y008289D03*
X024610Y008302D03*
X024610Y008315D03*
X024610Y008332D03*
X024610Y008345D03*
X024610Y008358D03*
X024610Y008372D03*
X024610Y008385D03*
X024610Y008398D03*
X024610Y008414D03*
X024610Y008428D03*
X024610Y008441D03*
X024610Y008454D03*
X024610Y008467D03*
X024610Y008480D03*
X024610Y008497D03*
X024610Y008510D03*
X024610Y008523D03*
X024610Y008537D03*
X024610Y008550D03*
X024610Y008563D03*
X024610Y008632D03*
X024438Y008563D03*
X024438Y008550D03*
X024438Y008537D03*
X024438Y008523D03*
X024438Y008510D03*
X024438Y008497D03*
X024438Y008480D03*
X024438Y008467D03*
X024438Y008454D03*
X024438Y008441D03*
X024438Y008428D03*
X024438Y008414D03*
X024438Y008398D03*
X024438Y008385D03*
X024438Y008372D03*
X024438Y008358D03*
X024438Y008345D03*
X024438Y008332D03*
X024438Y008315D03*
X024438Y008302D03*
X024438Y008289D03*
X024438Y008276D03*
X024438Y008263D03*
X024438Y008249D03*
X024267Y008358D03*
X024267Y008372D03*
X024267Y008385D03*
X024267Y008398D03*
X024267Y008414D03*
X024267Y008428D03*
X024267Y008441D03*
X024267Y008454D03*
X024267Y008467D03*
X024267Y008480D03*
X024267Y008497D03*
X024267Y008510D03*
X024267Y008523D03*
X024267Y008537D03*
X024108Y008593D03*
X027663Y008840D03*
D39*
X027587Y009223D03*
X025498Y008662D03*
X025498Y008645D03*
X025498Y008632D03*
X025498Y008619D03*
X025498Y008606D03*
X025498Y008593D03*
X025498Y008579D03*
X025498Y008563D03*
X025498Y008550D03*
X025498Y008537D03*
X025498Y008523D03*
X025498Y008510D03*
X025498Y008497D03*
X025498Y008480D03*
X025498Y008467D03*
X025498Y008454D03*
X025498Y008441D03*
X025498Y008428D03*
X025498Y008414D03*
X025498Y008398D03*
X025498Y008385D03*
X025498Y008372D03*
X025498Y008358D03*
X025498Y008345D03*
X025498Y008332D03*
X025316Y008372D03*
X025316Y008385D03*
X025316Y008398D03*
X025316Y008414D03*
X025316Y008428D03*
X025316Y008441D03*
X025316Y008454D03*
X025316Y008467D03*
X025316Y008480D03*
X025316Y008497D03*
X025316Y008510D03*
X025316Y008523D03*
X025316Y008537D03*
X025316Y008550D03*
X025316Y008563D03*
X025316Y008579D03*
X025316Y008593D03*
X025316Y008606D03*
X025316Y008619D03*
X025316Y008632D03*
X025320Y008645D03*
X024788Y008645D03*
X024788Y008632D03*
X024788Y008619D03*
X024788Y008606D03*
X024788Y008593D03*
X024788Y008579D03*
X024788Y008563D03*
X024788Y008550D03*
X024788Y008537D03*
X024788Y008523D03*
X024788Y008510D03*
X024788Y008497D03*
X024788Y008480D03*
X024788Y008467D03*
X024788Y008454D03*
X024788Y008441D03*
X024788Y008428D03*
X024788Y008414D03*
X024788Y008398D03*
X024788Y008385D03*
X024788Y008372D03*
X024788Y008358D03*
X024788Y008345D03*
X024788Y008332D03*
X024788Y008315D03*
X024788Y008302D03*
X024788Y008289D03*
X024788Y008276D03*
X024788Y008263D03*
X024788Y008249D03*
X024788Y008662D03*
X024788Y008688D03*
X024788Y008702D03*
X024788Y008715D03*
X024788Y008728D03*
X024788Y008744D03*
X024445Y008593D03*
D40*
X024188Y008249D03*
D41*
X025427Y008253D03*
D42*
X024186Y008253D03*
D43*
X025424Y008256D03*
X025424Y008721D03*
D44*
X025323Y008659D03*
X025320Y008339D03*
X025320Y008335D03*
X025115Y008256D03*
X024973Y008306D03*
X025950Y009081D03*
D45*
X025696Y008814D03*
X026468Y008814D03*
X024184Y008639D03*
X024188Y008256D03*
D46*
X025422Y008259D03*
X025422Y008718D03*
D47*
X026077Y009061D03*
X027592Y009226D03*
X025113Y008259D03*
D48*
X024188Y008259D03*
X024184Y008636D03*
D49*
X025420Y008715D03*
X025420Y008263D03*
D50*
X025113Y008263D03*
X024463Y008632D03*
X027202Y008810D03*
D51*
X024186Y008263D03*
D52*
X025419Y008266D03*
X025419Y008711D03*
D53*
X025113Y008266D03*
D54*
X024186Y008266D03*
D55*
X024526Y008596D03*
X024526Y008599D03*
X024526Y008603D03*
X025417Y008708D03*
X025417Y008269D03*
D56*
X025047Y008269D03*
X024529Y008622D03*
X024529Y008626D03*
D57*
X024184Y008626D03*
X024184Y008269D03*
X025448Y008748D03*
D58*
X025415Y008705D03*
X025415Y008273D03*
D59*
X025049Y008273D03*
X024528Y008609D03*
X024528Y008613D03*
X024528Y008616D03*
D60*
X024184Y008622D03*
X024184Y008273D03*
D61*
X025415Y008276D03*
X025415Y008702D03*
D62*
X024528Y008619D03*
X025049Y008276D03*
D63*
X024186Y008276D03*
D64*
X025414Y008279D03*
X025414Y008283D03*
X025414Y008695D03*
X025414Y008698D03*
D65*
X025051Y008286D03*
X025051Y008283D03*
X025051Y008279D03*
D66*
X024186Y008279D03*
D67*
X024184Y008283D03*
X024184Y008613D03*
X025438Y008741D03*
D68*
X025412Y008692D03*
X025412Y008286D03*
D69*
X025412Y008289D03*
X025412Y008688D03*
D70*
X025052Y008302D03*
X025052Y008289D03*
D71*
X024184Y008289D03*
D72*
X025410Y008292D03*
X025410Y008296D03*
X025410Y008299D03*
X025410Y008679D03*
X025410Y008682D03*
X025410Y008685D03*
D73*
X025052Y008299D03*
X025052Y008296D03*
X025052Y008292D03*
D74*
X024184Y008292D03*
X024184Y008296D03*
X027540Y009041D03*
X027544Y009028D03*
D75*
X025428Y008731D03*
X024184Y008299D03*
D76*
X025410Y008302D03*
X025410Y008675D03*
D77*
X025409Y008672D03*
X025409Y008669D03*
X025409Y008322D03*
X025409Y008319D03*
X025409Y008312D03*
X025409Y008309D03*
X025409Y008306D03*
D78*
X025318Y008342D03*
X025318Y008349D03*
X025318Y008352D03*
X025318Y008355D03*
X025133Y008306D03*
X025321Y008655D03*
X024463Y008642D03*
X024186Y008659D03*
X025948Y009084D03*
X026744Y008814D03*
X026796Y008860D03*
X027206Y008807D03*
X027173Y009263D03*
D79*
X024970Y008309D03*
D80*
X025141Y008325D03*
X025141Y008329D03*
X025141Y008335D03*
X025141Y008339D03*
X025141Y008342D03*
X025141Y008349D03*
X025141Y008352D03*
X025141Y008355D03*
X025141Y008362D03*
X025141Y008365D03*
X025141Y008368D03*
X025141Y008375D03*
X025141Y008378D03*
X025141Y008381D03*
X025141Y008388D03*
X025141Y008391D03*
X025141Y008395D03*
X025141Y008401D03*
X025141Y008405D03*
X025141Y008408D03*
X025141Y008411D03*
X025141Y008418D03*
X025141Y008421D03*
X025141Y008424D03*
X025141Y008431D03*
X025141Y008434D03*
X025141Y008438D03*
X025141Y008444D03*
X025141Y008448D03*
X025141Y008451D03*
X025141Y008457D03*
X025141Y008461D03*
X025141Y008464D03*
X025141Y008471D03*
X025141Y008474D03*
X025141Y008477D03*
X025141Y008484D03*
X025141Y008487D03*
X025141Y008490D03*
X025141Y008494D03*
X025141Y008500D03*
X025141Y008504D03*
X025141Y008507D03*
X025141Y008514D03*
X025141Y008517D03*
X025141Y008520D03*
X025141Y008527D03*
X025141Y008530D03*
X025141Y008533D03*
X025141Y008540D03*
X025141Y008543D03*
X025141Y008546D03*
X025141Y008553D03*
X025141Y008556D03*
X025141Y008560D03*
X025141Y008566D03*
X025141Y008570D03*
X025141Y008573D03*
X025141Y008576D03*
X025141Y008583D03*
X025141Y008586D03*
X025141Y008589D03*
X025141Y008596D03*
X025141Y008599D03*
X025141Y008603D03*
X025141Y008609D03*
X025141Y008613D03*
X025141Y008616D03*
X025141Y008622D03*
X025141Y008626D03*
X025141Y008629D03*
X025141Y008636D03*
X025141Y008639D03*
X025141Y008642D03*
X025141Y008649D03*
X025141Y008652D03*
X025141Y008655D03*
X025141Y008659D03*
X024442Y008586D03*
X024099Y008546D03*
X024099Y008543D03*
X024099Y008540D03*
X024099Y008533D03*
X024099Y008530D03*
X024099Y008527D03*
X024099Y008520D03*
X024099Y008517D03*
X024099Y008514D03*
X024099Y008507D03*
X024099Y008504D03*
X024099Y008500D03*
X024099Y008494D03*
X024099Y008490D03*
X024099Y008487D03*
X024099Y008484D03*
X024099Y008477D03*
X024099Y008474D03*
X024099Y008471D03*
X024099Y008464D03*
X024099Y008461D03*
X024099Y008457D03*
X024099Y008451D03*
X024099Y008448D03*
X024099Y008444D03*
X024099Y008438D03*
X024099Y008434D03*
X024099Y008431D03*
X024099Y008424D03*
X024099Y008421D03*
X024099Y008418D03*
X024099Y008411D03*
X024099Y008408D03*
X024099Y008405D03*
X024099Y008401D03*
X024099Y008395D03*
X024099Y008391D03*
X024099Y008388D03*
X024099Y008381D03*
X024099Y008378D03*
X024099Y008375D03*
X024099Y008368D03*
X024099Y008365D03*
X024099Y008362D03*
X024264Y008322D03*
X024260Y008309D03*
X025640Y009117D03*
D81*
X026080Y009055D03*
X026793Y008863D03*
X025140Y008322D03*
X025140Y008319D03*
X025140Y008312D03*
X024608Y008573D03*
X024608Y008576D03*
X024608Y008583D03*
X024608Y008649D03*
X024608Y008652D03*
X024608Y008655D03*
X024608Y008659D03*
X024443Y008589D03*
X024440Y008583D03*
D82*
X024262Y008576D03*
X024262Y008319D03*
X024262Y008312D03*
X027206Y008804D03*
X027232Y008837D03*
D83*
X027663Y008844D03*
X027663Y008847D03*
X026979Y009078D03*
X027168Y009256D03*
X027583Y009213D03*
X026788Y008870D03*
X025943Y009094D03*
X024462Y008649D03*
X024260Y008586D03*
X024260Y008583D03*
X024264Y008573D03*
X024264Y008570D03*
X024264Y008566D03*
X024105Y008586D03*
X024102Y008576D03*
X024102Y008325D03*
X024102Y008322D03*
X024105Y008312D03*
D84*
X025409Y008315D03*
D85*
X025140Y008315D03*
X024608Y008579D03*
X024608Y008645D03*
X024608Y008662D03*
X024440Y008579D03*
X027163Y009292D03*
D86*
X024463Y008645D03*
X024968Y008315D03*
D87*
X024262Y008315D03*
X024262Y008579D03*
D88*
X024255Y008593D03*
X024265Y008563D03*
X024265Y008550D03*
X024104Y008579D03*
X024100Y008563D03*
X024100Y008345D03*
X024100Y008332D03*
X024104Y008315D03*
X024265Y008332D03*
X024265Y008345D03*
D89*
X025331Y008325D03*
X026744Y008824D03*
X027008Y009094D03*
X027008Y009098D03*
X027664Y008830D03*
D90*
X026471Y008801D03*
X025699Y008801D03*
X025326Y008329D03*
D91*
X025321Y008332D03*
D92*
X025318Y008345D03*
X025318Y008358D03*
X026077Y009058D03*
D93*
X024603Y008593D03*
D94*
X024183Y008596D03*
X024183Y008599D03*
X027545Y009022D03*
X027545Y009025D03*
D95*
X024526Y008606D03*
D96*
X024183Y008606D03*
D97*
X024183Y008616D03*
D98*
X024183Y008619D03*
X025443Y008744D03*
D99*
X025329Y008665D03*
X024465Y008629D03*
X024184Y008655D03*
X026742Y008820D03*
X026963Y008814D03*
X027597Y009230D03*
D100*
X024184Y008629D03*
D101*
X024184Y008632D03*
D102*
X024462Y008639D03*
X027006Y009104D03*
D103*
X026955Y008834D03*
X024183Y008642D03*
D104*
X024184Y008645D03*
D105*
X024184Y008649D03*
X025643Y009108D03*
X026415Y009108D03*
D106*
X026316Y008959D03*
X026316Y008956D03*
X026316Y008952D03*
X026319Y008943D03*
X026319Y008939D03*
X026564Y008979D03*
X026564Y008982D03*
X026567Y008969D03*
X026567Y008966D03*
X026567Y008959D03*
X026567Y008956D03*
X026785Y008876D03*
X026098Y009071D03*
X025795Y008969D03*
X025795Y008966D03*
X025795Y008959D03*
X025795Y008956D03*
X025798Y008946D03*
X025798Y008943D03*
X025798Y008939D03*
X025798Y008933D03*
X025798Y008929D03*
X025798Y008926D03*
X025551Y008926D03*
X025547Y008939D03*
X025547Y008943D03*
X024462Y008652D03*
X027583Y009190D03*
X027583Y009193D03*
X027583Y009200D03*
X027597Y009137D03*
X027597Y009134D03*
X027610Y009081D03*
X027610Y009078D03*
X027613Y009068D03*
X027613Y009065D03*
X027613Y009061D03*
X027626Y009012D03*
X027626Y009009D03*
X027636Y008969D03*
X027636Y008966D03*
X027639Y008952D03*
X027639Y008946D03*
X027649Y008906D03*
X027649Y008903D03*
X027653Y008896D03*
X027653Y008890D03*
D107*
X027201Y008817D03*
X026131Y009091D03*
X024184Y008652D03*
D108*
X024463Y008655D03*
X025796Y008876D03*
X025796Y008883D03*
X025770Y009035D03*
X025767Y009041D03*
X025932Y009041D03*
X025935Y009028D03*
X025935Y009025D03*
X025935Y009022D03*
X026097Y009022D03*
X026097Y009015D03*
X026097Y009012D03*
X026100Y009002D03*
X026100Y008999D03*
X026110Y008959D03*
X026110Y008956D03*
X026113Y008946D03*
X026113Y008943D03*
X026113Y008939D03*
X026126Y008890D03*
X026126Y008886D03*
X026126Y008883D03*
X026140Y008834D03*
X026140Y008830D03*
X026140Y008824D03*
X026539Y009041D03*
X026744Y009065D03*
X026744Y009068D03*
X026744Y009071D03*
X026757Y009002D03*
X026757Y008999D03*
X026757Y008995D03*
X026760Y008989D03*
X026760Y008985D03*
X026760Y008982D03*
X026760Y008979D03*
X026770Y008939D03*
X026770Y008933D03*
X026770Y008929D03*
X026773Y008919D03*
X026773Y008916D03*
X026773Y008913D03*
X026991Y008939D03*
X026991Y008943D03*
X026978Y008995D03*
X026978Y008999D03*
X027004Y008876D03*
X027004Y008873D03*
X027239Y008903D03*
X027239Y008906D03*
X027225Y008959D03*
X027225Y008966D03*
X027225Y008969D03*
X027212Y009022D03*
X027212Y009025D03*
X027199Y009078D03*
X027199Y009081D03*
X027199Y009084D03*
X027186Y009131D03*
X027186Y009134D03*
X027186Y009137D03*
X027182Y009147D03*
X027182Y009150D03*
X027182Y009154D03*
X027173Y009190D03*
X027173Y009193D03*
X027169Y009203D03*
X027169Y009206D03*
X027169Y009213D03*
D109*
X027336Y009226D03*
X026521Y009068D03*
X026478Y009098D03*
X026356Y009098D03*
X026326Y009071D03*
X026326Y009068D03*
X026323Y009065D03*
X025937Y009012D03*
X025923Y009078D03*
X025749Y009068D03*
X025745Y009071D03*
X025706Y009098D03*
X025584Y009098D03*
X025554Y009071D03*
X025554Y009068D03*
X025551Y009065D03*
X025590Y008850D03*
X025593Y008847D03*
X025633Y008817D03*
X025755Y008817D03*
X025785Y008847D03*
X025788Y008850D03*
X026362Y008850D03*
X026366Y008847D03*
X026405Y008817D03*
X026527Y008817D03*
X026557Y008847D03*
X026560Y008850D03*
X024462Y008659D03*
D110*
X025325Y008662D03*
X026965Y008810D03*
D111*
X024462Y008662D03*
D112*
X024186Y008662D03*
X027582Y009210D03*
D113*
X027437Y009055D03*
X027446Y009012D03*
X024463Y008665D03*
D114*
X024186Y008665D03*
X025602Y008837D03*
X025767Y008824D03*
X025780Y008837D03*
X025783Y008844D03*
X026374Y008837D03*
X026539Y008824D03*
X026549Y008834D03*
X026552Y008837D03*
X026555Y008844D03*
X026509Y009078D03*
X026506Y009081D03*
X026493Y009091D03*
X026486Y009094D03*
X026348Y009094D03*
X026344Y009091D03*
X026334Y009081D03*
X026331Y009078D03*
X025737Y009078D03*
X025730Y009084D03*
X025714Y009094D03*
X025575Y009094D03*
X025572Y009091D03*
X025562Y009081D03*
X025559Y009078D03*
D115*
X024186Y008669D03*
D116*
X025425Y008725D03*
D117*
X025427Y008728D03*
D118*
X025432Y008735D03*
D119*
X025435Y008738D03*
D120*
X025458Y008751D03*
D121*
X025478Y008754D03*
X027201Y008824D03*
D122*
X027212Y008791D03*
X026975Y008791D03*
X027324Y009180D03*
D123*
X027326Y009193D03*
X027428Y009061D03*
X026475Y008791D03*
X025702Y008791D03*
X025937Y009121D03*
D124*
X027212Y008794D03*
X027450Y009015D03*
D125*
X027441Y009051D03*
X027329Y009213D03*
X026973Y008794D03*
D126*
X026970Y008797D03*
X027210Y008797D03*
X026560Y008853D03*
X026554Y008840D03*
X026359Y008853D03*
X025788Y008853D03*
X025782Y008840D03*
X025587Y008853D03*
X025557Y009074D03*
X026121Y009114D03*
X026329Y009074D03*
D127*
X026752Y008797D03*
X027329Y009210D03*
D128*
X027669Y008820D03*
X027669Y008817D03*
X027672Y008814D03*
X027672Y008807D03*
X027672Y008804D03*
X027676Y008801D03*
D129*
X027659Y008860D03*
X027659Y008863D03*
X027656Y008876D03*
X027656Y008883D03*
X027646Y008919D03*
X027646Y008926D03*
X027643Y008933D03*
X027643Y008939D03*
X027633Y008979D03*
X027633Y008982D03*
X027630Y008989D03*
X027630Y008995D03*
X027616Y009048D03*
X027616Y009051D03*
X027616Y009055D03*
X027606Y009091D03*
X027606Y009094D03*
X027606Y009098D03*
X027603Y009104D03*
X027603Y009108D03*
X027603Y009111D03*
X027600Y009117D03*
X027600Y009121D03*
X027600Y009124D03*
X027593Y009147D03*
X027593Y009150D03*
X027593Y009154D03*
X027590Y009160D03*
X027590Y009164D03*
X027590Y009167D03*
X027587Y009177D03*
X027587Y009180D03*
X027164Y009246D03*
X027164Y009249D03*
X026570Y008946D03*
X026570Y008943D03*
X026570Y008939D03*
X026570Y008933D03*
X026570Y008929D03*
X026570Y008926D03*
X026748Y008807D03*
X026775Y008844D03*
X026970Y008801D03*
X026999Y008850D03*
X026323Y008926D03*
X026313Y008969D03*
X026313Y008972D03*
X026313Y008979D03*
X026313Y008982D03*
X026313Y008985D03*
X026313Y008989D03*
X026088Y009038D03*
X026095Y009068D03*
X025791Y008982D03*
X025791Y008979D03*
X025544Y008959D03*
X025544Y008956D03*
X025544Y008952D03*
X025541Y008969D03*
X025541Y008972D03*
X025541Y008979D03*
X025541Y008982D03*
X025541Y008985D03*
X025541Y008989D03*
D130*
X025607Y008834D03*
X025610Y008830D03*
X025626Y008820D03*
X025762Y008820D03*
X025937Y009009D03*
X026336Y009084D03*
X026379Y008834D03*
X026382Y008830D03*
X026392Y008824D03*
X026534Y008820D03*
X026752Y008801D03*
D131*
X026750Y008804D03*
X026780Y008883D03*
X026780Y008886D03*
X026780Y008890D03*
X026777Y008896D03*
X026777Y008900D03*
X026777Y008903D03*
X026777Y008906D03*
X026767Y008946D03*
X026767Y008952D03*
X026767Y008956D03*
X026763Y008966D03*
X026763Y008969D03*
X026763Y008972D03*
X026753Y009015D03*
X026753Y009022D03*
X026753Y009025D03*
X026750Y009035D03*
X026750Y009038D03*
X026750Y009041D03*
X026747Y009048D03*
X026747Y009051D03*
X026747Y009055D03*
X026740Y009081D03*
X026740Y009084D03*
X026740Y009091D03*
X026737Y009098D03*
X026737Y009104D03*
X026737Y009108D03*
X026734Y009117D03*
X026734Y009121D03*
X026546Y009028D03*
X026542Y009035D03*
X026569Y008883D03*
X026569Y008876D03*
X026341Y008883D03*
X026338Y008886D03*
X026315Y009035D03*
X026315Y009038D03*
X026315Y009041D03*
X026103Y008989D03*
X026103Y008985D03*
X026103Y008982D03*
X026107Y008972D03*
X026107Y008969D03*
X026117Y008933D03*
X026117Y008929D03*
X026117Y008926D03*
X026120Y008919D03*
X026120Y008916D03*
X026120Y008913D03*
X026123Y008906D03*
X026123Y008903D03*
X026123Y008900D03*
X026123Y008896D03*
X026130Y008876D03*
X026130Y008873D03*
X026130Y008870D03*
X026133Y008863D03*
X026133Y008860D03*
X026133Y008857D03*
X026136Y008847D03*
X026136Y008844D03*
X026143Y008820D03*
X026143Y008817D03*
X026143Y008814D03*
X026146Y008804D03*
X026146Y008801D03*
X026093Y009028D03*
X025928Y009055D03*
X025942Y009104D03*
X025773Y009028D03*
X025542Y009035D03*
X025542Y009038D03*
X025542Y009041D03*
X025565Y008886D03*
X025569Y008883D03*
X026968Y009048D03*
X026968Y009051D03*
X026968Y009055D03*
X026971Y009068D03*
X026971Y009028D03*
X026971Y009025D03*
X026971Y009022D03*
X026975Y009015D03*
X026975Y009012D03*
X026975Y009009D03*
X026981Y008985D03*
X026981Y008982D03*
X026981Y008979D03*
X026984Y008969D03*
X026984Y008966D03*
X026988Y008956D03*
X026988Y008952D03*
X026994Y008926D03*
X026998Y008913D03*
X026998Y008906D03*
X027001Y008900D03*
X027001Y008896D03*
X027001Y008890D03*
X027001Y008886D03*
X027001Y008883D03*
X027232Y008929D03*
X027232Y008933D03*
X027232Y008939D03*
X027229Y008946D03*
X027229Y008952D03*
X027229Y008956D03*
X027222Y008979D03*
X027222Y008982D03*
X027219Y008989D03*
X027219Y008995D03*
X027219Y008999D03*
X027215Y009002D03*
X027215Y009009D03*
X027215Y009012D03*
X027209Y009035D03*
X027209Y009038D03*
X027209Y009041D03*
X027206Y009048D03*
X027206Y009051D03*
X027206Y009055D03*
X027202Y009061D03*
X027202Y009065D03*
X027202Y009068D03*
X027196Y009091D03*
X027196Y009094D03*
X027196Y009098D03*
X027192Y009104D03*
X027192Y009108D03*
X027192Y009111D03*
X027189Y009117D03*
X027189Y009121D03*
X027189Y009124D03*
X027179Y009160D03*
X027179Y009164D03*
X027179Y009167D03*
X027176Y009174D03*
X027176Y009177D03*
X027176Y009180D03*
X027166Y009216D03*
X027166Y009220D03*
X027166Y009226D03*
X027166Y009230D03*
X027235Y008926D03*
X027235Y008919D03*
X027235Y008916D03*
X027242Y008896D03*
X027242Y008890D03*
X027242Y008886D03*
X027245Y008876D03*
X027245Y008873D03*
X027245Y008870D03*
X027245Y008863D03*
X027245Y008860D03*
X027245Y008857D03*
D132*
X027243Y008883D03*
X027230Y008943D03*
X027220Y008985D03*
X026996Y008919D03*
X026996Y008916D03*
X026999Y008903D03*
X026986Y008959D03*
X026983Y008972D03*
X026970Y009035D03*
X026970Y009038D03*
X026970Y009041D03*
X026752Y009028D03*
X026739Y009094D03*
X026735Y009111D03*
X026765Y008959D03*
X026534Y009048D03*
X026531Y009055D03*
X026105Y008979D03*
X026135Y008850D03*
X026145Y008807D03*
X025791Y008860D03*
X025791Y008863D03*
X025570Y008876D03*
X025544Y009048D03*
X025640Y009121D03*
X025758Y009055D03*
X025762Y009048D03*
X025927Y009061D03*
X025927Y009065D03*
D133*
X027672Y008810D03*
D134*
X026468Y008810D03*
X025696Y008810D03*
D135*
X025569Y008880D03*
X025542Y009032D03*
X025773Y009032D03*
X025928Y009058D03*
X026103Y008992D03*
X026107Y008975D03*
X026130Y008867D03*
X026133Y008853D03*
X026136Y008840D03*
X026143Y008810D03*
X026341Y008880D03*
X026315Y009032D03*
X026546Y009032D03*
X026569Y008880D03*
X026777Y008893D03*
X026767Y008949D03*
X026763Y008962D03*
X026753Y009018D03*
X026750Y009032D03*
X026747Y009058D03*
X026740Y009088D03*
X026737Y009101D03*
X026734Y009114D03*
X026968Y009058D03*
X026968Y009045D03*
X026971Y009032D03*
X026971Y009018D03*
X026975Y009005D03*
X026981Y008975D03*
X026984Y008962D03*
X026988Y008949D03*
X026994Y008923D03*
X026998Y008909D03*
X027001Y008893D03*
X027229Y008949D03*
X027232Y008936D03*
X027235Y008923D03*
X027242Y008893D03*
X027245Y008867D03*
X027222Y008975D03*
X027219Y008992D03*
X027215Y009005D03*
X027209Y009032D03*
X027206Y009045D03*
X027196Y009088D03*
X027189Y009127D03*
X027179Y009170D03*
X027176Y009183D03*
X027166Y009223D03*
D136*
X026963Y008817D03*
D137*
X026740Y008817D03*
X026074Y009065D03*
D138*
X027189Y009269D03*
X027189Y009273D03*
X027202Y008820D03*
D139*
X026961Y008820D03*
X027186Y009276D03*
X027186Y009282D03*
X027186Y009286D03*
X027182Y009289D03*
D140*
X027448Y009048D03*
X026399Y008820D03*
X025620Y008824D03*
X025564Y009084D03*
D141*
X027202Y008827D03*
X027664Y008827D03*
D142*
X026958Y008827D03*
D143*
X026744Y008827D03*
D144*
X026544Y008827D03*
X026339Y009088D03*
X025772Y008827D03*
X025613Y008827D03*
X025567Y009088D03*
X027455Y009018D03*
D145*
X026498Y009088D03*
X026385Y008827D03*
X025725Y009088D03*
D146*
X026097Y009018D03*
X026100Y009005D03*
X026110Y008962D03*
X026113Y008949D03*
X026140Y008827D03*
X025796Y008880D03*
X026744Y009074D03*
X026757Y009005D03*
X026770Y008936D03*
X026773Y008923D03*
X026978Y008992D03*
X026991Y008936D03*
X027004Y008880D03*
X027225Y008962D03*
X027239Y008909D03*
X027212Y009018D03*
X027199Y009074D03*
X027186Y009140D03*
X027173Y009197D03*
X027169Y009210D03*
D147*
X026956Y008830D03*
D148*
X026546Y008830D03*
X026367Y008844D03*
X025777Y008834D03*
X025773Y008830D03*
X025595Y008844D03*
X025734Y009081D03*
X025721Y009091D03*
X025938Y009111D03*
X026503Y009084D03*
D149*
X027204Y008834D03*
D150*
X027006Y009081D03*
X027006Y009084D03*
X026745Y008837D03*
X026745Y008834D03*
D151*
X027123Y008837D03*
X027440Y008943D03*
X027440Y008946D03*
X027440Y008952D03*
X027440Y008956D03*
X027404Y009111D03*
X027400Y009121D03*
X027321Y009144D03*
D152*
X026953Y008837D03*
D153*
X026993Y008929D03*
X026993Y008933D03*
X026989Y008946D03*
X026979Y008989D03*
X026976Y009002D03*
X026768Y008943D03*
X026772Y008926D03*
X026755Y009009D03*
X026755Y009012D03*
X026745Y009061D03*
X026742Y009078D03*
X026541Y009038D03*
X026412Y009121D03*
X026319Y009055D03*
X026319Y009051D03*
X026316Y009048D03*
X026102Y008995D03*
X026098Y009009D03*
X026095Y009025D03*
X026108Y008966D03*
X026112Y008952D03*
X026138Y008837D03*
X026343Y008876D03*
X026346Y008873D03*
X026346Y008870D03*
X026564Y008863D03*
X026564Y008860D03*
X026567Y008870D03*
X026567Y008873D03*
X027210Y009028D03*
X027214Y009015D03*
X027224Y008972D03*
X027237Y008913D03*
X027240Y008900D03*
X027201Y009071D03*
X027184Y009144D03*
X027174Y009187D03*
X027171Y009200D03*
X025768Y009038D03*
X025795Y008873D03*
X025795Y008870D03*
X025574Y008870D03*
X025574Y008873D03*
X025547Y009051D03*
X025547Y009055D03*
D154*
X025547Y008936D03*
X025795Y008962D03*
X025798Y008949D03*
X025798Y008936D03*
X026316Y008949D03*
X026316Y008962D03*
X026319Y008936D03*
X026564Y008975D03*
X026567Y008962D03*
X027237Y008840D03*
X027639Y008949D03*
X027636Y008962D03*
X027626Y009005D03*
X027623Y009018D03*
X027610Y009074D03*
X027597Y009140D03*
X027583Y009197D03*
X027649Y008909D03*
X027653Y008893D03*
D155*
X027113Y008840D03*
X027090Y009074D03*
D156*
X026951Y008840D03*
D157*
X026772Y008840D03*
X026102Y009074D03*
X026085Y009045D03*
D158*
X026668Y008840D03*
D159*
X026371Y008840D03*
X025598Y008840D03*
X025740Y009074D03*
X026513Y009074D03*
D160*
X026219Y009071D03*
X026661Y008844D03*
D161*
X026570Y008886D03*
X026570Y008890D03*
X026570Y008896D03*
X026570Y008900D03*
X026557Y009002D03*
X026554Y009012D03*
X026550Y009022D03*
X026547Y009025D03*
X026313Y009025D03*
X026313Y009028D03*
X026313Y009022D03*
X026313Y009015D03*
X026329Y008906D03*
X026329Y008903D03*
X026333Y008900D03*
X026333Y008896D03*
X026336Y008890D03*
X025798Y008890D03*
X025798Y008886D03*
X025798Y008896D03*
X025798Y008900D03*
X025785Y009002D03*
X025778Y009022D03*
X025775Y009025D03*
X025930Y009048D03*
X025930Y009051D03*
X025541Y009028D03*
X025541Y009025D03*
X025541Y009022D03*
X025541Y009015D03*
X025557Y008906D03*
X025557Y008903D03*
X025560Y008900D03*
X025560Y008896D03*
X025564Y008890D03*
X026970Y009061D03*
X026970Y009065D03*
X026973Y009071D03*
X027164Y009233D03*
X027164Y009236D03*
X027243Y008850D03*
X027243Y008847D03*
X027003Y008860D03*
X027003Y008863D03*
X027003Y008870D03*
D162*
X026998Y008847D03*
X027001Y009111D03*
X027661Y008857D03*
X027661Y008850D03*
X025942Y009098D03*
D163*
X026866Y008847D03*
X027440Y009002D03*
X027427Y009065D03*
X027324Y009187D03*
X027324Y009190D03*
D164*
X026805Y008850D03*
X026135Y009098D03*
D165*
X027166Y009253D03*
X027661Y008853D03*
D166*
X027243Y008853D03*
X027003Y008867D03*
X026570Y008893D03*
X026550Y009018D03*
X026313Y009018D03*
X026336Y008893D03*
X026092Y009032D03*
X025930Y009045D03*
X025778Y009018D03*
X025798Y008893D03*
X025564Y008893D03*
X025541Y009018D03*
X027164Y009239D03*
D167*
X026975Y009074D03*
X026555Y009005D03*
X026572Y008923D03*
X026572Y008909D03*
X026783Y008880D03*
X027001Y008853D03*
X027615Y009058D03*
X027608Y009088D03*
X027605Y009101D03*
X027602Y009114D03*
X027598Y009127D03*
X027592Y009157D03*
X027588Y009170D03*
X026328Y008909D03*
X026324Y008923D03*
X026311Y008992D03*
X026311Y009005D03*
X025942Y009101D03*
X025783Y009005D03*
X025800Y008923D03*
X025800Y008909D03*
X025556Y008909D03*
X025552Y008923D03*
X025539Y008992D03*
X025539Y009005D03*
D168*
X026801Y008853D03*
X027009Y009101D03*
D169*
X026532Y009051D03*
X025925Y009068D03*
X025925Y009071D03*
X025760Y009051D03*
X025790Y008857D03*
X025582Y008860D03*
D170*
X025544Y008949D03*
X025544Y008962D03*
X025541Y008975D03*
X025788Y008992D03*
X025791Y008975D03*
X026313Y008975D03*
X026560Y008992D03*
X026570Y008949D03*
X026570Y008936D03*
X027587Y009183D03*
X027630Y008992D03*
X027633Y008975D03*
X027643Y008936D03*
X027646Y008923D03*
X027656Y008880D03*
X027659Y008867D03*
D171*
X027582Y009203D03*
X027582Y009206D03*
X027347Y009230D03*
X026786Y008873D03*
X026087Y009041D03*
D172*
X026118Y008923D03*
X026121Y008909D03*
X025544Y009045D03*
X026748Y009045D03*
X026999Y009114D03*
X027191Y009114D03*
X027194Y009101D03*
X027204Y009058D03*
X027243Y008880D03*
D173*
X027638Y008956D03*
X027638Y008959D03*
X027625Y009015D03*
X027611Y009071D03*
X027651Y008900D03*
X026565Y008972D03*
X026552Y009015D03*
X026318Y008946D03*
X025796Y008952D03*
X025549Y008933D03*
X025549Y008929D03*
D174*
X026211Y009074D03*
X027441Y008936D03*
D175*
X027441Y008939D03*
X027402Y009117D03*
X027399Y009124D03*
X027082Y009078D03*
D176*
X027404Y009114D03*
X027440Y008949D03*
D177*
X027438Y008959D03*
X027438Y008966D03*
X027408Y009098D03*
D178*
X027408Y009101D03*
X027438Y008962D03*
D179*
X027440Y008969D03*
X027410Y009094D03*
X025938Y008989D03*
D180*
X027412Y009091D03*
X027438Y008982D03*
X027438Y008979D03*
X027438Y008972D03*
D181*
X027438Y008975D03*
D182*
X027438Y008989D03*
X026118Y009121D03*
X026009Y009071D03*
D183*
X027438Y008992D03*
D184*
X025938Y008992D03*
D185*
X027423Y009071D03*
X027440Y008999D03*
X027440Y008995D03*
D186*
X025937Y008995D03*
D187*
X025938Y008999D03*
X026120Y009117D03*
D188*
X025938Y009002D03*
X027331Y009216D03*
D189*
X027441Y009005D03*
D190*
X025938Y009005D03*
D191*
X025933Y009035D03*
X025933Y009038D03*
X025782Y009012D03*
D192*
X027542Y009032D03*
D193*
X025933Y009032D03*
D194*
X027542Y009035D03*
X027542Y009038D03*
D195*
X027539Y009045D03*
D196*
X027433Y009058D03*
D197*
X026529Y009058D03*
X026321Y009058D03*
X025757Y009058D03*
X025549Y009058D03*
D198*
X027425Y009068D03*
D199*
X026517Y009071D03*
D200*
X026004Y009074D03*
X027420Y009074D03*
D201*
X025925Y009074D03*
D202*
X027121Y009296D03*
X027323Y009177D03*
X027323Y009174D03*
X027418Y009078D03*
D203*
X025999Y009078D03*
D204*
X026131Y009081D03*
X026131Y009084D03*
D205*
X026702Y009124D03*
X027323Y009160D03*
X027323Y009164D03*
X027323Y009167D03*
X027415Y009084D03*
D206*
X027413Y009088D03*
D207*
X027006Y009088D03*
D208*
X026133Y009088D03*
D209*
X025947Y009088D03*
D210*
X025643Y009101D03*
X026415Y009101D03*
D211*
X026131Y009101D03*
D212*
X027323Y009147D03*
X027323Y009150D03*
X027323Y009154D03*
X027405Y009108D03*
X027405Y009104D03*
D213*
X026415Y009104D03*
D214*
X025643Y009104D03*
D215*
X025640Y009114D03*
X026412Y009114D03*
D216*
X025938Y009114D03*
D217*
X025937Y009117D03*
X026996Y009121D03*
D218*
X025935Y009124D03*
D219*
X027323Y009137D03*
D220*
X027323Y009140D03*
D221*
X027321Y009157D03*
D222*
X027323Y009170D03*
D223*
X027323Y009183D03*
D224*
X027324Y009197D03*
D225*
X027326Y009200D03*
D226*
X027328Y009203D03*
X027328Y009206D03*
D227*
X027333Y009220D03*
D228*
X027334Y009223D03*
D229*
X027488Y009233D03*
D230*
X027493Y009236D03*
X027489Y009249D03*
D231*
X027488Y009253D03*
X027491Y009239D03*
D232*
X027491Y009243D03*
X027491Y009246D03*
X027488Y009256D03*
D233*
X027182Y009266D03*
D234*
X027186Y009279D03*
M02*
