%
M48
M72
T01C0.0200
T02C0.0236
T03C0.0320
T04C0.0360
T05C0.0374
T06C0.0390
T07C0.0510
T08C0.0512
T09C0.0710
T10C0.0787
T11C0.0906
T12C0.1299
%
T01
X11137Y1700
X13837Y1100
X14037Y1900
X13837Y2500
X14337Y2500
X16637Y3300
X17637Y3300
X19637Y3000
X21287Y2950
X21837Y3100
X23187Y3650
X24537Y3750
X26337Y3600
X26337Y3100
X26837Y2700
X27637Y2400
X28337Y2800
X28937Y2340
X29837Y3100
X28437Y3600
X28837Y3900
X28537Y4400
X28137Y4700
X26837Y4900
X26387Y5250
X25237Y5400
X25237Y5900
X26787Y6500
X27987Y6650
X28137Y6150
X29637Y6450
X30037Y5950
X31337Y5500
X29237Y5300
X31687Y4300
X32737Y3750
X33137Y3100
X35587Y2700
X35587Y3950
X37337Y4700
X36087Y6450
X36587Y7300
X38837Y6450
X32637Y7500
X31487Y7350
X31087Y7050
X31087Y7950
X29837Y8300
X31387Y8400
X28887Y9200
X25687Y8450
X25337Y8950
X24237Y8000
X23837Y7550
X23737Y7000
X25237Y7000
X28037Y7200
X28387Y7650
X26337Y7950
X20737Y9100
X19637Y9000
X17637Y9000
X17137Y8800
X16037Y8700
X16337Y9200
X13237Y9400
X11937Y8300
X9737Y7900
X9337Y7400
X8537Y7400
X11237Y6800
X11737Y6600
X10837Y6100
X10409Y5528
X10421Y5016
X10637Y4500
X11037Y4100
X11537Y3800
X12037Y4200
X9037Y3400
X17337Y5000
X17637Y5500
X19637Y5200
X20737Y5100
X20237Y5600
X23087Y5100
X22837Y4600
X17837Y4100
X22337Y2500
X21637Y2350
X20787Y2450
X22487Y1700
X23037Y1600
X22837Y2100
X17937Y1800
X8537Y6000
X5137Y8000
X6237Y8600
X6837Y8400
X4337Y9400
X6537Y10800
X6037Y11300
X7837Y11200
X18837Y7900
X19437Y7300
X19037Y6900
X21737Y10300
X21737Y10800
X22337Y11200
X23237Y11200
X23787Y10450
X31387Y11000
X34837Y9950
T02
X11317Y10346
X10687Y10346
X10058Y10346
X10372Y11054
X11002Y11054
T03
X3837Y6100
X33337Y6700
X34337Y6700
X35337Y6700
T04
X35087Y8400
X34087Y8400
X36087Y8400
X30337Y9880
X29337Y9880
X28337Y9880
X27337Y9880
X26337Y9880
X25337Y9880
X24337Y9880
X22837Y10250
X24337Y10880
X25337Y10880
X26337Y10880
X27337Y10880
X28337Y10880
X29337Y10880
X30337Y10880
X22837Y9250
X21587Y9450
X21587Y8450
X22837Y8250
X21587Y7450
X22837Y7250
X21587Y6450
X17237Y2200
X16237Y2200
X15237Y2200
X15237Y1200
X16237Y1200
X17237Y1200
X10587Y1200
X9587Y1200
X8587Y1200
X7587Y1200
X7587Y2200
X8587Y2200
X9587Y2200
X10587Y2200
X32837Y2200
X33837Y2200
X34837Y2200
X34837Y1200
X33837Y1200
X32837Y1200
X21087Y10880
X20087Y10880
X19087Y10880
X14737Y10880
X13737Y10880
T05
X15154Y7578
X15154Y6594
X15154Y5806
X15154Y4822
T06
X3837Y4800
T07
X3987Y7680
T08
X24828Y4750
X32702Y4750
T09
X1037Y6300
T10
X9034Y10700
X9034Y10700
X12341Y10700
X12341Y10700
T11
X14087Y8787
X14087Y3613
T12
X2037Y1880
X2037Y9980
X38137Y9980
X38137Y1880
M30
