G75*
G70*
%OFA0B0*%
%FSLAX24Y24*%
%IPPOS*%
%LPD*%
%AMOC8*
5,1,8,0,0,1.08239X$1,22.5*
%
%ADD10OC8,0.0600*%
%ADD11C,0.2300*%
%ADD12C,0.0394*%
%ADD13R,0.0630X0.0710*%
%ADD14R,0.0710X0.0630*%
%ADD15C,0.0768*%
%ADD16R,0.0240X0.0870*%
%ADD17R,0.0433X0.0748*%
%ADD18R,0.0550X0.0137*%
%ADD19C,0.0476*%
%ADD20C,0.1181*%
%ADD21R,0.0591X0.0591*%
%ADD22R,0.0394X0.0709*%
%ADD23R,0.0116X0.0630*%
%ADD24R,0.0630X0.0116*%
%ADD25C,0.0614*%
%ADD26C,0.1306*%
%ADD27R,0.0551X0.0551*%
%ADD28R,0.0260X0.0800*%
%ADD29C,0.0740*%
%ADD30R,0.0551X0.0394*%
%ADD31R,0.0591X0.0197*%
%ADD32R,0.0197X0.0591*%
%ADD33R,0.0750X0.0240*%
%ADD34R,0.0950X0.1220*%
%ADD35R,0.0315X0.0945*%
%ADD36R,0.0960X0.2360*%
%ADD37R,0.0480X0.0880*%
%ADD38R,0.1417X0.0866*%
%ADD39R,0.0800X0.0800*%
%ADD40C,0.0765*%
%ADD41C,0.0630*%
%ADD42C,0.0600*%
%ADD43C,0.0280*%
%ADD44C,0.0300*%
%ADD45C,0.0160*%
%ADD46C,0.0400*%
%ADD47C,0.0100*%
%ADD48C,0.0400*%
%ADD49C,0.0500*%
%ADD50C,0.0320*%
D10*
X007587Y001200D03*
X008587Y001200D03*
X009587Y001200D03*
X010587Y001200D03*
X010587Y002200D03*
X009587Y002200D03*
X008587Y002200D03*
X007587Y002200D03*
X015237Y002200D03*
X016237Y002200D03*
X017237Y002200D03*
X017237Y001200D03*
X016237Y001200D03*
X015237Y001200D03*
X021587Y006450D03*
X022837Y007250D03*
X021587Y007450D03*
X022837Y008250D03*
X021587Y008450D03*
X022837Y009250D03*
X021587Y009450D03*
X022837Y010250D03*
X024337Y009880D03*
X025337Y009880D03*
X026337Y009880D03*
X027337Y009880D03*
X028337Y009880D03*
X029337Y009880D03*
X030337Y009880D03*
X030337Y010880D03*
X029337Y010880D03*
X028337Y010880D03*
X027337Y010880D03*
X026337Y010880D03*
X025337Y010880D03*
X024337Y010880D03*
X021087Y010880D03*
X020087Y010880D03*
X019087Y010880D03*
X014737Y010880D03*
X013737Y010880D03*
X034087Y008400D03*
X035087Y008400D03*
X036087Y008400D03*
X034837Y002200D03*
X033837Y002200D03*
X032837Y002200D03*
X032837Y001200D03*
X033837Y001200D03*
X034837Y001200D03*
D11*
X038137Y001880D03*
X038137Y009980D03*
X002037Y009980D03*
X002037Y001880D03*
D12*
X003837Y000700D03*
X036087Y000700D03*
X036087Y011200D03*
D13*
X034397Y010700D03*
X033278Y010700D03*
X020147Y009600D03*
X019028Y009600D03*
X018197Y009600D03*
X017078Y009600D03*
X015047Y009900D03*
X013928Y009900D03*
X033778Y005450D03*
X034897Y005450D03*
X034897Y004450D03*
X033778Y004450D03*
X033778Y003450D03*
X034897Y003450D03*
X031397Y002400D03*
X030278Y002400D03*
X029097Y001350D03*
X027978Y001350D03*
X030278Y001300D03*
X031397Y001300D03*
X024897Y002900D03*
X023778Y002900D03*
D14*
X023837Y004140D03*
X023837Y005260D03*
X024587Y006140D03*
X024587Y007260D03*
X032187Y008140D03*
X033087Y008140D03*
X033087Y009260D03*
X032187Y009260D03*
X036087Y005760D03*
X036087Y004640D03*
D15*
X032702Y004750D03*
X024828Y004750D03*
D16*
X037087Y005420D03*
X037587Y005420D03*
X038087Y005420D03*
X038587Y005420D03*
X038587Y007480D03*
X038087Y007480D03*
X037587Y007480D03*
X037087Y007480D03*
D17*
X037865Y004200D03*
X038810Y004200D03*
D18*
X012677Y004248D03*
X012677Y003993D03*
X012677Y003737D03*
X012677Y004504D03*
X012677Y004760D03*
X012677Y005016D03*
X012677Y005272D03*
X012677Y005528D03*
X012677Y005784D03*
X012677Y006040D03*
X012677Y006296D03*
X012677Y006552D03*
X012677Y006807D03*
X012677Y007063D03*
X009798Y007063D03*
X009798Y006807D03*
X009798Y006552D03*
X009798Y006296D03*
X009798Y006040D03*
X009798Y005784D03*
X009798Y005528D03*
X009798Y005272D03*
X009798Y005016D03*
X009798Y004760D03*
X009798Y004504D03*
X009798Y004248D03*
X009798Y003993D03*
X009798Y003737D03*
D19*
X010058Y010346D03*
X010687Y010346D03*
X011317Y010346D03*
X011002Y011054D03*
X010372Y011054D03*
D20*
X009034Y010700D03*
X009034Y010700D03*
X012341Y010700D03*
X012341Y010700D03*
D21*
X011798Y002250D03*
X013176Y002250D03*
X013176Y001250D03*
X011798Y001250D03*
D22*
X012189Y009400D03*
X011086Y009400D03*
D23*
G36*
X017124Y007857D02*
X017206Y007939D01*
X017650Y007495D01*
X017568Y007413D01*
X017124Y007857D01*
G37*
G36*
X017263Y007996D02*
X017345Y008078D01*
X017789Y007634D01*
X017707Y007552D01*
X017263Y007996D01*
G37*
G36*
X017403Y008135D02*
X017485Y008217D01*
X017929Y007773D01*
X017847Y007691D01*
X017403Y008135D01*
G37*
G36*
X017542Y008274D02*
X017624Y008356D01*
X018068Y007912D01*
X017986Y007830D01*
X017542Y008274D01*
G37*
G36*
X017681Y008414D02*
X017763Y008496D01*
X018207Y008052D01*
X018125Y007970D01*
X017681Y008414D01*
G37*
G36*
X017820Y008553D02*
X017902Y008635D01*
X018346Y008191D01*
X018264Y008109D01*
X017820Y008553D01*
G37*
G36*
X017959Y008692D02*
X018041Y008774D01*
X018485Y008330D01*
X018403Y008248D01*
X017959Y008692D01*
G37*
G36*
X018099Y008831D02*
X018181Y008913D01*
X018625Y008469D01*
X018543Y008387D01*
X018099Y008831D01*
G37*
G36*
X019825Y007105D02*
X019907Y007187D01*
X020351Y006743D01*
X020269Y006661D01*
X019825Y007105D01*
G37*
G36*
X019685Y006966D02*
X019767Y007048D01*
X020211Y006604D01*
X020129Y006522D01*
X019685Y006966D01*
G37*
G36*
X019546Y006827D02*
X019628Y006909D01*
X020072Y006465D01*
X019990Y006383D01*
X019546Y006827D01*
G37*
G36*
X019407Y006688D02*
X019489Y006770D01*
X019933Y006326D01*
X019851Y006244D01*
X019407Y006688D01*
G37*
G36*
X019268Y006548D02*
X019350Y006630D01*
X019794Y006186D01*
X019712Y006104D01*
X019268Y006548D01*
G37*
G36*
X019129Y006409D02*
X019211Y006491D01*
X019655Y006047D01*
X019573Y005965D01*
X019129Y006409D01*
G37*
G36*
X018989Y006270D02*
X019071Y006352D01*
X019515Y005908D01*
X019433Y005826D01*
X018989Y006270D01*
G37*
G36*
X018850Y006131D02*
X018932Y006213D01*
X019376Y005769D01*
X019294Y005687D01*
X018850Y006131D01*
G37*
D24*
G36*
X018099Y005769D02*
X018543Y006213D01*
X018625Y006131D01*
X018181Y005687D01*
X018099Y005769D01*
G37*
G36*
X017959Y005908D02*
X018403Y006352D01*
X018485Y006270D01*
X018041Y005826D01*
X017959Y005908D01*
G37*
G36*
X017820Y006047D02*
X018264Y006491D01*
X018346Y006409D01*
X017902Y005965D01*
X017820Y006047D01*
G37*
G36*
X017681Y006186D02*
X018125Y006630D01*
X018207Y006548D01*
X017763Y006104D01*
X017681Y006186D01*
G37*
G36*
X017542Y006326D02*
X017986Y006770D01*
X018068Y006688D01*
X017624Y006244D01*
X017542Y006326D01*
G37*
G36*
X017403Y006465D02*
X017847Y006909D01*
X017929Y006827D01*
X017485Y006383D01*
X017403Y006465D01*
G37*
G36*
X017263Y006604D02*
X017707Y007048D01*
X017789Y006966D01*
X017345Y006522D01*
X017263Y006604D01*
G37*
G36*
X017124Y006743D02*
X017568Y007187D01*
X017650Y007105D01*
X017206Y006661D01*
X017124Y006743D01*
G37*
G36*
X019825Y007495D02*
X020269Y007939D01*
X020351Y007857D01*
X019907Y007413D01*
X019825Y007495D01*
G37*
G36*
X019685Y007634D02*
X020129Y008078D01*
X020211Y007996D01*
X019767Y007552D01*
X019685Y007634D01*
G37*
G36*
X019546Y007773D02*
X019990Y008217D01*
X020072Y008135D01*
X019628Y007691D01*
X019546Y007773D01*
G37*
G36*
X019407Y007912D02*
X019851Y008356D01*
X019933Y008274D01*
X019489Y007830D01*
X019407Y007912D01*
G37*
G36*
X019268Y008052D02*
X019712Y008496D01*
X019794Y008414D01*
X019350Y007970D01*
X019268Y008052D01*
G37*
G36*
X019129Y008191D02*
X019573Y008635D01*
X019655Y008553D01*
X019211Y008109D01*
X019129Y008191D01*
G37*
G36*
X018989Y008330D02*
X019433Y008774D01*
X019515Y008692D01*
X019071Y008248D01*
X018989Y008330D01*
G37*
G36*
X018850Y008469D02*
X019294Y008913D01*
X019376Y008831D01*
X018932Y008387D01*
X018850Y008469D01*
G37*
D25*
X015461Y007578D02*
X014847Y007578D01*
X014847Y006594D02*
X015461Y006594D01*
X015461Y005806D02*
X014847Y005806D01*
X014847Y004822D02*
X015461Y004822D01*
D26*
X014087Y003613D03*
X014087Y008787D03*
D27*
X011085Y008600D03*
X009589Y008600D03*
D28*
X018387Y003755D03*
X018887Y003755D03*
X019387Y003755D03*
X019887Y003755D03*
X020387Y003755D03*
X020887Y003755D03*
X021387Y003755D03*
X021387Y001520D03*
X020887Y001520D03*
X020387Y001520D03*
X019887Y001520D03*
X019387Y001520D03*
X018887Y001520D03*
X018387Y001520D03*
D29*
X033337Y006700D03*
X034337Y006700D03*
X035337Y006700D03*
D30*
X032421Y010076D03*
X031554Y010450D03*
X032421Y010824D03*
D31*
G36*
X029116Y008567D02*
X028700Y008151D01*
X028562Y008289D01*
X028978Y008705D01*
X029116Y008567D01*
G37*
G36*
X029338Y008344D02*
X028922Y007928D01*
X028784Y008066D01*
X029200Y008482D01*
X029338Y008344D01*
G37*
G36*
X029561Y008122D02*
X029145Y007706D01*
X029007Y007844D01*
X029423Y008260D01*
X029561Y008122D01*
G37*
G36*
X029784Y007899D02*
X029368Y007483D01*
X029230Y007621D01*
X029646Y008037D01*
X029784Y007899D01*
G37*
G36*
X030006Y007676D02*
X029590Y007260D01*
X029452Y007398D01*
X029868Y007814D01*
X030006Y007676D01*
G37*
G36*
X030229Y007454D02*
X029813Y007038D01*
X029675Y007176D01*
X030091Y007592D01*
X030229Y007454D01*
G37*
G36*
X030452Y007231D02*
X030036Y006815D01*
X029898Y006953D01*
X030314Y007369D01*
X030452Y007231D01*
G37*
G36*
X030675Y007008D02*
X030259Y006592D01*
X030121Y006730D01*
X030537Y007146D01*
X030675Y007008D01*
G37*
G36*
X030897Y006786D02*
X030481Y006370D01*
X030343Y006508D01*
X030759Y006924D01*
X030897Y006786D01*
G37*
G36*
X031120Y006563D02*
X030704Y006147D01*
X030566Y006285D01*
X030982Y006701D01*
X031120Y006563D01*
G37*
G36*
X031343Y006340D02*
X030927Y005924D01*
X030789Y006062D01*
X031205Y006478D01*
X031343Y006340D01*
G37*
G36*
X026332Y004892D02*
X025916Y004476D01*
X025778Y004614D01*
X026194Y005030D01*
X026332Y004892D01*
G37*
G36*
X026109Y005115D02*
X025693Y004699D01*
X025555Y004837D01*
X025971Y005253D01*
X026109Y005115D01*
G37*
G36*
X025886Y005338D02*
X025470Y004922D01*
X025332Y005060D01*
X025748Y005476D01*
X025886Y005338D01*
G37*
G36*
X026554Y004670D02*
X026138Y004254D01*
X026000Y004392D01*
X026416Y004808D01*
X026554Y004670D01*
G37*
G36*
X026777Y004447D02*
X026361Y004031D01*
X026223Y004169D01*
X026639Y004585D01*
X026777Y004447D01*
G37*
G36*
X027000Y004224D02*
X026584Y003808D01*
X026446Y003946D01*
X026862Y004362D01*
X027000Y004224D01*
G37*
G36*
X027223Y004002D02*
X026807Y003586D01*
X026669Y003724D01*
X027085Y004140D01*
X027223Y004002D01*
G37*
G36*
X027445Y003779D02*
X027029Y003363D01*
X026891Y003501D01*
X027307Y003917D01*
X027445Y003779D01*
G37*
G36*
X027668Y003556D02*
X027252Y003140D01*
X027114Y003278D01*
X027530Y003694D01*
X027668Y003556D01*
G37*
G36*
X027891Y003334D02*
X027475Y002918D01*
X027337Y003056D01*
X027753Y003472D01*
X027891Y003334D01*
G37*
G36*
X028113Y003111D02*
X027697Y002695D01*
X027559Y002833D01*
X027975Y003249D01*
X028113Y003111D01*
G37*
D32*
G36*
X029116Y002833D02*
X028978Y002695D01*
X028562Y003111D01*
X028700Y003249D01*
X029116Y002833D01*
G37*
G36*
X029338Y003056D02*
X029200Y002918D01*
X028784Y003334D01*
X028922Y003472D01*
X029338Y003056D01*
G37*
G36*
X029561Y003278D02*
X029423Y003140D01*
X029007Y003556D01*
X029145Y003694D01*
X029561Y003278D01*
G37*
G36*
X029784Y003501D02*
X029646Y003363D01*
X029230Y003779D01*
X029368Y003917D01*
X029784Y003501D01*
G37*
G36*
X030006Y003724D02*
X029868Y003586D01*
X029452Y004002D01*
X029590Y004140D01*
X030006Y003724D01*
G37*
G36*
X030229Y003946D02*
X030091Y003808D01*
X029675Y004224D01*
X029813Y004362D01*
X030229Y003946D01*
G37*
G36*
X030452Y004169D02*
X030314Y004031D01*
X029898Y004447D01*
X030036Y004585D01*
X030452Y004169D01*
G37*
G36*
X030675Y004392D02*
X030537Y004254D01*
X030121Y004670D01*
X030259Y004808D01*
X030675Y004392D01*
G37*
G36*
X030897Y004614D02*
X030759Y004476D01*
X030343Y004892D01*
X030481Y005030D01*
X030897Y004614D01*
G37*
G36*
X031120Y004837D02*
X030982Y004699D01*
X030566Y005115D01*
X030704Y005253D01*
X031120Y004837D01*
G37*
G36*
X031343Y005060D02*
X031205Y004922D01*
X030789Y005338D01*
X030927Y005476D01*
X031343Y005060D01*
G37*
G36*
X026332Y006508D02*
X026194Y006370D01*
X025778Y006786D01*
X025916Y006924D01*
X026332Y006508D01*
G37*
G36*
X026109Y006285D02*
X025971Y006147D01*
X025555Y006563D01*
X025693Y006701D01*
X026109Y006285D01*
G37*
G36*
X025886Y006062D02*
X025748Y005924D01*
X025332Y006340D01*
X025470Y006478D01*
X025886Y006062D01*
G37*
G36*
X026554Y006730D02*
X026416Y006592D01*
X026000Y007008D01*
X026138Y007146D01*
X026554Y006730D01*
G37*
G36*
X026777Y006953D02*
X026639Y006815D01*
X026223Y007231D01*
X026361Y007369D01*
X026777Y006953D01*
G37*
G36*
X027000Y007176D02*
X026862Y007038D01*
X026446Y007454D01*
X026584Y007592D01*
X027000Y007176D01*
G37*
G36*
X027223Y007398D02*
X027085Y007260D01*
X026669Y007676D01*
X026807Y007814D01*
X027223Y007398D01*
G37*
G36*
X027445Y007621D02*
X027307Y007483D01*
X026891Y007899D01*
X027029Y008037D01*
X027445Y007621D01*
G37*
G36*
X027668Y007844D02*
X027530Y007706D01*
X027114Y008122D01*
X027252Y008260D01*
X027668Y007844D01*
G37*
G36*
X027891Y008066D02*
X027753Y007928D01*
X027337Y008344D01*
X027475Y008482D01*
X027891Y008066D01*
G37*
G36*
X028113Y008289D02*
X027975Y008151D01*
X027559Y008567D01*
X027697Y008705D01*
X028113Y008289D01*
G37*
D33*
X007332Y008850D03*
X007332Y009350D03*
X007332Y009850D03*
X007332Y010350D03*
X005142Y010350D03*
X005142Y009850D03*
X005142Y009350D03*
X005142Y008850D03*
D34*
X006237Y009600D03*
D35*
X008037Y004928D03*
X008037Y003472D03*
D36*
X007597Y006950D03*
X006077Y006950D03*
D37*
X006197Y003220D03*
X005287Y003220D03*
X004377Y003220D03*
D38*
X005287Y000780D03*
D39*
X024937Y001300D03*
X026937Y001300D03*
X017837Y010800D03*
X015837Y010800D03*
D40*
X004370Y007680D02*
X003605Y007680D01*
D41*
X003522Y004800D02*
X004152Y004800D01*
D42*
X004137Y006100D02*
X003537Y006100D01*
D43*
X029907Y011450D02*
X030837Y011450D01*
X034837Y011450D01*
X035337Y010950D01*
D44*
X035337Y009700D01*
X034837Y009200D01*
X034087Y009200D01*
X033147Y009200D01*
X033087Y009260D01*
X032168Y009260D01*
X032128Y009300D01*
X032187Y009260D01*
X031147Y009260D01*
X031087Y009200D01*
X030337Y008450D01*
X030337Y007700D01*
X029087Y007100D02*
X028137Y006150D01*
X027287Y006100D02*
X027287Y006750D01*
X028187Y005550D02*
X029087Y006450D01*
X027287Y006100D02*
X027287Y005300D01*
X027612Y004975D01*
X027387Y004750D01*
X027612Y004975D02*
X028187Y005550D01*
X028187Y005400D01*
X029137Y004450D01*
X028137Y004700D02*
X027837Y004400D01*
X027637Y004400D01*
X029237Y005245D02*
X029587Y004895D01*
X029237Y005245D02*
X029237Y005300D01*
X033778Y005450D02*
X033778Y006140D01*
X034337Y006700D01*
X035087Y007450D01*
X035087Y008400D01*
X034087Y008400D02*
X034087Y008290D01*
X036087Y008400D02*
X036087Y007450D01*
X035337Y006700D01*
X034897Y006260D01*
X035337Y006700D01*
X034897Y006260D01*
X034897Y005450D01*
X034957Y005510D01*
X035837Y005510D01*
X036087Y005760D01*
X036087Y005700D01*
X036587Y006200D01*
X037837Y006200D01*
X038337Y006700D01*
X034897Y005450D02*
X034897Y004450D01*
X034957Y004390D01*
X034897Y004450D02*
X034897Y003450D01*
X036087Y003450D02*
X036087Y003950D01*
X035587Y003950D01*
X036087Y003950D01*
X036087Y004640D01*
X036087Y003450D02*
X036087Y002700D01*
X029097Y001350D02*
X029087Y001290D01*
X029087Y000450D01*
X031837Y000450D01*
X032337Y000450D01*
X035337Y000450D01*
X031337Y000450D02*
X029087Y000450D01*
X023837Y000450D01*
X023537Y000750D01*
X023537Y002000D01*
X023737Y002200D01*
X019937Y002200D02*
X019837Y002200D01*
X019337Y002200D01*
X018937Y002200D01*
X018887Y002150D02*
X018637Y002400D01*
X018337Y002400D01*
X017237Y002400D02*
X017237Y002200D01*
X017237Y002700D02*
X016637Y003300D01*
X012037Y005100D02*
X011037Y004100D01*
X010637Y004500D02*
X010937Y004800D01*
X010937Y005500D01*
X011437Y006000D01*
X011487Y006050D01*
X011237Y006300D01*
X011237Y006800D01*
X011237Y007600D01*
X011937Y008300D01*
X011086Y008601D02*
X011085Y008600D01*
X011086Y008601D02*
X011086Y009400D01*
X011317Y010346D02*
X012189Y009474D01*
X012189Y009400D01*
X009589Y008600D02*
X009537Y008548D01*
X009537Y008100D01*
X009637Y008000D01*
X009737Y007900D01*
X007597Y006950D02*
X007332Y007215D01*
X007332Y008850D01*
X006237Y008900D02*
X006237Y008600D01*
X006187Y008850D02*
X006237Y008900D01*
X006237Y009600D01*
X005987Y009350D01*
X005937Y009350D01*
X005142Y009350D01*
X004387Y009350D01*
X004337Y009400D01*
X004687Y009850D02*
X004437Y010100D01*
X004437Y010600D01*
X004937Y011100D01*
X005037Y011200D01*
X005137Y011300D01*
X006037Y011300D01*
X005937Y010800D02*
X006537Y010800D01*
X005937Y010800D02*
X005487Y010350D01*
X005142Y010350D01*
X005142Y009850D02*
X004687Y009850D01*
X007332Y010350D02*
X007628Y010350D01*
X007837Y010560D01*
X007837Y011200D01*
X006187Y008850D02*
X005142Y008850D01*
X006137Y007700D02*
X006837Y008400D01*
X006137Y007700D02*
X006137Y006740D01*
X006077Y006950D01*
X007597Y006950D02*
X007737Y006740D01*
X007637Y006760D02*
X007637Y006100D01*
X007737Y006000D01*
X007637Y006760D02*
X007597Y006950D01*
X011487Y006050D02*
X011896Y006050D01*
X012142Y006296D01*
X012137Y005500D02*
X012037Y005400D01*
X012037Y005100D01*
X017337Y005000D02*
X019437Y005000D01*
X019637Y005200D01*
X021637Y005000D02*
X022237Y004400D01*
X022537Y004100D01*
X023437Y004100D01*
X023878Y004100D01*
X023837Y004140D01*
X023778Y003950D01*
X023837Y004140D02*
X023897Y004200D01*
X023897Y004260D01*
X023237Y004600D02*
X022837Y004600D01*
X023237Y004600D02*
X023778Y005140D01*
X023778Y005200D01*
X023837Y005260D01*
X023837Y005950D01*
X023837Y006400D01*
X024337Y006900D01*
X024587Y007150D01*
X024587Y007260D01*
X024297Y007550D01*
X023837Y007550D01*
X023637Y007750D01*
X023637Y007900D01*
X023637Y008650D01*
X023637Y009200D01*
X023237Y009600D01*
X023237Y009700D01*
X023237Y009900D01*
X022887Y010250D01*
X022837Y010250D01*
X022037Y009450D01*
X021587Y009450D01*
X021137Y009900D01*
X021087Y009950D01*
X021087Y010880D01*
X020147Y009790D02*
X020147Y009600D01*
X020137Y009590D01*
X020247Y009590D01*
X020737Y009100D01*
X020187Y009460D02*
X020147Y009600D01*
X016637Y008900D02*
X016637Y008700D01*
X016637Y008900D02*
X016337Y009200D01*
X016337Y009260D01*
X018837Y007900D02*
X019437Y007300D01*
X021587Y006450D02*
X021637Y006400D01*
X023837Y005950D02*
X023837Y005260D01*
X024587Y005450D02*
X024587Y006140D01*
X024528Y007200D02*
X024587Y007260D01*
X032711Y010076D02*
X032837Y009950D01*
X034337Y009950D01*
X034397Y010010D01*
X034397Y010700D01*
X032711Y010076D02*
X032421Y010076D01*
X031554Y010450D02*
X031267Y010450D01*
X030837Y010880D01*
X030337Y010880D01*
X034337Y009950D02*
X034587Y009950D01*
X034837Y009950D01*
X008037Y003400D02*
X007937Y003400D01*
X011137Y001700D02*
X011137Y000500D01*
X029087Y000450D02*
X029837Y000450D01*
X030587Y000450D01*
X031337Y000450D01*
D45*
X031397Y001300D02*
X030297Y002400D01*
X030278Y002400D01*
X030437Y002560D01*
X030437Y003000D01*
X030628Y003190D01*
X030628Y003855D01*
X030175Y004308D01*
X029587Y004895D01*
X030398Y004531D02*
X030628Y004300D01*
X030737Y004300D01*
X031037Y004300D01*
X032037Y005300D01*
X032037Y005400D01*
X032037Y006900D01*
X032637Y007500D01*
X030337Y007700D02*
X029087Y006450D01*
X029587Y006950D01*
X029952Y007315D01*
X029729Y007537D02*
X029392Y007200D01*
X029292Y007100D01*
X029087Y007100D01*
X027287Y007195D02*
X027287Y006750D01*
X027287Y007195D02*
X027187Y007295D01*
X026946Y007537D01*
X026723Y007315D02*
X026337Y007700D01*
X026337Y007950D01*
X029837Y008300D02*
X029837Y008700D01*
X030337Y009200D01*
X030337Y009880D01*
X032345Y010900D02*
X032421Y010824D01*
X032345Y010900D02*
X031937Y010900D01*
X031837Y011000D01*
X031387Y011000D01*
X037587Y007950D02*
X037837Y008200D01*
X038837Y008200D01*
X039087Y007950D01*
X039087Y006700D01*
X038837Y006450D01*
X038587Y006950D02*
X038337Y006700D01*
X038087Y006950D02*
X037837Y006700D01*
X036337Y006700D01*
X036087Y006450D01*
X038087Y006950D02*
X038087Y007480D01*
X038587Y007480D02*
X038587Y006950D01*
X037587Y007480D02*
X037587Y007950D01*
X037087Y007480D02*
X037087Y007300D01*
X036837Y007300D01*
X036587Y007300D01*
X036867Y005420D02*
X037087Y005420D01*
X037087Y005450D01*
X037587Y005420D02*
X037587Y004950D01*
X037337Y004700D01*
X037865Y004200D02*
X038087Y004422D01*
X038087Y005420D01*
X038587Y005420D02*
X038587Y004422D01*
X038810Y004200D01*
X034337Y004200D02*
X034337Y002950D01*
X034587Y002700D01*
X035337Y002700D01*
X035587Y002700D01*
X033437Y004450D02*
X032737Y003750D01*
X031687Y004300D02*
X031397Y004010D01*
X031397Y002400D01*
X027978Y001350D02*
X027637Y001350D01*
X026937Y001350D01*
X026937Y001550D01*
X026187Y002300D01*
X025687Y002800D01*
X025687Y003495D01*
X026500Y004308D01*
X026723Y004085D02*
X027087Y004450D01*
X027387Y004750D01*
X027483Y004400D02*
X027637Y004400D01*
X027483Y004400D02*
X027283Y004200D01*
X026946Y003863D01*
X027168Y003640D02*
X027168Y003631D01*
X026277Y004531D02*
X024947Y003201D01*
X024897Y002900D01*
X024897Y001300D01*
X024937Y001300D01*
X026937Y001350D02*
X026937Y001300D01*
X020387Y001520D02*
X020387Y001950D01*
X020137Y002200D01*
X019937Y002200D01*
X019887Y002250D02*
X020087Y002250D01*
X020137Y002300D01*
X020137Y003100D01*
X019937Y003300D01*
X019887Y003350D01*
X019887Y003755D01*
X019887Y004250D01*
X020037Y004400D01*
X021137Y004400D01*
X021237Y004400D01*
X021337Y004300D01*
X021387Y004250D01*
X021387Y003755D01*
X018387Y003755D02*
X018342Y003800D01*
X018137Y003800D01*
X017837Y004100D01*
X018387Y003755D02*
X018387Y002450D01*
X018337Y002400D01*
X018887Y002150D02*
X018937Y002200D01*
X018887Y002150D02*
X018887Y001520D01*
X019387Y001520D02*
X019387Y002150D01*
X019337Y002200D01*
X019837Y002200D02*
X019887Y002250D01*
X018217Y001520D02*
X017937Y001800D01*
X018217Y001520D02*
X018387Y001520D01*
X013837Y001100D02*
X013687Y001250D01*
X013176Y001250D01*
X012437Y001500D02*
X012437Y003000D01*
X012437Y003300D01*
X012037Y003700D01*
X012037Y004200D01*
X011537Y003800D02*
X011537Y003500D01*
X011737Y003300D01*
X011737Y002311D01*
X013176Y002250D02*
X013226Y002300D01*
X013637Y002300D01*
X013837Y002500D01*
X012437Y001500D02*
X012187Y001250D01*
X011798Y001250D01*
X029137Y004450D02*
X029587Y004450D01*
X029952Y004085D01*
X033437Y004450D02*
X033587Y004450D01*
X033837Y004450D01*
X034087Y004450D01*
X034337Y004200D01*
X033778Y004450D02*
X033587Y004450D01*
X018837Y007900D02*
X018537Y008200D01*
X016795Y008342D02*
X016637Y008500D01*
X016637Y008700D01*
X018028Y010800D02*
X019028Y009600D01*
X018197Y009640D02*
X017637Y010200D01*
X017337Y010200D01*
X017037Y010500D01*
X016737Y010800D01*
X015837Y010800D01*
X011002Y011054D02*
X010557Y011500D01*
X008637Y011500D01*
X008237Y011100D01*
X008237Y010300D01*
X008537Y010000D01*
X008537Y007400D01*
X007332Y008805D02*
X007332Y008850D01*
D46*
X006237Y008600D03*
X006837Y008400D03*
X005137Y008000D03*
X008537Y007400D03*
X009337Y007400D03*
X009737Y007900D03*
X011937Y008300D03*
X013237Y009400D03*
X016037Y008700D03*
X017137Y008800D03*
X017637Y009000D03*
X016337Y009200D03*
X019637Y009000D03*
X020737Y009100D03*
X024237Y008000D03*
X023837Y007550D03*
X023737Y007000D03*
X025237Y007000D03*
X026787Y006500D03*
X027987Y006650D03*
X028137Y006150D03*
X029637Y006450D03*
X030037Y005950D03*
X031337Y005500D03*
X029237Y005300D03*
X028137Y004700D03*
X028537Y004400D03*
X028837Y003900D03*
X028437Y003600D03*
X029837Y003100D03*
X028337Y002800D03*
X027637Y002400D03*
X026837Y002700D03*
X026337Y003100D03*
X026337Y003600D03*
X024537Y003750D03*
X023187Y003650D03*
X021837Y003100D03*
X021287Y002950D03*
X022337Y002500D03*
X021637Y002350D03*
X020787Y002450D03*
X019637Y003000D03*
X017637Y003300D03*
X016637Y003300D03*
X014337Y002500D03*
X013837Y002500D03*
X014037Y001900D03*
X013837Y001100D03*
X011137Y001700D03*
X009037Y003400D03*
X011037Y004100D03*
X010637Y004500D03*
X012037Y004200D03*
X011537Y003800D03*
X010421Y005016D03*
X010409Y005528D03*
X010837Y006100D03*
X011737Y006600D03*
X011237Y006800D03*
X008537Y006000D03*
X017337Y005000D03*
X017637Y005500D03*
X019637Y005200D03*
X020737Y005100D03*
X020237Y005600D03*
X023087Y005100D03*
X022837Y004600D03*
X025237Y005400D03*
X026387Y005250D03*
X026837Y004900D03*
X025237Y005900D03*
X028037Y007200D03*
X028387Y007650D03*
X029837Y008300D03*
X031087Y007950D03*
X031387Y008400D03*
X032637Y007500D03*
X031487Y007350D03*
X031087Y007050D03*
X026337Y007950D03*
X025687Y008450D03*
X025337Y008950D03*
X028887Y009200D03*
X023787Y010450D03*
X021737Y010300D03*
X021737Y010800D03*
X022337Y011200D03*
X023237Y011200D03*
X031387Y011000D03*
X034837Y009950D03*
X036587Y007300D03*
X036087Y006450D03*
X038837Y006450D03*
X037337Y004700D03*
X035587Y003950D03*
X033137Y003100D03*
X032737Y003750D03*
X031687Y004300D03*
X035587Y002700D03*
X028937Y002340D03*
X023037Y001600D03*
X022487Y001700D03*
X022837Y002100D03*
X017937Y001800D03*
X017837Y004100D03*
X019037Y006900D03*
X019437Y007300D03*
X018837Y007900D03*
X007837Y011200D03*
X006537Y010800D03*
X006037Y011300D03*
X004337Y009400D03*
D47*
X001016Y000629D02*
X001321Y000453D01*
X001661Y000362D01*
X001837Y000350D01*
X003523Y000350D01*
X003516Y000355D01*
X003515Y000362D01*
X003500Y000377D01*
X003492Y000378D01*
X003478Y000399D01*
X003461Y000416D01*
X003461Y000423D01*
X003449Y000441D01*
X003442Y000443D01*
X003431Y000466D01*
X003417Y000486D01*
X003419Y000493D01*
X003410Y000512D01*
X003403Y000516D01*
X003397Y000540D01*
X003386Y000562D01*
X003389Y000569D01*
X003383Y000589D01*
X003378Y000594D01*
X001076Y000594D01*
X001016Y000629D02*
X000766Y000878D01*
X000590Y001183D01*
X000499Y001524D01*
X000487Y001700D01*
X000487Y010196D01*
X000499Y010372D01*
X000590Y010713D01*
X000590Y010713D01*
X000766Y011018D01*
X001016Y011267D01*
X001321Y011443D01*
X001661Y011535D01*
X001837Y011546D01*
X005000Y011546D01*
X004979Y011537D01*
X004900Y011459D01*
X004800Y011359D01*
X004700Y011259D01*
X004200Y010759D01*
X004157Y010656D01*
X004157Y010044D01*
X004200Y009941D01*
X004279Y009863D01*
X004529Y009613D01*
X004632Y009570D01*
X004655Y009570D01*
X004647Y009562D01*
X004628Y009528D01*
X004617Y009490D01*
X004617Y009360D01*
X005132Y009360D01*
X005132Y009340D01*
X004617Y009340D01*
X004617Y009210D01*
X004628Y009172D01*
X004647Y009138D01*
X004675Y009110D01*
X004693Y009100D01*
X004675Y009090D01*
X004647Y009062D01*
X004628Y009028D01*
X004617Y008990D01*
X004617Y008860D01*
X005132Y008860D01*
X005132Y008840D01*
X004617Y008840D01*
X004617Y008710D01*
X004628Y008672D01*
X004647Y008638D01*
X004675Y008610D01*
X004710Y008590D01*
X004748Y008580D01*
X005132Y008580D01*
X005132Y008840D01*
X005152Y008840D01*
X005152Y008580D01*
X005537Y008580D01*
X005575Y008590D01*
X005610Y008610D01*
X005637Y008638D01*
X005657Y008672D01*
X005667Y008710D01*
X005667Y008840D01*
X005152Y008840D01*
X005152Y008860D01*
X005132Y008860D01*
X005132Y009340D01*
X005152Y009340D01*
X005152Y009080D01*
X005152Y008860D01*
X005667Y008860D01*
X005667Y008873D01*
X005670Y008870D01*
X005705Y008850D01*
X005743Y008840D01*
X006187Y008840D01*
X006187Y009550D01*
X005644Y009550D01*
X005637Y009562D01*
X005610Y009590D01*
X005579Y009608D01*
X005621Y009650D01*
X006187Y009650D01*
X006187Y009550D01*
X006287Y009550D01*
X006287Y008840D01*
X006732Y008840D01*
X006770Y008850D01*
X006805Y008870D01*
X006827Y008893D01*
X006827Y008730D01*
X006772Y008730D01*
X006651Y008680D01*
X006558Y008587D01*
X006508Y008466D01*
X006301Y008260D01*
X005544Y008260D01*
X005471Y008187D01*
X005460Y008215D01*
X005353Y008322D01*
X005213Y008380D01*
X005062Y008380D01*
X004922Y008322D01*
X004815Y008215D01*
X004757Y008076D01*
X004757Y008046D01*
X004717Y008086D01*
X004649Y008135D01*
X004574Y008173D01*
X004495Y008199D01*
X004412Y008212D01*
X004037Y008212D01*
X004037Y007730D01*
X003937Y007730D01*
X003937Y007630D01*
X003074Y007630D01*
X003086Y007555D01*
X003111Y007476D01*
X003150Y007401D01*
X003199Y007333D01*
X003258Y007274D01*
X003326Y007225D01*
X003401Y007187D01*
X003480Y007161D01*
X003563Y007148D01*
X003937Y007148D01*
X003937Y007630D01*
X004037Y007630D01*
X004037Y007148D01*
X004412Y007148D01*
X004495Y007161D01*
X004574Y007187D01*
X004649Y007225D01*
X004717Y007274D01*
X004757Y007314D01*
X004757Y005657D01*
X004422Y005322D01*
X000487Y005322D01*
X000487Y005224D02*
X003382Y005224D01*
X003434Y005245D02*
X003270Y005177D01*
X003145Y005052D01*
X003077Y004889D01*
X003077Y004711D01*
X003145Y004548D01*
X003270Y004423D01*
X003434Y004355D01*
X004241Y004355D01*
X004398Y004420D01*
X004513Y004420D01*
X004653Y004478D01*
X004960Y004785D01*
X005460Y005285D01*
X005517Y005424D01*
X005517Y005666D01*
X005544Y005640D01*
X006611Y005640D01*
X006687Y005716D01*
X006988Y005716D01*
X006987Y005716D02*
X007064Y005640D01*
X007614Y005640D01*
X007662Y005620D01*
X008613Y005620D01*
X008753Y005678D01*
X008757Y005683D01*
X008757Y004125D01*
X008863Y004020D01*
X009103Y003780D01*
X008325Y003780D01*
X008325Y003998D01*
X008249Y004074D01*
X007826Y004074D01*
X007750Y003998D01*
X007750Y003780D01*
X006552Y003780D01*
X006516Y003765D01*
X006491Y003790D01*
X005904Y003790D01*
X005827Y003714D01*
X005827Y002727D01*
X005657Y002897D01*
X005657Y003714D01*
X005581Y003790D01*
X004994Y003790D01*
X004917Y003714D01*
X004917Y002726D01*
X004992Y002652D01*
X005008Y002613D01*
X006307Y001313D01*
X006307Y000734D01*
X006358Y000613D01*
X006621Y000350D01*
X006146Y000350D01*
X006146Y000730D01*
X005337Y000730D01*
X005337Y000830D01*
X005237Y000830D01*
X005237Y000730D01*
X004429Y000730D01*
X004429Y000350D01*
X004152Y000350D01*
X004159Y000355D01*
X004160Y000362D01*
X004175Y000377D01*
X004183Y000378D01*
X004197Y000399D01*
X004214Y000416D01*
X004214Y000423D01*
X004226Y000441D01*
X004233Y000443D01*
X004244Y000466D01*
X004258Y000486D01*
X004256Y000493D01*
X004265Y000512D01*
X004272Y000516D01*
X004278Y000540D01*
X004289Y000562D01*
X004286Y000569D01*
X004291Y000589D01*
X004297Y000594D01*
X004429Y000594D01*
X004429Y000496D02*
X004258Y000496D01*
X004297Y000594D02*
X004299Y000619D01*
X004306Y000642D01*
X004302Y000649D01*
X004304Y000670D01*
X004309Y000676D01*
X004306Y000700D01*
X004309Y000724D01*
X004304Y000730D01*
X004302Y000751D01*
X004306Y000758D01*
X004299Y000781D01*
X004297Y000806D01*
X004291Y000811D01*
X004286Y000831D01*
X004289Y000838D01*
X004278Y000860D01*
X004272Y000884D01*
X004265Y000888D01*
X004256Y000907D01*
X004258Y000914D01*
X004244Y000934D01*
X004233Y000957D01*
X004226Y000959D01*
X004214Y000977D01*
X004214Y000984D01*
X004197Y001001D01*
X004183Y001022D01*
X004175Y001023D01*
X004160Y001038D01*
X004159Y001045D01*
X004139Y001059D01*
X004122Y001077D01*
X004114Y001077D01*
X004097Y001089D01*
X004094Y001096D01*
X004072Y001106D01*
X004052Y001120D01*
X004045Y001119D01*
X004025Y001128D01*
X004022Y001134D01*
X003998Y001141D01*
X003976Y001151D01*
X003969Y001149D01*
X003948Y001154D01*
X003943Y001160D01*
X003919Y001162D01*
X003895Y001168D01*
X003889Y001164D01*
X003868Y001166D01*
X003862Y001171D01*
X003837Y001169D01*
X003813Y001171D01*
X003807Y001166D01*
X003786Y001164D01*
X003780Y001168D01*
X003756Y001162D01*
X003732Y001160D01*
X003727Y001154D01*
X003706Y001149D01*
X003699Y001151D01*
X003677Y001141D01*
X003653Y001134D01*
X003650Y001128D01*
X003630Y001119D01*
X003623Y001120D01*
X003603Y001106D01*
X003581Y001096D01*
X003578Y001089D01*
X003561Y001077D01*
X003553Y001077D01*
X003536Y001059D01*
X003516Y001045D01*
X003515Y001038D01*
X003500Y001023D01*
X003492Y001022D01*
X003478Y001001D01*
X003461Y000984D01*
X003461Y000977D01*
X003449Y000959D01*
X003442Y000957D01*
X003431Y000934D01*
X003417Y000914D01*
X003419Y000907D01*
X003410Y000888D01*
X003403Y000884D01*
X003397Y000860D01*
X003386Y000838D01*
X003389Y000831D01*
X003383Y000811D01*
X003378Y000806D01*
X003376Y000781D01*
X003369Y000758D01*
X003373Y000751D01*
X003371Y000730D01*
X003366Y000724D01*
X003368Y000700D01*
X003366Y000676D01*
X003371Y000670D01*
X003373Y000649D01*
X003369Y000642D01*
X003376Y000619D01*
X003378Y000594D01*
X003368Y000693D02*
X002541Y000693D01*
X002532Y000687D02*
X002823Y000856D01*
X003062Y001094D01*
X003230Y001386D01*
X003317Y001711D01*
X003317Y002049D01*
X003230Y002374D01*
X003062Y002666D01*
X002823Y002904D01*
X002532Y003073D01*
X002206Y003160D01*
X001869Y003160D01*
X001543Y003073D01*
X001252Y002904D01*
X001013Y002666D01*
X000845Y002374D01*
X000757Y002049D01*
X000757Y001711D01*
X000845Y001386D01*
X001013Y001094D01*
X001252Y000856D01*
X001543Y000687D01*
X001869Y000600D01*
X002206Y000600D01*
X002532Y000687D01*
X002711Y000791D02*
X003376Y000791D01*
X003410Y000890D02*
X002857Y000890D01*
X002956Y000988D02*
X003465Y000988D01*
X003575Y001087D02*
X003054Y001087D01*
X003114Y001185D02*
X004429Y001185D01*
X004429Y001233D02*
X004429Y000830D01*
X005237Y000830D01*
X005237Y001363D01*
X004559Y001363D01*
X004521Y001353D01*
X004487Y001333D01*
X004459Y001305D01*
X004439Y001271D01*
X004429Y001233D01*
X004446Y001284D02*
X003171Y001284D01*
X003228Y001382D02*
X006239Y001382D01*
X006307Y001284D02*
X006129Y001284D01*
X006136Y001271D02*
X006116Y001305D01*
X006088Y001333D01*
X006054Y001353D01*
X006016Y001363D01*
X005337Y001363D01*
X005337Y000830D01*
X006146Y000830D01*
X006146Y001233D01*
X006136Y001271D01*
X006146Y001185D02*
X006307Y001185D01*
X006307Y001087D02*
X006146Y001087D01*
X006146Y000988D02*
X006307Y000988D01*
X006307Y000890D02*
X006146Y000890D01*
X006307Y000791D02*
X005337Y000791D01*
X005337Y000890D02*
X005237Y000890D01*
X005237Y000988D02*
X005337Y000988D01*
X005337Y001087D02*
X005237Y001087D01*
X005237Y001185D02*
X005337Y001185D01*
X005337Y001284D02*
X005237Y001284D01*
X004429Y001087D02*
X004100Y001087D01*
X004210Y000988D02*
X004429Y000988D01*
X004429Y000890D02*
X004265Y000890D01*
X004298Y000791D02*
X005237Y000791D01*
X004429Y000693D02*
X004307Y000693D01*
X004196Y000397D02*
X004429Y000397D01*
X003479Y000397D02*
X001529Y000397D01*
X001247Y000496D02*
X003417Y000496D01*
X001534Y000693D02*
X000952Y000693D01*
X000854Y000791D02*
X001364Y000791D01*
X001218Y000890D02*
X000760Y000890D01*
X000703Y000988D02*
X001119Y000988D01*
X001021Y001087D02*
X000646Y001087D01*
X000590Y001185D02*
X000961Y001185D01*
X000904Y001284D02*
X000563Y001284D01*
X000537Y001382D02*
X000847Y001382D01*
X000819Y001481D02*
X000511Y001481D01*
X000495Y001579D02*
X000793Y001579D01*
X000767Y001678D02*
X000489Y001678D01*
X000487Y001776D02*
X000757Y001776D01*
X000757Y001875D02*
X000487Y001875D01*
X000487Y001973D02*
X000757Y001973D01*
X000764Y002072D02*
X000487Y002072D01*
X000487Y002170D02*
X000790Y002170D01*
X000816Y002269D02*
X000487Y002269D01*
X000487Y002367D02*
X000843Y002367D01*
X000897Y002466D02*
X000487Y002466D01*
X000487Y002564D02*
X000954Y002564D01*
X001011Y002663D02*
X000487Y002663D01*
X000487Y002761D02*
X001108Y002761D01*
X001207Y002860D02*
X000487Y002860D01*
X000487Y002958D02*
X001345Y002958D01*
X001515Y003057D02*
X000487Y003057D01*
X000487Y003155D02*
X001850Y003155D01*
X002225Y003155D02*
X003987Y003155D01*
X003987Y003170D02*
X003987Y002760D01*
X003998Y002722D01*
X004017Y002688D01*
X004045Y002660D01*
X004080Y002640D01*
X004118Y002630D01*
X004327Y002630D01*
X004327Y003170D01*
X003987Y003170D01*
X003987Y003270D02*
X004327Y003270D01*
X004327Y003170D01*
X004427Y003170D01*
X004427Y002630D01*
X004637Y002630D01*
X004675Y002640D01*
X004710Y002660D01*
X004737Y002688D01*
X004757Y002722D01*
X004767Y002760D01*
X004767Y003170D01*
X004427Y003170D01*
X004427Y003270D01*
X004327Y003270D01*
X004327Y003810D01*
X004118Y003810D01*
X004080Y003800D01*
X004045Y003780D01*
X004017Y003752D01*
X003998Y003718D01*
X003987Y003680D01*
X003987Y003270D01*
X003987Y003352D02*
X000487Y003352D01*
X000487Y003254D02*
X004327Y003254D01*
X004327Y003352D02*
X004427Y003352D01*
X004427Y003270D02*
X004427Y003810D01*
X004637Y003810D01*
X004675Y003800D01*
X004710Y003780D01*
X004737Y003752D01*
X004757Y003718D01*
X004767Y003680D01*
X004767Y003270D01*
X004427Y003270D01*
X004427Y003254D02*
X004917Y003254D01*
X004917Y003352D02*
X004767Y003352D01*
X004767Y003451D02*
X004917Y003451D01*
X004917Y003549D02*
X004767Y003549D01*
X004767Y003648D02*
X004917Y003648D01*
X004950Y003746D02*
X004741Y003746D01*
X004427Y003746D02*
X004327Y003746D01*
X004327Y003648D02*
X004427Y003648D01*
X004427Y003549D02*
X004327Y003549D01*
X004327Y003451D02*
X004427Y003451D01*
X003987Y003451D02*
X000487Y003451D01*
X000487Y003549D02*
X003987Y003549D01*
X003987Y003648D02*
X000487Y003648D01*
X000487Y003746D02*
X004014Y003746D01*
X005625Y003746D02*
X005860Y003746D01*
X005827Y003648D02*
X005657Y003648D01*
X005657Y003549D02*
X005827Y003549D01*
X005827Y003451D02*
X005657Y003451D01*
X005657Y003352D02*
X005827Y003352D01*
X005827Y003254D02*
X005657Y003254D01*
X005657Y003155D02*
X005827Y003155D01*
X005827Y003057D02*
X005657Y003057D01*
X005657Y002958D02*
X005827Y002958D01*
X005827Y002860D02*
X005695Y002860D01*
X005793Y002761D02*
X005827Y002761D01*
X005904Y002650D02*
X006491Y002650D01*
X006567Y002726D01*
X006567Y002913D01*
X006634Y002940D01*
X006714Y003020D01*
X007750Y003020D01*
X007750Y002945D01*
X007826Y002869D01*
X008249Y002869D01*
X008325Y002945D01*
X008325Y003020D01*
X008880Y003020D01*
X009207Y002693D01*
X009207Y002428D01*
X009157Y002378D01*
X009157Y002022D01*
X009409Y001770D01*
X009766Y001770D01*
X010017Y002022D01*
X010017Y002378D01*
X009967Y002428D01*
X009967Y002926D01*
X009910Y003065D01*
X009418Y003557D01*
X009451Y003557D01*
X009469Y003538D01*
X010127Y003538D01*
X010203Y003614D01*
X010203Y003859D01*
X010197Y003865D01*
X010203Y003870D01*
X010203Y004115D01*
X010197Y004120D01*
X010203Y004126D01*
X010203Y004361D01*
X010213Y004378D01*
X010223Y004416D01*
X010223Y004460D01*
X010257Y004425D01*
X010349Y004334D01*
X010358Y004313D01*
X010451Y004220D01*
X010572Y004170D01*
X010703Y004170D01*
X010824Y004220D01*
X010917Y004313D01*
X010967Y004434D01*
X011096Y004563D01*
X011175Y004641D01*
X011217Y004744D01*
X011217Y005384D01*
X011596Y005763D01*
X011603Y005770D01*
X011952Y005770D01*
X012055Y005813D01*
X012272Y006030D01*
X012272Y005917D01*
X012277Y005912D01*
X012272Y005906D01*
X012272Y005671D01*
X012262Y005654D01*
X012252Y005616D01*
X012252Y005528D01*
X012677Y005528D01*
X013102Y005528D01*
X013102Y005616D01*
X013092Y005654D01*
X013082Y005671D01*
X013082Y005890D01*
X013217Y006025D01*
X013317Y006125D01*
X013317Y008559D01*
X013326Y008528D01*
X013366Y008431D01*
X013419Y008340D01*
X013483Y008256D01*
X013557Y008182D01*
X013641Y008118D01*
X013732Y008065D01*
X013829Y008025D01*
X013931Y007998D01*
X014035Y007984D01*
X014037Y007984D01*
X014037Y008737D01*
X014137Y008737D01*
X014137Y007984D01*
X014140Y007984D01*
X014244Y007998D01*
X014346Y008025D01*
X014443Y008065D01*
X014534Y008118D01*
X014618Y008182D01*
X014692Y008256D01*
X014756Y008340D01*
X014809Y008431D01*
X014849Y008528D01*
X014876Y008630D01*
X014890Y008734D01*
X014890Y008737D01*
X014137Y008737D01*
X014137Y008837D01*
X014890Y008837D01*
X014890Y008839D01*
X014876Y008944D01*
X014849Y009045D01*
X014809Y009142D01*
X014756Y009234D01*
X014692Y009317D01*
X014618Y009391D01*
X014534Y009456D01*
X014443Y009508D01*
X014373Y009537D01*
X014373Y010309D01*
X014296Y010385D01*
X013559Y010385D01*
X013554Y010380D01*
X013163Y010380D01*
X013057Y010275D01*
X012857Y010075D01*
X012515Y009733D01*
X012515Y009808D01*
X012439Y009884D01*
X012175Y009884D01*
X012033Y010026D01*
X012102Y009997D01*
X012196Y009972D01*
X012291Y009960D01*
X012291Y010650D01*
X012391Y010650D01*
X012391Y010750D01*
X013081Y010750D01*
X013069Y010845D01*
X013044Y010939D01*
X013007Y011028D01*
X012958Y011112D01*
X012899Y011189D01*
X012830Y011258D01*
X012753Y011317D01*
X012669Y011366D01*
X012580Y011403D01*
X012486Y011428D01*
X012391Y011440D01*
X012391Y010750D01*
X012291Y010750D01*
X012291Y011440D01*
X012196Y011428D01*
X012102Y011403D01*
X012013Y011366D01*
X011929Y011317D01*
X011852Y011258D01*
X011783Y011189D01*
X011724Y011112D01*
X011675Y011028D01*
X011638Y010939D01*
X011613Y010845D01*
X011601Y010750D01*
X012291Y010750D01*
X012291Y010650D01*
X011601Y010650D01*
X011611Y010573D01*
X011526Y010658D01*
X011391Y010714D01*
X011244Y010714D01*
X011109Y010658D01*
X011005Y010554D01*
X011002Y010547D01*
X011000Y010554D01*
X010896Y010658D01*
X010761Y010714D01*
X010614Y010714D01*
X010479Y010658D01*
X010381Y010560D01*
X010359Y010593D01*
X010305Y010647D01*
X010241Y010690D01*
X010171Y010719D01*
X010096Y010734D01*
X010067Y010734D01*
X010067Y010355D01*
X010048Y010355D01*
X010048Y010734D01*
X010019Y010734D01*
X009944Y010719D01*
X009874Y010690D01*
X009810Y010647D01*
X009768Y010605D01*
X009774Y010650D01*
X009084Y010650D01*
X009084Y010750D01*
X009774Y010750D01*
X009762Y010845D01*
X009737Y010939D01*
X009700Y011028D01*
X009651Y011112D01*
X009592Y011189D01*
X009523Y011258D01*
X009481Y011290D01*
X010088Y011290D01*
X010060Y011263D01*
X010004Y011128D01*
X010004Y010981D01*
X010060Y010846D01*
X010164Y010742D01*
X010299Y010686D01*
X010446Y010686D01*
X010581Y010742D01*
X010685Y010846D01*
X010687Y010853D01*
X010690Y010846D01*
X010794Y010742D01*
X010929Y010686D01*
X011076Y010686D01*
X011211Y010742D01*
X011314Y010846D01*
X011371Y010981D01*
X011371Y011128D01*
X011314Y011263D01*
X011211Y011366D01*
X011076Y011422D01*
X010931Y011422D01*
X010808Y011546D01*
X035767Y011546D01*
X035766Y011545D01*
X035765Y011538D01*
X035750Y011523D01*
X035742Y011522D01*
X035728Y011501D01*
X035711Y011484D01*
X035711Y011477D01*
X035699Y011459D01*
X035692Y011457D01*
X035681Y011434D01*
X035667Y011414D01*
X035669Y011407D01*
X035660Y011388D01*
X035653Y011384D01*
X035647Y011360D01*
X035636Y011338D01*
X035639Y011331D01*
X035633Y011311D01*
X035628Y011306D01*
X035626Y011281D01*
X035619Y011258D01*
X035623Y011251D01*
X035621Y011230D01*
X035616Y011224D01*
X035618Y011200D01*
X035616Y011176D01*
X035621Y011170D01*
X035623Y011149D01*
X035619Y011142D01*
X035626Y011119D01*
X035628Y011094D01*
X035633Y011089D01*
X035639Y011069D01*
X035636Y011062D01*
X035647Y011040D01*
X035653Y011016D01*
X035660Y011012D01*
X035669Y010993D01*
X035667Y010986D01*
X035681Y010966D01*
X035692Y010943D01*
X035699Y010941D01*
X035711Y010923D01*
X035711Y010916D01*
X035728Y010899D01*
X035742Y010878D01*
X035750Y010877D01*
X035765Y010862D01*
X035766Y010855D01*
X035786Y010841D01*
X035803Y010823D01*
X035811Y010823D01*
X035828Y010811D01*
X035831Y010804D01*
X035853Y010794D01*
X035873Y010780D01*
X035880Y010781D01*
X035900Y010772D01*
X035903Y010766D01*
X035927Y010759D01*
X035949Y010749D01*
X035956Y010751D01*
X035977Y010746D01*
X035982Y010740D01*
X036006Y010738D01*
X036030Y010732D01*
X036036Y010736D01*
X036057Y010734D01*
X036063Y010729D01*
X036087Y010731D01*
X036112Y010729D01*
X036118Y010734D01*
X036139Y010736D01*
X036145Y010732D01*
X036169Y010738D01*
X036193Y010740D01*
X036198Y010746D01*
X036219Y010751D01*
X036226Y010749D01*
X036248Y010759D01*
X036272Y010766D01*
X036275Y010772D01*
X036295Y010781D01*
X036302Y010780D01*
X036322Y010794D01*
X036344Y010804D01*
X036347Y010811D01*
X036364Y010823D01*
X036372Y010823D01*
X036389Y010841D01*
X036409Y010855D01*
X036410Y010862D01*
X036425Y010877D01*
X036433Y010878D01*
X036447Y010899D01*
X036464Y010916D01*
X036464Y010923D01*
X036476Y010941D01*
X036483Y010943D01*
X036494Y010966D01*
X036508Y010986D01*
X036506Y010993D01*
X036515Y011012D01*
X036522Y011016D01*
X036528Y011040D01*
X036539Y011062D01*
X036536Y011069D01*
X036541Y011089D01*
X036547Y011094D01*
X036549Y011119D01*
X036556Y011142D01*
X036552Y011149D01*
X036554Y011170D01*
X036559Y011176D01*
X036556Y011200D01*
X036559Y011224D01*
X036554Y011230D01*
X036552Y011251D01*
X036556Y011258D01*
X036549Y011281D01*
X036547Y011306D01*
X036541Y011311D01*
X036536Y011331D01*
X036539Y011338D01*
X036528Y011360D01*
X036522Y011384D01*
X036515Y011388D01*
X036506Y011407D01*
X036508Y011414D01*
X036494Y011434D01*
X036483Y011457D01*
X036476Y011459D01*
X036464Y011477D01*
X036464Y011484D01*
X036447Y011501D01*
X036433Y011522D01*
X036425Y011523D01*
X036410Y011538D01*
X036409Y011545D01*
X036408Y011546D01*
X038337Y011546D01*
X038514Y011535D01*
X038854Y011443D01*
X039159Y011267D01*
X039408Y011018D01*
X039585Y010713D01*
X039676Y010372D01*
X039687Y010196D01*
X039687Y001700D01*
X039676Y001524D01*
X039585Y001183D01*
X039408Y000878D01*
X039159Y000629D01*
X038854Y000453D01*
X038514Y000362D01*
X038337Y000350D01*
X036402Y000350D01*
X036409Y000355D01*
X036410Y000362D01*
X036425Y000377D01*
X036433Y000378D01*
X036447Y000399D01*
X036464Y000416D01*
X036464Y000423D01*
X036476Y000441D01*
X036483Y000443D01*
X036494Y000466D01*
X036508Y000486D01*
X036506Y000493D01*
X036515Y000512D01*
X036522Y000516D01*
X036528Y000540D01*
X036539Y000562D01*
X036536Y000569D01*
X036541Y000589D01*
X036547Y000594D01*
X039099Y000594D01*
X039223Y000693D02*
X038641Y000693D01*
X038632Y000687D02*
X038923Y000856D01*
X039162Y001094D01*
X039330Y001386D01*
X039417Y001711D01*
X039417Y002049D01*
X039330Y002374D01*
X039162Y002666D01*
X038923Y002904D01*
X038632Y003073D01*
X038306Y003160D01*
X037969Y003160D01*
X037643Y003073D01*
X037352Y002904D01*
X037113Y002666D01*
X036945Y002374D01*
X036857Y002049D01*
X036857Y001711D01*
X036945Y001386D01*
X037113Y001094D01*
X037352Y000856D01*
X037643Y000687D01*
X037969Y000600D01*
X038306Y000600D01*
X038632Y000687D01*
X038811Y000791D02*
X039321Y000791D01*
X039415Y000890D02*
X038957Y000890D01*
X039056Y000988D02*
X039472Y000988D01*
X039529Y001087D02*
X039154Y001087D01*
X039214Y001185D02*
X039585Y001185D01*
X039612Y001284D02*
X039271Y001284D01*
X039328Y001382D02*
X039638Y001382D01*
X039664Y001481D02*
X039356Y001481D01*
X039382Y001579D02*
X039680Y001579D01*
X039686Y001678D02*
X039408Y001678D01*
X039417Y001776D02*
X039687Y001776D01*
X039687Y001875D02*
X039417Y001875D01*
X039417Y001973D02*
X039687Y001973D01*
X039687Y002072D02*
X039411Y002072D01*
X039385Y002170D02*
X039687Y002170D01*
X039687Y002269D02*
X039359Y002269D01*
X039332Y002367D02*
X039687Y002367D01*
X039687Y002466D02*
X039277Y002466D01*
X039221Y002564D02*
X039687Y002564D01*
X039687Y002663D02*
X039164Y002663D01*
X039067Y002761D02*
X039687Y002761D01*
X039687Y002860D02*
X038968Y002860D01*
X038830Y002958D02*
X039687Y002958D01*
X039687Y003057D02*
X038660Y003057D01*
X038325Y003155D02*
X039687Y003155D01*
X039687Y003254D02*
X035342Y003254D01*
X035342Y003352D02*
X039687Y003352D01*
X039687Y003451D02*
X035342Y003451D01*
X035342Y003549D02*
X039687Y003549D01*
X039687Y003648D02*
X035342Y003648D01*
X035342Y003746D02*
X037545Y003746D01*
X037518Y003772D02*
X037595Y003696D01*
X038135Y003696D01*
X038212Y003772D01*
X038212Y004250D01*
X038297Y004335D01*
X038297Y004891D01*
X038337Y004931D01*
X038337Y005909D01*
X038261Y005985D01*
X038018Y005985D01*
X038507Y006474D01*
X038507Y006384D01*
X038558Y006263D01*
X038651Y006170D01*
X038772Y006120D01*
X038903Y006120D01*
X039024Y006170D01*
X039117Y006263D01*
X039167Y006384D01*
X039167Y006483D01*
X039297Y006613D01*
X039297Y008037D01*
X039174Y008160D01*
X038924Y008410D01*
X037750Y008410D01*
X037627Y008287D01*
X037377Y008037D01*
X037377Y008009D01*
X037337Y007969D01*
X037261Y008045D01*
X036914Y008045D01*
X036837Y007969D01*
X036837Y007517D01*
X036774Y007580D01*
X036653Y007630D01*
X036522Y007630D01*
X036401Y007580D01*
X036367Y007547D01*
X036367Y008072D01*
X036517Y008222D01*
X036517Y008578D01*
X036266Y008830D01*
X035909Y008830D01*
X035657Y008578D01*
X035657Y008222D01*
X035807Y008072D01*
X035807Y007566D01*
X035440Y007199D01*
X035437Y007200D01*
X035238Y007200D01*
X035230Y007197D01*
X035325Y007291D01*
X035367Y007394D01*
X035367Y008072D01*
X035517Y008222D01*
X035517Y008578D01*
X035266Y008830D01*
X034909Y008830D01*
X034657Y008578D01*
X034657Y008222D01*
X034807Y008072D01*
X034807Y007566D01*
X034440Y007199D01*
X034437Y007200D01*
X034238Y007200D01*
X034054Y007124D01*
X033914Y006983D01*
X033845Y006818D01*
X033845Y006822D01*
X033819Y006900D01*
X033782Y006973D01*
X033734Y007039D01*
X033676Y007097D01*
X033610Y007145D01*
X033537Y007182D01*
X033459Y007207D01*
X033378Y007220D01*
X033367Y007220D01*
X033367Y006730D01*
X033307Y006730D01*
X033307Y006670D01*
X032817Y006670D01*
X032817Y006659D01*
X032830Y006578D01*
X032856Y006500D01*
X032893Y006427D01*
X032941Y006361D01*
X032999Y006303D01*
X033065Y006255D01*
X033138Y006218D01*
X033216Y006193D01*
X033297Y006180D01*
X033307Y006180D01*
X033307Y006670D01*
X033367Y006670D01*
X033367Y006180D01*
X033378Y006180D01*
X033459Y006193D01*
X033502Y006207D01*
X033498Y006196D01*
X033498Y005935D01*
X033409Y005935D01*
X033333Y005859D01*
X033333Y005041D01*
X033409Y004965D01*
X034146Y004965D01*
X034223Y005041D01*
X034223Y005859D01*
X034146Y005935D01*
X034058Y005935D01*
X034058Y006024D01*
X034235Y006201D01*
X034238Y006200D01*
X034437Y006200D01*
X034617Y006275D01*
X034617Y005935D01*
X034528Y005935D01*
X034452Y005859D01*
X034452Y005041D01*
X034528Y004965D01*
X034617Y004965D01*
X034617Y004935D01*
X034528Y004935D01*
X034452Y004859D01*
X034452Y004382D01*
X034424Y004410D01*
X034223Y004612D01*
X034223Y004859D01*
X034146Y004935D01*
X033409Y004935D01*
X033333Y004859D01*
X033333Y004642D01*
X032770Y004080D01*
X032672Y004080D01*
X032551Y004030D01*
X032517Y003997D01*
X032517Y004025D01*
X032412Y004130D01*
X032267Y004275D01*
X032267Y004458D01*
X032411Y004314D01*
X032600Y004236D01*
X032805Y004236D01*
X032993Y004314D01*
X033138Y004459D01*
X033216Y004648D01*
X033216Y004852D01*
X033138Y005041D01*
X032993Y005186D01*
X032805Y005264D01*
X032600Y005264D01*
X032467Y005209D01*
X032467Y006525D01*
X032870Y006928D01*
X032856Y006900D01*
X032830Y006822D01*
X032817Y006741D01*
X032817Y006730D01*
X033307Y006730D01*
X033307Y007220D01*
X033297Y007220D01*
X033216Y007207D01*
X033138Y007182D01*
X033109Y007167D01*
X033162Y007220D01*
X033267Y007325D01*
X033267Y007695D01*
X033496Y007695D01*
X033572Y007771D01*
X033572Y008509D01*
X033496Y008585D01*
X032679Y008585D01*
X032637Y008544D01*
X032596Y008585D01*
X032007Y008585D01*
X031791Y008801D01*
X031813Y008795D01*
X032137Y008795D01*
X032137Y009210D01*
X031683Y009210D01*
X031683Y008925D01*
X031688Y008904D01*
X031662Y008930D01*
X031163Y008930D01*
X031057Y008825D01*
X030507Y008275D01*
X030507Y007679D01*
X030359Y007531D01*
X030351Y007546D01*
X030267Y007630D01*
X030183Y007713D01*
X030149Y007733D01*
X030130Y007738D01*
X029922Y007946D01*
X029915Y007946D01*
X029915Y007953D01*
X029898Y007970D01*
X029903Y007970D01*
X030024Y008020D01*
X030117Y008113D01*
X030167Y008234D01*
X030167Y008366D01*
X030117Y008487D01*
X030047Y008557D01*
X030047Y008613D01*
X030547Y009113D01*
X030547Y009482D01*
X030767Y009702D01*
X030767Y010058D01*
X030516Y010310D01*
X030159Y010310D01*
X029907Y010058D01*
X029907Y009702D01*
X030127Y009482D01*
X030127Y009287D01*
X029627Y008787D01*
X029627Y008557D01*
X029558Y008487D01*
X029507Y008366D01*
X029507Y008361D01*
X029477Y008391D01*
X029470Y008391D01*
X029470Y008399D01*
X029254Y008614D01*
X029247Y008614D01*
X029247Y008621D01*
X029067Y008801D01*
X029067Y008917D01*
X029074Y008920D01*
X029167Y009013D01*
X029217Y009134D01*
X029217Y009266D01*
X029167Y009387D01*
X029074Y009480D01*
X028953Y009530D01*
X028822Y009530D01*
X028701Y009480D01*
X028608Y009387D01*
X028557Y009266D01*
X028557Y009134D01*
X028608Y009013D01*
X028701Y008920D01*
X028707Y008917D01*
X028707Y008620D01*
X028517Y008430D01*
X028517Y008575D01*
X028017Y009075D01*
X028017Y009592D01*
X028159Y009450D01*
X028516Y009450D01*
X028767Y009702D01*
X028767Y010058D01*
X028606Y010220D01*
X028743Y010220D01*
X028907Y010055D01*
X028907Y009702D01*
X029159Y009450D01*
X029516Y009450D01*
X029767Y009702D01*
X029767Y010058D01*
X029516Y010310D01*
X029162Y010310D01*
X028892Y010580D01*
X028646Y010580D01*
X028767Y010702D01*
X028767Y011058D01*
X028516Y011310D01*
X028159Y011310D01*
X027907Y011058D01*
X027907Y010702D01*
X028029Y010580D01*
X027963Y010580D01*
X027857Y010475D01*
X027657Y010275D01*
X027657Y010168D01*
X027516Y010310D01*
X027159Y010310D01*
X026907Y010058D01*
X026907Y009702D01*
X027157Y009452D01*
X027157Y008853D01*
X027408Y008602D01*
X027217Y008411D01*
X026498Y009130D01*
X025620Y009130D01*
X025617Y009137D01*
X025524Y009230D01*
X025427Y009270D01*
X025662Y009270D01*
X025912Y009520D01*
X026001Y009609D01*
X026159Y009450D01*
X026516Y009450D01*
X026767Y009702D01*
X026767Y010058D01*
X026516Y010310D01*
X026159Y010310D01*
X026017Y010168D01*
X026017Y010305D01*
X026162Y010450D01*
X026516Y010450D01*
X026767Y010702D01*
X026767Y011058D01*
X026656Y011170D01*
X026793Y011170D01*
X026907Y011055D01*
X026907Y010702D01*
X027159Y010450D01*
X027516Y010450D01*
X027767Y010702D01*
X027767Y011058D01*
X027516Y011310D01*
X027162Y011310D01*
X026942Y011530D01*
X026113Y011530D01*
X025763Y011180D01*
X025763Y011180D01*
X025704Y011121D01*
X025516Y011310D01*
X025159Y011310D01*
X024907Y011058D01*
X024907Y010702D01*
X025046Y010563D01*
X024863Y010380D01*
X024763Y010280D01*
X024657Y010175D01*
X024657Y010168D01*
X024516Y010310D01*
X024159Y010310D01*
X023967Y010118D01*
X023967Y010167D01*
X023974Y010170D01*
X024067Y010263D01*
X024117Y010384D01*
X024117Y010492D01*
X024159Y010450D01*
X024516Y010450D01*
X024767Y010702D01*
X024767Y011058D01*
X024516Y011310D01*
X024159Y011310D01*
X023907Y011058D01*
X023907Y010757D01*
X023853Y010780D01*
X023722Y010780D01*
X023601Y010730D01*
X023508Y010637D01*
X023463Y010529D01*
X023217Y010775D01*
X023142Y010850D01*
X023165Y010873D01*
X023172Y010870D01*
X023303Y010870D01*
X023424Y010920D01*
X023517Y011013D01*
X023567Y011134D01*
X023983Y011134D01*
X023907Y011035D02*
X023526Y011035D01*
X023567Y011134D02*
X023567Y011266D01*
X023517Y011387D01*
X023424Y011480D01*
X023303Y011530D01*
X023172Y011530D01*
X023051Y011480D01*
X022958Y011387D01*
X022907Y011266D01*
X022907Y011134D01*
X022910Y011127D01*
X022863Y011080D01*
X022645Y011080D01*
X022667Y011134D01*
X022908Y011134D01*
X022907Y011232D02*
X022667Y011232D01*
X022667Y011266D02*
X022617Y011387D01*
X022524Y011480D01*
X022403Y011530D01*
X022272Y011530D01*
X022265Y011527D01*
X022262Y011530D01*
X014133Y011530D01*
X013913Y011310D01*
X013559Y011310D01*
X013307Y011058D01*
X013307Y010702D01*
X013559Y010450D01*
X013916Y010450D01*
X014167Y010702D01*
X014167Y011055D01*
X014282Y011170D01*
X014419Y011170D01*
X014307Y011058D01*
X014307Y010702D01*
X014559Y010450D01*
X014916Y010450D01*
X015057Y010592D01*
X015057Y010385D01*
X014678Y010385D01*
X014602Y010309D01*
X014602Y009491D01*
X014678Y009415D01*
X015416Y009415D01*
X015492Y009491D01*
X015492Y010270D01*
X016291Y010270D01*
X016367Y010346D01*
X016367Y010590D01*
X016650Y010590D01*
X016950Y010290D01*
X017136Y010105D01*
X017128Y010105D01*
X017128Y009650D01*
X017543Y009650D01*
X017543Y009975D01*
X017538Y009990D01*
X017550Y009990D01*
X017752Y009788D01*
X017752Y009310D01*
X017703Y009330D01*
X017572Y009330D01*
X017543Y009318D01*
X017543Y009550D01*
X017128Y009550D01*
X017128Y009650D01*
X017028Y009650D01*
X017028Y010105D01*
X016743Y010105D01*
X016705Y010095D01*
X016671Y010075D01*
X016643Y010047D01*
X016623Y010013D01*
X016613Y009975D01*
X016613Y009650D01*
X017028Y009650D01*
X017028Y009550D01*
X016613Y009550D01*
X016613Y009225D01*
X016623Y009187D01*
X016643Y009153D01*
X016671Y009125D01*
X016705Y009105D01*
X016743Y009095D01*
X016988Y009095D01*
X016951Y009080D01*
X016858Y008987D01*
X016807Y008866D01*
X016807Y008734D01*
X016858Y008613D01*
X016951Y008520D01*
X017072Y008470D01*
X017174Y008470D01*
X017349Y008295D01*
X017337Y008283D01*
X017666Y007954D01*
X017994Y007625D01*
X017983Y007614D01*
X018017Y007579D01*
X018017Y007578D01*
X018165Y007427D01*
X018512Y007080D01*
X018755Y007080D01*
X018758Y007087D01*
X018851Y007180D01*
X018972Y007230D01*
X019103Y007230D01*
X019111Y007227D01*
X019108Y007234D01*
X018771Y007570D01*
X018651Y007620D01*
X018558Y007713D01*
X018507Y007834D01*
X018507Y007933D01*
X018391Y008050D01*
X018319Y007978D01*
X018180Y007839D01*
X018074Y007733D01*
X018069Y007714D01*
X018049Y007680D01*
X017994Y007625D01*
X017666Y007954D01*
X017666Y007954D01*
X017278Y008342D01*
X016795Y008342D01*
X016712Y008280D02*
X016365Y008627D01*
X016367Y008634D01*
X016367Y008766D01*
X016317Y008887D01*
X016224Y008980D01*
X016103Y009030D01*
X015972Y009030D01*
X015851Y008980D01*
X015758Y008887D01*
X015707Y008766D01*
X015707Y008634D01*
X015758Y008513D01*
X015851Y008420D01*
X015972Y008370D01*
X016103Y008370D01*
X016110Y008373D01*
X016563Y007920D01*
X017002Y007920D01*
X016994Y007912D01*
X016994Y007804D01*
X017498Y007300D01*
X016994Y006796D01*
X016994Y006785D01*
X015878Y005669D01*
X015898Y005719D01*
X015898Y005893D01*
X015832Y006054D01*
X015709Y006177D01*
X015653Y006200D01*
X015709Y006223D01*
X015832Y006346D01*
X015898Y006507D01*
X015898Y006681D01*
X015832Y006841D01*
X015709Y006964D01*
X015548Y007031D01*
X014760Y007031D01*
X014600Y006964D01*
X014477Y006841D01*
X014410Y006681D01*
X014410Y006507D01*
X014477Y006346D01*
X014600Y006223D01*
X014656Y006200D01*
X014600Y006177D01*
X014477Y006054D01*
X014410Y005893D01*
X014410Y005719D01*
X014477Y005559D01*
X014600Y005436D01*
X014760Y005369D01*
X015548Y005369D01*
X015709Y005436D01*
X015832Y005559D01*
X015857Y005621D01*
X015857Y005008D01*
X015832Y005070D01*
X015709Y005193D01*
X015548Y005259D01*
X014760Y005259D01*
X014600Y005193D01*
X014477Y005070D01*
X014410Y004909D01*
X014410Y004735D01*
X014477Y004575D01*
X014600Y004452D01*
X014760Y004385D01*
X015548Y004385D01*
X015709Y004452D01*
X015832Y004575D01*
X015857Y004636D01*
X015857Y004275D01*
X015763Y004180D01*
X015763Y004180D01*
X014766Y003183D01*
X014809Y003258D01*
X014849Y003355D01*
X014876Y003456D01*
X014890Y003561D01*
X014890Y003563D01*
X014137Y003563D01*
X014137Y002811D01*
X014140Y002811D01*
X014244Y002824D01*
X014346Y002852D01*
X014443Y002892D01*
X014518Y002935D01*
X014410Y002827D01*
X014403Y002830D01*
X014272Y002830D01*
X014151Y002780D01*
X014087Y002717D01*
X014024Y002780D01*
X013903Y002830D01*
X013772Y002830D01*
X013651Y002780D01*
X013558Y002687D01*
X013545Y002656D01*
X013526Y002675D01*
X012827Y002675D01*
X012751Y002599D01*
X012751Y001901D01*
X012827Y001825D01*
X013526Y001825D01*
X013602Y001901D01*
X013602Y002090D01*
X013724Y002090D01*
X013804Y002170D01*
X013841Y002170D01*
X013758Y002087D01*
X013707Y001966D01*
X013707Y001834D01*
X013758Y001713D01*
X013851Y001620D01*
X013972Y001570D01*
X014103Y001570D01*
X014167Y001597D01*
X014158Y001587D01*
X014107Y001466D01*
X014107Y001297D01*
X014024Y001380D01*
X013903Y001430D01*
X013804Y001430D01*
X013774Y001460D01*
X013602Y001460D01*
X013602Y001599D01*
X013526Y001675D01*
X012827Y001675D01*
X012751Y001599D01*
X012751Y000901D01*
X012822Y000830D01*
X012153Y000830D01*
X012224Y000901D01*
X012224Y001040D01*
X012274Y001040D01*
X012524Y001290D01*
X012647Y001413D01*
X012647Y003387D01*
X012496Y003538D01*
X013006Y003538D01*
X013082Y003614D01*
X013082Y003859D01*
X013076Y003865D01*
X013082Y003870D01*
X013082Y004115D01*
X013076Y004120D01*
X013082Y004126D01*
X013082Y004371D01*
X013076Y004376D01*
X013082Y004382D01*
X013082Y004627D01*
X013076Y004632D01*
X013082Y004638D01*
X013082Y004883D01*
X013076Y004888D01*
X013082Y004894D01*
X013082Y005138D01*
X013076Y005144D01*
X013082Y005150D01*
X013082Y005385D01*
X013092Y005402D01*
X013102Y005440D01*
X013102Y005528D01*
X012677Y005528D01*
X012677Y005528D01*
X012165Y005528D01*
X012677Y005528D01*
X012677Y005528D01*
X012252Y005528D01*
X012252Y005440D01*
X012262Y005402D01*
X012272Y005385D01*
X012272Y005150D01*
X012277Y005144D01*
X012272Y005138D01*
X012272Y004894D01*
X012277Y004888D01*
X012272Y004883D01*
X012272Y004638D01*
X012277Y004632D01*
X012272Y004627D01*
X012272Y004432D01*
X012224Y004480D01*
X012103Y004530D01*
X011972Y004530D01*
X011851Y004480D01*
X011758Y004387D01*
X011707Y004266D01*
X011707Y004134D01*
X011734Y004070D01*
X011724Y004080D01*
X011603Y004130D01*
X011472Y004130D01*
X011351Y004080D01*
X011258Y003987D01*
X011207Y003866D01*
X011207Y003734D01*
X011258Y003613D01*
X011327Y003543D01*
X011327Y003413D01*
X011527Y003213D01*
X011527Y002675D01*
X011449Y002675D01*
X011373Y002599D01*
X011373Y001931D01*
X011324Y001980D01*
X011203Y002030D01*
X011072Y002030D01*
X011037Y002016D01*
X011037Y002160D01*
X010627Y002160D01*
X010627Y001750D01*
X010774Y001750D01*
X010820Y001796D01*
X010807Y001766D01*
X010807Y001634D01*
X010820Y001604D01*
X010774Y001650D01*
X010627Y001650D01*
X010627Y001240D01*
X010547Y001240D01*
X010547Y001160D01*
X010137Y001160D01*
X010137Y001014D01*
X010321Y000830D01*
X009826Y000830D01*
X010017Y001022D01*
X010017Y001378D01*
X009766Y001630D01*
X009409Y001630D01*
X009157Y001378D01*
X009157Y001022D01*
X009349Y000830D01*
X008917Y000830D01*
X008917Y000922D01*
X009017Y001022D01*
X009017Y001378D01*
X008766Y001630D01*
X008409Y001630D01*
X008157Y001378D01*
X008157Y001022D01*
X008257Y000922D01*
X008257Y000830D01*
X007826Y000830D01*
X008017Y001022D01*
X008017Y001378D01*
X007766Y001630D01*
X007409Y001630D01*
X007157Y001378D01*
X007157Y001022D01*
X007349Y000830D01*
X007074Y000830D01*
X006967Y000937D01*
X006967Y001516D01*
X006917Y001637D01*
X005904Y002650D01*
X005990Y002564D02*
X007343Y002564D01*
X007409Y002630D02*
X007157Y002378D01*
X007157Y002022D01*
X007409Y001770D01*
X007766Y001770D01*
X008017Y002022D01*
X008017Y002378D01*
X007766Y002630D01*
X007409Y002630D01*
X007832Y002564D02*
X008343Y002564D01*
X008409Y002630D02*
X008157Y002378D01*
X008157Y002022D01*
X008409Y001770D01*
X008766Y001770D01*
X009017Y002022D01*
X009017Y002378D01*
X008766Y002630D01*
X008409Y002630D01*
X008832Y002564D02*
X009207Y002564D01*
X009207Y002466D02*
X008930Y002466D01*
X009017Y002367D02*
X009157Y002367D01*
X009157Y002269D02*
X009017Y002269D01*
X009017Y002170D02*
X009157Y002170D01*
X009157Y002072D02*
X009017Y002072D01*
X008969Y001973D02*
X009206Y001973D01*
X009305Y001875D02*
X008870Y001875D01*
X008772Y001776D02*
X009403Y001776D01*
X009358Y001579D02*
X008817Y001579D01*
X008915Y001481D02*
X009260Y001481D01*
X009161Y001382D02*
X009014Y001382D01*
X009017Y001284D02*
X009157Y001284D01*
X009157Y001185D02*
X009017Y001185D01*
X009017Y001087D02*
X009157Y001087D01*
X009191Y000988D02*
X008984Y000988D01*
X008917Y000890D02*
X009290Y000890D01*
X009885Y000890D02*
X010262Y000890D01*
X010163Y000988D02*
X009984Y000988D01*
X010017Y001087D02*
X010137Y001087D01*
X010137Y001240D02*
X010547Y001240D01*
X010547Y001650D01*
X010401Y001650D01*
X010137Y001386D01*
X010137Y001240D01*
X010137Y001284D02*
X010017Y001284D01*
X010014Y001382D02*
X010137Y001382D01*
X010232Y001481D02*
X009915Y001481D01*
X009817Y001579D02*
X010330Y001579D01*
X010401Y001750D02*
X010547Y001750D01*
X010547Y002160D01*
X010137Y002160D01*
X010137Y002014D01*
X010401Y001750D01*
X010375Y001776D02*
X009772Y001776D01*
X009870Y001875D02*
X010277Y001875D01*
X010178Y001973D02*
X009969Y001973D01*
X010017Y002072D02*
X010137Y002072D01*
X010017Y002170D02*
X010547Y002170D01*
X010547Y002160D02*
X010547Y002240D01*
X010137Y002240D01*
X010137Y002386D01*
X010401Y002650D01*
X010547Y002650D01*
X010547Y002240D01*
X010627Y002240D01*
X010627Y002650D01*
X010774Y002650D01*
X011037Y002386D01*
X011037Y002240D01*
X010627Y002240D01*
X010627Y002160D01*
X010547Y002160D01*
X010627Y002170D02*
X011373Y002170D01*
X011373Y002072D02*
X011037Y002072D01*
X011331Y001973D02*
X011373Y001973D01*
X011737Y002311D02*
X011798Y002250D01*
X011737Y002311D01*
X011798Y002250D02*
X011837Y002289D01*
X011373Y002269D02*
X011037Y002269D01*
X011037Y002367D02*
X011373Y002367D01*
X011373Y002466D02*
X010958Y002466D01*
X010860Y002564D02*
X011373Y002564D01*
X011437Y002663D02*
X009967Y002663D01*
X009967Y002761D02*
X011527Y002761D01*
X011527Y002860D02*
X009967Y002860D01*
X009954Y002958D02*
X011527Y002958D01*
X011527Y003057D02*
X009913Y003057D01*
X009820Y003155D02*
X011527Y003155D01*
X011487Y003254D02*
X009721Y003254D01*
X009623Y003352D02*
X011388Y003352D01*
X011327Y003451D02*
X009524Y003451D01*
X009458Y003549D02*
X009426Y003549D01*
X009401Y003737D02*
X008937Y004200D01*
X008937Y006900D01*
X008937Y009050D01*
X009337Y009450D01*
X010192Y009450D01*
X010687Y009946D01*
X010687Y010346D01*
X010381Y010131D02*
X010479Y010034D01*
X010507Y010022D01*
X010507Y010020D01*
X010117Y009630D01*
X009263Y009630D01*
X009157Y009525D01*
X008863Y009230D01*
X008757Y009125D01*
X008757Y007647D01*
X008747Y007657D01*
X008747Y010017D01*
X008795Y009997D01*
X008889Y009972D01*
X008984Y009960D01*
X008984Y010650D01*
X009084Y010650D01*
X009084Y009960D01*
X009179Y009972D01*
X009272Y009997D01*
X009362Y010034D01*
X009446Y010083D01*
X009523Y010142D01*
X009592Y010211D01*
X009651Y010288D01*
X009669Y010320D01*
X009669Y010307D01*
X009684Y010232D01*
X009714Y010162D01*
X009756Y010098D01*
X009810Y010044D01*
X009874Y010002D01*
X009944Y009972D01*
X010019Y009958D01*
X010048Y009958D01*
X010048Y010337D01*
X010067Y010337D01*
X010067Y009958D01*
X010096Y009958D01*
X010171Y009972D01*
X010241Y010002D01*
X010305Y010044D01*
X010359Y010098D01*
X010381Y010131D01*
X010311Y010050D02*
X010463Y010050D01*
X010439Y009952D02*
X008747Y009952D01*
X008747Y009853D02*
X010340Y009853D01*
X010242Y009755D02*
X008747Y009755D01*
X008747Y009656D02*
X010143Y009656D01*
X010266Y009270D02*
X010759Y009763D01*
X010759Y009006D01*
X010756Y009006D01*
X010680Y008929D01*
X010680Y008271D01*
X010756Y008194D01*
X011415Y008194D01*
X011491Y008271D01*
X011491Y008929D01*
X011415Y009006D01*
X011413Y009006D01*
X011413Y009808D01*
X011337Y009884D01*
X010867Y009884D01*
X010867Y010022D01*
X010896Y010034D01*
X011000Y010137D01*
X011002Y010144D01*
X011005Y010137D01*
X011109Y010034D01*
X011244Y009978D01*
X011290Y009978D01*
X011862Y009405D01*
X011862Y008992D01*
X011938Y008916D01*
X012439Y008916D01*
X012497Y008973D01*
X012497Y007262D01*
X012348Y007262D01*
X012272Y007186D01*
X012272Y006987D01*
X011870Y006987D01*
X011810Y006927D01*
X011803Y006930D01*
X011672Y006930D01*
X011560Y006884D01*
X011517Y006986D01*
X011517Y007484D01*
X012004Y007970D01*
X012124Y008020D01*
X012217Y008113D01*
X012267Y008234D01*
X012267Y008366D01*
X012217Y008487D01*
X012124Y008580D01*
X012003Y008630D01*
X011872Y008630D01*
X011751Y008580D01*
X011658Y008487D01*
X011608Y008366D01*
X011000Y007759D01*
X010957Y007656D01*
X010957Y006986D01*
X010907Y006866D01*
X010907Y006734D01*
X010957Y006614D01*
X010957Y006407D01*
X010903Y006430D01*
X010772Y006430D01*
X010651Y006380D01*
X010558Y006287D01*
X010555Y006280D01*
X010363Y006280D01*
X010203Y006120D01*
X010203Y006152D01*
X010213Y006169D01*
X010223Y006207D01*
X010223Y006296D01*
X010223Y006384D01*
X010213Y006422D01*
X010212Y006424D01*
X010213Y006425D01*
X010223Y006463D01*
X010223Y006552D01*
X010223Y006640D01*
X010213Y006678D01*
X010203Y006695D01*
X010203Y006930D01*
X010197Y006935D01*
X010203Y006941D01*
X010203Y007186D01*
X010127Y007262D01*
X009637Y007262D01*
X009667Y007334D01*
X009667Y007466D01*
X009617Y007587D01*
X009608Y007597D01*
X009672Y007570D01*
X009803Y007570D01*
X009924Y007620D01*
X010017Y007713D01*
X010067Y007834D01*
X010067Y007966D01*
X010017Y008087D01*
X009924Y008180D01*
X009889Y008194D01*
X009919Y008194D01*
X009995Y008271D01*
X009995Y008929D01*
X009919Y009006D01*
X009260Y009006D01*
X009184Y008929D01*
X009184Y008271D01*
X009257Y008197D01*
X009257Y008044D01*
X009300Y007941D01*
X009379Y007863D01*
X009408Y007834D01*
X009458Y007713D01*
X009467Y007703D01*
X009403Y007730D01*
X009272Y007730D01*
X009151Y007680D01*
X009117Y007647D01*
X009117Y008975D01*
X009412Y009270D01*
X010266Y009270D01*
X010357Y009361D02*
X010759Y009361D01*
X010759Y009459D02*
X010455Y009459D01*
X010554Y009558D02*
X010759Y009558D01*
X010759Y009656D02*
X010652Y009656D01*
X010751Y009755D02*
X010759Y009755D01*
X010867Y009952D02*
X011316Y009952D01*
X011368Y009853D02*
X011414Y009853D01*
X011413Y009755D02*
X011513Y009755D01*
X011611Y009656D02*
X011413Y009656D01*
X011413Y009558D02*
X011710Y009558D01*
X011808Y009459D02*
X011413Y009459D01*
X011413Y009361D02*
X011862Y009361D01*
X011862Y009262D02*
X011413Y009262D01*
X011413Y009164D02*
X011862Y009164D01*
X011862Y009065D02*
X011413Y009065D01*
X011454Y008967D02*
X011887Y008967D01*
X011491Y008868D02*
X012497Y008868D01*
X012497Y008770D02*
X011491Y008770D01*
X011491Y008671D02*
X012497Y008671D01*
X012497Y008573D02*
X012132Y008573D01*
X012223Y008474D02*
X012497Y008474D01*
X012497Y008376D02*
X012263Y008376D01*
X012267Y008277D02*
X012497Y008277D01*
X012497Y008179D02*
X012244Y008179D01*
X012184Y008080D02*
X012497Y008080D01*
X012497Y007982D02*
X012031Y007982D01*
X011916Y007883D02*
X012497Y007883D01*
X012497Y007785D02*
X011818Y007785D01*
X011719Y007686D02*
X012497Y007686D01*
X012497Y007588D02*
X011621Y007588D01*
X011522Y007489D02*
X012497Y007489D01*
X012497Y007391D02*
X011517Y007391D01*
X011517Y007292D02*
X012497Y007292D01*
X012280Y007194D02*
X011517Y007194D01*
X011517Y007095D02*
X012272Y007095D01*
X012272Y006997D02*
X011517Y006997D01*
X011554Y006898D02*
X011595Y006898D01*
X011737Y006600D02*
X011945Y006807D01*
X012330Y006807D01*
X012677Y006807D01*
X012677Y007063D02*
X012677Y009639D01*
X013037Y010000D01*
X013237Y010200D01*
X013628Y010200D01*
X013928Y009900D01*
X014373Y009853D02*
X014602Y009853D01*
X014602Y009755D02*
X014373Y009755D01*
X014373Y009656D02*
X014602Y009656D01*
X014602Y009558D02*
X014373Y009558D01*
X014528Y009459D02*
X014635Y009459D01*
X014649Y009361D02*
X016613Y009361D01*
X016613Y009459D02*
X015460Y009459D01*
X015492Y009558D02*
X017028Y009558D01*
X017028Y009656D02*
X017128Y009656D01*
X017128Y009558D02*
X017752Y009558D01*
X017752Y009656D02*
X017543Y009656D01*
X017543Y009755D02*
X017752Y009755D01*
X017687Y009853D02*
X017543Y009853D01*
X017543Y009952D02*
X017589Y009952D01*
X017128Y009952D02*
X017028Y009952D01*
X017028Y010050D02*
X017128Y010050D01*
X017092Y010149D02*
X015492Y010149D01*
X015492Y010247D02*
X016993Y010247D01*
X016895Y010346D02*
X016367Y010346D01*
X016367Y010444D02*
X016796Y010444D01*
X016698Y010543D02*
X016367Y010543D01*
X015237Y010300D02*
X015047Y010110D01*
X015047Y009900D01*
X014602Y009952D02*
X014373Y009952D01*
X014373Y010050D02*
X014602Y010050D01*
X014602Y010149D02*
X014373Y010149D01*
X014373Y010247D02*
X014602Y010247D01*
X014639Y010346D02*
X014336Y010346D01*
X014467Y010543D02*
X014008Y010543D01*
X014107Y010641D02*
X014368Y010641D01*
X014307Y010740D02*
X014167Y010740D01*
X014167Y010838D02*
X014307Y010838D01*
X014307Y010937D02*
X014167Y010937D01*
X014167Y011035D02*
X014307Y011035D01*
X014246Y011134D02*
X014383Y011134D01*
X014237Y011350D02*
X014207Y011350D01*
X013737Y010880D01*
X013307Y010838D02*
X013070Y010838D01*
X013044Y010937D02*
X013307Y010937D01*
X013307Y011035D02*
X013003Y011035D01*
X012942Y011134D02*
X013383Y011134D01*
X013481Y011232D02*
X012856Y011232D01*
X012730Y011331D02*
X013933Y011331D01*
X014032Y011429D02*
X012477Y011429D01*
X012391Y011429D02*
X012291Y011429D01*
X012205Y011429D02*
X010925Y011429D01*
X010826Y011528D02*
X014130Y011528D01*
X014237Y011350D02*
X015237Y011350D01*
X018087Y011350D01*
X022187Y011350D01*
X022337Y011200D01*
X022641Y011331D02*
X022934Y011331D01*
X023000Y011429D02*
X022575Y011429D01*
X022409Y011528D02*
X023166Y011528D01*
X023309Y011528D02*
X026110Y011528D01*
X026012Y011429D02*
X023475Y011429D01*
X023541Y011331D02*
X025913Y011331D01*
X025815Y011232D02*
X025594Y011232D01*
X025692Y011134D02*
X025716Y011134D01*
X025837Y011000D02*
X025837Y010700D01*
X025537Y010400D01*
X025137Y010400D01*
X024937Y010200D01*
X024837Y010100D01*
X024837Y009500D01*
X024637Y009300D01*
X024587Y009250D01*
X024587Y008800D01*
X024587Y008750D01*
X024587Y008700D01*
X024587Y008559D01*
X025087Y008059D01*
X026277Y006869D01*
X025637Y006750D02*
X025637Y007250D01*
X024337Y008550D01*
X024337Y008600D01*
X024337Y009200D01*
X023787Y009750D01*
X023787Y010250D01*
X023787Y010450D01*
X024117Y010444D02*
X024927Y010444D01*
X025025Y010543D02*
X024608Y010543D01*
X024707Y010641D02*
X024968Y010641D01*
X024907Y010740D02*
X024767Y010740D01*
X024767Y010838D02*
X024907Y010838D01*
X024907Y010937D02*
X024767Y010937D01*
X024767Y011035D02*
X024907Y011035D01*
X024983Y011134D02*
X024692Y011134D01*
X024594Y011232D02*
X025081Y011232D01*
X025837Y011000D02*
X026187Y011350D01*
X026787Y011350D01*
X026867Y011350D01*
X027337Y010880D01*
X026907Y010838D02*
X026767Y010838D01*
X026767Y010740D02*
X026907Y010740D01*
X026968Y010641D02*
X026707Y010641D01*
X026608Y010543D02*
X027067Y010543D01*
X027096Y010247D02*
X026579Y010247D01*
X026677Y010149D02*
X026998Y010149D01*
X026907Y010050D02*
X026767Y010050D01*
X026767Y009952D02*
X026907Y009952D01*
X026907Y009853D02*
X026767Y009853D01*
X026767Y009755D02*
X026907Y009755D01*
X026953Y009656D02*
X026722Y009656D01*
X026623Y009558D02*
X027052Y009558D01*
X027150Y009459D02*
X026525Y009459D01*
X026150Y009459D02*
X025851Y009459D01*
X025753Y009361D02*
X027157Y009361D01*
X027157Y009262D02*
X025446Y009262D01*
X025591Y009164D02*
X027157Y009164D01*
X027157Y009065D02*
X026563Y009065D01*
X026662Y008967D02*
X027157Y008967D01*
X027157Y008868D02*
X026760Y008868D01*
X026859Y008770D02*
X027240Y008770D01*
X027339Y008671D02*
X026957Y008671D01*
X027056Y008573D02*
X027379Y008573D01*
X027281Y008474D02*
X027154Y008474D01*
X026478Y008450D02*
X027168Y007760D01*
X026946Y007537D02*
X026647Y007836D01*
X026647Y007836D01*
X026945Y007537D01*
X026946Y007537D01*
X027260Y007223D01*
X027344Y007306D01*
X027364Y007340D01*
X027369Y007359D01*
X027564Y007555D01*
X027657Y007462D01*
X027657Y007325D01*
X027710Y007273D01*
X027707Y007266D01*
X027707Y007134D01*
X027758Y007013D01*
X027829Y006942D01*
X027801Y006930D01*
X027708Y006837D01*
X027657Y006716D01*
X027657Y006584D01*
X027708Y006463D01*
X027801Y006370D01*
X027865Y006344D01*
X027858Y006337D01*
X027807Y006216D01*
X027807Y006084D01*
X027858Y005963D01*
X027951Y005870D01*
X028072Y005820D01*
X028203Y005820D01*
X028324Y005870D01*
X028417Y005963D01*
X028467Y006084D01*
X029273Y006890D01*
X029379Y006890D01*
X029502Y007013D01*
X029563Y007074D01*
X029637Y007000D01*
X029952Y007315D01*
X029952Y007315D01*
X029891Y007376D01*
X029891Y007376D01*
X029952Y007315D01*
X030267Y007630D01*
X029952Y007315D01*
X029952Y007315D01*
X029952Y007315D01*
X030013Y007253D01*
X029952Y007315D01*
X029952Y007315D01*
X029637Y007000D01*
X029721Y006916D01*
X029755Y006896D01*
X029774Y006891D01*
X029982Y006684D01*
X029989Y006684D01*
X029989Y006676D01*
X030192Y006473D01*
X030157Y006438D01*
X030157Y006257D01*
X030103Y006280D01*
X029972Y006280D01*
X029908Y006253D01*
X029917Y006263D01*
X029967Y006384D01*
X029967Y006516D01*
X029917Y006637D01*
X029824Y006730D01*
X029703Y006780D01*
X029572Y006780D01*
X029451Y006730D01*
X029358Y006637D01*
X029307Y006516D01*
X029307Y006384D01*
X029358Y006263D01*
X029451Y006170D01*
X029457Y006167D01*
X029457Y005662D01*
X029563Y005556D01*
X029763Y005356D01*
X030192Y004927D01*
X030023Y004757D01*
X029867Y004912D01*
X029867Y004951D01*
X029825Y005054D01*
X029567Y005311D01*
X029567Y005366D01*
X029517Y005487D01*
X029424Y005580D01*
X029303Y005630D01*
X029172Y005630D01*
X029051Y005580D01*
X028958Y005487D01*
X028907Y005366D01*
X028907Y005234D01*
X028958Y005113D01*
X029051Y005020D01*
X029078Y005009D01*
X029429Y004658D01*
X029532Y004615D01*
X029570Y004615D01*
X029711Y004474D01*
X029637Y004400D01*
X029554Y004317D01*
X029534Y004282D01*
X029529Y004264D01*
X029321Y004056D01*
X029321Y004048D01*
X029314Y004048D01*
X029167Y003902D01*
X029167Y003966D01*
X029117Y004087D01*
X029024Y004180D01*
X028903Y004230D01*
X028824Y004230D01*
X028867Y004334D01*
X028867Y004466D01*
X028817Y004587D01*
X028724Y004680D01*
X028603Y004730D01*
X028472Y004730D01*
X028467Y004728D01*
X028467Y004766D01*
X028417Y004887D01*
X028324Y004980D01*
X028203Y005030D01*
X028072Y005030D01*
X027951Y004980D01*
X027858Y004887D01*
X027808Y004766D01*
X027721Y004680D01*
X027582Y004680D01*
X027479Y004637D01*
X027451Y004610D01*
X027396Y004610D01*
X027273Y004487D01*
X027112Y004326D01*
X027038Y004400D01*
X026723Y004085D01*
X026723Y004085D01*
X026784Y004024D01*
X026784Y004024D01*
X026723Y004085D01*
X026519Y003882D01*
X026723Y004085D01*
X026723Y004085D01*
X026723Y004085D01*
X027038Y004400D01*
X026954Y004484D01*
X026920Y004504D01*
X026901Y004509D01*
X026840Y004570D01*
X026903Y004570D01*
X027024Y004620D01*
X027117Y004713D01*
X027167Y004834D01*
X027167Y004966D01*
X027117Y005087D01*
X027024Y005180D01*
X027017Y005183D01*
X027017Y005475D01*
X026912Y005580D01*
X026717Y005775D01*
X026612Y005880D01*
X025890Y005880D01*
X026018Y006008D01*
X026018Y006015D01*
X026025Y006015D01*
X026230Y006220D01*
X026601Y006220D01*
X026722Y006170D01*
X026853Y006170D01*
X026974Y006220D01*
X027067Y006313D01*
X027117Y006434D01*
X027117Y006566D01*
X027067Y006687D01*
X026974Y006780D01*
X026853Y006830D01*
X026840Y006830D01*
X026908Y006899D01*
X026908Y006906D01*
X026916Y006906D01*
X027124Y007114D01*
X027143Y007119D01*
X027177Y007139D01*
X027260Y007223D01*
X026946Y007537D01*
X026946Y007537D01*
X027007Y007599D01*
X027007Y007599D01*
X026946Y007537D01*
X026946Y007537D01*
X026884Y007476D01*
X026945Y007537D01*
X026946Y007537D01*
X026994Y007489D02*
X026994Y007489D01*
X026897Y007489D02*
X026897Y007489D01*
X026884Y007476D02*
X026884Y007476D01*
X026895Y007588D02*
X026895Y007588D01*
X026996Y007588D02*
X026996Y007588D01*
X027092Y007391D02*
X027092Y007391D01*
X027191Y007292D02*
X027191Y007292D01*
X027231Y007194D02*
X027707Y007194D01*
X027691Y007292D02*
X027330Y007292D01*
X027400Y007391D02*
X027657Y007391D01*
X027630Y007489D02*
X027499Y007489D01*
X027837Y007536D02*
X027391Y007983D01*
X026424Y008950D01*
X025337Y008950D01*
X024887Y009200D02*
X024837Y009150D01*
X024837Y008755D01*
X025087Y008505D01*
X025837Y007755D01*
X026500Y007092D01*
X027006Y006997D02*
X027774Y006997D01*
X027769Y006898D02*
X026908Y006898D01*
X026927Y006800D02*
X027692Y006800D01*
X027657Y006701D02*
X027053Y006701D01*
X027102Y006603D02*
X027657Y006603D01*
X027691Y006504D02*
X027117Y006504D01*
X027106Y006406D02*
X027765Y006406D01*
X027845Y006307D02*
X027061Y006307D01*
X026946Y006209D02*
X027807Y006209D01*
X027807Y006110D02*
X026120Y006110D01*
X026218Y006209D02*
X026629Y006209D01*
X026687Y006400D02*
X026301Y006400D01*
X026055Y006647D01*
X025832Y006424D02*
X025637Y006618D01*
X025637Y006750D01*
X025237Y006573D02*
X025609Y006201D01*
X026018Y006012D02*
X027838Y006012D01*
X027908Y005913D02*
X025923Y005913D01*
X025437Y005700D02*
X025237Y005900D01*
X025437Y005700D02*
X026537Y005700D01*
X026837Y005400D01*
X026837Y004900D01*
X027142Y005027D02*
X028063Y005027D01*
X028212Y005027D02*
X029044Y005027D01*
X028953Y005125D02*
X027079Y005125D01*
X027017Y005224D02*
X028912Y005224D01*
X028907Y005322D02*
X027017Y005322D01*
X027017Y005421D02*
X028930Y005421D01*
X028990Y005519D02*
X026973Y005519D01*
X026874Y005618D02*
X029142Y005618D01*
X029333Y005618D02*
X029502Y005618D01*
X029485Y005519D02*
X029600Y005519D01*
X029545Y005421D02*
X029699Y005421D01*
X029763Y005356D02*
X029763Y005356D01*
X029797Y005322D02*
X029567Y005322D01*
X029655Y005224D02*
X029896Y005224D01*
X029994Y005125D02*
X029754Y005125D01*
X029836Y005027D02*
X030093Y005027D01*
X030191Y004928D02*
X029867Y004928D01*
X029950Y004830D02*
X030095Y004830D01*
X030620Y004753D02*
X029837Y005536D01*
X029637Y005736D01*
X029637Y006000D01*
X029637Y006450D01*
X029339Y006307D02*
X028690Y006307D01*
X028592Y006209D02*
X029412Y006209D01*
X029457Y006110D02*
X028493Y006110D01*
X028437Y006012D02*
X029457Y006012D01*
X029457Y005913D02*
X028367Y005913D01*
X029457Y005815D02*
X026677Y005815D01*
X026776Y005716D02*
X029457Y005716D01*
X030037Y005782D02*
X030237Y005582D01*
X030337Y005482D01*
X030843Y004976D01*
X031066Y005199D02*
X031165Y005100D01*
X031537Y005100D01*
X031737Y005300D01*
X031737Y005500D01*
X031737Y007000D01*
X031737Y007100D01*
X031837Y007200D01*
X031837Y007550D01*
X031537Y007850D01*
X031537Y008250D01*
X031387Y008400D01*
X031237Y008750D02*
X030687Y008200D01*
X030687Y007605D01*
X030533Y007450D01*
X030175Y007092D01*
X030013Y007253D02*
X030013Y007253D01*
X029975Y007292D02*
X029975Y007292D01*
X029929Y007292D02*
X029929Y007292D01*
X029831Y007194D02*
X029831Y007194D01*
X029732Y007095D02*
X029732Y007095D01*
X029641Y006997D02*
X029486Y006997D01*
X029387Y006898D02*
X029752Y006898D01*
X029866Y006800D02*
X029183Y006800D01*
X029084Y006701D02*
X029422Y006701D01*
X029343Y006603D02*
X028986Y006603D01*
X028887Y006504D02*
X029307Y006504D01*
X029307Y006406D02*
X028789Y006406D01*
X027987Y006650D02*
X028737Y007400D01*
X028737Y007700D01*
X028737Y007800D01*
X028487Y008050D01*
X028337Y008200D01*
X028337Y008450D01*
X028337Y008480D01*
X028337Y008500D01*
X027837Y009000D01*
X027837Y010200D01*
X028037Y010400D01*
X028817Y010400D01*
X029337Y009880D01*
X028907Y009853D02*
X028767Y009853D01*
X028767Y009755D02*
X028907Y009755D01*
X028953Y009656D02*
X028722Y009656D01*
X028623Y009558D02*
X029052Y009558D01*
X029095Y009459D02*
X029150Y009459D01*
X029178Y009361D02*
X030127Y009361D01*
X030127Y009459D02*
X029525Y009459D01*
X029623Y009558D02*
X030052Y009558D01*
X029953Y009656D02*
X029722Y009656D01*
X029767Y009755D02*
X029907Y009755D01*
X029907Y009853D02*
X029767Y009853D01*
X029767Y009952D02*
X029907Y009952D01*
X029907Y010050D02*
X029767Y010050D01*
X029677Y010149D02*
X029998Y010149D01*
X030096Y010247D02*
X029579Y010247D01*
X029524Y010430D02*
X029787Y010694D01*
X029787Y010840D01*
X029377Y010840D01*
X029377Y010430D01*
X029524Y010430D01*
X029538Y010444D02*
X030877Y010444D01*
X030779Y010543D02*
X030608Y010543D01*
X030666Y010600D02*
X030516Y010450D01*
X030159Y010450D01*
X029907Y010702D01*
X029907Y011058D01*
X030159Y011310D01*
X030516Y011310D01*
X030666Y011160D01*
X030893Y011160D01*
X030996Y011117D01*
X031057Y011056D01*
X031057Y011066D01*
X031108Y011187D01*
X031201Y011280D01*
X031322Y011330D01*
X031453Y011330D01*
X031574Y011280D01*
X031644Y011210D01*
X031924Y011210D01*
X032024Y011110D01*
X032050Y011110D01*
X032091Y011151D01*
X032750Y011151D01*
X032787Y011114D01*
X032838Y011114D01*
X032909Y011185D01*
X033646Y011185D01*
X033723Y011109D01*
X033723Y010291D01*
X033661Y010230D01*
X034014Y010230D01*
X033952Y010291D01*
X033952Y011109D01*
X034028Y011185D01*
X034766Y011185D01*
X034842Y011109D01*
X034842Y010291D01*
X034831Y010280D01*
X034903Y010280D01*
X035024Y010230D01*
X035117Y010137D01*
X035167Y010016D01*
X035167Y009884D01*
X035117Y009763D01*
X035024Y009670D01*
X034903Y009620D01*
X034772Y009620D01*
X034651Y009670D01*
X033559Y009670D01*
X033562Y009667D01*
X033582Y009633D01*
X033592Y009595D01*
X033592Y009310D01*
X033137Y009310D01*
X033137Y009210D01*
X033137Y008795D01*
X033462Y008795D01*
X033500Y008805D01*
X033534Y008825D01*
X033562Y008853D01*
X033582Y008887D01*
X033592Y008925D01*
X033592Y009210D01*
X033137Y009210D01*
X033037Y009210D01*
X032237Y009210D01*
X032237Y008795D01*
X032562Y008795D01*
X032600Y008805D01*
X032634Y008825D01*
X032637Y008828D01*
X032640Y008825D01*
X032675Y008805D01*
X032713Y008795D01*
X033037Y008795D01*
X033037Y009210D01*
X033037Y009310D01*
X032583Y009310D01*
X032237Y009310D01*
X032137Y009310D01*
X032137Y009210D01*
X032237Y009210D01*
X032237Y009310D01*
X032237Y009725D01*
X032562Y009725D01*
X032600Y009715D01*
X032634Y009695D01*
X032637Y009692D01*
X032640Y009695D01*
X032675Y009715D01*
X032676Y009715D01*
X032642Y009749D01*
X032091Y009749D01*
X032015Y009825D01*
X032015Y010327D01*
X032091Y010403D01*
X032750Y010403D01*
X032818Y010335D01*
X032833Y010329D01*
X032833Y010534D01*
X032787Y010534D01*
X032750Y010497D01*
X032091Y010497D01*
X032015Y010573D01*
X032015Y010690D01*
X031960Y010690D01*
X031960Y010199D01*
X031884Y010123D01*
X031225Y010123D01*
X031154Y010194D01*
X031109Y010213D01*
X030721Y010600D01*
X030666Y010600D01*
X030067Y010543D02*
X029636Y010543D01*
X029735Y010641D02*
X029968Y010641D01*
X029907Y010740D02*
X029787Y010740D01*
X029787Y010838D02*
X029907Y010838D01*
X029907Y010937D02*
X029787Y010937D01*
X029787Y010920D02*
X029787Y011066D01*
X029524Y011330D01*
X029377Y011330D01*
X029377Y010920D01*
X029297Y010920D01*
X029297Y010840D01*
X028887Y010840D01*
X028887Y010694D01*
X029151Y010430D01*
X029297Y010430D01*
X029297Y010840D01*
X029377Y010840D01*
X029377Y010920D01*
X029787Y010920D01*
X029787Y011035D02*
X029907Y011035D01*
X029983Y011134D02*
X029720Y011134D01*
X029622Y011232D02*
X030081Y011232D01*
X030594Y011232D02*
X031153Y011232D01*
X031086Y011134D02*
X030957Y011134D01*
X031622Y011232D02*
X035621Y011232D01*
X035622Y011134D02*
X034817Y011134D01*
X034842Y011035D02*
X035648Y011035D01*
X035702Y010937D02*
X034842Y010937D01*
X034842Y010838D02*
X035789Y010838D01*
X035990Y010740D02*
X034842Y010740D01*
X034842Y010641D02*
X037041Y010641D01*
X036984Y010543D02*
X034842Y010543D01*
X034842Y010444D02*
X036937Y010444D01*
X036945Y010474D02*
X036857Y010149D01*
X035106Y010149D01*
X035153Y010050D02*
X036857Y010050D01*
X036857Y009952D02*
X035167Y009952D01*
X035154Y009853D02*
X036857Y009853D01*
X036857Y009811D02*
X036945Y009486D01*
X037113Y009194D01*
X037352Y008956D01*
X037643Y008787D01*
X037969Y008700D01*
X038306Y008700D01*
X038632Y008787D01*
X038923Y008956D01*
X039162Y009194D01*
X039330Y009486D01*
X039417Y009811D01*
X039417Y010149D01*
X039687Y010149D01*
X039684Y010247D02*
X039391Y010247D01*
X039417Y010149D02*
X039330Y010474D01*
X039162Y010766D01*
X038923Y011004D01*
X038632Y011173D01*
X038306Y011260D01*
X037969Y011260D01*
X037643Y011173D01*
X037352Y011004D01*
X037113Y010766D01*
X036945Y010474D01*
X036910Y010346D02*
X034842Y010346D01*
X034983Y010247D02*
X036884Y010247D01*
X036857Y010149D02*
X036857Y009811D01*
X036873Y009755D02*
X035109Y009755D01*
X034990Y009656D02*
X036899Y009656D01*
X036925Y009558D02*
X033592Y009558D01*
X033592Y009459D02*
X036960Y009459D01*
X037017Y009361D02*
X033592Y009361D01*
X033592Y009164D02*
X037144Y009164D01*
X037074Y009262D02*
X033137Y009262D01*
X033137Y009164D02*
X033037Y009164D01*
X033037Y009262D02*
X032237Y009262D01*
X032237Y009164D02*
X032137Y009164D01*
X032137Y009262D02*
X030547Y009262D01*
X030547Y009164D02*
X031683Y009164D01*
X031683Y009065D02*
X030499Y009065D01*
X030401Y008967D02*
X031683Y008967D01*
X032137Y008967D02*
X032237Y008967D01*
X032237Y009065D02*
X032137Y009065D01*
X032137Y008868D02*
X032237Y008868D01*
X031822Y008770D02*
X033821Y008770D01*
X033901Y008850D02*
X033637Y008586D01*
X033637Y008440D01*
X034047Y008440D01*
X034047Y008360D01*
X033637Y008360D01*
X033637Y008214D01*
X033901Y007950D01*
X034047Y007950D01*
X034047Y008360D01*
X034127Y008360D01*
X034127Y007950D01*
X034274Y007950D01*
X034537Y008214D01*
X034537Y008360D01*
X034127Y008360D01*
X034127Y008440D01*
X034047Y008440D01*
X034047Y008850D01*
X033901Y008850D01*
X034047Y008770D02*
X034127Y008770D01*
X034127Y008850D02*
X034274Y008850D01*
X034537Y008586D01*
X034537Y008440D01*
X034127Y008440D01*
X034127Y008850D01*
X034354Y008770D02*
X034849Y008770D01*
X034750Y008671D02*
X034453Y008671D01*
X034537Y008573D02*
X034657Y008573D01*
X034657Y008474D02*
X034537Y008474D01*
X034657Y008376D02*
X034127Y008376D01*
X034047Y008376D02*
X033572Y008376D01*
X033572Y008474D02*
X033637Y008474D01*
X033637Y008573D02*
X033509Y008573D01*
X033722Y008671D02*
X031921Y008671D01*
X031587Y008750D02*
X032087Y008250D01*
X032187Y008140D01*
X032087Y008250D01*
X032087Y008200D01*
X033087Y008140D02*
X033087Y007400D01*
X032897Y007210D01*
X032287Y006600D01*
X032287Y005150D01*
X032087Y004950D01*
X032087Y004200D01*
X032337Y003950D01*
X032337Y003400D01*
X032937Y003400D01*
X032987Y003450D01*
X033137Y003600D01*
X033628Y003600D01*
X033778Y003450D01*
X033333Y003420D02*
X033333Y003041D01*
X033409Y002965D01*
X034127Y002965D01*
X034127Y002863D01*
X034377Y002613D01*
X034500Y002490D01*
X034519Y002490D01*
X034407Y002378D01*
X034407Y002022D01*
X034659Y001770D01*
X035016Y001770D01*
X035267Y002022D01*
X035267Y002378D01*
X035156Y002490D01*
X035331Y002490D01*
X035401Y002420D01*
X035522Y002370D01*
X035653Y002370D01*
X035774Y002420D01*
X035867Y002513D01*
X035917Y002634D01*
X035917Y002766D01*
X035867Y002887D01*
X035774Y002980D01*
X035653Y003030D01*
X035522Y003030D01*
X035401Y002980D01*
X035331Y002910D01*
X034674Y002910D01*
X034619Y002965D01*
X035266Y002965D01*
X035342Y003041D01*
X035342Y003859D01*
X035266Y003935D01*
X035177Y003935D01*
X035177Y003965D01*
X035266Y003965D01*
X035342Y004041D01*
X035342Y004859D01*
X035266Y004935D01*
X035177Y004935D01*
X035177Y004965D01*
X035266Y004965D01*
X035342Y005041D01*
X035342Y005230D01*
X035893Y005230D01*
X035996Y005272D01*
X036038Y005315D01*
X036496Y005315D01*
X036572Y005391D01*
X036572Y005789D01*
X036703Y005920D01*
X036832Y005920D01*
X036828Y005913D01*
X036696Y005913D01*
X036817Y005875D02*
X036817Y005430D01*
X037077Y005430D01*
X037077Y005410D01*
X036817Y005410D01*
X036817Y004965D01*
X036828Y004927D01*
X036847Y004893D01*
X036875Y004865D01*
X036910Y004845D01*
X036948Y004835D01*
X037036Y004835D01*
X037007Y004766D01*
X037007Y004634D01*
X037058Y004513D01*
X037151Y004420D01*
X037272Y004370D01*
X037403Y004370D01*
X037518Y004418D01*
X037518Y003772D01*
X037518Y003845D02*
X035342Y003845D01*
X035177Y003943D02*
X037518Y003943D01*
X037518Y004042D02*
X035342Y004042D01*
X035342Y004140D02*
X037518Y004140D01*
X037518Y004239D02*
X036566Y004239D01*
X036562Y004233D02*
X036582Y004267D01*
X036592Y004305D01*
X036592Y004590D01*
X036137Y004590D01*
X036137Y004175D01*
X036462Y004175D01*
X036500Y004185D01*
X036534Y004205D01*
X036562Y004233D01*
X036592Y004337D02*
X037518Y004337D01*
X037135Y004436D02*
X036592Y004436D01*
X036592Y004534D02*
X037049Y004534D01*
X037008Y004633D02*
X036137Y004633D01*
X036137Y004590D02*
X036137Y004690D01*
X036037Y004690D01*
X036037Y004590D01*
X035583Y004590D01*
X035583Y004305D01*
X035593Y004267D01*
X035613Y004233D01*
X035640Y004205D01*
X035675Y004185D01*
X035713Y004175D01*
X036037Y004175D01*
X036037Y004590D01*
X036137Y004590D01*
X036137Y004534D02*
X036037Y004534D01*
X036037Y004436D02*
X036137Y004436D01*
X036137Y004337D02*
X036037Y004337D01*
X036037Y004239D02*
X036137Y004239D01*
X035609Y004239D02*
X035342Y004239D01*
X035342Y004337D02*
X035583Y004337D01*
X035583Y004436D02*
X035342Y004436D01*
X035342Y004534D02*
X035583Y004534D01*
X035583Y004690D02*
X035583Y004975D01*
X035593Y005013D01*
X035613Y005047D01*
X035640Y005075D01*
X035675Y005095D01*
X035713Y005105D01*
X036037Y005105D01*
X036037Y004690D01*
X035583Y004690D01*
X035583Y004731D02*
X035342Y004731D01*
X035342Y004633D02*
X036037Y004633D01*
X036037Y004731D02*
X036137Y004731D01*
X036137Y004690D02*
X036137Y005105D01*
X036462Y005105D01*
X036500Y005095D01*
X036534Y005075D01*
X036562Y005047D01*
X036582Y005013D01*
X036592Y004975D01*
X036592Y004690D01*
X036137Y004690D01*
X036137Y004830D02*
X036037Y004830D01*
X036037Y004928D02*
X036137Y004928D01*
X036137Y005027D02*
X036037Y005027D01*
X035601Y005027D02*
X035328Y005027D01*
X035342Y005125D02*
X036817Y005125D01*
X036817Y005027D02*
X036574Y005027D01*
X036592Y004928D02*
X036827Y004928D01*
X037034Y004830D02*
X036592Y004830D01*
X036592Y004731D02*
X037007Y004731D01*
X038297Y004731D02*
X038377Y004731D01*
X038377Y004633D02*
X038297Y004633D01*
X038297Y004534D02*
X038377Y004534D01*
X038377Y004436D02*
X038297Y004436D01*
X038297Y004337D02*
X038377Y004337D01*
X038377Y004335D02*
X038463Y004250D01*
X038463Y003772D01*
X038540Y003696D01*
X039080Y003696D01*
X039156Y003772D01*
X039156Y004628D01*
X039080Y004704D01*
X038797Y004704D01*
X038797Y004891D01*
X038837Y004931D01*
X038837Y005909D01*
X038761Y005985D01*
X038414Y005985D01*
X038337Y005909D01*
X038337Y004931D01*
X038377Y004891D01*
X038377Y004335D01*
X038463Y004239D02*
X038212Y004239D01*
X038212Y004140D02*
X038463Y004140D01*
X038463Y004042D02*
X038212Y004042D01*
X038212Y003943D02*
X038463Y003943D01*
X038463Y003845D02*
X038212Y003845D01*
X038185Y003746D02*
X038489Y003746D01*
X039130Y003746D02*
X039687Y003746D01*
X039687Y003845D02*
X039156Y003845D01*
X039156Y003943D02*
X039687Y003943D01*
X039687Y004042D02*
X039156Y004042D01*
X039156Y004140D02*
X039687Y004140D01*
X039687Y004239D02*
X039156Y004239D01*
X039156Y004337D02*
X039687Y004337D01*
X039687Y004436D02*
X039156Y004436D01*
X039156Y004534D02*
X039687Y004534D01*
X039687Y004633D02*
X039152Y004633D01*
X038797Y004731D02*
X039687Y004731D01*
X039687Y004830D02*
X038797Y004830D01*
X038834Y004928D02*
X039687Y004928D01*
X039687Y005027D02*
X038837Y005027D01*
X038837Y005125D02*
X039687Y005125D01*
X039687Y005224D02*
X038837Y005224D01*
X038837Y005322D02*
X039687Y005322D01*
X039687Y005421D02*
X038837Y005421D01*
X038837Y005519D02*
X039687Y005519D01*
X039687Y005618D02*
X038837Y005618D01*
X038837Y005716D02*
X039687Y005716D01*
X039687Y005815D02*
X038837Y005815D01*
X038833Y005913D02*
X039687Y005913D01*
X039687Y006012D02*
X038045Y006012D01*
X038143Y006110D02*
X039687Y006110D01*
X039687Y006209D02*
X039063Y006209D01*
X039135Y006307D02*
X039687Y006307D01*
X039687Y006406D02*
X039167Y006406D01*
X039188Y006504D02*
X039687Y006504D01*
X039687Y006603D02*
X039287Y006603D01*
X039297Y006701D02*
X039687Y006701D01*
X039687Y006800D02*
X039297Y006800D01*
X039297Y006898D02*
X039687Y006898D01*
X039687Y006997D02*
X039297Y006997D01*
X039297Y007095D02*
X039687Y007095D01*
X039687Y007194D02*
X039297Y007194D01*
X039297Y007292D02*
X039687Y007292D01*
X039687Y007391D02*
X039297Y007391D01*
X039297Y007489D02*
X039687Y007489D01*
X039687Y007588D02*
X039297Y007588D01*
X039297Y007686D02*
X039687Y007686D01*
X039687Y007785D02*
X039297Y007785D01*
X039297Y007883D02*
X039687Y007883D01*
X039687Y007982D02*
X039297Y007982D01*
X039254Y008080D02*
X039687Y008080D01*
X039687Y008179D02*
X039156Y008179D01*
X039057Y008277D02*
X039687Y008277D01*
X039687Y008376D02*
X038959Y008376D01*
X039687Y008474D02*
X036517Y008474D01*
X036517Y008376D02*
X037716Y008376D01*
X037617Y008277D02*
X036517Y008277D01*
X036474Y008179D02*
X037519Y008179D01*
X037420Y008080D02*
X036376Y008080D01*
X036367Y007982D02*
X036850Y007982D01*
X036837Y007883D02*
X036367Y007883D01*
X036367Y007785D02*
X036837Y007785D01*
X036837Y007686D02*
X036367Y007686D01*
X036367Y007588D02*
X036419Y007588D01*
X036756Y007588D02*
X036837Y007588D01*
X037337Y007588D02*
X037337Y007588D01*
X037337Y007686D02*
X037337Y007686D01*
X037337Y007785D02*
X037337Y007785D01*
X037337Y007883D02*
X037337Y007883D01*
X037337Y007969D02*
X037337Y006991D01*
X037261Y006915D01*
X036914Y006915D01*
X036837Y006991D01*
X036837Y007083D01*
X036774Y007020D01*
X036653Y006970D01*
X036522Y006970D01*
X036401Y007020D01*
X036308Y007113D01*
X036260Y007227D01*
X035836Y006803D01*
X035837Y006799D01*
X035837Y006667D01*
X035901Y006730D01*
X036022Y006780D01*
X036120Y006780D01*
X036250Y006910D01*
X037750Y006910D01*
X037755Y006915D01*
X037414Y006915D01*
X037337Y006991D01*
X037337Y007969D01*
X037325Y007982D02*
X037350Y007982D01*
X035807Y007982D02*
X035367Y007982D01*
X035376Y008080D02*
X035799Y008080D01*
X035701Y008179D02*
X035474Y008179D01*
X035517Y008277D02*
X035657Y008277D01*
X035657Y008376D02*
X035517Y008376D01*
X035517Y008474D02*
X035657Y008474D01*
X035657Y008573D02*
X035517Y008573D01*
X035425Y008671D02*
X035750Y008671D01*
X035849Y008770D02*
X035326Y008770D01*
X036326Y008770D02*
X037709Y008770D01*
X037503Y008868D02*
X033571Y008868D01*
X033592Y008967D02*
X037341Y008967D01*
X037242Y009065D02*
X033592Y009065D01*
X033137Y009065D02*
X033037Y009065D01*
X033037Y008967D02*
X033137Y008967D01*
X033137Y008868D02*
X033037Y008868D01*
X032666Y008573D02*
X032609Y008573D01*
X033572Y008277D02*
X033637Y008277D01*
X033673Y008179D02*
X033572Y008179D01*
X033572Y008080D02*
X033771Y008080D01*
X033870Y007982D02*
X033572Y007982D01*
X033572Y007883D02*
X034807Y007883D01*
X034807Y007785D02*
X033572Y007785D01*
X033267Y007686D02*
X034807Y007686D01*
X034807Y007588D02*
X033267Y007588D01*
X033267Y007489D02*
X034730Y007489D01*
X034632Y007391D02*
X033267Y007391D01*
X033234Y007292D02*
X034533Y007292D01*
X034222Y007194D02*
X033501Y007194D01*
X033367Y007194D02*
X033307Y007194D01*
X033307Y007095D02*
X033367Y007095D01*
X033367Y006997D02*
X033307Y006997D01*
X033307Y006898D02*
X033367Y006898D01*
X033367Y006800D02*
X033307Y006800D01*
X033367Y006730D02*
X033837Y006730D01*
X033837Y006670D01*
X033367Y006670D01*
X033367Y006730D01*
X033367Y006701D02*
X033837Y006701D01*
X033820Y006898D02*
X033878Y006898D01*
X033927Y006997D02*
X033765Y006997D01*
X033678Y007095D02*
X034025Y007095D01*
X033307Y006701D02*
X032643Y006701D01*
X032545Y006603D02*
X032826Y006603D01*
X032854Y006504D02*
X032467Y006504D01*
X032467Y006406D02*
X032909Y006406D01*
X032995Y006307D02*
X032467Y006307D01*
X032467Y006209D02*
X033167Y006209D01*
X033307Y006209D02*
X033367Y006209D01*
X033367Y006307D02*
X033307Y006307D01*
X033307Y006406D02*
X033367Y006406D01*
X033367Y006504D02*
X033307Y006504D01*
X033307Y006603D02*
X033367Y006603D01*
X032827Y006800D02*
X032742Y006800D01*
X032840Y006898D02*
X032855Y006898D01*
X033136Y007194D02*
X033174Y007194D01*
X031487Y007350D02*
X031487Y006623D01*
X031066Y006201D01*
X031089Y006201D01*
X030843Y006424D02*
X030843Y006455D01*
X031087Y006700D01*
X031087Y007050D01*
X030728Y007200D02*
X031087Y007559D01*
X031087Y007950D01*
X030507Y007982D02*
X029931Y007982D01*
X029985Y007883D02*
X030507Y007883D01*
X030507Y007785D02*
X030084Y007785D01*
X030210Y007686D02*
X030507Y007686D01*
X030416Y007588D02*
X030309Y007588D01*
X030225Y007588D02*
X030225Y007588D01*
X030126Y007489D02*
X030126Y007489D01*
X030028Y007391D02*
X030028Y007391D01*
X030533Y007450D02*
X030687Y007605D01*
X030533Y007450D01*
X030728Y007200D02*
X030398Y006869D01*
X030620Y006647D02*
X030337Y006364D01*
X030337Y006200D01*
X030837Y005700D01*
X031037Y005700D01*
X031137Y005700D01*
X031337Y005500D01*
X032467Y005519D02*
X033333Y005519D01*
X033333Y005421D02*
X032467Y005421D01*
X032467Y005322D02*
X033333Y005322D01*
X033333Y005224D02*
X032902Y005224D01*
X033054Y005125D02*
X033333Y005125D01*
X033347Y005027D02*
X033144Y005027D01*
X033185Y004928D02*
X033402Y004928D01*
X033333Y004830D02*
X033216Y004830D01*
X033216Y004731D02*
X033333Y004731D01*
X033323Y004633D02*
X033210Y004633D01*
X033224Y004534D02*
X033169Y004534D01*
X033126Y004436D02*
X033115Y004436D01*
X033027Y004337D02*
X033016Y004337D01*
X032929Y004239D02*
X032810Y004239D01*
X032830Y004140D02*
X032402Y004140D01*
X032500Y004042D02*
X032579Y004042D01*
X032594Y004239D02*
X032303Y004239D01*
X032267Y004337D02*
X032389Y004337D01*
X032290Y004436D02*
X032267Y004436D01*
X034153Y004928D02*
X034522Y004928D01*
X034467Y005027D02*
X034208Y005027D01*
X034223Y005125D02*
X034452Y005125D01*
X034452Y005224D02*
X034223Y005224D01*
X034223Y005322D02*
X034452Y005322D01*
X034452Y005421D02*
X034223Y005421D01*
X034223Y005519D02*
X034452Y005519D01*
X034452Y005618D02*
X034223Y005618D01*
X034223Y005716D02*
X034452Y005716D01*
X034452Y005815D02*
X034223Y005815D01*
X034168Y005913D02*
X034507Y005913D01*
X034617Y006012D02*
X034058Y006012D01*
X034143Y006110D02*
X034617Y006110D01*
X034617Y006209D02*
X034457Y006209D01*
X033498Y006110D02*
X032467Y006110D01*
X032467Y006012D02*
X033498Y006012D01*
X033387Y005913D02*
X032467Y005913D01*
X032467Y005815D02*
X033333Y005815D01*
X033333Y005716D02*
X032467Y005716D01*
X032467Y005618D02*
X033333Y005618D01*
X032503Y005224D02*
X032467Y005224D01*
X034223Y004830D02*
X034452Y004830D01*
X034452Y004731D02*
X034223Y004731D01*
X034223Y004633D02*
X034452Y004633D01*
X034452Y004534D02*
X034300Y004534D01*
X034399Y004436D02*
X034452Y004436D01*
X035342Y004830D02*
X035583Y004830D01*
X035583Y004928D02*
X035273Y004928D01*
X035342Y005224D02*
X036817Y005224D01*
X036817Y005322D02*
X036503Y005322D01*
X036572Y005421D02*
X037077Y005421D01*
X037077Y005430D02*
X037077Y005920D01*
X037097Y005920D01*
X037097Y005430D01*
X037077Y005430D01*
X037077Y005519D02*
X037097Y005519D01*
X037097Y005618D02*
X037077Y005618D01*
X037077Y005716D02*
X037097Y005716D01*
X037097Y005815D02*
X037077Y005815D01*
X037077Y005913D02*
X037097Y005913D01*
X036828Y005913D02*
X036817Y005875D01*
X036817Y005815D02*
X036598Y005815D01*
X036572Y005716D02*
X036817Y005716D01*
X036817Y005618D02*
X036572Y005618D01*
X036572Y005519D02*
X036817Y005519D01*
X038337Y005519D02*
X038337Y005519D01*
X038337Y005421D02*
X038337Y005421D01*
X038337Y005322D02*
X038337Y005322D01*
X038337Y005224D02*
X038337Y005224D01*
X038337Y005125D02*
X038337Y005125D01*
X038337Y005027D02*
X038337Y005027D01*
X038334Y004928D02*
X038341Y004928D01*
X038377Y004830D02*
X038297Y004830D01*
X038337Y005618D02*
X038337Y005618D01*
X038337Y005716D02*
X038337Y005716D01*
X038337Y005815D02*
X038337Y005815D01*
X038333Y005913D02*
X038342Y005913D01*
X038242Y006209D02*
X038612Y006209D01*
X038539Y006307D02*
X038340Y006307D01*
X038439Y006406D02*
X038507Y006406D01*
X037337Y006997D02*
X037337Y006997D01*
X037337Y007095D02*
X037337Y007095D01*
X037337Y007194D02*
X037337Y007194D01*
X037337Y007292D02*
X037337Y007292D01*
X037337Y007391D02*
X037337Y007391D01*
X037337Y007489D02*
X037337Y007489D01*
X036326Y007095D02*
X036128Y007095D01*
X036030Y006997D02*
X036458Y006997D01*
X036238Y006898D02*
X035931Y006898D01*
X035837Y006800D02*
X036140Y006800D01*
X035872Y006701D02*
X035837Y006701D01*
X036717Y006997D02*
X036837Y006997D01*
X036274Y007194D02*
X036227Y007194D01*
X035730Y007489D02*
X035367Y007489D01*
X035366Y007391D02*
X035632Y007391D01*
X035533Y007292D02*
X035325Y007292D01*
X035367Y007588D02*
X035807Y007588D01*
X035807Y007686D02*
X035367Y007686D01*
X035367Y007785D02*
X035807Y007785D01*
X035807Y007883D02*
X035367Y007883D01*
X034807Y007982D02*
X034305Y007982D01*
X034404Y008080D02*
X034799Y008080D01*
X034701Y008179D02*
X034502Y008179D01*
X034537Y008277D02*
X034657Y008277D01*
X034127Y008277D02*
X034047Y008277D01*
X034047Y008179D02*
X034127Y008179D01*
X034127Y008080D02*
X034047Y008080D01*
X034047Y007982D02*
X034127Y007982D01*
X034127Y008474D02*
X034047Y008474D01*
X034047Y008573D02*
X034127Y008573D01*
X034127Y008671D02*
X034047Y008671D01*
X032237Y009361D02*
X032137Y009361D01*
X032137Y009310D02*
X032137Y009725D01*
X031813Y009725D01*
X031775Y009715D01*
X031740Y009695D01*
X031713Y009667D01*
X031693Y009633D01*
X031683Y009595D01*
X031683Y009310D01*
X032137Y009310D01*
X032137Y009459D02*
X032237Y009459D01*
X032237Y009558D02*
X032137Y009558D01*
X032137Y009656D02*
X032237Y009656D01*
X032086Y009755D02*
X030767Y009755D01*
X030767Y009853D02*
X032015Y009853D01*
X032015Y009952D02*
X030767Y009952D01*
X030767Y010050D02*
X032015Y010050D01*
X032015Y010149D02*
X031909Y010149D01*
X031960Y010247D02*
X032015Y010247D01*
X032034Y010346D02*
X031960Y010346D01*
X031960Y010444D02*
X032833Y010444D01*
X032833Y010346D02*
X032807Y010346D01*
X032046Y010543D02*
X031960Y010543D01*
X031960Y010641D02*
X032015Y010641D01*
X031074Y010247D02*
X030579Y010247D01*
X030677Y010149D02*
X031200Y010149D01*
X030976Y010346D02*
X029126Y010346D01*
X029137Y010444D02*
X029028Y010444D01*
X029039Y010543D02*
X028929Y010543D01*
X028940Y010641D02*
X028707Y010641D01*
X028767Y010740D02*
X028887Y010740D01*
X028887Y010838D02*
X028767Y010838D01*
X028767Y010937D02*
X028887Y010937D01*
X028887Y010920D02*
X029297Y010920D01*
X029297Y011330D01*
X029151Y011330D01*
X028887Y011066D01*
X028887Y010920D01*
X028887Y011035D02*
X028767Y011035D01*
X028692Y011134D02*
X028955Y011134D01*
X029053Y011232D02*
X028594Y011232D01*
X028081Y011232D02*
X027594Y011232D01*
X027692Y011134D02*
X027983Y011134D01*
X027907Y011035D02*
X027767Y011035D01*
X027767Y010937D02*
X027907Y010937D01*
X027907Y010838D02*
X027767Y010838D01*
X027767Y010740D02*
X027907Y010740D01*
X027968Y010641D02*
X027707Y010641D01*
X027608Y010543D02*
X027925Y010543D01*
X027827Y010444D02*
X026156Y010444D01*
X026058Y010346D02*
X027728Y010346D01*
X027657Y010247D02*
X027579Y010247D01*
X027337Y009880D02*
X027337Y008927D01*
X027836Y008428D01*
X028337Y008480D02*
X028337Y008500D01*
X028337Y008480D01*
X028517Y008474D02*
X028561Y008474D01*
X028517Y008573D02*
X028660Y008573D01*
X028707Y008671D02*
X028421Y008671D01*
X028322Y008770D02*
X028707Y008770D01*
X028707Y008868D02*
X028224Y008868D01*
X028125Y008967D02*
X028654Y008967D01*
X028586Y009065D02*
X028027Y009065D01*
X028017Y009164D02*
X028557Y009164D01*
X028557Y009262D02*
X028017Y009262D01*
X028017Y009361D02*
X028597Y009361D01*
X028525Y009459D02*
X028680Y009459D01*
X028150Y009459D02*
X028017Y009459D01*
X028017Y009558D02*
X028052Y009558D01*
X028767Y009952D02*
X028907Y009952D01*
X028907Y010050D02*
X028767Y010050D01*
X028814Y010149D02*
X028677Y010149D01*
X029297Y010444D02*
X029377Y010444D01*
X029377Y010543D02*
X029297Y010543D01*
X029297Y010641D02*
X029377Y010641D01*
X029377Y010740D02*
X029297Y010740D01*
X029297Y010838D02*
X029377Y010838D01*
X029377Y010937D02*
X029297Y010937D01*
X029297Y011035D02*
X029377Y011035D01*
X029377Y011134D02*
X029297Y011134D01*
X029297Y011232D02*
X029377Y011232D01*
X027141Y011331D02*
X035639Y011331D01*
X035677Y011429D02*
X027043Y011429D01*
X026944Y011528D02*
X035754Y011528D01*
X036421Y011528D02*
X038540Y011528D01*
X038879Y011429D02*
X036497Y011429D01*
X036536Y011331D02*
X039049Y011331D01*
X039194Y011232D02*
X038410Y011232D01*
X038699Y011134D02*
X039293Y011134D01*
X039391Y011035D02*
X038870Y011035D01*
X038991Y010937D02*
X039455Y010937D01*
X039512Y010838D02*
X039090Y010838D01*
X039177Y010740D02*
X039569Y010740D01*
X039604Y010641D02*
X039234Y010641D01*
X039291Y010543D02*
X039630Y010543D01*
X039657Y010444D02*
X039338Y010444D01*
X039365Y010346D02*
X039678Y010346D01*
X039687Y010050D02*
X039417Y010050D01*
X039417Y009952D02*
X039687Y009952D01*
X039687Y009853D02*
X039417Y009853D01*
X039402Y009755D02*
X039687Y009755D01*
X039687Y009656D02*
X039376Y009656D01*
X039349Y009558D02*
X039687Y009558D01*
X039687Y009459D02*
X039315Y009459D01*
X039258Y009361D02*
X039687Y009361D01*
X039687Y009262D02*
X039201Y009262D01*
X039131Y009164D02*
X039687Y009164D01*
X039687Y009065D02*
X039033Y009065D01*
X038934Y008967D02*
X039687Y008967D01*
X039687Y008868D02*
X038771Y008868D01*
X038565Y008770D02*
X039687Y008770D01*
X039687Y008671D02*
X036425Y008671D01*
X036517Y008573D02*
X039687Y008573D01*
X034685Y009656D02*
X033569Y009656D01*
X031706Y009656D02*
X030722Y009656D01*
X030623Y009558D02*
X031683Y009558D01*
X031683Y009459D02*
X030547Y009459D01*
X030547Y009361D02*
X031683Y009361D01*
X031101Y008868D02*
X030302Y008868D01*
X030204Y008770D02*
X031002Y008770D01*
X030904Y008671D02*
X030105Y008671D01*
X030047Y008573D02*
X030805Y008573D01*
X030707Y008474D02*
X030123Y008474D01*
X030163Y008376D02*
X030608Y008376D01*
X030510Y008277D02*
X030167Y008277D01*
X030144Y008179D02*
X030507Y008179D01*
X030507Y008080D02*
X030084Y008080D01*
X029512Y008376D02*
X029493Y008376D01*
X029552Y008474D02*
X029394Y008474D01*
X029296Y008573D02*
X029627Y008573D01*
X029627Y008671D02*
X029197Y008671D01*
X029099Y008770D02*
X029627Y008770D01*
X029708Y008868D02*
X029067Y008868D01*
X029121Y008967D02*
X029807Y008967D01*
X029905Y009065D02*
X029189Y009065D01*
X029217Y009164D02*
X030004Y009164D01*
X030102Y009262D02*
X029217Y009262D01*
X028887Y009200D02*
X028887Y008477D01*
X028839Y008428D01*
X028169Y007650D02*
X027614Y008205D01*
X027593Y008205D01*
X027587Y008200D01*
X026698Y007785D02*
X026698Y007785D01*
X026797Y007686D02*
X026797Y007686D01*
X027837Y007536D02*
X027837Y007400D01*
X028037Y007200D01*
X027724Y007095D02*
X027105Y007095D01*
X025237Y007000D02*
X025237Y006573D01*
X025057Y006552D02*
X025057Y006717D01*
X025051Y006720D01*
X024958Y006813D01*
X024957Y006815D01*
X024648Y006815D01*
X024496Y006663D01*
X024496Y006663D01*
X024439Y006605D01*
X024537Y006605D01*
X024537Y006190D01*
X024637Y006190D01*
X024637Y006605D01*
X024962Y006605D01*
X025000Y006595D01*
X025034Y006575D01*
X025057Y006552D01*
X025057Y006603D02*
X024972Y006603D01*
X025057Y006701D02*
X024534Y006701D01*
X024537Y006603D02*
X024637Y006603D01*
X024637Y006504D02*
X024537Y006504D01*
X024537Y006406D02*
X024637Y006406D01*
X024637Y006307D02*
X024537Y006307D01*
X024537Y006209D02*
X024637Y006209D01*
X024637Y006090D02*
X024637Y005675D01*
X024962Y005675D01*
X024988Y005682D01*
X025021Y005650D01*
X024958Y005587D01*
X024907Y005466D01*
X024907Y005334D01*
X024932Y005274D01*
X024878Y005283D01*
X024878Y004800D01*
X024778Y004800D01*
X024778Y004700D01*
X024296Y004700D01*
X024308Y004625D01*
X024334Y004545D01*
X024372Y004470D01*
X024421Y004402D01*
X024481Y004343D01*
X024549Y004293D01*
X024623Y004255D01*
X024703Y004229D01*
X024778Y004217D01*
X024778Y004700D01*
X024878Y004700D01*
X024878Y004217D01*
X024953Y004229D01*
X025033Y004255D01*
X025108Y004293D01*
X025176Y004343D01*
X025236Y004402D01*
X025285Y004470D01*
X025323Y004545D01*
X025349Y004625D01*
X025361Y004700D01*
X024878Y004700D01*
X024878Y004800D01*
X025361Y004800D01*
X025352Y004854D01*
X025416Y004791D01*
X025424Y004791D01*
X025424Y004783D01*
X025627Y004580D01*
X024977Y003930D01*
X024820Y003930D01*
X024817Y003937D01*
X024724Y004030D01*
X024603Y004080D01*
X024472Y004080D01*
X024351Y004030D01*
X024342Y004022D01*
X024342Y004090D01*
X023887Y004090D01*
X023887Y003675D01*
X024211Y003675D01*
X024258Y003563D01*
X024351Y003470D01*
X024472Y003420D01*
X024603Y003420D01*
X024724Y003470D01*
X024817Y003563D01*
X024820Y003570D01*
X025020Y003570D01*
X024835Y003385D01*
X024528Y003385D01*
X024452Y003309D01*
X024452Y002491D01*
X024528Y002415D01*
X024687Y002415D01*
X024687Y001830D01*
X024484Y001830D01*
X024407Y001754D01*
X024407Y000846D01*
X024484Y000770D01*
X025391Y000770D01*
X025467Y000846D01*
X025467Y001754D01*
X025391Y001830D01*
X025107Y001830D01*
X025107Y002415D01*
X025266Y002415D01*
X025342Y002491D01*
X025342Y003299D01*
X025477Y003434D01*
X025477Y002713D01*
X025600Y002590D01*
X025977Y002213D01*
X026422Y001768D01*
X026407Y001754D01*
X026407Y000846D01*
X026484Y000770D01*
X027391Y000770D01*
X027467Y000846D01*
X027467Y001140D01*
X027533Y001140D01*
X027533Y000941D01*
X027609Y000865D01*
X028346Y000865D01*
X028423Y000941D01*
X028423Y001759D01*
X028361Y001820D01*
X028685Y001820D01*
X028662Y001797D01*
X028643Y001763D01*
X028632Y001725D01*
X028632Y001400D01*
X029047Y001400D01*
X029047Y001300D01*
X028632Y001300D01*
X028632Y000975D01*
X028643Y000937D01*
X028662Y000903D01*
X028690Y000875D01*
X028724Y000855D01*
X028763Y000845D01*
X029047Y000845D01*
X029047Y001300D01*
X029147Y001300D01*
X029147Y000845D01*
X029432Y000845D01*
X029470Y000855D01*
X029504Y000875D01*
X029506Y000877D01*
X029657Y000725D01*
X029763Y000620D01*
X031912Y000620D01*
X032112Y000820D01*
X032217Y000925D01*
X032217Y002575D01*
X032412Y002770D01*
X032517Y002875D01*
X032517Y003220D01*
X033012Y003220D01*
X033062Y003270D01*
X033212Y003420D01*
X033333Y003420D01*
X033333Y003352D02*
X033144Y003352D01*
X033046Y003254D02*
X033333Y003254D01*
X033333Y003155D02*
X032517Y003155D01*
X032517Y003057D02*
X033333Y003057D01*
X034127Y002958D02*
X032517Y002958D01*
X032502Y002860D02*
X034131Y002860D01*
X034229Y002761D02*
X032403Y002761D01*
X032305Y002663D02*
X034328Y002663D01*
X034426Y002564D02*
X034082Y002564D01*
X034016Y002630D02*
X033659Y002630D01*
X033407Y002378D01*
X033407Y002022D01*
X033659Y001770D01*
X034016Y001770D01*
X034267Y002022D01*
X034267Y002378D01*
X034016Y002630D01*
X033593Y002564D02*
X033110Y002564D01*
X033024Y002650D02*
X032877Y002650D01*
X032877Y002240D01*
X032797Y002240D01*
X032797Y002160D01*
X032387Y002160D01*
X032387Y002014D01*
X032651Y001750D01*
X032797Y001750D01*
X032797Y002160D01*
X032877Y002160D01*
X032877Y001750D01*
X033024Y001750D01*
X033287Y002014D01*
X033287Y002160D01*
X032877Y002160D01*
X032877Y002240D01*
X033287Y002240D01*
X033287Y002386D01*
X033024Y002650D01*
X032877Y002564D02*
X032797Y002564D01*
X032797Y002650D02*
X032651Y002650D01*
X032387Y002386D01*
X032387Y002240D01*
X032797Y002240D01*
X032797Y002650D01*
X032565Y002564D02*
X032217Y002564D01*
X032217Y002466D02*
X032467Y002466D01*
X032387Y002367D02*
X032217Y002367D01*
X032217Y002269D02*
X032387Y002269D01*
X032217Y002170D02*
X032797Y002170D01*
X032877Y002170D02*
X033407Y002170D01*
X033407Y002072D02*
X033287Y002072D01*
X033247Y001973D02*
X033456Y001973D01*
X033555Y001875D02*
X033148Y001875D01*
X033050Y001776D02*
X033653Y001776D01*
X033659Y001630D02*
X033407Y001378D01*
X033407Y001022D01*
X033659Y000770D01*
X034016Y000770D01*
X034267Y001022D01*
X034267Y001378D01*
X034016Y001630D01*
X033659Y001630D01*
X033608Y001579D02*
X033067Y001579D01*
X033016Y001630D02*
X032659Y001630D01*
X032407Y001378D01*
X032407Y001022D01*
X032659Y000770D01*
X033016Y000770D01*
X033267Y001022D01*
X033267Y001378D01*
X033016Y001630D01*
X032877Y001776D02*
X032797Y001776D01*
X032797Y001875D02*
X032877Y001875D01*
X032877Y001973D02*
X032797Y001973D01*
X032797Y002072D02*
X032877Y002072D01*
X032428Y001973D02*
X032217Y001973D01*
X032217Y001875D02*
X032527Y001875D01*
X032625Y001776D02*
X032217Y001776D01*
X032217Y001678D02*
X036867Y001678D01*
X036857Y001776D02*
X035022Y001776D01*
X035120Y001875D02*
X036857Y001875D01*
X036857Y001973D02*
X035219Y001973D01*
X035267Y002072D02*
X036864Y002072D01*
X036890Y002170D02*
X035267Y002170D01*
X035267Y002269D02*
X036916Y002269D01*
X036943Y002367D02*
X035267Y002367D01*
X035180Y002466D02*
X035355Y002466D01*
X035820Y002466D02*
X036997Y002466D01*
X037054Y002564D02*
X035888Y002564D01*
X035917Y002663D02*
X037111Y002663D01*
X037208Y002761D02*
X035917Y002761D01*
X035879Y002860D02*
X037307Y002860D01*
X037445Y002958D02*
X035796Y002958D01*
X035379Y002958D02*
X034626Y002958D01*
X035342Y003057D02*
X037615Y003057D01*
X037950Y003155D02*
X035342Y003155D01*
X034495Y002466D02*
X034180Y002466D01*
X034267Y002367D02*
X034407Y002367D01*
X034407Y002269D02*
X034267Y002269D01*
X034267Y002170D02*
X034407Y002170D01*
X034407Y002072D02*
X034267Y002072D01*
X034219Y001973D02*
X034456Y001973D01*
X034555Y001875D02*
X034120Y001875D01*
X034022Y001776D02*
X034653Y001776D01*
X034659Y001630D02*
X034407Y001378D01*
X034407Y001022D01*
X034659Y000770D01*
X035016Y000770D01*
X035267Y001022D01*
X035267Y001378D01*
X035016Y001630D01*
X034659Y001630D01*
X034608Y001579D02*
X034067Y001579D01*
X034165Y001481D02*
X034510Y001481D01*
X034411Y001382D02*
X034264Y001382D01*
X034267Y001284D02*
X034407Y001284D01*
X034407Y001185D02*
X034267Y001185D01*
X034267Y001087D02*
X034407Y001087D01*
X034441Y000988D02*
X034234Y000988D01*
X034135Y000890D02*
X034540Y000890D01*
X034638Y000791D02*
X034037Y000791D01*
X033638Y000791D02*
X033037Y000791D01*
X033135Y000890D02*
X033540Y000890D01*
X033441Y000988D02*
X033234Y000988D01*
X033267Y001087D02*
X033407Y001087D01*
X033407Y001185D02*
X033267Y001185D01*
X033267Y001284D02*
X033407Y001284D01*
X033411Y001382D02*
X033264Y001382D01*
X033165Y001481D02*
X033510Y001481D01*
X032608Y001579D02*
X032217Y001579D01*
X032217Y001481D02*
X032510Y001481D01*
X032411Y001382D02*
X032217Y001382D01*
X032217Y001284D02*
X032407Y001284D01*
X032407Y001185D02*
X032217Y001185D01*
X032217Y001087D02*
X032407Y001087D01*
X032441Y000988D02*
X032217Y000988D01*
X032182Y000890D02*
X032540Y000890D01*
X032638Y000791D02*
X032083Y000791D01*
X031985Y000693D02*
X035618Y000693D01*
X035618Y000700D02*
X035616Y000676D01*
X035621Y000670D01*
X035623Y000649D01*
X035619Y000642D01*
X035626Y000619D01*
X035628Y000594D01*
X021986Y000594D01*
X021888Y000496D02*
X035667Y000496D01*
X035669Y000493D02*
X035667Y000486D01*
X035681Y000466D01*
X035692Y000443D01*
X035699Y000441D01*
X035711Y000423D01*
X035711Y000416D01*
X035728Y000399D01*
X035742Y000378D01*
X035750Y000377D01*
X035765Y000362D01*
X035766Y000355D01*
X035773Y000350D01*
X021742Y000350D01*
X022117Y000725D01*
X022117Y001425D01*
X022207Y001515D01*
X022208Y001513D01*
X022301Y001420D01*
X022422Y001370D01*
X022553Y001370D01*
X022674Y001420D01*
X022731Y001477D01*
X022758Y001413D01*
X022851Y001320D01*
X022972Y001270D01*
X023103Y001270D01*
X023224Y001320D01*
X023317Y001413D01*
X023367Y001534D01*
X023367Y001666D01*
X023365Y001673D01*
X023367Y001675D01*
X023367Y002428D01*
X023371Y002425D01*
X023405Y002405D01*
X023443Y002395D01*
X023728Y002395D01*
X023728Y002850D01*
X023828Y002850D01*
X023828Y002950D01*
X024243Y002950D01*
X024243Y003275D01*
X024232Y003313D01*
X024213Y003347D01*
X024185Y003375D01*
X024150Y003395D01*
X024112Y003405D01*
X023828Y003405D01*
X023828Y002950D01*
X023728Y002950D01*
X023728Y003405D01*
X023443Y003405D01*
X023405Y003395D01*
X023391Y003387D01*
X023467Y003463D01*
X023517Y003584D01*
X023517Y003675D01*
X023787Y003675D01*
X023787Y004090D01*
X023333Y004090D01*
X023333Y003947D01*
X023253Y003980D01*
X023122Y003980D01*
X023001Y003930D01*
X022908Y003837D01*
X022857Y003716D01*
X022857Y003584D01*
X022908Y003463D01*
X023001Y003370D01*
X023007Y003367D01*
X023007Y002387D01*
X022903Y002430D01*
X022772Y002430D01*
X022651Y002380D01*
X022641Y002370D01*
X022667Y002434D01*
X022667Y002566D01*
X022617Y002687D01*
X022524Y002780D01*
X022403Y002830D01*
X022272Y002830D01*
X022151Y002780D01*
X022058Y002687D01*
X022007Y002566D01*
X022007Y002434D01*
X022010Y002427D01*
X021967Y002385D01*
X021967Y002416D01*
X021917Y002537D01*
X021824Y002630D01*
X021703Y002680D01*
X021572Y002680D01*
X021451Y002630D01*
X021358Y002537D01*
X021307Y002416D01*
X021307Y002380D01*
X021116Y002380D01*
X021117Y002384D01*
X021117Y002516D01*
X021067Y002637D01*
X020974Y002730D01*
X020853Y002780D01*
X020722Y002780D01*
X020715Y002777D01*
X020567Y002925D01*
X020567Y003225D01*
X020571Y003225D01*
X020637Y003291D01*
X020704Y003225D01*
X020758Y003225D01*
X020960Y003023D01*
X020957Y003016D01*
X020957Y002884D01*
X021008Y002763D01*
X021101Y002670D01*
X021222Y002620D01*
X021353Y002620D01*
X021474Y002670D01*
X021567Y002763D01*
X021608Y002862D01*
X021651Y002820D01*
X021772Y002770D01*
X021903Y002770D01*
X022024Y002820D01*
X022117Y002913D01*
X022167Y003034D01*
X022167Y003166D01*
X022117Y003287D01*
X022024Y003380D01*
X022017Y003383D01*
X022017Y004275D01*
X021817Y004475D01*
X021412Y004880D01*
X020984Y004880D01*
X021017Y004913D01*
X021067Y005034D01*
X021067Y005166D01*
X021017Y005287D01*
X020924Y005380D01*
X020803Y005430D01*
X020672Y005430D01*
X020551Y005380D01*
X020458Y005287D01*
X020407Y005166D01*
X020407Y005080D01*
X019945Y005080D01*
X019967Y005134D01*
X019967Y005266D01*
X019917Y005387D01*
X019824Y005480D01*
X019703Y005530D01*
X019572Y005530D01*
X019451Y005480D01*
X019358Y005387D01*
X019313Y005280D01*
X017884Y005280D01*
X017917Y005313D01*
X017967Y005434D01*
X017967Y005566D01*
X017917Y005687D01*
X017824Y005780D01*
X017703Y005830D01*
X017661Y005830D01*
X017757Y005925D01*
X017848Y005835D01*
X017987Y005695D01*
X018126Y005556D01*
X018234Y005556D01*
X018737Y006060D01*
X019241Y005556D01*
X019349Y005556D01*
X019507Y005714D01*
X019646Y005853D01*
X019785Y005993D01*
X019857Y006065D01*
X020046Y005876D01*
X019958Y005787D01*
X019907Y005666D01*
X019907Y005534D01*
X019958Y005413D01*
X020051Y005320D01*
X020172Y005270D01*
X020303Y005270D01*
X020424Y005320D01*
X020517Y005413D01*
X020567Y005534D01*
X020567Y005666D01*
X020517Y005787D01*
X020424Y005880D01*
X020417Y005883D01*
X020417Y006014D01*
X020126Y006305D01*
X020138Y006317D01*
X019809Y006646D01*
X020155Y006300D01*
X020237Y006300D01*
X020193Y006372D02*
X020213Y006406D01*
X020218Y006425D01*
X020342Y006549D01*
X020481Y006688D01*
X020481Y006796D01*
X019977Y007300D01*
X020481Y007804D01*
X020481Y007912D01*
X020323Y008069D01*
X020184Y008209D01*
X020045Y008348D01*
X019906Y008487D01*
X019906Y008487D01*
X019767Y008626D01*
X019767Y008626D01*
X019717Y008676D01*
X019824Y008720D01*
X019917Y008813D01*
X019967Y008934D01*
X019967Y009066D01*
X019955Y009095D01*
X020097Y009095D01*
X020097Y009550D01*
X019682Y009550D01*
X019682Y009330D01*
X019572Y009330D01*
X019473Y009289D01*
X019473Y010009D01*
X019396Y010085D01*
X018897Y010085D01*
X018367Y010720D01*
X018367Y011170D01*
X018741Y011170D01*
X018637Y011066D01*
X018637Y010920D01*
X019047Y010920D01*
X019047Y010840D01*
X018637Y010840D01*
X018637Y010694D01*
X018901Y010430D01*
X019047Y010430D01*
X019047Y010840D01*
X019127Y010840D01*
X019127Y010430D01*
X019274Y010430D01*
X019537Y010694D01*
X019537Y010840D01*
X019127Y010840D01*
X019127Y010920D01*
X019537Y010920D01*
X019537Y011066D01*
X019434Y011170D01*
X019769Y011170D01*
X019657Y011058D01*
X019657Y010702D01*
X019909Y010450D01*
X020266Y010450D01*
X020517Y010702D01*
X020517Y011058D01*
X020406Y011170D01*
X020769Y011170D01*
X020657Y011058D01*
X020657Y010702D01*
X020807Y010552D01*
X020807Y009894D01*
X020850Y009791D01*
X020979Y009663D01*
X021157Y009484D01*
X021157Y009272D01*
X021409Y009020D01*
X021766Y009020D01*
X021916Y009170D01*
X022093Y009170D01*
X022196Y009213D01*
X022407Y009424D01*
X022407Y009072D01*
X022659Y008820D01*
X023016Y008820D01*
X023267Y009072D01*
X023267Y009174D01*
X023357Y009084D01*
X023357Y007694D01*
X023400Y007592D01*
X023217Y007775D01*
X023112Y007880D01*
X023076Y007880D01*
X023267Y008072D01*
X023267Y008428D01*
X023016Y008680D01*
X022659Y008680D01*
X022409Y008430D01*
X022313Y008430D01*
X022063Y008180D01*
X021926Y008180D01*
X022017Y008272D01*
X022017Y008628D01*
X021766Y008880D01*
X021409Y008880D01*
X021157Y008628D01*
X021157Y008272D01*
X021256Y008173D01*
X020863Y007780D01*
X020757Y007675D01*
X020757Y006125D01*
X021157Y005725D01*
X021263Y005620D01*
X022313Y005620D01*
X022760Y005173D01*
X022757Y005166D01*
X022757Y005034D01*
X022801Y004930D01*
X022772Y004930D01*
X022651Y004880D01*
X022558Y004787D01*
X022507Y004666D01*
X022507Y004534D01*
X022558Y004413D01*
X022651Y004320D01*
X022772Y004270D01*
X022903Y004270D01*
X023024Y004320D01*
X023293Y004320D01*
X023333Y004336D01*
X023333Y004190D01*
X023787Y004190D01*
X023787Y004090D01*
X023887Y004090D01*
X023887Y004190D01*
X023787Y004190D01*
X023787Y004605D01*
X023639Y004605D01*
X023848Y004815D01*
X024246Y004815D01*
X024308Y004877D01*
X024308Y004875D01*
X024296Y004800D01*
X024778Y004800D01*
X024778Y005283D01*
X024703Y005271D01*
X024623Y005245D01*
X024549Y005207D01*
X024481Y005157D01*
X024421Y005098D01*
X024372Y005030D01*
X024334Y004955D01*
X024322Y004920D01*
X024322Y005629D01*
X024276Y005675D01*
X024537Y005675D01*
X024537Y006090D01*
X024637Y006090D01*
X024637Y006012D02*
X024537Y006012D01*
X024537Y005913D02*
X024637Y005913D01*
X024637Y005815D02*
X024537Y005815D01*
X024537Y005716D02*
X024637Y005716D01*
X024322Y005618D02*
X024988Y005618D01*
X024930Y005519D02*
X024322Y005519D01*
X024322Y005421D02*
X024907Y005421D01*
X024913Y005322D02*
X024322Y005322D01*
X024322Y005224D02*
X024582Y005224D01*
X024448Y005125D02*
X024322Y005125D01*
X024322Y005027D02*
X024370Y005027D01*
X024325Y004928D02*
X024322Y004928D01*
X024300Y004830D02*
X024261Y004830D01*
X023764Y004731D02*
X024778Y004731D01*
X024778Y004633D02*
X024878Y004633D01*
X024878Y004731D02*
X025476Y004731D01*
X025574Y004633D02*
X025350Y004633D01*
X025318Y004534D02*
X025581Y004534D01*
X025482Y004436D02*
X025260Y004436D01*
X025168Y004337D02*
X025384Y004337D01*
X025285Y004239D02*
X024982Y004239D01*
X024878Y004239D02*
X024778Y004239D01*
X024778Y004337D02*
X024878Y004337D01*
X024878Y004436D02*
X024778Y004436D01*
X024778Y004534D02*
X024878Y004534D01*
X024397Y004436D02*
X024342Y004436D01*
X024342Y004475D02*
X024332Y004513D01*
X024312Y004547D01*
X024284Y004575D01*
X024250Y004595D01*
X024212Y004605D01*
X023887Y004605D01*
X023887Y004190D01*
X024342Y004190D01*
X024342Y004475D01*
X024339Y004534D02*
X024320Y004534D01*
X024306Y004633D02*
X023666Y004633D01*
X023787Y004534D02*
X023887Y004534D01*
X023887Y004436D02*
X023787Y004436D01*
X023787Y004337D02*
X023887Y004337D01*
X023887Y004239D02*
X023787Y004239D01*
X023787Y004140D02*
X022017Y004140D01*
X022017Y004042D02*
X023333Y004042D01*
X023033Y003943D02*
X022017Y003943D01*
X022017Y003845D02*
X022915Y003845D01*
X022870Y003746D02*
X022017Y003746D01*
X022017Y003648D02*
X022857Y003648D01*
X022872Y003549D02*
X022017Y003549D01*
X022017Y003451D02*
X022920Y003451D01*
X023007Y003352D02*
X022052Y003352D01*
X022131Y003254D02*
X023007Y003254D01*
X023007Y003155D02*
X022167Y003155D01*
X022167Y003057D02*
X023007Y003057D01*
X023007Y002958D02*
X022136Y002958D01*
X022064Y002860D02*
X023007Y002860D01*
X023007Y002761D02*
X022543Y002761D01*
X022627Y002663D02*
X023007Y002663D01*
X023007Y002564D02*
X022667Y002564D01*
X022667Y002466D02*
X023007Y002466D01*
X023367Y002367D02*
X024687Y002367D01*
X024687Y002269D02*
X023367Y002269D01*
X023367Y002170D02*
X024687Y002170D01*
X024687Y002072D02*
X023367Y002072D01*
X023367Y001973D02*
X024687Y001973D01*
X024687Y001875D02*
X023367Y001875D01*
X023367Y001776D02*
X024430Y001776D01*
X024407Y001678D02*
X023367Y001678D01*
X023367Y001579D02*
X024407Y001579D01*
X024407Y001481D02*
X023345Y001481D01*
X023286Y001382D02*
X024407Y001382D01*
X024407Y001284D02*
X023136Y001284D01*
X022939Y001284D02*
X022117Y001284D01*
X022117Y001382D02*
X022393Y001382D01*
X022240Y001481D02*
X022173Y001481D01*
X022137Y001700D02*
X021937Y001500D01*
X021937Y001150D01*
X021937Y001000D01*
X021937Y000800D01*
X021637Y000500D01*
X021587Y000500D01*
X015987Y000500D01*
X015937Y000500D01*
X015237Y001200D01*
X015737Y001700D02*
X016237Y001200D01*
X017237Y001200D02*
X017737Y000700D01*
X021537Y000700D01*
X021737Y000900D01*
X021737Y001600D01*
X022237Y002100D01*
X022437Y002100D01*
X022637Y002100D01*
X022837Y002100D01*
X023187Y001750D02*
X023037Y001600D01*
X023187Y001750D02*
X023187Y003650D01*
X023517Y003648D02*
X024223Y003648D01*
X024272Y003549D02*
X023503Y003549D01*
X023455Y003451D02*
X024398Y003451D01*
X024496Y003352D02*
X024208Y003352D01*
X024243Y003254D02*
X024452Y003254D01*
X024452Y003155D02*
X024243Y003155D01*
X024243Y003057D02*
X024452Y003057D01*
X024452Y002958D02*
X024243Y002958D01*
X024243Y002850D02*
X023828Y002850D01*
X023828Y002395D01*
X024112Y002395D01*
X024150Y002405D01*
X024185Y002425D01*
X024213Y002453D01*
X024232Y002487D01*
X024243Y002525D01*
X024243Y002850D01*
X024243Y002761D02*
X024452Y002761D01*
X024452Y002663D02*
X024243Y002663D01*
X024243Y002564D02*
X024452Y002564D01*
X024478Y002466D02*
X024220Y002466D01*
X023828Y002466D02*
X023728Y002466D01*
X023728Y002564D02*
X023828Y002564D01*
X023828Y002663D02*
X023728Y002663D01*
X023728Y002761D02*
X023828Y002761D01*
X023828Y002860D02*
X024452Y002860D01*
X024897Y002900D02*
X024947Y003201D01*
X025342Y003155D02*
X025477Y003155D01*
X025477Y003057D02*
X025342Y003057D01*
X025342Y002958D02*
X025477Y002958D01*
X025477Y002860D02*
X025342Y002860D01*
X025342Y002761D02*
X025477Y002761D01*
X025528Y002663D02*
X025342Y002663D01*
X025342Y002564D02*
X025626Y002564D01*
X025725Y002466D02*
X025317Y002466D01*
X025107Y002367D02*
X025823Y002367D01*
X025922Y002269D02*
X025107Y002269D01*
X025107Y002170D02*
X026020Y002170D01*
X025977Y002213D02*
X025977Y002213D01*
X026119Y002072D02*
X025107Y002072D01*
X025107Y001973D02*
X026217Y001973D01*
X026316Y001875D02*
X025107Y001875D01*
X025445Y001776D02*
X026414Y001776D01*
X026407Y001678D02*
X025467Y001678D01*
X025467Y001579D02*
X026407Y001579D01*
X026407Y001481D02*
X025467Y001481D01*
X025467Y001382D02*
X026407Y001382D01*
X026407Y001284D02*
X025467Y001284D01*
X025467Y001185D02*
X026407Y001185D01*
X026407Y001087D02*
X025467Y001087D01*
X025467Y000988D02*
X026407Y000988D01*
X026407Y000890D02*
X025467Y000890D01*
X025412Y000791D02*
X026463Y000791D01*
X027412Y000791D02*
X029592Y000791D01*
X029690Y000693D02*
X022085Y000693D01*
X022117Y000791D02*
X024463Y000791D01*
X024407Y000890D02*
X022117Y000890D01*
X022117Y000988D02*
X024407Y000988D01*
X024407Y001087D02*
X022117Y001087D01*
X022117Y001185D02*
X024407Y001185D01*
X022789Y001382D02*
X022582Y001382D01*
X022487Y001700D02*
X022137Y001700D01*
X021387Y001550D02*
X021387Y001520D01*
X021387Y001050D01*
X021237Y000900D01*
X018137Y000900D01*
X017837Y001200D01*
X017837Y001400D01*
X017537Y001700D01*
X016737Y001700D01*
X016237Y002200D01*
X016667Y002170D02*
X017197Y002170D01*
X017197Y002160D02*
X016787Y002160D01*
X016787Y002014D01*
X016921Y001880D01*
X016812Y001880D01*
X016667Y002025D01*
X016667Y002378D01*
X016416Y002630D01*
X016059Y002630D01*
X015917Y002488D01*
X015917Y003225D01*
X016212Y003520D01*
X016663Y003520D01*
X017357Y002825D01*
X017463Y002720D01*
X017912Y002720D01*
X018217Y003025D01*
X018217Y003210D01*
X018238Y003205D01*
X018372Y003205D01*
X018372Y003740D01*
X018107Y003740D01*
X018107Y003685D01*
X018017Y003775D01*
X017912Y003880D01*
X017712Y003880D01*
X017492Y004100D01*
X017517Y004125D01*
X017517Y004125D01*
X017612Y004220D01*
X017612Y004220D01*
X017712Y004320D01*
X019207Y004320D01*
X019207Y004285D01*
X019204Y004285D01*
X019137Y004219D01*
X019071Y004285D01*
X018704Y004285D01*
X018648Y004229D01*
X018637Y004247D01*
X018610Y004275D01*
X018575Y004295D01*
X018537Y004305D01*
X018402Y004305D01*
X018402Y003770D01*
X018372Y003770D01*
X018372Y003740D01*
X018402Y003740D01*
X018402Y003205D01*
X018537Y003205D01*
X018575Y003215D01*
X018610Y003235D01*
X018637Y003263D01*
X018648Y003281D01*
X018704Y003225D01*
X018707Y003225D01*
X018707Y003175D01*
X019063Y002820D01*
X019355Y002820D01*
X019358Y002813D01*
X019451Y002720D01*
X019572Y002670D01*
X019703Y002670D01*
X019824Y002720D01*
X019917Y002813D01*
X019967Y002934D01*
X019967Y003066D01*
X019917Y003187D01*
X019872Y003232D01*
X019872Y003740D01*
X019902Y003740D01*
X019902Y003205D01*
X020037Y003205D01*
X020075Y003215D01*
X020110Y003235D01*
X020137Y003263D01*
X020148Y003281D01*
X020204Y003225D01*
X020207Y003225D01*
X020207Y002775D01*
X020460Y002523D01*
X020457Y002516D01*
X020457Y002384D01*
X020508Y002263D01*
X020601Y002170D01*
X017277Y002170D01*
X017277Y002160D02*
X017277Y002240D01*
X017197Y002240D01*
X017197Y002160D01*
X017197Y002240D02*
X016787Y002240D01*
X016787Y002386D01*
X017051Y002650D01*
X017197Y002650D01*
X017197Y002240D01*
X017197Y002269D02*
X017277Y002269D01*
X017277Y002240D02*
X017277Y002650D01*
X017424Y002650D01*
X017687Y002386D01*
X017687Y002240D01*
X017277Y002240D01*
X017277Y002160D02*
X017687Y002160D01*
X017687Y002017D01*
X017751Y002080D01*
X017872Y002130D01*
X018003Y002130D01*
X018124Y002080D01*
X018179Y002025D01*
X018204Y002050D01*
X018571Y002050D01*
X018627Y001994D01*
X018637Y002012D01*
X018665Y002040D01*
X018700Y002060D01*
X018738Y002070D01*
X018872Y002070D01*
X018872Y001535D01*
X018902Y001535D01*
X018902Y002070D01*
X019037Y002070D01*
X019075Y002060D01*
X019110Y002040D01*
X019137Y002012D01*
X019165Y002040D01*
X019200Y002060D01*
X019238Y002070D01*
X019372Y002070D01*
X019372Y001535D01*
X019372Y001505D01*
X018902Y001505D01*
X018902Y001535D01*
X019167Y001535D01*
X019372Y001535D01*
X019402Y001535D01*
X019402Y002070D01*
X019537Y002070D01*
X019575Y002060D01*
X019610Y002040D01*
X019637Y002012D01*
X019648Y001994D01*
X019704Y002050D01*
X020071Y002050D01*
X020127Y001994D01*
X020137Y002012D01*
X020165Y002040D01*
X020200Y002060D01*
X020238Y002070D01*
X020372Y002070D01*
X020372Y001535D01*
X020402Y001535D01*
X020402Y002070D01*
X020537Y002070D01*
X020575Y002060D01*
X020610Y002040D01*
X020637Y002012D01*
X020648Y001994D01*
X020704Y002050D01*
X020707Y002050D01*
X020707Y002125D01*
X020708Y002126D01*
X020601Y002170D01*
X020505Y002269D02*
X017687Y002269D01*
X017687Y002367D02*
X020465Y002367D01*
X020457Y002466D02*
X017608Y002466D01*
X017510Y002564D02*
X020419Y002564D01*
X020320Y002663D02*
X015917Y002663D01*
X015917Y002761D02*
X017422Y002761D01*
X017323Y002860D02*
X015917Y002860D01*
X015917Y002958D02*
X017225Y002958D01*
X017126Y003057D02*
X015917Y003057D01*
X015917Y003155D02*
X017028Y003155D01*
X016929Y003254D02*
X015946Y003254D01*
X016044Y003352D02*
X016831Y003352D01*
X016732Y003451D02*
X016143Y003451D01*
X016137Y003700D02*
X015737Y003300D01*
X015737Y003100D01*
X015737Y001700D01*
X016719Y001973D02*
X016828Y001973D01*
X016787Y002072D02*
X016667Y002072D01*
X016667Y002269D02*
X016787Y002269D01*
X016787Y002367D02*
X016667Y002367D01*
X016580Y002466D02*
X016867Y002466D01*
X016965Y002564D02*
X016482Y002564D01*
X015993Y002564D02*
X015917Y002564D01*
X014737Y002600D02*
X014737Y002400D01*
X014237Y001900D01*
X014037Y001900D01*
X013732Y001776D02*
X012647Y001776D01*
X012647Y001678D02*
X013793Y001678D01*
X013950Y001579D02*
X013602Y001579D01*
X013602Y001481D02*
X014114Y001481D01*
X014125Y001579D02*
X014154Y001579D01*
X014107Y001382D02*
X014019Y001382D01*
X013707Y001875D02*
X013575Y001875D01*
X013602Y001973D02*
X013711Y001973D01*
X013751Y002072D02*
X013602Y002072D01*
X012778Y001875D02*
X012647Y001875D01*
X012647Y001973D02*
X012751Y001973D01*
X012751Y002072D02*
X012647Y002072D01*
X012647Y002170D02*
X012751Y002170D01*
X012751Y002269D02*
X012647Y002269D01*
X012647Y002367D02*
X012751Y002367D01*
X012751Y002466D02*
X012647Y002466D01*
X012647Y002564D02*
X012751Y002564D01*
X012815Y002663D02*
X012647Y002663D01*
X012647Y002761D02*
X013632Y002761D01*
X013548Y002663D02*
X013538Y002663D01*
X013732Y002892D02*
X013829Y002852D01*
X013931Y002824D01*
X014035Y002811D01*
X014037Y002811D01*
X014037Y003563D01*
X014137Y003563D01*
X014137Y003663D01*
X014037Y003663D01*
X014037Y003563D01*
X013285Y003563D01*
X013285Y003561D01*
X013298Y003456D01*
X013326Y003355D01*
X013366Y003258D01*
X013419Y003166D01*
X013483Y003083D01*
X013557Y003009D01*
X013641Y002944D01*
X013732Y002892D01*
X013810Y002860D02*
X012647Y002860D01*
X012647Y002958D02*
X013623Y002958D01*
X013509Y003057D02*
X012647Y003057D01*
X012647Y003155D02*
X013427Y003155D01*
X013368Y003254D02*
X012647Y003254D01*
X012647Y003352D02*
X013327Y003352D01*
X013300Y003451D02*
X012584Y003451D01*
X013017Y003549D02*
X013286Y003549D01*
X013285Y003663D02*
X014037Y003663D01*
X014037Y004416D01*
X014035Y004416D01*
X013931Y004402D01*
X013829Y004375D01*
X013732Y004335D01*
X013641Y004282D01*
X013557Y004218D01*
X013483Y004144D01*
X013419Y004060D01*
X013366Y003969D01*
X013326Y003872D01*
X013298Y003770D01*
X013285Y003666D01*
X013285Y003663D01*
X013295Y003746D02*
X013082Y003746D01*
X013082Y003648D02*
X014037Y003648D01*
X014037Y003746D02*
X014137Y003746D01*
X014137Y003663D02*
X014137Y004416D01*
X014140Y004416D01*
X014244Y004402D01*
X014346Y004375D01*
X014443Y004335D01*
X014534Y004282D01*
X014618Y004218D01*
X014692Y004144D01*
X014756Y004060D01*
X014809Y003969D01*
X014849Y003872D01*
X014876Y003770D01*
X014890Y003666D01*
X014890Y003663D01*
X014137Y003663D01*
X014137Y003648D02*
X015230Y003648D01*
X015329Y003746D02*
X014880Y003746D01*
X014857Y003845D02*
X015427Y003845D01*
X015526Y003943D02*
X014820Y003943D01*
X014767Y004042D02*
X015624Y004042D01*
X015723Y004140D02*
X014695Y004140D01*
X014591Y004239D02*
X015821Y004239D01*
X015857Y004337D02*
X014438Y004337D01*
X014639Y004436D02*
X013082Y004436D01*
X013082Y004534D02*
X014517Y004534D01*
X014453Y004633D02*
X013076Y004633D01*
X013082Y004731D02*
X014412Y004731D01*
X014410Y004830D02*
X013082Y004830D01*
X013082Y004928D02*
X014418Y004928D01*
X014459Y005027D02*
X013082Y005027D01*
X013082Y005125D02*
X014532Y005125D01*
X014675Y005224D02*
X013082Y005224D01*
X013082Y005322D02*
X015857Y005322D01*
X015857Y005224D02*
X015634Y005224D01*
X015776Y005125D02*
X015857Y005125D01*
X015850Y005027D02*
X015857Y005027D01*
X016437Y005100D02*
X016437Y004500D01*
X016937Y004000D01*
X017637Y003300D01*
X017837Y002900D02*
X018037Y003100D01*
X018037Y003500D01*
X017837Y003700D01*
X017637Y003700D01*
X017337Y004000D01*
X017237Y004100D01*
X017337Y004200D01*
X017537Y004400D01*
X017637Y004500D01*
X018737Y004500D01*
X019337Y004500D01*
X019437Y004500D01*
X019387Y004450D01*
X019387Y003755D01*
X019872Y003770D02*
X019872Y004305D01*
X019738Y004305D01*
X019700Y004295D01*
X019665Y004275D01*
X019637Y004247D01*
X019627Y004229D01*
X019571Y004285D01*
X019567Y004285D01*
X019567Y004320D01*
X019663Y004320D01*
X019812Y004320D01*
X020012Y004520D01*
X021263Y004520D01*
X021478Y004305D01*
X021402Y004305D01*
X021402Y003770D01*
X021372Y003770D01*
X021372Y004305D01*
X021238Y004305D01*
X021200Y004295D01*
X021165Y004275D01*
X021137Y004247D01*
X021127Y004229D01*
X021071Y004285D01*
X020704Y004285D01*
X020637Y004219D01*
X020571Y004285D01*
X020204Y004285D01*
X020148Y004229D01*
X020137Y004247D01*
X020110Y004275D01*
X020075Y004295D01*
X020037Y004305D01*
X019902Y004305D01*
X019902Y003770D01*
X019872Y003770D01*
X019872Y003845D02*
X019902Y003845D01*
X019902Y003943D02*
X019872Y003943D01*
X019872Y004042D02*
X019902Y004042D01*
X019902Y004140D02*
X019872Y004140D01*
X019872Y004239D02*
X019902Y004239D01*
X019829Y004337D02*
X021446Y004337D01*
X021402Y004239D02*
X021372Y004239D01*
X021372Y004140D02*
X021402Y004140D01*
X021402Y004042D02*
X021372Y004042D01*
X021372Y003943D02*
X021402Y003943D01*
X021402Y003845D02*
X021372Y003845D01*
X021387Y003755D02*
X021387Y003750D01*
X021437Y003700D01*
X020887Y003755D02*
X020887Y003350D01*
X021287Y002950D01*
X020957Y002958D02*
X020567Y002958D01*
X020567Y003057D02*
X020926Y003057D01*
X020828Y003155D02*
X020567Y003155D01*
X020600Y003254D02*
X020675Y003254D01*
X020207Y003155D02*
X019930Y003155D01*
X019902Y003254D02*
X019872Y003254D01*
X019872Y003352D02*
X019902Y003352D01*
X019902Y003451D02*
X019872Y003451D01*
X019872Y003549D02*
X019902Y003549D01*
X019902Y003648D02*
X019872Y003648D01*
X020387Y003755D02*
X020387Y002850D01*
X020787Y002450D01*
X021097Y002564D02*
X021385Y002564D01*
X021328Y002466D02*
X021117Y002466D01*
X021119Y002663D02*
X021042Y002663D01*
X021010Y002761D02*
X020899Y002761D01*
X020968Y002860D02*
X020633Y002860D01*
X020222Y002761D02*
X019865Y002761D01*
X019936Y002860D02*
X020207Y002860D01*
X020207Y002958D02*
X019967Y002958D01*
X019967Y003057D02*
X020207Y003057D01*
X019637Y003000D02*
X019137Y003000D01*
X018887Y003250D01*
X018887Y003755D01*
X018402Y003845D02*
X018372Y003845D01*
X018372Y003770D02*
X018372Y004305D01*
X018238Y004305D01*
X018200Y004295D01*
X018165Y004275D01*
X018137Y004247D01*
X018118Y004213D01*
X018107Y004175D01*
X018107Y003770D01*
X018372Y003770D01*
X018372Y003746D02*
X018046Y003746D01*
X018107Y003845D02*
X017948Y003845D01*
X018107Y003943D02*
X017649Y003943D01*
X017550Y004042D02*
X018107Y004042D01*
X018107Y004140D02*
X017532Y004140D01*
X017631Y004239D02*
X018132Y004239D01*
X018372Y004239D02*
X018402Y004239D01*
X018402Y004140D02*
X018372Y004140D01*
X018372Y004042D02*
X018402Y004042D01*
X018402Y003943D02*
X018372Y003943D01*
X018642Y004239D02*
X018657Y004239D01*
X019118Y004239D02*
X019157Y004239D01*
X019437Y004500D02*
X019737Y004500D01*
X019937Y004700D01*
X021337Y004700D01*
X021637Y004400D01*
X021837Y004200D01*
X021837Y003100D01*
X021611Y002860D02*
X021607Y002860D01*
X021565Y002761D02*
X022132Y002761D01*
X022048Y002663D02*
X021745Y002663D01*
X021890Y002564D02*
X022007Y002564D01*
X022007Y002466D02*
X021947Y002466D01*
X021637Y002350D02*
X021487Y002200D01*
X021037Y002200D01*
X020887Y002050D01*
X020887Y001900D01*
X020887Y001520D01*
X020402Y001579D02*
X020372Y001579D01*
X020372Y001678D02*
X020402Y001678D01*
X020402Y001776D02*
X020372Y001776D01*
X020372Y001875D02*
X020402Y001875D01*
X020402Y001973D02*
X020372Y001973D01*
X020707Y002072D02*
X018133Y002072D01*
X017742Y002072D02*
X017687Y002072D01*
X017277Y002367D02*
X017197Y002367D01*
X017197Y002466D02*
X017277Y002466D01*
X017277Y002564D02*
X017197Y002564D01*
X017953Y002761D02*
X019410Y002761D01*
X019023Y002860D02*
X018052Y002860D01*
X018150Y002958D02*
X018925Y002958D01*
X018826Y003057D02*
X018217Y003057D01*
X018217Y003155D02*
X018728Y003155D01*
X018675Y003254D02*
X018628Y003254D01*
X018402Y003254D02*
X018372Y003254D01*
X018372Y003352D02*
X018402Y003352D01*
X018402Y003451D02*
X018372Y003451D01*
X018372Y003549D02*
X018402Y003549D01*
X018402Y003648D02*
X018372Y003648D01*
X017537Y002900D02*
X016737Y003700D01*
X016137Y003700D01*
X015837Y004000D02*
X014337Y002500D01*
X014737Y002600D02*
X016237Y004100D01*
X016237Y005500D01*
X017522Y006785D01*
X017526Y006785D01*
X017387Y006924D02*
X016037Y005574D01*
X016037Y005474D01*
X016037Y005400D01*
X016037Y004200D01*
X015837Y004000D01*
X016637Y004700D02*
X016937Y004400D01*
X017237Y004100D01*
X017037Y004600D02*
X017437Y004600D01*
X017537Y004700D01*
X019137Y004700D01*
X019337Y004700D01*
X019637Y004700D01*
X019737Y004800D01*
X019837Y004900D01*
X020337Y004900D01*
X020537Y004900D01*
X020737Y005100D01*
X020431Y005224D02*
X019967Y005224D01*
X019964Y005125D02*
X020407Y005125D01*
X020426Y005322D02*
X020493Y005322D01*
X020520Y005421D02*
X020649Y005421D01*
X020561Y005519D02*
X022414Y005519D01*
X022512Y005421D02*
X020826Y005421D01*
X020982Y005322D02*
X022611Y005322D01*
X022709Y005224D02*
X021043Y005224D01*
X021067Y005125D02*
X022757Y005125D01*
X022761Y005027D02*
X021064Y005027D01*
X021023Y004928D02*
X022767Y004928D01*
X022600Y004830D02*
X021462Y004830D01*
X021561Y004731D02*
X022535Y004731D01*
X022507Y004633D02*
X021659Y004633D01*
X021758Y004534D02*
X022508Y004534D01*
X022548Y004436D02*
X021856Y004436D01*
X021955Y004337D02*
X022634Y004337D01*
X022017Y004239D02*
X023333Y004239D01*
X023887Y004140D02*
X025187Y004140D01*
X025088Y004042D02*
X024696Y004042D01*
X024811Y003943D02*
X024990Y003943D01*
X025051Y003750D02*
X024537Y003750D01*
X025051Y003750D02*
X026055Y004753D01*
X026037Y004736D01*
X026037Y004700D01*
X025832Y004976D02*
X026106Y005250D01*
X026387Y005250D01*
X025609Y005199D02*
X025408Y005400D01*
X025237Y005400D01*
X024878Y005224D02*
X024778Y005224D01*
X024778Y005125D02*
X024878Y005125D01*
X024878Y005027D02*
X024778Y005027D01*
X024778Y004928D02*
X024878Y004928D01*
X024878Y004830D02*
X024778Y004830D01*
X025356Y004830D02*
X025377Y004830D01*
X024489Y004337D02*
X024342Y004337D01*
X024342Y004239D02*
X024675Y004239D01*
X024379Y004042D02*
X024342Y004042D01*
X023887Y004042D02*
X023787Y004042D01*
X023787Y003943D02*
X023887Y003943D01*
X023887Y003845D02*
X023787Y003845D01*
X023787Y003746D02*
X023887Y003746D01*
X024677Y003451D02*
X024900Y003451D01*
X024803Y003549D02*
X024999Y003549D01*
X025396Y003352D02*
X025477Y003352D01*
X025477Y003254D02*
X025342Y003254D01*
X025937Y003300D02*
X026237Y003600D01*
X026337Y003600D01*
X026537Y003400D01*
X026937Y003400D01*
X027168Y003631D01*
X027391Y003417D02*
X027074Y003100D01*
X026937Y003100D01*
X026337Y003100D01*
X025937Y002900D02*
X025937Y003300D01*
X025937Y002900D02*
X026337Y002500D01*
X026837Y002000D01*
X027837Y002000D01*
X027887Y002000D01*
X029337Y002000D01*
X029637Y001700D01*
X029637Y001000D01*
X029837Y000800D01*
X031837Y000800D01*
X032037Y001000D01*
X032037Y002000D01*
X032037Y002650D01*
X032337Y002950D01*
X032337Y003400D01*
X030418Y003352D02*
X030052Y003352D01*
X030024Y003380D02*
X029903Y003430D01*
X029898Y003430D01*
X029915Y003447D01*
X029915Y003454D01*
X029922Y003454D01*
X030130Y003662D01*
X030149Y003667D01*
X030183Y003687D01*
X030267Y003770D01*
X029952Y004085D01*
X029891Y004024D01*
X029891Y004024D01*
X029952Y004085D01*
X029952Y004085D01*
X029952Y004085D01*
X030267Y003770D01*
X030341Y003845D01*
X030418Y003768D01*
X030418Y003277D01*
X030350Y003210D01*
X030227Y003087D01*
X030227Y002885D01*
X030089Y002885D01*
X030117Y002913D01*
X030167Y003034D01*
X030167Y003166D01*
X030117Y003287D01*
X030024Y003380D01*
X029915Y003451D02*
X030418Y003451D01*
X030418Y003549D02*
X030017Y003549D01*
X030116Y003648D02*
X030418Y003648D01*
X030418Y003746D02*
X030242Y003746D01*
X030193Y003845D02*
X030193Y003845D01*
X030094Y003943D02*
X030094Y003943D01*
X029996Y004042D02*
X029996Y004042D01*
X029952Y004085D02*
X029952Y004085D01*
X029637Y004400D01*
X029952Y004085D01*
X029952Y004085D01*
X030013Y004147D01*
X029952Y004085D01*
X029908Y004042D02*
X029908Y004042D01*
X029897Y004140D02*
X029897Y004140D01*
X030007Y004140D02*
X030007Y004140D01*
X030013Y004147D02*
X030013Y004147D01*
X029799Y004239D02*
X029799Y004239D01*
X029700Y004337D02*
X029700Y004337D01*
X029673Y004436D02*
X028867Y004436D01*
X028867Y004337D02*
X029574Y004337D01*
X029504Y004239D02*
X028828Y004239D01*
X029064Y004140D02*
X029405Y004140D01*
X029307Y004042D02*
X029136Y004042D01*
X029167Y003943D02*
X029208Y003943D01*
X028837Y003900D02*
X028837Y003864D01*
X029284Y003417D01*
X029061Y003195D02*
X029356Y002900D01*
X029637Y002900D01*
X029837Y003100D01*
X030131Y003254D02*
X030394Y003254D01*
X030295Y003155D02*
X030167Y003155D01*
X030167Y003057D02*
X030227Y003057D01*
X030227Y002958D02*
X030136Y002958D01*
X028839Y002972D02*
X028437Y003373D01*
X028437Y003600D01*
X028137Y003400D02*
X028037Y003500D01*
X028037Y003900D01*
X028537Y004400D01*
X028772Y004633D02*
X029490Y004633D01*
X029356Y004731D02*
X028467Y004731D01*
X028441Y004830D02*
X029257Y004830D01*
X029159Y004928D02*
X028376Y004928D01*
X027899Y004928D02*
X027167Y004928D01*
X027165Y004830D02*
X027834Y004830D01*
X027772Y004731D02*
X027125Y004731D01*
X027037Y004633D02*
X027474Y004633D01*
X027320Y004534D02*
X026876Y004534D01*
X027002Y004436D02*
X027221Y004436D01*
X027123Y004337D02*
X027101Y004337D01*
X026974Y004337D02*
X026974Y004337D01*
X026876Y004239D02*
X026876Y004239D01*
X026777Y004140D02*
X026777Y004140D01*
X026723Y004085D02*
X026662Y004147D01*
X026662Y004147D01*
X026723Y004085D01*
X026723Y004085D01*
X026767Y004042D02*
X026767Y004042D01*
X026679Y004042D02*
X026679Y004042D01*
X026668Y004140D02*
X026668Y004140D01*
X026580Y003943D02*
X026580Y003943D01*
X026519Y003882D02*
X026519Y003882D01*
X028137Y003400D02*
X028237Y003300D01*
X028337Y003200D01*
X028337Y002800D01*
X027837Y002973D02*
X027837Y003000D01*
X027837Y002600D01*
X027637Y002400D01*
X027119Y002700D02*
X026837Y002700D01*
X027087Y002700D02*
X027119Y002700D01*
X027614Y003195D01*
X027836Y002972D02*
X027837Y002973D01*
X028937Y002340D02*
X029337Y002340D01*
X029397Y002340D01*
X029837Y001900D01*
X030137Y001600D01*
X030137Y001440D01*
X030278Y001300D01*
X029147Y001284D02*
X029047Y001284D01*
X029047Y001382D02*
X028423Y001382D01*
X028423Y001284D02*
X028632Y001284D01*
X028632Y001185D02*
X028423Y001185D01*
X028423Y001087D02*
X028632Y001087D01*
X028632Y000988D02*
X028423Y000988D01*
X028371Y000890D02*
X028676Y000890D01*
X029047Y000890D02*
X029147Y000890D01*
X029147Y000988D02*
X029047Y000988D01*
X029047Y001087D02*
X029147Y001087D01*
X029147Y001185D02*
X029047Y001185D01*
X028632Y001481D02*
X028423Y001481D01*
X028423Y001579D02*
X028632Y001579D01*
X028632Y001678D02*
X028423Y001678D01*
X028405Y001776D02*
X028650Y001776D01*
X027533Y001087D02*
X027467Y001087D01*
X027467Y000988D02*
X027533Y000988D01*
X027584Y000890D02*
X027467Y000890D01*
X032217Y002072D02*
X032387Y002072D01*
X032797Y002269D02*
X032877Y002269D01*
X032877Y002367D02*
X032797Y002367D01*
X032797Y002466D02*
X032877Y002466D01*
X033208Y002466D02*
X033495Y002466D01*
X033407Y002367D02*
X033287Y002367D01*
X033287Y002269D02*
X033407Y002269D01*
X035067Y001579D02*
X036893Y001579D01*
X036919Y001481D02*
X035165Y001481D01*
X035264Y001382D02*
X036947Y001382D01*
X037004Y001284D02*
X035267Y001284D01*
X035267Y001185D02*
X037061Y001185D01*
X037121Y001087D02*
X036350Y001087D01*
X036347Y001089D02*
X036344Y001096D01*
X036322Y001106D01*
X036302Y001120D01*
X036295Y001119D01*
X036275Y001128D01*
X036272Y001134D01*
X036248Y001141D01*
X036226Y001151D01*
X036219Y001149D01*
X036198Y001154D01*
X036193Y001160D01*
X036169Y001162D01*
X036145Y001168D01*
X036139Y001164D01*
X036118Y001166D01*
X036112Y001171D01*
X036087Y001169D01*
X036063Y001171D01*
X036057Y001166D01*
X036036Y001164D01*
X036030Y001168D01*
X036006Y001162D01*
X035982Y001160D01*
X035977Y001154D01*
X035956Y001149D01*
X035949Y001151D01*
X035927Y001141D01*
X035903Y001134D01*
X035900Y001128D01*
X035880Y001119D01*
X035873Y001120D01*
X035853Y001106D01*
X035831Y001096D01*
X035828Y001089D01*
X035811Y001077D01*
X035803Y001077D01*
X035786Y001059D01*
X035766Y001045D01*
X035765Y001038D01*
X035750Y001023D01*
X035742Y001022D01*
X035728Y001001D01*
X035711Y000984D01*
X035711Y000977D01*
X035699Y000959D01*
X035692Y000957D01*
X035681Y000934D01*
X035667Y000914D01*
X035669Y000907D01*
X035660Y000888D01*
X035653Y000884D01*
X035647Y000860D01*
X035636Y000838D01*
X035639Y000831D01*
X035633Y000811D01*
X035628Y000806D01*
X035626Y000781D01*
X035619Y000758D01*
X035623Y000751D01*
X035621Y000730D01*
X035616Y000724D01*
X035618Y000700D01*
X035626Y000791D02*
X035037Y000791D01*
X035135Y000890D02*
X035660Y000890D01*
X035715Y000988D02*
X035234Y000988D01*
X035267Y001087D02*
X035825Y001087D01*
X036347Y001089D02*
X036364Y001077D01*
X036372Y001077D01*
X036389Y001059D01*
X036409Y001045D01*
X036410Y001038D01*
X036425Y001023D01*
X036433Y001022D01*
X036447Y001001D01*
X036464Y000984D01*
X036464Y000977D01*
X036476Y000959D01*
X036483Y000957D01*
X036494Y000934D01*
X036508Y000914D01*
X036506Y000907D01*
X036515Y000888D01*
X036522Y000884D01*
X036528Y000860D01*
X036539Y000838D01*
X036536Y000831D01*
X036541Y000811D01*
X036547Y000806D01*
X036549Y000781D01*
X036556Y000758D01*
X036552Y000751D01*
X036554Y000730D01*
X036559Y000724D01*
X036556Y000700D01*
X036559Y000676D01*
X036554Y000670D01*
X036552Y000649D01*
X036556Y000642D01*
X036549Y000619D01*
X036547Y000594D01*
X036557Y000693D02*
X037634Y000693D01*
X037464Y000791D02*
X036548Y000791D01*
X036515Y000890D02*
X037318Y000890D01*
X037219Y000988D02*
X036460Y000988D01*
X036508Y000496D02*
X038928Y000496D01*
X038646Y000397D02*
X036446Y000397D01*
X035729Y000397D02*
X021789Y000397D01*
X021387Y001550D02*
X022337Y002500D01*
X021530Y002663D02*
X021456Y002663D01*
X020175Y003254D02*
X020128Y003254D01*
X017837Y002900D02*
X017537Y002900D01*
X015132Y003549D02*
X014889Y003549D01*
X014875Y003451D02*
X015033Y003451D01*
X014935Y003352D02*
X014848Y003352D01*
X014836Y003254D02*
X014807Y003254D01*
X014137Y003254D02*
X014037Y003254D01*
X014037Y003352D02*
X014137Y003352D01*
X014137Y003451D02*
X014037Y003451D01*
X014037Y003549D02*
X014137Y003549D01*
X014137Y003845D02*
X014037Y003845D01*
X014037Y003943D02*
X014137Y003943D01*
X014137Y004042D02*
X014037Y004042D01*
X014037Y004140D02*
X014137Y004140D01*
X014137Y004239D02*
X014037Y004239D01*
X014037Y004337D02*
X014137Y004337D01*
X013737Y004337D02*
X013082Y004337D01*
X013082Y004239D02*
X013583Y004239D01*
X013480Y004140D02*
X013082Y004140D01*
X013082Y004042D02*
X013408Y004042D01*
X013355Y003943D02*
X013082Y003943D01*
X013082Y003845D02*
X013318Y003845D01*
X011707Y004140D02*
X010203Y004140D01*
X010203Y004042D02*
X011312Y004042D01*
X011240Y003943D02*
X010203Y003943D01*
X010203Y003845D02*
X011207Y003845D01*
X011207Y003746D02*
X010203Y003746D01*
X010203Y003648D02*
X011243Y003648D01*
X011322Y003549D02*
X010138Y003549D01*
X009798Y003737D02*
X009401Y003737D01*
X009038Y003845D02*
X008325Y003845D01*
X008325Y003943D02*
X008940Y003943D01*
X008841Y004042D02*
X008281Y004042D01*
X008757Y004140D02*
X000487Y004140D01*
X000487Y004042D02*
X007794Y004042D01*
X007750Y003943D02*
X000487Y003943D01*
X000487Y003845D02*
X007750Y003845D01*
X008757Y004239D02*
X000487Y004239D01*
X000487Y004337D02*
X007787Y004337D01*
X007788Y004336D02*
X007822Y004316D01*
X007860Y004306D01*
X008009Y004306D01*
X008009Y004900D01*
X007730Y004900D01*
X007730Y004436D01*
X007740Y004398D01*
X007760Y004364D01*
X007788Y004336D01*
X007730Y004436D02*
X004550Y004436D01*
X004709Y004534D02*
X007730Y004534D01*
X007730Y004633D02*
X004807Y004633D01*
X004906Y004731D02*
X007730Y004731D01*
X007730Y004830D02*
X005004Y004830D01*
X004960Y004785D02*
X004960Y004785D01*
X005103Y004928D02*
X008009Y004928D01*
X008009Y004900D02*
X008009Y004957D01*
X008009Y005551D01*
X007860Y005551D01*
X007822Y005541D01*
X007788Y005521D01*
X007760Y005493D01*
X007740Y005459D01*
X007730Y005421D01*
X007730Y004957D01*
X008009Y004957D01*
X008066Y004957D01*
X008066Y005551D01*
X008215Y005551D01*
X008253Y005541D01*
X008287Y005521D01*
X008315Y005493D01*
X008335Y005459D01*
X008345Y005421D01*
X008345Y004957D01*
X008066Y004957D01*
X008066Y004900D01*
X008345Y004900D01*
X008345Y004436D01*
X008335Y004398D01*
X008315Y004364D01*
X008287Y004336D01*
X008253Y004316D01*
X008215Y004306D01*
X008066Y004306D01*
X008066Y004900D01*
X008009Y004900D01*
X008066Y004928D02*
X008757Y004928D01*
X008757Y004830D02*
X008345Y004830D01*
X008345Y004731D02*
X008757Y004731D01*
X008757Y004633D02*
X008345Y004633D01*
X008345Y004534D02*
X008757Y004534D01*
X008757Y004436D02*
X008345Y004436D01*
X008288Y004337D02*
X008757Y004337D01*
X009137Y004300D02*
X009137Y006700D01*
X009337Y006900D01*
X009337Y007400D01*
X009667Y007391D02*
X010957Y007391D01*
X010957Y007489D02*
X009658Y007489D01*
X009630Y007588D02*
X009617Y007588D01*
X009845Y007588D02*
X010957Y007588D01*
X010970Y007686D02*
X009990Y007686D01*
X010047Y007785D02*
X011026Y007785D01*
X011124Y007883D02*
X010067Y007883D01*
X010061Y007982D02*
X011223Y007982D01*
X011321Y008080D02*
X010020Y008080D01*
X009926Y008179D02*
X011420Y008179D01*
X011491Y008277D02*
X011518Y008277D01*
X011491Y008376D02*
X011612Y008376D01*
X011652Y008474D02*
X011491Y008474D01*
X011491Y008573D02*
X011743Y008573D01*
X012490Y008967D02*
X012497Y008967D01*
X013137Y009300D02*
X013237Y009400D01*
X013137Y009300D02*
X013137Y006200D01*
X013037Y006100D01*
X012977Y006040D01*
X012677Y006040D01*
X012272Y006012D02*
X012254Y006012D01*
X012276Y005913D02*
X012155Y005913D01*
X012057Y005815D02*
X012272Y005815D01*
X012272Y005716D02*
X011549Y005716D01*
X011596Y005763D02*
X011596Y005763D01*
X011451Y005618D02*
X012252Y005618D01*
X012252Y005519D02*
X011352Y005519D01*
X011254Y005421D02*
X012257Y005421D01*
X012272Y005322D02*
X011217Y005322D01*
X011217Y005224D02*
X012272Y005224D01*
X012272Y005125D02*
X011217Y005125D01*
X011217Y005027D02*
X012272Y005027D01*
X012272Y004928D02*
X011217Y004928D01*
X011217Y004830D02*
X012272Y004830D01*
X012272Y004731D02*
X011212Y004731D01*
X011166Y004633D02*
X012277Y004633D01*
X012272Y004534D02*
X011067Y004534D01*
X010969Y004436D02*
X011806Y004436D01*
X011737Y004337D02*
X010927Y004337D01*
X010843Y004239D02*
X011707Y004239D01*
X012269Y004436D02*
X012272Y004436D01*
X011037Y004100D02*
X010837Y004100D01*
X010737Y004100D01*
X010437Y004100D01*
X010237Y004300D01*
X010237Y004400D01*
X010133Y004504D01*
X009798Y004504D01*
X009373Y004504D01*
X009373Y004416D01*
X009383Y004378D01*
X009393Y004361D01*
X009393Y004299D01*
X009317Y004375D01*
X009317Y006625D01*
X009393Y006701D01*
X009393Y006701D01*
X009393Y006695D01*
X009383Y006678D01*
X009373Y006640D01*
X009373Y006552D01*
X009798Y006552D01*
X009798Y006552D01*
X010223Y006552D01*
X009798Y006552D01*
X009798Y006552D01*
X009389Y006552D01*
X009337Y006500D01*
X009337Y006300D01*
X009342Y006296D01*
X009798Y006296D01*
X009798Y006514D01*
X009798Y006552D01*
X009373Y006552D01*
X009373Y006463D01*
X009383Y006425D01*
X009384Y006424D01*
X009383Y006422D01*
X009373Y006384D01*
X009373Y006296D01*
X009798Y006296D01*
X009798Y006296D01*
X009798Y006552D01*
X009798Y006552D01*
X009798Y006504D02*
X009798Y006504D01*
X009798Y006406D02*
X009798Y006406D01*
X009798Y006307D02*
X009798Y006307D01*
X009798Y006296D02*
X009798Y006296D01*
X010223Y006296D01*
X009798Y006296D01*
X009798Y006296D01*
X009373Y006296D01*
X009373Y006207D01*
X009383Y006169D01*
X009393Y006152D01*
X009393Y005917D01*
X009399Y005912D01*
X009393Y005906D01*
X009393Y005662D01*
X009399Y005656D01*
X009393Y005650D01*
X009393Y005415D01*
X009383Y005398D01*
X009373Y005360D01*
X009373Y005272D01*
X009373Y005184D01*
X009383Y005146D01*
X009393Y005129D01*
X009393Y004894D01*
X009399Y004888D01*
X009393Y004883D01*
X009393Y004648D01*
X009383Y004631D01*
X009373Y004593D01*
X009373Y004504D01*
X009798Y004504D01*
X009798Y004504D01*
X010179Y004504D01*
X010179Y004504D01*
X009798Y004504D01*
X009798Y004504D01*
X009433Y004504D01*
X009337Y004600D01*
X009337Y005200D01*
X009337Y005300D01*
X009365Y005272D01*
X009409Y005272D01*
X009798Y005272D01*
X009373Y005272D01*
X009798Y005272D01*
X009798Y005272D01*
X009373Y005224D02*
X009317Y005224D01*
X009337Y005300D02*
X009337Y006300D01*
X009317Y006307D02*
X009373Y006307D01*
X009373Y006209D02*
X009317Y006209D01*
X009317Y006110D02*
X009393Y006110D01*
X009393Y006012D02*
X009317Y006012D01*
X009317Y005913D02*
X009397Y005913D01*
X009393Y005815D02*
X009317Y005815D01*
X009317Y005716D02*
X009393Y005716D01*
X009393Y005618D02*
X009317Y005618D01*
X009317Y005519D02*
X009393Y005519D01*
X009393Y005421D02*
X009317Y005421D01*
X009317Y005322D02*
X009373Y005322D01*
X009393Y005125D02*
X009317Y005125D01*
X009317Y005027D02*
X009393Y005027D01*
X009393Y004928D02*
X009317Y004928D01*
X009317Y004830D02*
X009393Y004830D01*
X009393Y004731D02*
X009317Y004731D01*
X009317Y004633D02*
X009384Y004633D01*
X009373Y004534D02*
X009317Y004534D01*
X009317Y004436D02*
X009373Y004436D01*
X009355Y004337D02*
X009393Y004337D01*
X009137Y004300D02*
X009445Y003993D01*
X009798Y003993D01*
X010203Y004239D02*
X010432Y004239D01*
X010346Y004337D02*
X010203Y004337D01*
X010223Y004436D02*
X010247Y004436D01*
X010337Y004600D02*
X010437Y004500D01*
X010637Y004500D01*
X010337Y004600D02*
X010237Y004700D01*
X010177Y004760D01*
X009798Y004760D01*
X009798Y005016D02*
X010421Y005016D01*
X010409Y005528D02*
X009798Y005528D01*
X009798Y005784D02*
X010121Y005784D01*
X010437Y006100D01*
X010837Y006100D01*
X010713Y006406D02*
X010217Y006406D01*
X010223Y006504D02*
X010957Y006504D01*
X010957Y006603D02*
X010223Y006603D01*
X010203Y006701D02*
X010921Y006701D01*
X010907Y006800D02*
X010203Y006800D01*
X010203Y006898D02*
X010921Y006898D01*
X010957Y006997D02*
X010203Y006997D01*
X010203Y007095D02*
X010957Y007095D01*
X010957Y007194D02*
X010195Y007194D01*
X009650Y007292D02*
X010957Y007292D01*
X009428Y007785D02*
X009117Y007785D01*
X009117Y007883D02*
X009358Y007883D01*
X009283Y007982D02*
X009117Y007982D01*
X009117Y008080D02*
X009257Y008080D01*
X009257Y008179D02*
X009117Y008179D01*
X009117Y008277D02*
X009184Y008277D01*
X009184Y008376D02*
X009117Y008376D01*
X009117Y008474D02*
X009184Y008474D01*
X009184Y008573D02*
X009117Y008573D01*
X009117Y008671D02*
X009184Y008671D01*
X009184Y008770D02*
X009117Y008770D01*
X009117Y008868D02*
X009184Y008868D01*
X009221Y008967D02*
X009117Y008967D01*
X009207Y009065D02*
X010759Y009065D01*
X010759Y009164D02*
X009306Y009164D01*
X009404Y009262D02*
X010759Y009262D01*
X010717Y008967D02*
X009958Y008967D01*
X009995Y008868D02*
X010680Y008868D01*
X010680Y008770D02*
X009995Y008770D01*
X009995Y008671D02*
X010680Y008671D01*
X010680Y008573D02*
X009995Y008573D01*
X009995Y008474D02*
X010680Y008474D01*
X010680Y008376D02*
X009995Y008376D01*
X009995Y008277D02*
X010680Y008277D01*
X009166Y007686D02*
X009117Y007686D01*
X008757Y007686D02*
X008747Y007686D01*
X008747Y007785D02*
X008757Y007785D01*
X008747Y007883D02*
X008757Y007883D01*
X008747Y007982D02*
X008757Y007982D01*
X008747Y008080D02*
X008757Y008080D01*
X008747Y008179D02*
X008757Y008179D01*
X008747Y008277D02*
X008757Y008277D01*
X008747Y008376D02*
X008757Y008376D01*
X008747Y008474D02*
X008757Y008474D01*
X008747Y008573D02*
X008757Y008573D01*
X008747Y008671D02*
X008757Y008671D01*
X008747Y008770D02*
X008757Y008770D01*
X008747Y008868D02*
X008757Y008868D01*
X008747Y008967D02*
X008757Y008967D01*
X008747Y009065D02*
X008757Y009065D01*
X008747Y009164D02*
X008796Y009164D01*
X008747Y009262D02*
X008895Y009262D01*
X008993Y009361D02*
X008747Y009361D01*
X008747Y009459D02*
X009092Y009459D01*
X009190Y009558D02*
X008747Y009558D01*
X008327Y009558D02*
X007804Y009558D01*
X007837Y009524D02*
X007761Y009600D01*
X007837Y009676D01*
X007837Y010024D01*
X007761Y010100D01*
X007765Y010104D01*
X007786Y010113D01*
X007996Y010322D01*
X008027Y010354D01*
X008027Y010213D01*
X008150Y010090D01*
X008327Y009913D01*
X008327Y007657D01*
X008258Y007587D01*
X008207Y007466D01*
X008207Y007334D01*
X008258Y007213D01*
X008351Y007120D01*
X008472Y007070D01*
X008603Y007070D01*
X008724Y007120D01*
X008757Y007153D01*
X008757Y006317D01*
X008753Y006322D01*
X008613Y006380D01*
X008207Y006380D01*
X008207Y008184D01*
X008131Y008260D01*
X007612Y008260D01*
X007612Y008600D01*
X007761Y008600D01*
X007837Y008676D01*
X007837Y009024D01*
X007761Y009100D01*
X007837Y009176D01*
X007837Y009524D01*
X007837Y009459D02*
X008327Y009459D01*
X008327Y009361D02*
X007837Y009361D01*
X007837Y009262D02*
X008327Y009262D01*
X008327Y009164D02*
X007825Y009164D01*
X007761Y009100D02*
X007461Y009100D01*
X007461Y009100D01*
X007761Y009100D01*
X007796Y009065D02*
X008327Y009065D01*
X008327Y008967D02*
X007837Y008967D01*
X007837Y008868D02*
X008327Y008868D01*
X008327Y008770D02*
X007837Y008770D01*
X007832Y008671D02*
X008327Y008671D01*
X008327Y008573D02*
X007612Y008573D01*
X007612Y008474D02*
X008327Y008474D01*
X008327Y008376D02*
X007612Y008376D01*
X007612Y008277D02*
X008327Y008277D01*
X008327Y008179D02*
X008207Y008179D01*
X008207Y008080D02*
X008327Y008080D01*
X008327Y007982D02*
X008207Y007982D01*
X008207Y007883D02*
X008327Y007883D01*
X008327Y007785D02*
X008207Y007785D01*
X008207Y007686D02*
X008327Y007686D01*
X008258Y007588D02*
X008207Y007588D01*
X008207Y007489D02*
X008217Y007489D01*
X008207Y007391D02*
X008207Y007391D01*
X008207Y007292D02*
X008225Y007292D01*
X008207Y007194D02*
X008277Y007194D01*
X008207Y007095D02*
X008411Y007095D01*
X008207Y006997D02*
X008757Y006997D01*
X008757Y007095D02*
X008663Y007095D01*
X008757Y006898D02*
X008207Y006898D01*
X008207Y006800D02*
X008757Y006800D01*
X008757Y006701D02*
X008207Y006701D01*
X008207Y006603D02*
X008757Y006603D01*
X008757Y006504D02*
X008207Y006504D01*
X008207Y006406D02*
X008757Y006406D01*
X009317Y006406D02*
X009379Y006406D01*
X009373Y006504D02*
X009317Y006504D01*
X009317Y006603D02*
X009373Y006603D01*
X010223Y006307D02*
X010578Y006307D01*
X010291Y006209D02*
X010223Y006209D01*
X008757Y005618D02*
X005517Y005618D01*
X005517Y005519D02*
X007786Y005519D01*
X007730Y005421D02*
X005516Y005421D01*
X005475Y005322D02*
X007730Y005322D01*
X007730Y005224D02*
X005398Y005224D01*
X005300Y005125D02*
X007730Y005125D01*
X007730Y005027D02*
X005201Y005027D01*
X004422Y005322D02*
X004422Y005322D01*
X004315Y005215D01*
X004241Y005245D01*
X003434Y005245D01*
X003218Y005125D02*
X000487Y005125D01*
X000487Y005027D02*
X003135Y005027D01*
X003094Y004928D02*
X000487Y004928D01*
X000487Y004830D02*
X003077Y004830D01*
X003077Y004731D02*
X000487Y004731D01*
X000487Y004633D02*
X003110Y004633D01*
X003159Y004534D02*
X000487Y004534D01*
X000487Y004436D02*
X003258Y004436D01*
X004293Y005224D02*
X004324Y005224D01*
X004521Y005421D02*
X000487Y005421D01*
X000487Y005519D02*
X004619Y005519D01*
X004718Y005618D02*
X000487Y005618D01*
X000487Y005716D02*
X003300Y005716D01*
X003302Y005715D02*
X003365Y005683D01*
X003432Y005661D01*
X003502Y005650D01*
X003807Y005650D01*
X003807Y006070D01*
X003087Y006070D01*
X003087Y006065D01*
X003099Y005995D01*
X003120Y005927D01*
X003153Y005864D01*
X003194Y005807D01*
X003244Y005757D01*
X003302Y005715D01*
X003189Y005815D02*
X001185Y005815D01*
X001138Y005795D02*
X001324Y005872D01*
X001466Y006014D01*
X001542Y006200D01*
X001542Y006400D01*
X001466Y006586D01*
X001324Y006728D01*
X001138Y006805D01*
X000937Y006805D01*
X000751Y006728D01*
X000609Y006586D01*
X000532Y006400D01*
X000532Y006200D01*
X000609Y006014D01*
X000751Y005872D01*
X000937Y005795D01*
X001138Y005795D01*
X000890Y005815D02*
X000487Y005815D01*
X000487Y005913D02*
X000710Y005913D01*
X000612Y006012D02*
X000487Y006012D01*
X000487Y006110D02*
X000570Y006110D01*
X000532Y006209D02*
X000487Y006209D01*
X000487Y006307D02*
X000532Y006307D01*
X000535Y006406D02*
X000487Y006406D01*
X000487Y006504D02*
X000575Y006504D01*
X000626Y006603D02*
X000487Y006603D01*
X000487Y006701D02*
X000724Y006701D01*
X000924Y006800D02*
X000487Y006800D01*
X000487Y006898D02*
X004757Y006898D01*
X004757Y006800D02*
X001151Y006800D01*
X001351Y006701D02*
X004757Y006701D01*
X004757Y006603D02*
X001449Y006603D01*
X001500Y006504D02*
X003339Y006504D01*
X003365Y006517D02*
X003302Y006485D01*
X003244Y006443D01*
X003194Y006393D01*
X003153Y006336D01*
X003120Y006273D01*
X003099Y006205D01*
X003087Y006135D01*
X003087Y006130D01*
X003807Y006130D01*
X003807Y006070D01*
X003867Y006070D01*
X003867Y005650D01*
X004173Y005650D01*
X004243Y005661D01*
X004310Y005683D01*
X004373Y005715D01*
X004431Y005757D01*
X004481Y005807D01*
X004522Y005864D01*
X004554Y005927D01*
X004576Y005995D01*
X004587Y006065D01*
X004587Y006070D01*
X003867Y006070D01*
X003867Y006130D01*
X003807Y006130D01*
X003807Y006550D01*
X003502Y006550D01*
X003432Y006539D01*
X003365Y006517D01*
X003207Y006406D02*
X001540Y006406D01*
X001542Y006307D02*
X003138Y006307D01*
X003100Y006209D02*
X001542Y006209D01*
X001505Y006110D02*
X003807Y006110D01*
X003867Y006110D02*
X004757Y006110D01*
X004757Y006012D02*
X004579Y006012D01*
X004547Y005913D02*
X004757Y005913D01*
X004757Y005815D02*
X004486Y005815D01*
X004375Y005716D02*
X004757Y005716D01*
X003867Y005716D02*
X003807Y005716D01*
X003807Y005815D02*
X003867Y005815D01*
X003867Y005913D02*
X003807Y005913D01*
X003807Y006012D02*
X003867Y006012D01*
X003867Y006130D02*
X004587Y006130D01*
X004587Y006135D01*
X004576Y006205D01*
X004554Y006273D01*
X004522Y006336D01*
X004481Y006393D01*
X004431Y006443D01*
X004373Y006485D01*
X004310Y006517D01*
X004243Y006539D01*
X004173Y006550D01*
X003867Y006550D01*
X003867Y006130D01*
X003867Y006209D02*
X003807Y006209D01*
X003807Y006307D02*
X003867Y006307D01*
X003867Y006406D02*
X003807Y006406D01*
X003807Y006504D02*
X003867Y006504D01*
X004336Y006504D02*
X004757Y006504D01*
X004757Y006406D02*
X004468Y006406D01*
X004537Y006307D02*
X004757Y006307D01*
X004757Y006209D02*
X004575Y006209D01*
X003128Y005913D02*
X001365Y005913D01*
X001463Y006012D02*
X003096Y006012D01*
X004757Y006997D02*
X000487Y006997D01*
X000487Y007095D02*
X004757Y007095D01*
X004757Y007194D02*
X004588Y007194D01*
X004735Y007292D02*
X004757Y007292D01*
X004037Y007292D02*
X003937Y007292D01*
X003937Y007194D02*
X004037Y007194D01*
X004037Y007391D02*
X003937Y007391D01*
X003937Y007489D02*
X004037Y007489D01*
X004037Y007588D02*
X003937Y007588D01*
X003937Y007686D02*
X000487Y007686D01*
X000487Y007588D02*
X003080Y007588D01*
X003107Y007489D02*
X000487Y007489D01*
X000487Y007391D02*
X003157Y007391D01*
X003240Y007292D02*
X000487Y007292D01*
X000487Y007194D02*
X003387Y007194D01*
X003074Y007730D02*
X003937Y007730D01*
X003937Y008212D01*
X003563Y008212D01*
X003480Y008199D01*
X003401Y008173D01*
X003326Y008135D01*
X003258Y008086D01*
X003199Y008027D01*
X003150Y007959D01*
X003111Y007884D01*
X003086Y007805D01*
X003074Y007730D01*
X003082Y007785D02*
X000487Y007785D01*
X000487Y007883D02*
X003111Y007883D01*
X003166Y007982D02*
X000487Y007982D01*
X000487Y008080D02*
X003252Y008080D01*
X003416Y008179D02*
X000487Y008179D01*
X000487Y008277D02*
X004877Y008277D01*
X004800Y008179D02*
X004559Y008179D01*
X004723Y008080D02*
X004759Y008080D01*
X004037Y008080D02*
X003937Y008080D01*
X003937Y007982D02*
X004037Y007982D01*
X004037Y007883D02*
X003937Y007883D01*
X003937Y007785D02*
X004037Y007785D01*
X004037Y008179D02*
X003937Y008179D01*
X005051Y008376D02*
X000487Y008376D01*
X000487Y008474D02*
X006511Y008474D01*
X006552Y008573D02*
X000487Y008573D01*
X000487Y008671D02*
X004628Y008671D01*
X004617Y008770D02*
X002465Y008770D01*
X002532Y008787D02*
X002823Y008956D01*
X003062Y009194D01*
X003230Y009486D01*
X003317Y009811D01*
X003317Y010149D01*
X004157Y010149D01*
X004157Y010247D02*
X003291Y010247D01*
X003317Y010149D02*
X003230Y010474D01*
X003062Y010766D01*
X002823Y011004D01*
X002532Y011173D01*
X002206Y011260D01*
X001869Y011260D01*
X001543Y011173D01*
X001252Y011004D01*
X001013Y010766D01*
X000845Y010474D01*
X000757Y010149D01*
X000487Y010149D01*
X000491Y010247D02*
X000784Y010247D01*
X000810Y010346D02*
X000497Y010346D01*
X000518Y010444D02*
X000837Y010444D01*
X000884Y010543D02*
X000545Y010543D01*
X000571Y010641D02*
X000941Y010641D01*
X000998Y010740D02*
X000606Y010740D01*
X000663Y010838D02*
X001085Y010838D01*
X001184Y010937D02*
X000719Y010937D01*
X000784Y011035D02*
X001305Y011035D01*
X001475Y011134D02*
X000882Y011134D01*
X000981Y011232D02*
X001765Y011232D01*
X002310Y011232D02*
X004674Y011232D01*
X004772Y011331D02*
X001126Y011331D01*
X001296Y011429D02*
X004871Y011429D01*
X004969Y011528D02*
X001635Y011528D01*
X002599Y011134D02*
X004575Y011134D01*
X004476Y011035D02*
X002770Y011035D01*
X002891Y010937D02*
X004378Y010937D01*
X004279Y010838D02*
X002990Y010838D01*
X003077Y010740D02*
X004192Y010740D01*
X004157Y010641D02*
X003134Y010641D01*
X003191Y010543D02*
X004157Y010543D01*
X004157Y010444D02*
X003238Y010444D01*
X003265Y010346D02*
X004157Y010346D01*
X004157Y010050D02*
X003317Y010050D01*
X003317Y009952D02*
X004196Y009952D01*
X004279Y009863D02*
X004279Y009863D01*
X004288Y009853D02*
X003317Y009853D01*
X003302Y009755D02*
X004387Y009755D01*
X004485Y009656D02*
X003276Y009656D01*
X003249Y009558D02*
X004645Y009558D01*
X004617Y009459D02*
X003215Y009459D01*
X003158Y009361D02*
X004617Y009361D01*
X004617Y009262D02*
X003101Y009262D01*
X003031Y009164D02*
X004633Y009164D01*
X004650Y009065D02*
X002933Y009065D01*
X002834Y008967D02*
X004617Y008967D01*
X004617Y008868D02*
X002671Y008868D01*
X002532Y008787D02*
X002206Y008700D01*
X001869Y008700D01*
X001543Y008787D01*
X001252Y008956D01*
X001013Y009194D01*
X000845Y009486D01*
X000757Y009811D01*
X000757Y010149D01*
X000757Y010050D02*
X000487Y010050D01*
X000487Y009952D02*
X000757Y009952D01*
X000757Y009853D02*
X000487Y009853D01*
X000487Y009755D02*
X000773Y009755D01*
X000799Y009656D02*
X000487Y009656D01*
X000487Y009558D02*
X000825Y009558D01*
X000860Y009459D02*
X000487Y009459D01*
X000487Y009361D02*
X000917Y009361D01*
X000974Y009262D02*
X000487Y009262D01*
X000487Y009164D02*
X001044Y009164D01*
X001142Y009065D02*
X000487Y009065D01*
X000487Y008967D02*
X001241Y008967D01*
X001403Y008868D02*
X000487Y008868D01*
X000487Y008770D02*
X001609Y008770D01*
X005132Y008770D02*
X005152Y008770D01*
X005152Y008868D02*
X005132Y008868D01*
X005132Y008967D02*
X005152Y008967D01*
X005152Y009065D02*
X005132Y009065D01*
X005132Y009164D02*
X005152Y009164D01*
X005152Y009262D02*
X005132Y009262D01*
X005152Y009340D02*
X005612Y009340D01*
X005612Y009360D01*
X005152Y009360D01*
X005152Y009570D01*
X005132Y009570D01*
X005132Y009360D01*
X005152Y009360D01*
X005152Y009340D01*
X005152Y009361D02*
X005132Y009361D01*
X005132Y009459D02*
X005152Y009459D01*
X005152Y009558D02*
X005132Y009558D01*
X005640Y009558D02*
X006187Y009558D01*
X006187Y009650D02*
X006187Y010360D01*
X005893Y010360D01*
X006053Y010520D01*
X006351Y010520D01*
X006472Y010470D01*
X006603Y010470D01*
X006724Y010520D01*
X006817Y010613D01*
X006867Y010734D01*
X006867Y010866D01*
X006817Y010987D01*
X006724Y011080D01*
X006603Y011130D01*
X006472Y011130D01*
X006351Y011080D01*
X006284Y011080D01*
X006317Y011113D01*
X006367Y011234D01*
X006367Y011366D01*
X006317Y011487D01*
X006258Y011546D01*
X008387Y011546D01*
X008149Y011309D01*
X008117Y011387D01*
X008024Y011480D01*
X007903Y011530D01*
X007772Y011530D01*
X007651Y011480D01*
X007558Y011387D01*
X007507Y011266D01*
X007507Y011134D01*
X007557Y011014D01*
X007557Y010676D01*
X007512Y010630D01*
X007277Y010630D01*
X007204Y010600D01*
X006904Y010600D01*
X006827Y010524D01*
X006827Y010307D01*
X006805Y010330D01*
X006770Y010350D01*
X006732Y010360D01*
X006287Y010360D01*
X006287Y009650D01*
X006187Y009650D01*
X006187Y009656D02*
X006287Y009656D01*
X006287Y009650D02*
X006854Y009650D01*
X006904Y009600D01*
X007761Y009600D01*
X006904Y009600D01*
X006854Y009550D01*
X006287Y009550D01*
X006287Y009650D01*
X006287Y009558D02*
X006861Y009558D01*
X006287Y009459D02*
X006187Y009459D01*
X006187Y009361D02*
X006287Y009361D01*
X006287Y009262D02*
X006187Y009262D01*
X006187Y009164D02*
X006287Y009164D01*
X006287Y009065D02*
X006187Y009065D01*
X006187Y008967D02*
X006287Y008967D01*
X006287Y008868D02*
X006187Y008868D01*
X005674Y008868D02*
X005667Y008868D01*
X005667Y008770D02*
X006827Y008770D01*
X006827Y008868D02*
X006801Y008868D01*
X006642Y008671D02*
X005657Y008671D01*
X005152Y008671D02*
X005132Y008671D01*
X005224Y008376D02*
X006417Y008376D01*
X006318Y008277D02*
X005398Y008277D01*
X006687Y007854D02*
X006904Y008070D01*
X006987Y008105D01*
X006987Y005716D01*
X006987Y005815D02*
X006687Y005815D01*
X006687Y005913D02*
X006987Y005913D01*
X006987Y006012D02*
X006687Y006012D01*
X006687Y006110D02*
X006987Y006110D01*
X006987Y006209D02*
X006687Y006209D01*
X006687Y006307D02*
X006987Y006307D01*
X006987Y006406D02*
X006687Y006406D01*
X006687Y006504D02*
X006987Y006504D01*
X006987Y006603D02*
X006687Y006603D01*
X006687Y006701D02*
X006987Y006701D01*
X006987Y006800D02*
X006687Y006800D01*
X006687Y006898D02*
X006987Y006898D01*
X006987Y006997D02*
X006687Y006997D01*
X006687Y007095D02*
X006987Y007095D01*
X006987Y007194D02*
X006687Y007194D01*
X006687Y007292D02*
X006987Y007292D01*
X006987Y007391D02*
X006687Y007391D01*
X006687Y007489D02*
X006987Y007489D01*
X006987Y007588D02*
X006687Y007588D01*
X006687Y007686D02*
X006987Y007686D01*
X006987Y007785D02*
X006687Y007785D01*
X006687Y007854D02*
X006687Y005716D01*
X008009Y005519D02*
X008066Y005519D01*
X008066Y005421D02*
X008009Y005421D01*
X008009Y005322D02*
X008066Y005322D01*
X008066Y005224D02*
X008009Y005224D01*
X008009Y005125D02*
X008066Y005125D01*
X008066Y005027D02*
X008009Y005027D01*
X008345Y005027D02*
X008757Y005027D01*
X008757Y005125D02*
X008345Y005125D01*
X008345Y005224D02*
X008757Y005224D01*
X008757Y005322D02*
X008345Y005322D01*
X008345Y005421D02*
X008757Y005421D01*
X008757Y005519D02*
X008289Y005519D01*
X008066Y004830D02*
X008009Y004830D01*
X008009Y004731D02*
X008066Y004731D01*
X008066Y004633D02*
X008009Y004633D01*
X008009Y004534D02*
X008066Y004534D01*
X008066Y004436D02*
X008009Y004436D01*
X008009Y004337D02*
X008066Y004337D01*
X004917Y003155D02*
X004767Y003155D01*
X004767Y003057D02*
X004917Y003057D01*
X004917Y002958D02*
X004767Y002958D01*
X004767Y002860D02*
X004917Y002860D01*
X004917Y002761D02*
X004767Y002761D01*
X004712Y002663D02*
X004981Y002663D01*
X005057Y002564D02*
X003121Y002564D01*
X003177Y002466D02*
X005155Y002466D01*
X005254Y002367D02*
X003232Y002367D01*
X003259Y002269D02*
X005352Y002269D01*
X005451Y002170D02*
X003285Y002170D01*
X003311Y002072D02*
X005549Y002072D01*
X005648Y001973D02*
X003317Y001973D01*
X003317Y001875D02*
X005746Y001875D01*
X005845Y001776D02*
X003317Y001776D01*
X003308Y001678D02*
X005943Y001678D01*
X006042Y001579D02*
X003282Y001579D01*
X003256Y001481D02*
X006140Y001481D01*
X006778Y001776D02*
X007403Y001776D01*
X007305Y001875D02*
X006680Y001875D01*
X006581Y001973D02*
X007206Y001973D01*
X007157Y002072D02*
X006483Y002072D01*
X006384Y002170D02*
X007157Y002170D01*
X007157Y002269D02*
X006286Y002269D01*
X006187Y002367D02*
X007157Y002367D01*
X007245Y002466D02*
X006089Y002466D01*
X006504Y002663D02*
X009207Y002663D01*
X009139Y002761D02*
X006567Y002761D01*
X006567Y002860D02*
X009041Y002860D01*
X008942Y002958D02*
X008325Y002958D01*
X007750Y002958D02*
X006652Y002958D01*
X007930Y002466D02*
X008245Y002466D01*
X008157Y002367D02*
X008017Y002367D01*
X008017Y002269D02*
X008157Y002269D01*
X008157Y002170D02*
X008017Y002170D01*
X008017Y002072D02*
X008157Y002072D01*
X008206Y001973D02*
X007969Y001973D01*
X007870Y001875D02*
X008305Y001875D01*
X008403Y001776D02*
X007772Y001776D01*
X007817Y001579D02*
X008358Y001579D01*
X008260Y001481D02*
X007915Y001481D01*
X008014Y001382D02*
X008161Y001382D01*
X008157Y001284D02*
X008017Y001284D01*
X008017Y001185D02*
X008157Y001185D01*
X008157Y001087D02*
X008017Y001087D01*
X007984Y000988D02*
X008191Y000988D01*
X008257Y000890D02*
X007885Y000890D01*
X007290Y000890D02*
X007015Y000890D01*
X006967Y000988D02*
X007191Y000988D01*
X007157Y001087D02*
X006967Y001087D01*
X006967Y001185D02*
X007157Y001185D01*
X007157Y001284D02*
X006967Y001284D01*
X006967Y001382D02*
X007161Y001382D01*
X007260Y001481D02*
X006967Y001481D01*
X006941Y001579D02*
X007358Y001579D01*
X006877Y001678D02*
X010807Y001678D01*
X010800Y001776D02*
X010812Y001776D01*
X010627Y001776D02*
X010547Y001776D01*
X010547Y001875D02*
X010627Y001875D01*
X010627Y001973D02*
X010547Y001973D01*
X010547Y002072D02*
X010627Y002072D01*
X010627Y002269D02*
X010547Y002269D01*
X010547Y002367D02*
X010627Y002367D01*
X010627Y002466D02*
X010547Y002466D01*
X010547Y002564D02*
X010627Y002564D01*
X010315Y002564D02*
X009967Y002564D01*
X009967Y002466D02*
X010217Y002466D01*
X010137Y002367D02*
X010017Y002367D01*
X010017Y002269D02*
X010137Y002269D01*
X010547Y001579D02*
X010627Y001579D01*
X010627Y001481D02*
X010547Y001481D01*
X010547Y001382D02*
X010627Y001382D01*
X010627Y001284D02*
X010547Y001284D01*
X010547Y001185D02*
X010017Y001185D01*
X012212Y000890D02*
X012763Y000890D01*
X012751Y000988D02*
X012224Y000988D01*
X012321Y001087D02*
X012751Y001087D01*
X012751Y001185D02*
X012419Y001185D01*
X012518Y001284D02*
X012751Y001284D01*
X012751Y001382D02*
X012616Y001382D01*
X012647Y001481D02*
X012751Y001481D01*
X012751Y001579D02*
X012647Y001579D01*
X014043Y002761D02*
X014132Y002761D01*
X014137Y002860D02*
X014037Y002860D01*
X014037Y002958D02*
X014137Y002958D01*
X014137Y003057D02*
X014037Y003057D01*
X014037Y003155D02*
X014137Y003155D01*
X014365Y002860D02*
X014442Y002860D01*
X018872Y001973D02*
X018902Y001973D01*
X018902Y001875D02*
X018872Y001875D01*
X018872Y001776D02*
X018902Y001776D01*
X018902Y001678D02*
X018872Y001678D01*
X018872Y001579D02*
X018902Y001579D01*
X019372Y001579D02*
X019402Y001579D01*
X019402Y001678D02*
X019372Y001678D01*
X019372Y001776D02*
X019402Y001776D01*
X019402Y001875D02*
X019372Y001875D01*
X019372Y001973D02*
X019402Y001973D01*
X023728Y002958D02*
X023828Y002958D01*
X023828Y003057D02*
X023728Y003057D01*
X023728Y003155D02*
X023828Y003155D01*
X023828Y003254D02*
X023728Y003254D01*
X023728Y003352D02*
X023828Y003352D01*
X021132Y004239D02*
X021118Y004239D01*
X020657Y004239D02*
X020618Y004239D01*
X020157Y004239D02*
X020142Y004239D01*
X019632Y004239D02*
X019618Y004239D01*
X019928Y004436D02*
X021347Y004436D01*
X022387Y005800D02*
X023087Y005100D01*
X023332Y005322D02*
X023353Y005322D01*
X023353Y005302D02*
X023274Y005380D01*
X023153Y005430D01*
X023022Y005430D01*
X023015Y005427D01*
X022462Y005980D01*
X021412Y005980D01*
X021117Y006275D01*
X021117Y007525D01*
X021157Y007565D01*
X021157Y007272D01*
X021409Y007020D01*
X021766Y007020D01*
X022017Y007272D01*
X022017Y007520D01*
X022471Y007520D01*
X022387Y007436D01*
X022387Y007290D01*
X022797Y007290D01*
X022797Y007210D01*
X022387Y007210D01*
X022387Y007064D01*
X022651Y006800D01*
X022797Y006800D01*
X022797Y007210D01*
X022877Y007210D01*
X022877Y006800D01*
X023024Y006800D01*
X023287Y007064D01*
X023287Y007195D01*
X023410Y007073D01*
X023407Y007066D01*
X023407Y006934D01*
X023458Y006813D01*
X023551Y006720D01*
X023672Y006670D01*
X023711Y006670D01*
X023600Y006559D01*
X023557Y006456D01*
X023557Y005705D01*
X023429Y005705D01*
X023353Y005629D01*
X023353Y005302D01*
X023353Y005421D02*
X023176Y005421D01*
X023353Y005519D02*
X022923Y005519D01*
X022824Y005618D02*
X023353Y005618D01*
X023557Y005716D02*
X022726Y005716D01*
X022627Y005815D02*
X023557Y005815D01*
X023557Y005913D02*
X022529Y005913D01*
X022387Y005800D02*
X021337Y005800D01*
X020937Y006200D01*
X020937Y007600D01*
X021337Y008000D01*
X022137Y008000D01*
X021337Y008000D01*
X020937Y007600D01*
X020757Y007588D02*
X020265Y007588D01*
X020363Y007686D02*
X020769Y007686D01*
X020867Y007785D02*
X020462Y007785D01*
X020481Y007883D02*
X020966Y007883D01*
X021064Y007982D02*
X020411Y007982D01*
X020313Y008080D02*
X021163Y008080D01*
X021251Y008179D02*
X020214Y008179D01*
X020116Y008277D02*
X021157Y008277D01*
X021157Y008376D02*
X020017Y008376D01*
X019919Y008474D02*
X021157Y008474D01*
X021157Y008573D02*
X019820Y008573D01*
X019722Y008671D02*
X021200Y008671D01*
X021299Y008770D02*
X019874Y008770D01*
X019940Y008868D02*
X021397Y008868D01*
X021778Y008868D02*
X022611Y008868D01*
X022513Y008967D02*
X019967Y008967D01*
X019967Y009065D02*
X021364Y009065D01*
X021266Y009164D02*
X020588Y009164D01*
X020582Y009153D02*
X020602Y009187D01*
X020612Y009225D01*
X020612Y009550D01*
X020197Y009550D01*
X020197Y009095D01*
X020482Y009095D01*
X020520Y009105D01*
X020554Y009125D01*
X020582Y009153D01*
X020612Y009262D02*
X021167Y009262D01*
X021157Y009361D02*
X020612Y009361D01*
X020612Y009459D02*
X021157Y009459D01*
X021084Y009558D02*
X020197Y009558D01*
X020197Y009550D02*
X020197Y009650D01*
X020097Y009650D01*
X020097Y009550D01*
X020197Y009550D01*
X020197Y009459D02*
X020097Y009459D01*
X020097Y009361D02*
X020197Y009361D01*
X020197Y009262D02*
X020097Y009262D01*
X020097Y009164D02*
X020197Y009164D01*
X019682Y009361D02*
X019473Y009361D01*
X019473Y009459D02*
X019682Y009459D01*
X019473Y009558D02*
X020097Y009558D01*
X020097Y009650D02*
X019682Y009650D01*
X019682Y009975D01*
X019693Y010013D01*
X019712Y010047D01*
X019740Y010075D01*
X019774Y010095D01*
X019813Y010105D01*
X020097Y010105D01*
X020097Y009650D01*
X020097Y009656D02*
X020197Y009656D01*
X020197Y009650D02*
X020197Y010105D01*
X020482Y010105D01*
X020520Y010095D01*
X020554Y010075D01*
X020582Y010047D01*
X020602Y010013D01*
X020612Y009975D01*
X020612Y009650D01*
X020197Y009650D01*
X020197Y009755D02*
X020097Y009755D01*
X020097Y009853D02*
X020197Y009853D01*
X020197Y009952D02*
X020097Y009952D01*
X020097Y010050D02*
X020197Y010050D01*
X020579Y010050D02*
X020807Y010050D01*
X020807Y009952D02*
X020612Y009952D01*
X020612Y009853D02*
X020825Y009853D01*
X020887Y009755D02*
X020612Y009755D01*
X020612Y009656D02*
X020985Y009656D01*
X019682Y009656D02*
X019473Y009656D01*
X019473Y009755D02*
X019682Y009755D01*
X019682Y009853D02*
X019473Y009853D01*
X019473Y009952D02*
X019682Y009952D01*
X019715Y010050D02*
X019431Y010050D01*
X018844Y010149D02*
X020807Y010149D01*
X020807Y010247D02*
X018762Y010247D01*
X018680Y010346D02*
X020807Y010346D01*
X020807Y010444D02*
X019288Y010444D01*
X019386Y010543D02*
X019817Y010543D01*
X019718Y010641D02*
X019485Y010641D01*
X019537Y010740D02*
X019657Y010740D01*
X019657Y010838D02*
X019537Y010838D01*
X019537Y010937D02*
X019657Y010937D01*
X019657Y011035D02*
X019537Y011035D01*
X019470Y011134D02*
X019733Y011134D01*
X019127Y010838D02*
X019047Y010838D01*
X019047Y010740D02*
X019127Y010740D01*
X019127Y010641D02*
X019047Y010641D01*
X019047Y010543D02*
X019127Y010543D01*
X019127Y010444D02*
X019047Y010444D01*
X018887Y010444D02*
X018598Y010444D01*
X018516Y010543D02*
X018789Y010543D01*
X018690Y010641D02*
X018433Y010641D01*
X018367Y010740D02*
X018637Y010740D01*
X018637Y010838D02*
X018367Y010838D01*
X018367Y010937D02*
X018637Y010937D01*
X018637Y011035D02*
X018367Y011035D01*
X018367Y011134D02*
X018705Y011134D01*
X018028Y010800D02*
X017837Y010800D01*
X016646Y010050D02*
X015492Y010050D01*
X015492Y009952D02*
X016613Y009952D01*
X016613Y009853D02*
X015492Y009853D01*
X015492Y009755D02*
X016613Y009755D01*
X016613Y009656D02*
X015492Y009656D01*
X014797Y009164D02*
X016637Y009164D01*
X016613Y009262D02*
X014735Y009262D01*
X014841Y009065D02*
X016936Y009065D01*
X016849Y008967D02*
X016238Y008967D01*
X016325Y008868D02*
X016808Y008868D01*
X016807Y008770D02*
X016366Y008770D01*
X016367Y008671D02*
X016834Y008671D01*
X016898Y008573D02*
X016419Y008573D01*
X016518Y008474D02*
X017062Y008474D01*
X017268Y008376D02*
X016616Y008376D01*
X016712Y008280D02*
X017312Y008280D01*
X017323Y008269D01*
X017337Y008283D01*
X017666Y007954D01*
X017666Y007954D01*
X017638Y007982D02*
X017638Y007982D01*
X017540Y008080D02*
X017540Y008080D01*
X017441Y008179D02*
X017441Y008179D01*
X017343Y008277D02*
X017343Y008277D01*
X017331Y008277D02*
X017315Y008277D01*
X017237Y008100D02*
X016637Y008100D01*
X016037Y008700D01*
X015733Y008573D02*
X014861Y008573D01*
X014882Y008671D02*
X015707Y008671D01*
X015709Y008770D02*
X014137Y008770D01*
X014137Y008671D02*
X014037Y008671D01*
X014037Y008573D02*
X014137Y008573D01*
X014137Y008474D02*
X014037Y008474D01*
X014037Y008376D02*
X014137Y008376D01*
X014137Y008277D02*
X014037Y008277D01*
X014037Y008179D02*
X014137Y008179D01*
X014137Y008080D02*
X014037Y008080D01*
X013706Y008080D02*
X013317Y008080D01*
X013317Y007982D02*
X014633Y007982D01*
X014608Y007969D02*
X014672Y008001D01*
X014740Y008024D01*
X014811Y008035D01*
X015111Y008035D01*
X015111Y007621D01*
X015111Y007534D01*
X015198Y007534D01*
X015198Y007121D01*
X015497Y007121D01*
X015568Y007132D01*
X015637Y007154D01*
X015701Y007187D01*
X015759Y007229D01*
X015810Y007280D01*
X015852Y007338D01*
X015885Y007403D01*
X015907Y007471D01*
X015917Y007534D01*
X015198Y007534D01*
X015198Y007621D01*
X015917Y007621D01*
X015907Y007685D01*
X015885Y007753D01*
X015852Y007817D01*
X015810Y007876D01*
X015759Y007927D01*
X015701Y007969D01*
X015637Y008001D01*
X015568Y008024D01*
X015497Y008035D01*
X015198Y008035D01*
X015198Y007621D01*
X015111Y007621D01*
X014392Y007621D01*
X014402Y007685D01*
X014424Y007753D01*
X014457Y007817D01*
X014499Y007876D01*
X014550Y007927D01*
X014608Y007969D01*
X014506Y007883D02*
X013317Y007883D01*
X013317Y007785D02*
X014440Y007785D01*
X014402Y007686D02*
X013317Y007686D01*
X013317Y007588D02*
X015111Y007588D01*
X015111Y007534D02*
X014392Y007534D01*
X014402Y007471D01*
X014424Y007403D01*
X014457Y007338D01*
X014499Y007280D01*
X014550Y007229D01*
X014608Y007187D01*
X014672Y007154D01*
X014740Y007132D01*
X014811Y007121D01*
X015111Y007121D01*
X015111Y007534D01*
X015111Y007489D02*
X015198Y007489D01*
X015198Y007391D02*
X015111Y007391D01*
X015111Y007292D02*
X015198Y007292D01*
X015198Y007194D02*
X015111Y007194D01*
X014599Y007194D02*
X013317Y007194D01*
X013317Y007292D02*
X014490Y007292D01*
X014430Y007391D02*
X013317Y007391D01*
X013317Y007489D02*
X014399Y007489D01*
X015111Y007686D02*
X015198Y007686D01*
X015198Y007588D02*
X017210Y007588D01*
X017111Y007686D02*
X015907Y007686D01*
X015869Y007785D02*
X017013Y007785D01*
X016994Y007883D02*
X015803Y007883D01*
X015676Y007982D02*
X016501Y007982D01*
X016403Y008080D02*
X014469Y008080D01*
X014614Y008179D02*
X016304Y008179D01*
X016206Y008277D02*
X014708Y008277D01*
X014777Y008376D02*
X015958Y008376D01*
X015797Y008474D02*
X014827Y008474D01*
X014886Y008868D02*
X015750Y008868D01*
X015837Y008967D02*
X014870Y008967D01*
X013348Y008474D02*
X013317Y008474D01*
X013317Y008376D02*
X013398Y008376D01*
X013467Y008277D02*
X013317Y008277D01*
X013317Y008179D02*
X013561Y008179D01*
X015111Y007982D02*
X015198Y007982D01*
X015198Y007883D02*
X015111Y007883D01*
X015111Y007785D02*
X015198Y007785D01*
X015910Y007489D02*
X017308Y007489D01*
X017407Y007391D02*
X015879Y007391D01*
X015819Y007292D02*
X017490Y007292D01*
X017391Y007194D02*
X015710Y007194D01*
X015631Y006997D02*
X017194Y006997D01*
X017293Y007095D02*
X013317Y007095D01*
X013317Y006997D02*
X014678Y006997D01*
X014534Y006898D02*
X013317Y006898D01*
X013317Y006800D02*
X014460Y006800D01*
X014419Y006701D02*
X013317Y006701D01*
X013317Y006603D02*
X014410Y006603D01*
X014412Y006504D02*
X013317Y006504D01*
X013317Y006406D02*
X014452Y006406D01*
X014516Y006307D02*
X013317Y006307D01*
X013317Y006209D02*
X014635Y006209D01*
X014533Y006110D02*
X013302Y006110D01*
X013204Y006012D02*
X014459Y006012D01*
X014419Y005913D02*
X013105Y005913D01*
X013082Y005815D02*
X014410Y005815D01*
X014412Y005716D02*
X013082Y005716D01*
X013101Y005618D02*
X014453Y005618D01*
X014517Y005519D02*
X013102Y005519D01*
X013097Y005421D02*
X014637Y005421D01*
X015672Y005421D02*
X015857Y005421D01*
X015857Y005519D02*
X015792Y005519D01*
X015856Y005618D02*
X015857Y005618D01*
X015897Y005716D02*
X015925Y005716D01*
X015898Y005815D02*
X016023Y005815D01*
X016122Y005913D02*
X015890Y005913D01*
X015849Y006012D02*
X016220Y006012D01*
X016319Y006110D02*
X015776Y006110D01*
X015673Y006209D02*
X016417Y006209D01*
X016516Y006307D02*
X015793Y006307D01*
X015856Y006406D02*
X016614Y006406D01*
X016713Y006504D02*
X015897Y006504D01*
X015898Y006603D02*
X016811Y006603D01*
X016910Y006701D02*
X015890Y006701D01*
X015849Y006800D02*
X016997Y006800D01*
X017096Y006898D02*
X015775Y006898D01*
X016437Y005418D02*
X017666Y006646D01*
X017805Y006507D02*
X016637Y005339D01*
X016637Y004700D01*
X016837Y004800D02*
X017037Y004600D01*
X016837Y004800D02*
X016837Y005200D01*
X016837Y005261D01*
X017357Y005780D01*
X017637Y005500D01*
X017946Y005618D02*
X018065Y005618D01*
X017967Y005519D02*
X019545Y005519D01*
X019410Y005618D02*
X019907Y005618D01*
X019914Y005519D02*
X019730Y005519D01*
X019884Y005421D02*
X019955Y005421D01*
X019944Y005322D02*
X020049Y005322D01*
X019391Y005421D02*
X017962Y005421D01*
X017921Y005322D02*
X019331Y005322D01*
X019180Y005618D02*
X018295Y005618D01*
X018393Y005716D02*
X019081Y005716D01*
X018983Y005815D02*
X018492Y005815D01*
X018590Y005913D02*
X018884Y005913D01*
X018786Y006012D02*
X018689Y006012D01*
X017966Y005716D02*
X017888Y005716D01*
X017868Y005815D02*
X017740Y005815D01*
X017744Y005913D02*
X017769Y005913D01*
X017357Y005780D02*
X017944Y006367D01*
X018437Y006900D02*
X018037Y007300D01*
X017837Y007504D01*
X017526Y007815D01*
X017522Y007815D01*
X017237Y008100D01*
X017805Y008093D02*
X017198Y008700D01*
X017137Y008800D01*
X017637Y009000D02*
X017637Y008539D01*
X017944Y008233D01*
X018222Y008511D02*
X018226Y008511D01*
X018537Y008200D01*
X018459Y007982D02*
X018322Y007982D01*
X018224Y007883D02*
X018507Y007883D01*
X018528Y007785D02*
X018125Y007785D01*
X018053Y007686D02*
X018585Y007686D01*
X018730Y007588D02*
X018009Y007588D01*
X017934Y007686D02*
X017934Y007686D01*
X017835Y007785D02*
X017835Y007785D01*
X017737Y007883D02*
X017737Y007883D01*
X017526Y007815D02*
X017526Y007811D01*
X018104Y007489D02*
X018852Y007489D01*
X018951Y007391D02*
X018201Y007391D01*
X018300Y007292D02*
X019049Y007292D01*
X018884Y007194D02*
X018398Y007194D01*
X018497Y007095D02*
X018766Y007095D01*
X019037Y006900D02*
X018437Y006900D01*
X019437Y007300D02*
X019537Y007196D01*
X019948Y006785D01*
X020281Y006997D02*
X020757Y006997D01*
X020757Y007095D02*
X020182Y007095D01*
X020084Y007194D02*
X020757Y007194D01*
X020757Y007292D02*
X019985Y007292D01*
X020068Y007391D02*
X020757Y007391D01*
X020757Y007489D02*
X020166Y007489D01*
X021117Y007489D02*
X021157Y007489D01*
X021157Y007391D02*
X021117Y007391D01*
X021117Y007292D02*
X021157Y007292D01*
X021117Y007194D02*
X021236Y007194D01*
X021334Y007095D02*
X021117Y007095D01*
X021117Y006997D02*
X022455Y006997D01*
X022387Y007095D02*
X021841Y007095D01*
X021939Y007194D02*
X022387Y007194D01*
X022387Y007292D02*
X022017Y007292D01*
X022017Y007391D02*
X022387Y007391D01*
X022440Y007489D02*
X022017Y007489D01*
X021837Y007700D02*
X021587Y007450D01*
X021837Y007700D02*
X023037Y007700D01*
X023337Y007400D01*
X023737Y007000D01*
X023407Y006997D02*
X023220Y006997D01*
X023287Y007095D02*
X023388Y007095D01*
X023289Y007194D02*
X023287Y007194D01*
X022877Y007194D02*
X022797Y007194D01*
X022797Y007095D02*
X022877Y007095D01*
X022877Y006997D02*
X022797Y006997D01*
X022797Y006898D02*
X022877Y006898D01*
X023122Y006898D02*
X023423Y006898D01*
X023471Y006800D02*
X021874Y006800D01*
X021776Y006898D02*
X022553Y006898D01*
X022037Y006636D02*
X021774Y006900D01*
X021627Y006900D01*
X021627Y006490D01*
X021547Y006490D01*
X021547Y006410D01*
X021137Y006410D01*
X021137Y006264D01*
X021401Y006000D01*
X021547Y006000D01*
X021547Y006410D01*
X021627Y006410D01*
X021627Y006000D01*
X021774Y006000D01*
X022037Y006264D01*
X022037Y006410D01*
X021627Y006410D01*
X021627Y006490D01*
X022037Y006490D01*
X022037Y006636D01*
X022037Y006603D02*
X023644Y006603D01*
X023597Y006701D02*
X021973Y006701D01*
X021627Y006701D02*
X021547Y006701D01*
X021547Y006603D02*
X021627Y006603D01*
X021627Y006504D02*
X021547Y006504D01*
X021547Y006490D02*
X021547Y006900D01*
X021401Y006900D01*
X021137Y006636D01*
X021137Y006490D01*
X021547Y006490D01*
X021547Y006406D02*
X021627Y006406D01*
X021627Y006307D02*
X021547Y006307D01*
X021547Y006209D02*
X021627Y006209D01*
X021627Y006110D02*
X021547Y006110D01*
X021547Y006012D02*
X021627Y006012D01*
X021785Y006012D02*
X023557Y006012D01*
X023557Y006110D02*
X021884Y006110D01*
X021982Y006209D02*
X023557Y006209D01*
X023557Y006307D02*
X022037Y006307D01*
X022037Y006406D02*
X023557Y006406D01*
X023577Y006504D02*
X022037Y006504D01*
X021202Y006701D02*
X021117Y006701D01*
X021117Y006603D02*
X021137Y006603D01*
X021137Y006504D02*
X021117Y006504D01*
X021117Y006406D02*
X021137Y006406D01*
X021137Y006307D02*
X021117Y006307D01*
X021183Y006209D02*
X021193Y006209D01*
X021282Y006110D02*
X021291Y006110D01*
X021380Y006012D02*
X021390Y006012D01*
X020970Y005913D02*
X020417Y005913D01*
X020417Y006012D02*
X020871Y006012D01*
X020773Y006110D02*
X020321Y006110D01*
X020223Y006209D02*
X020757Y006209D01*
X020757Y006307D02*
X020128Y006307D01*
X020138Y006317D02*
X020193Y006372D01*
X020212Y006406D02*
X020757Y006406D01*
X020757Y006504D02*
X020297Y006504D01*
X020395Y006603D02*
X020757Y006603D01*
X020757Y006701D02*
X020481Y006701D01*
X020478Y006800D02*
X020757Y006800D01*
X020757Y006898D02*
X020379Y006898D01*
X019853Y006603D02*
X019853Y006603D01*
X019809Y006646D02*
X020138Y006317D01*
X020050Y006406D02*
X020050Y006406D01*
X019951Y006504D02*
X019951Y006504D01*
X019809Y006646D02*
X019809Y006646D01*
X019670Y006507D02*
X020237Y005939D01*
X020237Y005600D01*
X019928Y005716D02*
X019509Y005716D01*
X019607Y005815D02*
X019985Y005815D01*
X020009Y005913D02*
X019706Y005913D01*
X019804Y006012D02*
X019911Y006012D01*
X020490Y005815D02*
X021068Y005815D01*
X021167Y005716D02*
X020547Y005716D01*
X020567Y005618D02*
X022315Y005618D01*
X021627Y006800D02*
X021547Y006800D01*
X021547Y006898D02*
X021627Y006898D01*
X021399Y006898D02*
X021117Y006898D01*
X021117Y006800D02*
X021301Y006800D01*
X023306Y007686D02*
X023361Y007686D01*
X023357Y007785D02*
X023207Y007785D01*
X023079Y007883D02*
X023357Y007883D01*
X023357Y007982D02*
X023177Y007982D01*
X023267Y008080D02*
X023357Y008080D01*
X023357Y008179D02*
X023267Y008179D01*
X023267Y008277D02*
X023357Y008277D01*
X023357Y008376D02*
X023267Y008376D01*
X023222Y008474D02*
X023357Y008474D01*
X023357Y008573D02*
X023123Y008573D01*
X023025Y008671D02*
X023357Y008671D01*
X023357Y008770D02*
X021876Y008770D01*
X021975Y008671D02*
X022650Y008671D01*
X022552Y008573D02*
X022017Y008573D01*
X022017Y008474D02*
X022453Y008474D01*
X022258Y008376D02*
X022017Y008376D01*
X022017Y008277D02*
X022160Y008277D01*
X022387Y008250D02*
X022137Y008000D01*
X022387Y008250D02*
X022837Y008250D01*
X023937Y008300D02*
X023937Y009300D01*
X023537Y009700D01*
X023537Y010200D01*
X023037Y010700D01*
X022637Y010700D01*
X022537Y010600D01*
X022237Y010300D01*
X021737Y010300D01*
X020807Y010543D02*
X020358Y010543D01*
X020457Y010641D02*
X020718Y010641D01*
X020657Y010740D02*
X020517Y010740D01*
X020517Y010838D02*
X020657Y010838D01*
X020657Y010937D02*
X020517Y010937D01*
X020517Y011035D02*
X020657Y011035D01*
X020733Y011134D02*
X020442Y011134D01*
X021737Y010800D02*
X021937Y010800D01*
X022437Y010800D01*
X022537Y010900D01*
X022937Y010900D01*
X023237Y011200D01*
X023567Y011232D02*
X024081Y011232D01*
X023907Y010937D02*
X023441Y010937D01*
X023624Y010740D02*
X023252Y010740D01*
X023154Y010838D02*
X023907Y010838D01*
X023512Y010641D02*
X023351Y010641D01*
X023449Y010543D02*
X023469Y010543D01*
X024051Y010247D02*
X024096Y010247D01*
X024101Y010346D02*
X024828Y010346D01*
X024730Y010247D02*
X024579Y010247D01*
X023998Y010149D02*
X023967Y010149D01*
X025587Y009450D02*
X025837Y009700D01*
X025837Y010380D01*
X026337Y010880D01*
X026767Y010937D02*
X026907Y010937D01*
X026907Y011035D02*
X026767Y011035D01*
X026829Y011134D02*
X026692Y011134D01*
X026096Y010247D02*
X026017Y010247D01*
X026052Y009558D02*
X025950Y009558D01*
X025587Y009450D02*
X025137Y009450D01*
X024887Y009200D01*
X024337Y009200D02*
X024337Y008600D01*
X024337Y009200D01*
X023357Y009065D02*
X023261Y009065D01*
X023267Y009164D02*
X023278Y009164D01*
X023357Y008967D02*
X023162Y008967D01*
X023064Y008868D02*
X023357Y008868D01*
X022414Y009065D02*
X021811Y009065D01*
X021909Y009164D02*
X022407Y009164D01*
X022407Y009262D02*
X022245Y009262D01*
X022344Y009361D02*
X022407Y009361D01*
X024587Y008800D02*
X024587Y008750D01*
X024587Y008800D01*
X025687Y008450D02*
X026337Y008450D01*
X026478Y008450D01*
X024237Y008000D02*
X023937Y008300D01*
X019637Y008896D02*
X019252Y008511D01*
X019113Y008650D02*
X019113Y008724D01*
X018937Y008900D01*
X018937Y009710D01*
X019028Y009600D01*
X018197Y009600D02*
X017997Y009400D01*
X017997Y009015D01*
X018362Y008650D01*
X019637Y008896D02*
X019637Y009000D01*
X018197Y009600D02*
X018197Y009640D01*
X017752Y009459D02*
X017543Y009459D01*
X017543Y009361D02*
X017752Y009361D01*
X017128Y009755D02*
X017028Y009755D01*
X017028Y009853D02*
X017128Y009853D01*
X015237Y010300D02*
X015237Y010800D01*
X015237Y011300D01*
X015237Y011350D01*
X013307Y010740D02*
X012391Y010740D01*
X012391Y010650D02*
X013081Y010650D01*
X013069Y010555D01*
X013044Y010461D01*
X013007Y010372D01*
X012958Y010288D01*
X012899Y010211D01*
X012830Y010142D01*
X012753Y010083D01*
X012669Y010034D01*
X012580Y009997D01*
X012486Y009972D01*
X012391Y009960D01*
X012391Y010650D01*
X012391Y010641D02*
X012291Y010641D01*
X012291Y010543D02*
X012391Y010543D01*
X012391Y010444D02*
X012291Y010444D01*
X012291Y010346D02*
X012391Y010346D01*
X012391Y010247D02*
X012291Y010247D01*
X012291Y010149D02*
X012391Y010149D01*
X012391Y010050D02*
X012291Y010050D01*
X012107Y009952D02*
X012734Y009952D01*
X012696Y010050D02*
X012833Y010050D01*
X012837Y010149D02*
X012931Y010149D01*
X012927Y010247D02*
X013030Y010247D01*
X012991Y010346D02*
X013128Y010346D01*
X013037Y010444D02*
X015057Y010444D01*
X015057Y010543D02*
X015008Y010543D01*
X013467Y010543D02*
X013065Y010543D01*
X013080Y010641D02*
X013368Y010641D01*
X012391Y010838D02*
X012291Y010838D01*
X012291Y010740D02*
X011204Y010740D01*
X011307Y010838D02*
X011612Y010838D01*
X011638Y010937D02*
X011352Y010937D01*
X011371Y011035D02*
X011679Y011035D01*
X011740Y011134D02*
X011368Y011134D01*
X011327Y011232D02*
X011826Y011232D01*
X011952Y011331D02*
X011247Y011331D01*
X012291Y011331D02*
X012391Y011331D01*
X012391Y011232D02*
X012291Y011232D01*
X012291Y011134D02*
X012391Y011134D01*
X012391Y011035D02*
X012291Y011035D01*
X012291Y010937D02*
X012391Y010937D01*
X011602Y010641D02*
X011543Y010641D01*
X011092Y010641D02*
X010913Y010641D01*
X010800Y010740D02*
X010574Y010740D01*
X010677Y010838D02*
X010698Y010838D01*
X010171Y010740D02*
X009084Y010740D01*
X009084Y010750D02*
X009084Y011290D01*
X008984Y011290D01*
X008984Y010750D01*
X009084Y010750D01*
X009084Y010838D02*
X008984Y010838D01*
X008984Y010750D02*
X008447Y010750D01*
X008447Y010650D01*
X008984Y010650D01*
X008984Y010750D01*
X008984Y010740D02*
X008447Y010740D01*
X008984Y010641D02*
X009084Y010641D01*
X009084Y010543D02*
X008984Y010543D01*
X008984Y010444D02*
X009084Y010444D01*
X009084Y010346D02*
X008984Y010346D01*
X008984Y010247D02*
X009084Y010247D01*
X009084Y010149D02*
X008984Y010149D01*
X008984Y010050D02*
X009084Y010050D01*
X009389Y010050D02*
X009804Y010050D01*
X009722Y010149D02*
X009530Y010149D01*
X009620Y010247D02*
X009681Y010247D01*
X010048Y010247D02*
X010067Y010247D01*
X010067Y010149D02*
X010048Y010149D01*
X010048Y010050D02*
X010067Y010050D01*
X010912Y010050D02*
X011092Y010050D01*
X010067Y010444D02*
X010048Y010444D01*
X010048Y010543D02*
X010067Y010543D01*
X010067Y010641D02*
X010048Y010641D01*
X009804Y010641D02*
X009773Y010641D01*
X010311Y010641D02*
X010462Y010641D01*
X010068Y010838D02*
X009763Y010838D01*
X009737Y010937D02*
X010023Y010937D01*
X010004Y011035D02*
X009696Y011035D01*
X009635Y011134D02*
X010007Y011134D01*
X010048Y011232D02*
X009549Y011232D01*
X009084Y011232D02*
X008984Y011232D01*
X008984Y011134D02*
X009084Y011134D01*
X009084Y011035D02*
X008984Y011035D01*
X008984Y010937D02*
X009084Y010937D01*
X008171Y011331D02*
X008141Y011331D01*
X008075Y011429D02*
X008269Y011429D01*
X008368Y011528D02*
X007909Y011528D01*
X007766Y011528D02*
X006277Y011528D01*
X006341Y011429D02*
X007600Y011429D01*
X007534Y011331D02*
X006367Y011331D01*
X006366Y011232D02*
X007507Y011232D01*
X007508Y011134D02*
X006326Y011134D01*
X006769Y011035D02*
X007549Y011035D01*
X007557Y010937D02*
X006838Y010937D01*
X006867Y010838D02*
X007557Y010838D01*
X007557Y010740D02*
X006867Y010740D01*
X006829Y010641D02*
X007523Y010641D01*
X006846Y010543D02*
X006747Y010543D01*
X006827Y010444D02*
X005977Y010444D01*
X006187Y010346D02*
X006287Y010346D01*
X006287Y010247D02*
X006187Y010247D01*
X006187Y010149D02*
X006287Y010149D01*
X006287Y010050D02*
X006187Y010050D01*
X006187Y009952D02*
X006287Y009952D01*
X006287Y009853D02*
X006187Y009853D01*
X006187Y009755D02*
X006287Y009755D01*
X007756Y010100D02*
X007756Y010100D01*
X007761Y010100D01*
X007756Y010100D01*
X007811Y010050D02*
X008190Y010050D01*
X008092Y010149D02*
X007822Y010149D01*
X007921Y010247D02*
X008027Y010247D01*
X008019Y010346D02*
X008027Y010346D01*
X007837Y009952D02*
X008289Y009952D01*
X008327Y009853D02*
X007837Y009853D01*
X007837Y009755D02*
X008327Y009755D01*
X008327Y009656D02*
X007817Y009656D01*
X006827Y010346D02*
X006778Y010346D01*
X012471Y009853D02*
X012636Y009853D01*
X012537Y009755D02*
X012515Y009755D01*
X006987Y008080D02*
X006927Y008080D01*
X006987Y007982D02*
X006815Y007982D01*
X006716Y007883D02*
X006987Y007883D01*
X012142Y006296D02*
X012677Y006296D01*
X012165Y005528D02*
X012137Y005500D01*
X015670Y004436D02*
X015857Y004436D01*
X015857Y004534D02*
X015791Y004534D01*
X015856Y004633D02*
X015857Y004633D01*
X016437Y005100D02*
X016437Y005418D01*
X024633Y006800D02*
X024971Y006800D01*
X026687Y006400D02*
X026787Y006500D01*
X029853Y006701D02*
X029964Y006701D01*
X029931Y006603D02*
X030063Y006603D01*
X029967Y006504D02*
X030161Y006504D01*
X030157Y006406D02*
X029967Y006406D01*
X029935Y006307D02*
X030157Y006307D01*
X030037Y006000D02*
X030037Y005782D01*
X030037Y005950D02*
X030037Y006000D01*
X029652Y004534D02*
X028839Y004534D01*
X030341Y003845D02*
X030341Y003845D01*
X035628Y000594D02*
X035633Y000589D01*
X035639Y000569D01*
X035636Y000562D01*
X035647Y000540D01*
X035653Y000516D01*
X035660Y000512D01*
X035669Y000493D01*
X028387Y007650D02*
X028169Y007650D01*
X031237Y008750D02*
X031587Y008750D01*
X033678Y010247D02*
X033997Y010247D01*
X033952Y010346D02*
X033723Y010346D01*
X033723Y010444D02*
X033952Y010444D01*
X033952Y010543D02*
X033723Y010543D01*
X033723Y010641D02*
X033952Y010641D01*
X033952Y010740D02*
X033723Y010740D01*
X033723Y010838D02*
X033952Y010838D01*
X033952Y010937D02*
X033723Y010937D01*
X033723Y011035D02*
X033952Y011035D01*
X033977Y011134D02*
X033698Y011134D01*
X032857Y011134D02*
X032767Y011134D01*
X032074Y011134D02*
X032001Y011134D01*
X036185Y010740D02*
X037098Y010740D01*
X037185Y010838D02*
X036386Y010838D01*
X036473Y010937D02*
X037284Y010937D01*
X037405Y011035D02*
X036527Y011035D01*
X036553Y011134D02*
X037575Y011134D01*
X037865Y011232D02*
X036554Y011232D01*
X022667Y011134D02*
X022667Y011266D01*
X022266Y011528D02*
X022264Y011528D01*
X004427Y003155D02*
X004327Y003155D01*
X004327Y003057D02*
X004427Y003057D01*
X004427Y002958D02*
X004327Y002958D01*
X004327Y002860D02*
X004427Y002860D01*
X004427Y002761D02*
X004327Y002761D01*
X004327Y002663D02*
X004427Y002663D01*
X004043Y002663D02*
X003064Y002663D01*
X002967Y002761D02*
X003987Y002761D01*
X003987Y002860D02*
X002868Y002860D01*
X002730Y002958D02*
X003987Y002958D01*
X003987Y003057D02*
X002560Y003057D01*
X006146Y000693D02*
X006325Y000693D01*
X006377Y000594D02*
X006146Y000594D01*
X006146Y000496D02*
X006475Y000496D01*
X006574Y000397D02*
X006146Y000397D01*
D48*
X006637Y000800D02*
X006937Y000500D01*
X008587Y000500D01*
X008587Y001200D01*
X006637Y001450D02*
X006637Y000800D01*
X008587Y000500D02*
X010137Y000500D01*
X011137Y000500D01*
X014137Y000500D01*
X014437Y000800D01*
X014437Y001000D01*
X014437Y001400D01*
X015237Y002200D01*
X006637Y001450D02*
X005287Y002800D01*
X005287Y003220D01*
X006197Y003220D02*
X006447Y003220D01*
X006627Y003400D01*
D49*
X007587Y003400D01*
X007737Y003400D01*
X007937Y003400D01*
X008037Y003400D02*
X009037Y003400D01*
X009587Y002850D01*
X009587Y002200D01*
X004637Y005000D02*
X004437Y004800D01*
X003837Y004800D01*
X004637Y005000D02*
X005137Y005500D01*
X005137Y008000D01*
X007737Y006000D02*
X008537Y006000D01*
D50*
X008037Y003472D02*
X007787Y003450D01*
X007737Y003400D01*
X032421Y010824D02*
X033154Y010824D01*
X033278Y010700D01*
M02*
