%
M48
M72
T01C0.0200
T02C0.0360
T03C0.0394
T04C0.1299
%
T01
X8537Y5680
X9287Y5680
X11037Y6180
X11537Y5930
X12037Y5680
X13537Y5430
X13537Y5930
X14287Y6055
X13287Y6680
X13787Y7180
X11874Y8280
X11037Y8180
X10537Y8430
X10037Y8430
X11037Y7030
X13487Y8580
X16287Y9180
X18787Y8430
X16287Y7430
X15037Y5430
X13287Y3930
X11287Y2930
X10787Y3430
X17287Y1180
X13837Y10980
T02
X12787Y10860
X11787Y10860
X10787Y10860
X9787Y10860
X8787Y10860
X7787Y10860
X6787Y10860
X6787Y9860
X7787Y9860
X8787Y9860
X9787Y9860
X10787Y9860
X11787Y9860
X12787Y9860
X18787Y7430
X19787Y7430
X19787Y6430
X18787Y6430
X18787Y5430
X19787Y5430
X19787Y4430
X18787Y4430
X17287Y3680
X16287Y3680
X15287Y3680
X15287Y2680
X16287Y2680
X17287Y2680
T03
X5287Y1930
X5287Y2930
X5287Y3930
X5287Y4930
X5287Y6930
X5287Y7930
X5287Y8930
X5287Y9930
T04
X20587Y9960
X20587Y1860
M30
