G75*
G70*
%OFA0B0*%
%FSLAX24Y24*%
%IPPOS*%
%LPD*%
%AMOC8*
5,1,8,0,0,1.08239X$1,22.5*
%
%ADD10R,0.0500X0.0220*%
%ADD11R,0.0220X0.0500*%
%ADD12OC8,0.0600*%
%ADD13C,0.0394*%
%ADD14C,0.0634*%
%ADD15R,0.0630X0.0710*%
%ADD16R,0.0710X0.0630*%
%ADD17R,0.2100X0.0760*%
%ADD18R,0.0551X0.0394*%
%ADD19C,0.0300*%
%ADD20C,0.0280*%
%ADD21C,0.0400*%
%ADD22C,0.0160*%
%ADD23C,0.0200*%
%ADD24C,0.0250*%
D10*
G36*
X009512Y004917D02*
X009160Y004565D01*
X009004Y004721D01*
X009356Y005073D01*
X009512Y004917D01*
G37*
G36*
X009290Y005140D02*
X008938Y004788D01*
X008782Y004944D01*
X009134Y005296D01*
X009290Y005140D01*
G37*
G36*
X009067Y005362D02*
X008715Y005010D01*
X008559Y005166D01*
X008911Y005518D01*
X009067Y005362D01*
G37*
G36*
X009735Y004694D02*
X009383Y004342D01*
X009227Y004498D01*
X009579Y004850D01*
X009735Y004694D01*
G37*
G36*
X009958Y004472D02*
X009606Y004120D01*
X009450Y004276D01*
X009802Y004628D01*
X009958Y004472D01*
G37*
G36*
X010181Y004249D02*
X009829Y003897D01*
X009673Y004053D01*
X010025Y004405D01*
X010181Y004249D01*
G37*
G36*
X010403Y004026D02*
X010051Y003674D01*
X009895Y003830D01*
X010247Y004182D01*
X010403Y004026D01*
G37*
G36*
X010626Y003804D02*
X010274Y003452D01*
X010118Y003608D01*
X010470Y003960D01*
X010626Y003804D01*
G37*
G36*
X013016Y006194D02*
X012664Y005842D01*
X012508Y005998D01*
X012860Y006350D01*
X013016Y006194D01*
G37*
G36*
X012793Y006416D02*
X012441Y006064D01*
X012285Y006220D01*
X012637Y006572D01*
X012793Y006416D01*
G37*
G36*
X012571Y006639D02*
X012219Y006287D01*
X012063Y006443D01*
X012415Y006795D01*
X012571Y006639D01*
G37*
G36*
X012348Y006862D02*
X011996Y006510D01*
X011840Y006666D01*
X012192Y007018D01*
X012348Y006862D01*
G37*
G36*
X012125Y007084D02*
X011773Y006732D01*
X011617Y006888D01*
X011969Y007240D01*
X012125Y007084D01*
G37*
G36*
X011902Y007307D02*
X011550Y006955D01*
X011394Y007111D01*
X011746Y007463D01*
X011902Y007307D01*
G37*
G36*
X011680Y007530D02*
X011328Y007178D01*
X011172Y007334D01*
X011524Y007686D01*
X011680Y007530D01*
G37*
G36*
X011457Y007752D02*
X011105Y007400D01*
X010949Y007556D01*
X011301Y007908D01*
X011457Y007752D01*
G37*
D11*
G36*
X010626Y007556D02*
X010470Y007400D01*
X010118Y007752D01*
X010274Y007908D01*
X010626Y007556D01*
G37*
G36*
X010403Y007334D02*
X010247Y007178D01*
X009895Y007530D01*
X010051Y007686D01*
X010403Y007334D01*
G37*
G36*
X010181Y007111D02*
X010025Y006955D01*
X009673Y007307D01*
X009829Y007463D01*
X010181Y007111D01*
G37*
G36*
X009958Y006888D02*
X009802Y006732D01*
X009450Y007084D01*
X009606Y007240D01*
X009958Y006888D01*
G37*
G36*
X009735Y006666D02*
X009579Y006510D01*
X009227Y006862D01*
X009383Y007018D01*
X009735Y006666D01*
G37*
G36*
X009512Y006443D02*
X009356Y006287D01*
X009004Y006639D01*
X009160Y006795D01*
X009512Y006443D01*
G37*
G36*
X009290Y006220D02*
X009134Y006064D01*
X008782Y006416D01*
X008938Y006572D01*
X009290Y006220D01*
G37*
G36*
X009067Y005998D02*
X008911Y005842D01*
X008559Y006194D01*
X008715Y006350D01*
X009067Y005998D01*
G37*
G36*
X012348Y004498D02*
X012192Y004342D01*
X011840Y004694D01*
X011996Y004850D01*
X012348Y004498D01*
G37*
G36*
X012125Y004276D02*
X011969Y004120D01*
X011617Y004472D01*
X011773Y004628D01*
X012125Y004276D01*
G37*
G36*
X011902Y004053D02*
X011746Y003897D01*
X011394Y004249D01*
X011550Y004405D01*
X011902Y004053D01*
G37*
G36*
X011680Y003830D02*
X011524Y003674D01*
X011172Y004026D01*
X011328Y004182D01*
X011680Y003830D01*
G37*
G36*
X011457Y003608D02*
X011301Y003452D01*
X010949Y003804D01*
X011105Y003960D01*
X011457Y003608D01*
G37*
G36*
X012571Y004721D02*
X012415Y004565D01*
X012063Y004917D01*
X012219Y005073D01*
X012571Y004721D01*
G37*
G36*
X012793Y004944D02*
X012637Y004788D01*
X012285Y005140D01*
X012441Y005296D01*
X012793Y004944D01*
G37*
G36*
X013016Y005166D02*
X012860Y005010D01*
X012508Y005362D01*
X012664Y005518D01*
X013016Y005166D01*
G37*
D12*
X015287Y003680D03*
X016287Y003680D03*
X017287Y003680D03*
X018787Y004430D03*
X019787Y004430D03*
X019787Y005430D03*
X018787Y005430D03*
X018787Y006430D03*
X019787Y006430D03*
X019787Y007430D03*
X018787Y007430D03*
X012787Y009860D03*
X011787Y009860D03*
X010787Y009860D03*
X009787Y009860D03*
X008787Y009860D03*
X007787Y009860D03*
X006787Y009860D03*
X006787Y010860D03*
X007787Y010860D03*
X008787Y010860D03*
X009787Y010860D03*
X010787Y010860D03*
X011787Y010860D03*
X012787Y010860D03*
X015287Y002680D03*
X016287Y002680D03*
X017287Y002680D03*
D13*
X006287Y001180D03*
X017787Y010680D03*
D14*
X005604Y009930D02*
X004971Y009930D01*
X004971Y008930D02*
X005604Y008930D01*
X005604Y007930D02*
X004971Y007930D01*
X004971Y006930D02*
X005604Y006930D01*
X005604Y004930D02*
X004971Y004930D01*
X004971Y003930D02*
X005604Y003930D01*
X005604Y002930D02*
X004971Y002930D01*
X004971Y001930D02*
X005604Y001930D01*
D15*
X007228Y003180D03*
X008347Y003180D03*
X014978Y006680D03*
X016097Y006680D03*
X015597Y008180D03*
X014478Y008180D03*
X014478Y009180D03*
X015597Y009180D03*
X015728Y010680D03*
X016847Y010680D03*
D16*
X017287Y008740D03*
X017287Y007620D03*
X017287Y006240D03*
X017287Y005120D03*
X014037Y002740D03*
X014037Y001620D03*
X007787Y004370D03*
X006787Y004370D03*
X006787Y005490D03*
X007787Y005490D03*
D17*
X008387Y001680D03*
X012187Y001680D03*
D18*
X014871Y010056D03*
X014004Y010430D03*
X014871Y010804D03*
D19*
X015604Y010804D01*
X015728Y010680D01*
X016847Y010680D02*
X016887Y010640D01*
X016887Y009830D01*
X017287Y009430D01*
X017287Y008740D01*
X017478Y008740D01*
X018037Y008180D01*
X018037Y006180D01*
X017347Y006180D01*
X017287Y006240D01*
X016847Y006680D01*
X016097Y006680D01*
X018037Y006180D02*
X018037Y003680D01*
X018037Y001930D01*
X017287Y001180D01*
X017537Y000430D02*
X018537Y001430D01*
X018537Y003180D01*
X019787Y004430D01*
X019787Y005430D01*
X019787Y006430D01*
X019787Y007430D01*
X018787Y008430D01*
X018787Y010680D01*
X016887Y009830D02*
X014887Y009830D01*
X014871Y009847D01*
X014871Y010056D01*
X014887Y009830D02*
X013987Y009830D01*
X013737Y009580D01*
X013237Y009080D01*
X012674Y009080D01*
X011874Y008280D01*
X013037Y007680D02*
X014037Y007680D01*
X014478Y008180D01*
X014597Y008180D01*
X015597Y009180D01*
X016097Y009180D01*
X016287Y009180D01*
X014004Y010430D02*
X013217Y010430D01*
X012787Y010860D01*
X011037Y007030D02*
X010637Y007030D01*
X009287Y005680D01*
X010037Y004730D02*
X010437Y005130D01*
X010437Y006230D01*
X010837Y006630D01*
X007787Y005490D02*
X006787Y005490D01*
X006597Y005490D01*
X006037Y004930D01*
X005287Y004930D01*
X006787Y004370D02*
X007287Y004370D01*
X007287Y003240D01*
X007228Y003180D01*
X007228Y003120D01*
X006037Y001930D01*
X005287Y001930D01*
X005287Y000930D01*
X005787Y000430D01*
X014787Y000430D01*
X014787Y001990D01*
X014037Y002740D01*
X014978Y003680D01*
X015287Y003680D01*
X015287Y003620D01*
X017287Y003680D02*
X017787Y003680D01*
X018037Y003680D02*
X017287Y003680D01*
X017537Y000430D02*
X014787Y000430D01*
X007787Y004370D02*
X007287Y004370D01*
X005287Y006930D02*
X004287Y005930D01*
X004287Y002430D01*
X004787Y001930D01*
X005287Y001930D01*
D20*
X018037Y011430D02*
X018787Y010680D01*
X018037Y011430D02*
X013287Y011430D01*
X012357Y011430D01*
X011787Y010860D01*
D21*
X013837Y010980D03*
X016287Y009180D03*
X018787Y008430D03*
X016287Y007430D03*
X014287Y006055D03*
X013537Y005930D03*
X013537Y005430D03*
X015037Y005430D03*
X013287Y006680D03*
X013787Y007180D03*
X011874Y008280D03*
X011037Y008180D03*
X010537Y008430D03*
X010037Y008430D03*
X011037Y007030D03*
X011037Y006180D03*
X011537Y005930D03*
X012037Y005680D03*
X009287Y005680D03*
X008537Y005680D03*
X010787Y003430D03*
X011287Y002930D03*
X013287Y003930D03*
X017287Y001180D03*
X013487Y008580D03*
D22*
X002979Y001508D02*
X003068Y001175D01*
X003240Y000876D01*
X003484Y000633D01*
X003782Y000460D01*
X004115Y000371D01*
X004287Y000360D01*
X019862Y000360D01*
X019747Y000405D01*
X019747Y000405D01*
X019356Y000717D01*
X019356Y000717D01*
X019356Y000717D01*
X019074Y001131D01*
X017677Y001131D01*
X017643Y001097D02*
X018300Y001754D01*
X018347Y001868D01*
X018347Y004219D01*
X018597Y003970D01*
X018978Y003970D01*
X019247Y004239D01*
X019247Y004621D01*
X018978Y004890D01*
X018597Y004890D01*
X018347Y004641D01*
X018347Y005219D01*
X018597Y004970D01*
X018978Y004970D01*
X019247Y005239D01*
X019247Y005621D01*
X018978Y005890D01*
X018597Y005890D01*
X018347Y005641D01*
X018347Y006219D01*
X018597Y005970D01*
X018978Y005970D01*
X019247Y006239D01*
X019247Y006621D01*
X018978Y006890D01*
X018597Y006890D01*
X018347Y006641D01*
X018347Y007219D01*
X018597Y006970D01*
X018978Y006970D01*
X019247Y007239D01*
X019247Y007621D01*
X018978Y007890D01*
X018597Y007890D01*
X018347Y007641D01*
X018347Y008242D01*
X018300Y008356D01*
X017802Y008853D01*
X017802Y009121D01*
X017709Y009215D01*
X017597Y009215D01*
X017597Y009492D01*
X017550Y009606D01*
X017463Y009693D01*
X017197Y009958D01*
X017197Y010165D01*
X017229Y010165D01*
X017322Y010259D01*
X017322Y010495D01*
X017327Y010476D01*
X017336Y010471D01*
X017337Y010469D01*
X017336Y010459D01*
X017355Y010430D01*
X017370Y010399D01*
X017380Y010396D01*
X017381Y010394D01*
X017381Y010383D01*
X017405Y010359D01*
X017425Y010331D01*
X017435Y010329D01*
X017437Y010328D01*
X017439Y010317D01*
X017467Y010298D01*
X017491Y010273D01*
X017501Y010273D01*
X017503Y010272D01*
X017507Y010262D01*
X017538Y010248D01*
X017566Y010228D01*
X017576Y010230D01*
X017578Y010229D01*
X017584Y010220D01*
X017617Y010211D01*
X017648Y010196D01*
X017658Y010200D01*
X017660Y010199D01*
X017667Y010191D01*
X017701Y010188D01*
X017734Y010180D01*
X017743Y010185D01*
X017745Y010185D01*
X017753Y010178D01*
X017787Y010181D01*
X017822Y010178D01*
X017830Y010185D01*
X017832Y010185D01*
X017841Y010180D01*
X017874Y010188D01*
X017908Y010191D01*
X017915Y010199D01*
X017917Y010200D01*
X017927Y010196D01*
X017958Y010211D01*
X017991Y010220D01*
X017997Y010229D01*
X017999Y010230D01*
X018009Y010228D01*
X018037Y010248D01*
X018068Y010262D01*
X018072Y010272D01*
X018074Y010273D01*
X018084Y010273D01*
X018108Y010298D01*
X018136Y010317D01*
X018138Y010328D01*
X018140Y010329D01*
X018150Y010331D01*
X018170Y010359D01*
X018194Y010383D01*
X018194Y010394D01*
X018195Y010396D01*
X018205Y010399D01*
X018220Y010430D01*
X018239Y010459D01*
X018238Y010469D01*
X018239Y010471D01*
X018248Y010476D01*
X018256Y010509D01*
X018271Y010540D01*
X018267Y010550D01*
X018268Y010552D01*
X018276Y010559D01*
X018279Y010593D01*
X018288Y010626D01*
X018283Y010635D01*
X018283Y010638D01*
X018290Y010646D01*
X018287Y010680D01*
X018290Y010714D01*
X018283Y010722D01*
X018283Y010725D01*
X018288Y010734D01*
X018279Y010767D01*
X018276Y010801D01*
X018268Y010808D01*
X018267Y010810D01*
X018271Y010820D01*
X018256Y010851D01*
X018248Y010884D01*
X018239Y010889D01*
X018238Y010891D01*
X018239Y010901D01*
X018220Y010930D01*
X018205Y010961D01*
X018195Y010964D01*
X018194Y010966D01*
X018194Y010977D01*
X018170Y011001D01*
X018150Y011029D01*
X018140Y011031D01*
X018138Y011032D01*
X018136Y011043D01*
X018108Y011062D01*
X018084Y011087D01*
X018074Y011087D01*
X018072Y011088D01*
X018068Y011098D01*
X018037Y011112D01*
X018009Y011132D01*
X017999Y011130D01*
X017997Y011131D01*
X017991Y011140D01*
X017958Y011149D01*
X017927Y011164D01*
X017917Y011160D01*
X017915Y011161D01*
X017908Y011169D01*
X017874Y011172D01*
X017841Y011180D01*
X017832Y011175D01*
X017830Y011175D01*
X017822Y011182D01*
X017787Y011179D01*
X017753Y011182D01*
X017745Y011175D01*
X017743Y011175D01*
X017734Y011180D01*
X017701Y011172D01*
X017667Y011169D01*
X017660Y011161D01*
X017658Y011160D01*
X017648Y011164D01*
X017617Y011149D01*
X017584Y011140D01*
X017578Y011131D01*
X017576Y011130D01*
X017566Y011132D01*
X017538Y011112D01*
X017507Y011098D01*
X017503Y011088D01*
X017501Y011087D01*
X017491Y011087D01*
X017467Y011062D01*
X017439Y011043D01*
X017437Y011032D01*
X017435Y011031D01*
X017425Y011029D01*
X017405Y011001D01*
X017381Y010977D01*
X017381Y010966D01*
X017380Y010964D01*
X017370Y010961D01*
X017355Y010930D01*
X017336Y010901D01*
X017337Y010891D01*
X017336Y010889D01*
X017327Y010884D01*
X017322Y010865D01*
X017322Y011101D01*
X017229Y011195D01*
X016466Y011195D01*
X016372Y011101D01*
X016372Y010259D01*
X016466Y010165D01*
X016577Y010165D01*
X016577Y010140D01*
X015306Y010140D01*
X015306Y010205D01*
X015346Y010165D01*
X016109Y010165D01*
X016203Y010259D01*
X016203Y011101D01*
X016109Y011195D01*
X015346Y011195D01*
X015265Y011114D01*
X015259Y011114D01*
X015212Y011161D01*
X014529Y011161D01*
X014487Y011120D01*
X014423Y011183D01*
X014335Y011220D01*
X014107Y011220D01*
X014041Y011285D01*
X013909Y011340D01*
X013766Y011340D01*
X013634Y011285D01*
X013532Y011184D01*
X013477Y011052D01*
X013477Y010908D01*
X013532Y010776D01*
X013568Y010740D01*
X013346Y010740D01*
X013247Y010838D01*
X013247Y011051D01*
X012978Y011320D01*
X012597Y011320D01*
X012327Y011051D01*
X012327Y010669D01*
X012597Y010400D01*
X012809Y010400D01*
X012889Y010320D01*
X012597Y010320D01*
X012327Y010051D01*
X012327Y009669D01*
X012597Y009400D01*
X012978Y009400D01*
X013247Y009669D01*
X013247Y010051D01*
X013178Y010120D01*
X013616Y010120D01*
X013663Y010073D01*
X013792Y010073D01*
X013725Y010006D01*
X013725Y010006D01*
X013562Y009843D01*
X013562Y009843D01*
X013109Y009390D01*
X012612Y009390D01*
X012498Y009343D01*
X011791Y008635D01*
X011670Y008585D01*
X011569Y008484D01*
X011514Y008352D01*
X011514Y008208D01*
X011569Y008076D01*
X011597Y008047D01*
X011597Y007929D01*
X011553Y007885D01*
X011377Y008060D01*
X011397Y008108D01*
X011397Y008252D01*
X011343Y008384D01*
X011241Y008485D01*
X011109Y008540D01*
X010966Y008540D01*
X010894Y008510D01*
X010843Y008634D01*
X010741Y008735D01*
X010609Y008790D01*
X010466Y008790D01*
X010334Y008735D01*
X010287Y008689D01*
X010277Y008699D01*
X010277Y008706D01*
X010423Y008852D01*
X010673Y009102D01*
X010923Y009352D01*
X010972Y009400D01*
X010978Y009400D01*
X011247Y009669D01*
X011247Y010051D01*
X011208Y010090D01*
X011288Y010090D01*
X011328Y010051D01*
X011327Y010051D01*
X011327Y009669D01*
X011597Y009400D01*
X011978Y009400D01*
X012247Y009669D01*
X012247Y010051D01*
X011978Y010320D01*
X011737Y010320D01*
X011677Y010380D01*
X011777Y010380D01*
X011777Y010850D01*
X011307Y010850D01*
X011307Y010661D01*
X011399Y010570D01*
X011148Y010570D01*
X011247Y010669D01*
X011247Y011051D01*
X010978Y011320D01*
X010597Y011320D01*
X010327Y011051D01*
X010327Y010669D01*
X010427Y010570D01*
X010148Y010570D01*
X010247Y010669D01*
X010247Y011051D01*
X009978Y011320D01*
X009737Y011320D01*
X009561Y011496D01*
X019954Y011496D01*
X019747Y011415D01*
X019356Y011103D01*
X019074Y010689D01*
X019074Y010689D01*
X018926Y010210D01*
X018926Y009710D01*
X019074Y009231D01*
X019356Y008817D01*
X019747Y008505D01*
X020214Y008322D01*
X020713Y008285D01*
X021201Y008396D01*
X021201Y008396D01*
X021635Y008647D01*
X021976Y009014D01*
X022107Y009288D01*
X022107Y002532D01*
X021976Y002806D01*
X021976Y002806D01*
X021635Y003173D01*
X021201Y003424D01*
X020713Y003535D01*
X020214Y003498D01*
X020214Y003498D01*
X019747Y003315D01*
X019356Y003003D01*
X019356Y003003D01*
X019074Y002589D01*
X019074Y002589D01*
X018926Y002110D01*
X018926Y001610D01*
X019074Y001131D01*
X019074Y001131D01*
X019025Y001290D02*
X017835Y001290D01*
X017643Y001097D02*
X017593Y000976D01*
X017491Y000875D01*
X017359Y000820D01*
X017216Y000820D01*
X017084Y000875D01*
X016982Y000976D01*
X016927Y001108D01*
X016927Y001252D01*
X016982Y001384D01*
X017084Y001485D01*
X017204Y001535D01*
X017727Y002058D01*
X017727Y002469D01*
X017478Y002220D01*
X017097Y002220D01*
X016827Y002489D01*
X016827Y002871D01*
X017097Y003140D01*
X017478Y003140D01*
X017727Y002891D01*
X017727Y003370D01*
X017628Y003370D01*
X017478Y003220D01*
X017097Y003220D01*
X016827Y003489D01*
X016827Y003871D01*
X017097Y004140D01*
X017478Y004140D01*
X017628Y003990D01*
X017727Y003990D01*
X017727Y004664D01*
X017709Y004645D01*
X017092Y004645D01*
X016923Y004477D01*
X016835Y004440D01*
X014887Y004440D01*
X014867Y004420D01*
X015585Y004420D01*
X015673Y004383D01*
X015923Y004133D01*
X015991Y004066D01*
X016000Y004043D01*
X016097Y004140D01*
X016478Y004140D01*
X016747Y003871D01*
X016747Y003489D01*
X016478Y003220D01*
X016097Y003220D01*
X016027Y003289D01*
X016027Y003132D01*
X015991Y003044D01*
X015747Y002801D01*
X015747Y002489D01*
X015478Y002220D01*
X015097Y002220D01*
X014827Y002489D01*
X014827Y002871D01*
X015097Y003140D01*
X015408Y003140D01*
X015468Y003200D01*
X015297Y003200D01*
X015297Y003670D01*
X015277Y003670D01*
X014807Y003670D01*
X014807Y003481D01*
X015089Y003200D01*
X015277Y003200D01*
X015277Y003670D01*
X015277Y003690D01*
X014807Y003690D01*
X014807Y003861D01*
X014673Y003727D01*
X014182Y003235D01*
X014416Y003235D01*
X014462Y003223D01*
X014503Y003199D01*
X014536Y003165D01*
X014560Y003124D01*
X014572Y003079D01*
X014572Y002817D01*
X014115Y002817D01*
X014115Y002662D01*
X014115Y002245D01*
X014416Y002245D01*
X014462Y002257D01*
X014503Y002281D01*
X014536Y002314D01*
X014560Y002355D01*
X014572Y002401D01*
X014572Y002662D01*
X014115Y002662D01*
X013960Y002662D01*
X013960Y002245D01*
X013659Y002245D01*
X013613Y002257D01*
X013572Y002281D01*
X013539Y002314D01*
X013515Y002355D01*
X013503Y002401D01*
X013503Y002662D01*
X013960Y002662D01*
X013960Y002817D01*
X013503Y002817D01*
X013503Y003079D01*
X013515Y003124D01*
X013539Y003165D01*
X013563Y003190D01*
X012767Y003190D01*
X012679Y003227D01*
X012611Y003294D01*
X012277Y003628D01*
X012277Y002882D01*
X012241Y002794D01*
X011741Y002294D01*
X011673Y002227D01*
X011658Y002220D01*
X013304Y002220D01*
X013397Y002126D01*
X013397Y001920D01*
X013523Y001920D01*
X013523Y002001D01*
X013616Y002095D01*
X014459Y002095D01*
X014552Y002001D01*
X014552Y001239D01*
X014459Y001145D01*
X013616Y001145D01*
X013523Y001239D01*
X013523Y001440D01*
X013397Y001440D01*
X013397Y001234D01*
X013304Y001140D01*
X011071Y001140D01*
X010977Y001234D01*
X010977Y001440D01*
X010490Y001440D01*
X010402Y001477D01*
X010334Y001544D01*
X008834Y003044D01*
X008822Y003072D01*
X008822Y002759D01*
X008729Y002665D01*
X008627Y002665D01*
X008627Y002220D01*
X009504Y002220D01*
X009597Y002126D01*
X009597Y001234D01*
X009504Y001140D01*
X007271Y001140D01*
X007177Y001234D01*
X007177Y002126D01*
X007271Y002220D01*
X008147Y002220D01*
X008147Y002665D01*
X007966Y002665D01*
X007872Y002759D01*
X007872Y003601D01*
X007966Y003695D01*
X008107Y003695D01*
X008107Y003788D01*
X008144Y003875D01*
X007865Y003875D01*
X007865Y004293D01*
X007710Y004293D01*
X006865Y004293D01*
X006865Y004448D01*
X006710Y004448D01*
X006710Y004865D01*
X006411Y004865D01*
X006561Y005015D01*
X007209Y005015D01*
X007287Y005094D01*
X007366Y005015D01*
X008209Y005015D01*
X008302Y005109D01*
X008302Y005395D01*
X008313Y005395D01*
X008334Y005375D01*
X008466Y005320D01*
X008487Y005320D01*
X008398Y005232D01*
X008398Y005189D01*
X008334Y005125D01*
X008297Y005037D01*
X008297Y004777D01*
X008286Y004796D01*
X008253Y004829D01*
X008212Y004853D01*
X008166Y004865D01*
X007865Y004865D01*
X007865Y004448D01*
X007710Y004448D01*
X007710Y004865D01*
X007409Y004865D01*
X007363Y004853D01*
X007322Y004829D01*
X007289Y004796D01*
X007287Y004794D01*
X007286Y004796D01*
X007253Y004829D01*
X007212Y004853D01*
X007166Y004865D01*
X006865Y004865D01*
X006865Y004448D01*
X007322Y004448D01*
X007710Y004448D01*
X007710Y004293D01*
X007710Y003875D01*
X007409Y003875D01*
X007363Y003887D01*
X007322Y003911D01*
X007289Y003945D01*
X007287Y003946D01*
X007286Y003945D01*
X007253Y003911D01*
X007212Y003887D01*
X007166Y003875D01*
X006865Y003875D01*
X006865Y004293D01*
X006710Y004293D01*
X006253Y004293D01*
X006253Y004031D01*
X006265Y003986D01*
X006289Y003945D01*
X006322Y003911D01*
X006363Y003887D01*
X006409Y003875D01*
X006710Y003875D01*
X006710Y004293D01*
X006710Y004448D01*
X006253Y004448D01*
X006253Y004707D01*
X006213Y004667D01*
X006099Y004620D01*
X005969Y004620D01*
X005874Y004526D01*
X005699Y004453D01*
X004876Y004453D01*
X004701Y004526D01*
X004566Y004660D01*
X004494Y004835D01*
X004494Y005025D01*
X004566Y005200D01*
X004701Y005334D01*
X004876Y005407D01*
X005699Y005407D01*
X005874Y005334D01*
X005939Y005270D01*
X006273Y005603D01*
X006273Y005871D01*
X006366Y005965D01*
X007209Y005965D01*
X007287Y005886D01*
X007287Y005886D01*
X007366Y005965D01*
X007980Y005965D01*
X007981Y005965D01*
X008313Y005965D01*
X008334Y005985D01*
X008466Y006040D01*
X008487Y006040D01*
X008398Y006128D01*
X008398Y006171D01*
X007152Y007418D01*
X006084Y008485D01*
X006047Y008573D01*
X006047Y008754D01*
X006009Y008660D01*
X005874Y008526D01*
X005699Y008453D01*
X004876Y008453D01*
X004701Y008526D01*
X004566Y008660D01*
X004494Y008835D01*
X004494Y009025D01*
X004566Y009200D01*
X004701Y009334D01*
X004876Y009407D01*
X005699Y009407D01*
X005874Y009334D01*
X006009Y009200D01*
X006047Y009106D01*
X006047Y009754D01*
X006009Y009660D01*
X005874Y009526D01*
X005699Y009453D01*
X004876Y009453D01*
X004701Y009526D01*
X004566Y009660D01*
X004494Y009835D01*
X004494Y010025D01*
X004566Y010200D01*
X004701Y010334D01*
X004876Y010407D01*
X005699Y010407D01*
X005874Y010334D01*
X006009Y010200D01*
X006047Y010106D01*
X006047Y011228D01*
X006084Y011316D01*
X006264Y011496D01*
X004287Y011496D01*
X004115Y011485D01*
X003782Y011396D01*
X003484Y011223D01*
X003240Y010980D01*
X003068Y010681D01*
X003068Y010681D01*
X002979Y010348D01*
X002967Y010176D01*
X002967Y001680D01*
X002979Y001508D01*
X002995Y001448D02*
X004846Y001448D01*
X004854Y001445D02*
X004932Y001433D01*
X005269Y001433D01*
X005269Y001912D01*
X004474Y001912D01*
X004474Y001891D01*
X004486Y001814D01*
X004510Y001739D01*
X004546Y001670D01*
X004592Y001606D01*
X004647Y001551D01*
X004710Y001505D01*
X004780Y001470D01*
X004854Y001445D01*
X004592Y001607D02*
X002972Y001607D01*
X002967Y001765D02*
X004502Y001765D01*
X004474Y001948D02*
X005269Y001948D01*
X005269Y001912D01*
X005306Y001912D01*
X005306Y001948D01*
X006101Y001948D01*
X006101Y001969D01*
X006089Y002046D01*
X006065Y002121D01*
X006029Y002190D01*
X005983Y002254D01*
X005928Y002309D01*
X005865Y002355D01*
X005795Y002390D01*
X005721Y002415D01*
X005643Y002427D01*
X005306Y002427D01*
X005306Y001948D01*
X005269Y001948D01*
X005269Y002427D01*
X004932Y002427D01*
X004854Y002415D01*
X004780Y002390D01*
X004710Y002355D01*
X004647Y002309D01*
X004592Y002254D01*
X004546Y002190D01*
X004510Y002121D01*
X004486Y002046D01*
X004474Y001969D01*
X004474Y001948D01*
X004498Y002082D02*
X002967Y002082D01*
X002967Y001924D02*
X005269Y001924D01*
X005306Y001924D02*
X007177Y001924D01*
X007177Y002082D02*
X006077Y002082D01*
X006101Y001912D02*
X005306Y001912D01*
X005306Y001433D01*
X005643Y001433D01*
X005721Y001445D01*
X005795Y001470D01*
X005865Y001505D01*
X005928Y001551D01*
X005983Y001606D01*
X006029Y001670D01*
X006065Y001739D01*
X006089Y001814D01*
X006101Y001891D01*
X006101Y001912D01*
X006073Y001765D02*
X007177Y001765D01*
X007177Y001607D02*
X006549Y001607D01*
X006537Y001612D02*
X006509Y001632D01*
X006499Y001630D01*
X006497Y001631D01*
X006491Y001640D01*
X006458Y001649D01*
X006427Y001664D01*
X006417Y001660D01*
X006415Y001661D01*
X006408Y001669D01*
X006374Y001672D01*
X006341Y001680D01*
X006332Y001675D01*
X006330Y001675D01*
X006322Y001682D01*
X006287Y001679D01*
X006253Y001682D01*
X006245Y001675D01*
X006243Y001675D01*
X006234Y001680D01*
X006201Y001672D01*
X006167Y001669D01*
X006160Y001661D01*
X006158Y001660D01*
X006148Y001664D01*
X006117Y001649D01*
X006084Y001640D01*
X006078Y001631D01*
X006076Y001630D01*
X006066Y001632D01*
X006038Y001612D01*
X006007Y001598D01*
X006003Y001588D01*
X006001Y001587D01*
X005991Y001587D01*
X005967Y001562D01*
X005939Y001543D01*
X005937Y001532D01*
X005935Y001531D01*
X005925Y001529D01*
X005905Y001501D01*
X005881Y001477D01*
X005881Y001466D01*
X005880Y001464D01*
X005870Y001461D01*
X005855Y001430D01*
X005836Y001401D01*
X005837Y001391D01*
X005836Y001389D01*
X005827Y001384D01*
X005818Y001351D01*
X005804Y001320D01*
X005808Y001310D01*
X005807Y001308D01*
X005799Y001301D01*
X005796Y001267D01*
X005787Y001234D01*
X005792Y001225D01*
X005792Y001222D01*
X005785Y001214D01*
X005788Y001180D01*
X005785Y001146D01*
X005792Y001138D01*
X005792Y001135D01*
X005787Y001126D01*
X005796Y001093D01*
X005799Y001059D01*
X005807Y001052D01*
X005808Y001050D01*
X005804Y001040D01*
X005818Y001009D01*
X005827Y000976D01*
X005836Y000971D01*
X005837Y000969D01*
X005836Y000959D01*
X005855Y000930D01*
X005870Y000899D01*
X005880Y000896D01*
X005881Y000894D01*
X005881Y000883D01*
X005905Y000859D01*
X005925Y000831D01*
X005935Y000829D01*
X005937Y000828D01*
X005939Y000817D01*
X005967Y000798D01*
X005991Y000773D01*
X006001Y000773D01*
X006003Y000772D01*
X006007Y000762D01*
X006038Y000748D01*
X006066Y000728D01*
X006076Y000730D01*
X006078Y000729D01*
X006084Y000720D01*
X006117Y000711D01*
X006148Y000696D01*
X006158Y000700D01*
X006160Y000699D01*
X006167Y000691D01*
X006201Y000688D01*
X006234Y000680D01*
X006243Y000685D01*
X006245Y000685D01*
X006253Y000678D01*
X006287Y000681D01*
X006322Y000678D01*
X006330Y000685D01*
X006332Y000685D01*
X006341Y000680D01*
X006374Y000688D01*
X006408Y000691D01*
X006415Y000699D01*
X006417Y000700D01*
X006427Y000696D01*
X006458Y000711D01*
X006491Y000720D01*
X006497Y000729D01*
X006499Y000730D01*
X006509Y000728D01*
X006537Y000748D01*
X006568Y000762D01*
X006572Y000772D01*
X006574Y000773D01*
X006584Y000773D01*
X006608Y000798D01*
X006636Y000817D01*
X006638Y000828D01*
X006640Y000829D01*
X006650Y000831D01*
X006670Y000859D01*
X006694Y000883D01*
X006694Y000894D01*
X006695Y000896D01*
X006705Y000899D01*
X006720Y000930D01*
X006739Y000959D01*
X006738Y000969D01*
X006739Y000971D01*
X006748Y000976D01*
X006756Y001009D01*
X006771Y001040D01*
X006767Y001050D01*
X006768Y001052D01*
X006776Y001059D01*
X006779Y001093D01*
X006788Y001126D01*
X006783Y001135D01*
X006783Y001138D01*
X006790Y001146D01*
X006787Y001180D01*
X006790Y001214D01*
X006783Y001222D01*
X006783Y001225D01*
X006788Y001234D01*
X006779Y001267D01*
X006776Y001301D01*
X006768Y001308D01*
X006767Y001310D01*
X006771Y001320D01*
X006756Y001351D01*
X006748Y001384D01*
X006739Y001389D01*
X006738Y001391D01*
X006739Y001401D01*
X006720Y001430D01*
X006705Y001461D01*
X006695Y001464D01*
X006694Y001466D01*
X006694Y001477D01*
X006670Y001501D01*
X006650Y001529D01*
X006640Y001531D01*
X006638Y001532D01*
X006636Y001543D01*
X006608Y001562D01*
X006584Y001587D01*
X006574Y001587D01*
X006572Y001588D01*
X006568Y001598D01*
X006537Y001612D01*
X006711Y001448D02*
X007177Y001448D01*
X007177Y001290D02*
X006777Y001290D01*
X006785Y001131D02*
X016927Y001131D01*
X016943Y001290D02*
X014552Y001290D01*
X014552Y001448D02*
X017046Y001448D01*
X017276Y001607D02*
X014552Y001607D01*
X014552Y001765D02*
X017434Y001765D01*
X017593Y001924D02*
X014552Y001924D01*
X014472Y002082D02*
X017727Y002082D01*
X017727Y002241D02*
X017499Y002241D01*
X017076Y002241D02*
X016499Y002241D01*
X016478Y002220D02*
X016747Y002489D01*
X016747Y002871D01*
X016478Y003140D01*
X016097Y003140D01*
X015827Y002871D01*
X015827Y002489D01*
X016097Y002220D01*
X016478Y002220D01*
X016657Y002399D02*
X016918Y002399D01*
X016827Y002558D02*
X016747Y002558D01*
X016747Y002716D02*
X016827Y002716D01*
X016831Y002875D02*
X016744Y002875D01*
X016585Y003033D02*
X016990Y003033D01*
X016967Y003350D02*
X016608Y003350D01*
X016747Y003509D02*
X016827Y003509D01*
X016827Y003667D02*
X016747Y003667D01*
X016747Y003826D02*
X016827Y003826D01*
X016941Y003984D02*
X016634Y003984D01*
X016882Y004460D02*
X017727Y004460D01*
X017727Y004618D02*
X017065Y004618D01*
X016787Y004680D02*
X017228Y005120D01*
X017287Y005120D01*
X016787Y004680D02*
X014787Y004680D01*
X014037Y003930D01*
X013287Y003930D01*
X012760Y003930D01*
X012094Y004596D01*
X011871Y004374D02*
X012315Y003930D01*
X012815Y003430D01*
X013037Y003430D01*
X014037Y003430D01*
X014537Y003930D01*
X014787Y004180D01*
X015287Y004180D01*
X015537Y004180D01*
X015787Y003930D01*
X015787Y003180D01*
X015287Y002680D01*
X015747Y002716D02*
X015827Y002716D01*
X015827Y002558D02*
X015747Y002558D01*
X015657Y002399D02*
X015918Y002399D01*
X016076Y002241D02*
X015499Y002241D01*
X015076Y002241D02*
X011687Y002241D01*
X011846Y002399D02*
X013503Y002399D01*
X013503Y002558D02*
X012004Y002558D01*
X012163Y002716D02*
X013960Y002716D01*
X014115Y002716D02*
X014827Y002716D01*
X014827Y002558D02*
X014572Y002558D01*
X014572Y002399D02*
X014918Y002399D01*
X014831Y002875D02*
X014572Y002875D01*
X014572Y003033D02*
X014990Y003033D01*
X015460Y003192D02*
X014510Y003192D01*
X014297Y003350D02*
X014939Y003350D01*
X014807Y003509D02*
X014455Y003509D01*
X014614Y003667D02*
X014807Y003667D01*
X014807Y003826D02*
X014772Y003826D01*
X015277Y003667D02*
X015297Y003667D01*
X015297Y003509D02*
X015277Y003509D01*
X015277Y003350D02*
X015297Y003350D01*
X016027Y003192D02*
X017727Y003192D01*
X017727Y003033D02*
X017585Y003033D01*
X017608Y003350D02*
X017727Y003350D01*
X018347Y003350D02*
X019837Y003350D01*
X019747Y003315D02*
X019747Y003315D01*
X019593Y003192D02*
X018347Y003192D01*
X018347Y003033D02*
X019394Y003033D01*
X019356Y003003D02*
X019356Y003003D01*
X019269Y002875D02*
X018347Y002875D01*
X018347Y002716D02*
X019160Y002716D01*
X019064Y002558D02*
X018347Y002558D01*
X018347Y002399D02*
X019015Y002399D01*
X018966Y002241D02*
X018347Y002241D01*
X018347Y002082D02*
X018926Y002082D01*
X018926Y001924D02*
X018347Y001924D01*
X018305Y001765D02*
X018926Y001765D01*
X018927Y001607D02*
X018152Y001607D01*
X017994Y001448D02*
X018976Y001448D01*
X019182Y000973D02*
X017589Y000973D01*
X016986Y000973D02*
X006741Y000973D01*
X006632Y000814D02*
X019290Y000814D01*
X019433Y000656D02*
X003461Y000656D01*
X003303Y000814D02*
X005943Y000814D01*
X005834Y000973D02*
X003185Y000973D01*
X003093Y001131D02*
X005790Y001131D01*
X005798Y001290D02*
X003037Y001290D01*
X003719Y000497D02*
X019632Y000497D01*
X017727Y002399D02*
X017657Y002399D01*
X015990Y003033D02*
X015980Y003033D01*
X015831Y002875D02*
X015821Y002875D01*
X014115Y002558D02*
X013960Y002558D01*
X013960Y002399D02*
X014115Y002399D01*
X013603Y002082D02*
X013397Y002082D01*
X013397Y001924D02*
X013523Y001924D01*
X014037Y001680D02*
X014037Y001620D01*
X014037Y001680D02*
X012187Y001680D01*
X011037Y001680D01*
X010537Y001680D01*
X009037Y003180D01*
X009037Y003680D01*
X008787Y003930D01*
X008787Y004180D01*
X008787Y004794D01*
X009036Y005042D01*
X009258Y004819D02*
X009537Y005098D01*
X009537Y005380D01*
X009537Y005430D01*
X009287Y005680D01*
X009676Y005631D02*
X009741Y005566D01*
X009777Y005478D01*
X009777Y005050D01*
X009741Y004962D01*
X009732Y004953D01*
X009785Y004900D01*
X009481Y004596D01*
X009715Y004830D01*
X009937Y004830D01*
X010037Y004730D01*
X010137Y004630D01*
X010137Y004362D01*
X009927Y004151D01*
X010197Y004422D01*
X010197Y004422D01*
X009927Y004151D01*
X009927Y004151D01*
X009622Y003847D01*
X009927Y004151D01*
X009927Y004151D01*
X009918Y004143D02*
X009918Y004143D01*
X009760Y003984D02*
X009760Y003984D01*
X009622Y003847D02*
X009717Y003752D01*
X009758Y003729D01*
X009773Y003725D01*
X009984Y003514D01*
X010207Y003291D01*
X010339Y003291D01*
X010427Y003379D01*
X010427Y003358D01*
X010482Y003226D01*
X010547Y003161D01*
X010547Y002632D01*
X010584Y002544D01*
X010652Y002477D01*
X010902Y002227D01*
X010990Y002190D01*
X011041Y002190D01*
X010977Y002126D01*
X010977Y001920D01*
X010637Y001920D01*
X009277Y003279D01*
X009277Y003728D01*
X009241Y003816D01*
X009173Y003883D01*
X009027Y004029D01*
X009027Y004101D01*
X009202Y003927D01*
X009290Y003890D01*
X009508Y003890D01*
X009558Y003911D01*
X009622Y003847D01*
X009644Y003826D02*
X009231Y003826D01*
X009144Y003984D02*
X009073Y003984D01*
X009337Y004130D02*
X009137Y004330D01*
X009037Y004430D01*
X009037Y004530D01*
X009037Y004598D01*
X009258Y004819D01*
X009481Y004596D02*
X009785Y004900D01*
X009880Y004806D01*
X009903Y004765D01*
X009907Y004750D01*
X010080Y004577D01*
X010095Y004573D01*
X010136Y004550D01*
X010197Y004488D01*
X010197Y004578D01*
X010234Y004666D01*
X010797Y005229D01*
X010797Y005911D01*
X010732Y005976D01*
X010677Y006108D01*
X010677Y006252D01*
X010732Y006384D01*
X010834Y006485D01*
X010966Y006540D01*
X011109Y006540D01*
X011241Y006485D01*
X011343Y006384D01*
X011394Y006260D01*
X011466Y006290D01*
X011609Y006290D01*
X011741Y006235D01*
X011843Y006134D01*
X011894Y006010D01*
X011966Y006040D01*
X012109Y006040D01*
X012241Y005985D01*
X012343Y005884D01*
X012397Y005752D01*
X012397Y005608D01*
X012343Y005476D01*
X012277Y005411D01*
X012277Y005360D01*
X012374Y005456D01*
X012597Y005679D01*
X012729Y005679D01*
X012783Y005625D01*
X012792Y005633D01*
X012880Y005670D01*
X013268Y005670D01*
X013278Y005680D01*
X013268Y005690D01*
X012880Y005690D01*
X012792Y005727D01*
X012783Y005735D01*
X012729Y005681D01*
X012597Y005681D01*
X012347Y005930D01*
X012347Y005930D01*
X012125Y006153D01*
X012125Y006153D01*
X011940Y006337D01*
X011925Y006341D01*
X011884Y006365D01*
X011790Y006460D01*
X012094Y006764D01*
X012398Y007068D01*
X012345Y007121D01*
X012428Y007204D01*
X012434Y007207D01*
X012462Y007237D01*
X012491Y007267D01*
X012493Y007273D01*
X012712Y007515D01*
X013037Y007840D01*
X013685Y007840D01*
X013773Y007877D01*
X013841Y007944D01*
X013983Y008086D01*
X013983Y007801D01*
X013995Y007756D01*
X014019Y007715D01*
X014052Y007681D01*
X014093Y007657D01*
X014139Y007645D01*
X014400Y007645D01*
X014400Y008103D01*
X014555Y008103D01*
X014555Y008257D01*
X014973Y008257D01*
X014973Y008559D01*
X014960Y008604D01*
X014937Y008645D01*
X014903Y008679D01*
X014884Y008690D01*
X014953Y008759D01*
X014953Y009520D01*
X015102Y009520D01*
X015102Y009257D01*
X015520Y009257D01*
X015520Y009103D01*
X015102Y009103D01*
X015102Y008801D01*
X015115Y008756D01*
X015138Y008715D01*
X015172Y008681D01*
X015191Y008670D01*
X015122Y008601D01*
X015122Y007854D01*
X014834Y007566D01*
X014797Y007478D01*
X014797Y007195D01*
X014596Y007195D01*
X014503Y007101D01*
X014503Y006349D01*
X014491Y006360D01*
X014359Y006415D01*
X014216Y006415D01*
X014084Y006360D01*
X013982Y006259D01*
X013927Y006127D01*
X013927Y005983D01*
X013982Y005851D01*
X014047Y005786D01*
X014047Y005529D01*
X013897Y005379D01*
X013897Y005502D01*
X013843Y005634D01*
X013797Y005680D01*
X013843Y005726D01*
X013897Y005858D01*
X013897Y006002D01*
X013843Y006134D01*
X013741Y006235D01*
X013609Y006290D01*
X013466Y006290D01*
X013334Y006235D01*
X013268Y006170D01*
X013177Y006170D01*
X013177Y006261D01*
X012999Y006438D01*
X013000Y006440D01*
X013018Y006440D01*
X013084Y006375D01*
X013216Y006320D01*
X013359Y006320D01*
X013491Y006375D01*
X013593Y006476D01*
X013647Y006608D01*
X013647Y006752D01*
X013599Y006868D01*
X013716Y006820D01*
X013859Y006820D01*
X013991Y006875D01*
X014093Y006976D01*
X014147Y007108D01*
X014147Y007252D01*
X014093Y007384D01*
X013991Y007485D01*
X013859Y007540D01*
X013716Y007540D01*
X013584Y007485D01*
X013518Y007420D01*
X012908Y007420D01*
X012820Y007383D01*
X012752Y007316D01*
X012451Y007015D01*
X012398Y007068D01*
X012094Y006764D01*
X012094Y006764D01*
X011810Y006480D01*
X011790Y006460D02*
X012094Y006764D01*
X013010Y007680D01*
X013037Y007680D01*
X012985Y007788D02*
X013986Y007788D01*
X013841Y007944D02*
X013841Y007944D01*
X013843Y007947D02*
X013983Y007947D01*
X013637Y008080D02*
X013937Y008380D01*
X013937Y008880D01*
X014287Y009180D01*
X014478Y009180D01*
X014478Y009093D01*
X014478Y009180D02*
X014315Y009430D01*
X014953Y009373D02*
X015102Y009373D01*
X014953Y009215D02*
X015520Y009215D01*
X015675Y009215D02*
X016866Y009215D01*
X016773Y009121D01*
X016773Y008359D01*
X016866Y008265D01*
X017514Y008265D01*
X017684Y008095D01*
X016866Y008095D01*
X016773Y008001D01*
X016773Y007920D01*
X016490Y007920D01*
X016402Y007883D01*
X016308Y007790D01*
X016216Y007790D01*
X016084Y007735D01*
X016018Y007670D01*
X015983Y007670D01*
X016072Y007759D01*
X016072Y008601D01*
X016004Y008670D01*
X016023Y008681D01*
X016056Y008715D01*
X016080Y008756D01*
X016092Y008801D01*
X016092Y009103D01*
X015675Y009103D01*
X015675Y009257D01*
X016092Y009257D01*
X016092Y009520D01*
X016759Y009520D01*
X016977Y009302D01*
X016977Y009215D01*
X016866Y009215D01*
X016773Y009056D02*
X016092Y009056D01*
X016092Y008898D02*
X016773Y008898D01*
X016773Y008739D02*
X016070Y008739D01*
X016072Y008581D02*
X016773Y008581D01*
X016773Y008422D02*
X016072Y008422D01*
X016072Y008264D02*
X017516Y008264D01*
X017674Y008105D02*
X016072Y008105D01*
X016072Y007947D02*
X016773Y007947D01*
X016211Y007788D02*
X016072Y007788D01*
X016287Y007430D02*
X016537Y007680D01*
X017228Y007680D01*
X017287Y007620D01*
X016287Y007430D02*
X015787Y007430D01*
X015537Y007180D01*
X015537Y005180D01*
X015287Y004930D01*
X014537Y004930D01*
X014287Y004680D01*
X014037Y004430D01*
X012706Y004430D01*
X012317Y004819D01*
X012539Y005042D02*
X012901Y004680D01*
X013537Y004680D01*
X014287Y005430D01*
X014287Y006055D01*
X013959Y006203D02*
X013774Y006203D01*
X014087Y006362D02*
X013459Y006362D01*
X013611Y006520D02*
X014503Y006520D01*
X014488Y006362D02*
X014503Y006362D01*
X014978Y006680D02*
X015037Y006620D01*
X015037Y005930D01*
X015037Y005430D01*
X014047Y005569D02*
X013870Y005569D01*
X013897Y005411D02*
X013929Y005411D01*
X013537Y005430D02*
X012928Y005430D01*
X012762Y005264D01*
X012487Y005569D02*
X012381Y005569D01*
X012328Y005411D02*
X012277Y005411D01*
X012037Y005330D02*
X012037Y005680D01*
X012397Y005728D02*
X012550Y005728D01*
X012392Y005886D02*
X012341Y005886D01*
X012233Y006045D02*
X011880Y006045D01*
X011537Y005930D02*
X011537Y005230D01*
X010687Y004380D01*
X010687Y004021D01*
X010372Y003706D01*
X010149Y003928D02*
X010437Y004216D01*
X010437Y004530D01*
X011037Y005130D01*
X011037Y006180D01*
X011352Y006362D02*
X011890Y006362D01*
X011790Y006460D02*
X011695Y006554D01*
X011672Y006595D01*
X011668Y006610D01*
X011457Y006821D01*
X011375Y006903D01*
X011343Y006826D01*
X011241Y006725D01*
X011109Y006670D01*
X010966Y006670D01*
X010845Y006720D01*
X010766Y006720D01*
X009676Y005631D01*
X009738Y005569D02*
X010797Y005569D01*
X010797Y005411D02*
X009777Y005411D01*
X009777Y005252D02*
X010797Y005252D01*
X010662Y005094D02*
X009777Y005094D01*
X009751Y004935D02*
X010503Y004935D01*
X010345Y004777D02*
X009897Y004777D01*
X009661Y004777D02*
X009661Y004777D01*
X009503Y004618D02*
X009503Y004618D01*
X009481Y004596D02*
X009481Y004596D01*
X009704Y004374D02*
X009460Y004130D01*
X009337Y004130D01*
X010077Y004301D02*
X010077Y004301D01*
X010039Y004618D02*
X010214Y004618D01*
X010937Y004230D02*
X012037Y005330D01*
X012776Y005728D02*
X012791Y005728D01*
X012928Y005930D02*
X013537Y005930D01*
X013880Y006045D02*
X013927Y006045D01*
X013897Y005886D02*
X013968Y005886D01*
X014047Y005728D02*
X013843Y005728D01*
X013301Y006203D02*
X013177Y006203D01*
X013116Y006362D02*
X013076Y006362D01*
X012762Y006096D02*
X012928Y005930D01*
X012539Y006318D02*
X012901Y006680D01*
X013037Y006680D01*
X013287Y006680D01*
X013647Y006679D02*
X014503Y006679D01*
X014503Y006837D02*
X013900Y006837D01*
X013675Y006837D02*
X013612Y006837D01*
X014101Y006996D02*
X014503Y006996D01*
X014555Y007154D02*
X014147Y007154D01*
X014122Y007313D02*
X014797Y007313D01*
X014797Y007471D02*
X014006Y007471D01*
X013787Y007180D02*
X012956Y007180D01*
X012317Y006541D01*
X012009Y006679D02*
X012009Y006679D01*
X012094Y006764D02*
X012094Y006764D01*
X012167Y006837D02*
X012167Y006837D01*
X012326Y006996D02*
X012326Y006996D01*
X012378Y007154D02*
X012590Y007154D01*
X012529Y007313D02*
X012749Y007313D01*
X012672Y007471D02*
X013569Y007471D01*
X012826Y007630D02*
X014898Y007630D01*
X014862Y007657D02*
X014903Y007681D01*
X014937Y007715D01*
X014960Y007756D01*
X014973Y007801D01*
X014973Y008103D01*
X014555Y008103D01*
X014555Y007645D01*
X014816Y007645D01*
X014862Y007657D01*
X014969Y007788D02*
X015056Y007788D01*
X015122Y007947D02*
X014973Y007947D01*
X015122Y008105D02*
X014555Y008105D01*
X014555Y007947D02*
X014400Y007947D01*
X014400Y007788D02*
X014555Y007788D01*
X015037Y007430D02*
X015537Y007930D01*
X015597Y008180D01*
X015122Y008264D02*
X014973Y008264D01*
X014973Y008422D02*
X015122Y008422D01*
X015122Y008581D02*
X014967Y008581D01*
X014933Y008739D02*
X015124Y008739D01*
X015102Y008898D02*
X014953Y008898D01*
X014953Y009056D02*
X015102Y009056D01*
X016092Y009373D02*
X016906Y009373D01*
X017466Y009690D02*
X018932Y009690D01*
X018981Y009532D02*
X017581Y009532D01*
X017597Y009373D02*
X019030Y009373D01*
X019085Y009215D02*
X017709Y009215D01*
X017802Y009056D02*
X019193Y009056D01*
X019301Y008898D02*
X017802Y008898D01*
X017917Y008739D02*
X019454Y008739D01*
X019356Y008817D02*
X019356Y008817D01*
X019653Y008581D02*
X018075Y008581D01*
X018234Y008422D02*
X019959Y008422D01*
X019747Y008505D02*
X019747Y008505D01*
X020214Y008322D02*
X020214Y008322D01*
X020713Y008285D02*
X020713Y008285D01*
X021246Y008422D02*
X022107Y008422D01*
X022107Y008581D02*
X021521Y008581D01*
X021635Y008647D02*
X021635Y008647D01*
X021721Y008739D02*
X022107Y008739D01*
X022107Y008898D02*
X021868Y008898D01*
X021976Y009014D02*
X021976Y009014D01*
X021996Y009056D02*
X022107Y009056D01*
X022107Y009215D02*
X022072Y009215D01*
X022107Y008264D02*
X018338Y008264D01*
X018347Y008105D02*
X022107Y008105D01*
X022107Y007947D02*
X018347Y007947D01*
X018347Y007788D02*
X018495Y007788D01*
X019080Y007788D02*
X019467Y007788D01*
X019589Y007910D02*
X019307Y007629D01*
X019307Y007440D01*
X019777Y007440D01*
X019777Y007420D01*
X019307Y007420D01*
X019307Y007231D01*
X019589Y006950D01*
X019777Y006950D01*
X019777Y007420D01*
X019797Y007420D01*
X019797Y006950D01*
X019986Y006950D01*
X020267Y007231D01*
X020267Y007420D01*
X019797Y007420D01*
X019797Y007440D01*
X019777Y007440D01*
X019777Y007910D01*
X019589Y007910D01*
X019797Y007910D02*
X019797Y007440D01*
X020267Y007440D01*
X020267Y007629D01*
X019986Y007910D01*
X019797Y007910D01*
X019797Y007788D02*
X019777Y007788D01*
X019777Y007630D02*
X019797Y007630D01*
X020108Y007788D02*
X022107Y007788D01*
X022107Y007630D02*
X020267Y007630D01*
X020267Y007471D02*
X022107Y007471D01*
X022107Y007313D02*
X020267Y007313D01*
X020190Y007154D02*
X022107Y007154D01*
X022107Y006996D02*
X020032Y006996D01*
X019986Y006910D02*
X019797Y006910D01*
X019797Y006440D01*
X019777Y006440D01*
X019777Y006420D01*
X019307Y006420D01*
X019307Y006231D01*
X019589Y005950D01*
X019777Y005950D01*
X019777Y006420D01*
X019797Y006420D01*
X019797Y005950D01*
X019986Y005950D01*
X020267Y006231D01*
X020267Y006420D01*
X019797Y006420D01*
X019797Y006440D01*
X020267Y006440D01*
X020267Y006629D01*
X019986Y006910D01*
X020059Y006837D02*
X022107Y006837D01*
X022107Y006679D02*
X020218Y006679D01*
X019797Y006679D02*
X019777Y006679D01*
X019777Y006837D02*
X019797Y006837D01*
X019777Y006910D02*
X019589Y006910D01*
X019307Y006629D01*
X019307Y006440D01*
X019777Y006440D01*
X019777Y006910D01*
X019777Y006996D02*
X019797Y006996D01*
X019797Y007154D02*
X019777Y007154D01*
X019777Y007313D02*
X019797Y007313D01*
X019797Y007471D02*
X019777Y007471D01*
X019385Y007154D02*
X019162Y007154D01*
X019247Y007313D02*
X019307Y007313D01*
X019307Y007471D02*
X019247Y007471D01*
X019239Y007630D02*
X019308Y007630D01*
X018413Y007154D02*
X018347Y007154D01*
X018347Y006996D02*
X018571Y006996D01*
X018544Y006837D02*
X018347Y006837D01*
X018347Y006679D02*
X018385Y006679D01*
X019031Y006837D02*
X019516Y006837D01*
X019543Y006996D02*
X019004Y006996D01*
X019190Y006679D02*
X019357Y006679D01*
X019307Y006520D02*
X019247Y006520D01*
X019247Y006362D02*
X019307Y006362D01*
X019336Y006203D02*
X019211Y006203D01*
X019053Y006045D02*
X019494Y006045D01*
X019589Y005910D02*
X019307Y005629D01*
X019307Y005440D01*
X019777Y005440D01*
X019777Y005420D01*
X019307Y005420D01*
X019307Y005231D01*
X019589Y004950D01*
X019777Y004950D01*
X019777Y005420D01*
X019797Y005420D01*
X019797Y004950D01*
X019986Y004950D01*
X020267Y005231D01*
X020267Y005420D01*
X019797Y005420D01*
X019797Y005440D01*
X019777Y005440D01*
X019777Y005910D01*
X019589Y005910D01*
X019565Y005886D02*
X018982Y005886D01*
X019141Y005728D02*
X019406Y005728D01*
X019307Y005569D02*
X019247Y005569D01*
X019247Y005411D02*
X019307Y005411D01*
X019307Y005252D02*
X019247Y005252D01*
X019102Y005094D02*
X019445Y005094D01*
X019589Y004910D02*
X019307Y004629D01*
X019307Y004440D01*
X019777Y004440D01*
X019777Y004420D01*
X019307Y004420D01*
X019307Y004231D01*
X019589Y003950D01*
X019777Y003950D01*
X019777Y004420D01*
X019797Y004420D01*
X019797Y003950D01*
X019986Y003950D01*
X020267Y004231D01*
X020267Y004420D01*
X019797Y004420D01*
X019797Y004440D01*
X019777Y004440D01*
X019777Y004910D01*
X019589Y004910D01*
X019455Y004777D02*
X019092Y004777D01*
X019247Y004618D02*
X019307Y004618D01*
X019307Y004460D02*
X019247Y004460D01*
X019247Y004301D02*
X019307Y004301D01*
X019396Y004143D02*
X019151Y004143D01*
X018992Y003984D02*
X019555Y003984D01*
X019777Y003984D02*
X019797Y003984D01*
X019797Y004143D02*
X019777Y004143D01*
X020020Y003984D02*
X022107Y003984D01*
X022107Y003826D02*
X018347Y003826D01*
X018347Y003984D02*
X018583Y003984D01*
X018424Y004143D02*
X018347Y004143D01*
X017727Y004143D02*
X015914Y004143D01*
X015756Y004301D02*
X017727Y004301D01*
X018347Y004777D02*
X018483Y004777D01*
X018347Y004935D02*
X022107Y004935D01*
X022107Y004777D02*
X020120Y004777D01*
X019986Y004910D02*
X019797Y004910D01*
X019797Y004440D01*
X020267Y004440D01*
X020267Y004629D01*
X019986Y004910D01*
X019797Y004777D02*
X019777Y004777D01*
X019777Y004618D02*
X019797Y004618D01*
X019797Y004460D02*
X019777Y004460D01*
X019777Y004301D02*
X019797Y004301D01*
X020179Y004143D02*
X022107Y004143D01*
X022107Y004301D02*
X020267Y004301D01*
X020267Y004460D02*
X022107Y004460D01*
X022107Y004618D02*
X020267Y004618D01*
X020130Y005094D02*
X022107Y005094D01*
X022107Y005252D02*
X020267Y005252D01*
X020267Y005411D02*
X022107Y005411D01*
X022107Y005569D02*
X020267Y005569D01*
X020267Y005629D02*
X020267Y005440D01*
X019797Y005440D01*
X019797Y005910D01*
X019986Y005910D01*
X020267Y005629D01*
X020169Y005728D02*
X022107Y005728D01*
X022107Y005886D02*
X020010Y005886D01*
X020081Y006045D02*
X022107Y006045D01*
X022107Y006203D02*
X020239Y006203D01*
X020267Y006362D02*
X022107Y006362D01*
X022107Y006520D02*
X020267Y006520D01*
X019797Y006520D02*
X019777Y006520D01*
X019777Y006362D02*
X019797Y006362D01*
X019797Y006203D02*
X019777Y006203D01*
X019777Y006045D02*
X019797Y006045D01*
X019797Y005886D02*
X019777Y005886D01*
X019777Y005728D02*
X019797Y005728D01*
X019797Y005569D02*
X019777Y005569D01*
X019777Y005411D02*
X019797Y005411D01*
X019797Y005252D02*
X019777Y005252D01*
X019777Y005094D02*
X019797Y005094D01*
X018473Y005094D02*
X018347Y005094D01*
X018347Y005728D02*
X018434Y005728D01*
X018347Y005886D02*
X018593Y005886D01*
X018522Y006045D02*
X018347Y006045D01*
X018347Y006203D02*
X018364Y006203D01*
X015037Y006740D02*
X015037Y007430D01*
X015037Y006740D02*
X014978Y006680D01*
X012937Y008080D02*
X012537Y007680D01*
X012287Y007403D01*
X011871Y006986D01*
X011667Y007209D02*
X011648Y007209D01*
X013019Y008580D01*
X013187Y008580D01*
X013487Y008580D01*
X013637Y008080D02*
X012937Y008080D01*
X011874Y008280D02*
X011837Y008244D01*
X011837Y007830D01*
X011812Y007805D01*
X011737Y007730D01*
X011439Y007432D01*
X011426Y007432D01*
X011203Y007654D02*
X011037Y007820D01*
X011037Y008180D01*
X011393Y008264D02*
X011514Y008264D01*
X011557Y008105D02*
X011396Y008105D01*
X011491Y007947D02*
X011597Y007947D01*
X011543Y008422D02*
X011305Y008422D01*
X011665Y008581D02*
X010865Y008581D01*
X010732Y008739D02*
X011895Y008739D01*
X012053Y008898D02*
X010469Y008898D01*
X010628Y009056D02*
X012212Y009056D01*
X012370Y009215D02*
X010786Y009215D01*
X010945Y009373D02*
X012571Y009373D01*
X012465Y009532D02*
X012110Y009532D01*
X012247Y009690D02*
X012327Y009690D01*
X012327Y009849D02*
X012247Y009849D01*
X012247Y010007D02*
X012327Y010007D01*
X012442Y010166D02*
X012133Y010166D01*
X011986Y010380D02*
X011797Y010380D01*
X011797Y010850D01*
X011777Y010850D01*
X011777Y010870D01*
X011307Y010870D01*
X011307Y011059D01*
X011589Y011340D01*
X011777Y011340D01*
X011777Y010870D01*
X011797Y010870D01*
X011797Y011340D01*
X011986Y011340D01*
X012267Y011059D01*
X012267Y010870D01*
X011797Y010870D01*
X011797Y010850D01*
X012267Y010850D01*
X012267Y010661D01*
X011986Y010380D01*
X012089Y010483D02*
X012514Y010483D01*
X012356Y010641D02*
X012247Y010641D01*
X012267Y010800D02*
X012327Y010800D01*
X012327Y010958D02*
X012267Y010958D01*
X012210Y011117D02*
X012393Y011117D01*
X012552Y011275D02*
X012051Y011275D01*
X011797Y011275D02*
X011777Y011275D01*
X011524Y011275D02*
X011023Y011275D01*
X011181Y011117D02*
X011365Y011117D01*
X011307Y010958D02*
X011247Y010958D01*
X011247Y010800D02*
X011307Y010800D01*
X011328Y010641D02*
X011219Y010641D01*
X011387Y010330D02*
X010937Y010330D01*
X009437Y010330D01*
X009287Y010180D01*
X009287Y008680D01*
X009287Y007403D01*
X009704Y006986D01*
X009481Y006764D02*
X008787Y007457D01*
X008787Y009430D01*
X008787Y009680D01*
X008787Y009860D01*
X008187Y010330D02*
X007437Y010330D01*
X007287Y010180D01*
X007287Y009930D01*
X007287Y008930D01*
X007287Y008066D01*
X008287Y007066D01*
X009036Y006318D01*
X009258Y006541D02*
X007787Y008012D01*
X007787Y008930D01*
X007787Y009860D01*
X008187Y010330D02*
X008717Y010860D01*
X008787Y010860D01*
X009287Y011430D02*
X009787Y010930D01*
X009787Y010860D01*
X010247Y010800D02*
X010327Y010800D01*
X010327Y010958D02*
X010247Y010958D01*
X010181Y011117D02*
X010393Y011117D01*
X010552Y011275D02*
X010023Y011275D01*
X009623Y011434D02*
X019795Y011434D01*
X019747Y011415D02*
X019747Y011415D01*
X019572Y011275D02*
X014052Y011275D01*
X013623Y011275D02*
X013023Y011275D01*
X013181Y011117D02*
X013504Y011117D01*
X013477Y010958D02*
X013247Y010958D01*
X013286Y010800D02*
X013523Y010800D01*
X013837Y010980D02*
X014287Y010980D01*
X014387Y010880D01*
X014437Y010830D01*
X014845Y010830D01*
X014871Y010804D01*
X015257Y011117D02*
X015268Y011117D01*
X016187Y011117D02*
X016388Y011117D01*
X016372Y010958D02*
X016203Y010958D01*
X016203Y010800D02*
X016372Y010800D01*
X016372Y010641D02*
X016203Y010641D01*
X016203Y010483D02*
X016372Y010483D01*
X016372Y010324D02*
X016203Y010324D01*
X016109Y010166D02*
X016466Y010166D01*
X017197Y010007D02*
X018926Y010007D01*
X018926Y009849D02*
X017307Y009849D01*
X017229Y010166D02*
X018926Y010166D01*
X018961Y010324D02*
X018138Y010324D01*
X018249Y010483D02*
X019010Y010483D01*
X019059Y010641D02*
X018286Y010641D01*
X018276Y010800D02*
X019149Y010800D01*
X019257Y010958D02*
X018206Y010958D01*
X018031Y011117D02*
X019373Y011117D01*
X019356Y011103D02*
X019356Y011103D01*
X017544Y011117D02*
X017307Y011117D01*
X017322Y010958D02*
X017369Y010958D01*
X017326Y010483D02*
X017322Y010483D01*
X017322Y010324D02*
X017437Y010324D01*
X015346Y010166D02*
X015306Y010166D01*
X013726Y010007D02*
X013247Y010007D01*
X013247Y009849D02*
X013568Y009849D01*
X013409Y009690D02*
X013247Y009690D01*
X013251Y009532D02*
X013110Y009532D01*
X011787Y009860D02*
X011787Y009930D01*
X011387Y010330D01*
X011733Y010324D02*
X012885Y010324D01*
X011797Y010483D02*
X011777Y010483D01*
X011777Y010641D02*
X011797Y010641D01*
X011797Y010800D02*
X011777Y010800D01*
X011777Y010958D02*
X011797Y010958D01*
X011797Y011117D02*
X011777Y011117D01*
X010356Y010641D02*
X010219Y010641D01*
X011247Y010007D02*
X011327Y010007D01*
X011327Y009849D02*
X011247Y009849D01*
X011247Y009690D02*
X011327Y009690D01*
X011465Y009532D02*
X011110Y009532D01*
X010787Y009555D02*
X010787Y009860D01*
X010787Y009555D02*
X010537Y009305D01*
X010287Y009055D01*
X010037Y008805D01*
X010037Y008430D01*
X009787Y008180D01*
X009787Y007794D01*
X010149Y007432D01*
X009927Y007209D02*
X009537Y007598D01*
X009537Y008930D01*
X009787Y009180D01*
X009787Y009860D01*
X010311Y008739D02*
X010343Y008739D01*
X010537Y008430D02*
X010537Y007820D01*
X010372Y007654D01*
X011347Y006837D02*
X011441Y006837D01*
X011599Y006679D02*
X011130Y006679D01*
X010945Y006679D02*
X010724Y006679D01*
X010566Y006520D02*
X010918Y006520D01*
X011157Y006520D02*
X011729Y006520D01*
X011850Y006520D02*
X011850Y006520D01*
X011774Y006203D02*
X012075Y006203D01*
X010797Y005886D02*
X009932Y005886D01*
X010090Y006045D02*
X010704Y006045D01*
X010677Y006203D02*
X010249Y006203D01*
X010407Y006362D02*
X010723Y006362D01*
X010797Y005728D02*
X009773Y005728D01*
X008813Y006096D02*
X007287Y007621D01*
X006287Y008621D01*
X006287Y009180D01*
X006287Y011180D01*
X006537Y011430D01*
X007037Y011430D01*
X007537Y011430D01*
X009287Y011430D01*
X006202Y011434D02*
X003924Y011434D01*
X003574Y011275D02*
X006067Y011275D01*
X006047Y011117D02*
X003377Y011117D01*
X003228Y010958D02*
X006047Y010958D01*
X006047Y010800D02*
X003136Y010800D01*
X003057Y010641D02*
X006047Y010641D01*
X006047Y010483D02*
X003015Y010483D01*
X002977Y010324D02*
X004690Y010324D01*
X004552Y010166D02*
X002967Y010166D01*
X002967Y010007D02*
X004494Y010007D01*
X004494Y009849D02*
X002967Y009849D01*
X002967Y009690D02*
X004554Y009690D01*
X004695Y009532D02*
X002967Y009532D01*
X002967Y009373D02*
X004794Y009373D01*
X004581Y009215D02*
X002967Y009215D01*
X002967Y009056D02*
X004507Y009056D01*
X004494Y008898D02*
X002967Y008898D01*
X002967Y008739D02*
X004534Y008739D01*
X004646Y008581D02*
X002967Y008581D01*
X002967Y008422D02*
X006147Y008422D01*
X006047Y008581D02*
X005929Y008581D01*
X006041Y008739D02*
X006047Y008739D01*
X005874Y008334D02*
X005699Y008407D01*
X004876Y008407D01*
X004701Y008334D01*
X004566Y008200D01*
X004494Y008025D01*
X004494Y007835D01*
X004566Y007660D01*
X004701Y007526D01*
X004876Y007453D01*
X005699Y007453D01*
X005874Y007526D01*
X006009Y007660D01*
X006081Y007835D01*
X006081Y008025D01*
X006009Y008200D01*
X005874Y008334D01*
X005945Y008264D02*
X006306Y008264D01*
X006464Y008105D02*
X006048Y008105D01*
X006081Y007947D02*
X006623Y007947D01*
X006781Y007788D02*
X006062Y007788D01*
X005978Y007630D02*
X006940Y007630D01*
X007098Y007471D02*
X005742Y007471D01*
X005721Y007415D02*
X005643Y007427D01*
X005306Y007427D01*
X005306Y006948D01*
X006101Y006948D01*
X006101Y006969D01*
X006089Y007046D01*
X006065Y007121D01*
X006029Y007190D01*
X005983Y007254D01*
X005928Y007309D01*
X005865Y007355D01*
X005795Y007390D01*
X005721Y007415D01*
X005923Y007313D02*
X007257Y007313D01*
X007415Y007154D02*
X006048Y007154D01*
X006097Y006996D02*
X007574Y006996D01*
X007732Y006837D02*
X006093Y006837D01*
X006089Y006814D02*
X006101Y006891D01*
X006101Y006912D01*
X005306Y006912D01*
X005306Y006948D01*
X005269Y006948D01*
X005269Y006912D01*
X004474Y006912D01*
X004474Y006891D01*
X004486Y006814D01*
X004510Y006739D01*
X004546Y006670D01*
X004592Y006606D01*
X004647Y006551D01*
X004710Y006505D01*
X004780Y006470D01*
X004854Y006445D01*
X004932Y006433D01*
X005269Y006433D01*
X005269Y006912D01*
X005306Y006912D01*
X005306Y006433D01*
X005643Y006433D01*
X005721Y006445D01*
X005795Y006470D01*
X005865Y006505D01*
X005928Y006551D01*
X005983Y006606D01*
X006029Y006670D01*
X006065Y006739D01*
X006089Y006814D01*
X006034Y006679D02*
X007891Y006679D01*
X008049Y006520D02*
X005885Y006520D01*
X005306Y006520D02*
X005269Y006520D01*
X005269Y006679D02*
X005306Y006679D01*
X005306Y006837D02*
X005269Y006837D01*
X005269Y006948D02*
X004474Y006948D01*
X004474Y006969D01*
X004486Y007046D01*
X004510Y007121D01*
X004546Y007190D01*
X004592Y007254D01*
X004647Y007309D01*
X004710Y007355D01*
X004780Y007390D01*
X004854Y007415D01*
X004932Y007427D01*
X005269Y007427D01*
X005269Y006948D01*
X005269Y006996D02*
X005306Y006996D01*
X005306Y007154D02*
X005269Y007154D01*
X005269Y007313D02*
X005306Y007313D01*
X004833Y007471D02*
X002967Y007471D01*
X002967Y007313D02*
X004652Y007313D01*
X004527Y007154D02*
X002967Y007154D01*
X002967Y006996D02*
X004478Y006996D01*
X004482Y006837D02*
X002967Y006837D01*
X002967Y006679D02*
X004541Y006679D01*
X004690Y006520D02*
X002967Y006520D01*
X002967Y006362D02*
X008208Y006362D01*
X008366Y006203D02*
X002967Y006203D01*
X002967Y006045D02*
X008482Y006045D01*
X008037Y005680D02*
X007987Y005680D01*
X007978Y005680D02*
X007787Y005490D01*
X008302Y005252D02*
X008419Y005252D01*
X008321Y005094D02*
X008287Y005094D01*
X008297Y004935D02*
X006481Y004935D01*
X006710Y004777D02*
X006865Y004777D01*
X006865Y004618D02*
X006710Y004618D01*
X006710Y004460D02*
X006865Y004460D01*
X006865Y004301D02*
X007710Y004301D01*
X007710Y004460D02*
X007865Y004460D01*
X007865Y004618D02*
X007710Y004618D01*
X007710Y004777D02*
X007865Y004777D01*
X008537Y004989D02*
X008537Y003930D01*
X008347Y003740D01*
X008347Y003180D01*
X008387Y003140D01*
X008387Y001680D01*
X008147Y002241D02*
X005993Y002241D01*
X005769Y002399D02*
X008147Y002399D01*
X008147Y002558D02*
X005906Y002558D01*
X005874Y002526D02*
X006009Y002660D01*
X006081Y002835D01*
X006081Y003025D01*
X006009Y003200D01*
X005874Y003334D01*
X005699Y003407D01*
X004876Y003407D01*
X004701Y003334D01*
X004566Y003200D01*
X004494Y003025D01*
X004494Y002835D01*
X004566Y002660D01*
X004701Y002526D01*
X004876Y002453D01*
X005699Y002453D01*
X005874Y002526D01*
X006032Y002716D02*
X006768Y002716D01*
X006769Y002715D02*
X006802Y002681D01*
X006843Y002657D01*
X006889Y002645D01*
X007150Y002645D01*
X007150Y003103D01*
X006733Y003103D01*
X006733Y002801D01*
X006745Y002756D01*
X006769Y002715D01*
X007150Y002716D02*
X007305Y002716D01*
X007305Y002645D02*
X007566Y002645D01*
X007612Y002657D01*
X007653Y002681D01*
X007687Y002715D01*
X007710Y002756D01*
X007723Y002801D01*
X007723Y003103D01*
X007305Y003103D01*
X007305Y003257D01*
X007723Y003257D01*
X007723Y003559D01*
X007710Y003604D01*
X007687Y003645D01*
X007653Y003679D01*
X007612Y003703D01*
X007566Y003715D01*
X007305Y003715D01*
X007305Y003257D01*
X007150Y003257D01*
X007150Y003103D01*
X007305Y003103D01*
X007305Y002645D01*
X007305Y002875D02*
X007150Y002875D01*
X007150Y003033D02*
X007305Y003033D01*
X007305Y003192D02*
X007872Y003192D01*
X007872Y003033D02*
X007723Y003033D01*
X007723Y002875D02*
X007872Y002875D01*
X007915Y002716D02*
X007687Y002716D01*
X007150Y003192D02*
X006012Y003192D01*
X006078Y003033D02*
X006733Y003033D01*
X006733Y002875D02*
X006081Y002875D01*
X006733Y003257D02*
X007150Y003257D01*
X007150Y003715D01*
X006889Y003715D01*
X006843Y003703D01*
X006802Y003679D01*
X006769Y003645D01*
X006745Y003604D01*
X006733Y003559D01*
X006733Y003257D01*
X006733Y003350D02*
X005836Y003350D01*
X005833Y003509D02*
X006733Y003509D01*
X006790Y003667D02*
X006012Y003667D01*
X006009Y003660D02*
X006081Y003835D01*
X006081Y004025D01*
X006009Y004200D01*
X005874Y004334D01*
X005699Y004407D01*
X004876Y004407D01*
X004701Y004334D01*
X004566Y004200D01*
X004494Y004025D01*
X004494Y003835D01*
X004566Y003660D01*
X004701Y003526D01*
X004876Y003453D01*
X005699Y003453D01*
X005874Y003526D01*
X006009Y003660D01*
X006077Y003826D02*
X008123Y003826D01*
X007865Y003984D02*
X007710Y003984D01*
X007710Y004143D02*
X007865Y004143D01*
X007938Y003667D02*
X007665Y003667D01*
X007723Y003509D02*
X007872Y003509D01*
X007872Y003350D02*
X007723Y003350D01*
X007305Y003350D02*
X007150Y003350D01*
X007150Y003509D02*
X007305Y003509D01*
X007305Y003667D02*
X007150Y003667D01*
X006865Y003984D02*
X006710Y003984D01*
X006710Y004143D02*
X006865Y004143D01*
X006710Y004301D02*
X005908Y004301D01*
X005715Y004460D02*
X006253Y004460D01*
X006253Y004618D02*
X005967Y004618D01*
X006032Y004143D02*
X006253Y004143D01*
X006266Y003984D02*
X006081Y003984D01*
X004860Y004460D02*
X002967Y004460D01*
X002967Y004618D02*
X004608Y004618D01*
X004518Y004777D02*
X002967Y004777D01*
X002967Y004935D02*
X004494Y004935D01*
X004522Y005094D02*
X002967Y005094D01*
X002967Y005252D02*
X004618Y005252D01*
X006080Y005411D02*
X002967Y005411D01*
X002967Y005569D02*
X006238Y005569D01*
X006273Y005728D02*
X002967Y005728D01*
X002967Y005886D02*
X006287Y005886D01*
X007287Y005094D02*
X007288Y005094D01*
X008537Y004989D02*
X008813Y005264D01*
X010937Y004230D02*
X010937Y003971D01*
X011037Y003871D01*
X011203Y003706D01*
X011426Y003928D02*
X011787Y003566D01*
X011787Y003430D01*
X011787Y003180D01*
X011537Y002930D01*
X011287Y002930D01*
X010787Y002680D02*
X010787Y003430D01*
X010517Y003192D02*
X009365Y003192D01*
X009524Y003033D02*
X010547Y003033D01*
X010547Y002875D02*
X009682Y002875D01*
X009841Y002716D02*
X010547Y002716D01*
X010578Y002558D02*
X009999Y002558D01*
X010158Y002399D02*
X010729Y002399D01*
X010888Y002241D02*
X010316Y002241D01*
X010475Y002082D02*
X010977Y002082D01*
X010977Y001924D02*
X010633Y001924D01*
X010113Y001765D02*
X009597Y001765D01*
X009597Y001607D02*
X010272Y001607D01*
X010470Y001448D02*
X009597Y001448D01*
X009597Y001290D02*
X010977Y001290D01*
X009955Y001924D02*
X009597Y001924D01*
X009597Y002082D02*
X009796Y002082D01*
X009638Y002241D02*
X008627Y002241D01*
X008627Y002399D02*
X009479Y002399D01*
X009321Y002558D02*
X008627Y002558D01*
X008779Y002716D02*
X009162Y002716D01*
X009004Y002875D02*
X008822Y002875D01*
X008822Y003033D02*
X008845Y003033D01*
X009277Y003350D02*
X010148Y003350D01*
X009989Y003509D02*
X009277Y003509D01*
X009277Y003667D02*
X009831Y003667D01*
X010398Y003350D02*
X010431Y003350D01*
X010787Y002680D02*
X011037Y002430D01*
X011537Y002430D01*
X012037Y002930D01*
X012037Y003762D01*
X011648Y004151D01*
X012277Y003509D02*
X012397Y003509D01*
X012277Y003350D02*
X012555Y003350D01*
X012763Y003192D02*
X012277Y003192D01*
X012277Y003033D02*
X013503Y003033D01*
X013503Y002875D02*
X012274Y002875D01*
X013397Y001290D02*
X013523Y001290D01*
X018347Y003509D02*
X020355Y003509D01*
X020713Y003535D02*
X020713Y003535D01*
X020830Y003509D02*
X022107Y003509D01*
X022107Y003667D02*
X018347Y003667D01*
X021201Y003424D02*
X021201Y003424D01*
X021329Y003350D02*
X022107Y003350D01*
X022107Y003192D02*
X021604Y003192D01*
X021635Y003173D02*
X021635Y003173D01*
X021765Y003033D02*
X022107Y003033D01*
X022107Y002875D02*
X021912Y002875D01*
X022019Y002716D02*
X022107Y002716D01*
X022095Y002558D02*
X022107Y002558D01*
X006026Y001607D02*
X005983Y001607D01*
X005864Y001448D02*
X005729Y001448D01*
X005306Y001448D02*
X005269Y001448D01*
X005269Y001607D02*
X005306Y001607D01*
X005306Y001765D02*
X005269Y001765D01*
X005269Y002082D02*
X005306Y002082D01*
X005306Y002241D02*
X005269Y002241D01*
X005269Y002399D02*
X005306Y002399D01*
X004806Y002399D02*
X002967Y002399D01*
X002967Y002558D02*
X004669Y002558D01*
X004543Y002716D02*
X002967Y002716D01*
X002967Y002875D02*
X004494Y002875D01*
X004497Y003033D02*
X002967Y003033D01*
X002967Y003192D02*
X004563Y003192D01*
X004739Y003350D02*
X002967Y003350D01*
X002967Y003509D02*
X004742Y003509D01*
X004563Y003667D02*
X002967Y003667D01*
X002967Y003826D02*
X004498Y003826D01*
X004494Y003984D02*
X002967Y003984D01*
X002967Y004143D02*
X004543Y004143D01*
X004667Y004301D02*
X002967Y004301D01*
X002967Y002241D02*
X004582Y002241D01*
X004597Y007630D02*
X002967Y007630D01*
X002967Y007788D02*
X004513Y007788D01*
X004494Y007947D02*
X002967Y007947D01*
X002967Y008105D02*
X004527Y008105D01*
X004630Y008264D02*
X002967Y008264D01*
X005781Y009373D02*
X006047Y009373D01*
X006047Y009532D02*
X005880Y009532D01*
X006021Y009690D02*
X006047Y009690D01*
X006047Y009215D02*
X005994Y009215D01*
X006023Y010166D02*
X006047Y010166D01*
X006047Y010324D02*
X005885Y010324D01*
D23*
X010837Y006630D02*
X011337Y006630D01*
X011487Y006480D01*
X011810Y006480D01*
D24*
X008537Y005680D02*
X008437Y005680D01*
X008037Y005680D01*
X008437Y005680D02*
X008537Y005680D01*
M02*
